<?xml version="1.0" encoding="UTF-8"?>
<svg id="Layer_1" data-name="Layer 1" xmlns="http://www.w3.org/2000/svg" viewBox="0 0 62.36 75.59">
  <path d="m5.52.58c.11-.07.21-.1.28-.09.09.02.2.14.34.36.15.25.22.41.23.46.01.09.04.53.09,1.3.05.8.11,1.55.18,2.27.13,1.29.15,2.12.07,2.5-.05.23-.15.4-.31.5-.08.06-.16.08-.23.06-.2-.05-.36-.27-.46-.68-.15-.56-.26-1.27-.35-2.14-.08-.88-.13-1.7-.13-2.46v-.21s-.24.36-.24.36c-.31.49-.6.84-.85,1.05-.1.08-.2.12-.29.09-.06-.01-.12-.05-.18-.11-.15-.16-.31-.6-.48-1.31l-.14-.57-.07.17c-.21.4-.48.96-.82,1.69-.28.63-.42.97-.43,1,0,.02-.04.09-.1.24-.06.13-.14.3-.24.49-.09.18-.17.34-.24.46-.13.22-.28.38-.44.49-.16.11-.31.15-.43.12-.1-.02-.18-.09-.23-.2-.05-.12-.04-.31.02-.57.01-.05.15-.47.42-1.28.2-.52.43-1.06.69-1.63.07-.16.24-.47.5-.93.28-.47.48-.79.61-.97.2-.26.42-.5.66-.71C3.19.08,3.36-.02,3.45,0c.17.04.41.42.71,1.15l.24.59.21-.27c.29-.39.6-.69.91-.9Zm4.76,2.17c-.01.05-.04.29-.1.7-.05.41-.08.65-.1.7-.02.11-.04.18-.03.2.01.03.03.04.07.04.31-.03.71.01,1.21.12.25.06.46.12.62.2.3.14.43.29.39.46-.02.1-.12.21-.31.33-.13.08-.23.13-.28.15-.05.01-.17,0-.35-.03-.21-.03-.53-.06-.96-.09-.43-.04-.66-.05-.68-.04,0,0-.09.29-.23.86l-.09.39c-.07.31-.09.49-.07.53.04.07.28.15.71.24.3.07.61.12.91.14.31.02.52.04.65.07.12.03.26.09.4.2.16.13.23.25.2.36-.02.1-.11.2-.27.31-.13.09-.5.13-1.1.1-.61-.04-1.22-.12-1.83-.25-.54-.12-.86-.22-.95-.31l-.14-.13.25-1.24c.46-2.32.74-3.68.83-4.11.06-.27.12-.46.19-.6.12-.22.29-.36.5-.42.22-.07.56-.08,1.02-.04.23.02.49.06.8.13.64.14,1.09.31,1.36.5.17.13.24.25.22.36-.02.11-.14.22-.33.34-.12.07-.34.08-.66.04-1.18-.16-1.8-.23-1.86-.22Zm5.48,1.22c-.01.05-.04.29-.1.7-.05.41-.08.65-.1.7-.02.11-.04.18-.03.2.01.03.03.04.07.04.31-.03.71.01,1.21.12.25.06.46.12.62.2.3.14.43.29.39.46-.02.1-.12.21-.31.33-.13.09-.23.13-.28.15-.05.01-.17,0-.35-.03-.21-.03-.53-.06-.96-.09-.43-.04-.66-.05-.68-.04,0,0-.09.29-.23.86l-.09.39c-.07.31-.09.49-.07.53.04.07.28.15.71.24.3.07.61.12.91.14.31.02.52.04.65.07.12.03.26.09.4.2.16.13.23.25.2.36-.02.1-.11.2-.27.31-.13.09-.5.13-1.1.1-.61-.04-1.22-.12-1.83-.25-.54-.12-.86-.22-.95-.31l-.14-.13.25-1.23c.46-2.32.74-3.68.83-4.11.06-.27.12-.46.19-.6.12-.22.29-.36.5-.42.22-.07.56-.08,1.02-.04.23.02.49.06.8.13.64.14,1.09.31,1.36.5.17.13.24.25.22.36-.02.11-.14.22-.33.34-.12.07-.34.08-.66.04-1.18-.16-1.8-.23-1.86-.22Zm6.5.05c.32.05.67.11,1.05.2.38.09.74.18,1.06.27.97.3,1.43.58,1.38.84-.01.05-.03.09-.07.14-.18.26-.72.39-1.62.38l-.41-.02-.44,2.08-.18.82c-.17.77-.3,1.3-.39,1.57s-.18.47-.29.59c-.2.22-.39.31-.58.27h-.05c-.12-.07-.21-.21-.28-.43-.06-.23-.08-.48-.05-.75,0-.02.01-.12.03-.29s.02-.29.02-.38c.04-.6.18-1.49.45-2.67l.09-.39.21-.83-.42-.14c-.46-.16-.83-.34-1.11-.53s-.41-.36-.38-.49c.03-.16.23-.26.59-.3.36-.04.83-.02,1.4.05Zm9.68,2.16c.32.05.67.11,1.05.2.38.09.74.18,1.06.27.97.3,1.43.58,1.38.84-.01.05-.03.1-.07.14-.18.26-.72.39-1.62.38l-.41-.02-.44,2.08-.18.82c-.17.77-.3,1.3-.39,1.57-.09.28-.18.47-.29.59-.2.22-.39.31-.58.27h-.05c-.12-.07-.21-.21-.28-.43-.06-.23-.08-.48-.05-.75,0-.02.01-.12.03-.29.01-.17.02-.29.02-.38.04-.6.18-1.49.45-2.67l.09-.39.21-.83-.42-.14c-.46-.16-.83-.34-1.11-.53-.28-.19-.41-.36-.38-.49.03-.16.23-.26.6-.3.36-.04.83-.02,1.4.05Zm5.72,2.68c-.01.05-.04.29-.1.7-.05.41-.08.65-.1.7-.02.11-.04.18-.03.2.01.03.03.04.07.04.31-.03.71.01,1.21.12.25.06.46.12.62.2.3.14.43.29.39.46-.02.1-.12.21-.31.33-.13.08-.23.13-.28.15-.05.01-.17,0-.35-.03-.21-.03-.53-.06-.96-.09-.43-.04-.66-.05-.68-.04,0,0-.09.29-.23.86l-.09.39c-.07.31-.09.49-.07.53.04.07.28.15.71.24.3.07.61.12.91.14.31.02.52.04.65.07.12.03.26.09.4.2.16.13.23.25.2.36-.02.1-.11.2-.27.31-.13.09-.5.13-1.1.1-.61-.04-1.22-.12-1.83-.25-.54-.12-.86-.22-.95-.31l-.14-.13.25-1.24c.46-2.32.74-3.68.83-4.11.06-.27.12-.46.19-.6.12-.22.29-.36.5-.42.22-.07.56-.08,1.02-.04.23.02.49.06.8.13.64.14,1.09.31,1.36.5.17.13.24.25.22.36-.02.11-.14.22-.33.34-.12.07-.34.08-.66.04-1.18-.16-1.8-.23-1.86-.22Zm6.37,1.81c-.01-.06-.03-.11-.07-.14-.02-.04-.05-.06-.09-.06-.03,0-.05,0-.07.03-.09.14-.28.49-.57,1.05-.29.57-.44.88-.45.93h.02c.09.02.32.05.71.08.39.03.58.03.59,0,.01-.06.02-.27.01-.61,0-.35,0-.61-.01-.77-.01-.17-.04-.35-.08-.53Zm-.18-1.97c.14-.03.23-.05.28-.04.05.01.14.07.24.18.12.11.21.22.28.33.06.1.13.32.22.66.09.35.15.68.19.99.07.66.08,1.42.04,2.28-.03.86-.1,1.56-.22,2.09-.06.27-.16.49-.29.66-.24.3-.49.42-.77.36-.1-.02-.18-.08-.25-.17-.06-.09-.09-.19-.08-.3,0-.03.04-.32.14-.89l.13-.73h-.64c-.46,0-.7.02-.72.03-.04.02-.06.06-.08.12-.04.19-.19.47-.46.84-.26.34-.5.48-.72.43-.1-.02-.18-.09-.24-.19-.07-.14-.08-.3-.04-.48.03-.12.05-.21.09-.28,1.01-2.46,1.58-3.88,1.72-4.25.23-.62.39-1,.48-1.12.19-.29.42-.46.7-.53Zm7.68,2.14c.11-.07.21-.1.28-.09.09.02.2.14.34.36.14.24.21.39.22.45.01.09.04.53.09,1.3.05.8.11,1.55.18,2.27.13,1.32.16,2.15.08,2.5-.03.14-.08.26-.15.35-.12.17-.25.24-.39.21-.2-.05-.36-.27-.46-.68-.15-.56-.26-1.27-.35-2.14-.08-.88-.13-1.7-.13-2.46v-.21s-.26.36-.26.36c-.33.51-.61.86-.84,1.06-.1.08-.2.12-.29.09-.06-.01-.12-.05-.18-.11-.15-.16-.31-.6-.48-1.31l-.14-.57-.09.17c-.14.26-.44.89-.9,1.89-.43.95-.76,1.61-.97,1.97-.13.22-.28.39-.44.5-.16.11-.3.16-.42.13-.23-.05-.32-.27-.26-.66,0-.02,0-.04,0-.08,0-.04.02-.07.02-.09.03-.13.2-.6.5-1.4.15-.43.43-1.02.82-1.75s.72-1.27.97-1.61c.19-.25.41-.49.66-.7.25-.21.42-.31.51-.29.17.04.41.42.71,1.16l.24.59.21-.27c.29-.39.6-.69.91-.9Zm5.51,1.17c.22-.02.47,0,.75.07.28.06.54.15.78.27.45.23.8.5,1.05.81.09.11.12.23.09.35-.02.08-.06.17-.14.28-.14.2-.35.27-.64.2-.18-.04-.41-.14-.7-.29-.39-.21-.66-.33-.83-.37-.09-.02-.18-.03-.27-.02-.19.01-.36.09-.51.23-.15.14-.24.31-.28.5-.07.3,0,.55.21.75.15.13.5.3,1.06.49.39.14.66.25.81.34.15.09.27.21.36.36.27.43.33.95.19,1.57-.14.61-.4,1.02-.8,1.23-.35.18-.83.29-1.44.3-.26,0-.46,0-.58-.03-.03,0-.15-.04-.37-.11-.44-.15-.82-.34-1.14-.57-.31-.24-.49-.47-.54-.69-.03-.13-.03-.26,0-.39.03-.15.1-.26.21-.33.11-.08.24-.11.39-.07.09.02.35.17.8.45.43.27.78.44,1.04.51l.38.12.34-.16c.46-.22.71-.44.76-.67.02-.09.02-.17-.01-.22-.14-.3-.62-.64-1.46-1-.33-.14-.58-.28-.74-.41-.25-.2-.45-.47-.61-.79-.15-.32-.2-.59-.15-.81.03-.13.11-.32.23-.58.13-.25.25-.44.36-.58.36-.45.82-.71,1.4-.76Z" style="fill: #fff;"/>
  <path d="m55.78,75.45c.62-.35,2.44-9.78,2-10.4-.56-.8-1.58-.09-1.73,1.2-.12.99-.24.75-.63-1.18-.27-1.33-.67-3.01-.89-3.72-.36-1.14-.3-1.51.47-3,1.21-2.35,1.49-5.63.72-8.78-.62-2.58-.62-2.62.23-3.7.47-.6,1.07-2.15,1.33-3.45.39-2,.64-2.45,1.65-2.97,2.79-1.45,4.2-6.17,2.98-9.96-.7-2.18-1.15-2.65-1.94-2.03-.5.39-.48.8.13,2.61.4,1.18.67,2.73.59,3.44-.17,1.64-1.34,3.67-2.4,4.17-.72.34-.89.14-1.42-1.71-.88-3.06-2.6-5.04-4.55-5.24-1.94-.2-3.06.31-3.67,1.67-1.11,2.46.74,5.31,4.46,6.86l2.55,1.06-.18,1.72c-.1.95-.41,2.1-.68,2.56-.48.79-.59.73-2.09-1.16-2.08-2.62-4.03-3.57-5.5-2.69-3.17,1.91.99,7.85,5.15,7.34,1-.12,1.22.05,1.52,1.14.62,2.25.64,5.45.04,7.15l-.56,1.58-1.04-2c-1.35-2.6-3.84-4.55-5.64-4.42-3.85.28-4.58,5-1.26,8.14,1.21,1.14,1.95,1.48,3.68,1.66,1.19.12,2.46.09,2.82-.06.52-.22.78.19,1.22,1.94.31,1.23.64,2.74.73,3.35l.17,1.12-1.12-1.34c-1.27-1.52-1.73-1.69-2.15-.77-.18.39.11,1.19.71,2,.55.74,1.52,2.77,2.14,4.52,1.25,3.48,1.42,3.75,2.14,3.35Zm-5.38-42.13c-.69.97.61,2.97,2.44,3.78.74.32,1.65.62,2.02.67.64.07.65-.03.11-1.71-.32-.98-.82-2.07-1.11-2.42-.82-.97-2.87-1.15-3.47-.31Zm-1.38,11.52c-1.27-1.11-1.45-2.42-.31-2.3.67.07,3.68,2.83,3.63,3.32-.06.57-2.28-.12-3.32-1.03Zm-3.83,9.92c-.32,1.37,1.22,3.68,2.97,4.45.87.38,1.22.55,1.57.54.28,0,.56-.1,1.09-.29,1.17-.4.92-1.3-1.08-3.89-1.18-1.53-1.66-1.83-2.86-1.85-1.17-.01-1.49.18-1.68,1.03Z" style="fill: #fff; fill-rule: evenodd;"/>
  <g>
    <path d="m8.26,11.49c.12-.08.24-.1.36-.08.14.03.26.14.36.32.1.18.17.42.19.7.02.2-.05.68-.2,1.44-.01.06-.03.16-.06.29-.03.13-.04.22-.06.28-.2.89-.41,1.6-.64,2.12-.11.24-.29.5-.53.8-.24.29-.46.51-.66.65-.2.14-.39.23-.56.26-.17.03-.37.02-.61-.03-.69-.15-1.22-.54-1.61-1.15-.27-.42-.39-.93-.38-1.53,0-.3.08-.91.2-1.82.12-.91.22-1.55.3-1.91.07-.32.12-.52.15-.61.03-.08.08-.17.15-.25.19-.24.39-.33.6-.28.22.05.36.22.42.5.07.28.02.88-.16,1.81-.34,1.82-.48,2.89-.4,3.22.09.36.3.57.62.64.18.04.34.01.48-.08.14-.09.28-.26.42-.52.31-.57.6-1.46.87-2.66.09-.38.14-.66.16-.83.02-.17.05-.35.1-.54.04-.16.09-.3.15-.4.07-.14.18-.26.31-.36Z" style="fill: #fff;"/>
    <path d="m12.43,12.42c.12,0,.31.02.55.07l.25.05c.37.09.67.21.91.37.42.27.71.52.87.75.05.08.06.17.04.27-.06.26-.2.42-.42.5-.1.04-.22.04-.37,0-.2-.04-.44-.14-.7-.29-.38-.21-.66-.33-.83-.37-.09-.02-.17-.03-.27-.02-.19.01-.36.09-.51.23-.15.13-.24.3-.28.5-.06.26-.01.48.13.67.15.19.52.39,1.13.6.39.14.66.25.8.33.15.09.27.21.37.36.27.42.33.94.19,1.54l-.04.16c-.14.49-.38.85-.72,1.06-.34.22-.84.33-1.51.36-.3,0-.49-.01-.56-.03-.09-.02-.22-.06-.4-.13-.44-.15-.82-.34-1.13-.57s-.49-.46-.53-.67c-.03-.16-.03-.3,0-.41.03-.15.1-.26.21-.34s.24-.1.38-.07c.09.02.35.17.8.45.43.27.78.45,1.04.53.02,0,.05.01.09.03.04.01.06.02.08.02.13.03.25.03.36,0,.11-.03.27-.11.49-.23.28-.17.44-.33.48-.51.08-.35-.4-.76-1.42-1.22-.34-.15-.6-.29-.77-.42-.25-.19-.46-.45-.63-.79-.17-.34-.22-.61-.18-.83.06-.26.22-.6.5-1.01.39-.59.91-.9,1.58-.94Z" style="fill: #fff;"/>
    <path d="m17.87,13.57c.32.05.77.13,1.34.26.68.15,1.12.27,1.32.35.53.19.81.37.83.52,0,.05,0,.09,0,.11-.04.17-.19.3-.47.38-.18.05-.45.04-.8-.03l-.52-.09-.03.5c-.02.37-.12.96-.3,1.79-.22.99-.36,1.57-.4,1.73l-.13.45.45.19c.35.14.62.29.81.46.18.17.26.33.22.49-.02.07-.06.13-.12.19-.12.12-.35.17-.67.14-.32-.03-.9-.13-1.74-.32-.87-.2-1.41-.35-1.63-.45-.55-.27-.81-.52-.76-.74.07-.3.51-.42,1.33-.38.12,0,.34.01.65,0l.45-1.92c.33-1.32.51-2.03.54-2.12l.07-.21-.71-.18c-.47-.12-.78-.22-.91-.33-.15-.12-.21-.23-.18-.34.01-.05.04-.11.08-.15.25-.29.67-.39,1.26-.31Z" style="fill: #fff;"/>
    <path d="m26.26,15.93c.28-.35.5-.5.65-.47h.02c.12.05.17.22.15.53-.02.3-.14.97-.36,2.02-.04.23-.11.54-.2.95-.33,1.49-.66,2.48-.99,2.98-.15.22-.28.32-.41.29-.12-.03-.27-.18-.43-.45-.29-.47-.65-1.5-1.09-3.11l-.22-.79-.07.44c-.12.73-.22,1.25-.29,1.56-.1.45-.21.79-.32,1-.11.21-.26.39-.45.53-.19.13-.35.18-.5.15-.05-.01-.09-.03-.13-.07-.18-.18-.22-.5-.11-.97.05-.23.12-.46.21-.71.18-.53.39-1.34.65-2.44.28-1.19.45-1.82.49-1.9.13-.27.3-.38.5-.33.15.03.31.26.48.69.17.43.45,1.28.83,2.54l.44,1.48.31-1.2c.26-1.03.45-1.71.55-2.03.1-.32.2-.55.29-.67Z" style="fill: #fff;"/>
    <path d="m30.31,16.43c.1,0,.21,0,.34.03.39.09.68.33.87.72.15.3.19.58.14.82-.07.3-.2.42-.39.38-.12-.03-.28-.16-.47-.4-.11-.14-.23-.22-.37-.26-.09-.02-.19-.02-.3,0-.53.14-.93.62-1.2,1.44-.05.17-.09.3-.11.39-.14.61-.14,1.14-.02,1.61.11.45.37.72.76.81.15.03.29.05.43.05h.25s.04-.28.04-.28c.01-.05.02-.11.03-.2,0-.09.01-.14.02-.17.01-.05,0-.08-.03-.11s-.12-.06-.28-.11c-.7-.21-1.02-.45-.96-.7.02-.11.11-.21.25-.3l.22-.14,1.1.19,1.11.2.08.12c.05.09.07.19.04.29-.03.12-.09.23-.2.33-.1.09-.2.13-.3.13-.07.02-.11.04-.11.06-.02.07-.02.19-.02.35,0,.22-.04.44-.09.67-.16.7-.34,1.13-.56,1.29-.06.04-.12.06-.19.04-.14-.03-.25-.15-.33-.36-.02-.05-.04-.08-.07-.09-.03,0-.11,0-.26.02-.18.02-.39,0-.61-.05l-.18-.04c-.33-.08-.58-.2-.76-.34-.47-.38-.73-.97-.76-1.77,0-.26.06-.68.19-1.26.12-.53.24-.92.35-1.18.26-.58.55-1.06.88-1.43.33-.37.65-.6.97-.69.17-.04.33-.07.5-.07Z" style="fill: #fff;"/>
    <path d="m40.31,18.74c.07-.03.14-.04.21-.03.17.04.29.16.35.37.04.12-.01.62-.16,1.5s-.31,1.75-.51,2.6l-.09.42-.27,1.13-.19.23c-.18.23-.35.33-.5.29h-.05c-.11-.04-.17-.13-.19-.28-.02-.15,0-.43.04-.86.05-.46.08-.85.1-1.15l.03-.4c-.19-.04-.47-.11-.83-.2s-.65-.16-.83-.2l-.11.32c-.38,1.16-.74,1.83-1.08,2.02-.11.07-.19.09-.23.08s-.08-.05-.13-.13c-.07-.12-.1-.29-.07-.51.03-.23.12-.74.3-1.54.3-1.36.48-2.44.55-3.23.01-.13.03-.22.04-.29.05-.24.13-.43.24-.57s.22-.19.33-.17c.07.02.12.05.16.1.11.13.19.42.24.87.05.45.06.92.02,1.43-.03.26-.03.41,0,.46.02.05.28.14.76.27l.72.19.17-.58c.36-1.32.69-2.05.98-2.18Z" style="fill: #fff;"/>
    <path d="m43.67,19.46c.23-.07.45-.08.65-.04.32.07.58.25.78.53.2.27.29.56.26.87l-.02.08c-.05.24-.18.34-.37.3h-.06c-.11-.06-.23-.14-.34-.26-.16-.15-.28-.24-.37-.26-.08-.02-.2,0-.35.04-.5.17-.84.67-1.03,1.5-.14.61-.14,1.18-.02,1.71.13.53.35.88.66,1.03.02.01.06.03.13.04.28.06.53.06.73-.02.08-.03.18-.03.29,0,.13.03.23.08.29.15.07.09.09.22.05.39-.03.13-.08.24-.16.33-.32.36-.77.52-1.35.47-.14-.02-.25-.03-.31-.04-.48-.11-.85-.35-1.13-.74s-.43-.88-.46-1.5c-.04-.53.02-1.13.17-1.81.13-.58.3-1.08.52-1.48.37-.68.85-1.11,1.46-1.3Z" style="fill: #fff;"/>
    <path d="m49.71,20.52c.16.02.31.05.46.08.27.06.46.12.58.18.37.18.59.42.66.73.05.22.04.46-.02.73-.05.24-.13.44-.22.58-.09.15-.27.34-.52.59-.18.17-.27.27-.27.28l.15.12c.22.19.37.46.45.81.08.35.08.73-.01,1.13-.19.85-.87,1.34-2.03,1.46-.61.07-1.17.04-1.68-.07-.13-.03-.29-.08-.47-.16-.21-.09-.32-.18-.35-.26-.02-.08,0-.31.07-.69.17-.96.37-2.22.58-3.79.09-.62.15-.99.18-1.11.02-.1.06-.19.12-.28.08-.1.18-.17.29-.22.15-.06.45-.1.88-.13.44-.03.82-.03,1.15,0Zm.05,4.16c-.09-.09-.28-.18-.57-.25-.05-.01-.1-.03-.16-.04-.06-.02-.1-.03-.12-.03-.14-.03-.36-.03-.65,0l-.33.03-.08.48c-.09.52-.15.82-.16.89l-.09.41.26.02c.62.06,1.11.04,1.46-.08s.57-.32.63-.6c.03-.13.03-.29,0-.46-.03-.14-.1-.26-.19-.35Zm.38-2.23c.09-.39-.13-.64-.64-.76-.15-.03-.31-.06-.48-.07-.3-.03-.48-.05-.57-.05-.08,0-.13.02-.14.06-.02.1-.04.58-.05,1.45,0,.07.03.12.1.13.07.02.24,0,.5-.02.4-.05.7-.13.9-.25.2-.11.33-.28.38-.5Z" style="fill: #fff;"/>
    <path d="m51.77,28.17s0-.02,0-.05c0-.02,0-.04,0-.05.04-.16.12-.3.25-.4.13-.1.27-.14.43-.1s.27.13.34.27c.07.15.09.3.05.47-.04.18-.14.32-.29.42-.15.08-.28.11-.38.09-.11-.02-.21-.11-.31-.24-.09-.12-.12-.25-.11-.41Zm1.72-6.46c.14-.09.26-.13.36-.1.09.02.18.09.26.22.12.18.16.39.14.63-.02.24-.14.83-.35,1.76-.24,1.08-.4,1.7-.48,1.87-.23.49-.47.71-.75.64-.09-.02-.17-.07-.26-.16-.13-.13-.19-.26-.19-.41,0-.14.08-.56.22-1.26.02-.1.05-.25.09-.44.04-.19.07-.32.08-.41.26-1.14.44-1.82.57-2.04.07-.12.17-.23.3-.31Z" style="fill: #fff;"/>
  </g>
</svg>