<svg width="525" height="330" viewBox="0 0 525 330" fill="none" xmlns="http://www.w3.org/2000/svg">
<g clip-path="url(#clip0_398_100)">
<rect width="525" height="330" rx="16" fill="black"/>
<path d="M305.598 218V203.455H310.783C311.914 203.455 312.852 203.661 313.595 204.072C314.339 204.484 314.895 205.048 315.264 205.763C315.634 206.473 315.818 207.273 315.818 208.163C315.818 209.058 315.631 209.863 315.257 210.578C314.888 211.288 314.329 211.852 313.581 212.268C312.838 212.68 311.902 212.886 310.776 212.886H307.21V211.026H310.577C311.292 211.026 311.872 210.902 312.317 210.656C312.762 210.405 313.089 210.064 313.297 209.634C313.505 209.203 313.609 208.713 313.609 208.163C313.609 207.614 313.505 207.126 313.297 206.7C313.089 206.274 312.759 205.94 312.31 205.699C311.865 205.457 311.277 205.337 310.548 205.337H307.793V218H305.598ZM318.221 218V207.091H320.273V208.824H320.387C320.586 208.237 320.936 207.775 321.438 207.439C321.944 207.098 322.517 206.928 323.157 206.928C323.289 206.928 323.445 206.932 323.625 206.942C323.81 206.951 323.954 206.963 324.059 206.977V209.009C323.973 208.985 323.822 208.959 323.604 208.93C323.386 208.897 323.168 208.881 322.951 208.881C322.449 208.881 322.001 208.987 321.608 209.2C321.22 209.409 320.912 209.7 320.685 210.074C320.458 210.443 320.344 210.865 320.344 211.338V218H318.221ZM330.101 218.22C329.078 218.22 328.186 217.986 327.423 217.517C326.661 217.048 326.069 216.393 325.648 215.55C325.226 214.707 325.016 213.722 325.016 212.595C325.016 211.464 325.226 210.474 325.648 209.626C326.069 208.779 326.661 208.121 327.423 207.652C328.186 207.183 329.078 206.949 330.101 206.949C331.124 206.949 332.016 207.183 332.778 207.652C333.541 208.121 334.133 208.779 334.554 209.626C334.975 210.474 335.186 211.464 335.186 212.595C335.186 213.722 334.975 214.707 334.554 215.55C334.133 216.393 333.541 217.048 332.778 217.517C332.016 217.986 331.124 218.22 330.101 218.22ZM330.108 216.438C330.771 216.438 331.32 216.262 331.756 215.912C332.191 215.562 332.513 215.095 332.722 214.513C332.935 213.93 333.041 213.289 333.041 212.588C333.041 211.892 332.935 211.253 332.722 210.67C332.513 210.083 332.191 209.612 331.756 209.257C331.32 208.902 330.771 208.724 330.108 208.724C329.44 208.724 328.886 208.902 328.446 209.257C328.01 209.612 327.686 210.083 327.473 210.67C327.265 211.253 327.161 211.892 327.161 212.588C327.161 213.289 327.265 213.93 327.473 214.513C327.686 215.095 328.01 215.562 328.446 215.912C328.886 216.262 329.44 216.438 330.108 216.438ZM337.556 222.091V207.091H339.63V208.859H339.808C339.931 208.632 340.109 208.369 340.341 208.071C340.573 207.773 340.895 207.512 341.306 207.29C341.718 207.062 342.263 206.949 342.94 206.949C343.821 206.949 344.607 207.171 345.298 207.616C345.989 208.062 346.531 208.703 346.924 209.541C347.322 210.379 347.521 211.388 347.521 212.567C347.521 213.746 347.324 214.757 346.931 215.599C346.538 216.437 345.999 217.084 345.312 217.538C344.626 217.988 343.842 218.213 342.961 218.213C342.298 218.213 341.756 218.102 341.335 217.879C340.918 217.657 340.592 217.396 340.355 217.098C340.118 216.8 339.936 216.535 339.808 216.303H339.68V222.091H337.556ZM339.637 212.545C339.637 213.312 339.749 213.985 339.971 214.562C340.194 215.14 340.516 215.592 340.937 215.919C341.359 216.241 341.875 216.402 342.485 216.402C343.12 216.402 343.65 216.234 344.076 215.898C344.502 215.557 344.824 215.095 345.042 214.513C345.265 213.93 345.376 213.275 345.376 212.545C345.376 211.826 345.267 211.179 345.049 210.607C344.836 210.034 344.514 209.581 344.083 209.25C343.657 208.919 343.125 208.753 342.485 208.753C341.87 208.753 341.349 208.911 340.923 209.229C340.502 209.546 340.182 209.989 339.964 210.557C339.746 211.125 339.637 211.788 339.637 212.545ZM352.024 211.523V218H349.9V203.455H351.995V208.866H352.13C352.386 208.279 352.777 207.813 353.302 207.467C353.828 207.122 354.514 206.949 355.362 206.949C356.11 206.949 356.763 207.103 357.322 207.411C357.886 207.718 358.321 208.178 358.629 208.788C358.941 209.394 359.098 210.152 359.098 211.061V218H356.974V211.317C356.974 210.517 356.768 209.896 356.356 209.456C355.944 209.011 355.371 208.788 354.637 208.788C354.136 208.788 353.686 208.895 353.288 209.108C352.895 209.321 352.585 209.634 352.358 210.045C352.135 210.453 352.024 210.945 352.024 211.523ZM366.633 218.22C365.558 218.22 364.633 217.991 363.856 217.531C363.084 217.067 362.488 216.416 362.066 215.578C361.65 214.735 361.441 213.748 361.441 212.616C361.441 211.499 361.65 210.514 362.066 209.662C362.488 208.81 363.075 208.144 363.828 207.666C364.585 207.188 365.471 206.949 366.484 206.949C367.1 206.949 367.696 207.051 368.274 207.254C368.851 207.458 369.37 207.777 369.829 208.213C370.288 208.649 370.651 209.214 370.916 209.911C371.181 210.602 371.314 211.442 371.314 212.432V213.185H362.642V211.594H369.233C369.233 211.035 369.119 210.54 368.892 210.109C368.664 209.674 368.345 209.33 367.933 209.08C367.526 208.829 367.047 208.703 366.498 208.703C365.902 208.703 365.381 208.85 364.936 209.143C364.495 209.432 364.154 209.811 363.913 210.28C363.676 210.744 363.558 211.248 363.558 211.793V213.036C363.558 213.765 363.686 214.385 363.941 214.896C364.202 215.408 364.564 215.798 365.028 216.068C365.492 216.333 366.034 216.466 366.654 216.466C367.057 216.466 367.424 216.409 367.755 216.295C368.087 216.177 368.373 216.002 368.615 215.77C368.856 215.538 369.041 215.251 369.169 214.911L371.179 215.273C371.018 215.865 370.729 216.383 370.312 216.828C369.9 217.268 369.382 217.612 368.757 217.858C368.136 218.099 367.429 218.22 366.633 218.22ZM378.762 207.091V208.795H372.803V207.091H378.762ZM374.401 204.477H376.525V214.797C376.525 215.209 376.586 215.519 376.71 215.727C376.833 215.931 376.991 216.071 377.185 216.146C377.384 216.217 377.6 216.253 377.832 216.253C378.002 216.253 378.151 216.241 378.279 216.217C378.407 216.194 378.506 216.175 378.577 216.161L378.961 217.915C378.838 217.962 378.663 218.009 378.435 218.057C378.208 218.109 377.924 218.137 377.583 218.142C377.024 218.152 376.504 218.052 376.021 217.844C375.538 217.635 375.147 217.313 374.849 216.878C374.55 216.442 374.401 215.895 374.401 215.237V204.477ZM399.21 210.727C399.21 212.28 398.925 213.616 398.357 214.733C397.789 215.846 397.01 216.703 396.021 217.304C395.036 217.901 393.916 218.199 392.661 218.199C391.402 218.199 390.277 217.901 389.288 217.304C388.303 216.703 387.526 215.843 386.958 214.726C386.39 213.608 386.106 212.276 386.106 210.727C386.106 209.174 386.39 207.841 386.958 206.729C387.526 205.611 388.303 204.754 389.288 204.158C390.277 203.556 391.402 203.256 392.661 203.256C393.916 203.256 395.036 203.556 396.021 204.158C397.01 204.754 397.789 205.611 398.357 206.729C398.925 207.841 399.21 209.174 399.21 210.727ZM397.036 210.727C397.036 209.544 396.844 208.547 396.461 207.737C396.082 206.923 395.561 206.307 394.898 205.891C394.24 205.469 393.495 205.259 392.661 205.259C391.823 205.259 391.075 205.469 390.417 205.891C389.759 206.307 389.238 206.923 388.854 207.737C388.476 208.547 388.286 209.544 388.286 210.727C388.286 211.911 388.476 212.91 388.854 213.724C389.238 214.534 389.759 215.15 390.417 215.571C391.075 215.988 391.823 216.196 392.661 216.196C393.495 216.196 394.24 215.988 394.898 215.571C395.561 215.15 396.082 214.534 396.461 213.724C396.844 212.91 397.036 211.911 397.036 210.727ZM401.775 218V207.091H403.828V208.824H403.941C404.14 208.237 404.491 207.775 404.993 207.439C405.499 207.098 406.072 206.928 406.711 206.928C406.844 206.928 407 206.932 407.18 206.942C407.365 206.951 407.509 206.963 407.613 206.977V209.009C407.528 208.985 407.377 208.959 407.159 208.93C406.941 208.897 406.723 208.881 406.505 208.881C406.003 208.881 405.556 208.987 405.163 209.2C404.775 209.409 404.467 209.7 404.24 210.074C404.012 210.443 403.899 210.865 403.899 211.338V218H401.775ZM409.451 222.091V207.091H411.525V208.859H411.702C411.826 208.632 412.003 208.369 412.235 208.071C412.467 207.773 412.789 207.512 413.201 207.29C413.613 207.062 414.157 206.949 414.835 206.949C415.715 206.949 416.501 207.171 417.192 207.616C417.884 208.062 418.426 208.703 418.819 209.541C419.217 210.379 419.415 211.388 419.415 212.567C419.415 213.746 419.219 214.757 418.826 215.599C418.433 216.437 417.893 217.084 417.207 217.538C416.52 217.988 415.737 218.213 414.856 218.213C414.193 218.213 413.651 218.102 413.229 217.879C412.813 217.657 412.486 217.396 412.249 217.098C412.013 216.8 411.83 216.535 411.702 216.303H411.575V222.091H409.451ZM411.532 212.545C411.532 213.312 411.643 213.985 411.866 214.562C412.088 215.14 412.41 215.592 412.832 215.919C413.253 216.241 413.769 216.402 414.38 216.402C415.014 216.402 415.545 216.234 415.971 215.898C416.397 215.557 416.719 215.095 416.937 214.513C417.159 213.93 417.271 213.275 417.271 212.545C417.271 211.826 417.162 211.179 416.944 210.607C416.731 210.034 416.409 209.581 415.978 209.25C415.552 208.919 415.019 208.753 414.38 208.753C413.764 208.753 413.244 208.911 412.817 209.229C412.396 209.546 412.076 209.989 411.859 210.557C411.641 211.125 411.532 211.788 411.532 212.545ZM423.918 211.523V218H421.795V203.455H423.89V208.866H424.025C424.281 208.279 424.671 207.813 425.197 207.467C425.722 207.122 426.409 206.949 427.256 206.949C428.004 206.949 428.658 207.103 429.217 207.411C429.78 207.718 430.216 208.178 430.523 208.788C430.836 209.394 430.992 210.152 430.992 211.061V218H428.869V211.317C428.869 210.517 428.663 209.896 428.251 209.456C427.839 209.011 427.266 208.788 426.532 208.788C426.03 208.788 425.58 208.895 425.183 209.108C424.79 209.321 424.479 209.634 424.252 210.045C424.03 210.453 423.918 210.945 423.918 211.523ZM438.528 218.22C437.453 218.22 436.527 217.991 435.751 217.531C434.979 217.067 434.382 216.416 433.961 215.578C433.544 214.735 433.336 213.748 433.336 212.616C433.336 211.499 433.544 210.514 433.961 209.662C434.382 208.81 434.969 208.144 435.722 207.666C436.48 207.188 437.365 206.949 438.379 206.949C438.994 206.949 439.591 207.051 440.168 207.254C440.746 207.458 441.264 207.777 441.724 208.213C442.183 208.649 442.545 209.214 442.81 209.911C443.076 210.602 443.208 211.442 443.208 212.432V213.185H434.536V211.594H441.127C441.127 211.035 441.013 210.54 440.786 210.109C440.559 209.674 440.239 209.33 439.827 209.08C439.42 208.829 438.942 208.703 438.393 208.703C437.796 208.703 437.275 208.85 436.83 209.143C436.39 209.432 436.049 209.811 435.808 210.28C435.571 210.744 435.452 211.248 435.452 211.793V213.036C435.452 213.765 435.58 214.385 435.836 214.896C436.096 215.408 436.459 215.798 436.923 216.068C437.387 216.333 437.929 216.466 438.549 216.466C438.951 216.466 439.318 216.409 439.65 216.295C439.981 216.177 440.268 216.002 440.509 215.77C440.751 215.538 440.935 215.251 441.063 214.911L443.073 215.273C442.912 215.865 442.623 216.383 442.207 216.828C441.795 217.268 441.276 217.612 440.651 217.858C440.031 218.099 439.323 218.22 438.528 218.22ZM452.475 213.476V207.091H454.605V218H452.517V216.111H452.404C452.153 216.693 451.75 217.179 451.196 217.567C450.647 217.95 449.963 218.142 449.144 218.142C448.443 218.142 447.823 217.988 447.283 217.68C446.748 217.368 446.327 216.906 446.019 216.295C445.716 215.685 445.564 214.929 445.564 214.03V207.091H447.688V213.774C447.688 214.518 447.894 215.109 448.306 215.55C448.718 215.99 449.253 216.21 449.911 216.21C450.309 216.21 450.704 216.111 451.097 215.912C451.495 215.713 451.824 215.412 452.084 215.01C452.349 214.607 452.48 214.096 452.475 213.476ZM465.634 209.754L463.709 210.095C463.628 209.849 463.5 209.615 463.325 209.392C463.155 209.17 462.923 208.987 462.629 208.845C462.336 208.703 461.969 208.632 461.528 208.632C460.927 208.632 460.425 208.767 460.023 209.037C459.62 209.302 459.419 209.645 459.419 210.067C459.419 210.431 459.554 210.725 459.824 210.947C460.094 211.17 460.529 211.352 461.131 211.494L462.864 211.892C463.867 212.124 464.616 212.482 465.108 212.964C465.6 213.447 465.847 214.075 465.847 214.847C465.847 215.5 465.657 216.082 465.278 216.594C464.904 217.1 464.381 217.498 463.709 217.787C463.041 218.076 462.267 218.22 461.386 218.22C460.165 218.22 459.168 217.96 458.396 217.439C457.625 216.913 457.151 216.168 456.976 215.202L459.028 214.889C459.156 215.424 459.419 215.829 459.817 216.104C460.214 216.374 460.733 216.509 461.372 216.509C462.068 216.509 462.625 216.364 463.041 216.075C463.458 215.782 463.666 215.424 463.666 215.003C463.666 214.662 463.538 214.375 463.283 214.143C463.032 213.911 462.646 213.736 462.125 213.618L460.278 213.213C459.26 212.981 458.508 212.612 458.02 212.105C457.537 211.598 457.295 210.957 457.295 210.18C457.295 209.536 457.475 208.973 457.835 208.49C458.195 208.007 458.692 207.631 459.327 207.361C459.961 207.086 460.688 206.949 461.507 206.949C462.686 206.949 463.614 207.205 464.291 207.716C464.968 208.223 465.416 208.902 465.634 209.754Z" fill="white"/>
<rect x="62" y="102" width="66" height="48" rx="4" fill="white"/>
<path d="M94.5 102V111M94.5 120V111M94.5 120H88.5C87.3954 120 86.5 120.895 86.5 122V124M94.5 120H100.5C101.605 120 102.5 120.895 102.5 122V130C102.5 131.105 101.605 132 100.5 132H88.5C87.3954 132 86.5 131.105 86.5 130V124M94.5 111H128M102.5 124H128M102.5 128H128M94.5 132V140M94.5 150V140M62 140H94.5M86.5 128H62M86.5 124H62" stroke="#B4B4B4"/>
<g clip-path="url(#clip1_398_100)">
<path fill-rule="evenodd" clip-rule="evenodd" d="M447.667 243.767C447.59 243.793 447.473 243.838 447.305 243.912C446.859 244.105 446.329 244.381 445.647 244.771C444.262 245.563 442.528 246.681 440.577 248.058C438.325 249.647 437.304 250.448 436.032 251.445C435.089 252.183 434.009 253.03 432.187 254.386C431.459 255.116 430.275 255.116 429.547 254.386C428.818 253.658 428.818 252.475 429.547 251.747C433.668 248.4 434.412 247.842 438.423 245.008C440.439 243.586 442.323 242.371 443.796 241.529C444.544 241.101 445.252 240.735 445.806 240.493C446.295 240.278 446.999 240 447.667 240C448.335 240 449.039 240.278 449.528 240.493C450.082 240.735 450.79 241.101 451.538 241.529C453.011 242.371 454.895 243.586 456.911 245.008C460.922 247.842 461.666 248.4 465.787 251.747C466.516 252.475 466.516 253.658 465.787 254.386C465.059 255.116 463.875 255.116 463.147 254.386C461.325 253.03 460.245 252.183 459.302 251.445L459.302 251.445C458.03 250.448 457.009 249.647 454.757 248.058C452.806 246.681 451.072 245.563 449.687 244.771C449.005 244.381 448.475 244.105 448.029 243.912C447.861 243.838 447.743 243.793 447.667 243.767ZM431.333 273.056C431.333 271.982 432.139 271.111 433.133 271.111H461.94C462.934 271.111 463.74 271.982 463.74 273.056C463.74 274.129 462.934 275 461.94 275H433.133C432.139 275 431.333 274.129 431.333 273.056ZM445.592 267.942C445.592 268.976 446.463 269.815 447.537 269.815C448.61 269.815 449.481 268.976 449.481 267.942V254.835C449.481 253.802 448.61 252.963 447.537 252.963C446.463 252.963 445.592 253.802 445.592 254.835V267.942ZM438.463 269.815C437.389 269.815 436.518 268.976 436.518 267.942V254.835C436.518 253.802 437.389 252.963 438.463 252.963C439.536 252.963 440.407 253.802 440.407 254.835V267.942C440.407 268.976 439.536 269.815 438.463 269.815ZM454.666 267.942C454.666 268.976 455.537 269.815 456.611 269.815C457.684 269.815 458.555 268.976 458.555 267.942V254.835C458.555 253.802 457.684 252.963 456.611 252.963C455.537 252.963 454.666 253.802 454.666 254.835V267.942Z" fill="white"/>
</g>
</g>
<defs>
<clipPath id="clip0_398_100">
<rect width="525" height="330" fill="white"/>
</clipPath>
<clipPath id="clip1_398_100">
<rect width="38" height="35" fill="white" transform="translate(429 240)"/>
</clipPath>
</defs>
</svg>
