<svg width="778" height="432" viewBox="0 0 778 432" fill="none" xmlns="http://www.w3.org/2000/svg">
<path fill-rule="evenodd" clip-rule="evenodd" d="M641.5 81.5C641.5 89.1667 641.5 96.8333 641.5 104.5C631.155 104.534 620.821 104.867 610.5 105.5C610.5 110.167 610.5 114.833 610.5 119.5C610.334 125.176 610.501 130.843 611 136.5C620.75 135.514 630.584 135.181 640.5 135.5C640.827 145.681 640.494 155.681 639.5 165.5C629.806 165.307 620.139 165.64 610.5 166.5C610.5 171.167 610.5 175.833 610.5 180.5C610.5 187.833 610.5 195.167 610.5 202.5C621.511 202.452 632.511 202.119 643.5 201.5C643.828 212.346 643.494 223.013 642.5 233.5C620.84 234.583 599.173 235.583 577.5 236.5C577.5 183.833 577.5 131.167 577.5 78.5C577.611 77.8826 577.944 77.3826 578.5 77C599.496 75.6963 620.496 74.5296 641.5 73.5C641.5 76.1667 641.5 78.8333 641.5 81.5Z" fill="#E1B873"/>
<path fill-rule="evenodd" clip-rule="evenodd" d="M680.5 74.5C670.167 74.5 659.833 74.5 649.5 74.5C649.5 84.1667 649.5 93.8333 649.5 103.5C655.69 103.177 661.69 103.51 667.5 104.5C661.167 104.5 654.833 104.5 648.5 104.5C648.5 94.5 648.5 84.5 648.5 74.5C659.167 73.1667 669.833 73.1667 680.5 74.5Z" fill="#C0A060"/>
<path fill-rule="evenodd" clip-rule="evenodd" d="M680.5 74.5C693.167 74.5 705.833 74.5 718.5 74.5C718.5 84.8333 718.5 95.1667 718.5 105.5C712.167 105.5 705.833 105.5 699.5 105.5C699.5 110.5 699.5 115.5 699.5 120.5C699.5 158.167 699.5 195.833 699.5 233.5C694.833 233.5 690.167 233.5 685.5 233.5C680.025 232.511 674.358 232.178 668.5 232.5C668.832 189.663 668.499 146.997 667.5 104.5C661.69 103.51 655.69 103.177 649.5 103.5C649.5 93.8333 649.5 84.1667 649.5 74.5C659.833 74.5 670.167 74.5 680.5 74.5Z" fill="#E3B973"/>
<path fill-rule="evenodd" clip-rule="evenodd" d="M648.5 74.5C648.5 84.5 648.5 94.5 648.5 104.5C654.833 104.5 661.167 104.5 667.5 104.5C667.5 147.5 667.5 190.5 667.5 233.5C673.5 233.5 679.5 233.5 685.5 233.5C690.167 233.5 694.833 233.5 699.5 233.5C695.004 238.164 690.67 242.998 686.5 248C675.839 248.5 665.172 248.667 654.5 248.5C654.5 205.5 654.5 162.5 654.5 119.5C648.167 119.5 641.833 119.5 635.5 119.5C635.664 116.813 635.497 114.146 635 111.5C632.46 113.705 630.293 116.205 628.5 119C622.509 119.499 616.509 119.666 610.5 119.5C610.5 114.833 610.5 110.167 610.5 105.5C620.821 104.867 631.155 104.534 641.5 104.5C641.5 96.8333 641.5 89.1667 641.5 81.5C643.605 78.973 645.939 76.6397 648.5 74.5Z" fill="#595418"/>
<path fill-rule="evenodd" clip-rule="evenodd" d="M712.5 101.5C712.5 94.8333 712.5 88.1667 712.5 81.5C692.508 80.8091 672.508 80.4758 652.5 80.5C652.5 79.5 652.5 78.5 652.5 77.5C673.153 78.3715 693.82 78.7049 714.5 78.5C715.132 86.5729 714.465 94.2395 712.5 101.5Z" fill="#5B5518"/>
<path fill-rule="evenodd" clip-rule="evenodd" d="M577.5 78.5C577.5 131.167 577.5 183.833 577.5 236.5C599.173 235.583 620.84 234.583 642.5 233.5C638.745 238.76 634.411 243.594 629.5 248C607.83 249.181 586.163 250.348 564.5 251.5C564.5 247.167 564.5 242.833 564.5 238.5C564.5 189.5 564.5 140.5 564.5 91.5C569.061 87.3604 573.395 83.027 577.5 78.5Z" fill="#585418"/>
<path fill-rule="evenodd" clip-rule="evenodd" d="M635.5 100.5C635.5 93.8333 635.5 87.1667 635.5 80.5C617.486 81.2339 599.486 82.2339 581.5 83.5C581.5 82.5 581.5 81.5 581.5 80.5C600.15 79.403 618.817 78.7363 637.5 78.5C638.13 86.2428 637.463 93.5762 635.5 100.5Z" fill="#61591C"/>
<path fill-rule="evenodd" clip-rule="evenodd" d="M560.5 79.5C561.5 79.5 562.5 79.5 563.5 79.5C563.5 132.5 563.5 185.5 563.5 238.5C553.148 239.714 542.815 241.047 532.5 242.5C528.091 218.121 523.424 193.788 518.5 169.5C518.539 168.244 518.039 167.244 517 166.5C516.5 192.498 516.333 218.498 516.5 244.5C506.634 245.963 496.8 247.629 487 249.5C486.5 196.501 486.333 143.501 486.5 90.5C497.382 88.298 508.382 86.6314 519.5 85.5C519.804 88.5219 520.304 91.5219 521 94.5C521.383 95.056 521.883 95.3893 522.5 95.5C522.077 96.2646 521.743 97.0979 521.5 98C525.157 115.449 528.49 132.949 531.5 150.5C531.995 152.482 532.495 154.482 533 156.5C533.5 132.169 533.667 107.836 533.5 83.5C542.26 81.4383 551.26 80.1049 560.5 79.5Z" fill="#E8BD77"/>
<path fill-rule="evenodd" clip-rule="evenodd" d="M652.5 80.5C672.508 80.4758 692.508 80.8091 712.5 81.5C712.5 88.1667 712.5 94.8333 712.5 101.5C707.489 101.334 702.489 101.501 697.5 102C696.619 102.708 695.953 103.542 695.5 104.5C694.883 104.611 694.383 104.944 694 105.5C693.501 111.491 693.334 117.491 693.5 123.5C686.167 123.5 678.833 123.5 671.5 123.5C671.666 116.492 671.5 109.492 671 102.5C670.5 102 670 101.5 669.5 101C663.843 100.501 658.176 100.334 652.5 100.5C652.5 93.8333 652.5 87.1667 652.5 80.5Z" fill="#BB5B33"/>
<path fill-rule="evenodd" clip-rule="evenodd" d="M635.5 100.5C627.01 101.33 618.343 101.83 609.5 102C608.058 102.377 607.058 103.21 606.5 104.5C605.21 105.058 604.377 106.058 604 107.5C603.501 113.157 603.334 118.824 603.5 124.5C596.181 125.299 588.847 125.965 581.5 126.5C581.5 112.167 581.5 97.8333 581.5 83.5C599.486 82.2339 617.486 81.2339 635.5 80.5C635.5 87.1667 635.5 93.8333 635.5 100.5Z" fill="#BB5B33"/>
<path fill-rule="evenodd" clip-rule="evenodd" d="M559.5 83.5C560.499 133.997 560.832 184.664 560.5 235.5C559.5 235.5 558.5 235.5 557.5 235.5C557.5 235.167 557.5 234.833 557.5 234.5C559.495 184.511 560.162 134.178 559.5 83.5Z" fill="#978241"/>
<path fill-rule="evenodd" clip-rule="evenodd" d="M533.5 83.5C533.667 107.836 533.5 132.169 533 156.5C532.495 154.482 531.995 152.482 531.5 150.5C532.497 128.673 532.831 106.673 532.5 84.5C532.5 83.8333 532.833 83.5 533.5 83.5Z" fill="#74682A"/>
<path fill-rule="evenodd" clip-rule="evenodd" d="M532.5 84.5C532.831 106.673 532.497 128.673 531.5 150.5C528.49 132.949 525.157 115.449 521.5 98C521.743 97.0979 522.077 96.2646 522.5 95.5C525.862 91.8075 529.195 88.1408 532.5 84.5Z" fill="#595418"/>
<path fill-rule="evenodd" clip-rule="evenodd" d="M557.5 129.5C550.81 129.948 544.143 130.615 537.5 131.5C537.5 117.167 537.5 102.833 537.5 88.5C544.136 87.552 550.803 86.8854 557.5 86.5C557.5 100.833 557.5 115.167 557.5 129.5Z" fill="#BC5B33"/>
<path fill-rule="evenodd" clip-rule="evenodd" d="M535.5 162.5C535.167 163.167 534.833 163.833 534.5 164.5C532.565 165.15 530.565 165.483 528.5 165.5C527.559 163.95 526.893 162.284 526.5 160.5C526.784 158.585 526.451 156.919 525.5 155.5C525.784 153.585 525.451 151.919 524.5 150.5C524.784 148.585 524.451 146.919 523.5 145.5C523.5 144.833 523.5 144.167 523.5 143.5C522.922 140.72 522.255 138.053 521.5 135.5C521.5 135.167 521.5 134.833 521.5 134.5C519.218 120.426 516.552 106.426 513.5 92.5C505.816 93.3703 498.149 94.3703 490.5 95.5C490.5 94.8333 490.5 94.1667 490.5 93.5C499.07 91.7877 507.737 90.4544 516.5 89.5C520.804 113.188 525.304 136.855 530 160.5C531.401 162.192 533.234 162.859 535.5 162.5Z" fill="#635B1D"/>
<path fill-rule="evenodd" clip-rule="evenodd" d="M521.5 134.5C511.167 135.833 500.833 137.167 490.5 138.5C490.5 124.167 490.5 109.833 490.5 95.5C498.149 94.3703 505.816 93.3703 513.5 92.5C516.552 106.426 519.218 120.426 521.5 134.5Z" fill="#BB5A33"/>
<path fill-rule="evenodd" clip-rule="evenodd" d="M472.5 106.5C474.962 115.111 475.962 123.944 475.5 133C475.962 142.054 474.962 150.887 472.5 159.5C470.114 163.397 467.114 166.897 463.5 170C467.685 171.688 470.685 174.521 472.5 178.5C473.481 202.788 473.814 227.122 473.5 251.5C463.818 253.074 454.151 254.74 444.5 256.5C443.833 234.833 443.167 213.167 442.5 191.5C442.703 189.61 442.037 188.11 440.5 187C437.518 186.502 434.518 186.335 431.5 186.5C431.5 210.833 431.5 235.167 431.5 259.5C420.808 261.372 410.142 263.372 399.5 265.5C399.5 212.5 399.5 159.5 399.5 106.5C417.419 102.283 435.585 98.616 454 95.5C462.366 95.7403 468.532 99.407 472.5 106.5Z" fill="#E5BB75"/>
<path fill-rule="evenodd" clip-rule="evenodd" d="M466.5 160.5C467.15 158.565 467.483 156.565 467.5 154.5C468.404 153.791 468.737 152.791 468.5 151.5C469.369 149.283 469.702 146.95 469.5 144.5C469.5 143.833 469.5 143.167 469.5 142.5C469.839 133.774 469.339 125.107 468 116.5C464.972 105.481 457.806 100.981 446.5 103C432.086 105.649 417.753 108.483 403.5 111.5C403.5 110.833 403.5 110.167 403.5 109.5C420.427 105.615 437.594 102.282 455 99.5C463.057 100.219 468.057 104.553 470 112.5C472.901 125.089 473.234 137.756 471 150.5C470.148 154.264 468.648 157.597 466.5 160.5Z" fill="#655C1F"/>
<path fill-rule="evenodd" clip-rule="evenodd" d="M469.5 142.5C462.836 143.5 456.169 144.5 449.5 145.5C449.817 141.298 449.483 137.298 448.5 133.5C448.344 130.159 447.011 127.326 444.5 125C440.5 124.333 436.5 124.333 432.5 125C430.119 125.223 428.453 126.39 427.5 128.5C426.883 128.611 426.383 128.944 426 129.5C425.5 136.492 425.334 143.492 425.5 150.5C418.125 151.625 410.792 152.959 403.5 154.5C403.5 140.167 403.5 125.833 403.5 111.5C417.753 108.483 432.086 105.649 446.5 103C457.806 100.981 464.972 105.481 468 116.5C469.339 125.107 469.839 133.774 469.5 142.5Z" fill="#BB5B33"/>
<path fill-rule="evenodd" clip-rule="evenodd" d="M667.5 104.5C668.499 146.997 668.832 189.663 668.5 232.5C674.358 232.178 680.025 232.511 685.5 233.5C679.5 233.5 673.5 233.5 667.5 233.5C667.5 190.5 667.5 147.5 667.5 104.5Z" fill="#C9A662"/>
<path fill-rule="evenodd" clip-rule="evenodd" d="M695.5 104.5C696.161 146.513 695.494 188.18 693.5 229.5C693.5 208.833 693.5 188.167 693.5 167.5C693.5 164.5 693.5 161.5 693.5 158.5C693.5 157.5 693.5 156.5 693.5 155.5C693.5 153.833 693.5 152.167 693.5 150.5C693.5 148.833 693.5 147.167 693.5 145.5C693.5 144.167 693.5 142.833 693.5 141.5C693.5 139.5 693.5 137.5 693.5 135.5C693.5 134.5 693.5 133.5 693.5 132.5C693.5 129.833 693.5 127.167 693.5 124.5C693.5 124.167 693.5 123.833 693.5 123.5C693.334 117.491 693.501 111.491 694 105.5C694.383 104.944 694.883 104.611 695.5 104.5Z" fill="#585417"/>
<path fill-rule="evenodd" clip-rule="evenodd" d="M718.5 105.5C713.805 110.526 709.139 115.526 704.5 120.5C702.833 120.5 701.167 120.5 699.5 120.5C699.5 115.5 699.5 110.5 699.5 105.5C705.833 105.5 712.167 105.5 718.5 105.5Z" fill="#5B561A"/>
<path fill-rule="evenodd" clip-rule="evenodd" d="M606.5 104.5C606.333 115.838 606.5 127.172 607 138.5C616.75 139.486 626.584 139.819 636.5 139.5C636.5 147.167 636.5 154.833 636.5 162.5C635.5 162.5 634.5 162.5 633.5 162.5C633.5 161.167 633.5 159.833 633.5 158.5C633.5 157.833 633.5 157.167 633.5 156.5C633.5 154.5 633.5 152.5 633.5 150.5C633.5 148.833 633.5 147.167 633.5 145.5C633.5 144.5 633.5 143.5 633.5 142.5C624.167 142.5 614.833 142.5 605.5 142.5C603.919 140.858 603.253 138.858 603.5 136.5C603.5 135.5 603.5 134.5 603.5 133.5C603.5 131.167 603.5 128.833 603.5 126.5C603.5 125.833 603.5 125.167 603.5 124.5C603.334 118.824 603.501 113.157 604 107.5C604.377 106.058 605.21 105.058 606.5 104.5Z" fill="#695C1E"/>
<path fill-rule="evenodd" clip-rule="evenodd" d="M486.5 90.5C486.333 143.501 486.5 196.501 487 249.5C496.8 247.629 506.634 245.963 516.5 244.5C517.167 219.5 517.833 194.5 518.5 169.5C523.424 193.788 528.091 218.121 532.5 242.5C542.815 241.047 553.148 239.714 563.5 238.5C559.004 243.164 554.67 247.998 550.5 253C540.161 254.569 529.828 256.069 519.5 257.5C518.861 253.473 518.028 249.473 517 245.5C512.133 250.032 507.633 254.866 503.5 260C493.123 261.309 482.79 262.809 472.5 264.5C472.665 260.818 472.499 257.152 472 253.5C468.182 258.285 464.015 262.785 459.5 267C449.473 268.394 439.473 269.894 429.5 271.5C429.665 268.15 429.498 264.817 429 261.5C425.535 265.967 421.702 270.133 417.5 274C407.853 276.029 398.187 277.863 388.5 279.5C386.92 277.283 385.92 274.616 385.5 271.5C384.893 271.624 384.56 271.957 384.5 272.5C381.704 275.797 378.704 278.964 375.5 282C354.475 286.438 333.475 290.938 312.5 295.5C311.667 250.17 311.167 204.837 311 159.5C307.796 162.369 304.963 165.535 302.5 169C300.866 169.494 299.199 169.66 297.5 169.5C297.203 165.233 297.536 161.066 298.5 157C304.315 155.871 309.981 154.705 315.5 153.5C316.195 145.599 316.862 137.599 317.5 129.5C319.5 127.167 321.5 124.833 323.5 122.5C324.499 174.997 324.832 227.664 324.5 280.5C346.205 276.323 367.872 271.99 389.5 267.5C389.5 257.167 389.5 246.833 389.5 236.5C388.5 236.5 387.5 236.5 386.5 236.5C386.5 224.833 386.5 213.167 386.5 201.5C386.5 191.167 386.5 180.833 386.5 170.5C386.832 160.81 386.498 151.144 385.5 141.5C384.893 141.624 384.56 141.957 384.5 142.5C381.065 146.438 377.398 150.271 373.5 154C367.86 155.361 362.194 156.528 356.5 157.5C356.5 153.5 356.5 149.5 356.5 145.5C366.544 143.707 376.544 141.707 386.5 139.5C387.199 132.6 387.866 125.6 388.5 118.5C392.195 114.474 395.862 110.474 399.5 106.5C399.5 159.5 399.5 212.5 399.5 265.5C410.142 263.372 420.808 261.372 431.5 259.5C431.5 235.167 431.5 210.833 431.5 186.5C434.518 186.335 437.518 186.502 440.5 187C442.037 188.11 442.703 189.61 442.5 191.5C442.167 213.51 442.5 235.51 443.5 257.5C444.107 257.376 444.44 257.043 444.5 256.5C454.151 254.74 463.818 253.074 473.5 251.5C473.814 227.122 473.481 202.788 472.5 178.5C472.5 172.167 472.5 165.833 472.5 159.5C474.962 150.887 475.962 142.054 475.5 133C475.962 123.944 474.962 115.111 472.5 106.5C476.823 100.845 481.49 95.5118 486.5 90.5Z" fill="#595518"/>
<path fill-rule="evenodd" clip-rule="evenodd" d="M384.5 109.5C386.474 119.111 387.141 129.111 386.5 139.5C376.544 141.707 366.544 143.707 356.5 145.5C356.5 149.5 356.5 153.5 356.5 157.5C356.17 163.868 356.504 170.202 357.5 176.5C365.741 174.356 374.075 172.689 382.5 171.5C383.5 171.5 384.5 171.5 385.5 171.5C386.102 181.76 385.436 191.76 383.5 201.5C374.535 203.293 365.535 204.959 356.5 206.5C356.5 210.5 356.5 214.5 356.5 218.5C356.5 226.5 356.5 234.5 356.5 242.5C366.392 240.989 376.058 238.989 385.5 236.5C385.833 236.5 386.167 236.5 386.5 236.5C387.5 236.5 388.5 236.5 389.5 236.5C389.5 246.833 389.5 257.167 389.5 267.5C367.872 271.99 346.205 276.323 324.5 280.5C324.832 227.664 324.499 174.997 323.5 122.5C343.452 117.041 363.785 112.708 384.5 109.5Z" fill="#E2B873"/>
<path fill-rule="evenodd" clip-rule="evenodd" d="M381.5 136.5C381.83 129.468 381.497 122.468 380.5 115.5C379.893 115.624 379.56 115.957 379.5 116.5C362.455 119.576 345.455 122.909 328.5 126.5C328.414 125.504 328.748 124.671 329.5 124C347.535 120.559 365.535 117.059 383.5 113.5C384.132 121.573 383.465 129.24 381.5 136.5Z" fill="#625A1D"/>
<path fill-rule="evenodd" clip-rule="evenodd" d="M379.5 116.5C380.491 122.979 380.824 129.646 380.5 136.5C372.221 138.39 363.887 140.223 355.5 142C353.574 142.422 352.574 143.589 352.5 145.5C351.883 145.611 351.383 145.944 351 146.5C350.5 152.825 350.334 159.158 350.5 165.5C343.142 166.705 335.809 168.038 328.5 169.5C328.5 155.167 328.5 140.833 328.5 126.5C345.455 122.909 362.455 119.576 379.5 116.5Z" fill="#BC5B33"/>
<path fill-rule="evenodd" clip-rule="evenodd" d="M384.5 109.5C385.209 108.596 386.209 108.263 387.5 108.5C387.187 112.042 387.521 115.375 388.5 118.5C387.866 125.6 387.199 132.6 386.5 139.5C387.141 129.111 386.474 119.111 384.5 109.5Z" fill="#BC9758"/>
<path fill-rule="evenodd" clip-rule="evenodd" d="M315.5 123.5C315.5 133.5 315.5 143.5 315.5 153.5C309.981 154.705 304.315 155.871 298.5 157C297.536 161.066 297.203 165.233 297.5 169.5C297.832 208.67 297.499 247.67 296.5 286.5C286.764 287.781 277.097 289.447 267.5 291.5C266.501 249.003 266.168 206.337 266.5 163.5C264.585 163.216 262.919 163.549 261.5 164.5C256.833 165.167 252.167 165.833 247.5 166.5C247.5 156.5 247.5 146.5 247.5 136.5C269.904 131.42 292.571 127.087 315.5 123.5Z" fill="#E5BA75"/>
<path fill-rule="evenodd" clip-rule="evenodd" d="M448.5 133.5C448.5 138.167 448.5 142.833 448.5 147.5C448.717 150.421 448.051 153.087 446.5 155.5C445.833 156.5 445.167 157.5 444.5 158.5C443.5 159.167 442.5 159.833 441.5 160.5C438.185 161.164 434.852 161.831 431.5 162.5C429.971 162.471 428.804 161.804 428 160.5C427.5 149.839 427.333 139.172 427.5 128.5C428.453 126.39 430.119 125.223 432.5 125C436.5 124.333 440.5 124.333 444.5 125C447.011 127.326 448.344 130.159 448.5 133.5Z" fill="#E2B873"/>
<path fill-rule="evenodd" clip-rule="evenodd" d="M693.5 124.5C693.5 127.167 693.5 129.833 693.5 132.5C686.167 132.5 678.833 132.5 671.5 132.5C671.5 129.833 671.5 127.167 671.5 124.5C678.833 124.5 686.167 124.5 693.5 124.5Z" fill="#BD5E34"/>
<path fill-rule="evenodd" clip-rule="evenodd" d="M603.5 124.5C603.5 125.167 603.5 125.833 603.5 126.5C596.173 126.944 588.84 127.277 581.5 127.5C581.5 127.167 581.5 126.833 581.5 126.5C588.847 125.965 596.181 125.299 603.5 124.5Z" fill="#CB8D38"/>
<path fill-rule="evenodd" clip-rule="evenodd" d="M603.5 126.5C603.5 128.833 603.5 131.167 603.5 133.5C596.121 133.771 588.788 134.438 581.5 135.5C581.5 132.833 581.5 130.167 581.5 127.5C588.84 127.277 596.173 126.944 603.5 126.5Z" fill="#BD5C34"/>
<path fill-rule="evenodd" clip-rule="evenodd" d="M309.5 151.5C309.5 144.5 309.5 137.5 309.5 130.5C290.136 134.17 270.802 137.836 251.5 141.5C251.5 140.5 251.5 139.5 251.5 138.5C271.92 135.297 292.253 131.631 312.5 127.5C312.666 135.174 312.5 142.841 312 150.5C311.329 151.252 310.496 151.586 309.5 151.5Z" fill="#695D20"/>
<path fill-rule="evenodd" clip-rule="evenodd" d="M432.5 128.5C436.182 128.335 439.848 128.501 443.5 129C446.456 138.002 445.956 146.835 442 155.5C438.721 157.191 435.221 158.191 431.5 158.5C431.193 148.418 431.526 138.418 432.5 128.5Z" fill="#5B5619"/>
<path fill-rule="evenodd" clip-rule="evenodd" d="M379.5 116.5C379.56 115.957 379.893 115.624 380.5 115.5C381.497 122.468 381.83 129.468 381.5 136.5C381.167 136.5 380.833 136.5 380.5 136.5C380.824 129.646 380.491 122.979 379.5 116.5Z" fill="#835623"/>
<path fill-rule="evenodd" clip-rule="evenodd" d="M427.5 128.5C427.333 139.172 427.5 149.839 428 160.5C428.804 161.804 429.971 162.471 431.5 162.5C434.852 161.831 438.185 161.164 441.5 160.5C440.426 161.885 439.093 163.051 437.5 164C434.443 164.256 431.443 164.756 428.5 165.5C426.787 165.121 425.787 164.121 425.5 162.5C425.5 161.5 425.5 160.5 425.5 159.5C425.5 157.167 425.5 154.833 425.5 152.5C425.5 151.833 425.5 151.167 425.5 150.5C425.334 143.492 425.5 136.492 426 129.5C426.383 128.944 426.883 128.611 427.5 128.5Z" fill="#5D5619"/>
<path fill-rule="evenodd" clip-rule="evenodd" d="M537.5 86.5C537.5 87.1667 537.5 87.8333 537.5 88.5C537.5 102.833 537.5 117.167 537.5 131.5C544.143 130.615 550.81 129.948 557.5 129.5C557.5 130.167 557.5 130.833 557.5 131.5C550.797 131.838 544.13 132.505 537.5 133.5C537.5 135.833 537.5 138.167 537.5 140.5C537.5 141.5 537.5 142.5 537.5 143.5C537.5 145.5 537.5 147.5 537.5 149.5C537.5 150.833 537.5 152.167 537.5 153.5C537.5 155.167 537.5 156.833 537.5 158.5C537.672 159.492 537.338 160.158 536.5 160.5C536.169 135.661 536.502 110.994 537.5 86.5Z" fill="#C48A42"/>
<path fill-rule="evenodd" clip-rule="evenodd" d="M309.5 151.5C305.78 151.564 302.114 152.064 298.5 153C296.119 153.223 294.453 154.39 293.5 156.5C292.778 156.918 292.278 157.584 292 158.5C291.5 164.825 291.334 171.158 291.5 177.5C284.531 178.261 277.698 179.594 271 181.5C270.828 174.987 270.328 168.653 269.5 162.5C268.683 160.522 267.183 159.522 265 159.5C260.559 160.622 256.059 161.289 251.5 161.5C251.5 154.833 251.5 148.167 251.5 141.5C270.802 137.836 290.136 134.17 309.5 130.5C309.5 137.5 309.5 144.5 309.5 151.5Z" fill="#BC5B33"/>
<path fill-rule="evenodd" clip-rule="evenodd" d="M315.5 123.5C316.167 125.5 316.833 127.5 317.5 129.5C316.862 137.599 316.195 145.599 315.5 153.5C315.5 143.5 315.5 133.5 315.5 123.5Z" fill="#AA884C"/>
<path fill-rule="evenodd" clip-rule="evenodd" d="M557.5 131.5C557.5 133.833 557.5 136.167 557.5 138.5C550.797 138.838 544.13 139.505 537.5 140.5C537.5 138.167 537.5 135.833 537.5 133.5C544.13 132.505 550.797 131.838 557.5 131.5Z" fill="#BD5B34"/>
<path fill-rule="evenodd" clip-rule="evenodd" d="M671.5 132.5C678.833 132.5 686.167 132.5 693.5 132.5C693.5 133.5 693.5 134.5 693.5 135.5C686.167 135.5 678.833 135.5 671.5 135.5C671.5 134.5 671.5 133.5 671.5 132.5Z" fill="#CC9439"/>
<path fill-rule="evenodd" clip-rule="evenodd" d="M603.5 133.5C603.5 134.5 603.5 135.5 603.5 136.5C596.129 136.801 588.795 137.467 581.5 138.5C581.5 137.5 581.5 136.5 581.5 135.5C588.788 134.438 596.121 133.771 603.5 133.5Z" fill="#CC9239"/>
<path fill-rule="evenodd" clip-rule="evenodd" d="M671.5 135.5C678.833 135.5 686.167 135.5 693.5 135.5C693.5 137.5 693.5 139.5 693.5 141.5C686.167 141.5 678.833 141.5 671.5 141.5C671.5 139.5 671.5 137.5 671.5 135.5Z" fill="#BD5D34"/>
<path fill-rule="evenodd" clip-rule="evenodd" d="M521.5 134.5C521.5 134.833 521.5 135.167 521.5 135.5C511.31 137.321 500.976 138.988 490.5 140.5C490.5 139.833 490.5 139.167 490.5 138.5C500.833 137.167 511.167 135.833 521.5 134.5Z" fill="#CA8A38"/>
<path fill-rule="evenodd" clip-rule="evenodd" d="M521.5 135.5C522.255 138.053 522.922 140.72 523.5 143.5C512.433 144.314 501.433 145.647 490.5 147.5C490.5 145.167 490.5 142.833 490.5 140.5C500.976 138.988 511.31 137.321 521.5 135.5Z" fill="#BD5C34"/>
<path fill-rule="evenodd" clip-rule="evenodd" d="M247.5 136.5C247.5 146.5 247.5 156.5 247.5 166.5C252.167 165.833 256.833 165.167 261.5 164.5C262.833 164.5 264.167 164.5 265.5 164.5C265.167 207.172 265.5 249.839 266.5 292.5C267.107 292.376 267.44 292.043 267.5 291.5C277.097 289.447 286.764 287.781 296.5 286.5C292.745 291.76 288.411 296.594 283.5 301C273.264 303.438 262.93 305.272 252.5 306.5C252.5 263.833 252.5 221.167 252.5 178.5C248.5 179.167 244.5 179.833 240.5 180.5C240.5 168.167 240.5 155.833 240.5 143.5C243.061 141.36 245.395 139.027 247.5 136.5Z" fill="#595418"/>
<path fill-rule="evenodd" clip-rule="evenodd" d="M603.5 136.5C603.253 138.858 603.919 140.858 605.5 142.5C597.433 142.627 589.433 143.294 581.5 144.5C581.5 142.5 581.5 140.5 581.5 138.5C588.795 137.467 596.129 136.801 603.5 136.5Z" fill="#BD5D34"/>
<path fill-rule="evenodd" clip-rule="evenodd" d="M240.5 143.5C240.5 155.833 240.5 168.167 240.5 180.5C240.667 209.169 240.5 237.835 240 266.5C238.05 279.408 232.217 290.075 222.5 298.5C222.44 297.957 222.107 297.624 221.5 297.5C208.926 304.45 195.593 306.283 181.5 303C169.977 295.795 164.31 285.295 164.5 271.5C164.5 230.5 164.5 189.5 164.5 148.5C174.808 146.98 185.141 145.647 195.5 144.5C195.168 186.67 195.501 228.67 196.5 270.5C196.33 271.822 196.663 272.989 197.5 274C205.345 275.832 209.512 272.666 210 264.5C210.5 223.835 210.667 183.168 210.5 142.5C220.267 140.206 230.267 138.539 240.5 137.5C240.5 139.5 240.5 141.5 240.5 143.5Z" fill="#E7BD7A"/>
<path fill-rule="evenodd" clip-rule="evenodd" d="M557.5 138.5C557.5 139.5 557.5 140.5 557.5 141.5C550.817 142.035 544.15 142.702 537.5 143.5C537.5 142.5 537.5 141.5 537.5 140.5C544.13 139.505 550.797 138.838 557.5 138.5Z" fill="#CC9139"/>
<path fill-rule="evenodd" clip-rule="evenodd" d="M384.5 142.5C384.56 141.957 384.893 141.624 385.5 141.5C386.498 151.144 386.832 160.81 386.5 170.5C386.167 170.5 385.833 170.5 385.5 170.5C385.827 160.985 385.494 151.652 384.5 142.5Z" fill="#999671"/>
<path fill-rule="evenodd" clip-rule="evenodd" d="M557.5 141.5C557.5 143.5 557.5 145.5 557.5 147.5C550.817 148.035 544.15 148.702 537.5 149.5C537.5 147.5 537.5 145.5 537.5 143.5C544.15 142.702 550.817 142.035 557.5 141.5Z" fill="#BD5D34"/>
<path fill-rule="evenodd" clip-rule="evenodd" d="M671.5 141.5C678.833 141.5 686.167 141.5 693.5 141.5C693.5 142.833 693.5 144.167 693.5 145.5C686.167 145.5 678.833 145.5 671.5 145.5C671.5 144.167 671.5 142.833 671.5 141.5Z" fill="#CD9639"/>
<path fill-rule="evenodd" clip-rule="evenodd" d="M233.5 142.5C234.5 142.5 235.5 142.5 236.5 142.5C236.5 181.5 236.5 220.5 236.5 259.5C236.1 264.565 235.267 269.565 234 274.5C233.337 278.035 231.837 281.035 229.5 283.5C231.306 278.281 232.806 272.947 234 267.5C234.5 255.838 234.667 244.171 234.5 232.5C234.5 231.833 234.5 231.167 234.5 230.5C234.5 228.167 234.5 225.833 234.5 223.5C234.5 222.5 234.5 221.5 234.5 220.5C234.5 218.5 234.5 216.5 234.5 214.5C234.5 213.167 234.5 211.833 234.5 210.5C234.5 208.833 234.5 207.167 234.5 205.5C234.5 203.5 234.5 201.5 234.5 199.5C234.5 198.5 234.5 197.5 234.5 196.5C234.5 194.167 234.5 191.833 234.5 189.5C234.5 188.833 234.5 188.167 234.5 187.5C234.5 173.167 234.5 158.833 234.5 144.5C228.503 145.499 222.503 146.499 216.5 147.5C215.5 147.5 214.5 147.5 213.5 147.5C213.881 146.069 214.881 145.236 216.5 145C222.156 144.025 227.823 143.192 233.5 142.5Z" fill="#5B5618"/>
<path fill-rule="evenodd" clip-rule="evenodd" d="M605.5 142.5C614.833 142.5 624.167 142.5 633.5 142.5C633.5 143.5 633.5 144.5 633.5 145.5C616.111 145.741 598.777 146.741 581.5 148.5C581.5 147.167 581.5 145.833 581.5 144.5C589.433 143.294 597.433 142.627 605.5 142.5Z" fill="#CB9439"/>
<path fill-rule="evenodd" clip-rule="evenodd" d="M523.5 143.5C523.5 144.167 523.5 144.833 523.5 145.5C512.647 147.264 501.647 148.931 490.5 150.5C490.5 149.5 490.5 148.5 490.5 147.5C501.433 145.647 512.433 144.314 523.5 143.5Z" fill="#CC9339"/>
<path fill-rule="evenodd" clip-rule="evenodd" d="M210.5 142.5C210.667 183.168 210.5 223.835 210 264.5C209.512 272.666 205.345 275.832 197.5 274C196.663 272.989 196.33 271.822 196.5 270.5C196.333 232.499 196.5 194.499 197 156.5C201.731 151.938 206.231 147.271 210.5 142.5Z" fill="#5C571A"/>
<path fill-rule="evenodd" clip-rule="evenodd" d="M469.5 144.5C469.702 146.95 469.369 149.283 468.5 151.5C461.108 152.515 453.774 153.848 446.5 155.5C448.051 153.087 448.717 150.421 448.5 147.5C455.483 146.37 462.483 145.37 469.5 144.5Z" fill="#BC5C34"/>
<path fill-rule="evenodd" clip-rule="evenodd" d="M234.5 187.5C227.869 188.716 221.202 189.716 214.5 190.5C213.877 175.923 214.544 161.589 216.5 147.5C222.503 146.499 228.503 145.499 234.5 144.5C234.5 158.833 234.5 173.167 234.5 187.5Z" fill="#BC5A33"/>
<path fill-rule="evenodd" clip-rule="evenodd" d="M352.5 145.5C352.333 156.505 352.5 167.505 353 178.5C353.804 179.804 354.971 180.471 356.5 180.5C365.126 178.575 373.793 176.908 382.5 175.5C382.666 182.841 382.5 190.174 382 197.5C381.329 198.252 380.496 198.586 379.5 198.5C379.5 197.5 379.5 196.5 379.5 195.5C379.5 194.5 379.5 193.5 379.5 192.5C379.5 190.5 379.5 188.5 379.5 186.5C379.5 185.167 379.5 183.833 379.5 182.5C379.5 181.167 379.5 179.833 379.5 178.5C370.184 179.963 360.851 181.297 351.5 182.5C350.699 180.958 350.366 179.292 350.5 177.5C350.5 176.5 350.5 175.5 350.5 174.5C350.5 172.167 350.5 169.833 350.5 167.5C350.5 166.833 350.5 166.167 350.5 165.5C350.334 159.158 350.5 152.825 351 146.5C351.383 145.944 351.883 145.611 352.5 145.5Z" fill="#625A1D"/>
<path fill-rule="evenodd" clip-rule="evenodd" d="M448.5 133.5C449.483 137.298 449.817 141.298 449.5 145.5C456.169 144.5 462.836 143.5 469.5 142.5C469.5 143.167 469.5 143.833 469.5 144.5C462.483 145.37 455.483 146.37 448.5 147.5C448.5 142.833 448.5 138.167 448.5 133.5Z" fill="#C78B3D"/>
<path fill-rule="evenodd" clip-rule="evenodd" d="M633.5 145.5C633.5 147.167 633.5 148.833 633.5 150.5C616.151 150.818 598.818 151.485 581.5 152.5C581.5 151.167 581.5 149.833 581.5 148.5C598.777 146.741 616.111 145.741 633.5 145.5Z" fill="#BE5F34"/>
<path fill-rule="evenodd" clip-rule="evenodd" d="M671.5 145.5C678.833 145.5 686.167 145.5 693.5 145.5C693.5 147.167 693.5 148.833 693.5 150.5C686.167 150.5 678.833 150.5 671.5 150.5C671.5 148.833 671.5 147.167 671.5 145.5Z" fill="#BE6034"/>
<path fill-rule="evenodd" clip-rule="evenodd" d="M523.5 145.5C524.451 146.919 524.784 148.585 524.5 150.5C513.411 153.143 502.078 155.143 490.5 156.5C490.5 154.5 490.5 152.5 490.5 150.5C501.647 148.931 512.647 147.264 523.5 145.5Z" fill="#BD5D34"/>
<path fill-rule="evenodd" clip-rule="evenodd" d="M557.5 147.5C557.5 148.833 557.5 150.167 557.5 151.5C550.857 152.385 544.19 153.052 537.5 153.5C537.5 152.167 537.5 150.833 537.5 149.5C544.15 148.702 550.817 148.035 557.5 147.5Z" fill="#CD9639"/>
<path fill-rule="evenodd" clip-rule="evenodd" d="M164.5 148.5C164.5 189.5 164.5 230.5 164.5 271.5C163.833 231.167 163.167 190.833 162.5 150.5C162.833 149.5 163.5 148.833 164.5 148.5Z" fill="#A48B4A"/>
<path fill-rule="evenodd" clip-rule="evenodd" d="M188.5 149.5C190.165 187.656 191.165 225.989 191.5 264.5C190.604 274.938 195.271 279.604 205.5 278.5C200.388 282.819 195.555 282.486 191 277.5C190.012 274.576 189.346 271.576 189 268.5C188.5 258.839 188.334 249.172 188.5 239.5C188.5 238.833 188.5 238.167 188.5 237.5C188.5 235.167 188.5 232.833 188.5 230.5C188.5 229.5 188.5 228.5 188.5 227.5C188.5 225.5 188.5 223.5 188.5 221.5C188.5 220.167 188.5 218.833 188.5 217.5C188.5 216.167 188.5 214.833 188.5 213.5C188.5 211.167 188.5 208.833 188.5 206.5C188.5 205.833 188.5 205.167 188.5 204.5C188.5 201.833 188.5 199.167 188.5 196.5C188.5 196.167 188.5 195.833 188.5 195.5C188.5 180.833 188.5 166.167 188.5 151.5C181.486 152.407 174.486 153.407 167.5 154.5C167.5 153.5 167.5 152.5 167.5 151.5C174.5 150.833 181.5 150.167 188.5 149.5Z" fill="#5C5719"/>
<path fill-rule="evenodd" clip-rule="evenodd" d="M162.5 150.5C163.167 190.833 163.833 231.167 164.5 271.5C164.31 285.295 169.977 295.795 181.5 303C195.593 306.283 208.926 304.45 221.5 297.5C222.107 297.624 222.44 297.957 222.5 298.5C207.278 317.944 187.945 323.777 164.5 316C156.646 309.795 152.312 301.629 151.5 291.5C151.567 289.599 151.233 287.766 150.5 286C152.021 281.3 152.854 276.466 153 271.5C153.667 241.833 153.667 212.167 153 182.5C152.47 178.417 151.637 174.417 150.5 170.5C150.337 168.143 150.503 165.81 151 163.5C154.699 158.973 158.532 154.639 162.5 150.5Z" fill="#595518"/>
<path fill-rule="evenodd" clip-rule="evenodd" d="M633.5 150.5C633.5 152.5 633.5 154.5 633.5 156.5C616.151 156.818 598.818 157.485 581.5 158.5C581.5 156.5 581.5 154.5 581.5 152.5C598.818 151.485 616.151 150.818 633.5 150.5Z" fill="#CD9439"/>
<path fill-rule="evenodd" clip-rule="evenodd" d="M671.5 150.5C678.833 150.5 686.167 150.5 693.5 150.5C693.5 152.167 693.5 153.833 693.5 155.5C686.167 155.5 678.833 155.5 671.5 155.5C671.5 153.833 671.5 152.167 671.5 150.5Z" fill="#CD9739"/>
<path fill-rule="evenodd" clip-rule="evenodd" d="M468.5 151.5C468.737 152.791 468.404 153.791 467.5 154.5C459.833 155.833 452.167 157.167 444.5 158.5C445.167 157.5 445.833 156.5 446.5 155.5C453.774 153.848 461.108 152.515 468.5 151.5Z" fill="#CC9339"/>
<path fill-rule="evenodd" clip-rule="evenodd" d="M150.5 170.5C151.637 174.417 152.47 178.417 153 182.5C153.667 212.167 153.667 241.833 153 271.5C152.854 276.466 152.021 281.3 150.5 286C151.233 287.766 151.567 289.599 151.5 291.5C150.732 290.737 150.232 289.737 150 288.5C146.858 296.473 142.025 303.14 135.5 308.5C124.864 314.14 113.53 316.307 101.5 315C91.0187 312.524 83.5187 306.357 79 296.5C77.1157 291.324 75.7824 285.99 75 280.5C74.3333 250.5 74.3333 220.5 75 190.5C76.0654 183.898 77.8987 177.565 80.5 171.5C89.9367 157.868 103.103 151.534 120 152.5C134.393 151.765 144.559 157.765 150.5 170.5Z" fill="#DFB672"/>
<path fill-rule="evenodd" clip-rule="evenodd" d="M188.5 195.5C181.468 195.874 174.468 196.541 167.5 197.5C167.5 183.167 167.5 168.833 167.5 154.5C174.486 153.407 181.486 152.407 188.5 151.5C188.5 166.167 188.5 180.833 188.5 195.5Z" fill="#BC5B34"/>
<path fill-rule="evenodd" clip-rule="evenodd" d="M425.5 150.5C425.5 151.167 425.5 151.833 425.5 152.5C418.164 153.501 410.831 154.501 403.5 155.5C403.5 155.167 403.5 154.833 403.5 154.5C410.792 152.959 418.125 151.625 425.5 150.5Z" fill="#C98C38"/>
<path fill-rule="evenodd" clip-rule="evenodd" d="M425.5 152.5C425.5 154.833 425.5 157.167 425.5 159.5C418.191 160.962 410.858 162.295 403.5 163.5C403.5 160.833 403.5 158.167 403.5 155.5C410.831 154.501 418.164 153.501 425.5 152.5Z" fill="#BB5D33"/>
<path fill-rule="evenodd" clip-rule="evenodd" d="M524.5 150.5C525.451 151.919 525.784 153.585 525.5 155.5C514.046 157.726 502.379 159.392 490.5 160.5C490.5 159.167 490.5 157.833 490.5 156.5C502.078 155.143 513.411 153.143 524.5 150.5Z" fill="#CC9339"/>
<path fill-rule="evenodd" clip-rule="evenodd" d="M557.5 151.5C557.5 152.833 557.5 154.167 557.5 155.5C550.794 156.503 544.127 157.503 537.5 158.5C537.5 156.833 537.5 155.167 537.5 153.5C544.19 153.052 550.857 152.385 557.5 151.5Z" fill="#BE5F34"/>
<path fill-rule="evenodd" clip-rule="evenodd" d="M213.5 147.5C214.5 147.5 215.5 147.5 216.5 147.5C214.544 161.589 213.877 175.923 214.5 190.5C214.5 191.167 214.167 191.5 213.5 191.5C213.5 176.833 213.5 162.167 213.5 147.5Z" fill="#B5713E"/>
<path fill-rule="evenodd" clip-rule="evenodd" d="M233.5 142.5C234.568 141.566 235.901 141.232 237.5 141.5C237.832 181.004 237.499 220.337 236.5 259.5C236.5 220.5 236.5 181.5 236.5 142.5C235.5 142.5 234.5 142.5 233.5 142.5Z" fill="#B59855"/>
<path fill-rule="evenodd" clip-rule="evenodd" d="M467.5 154.5C467.483 156.565 467.15 158.565 466.5 160.5C445.49 164.335 424.49 168.335 403.5 172.5C403.5 170.5 403.5 168.5 403.5 166.5C410.71 164.543 418.043 163.209 425.5 162.5C425.787 164.121 426.787 165.121 428.5 165.5C431.443 164.756 434.443 164.256 437.5 164C439.093 163.051 440.426 161.885 441.5 160.5C442.5 159.833 443.5 159.167 444.5 158.5C452.167 157.167 459.833 155.833 467.5 154.5Z" fill="#BC5D33"/>
<path fill-rule="evenodd" clip-rule="evenodd" d="M141.5 295.5C143.617 290.37 145.117 285.036 146 279.5C146.5 267.838 146.667 256.171 146.5 244.5C146.5 244.167 146.5 243.833 146.5 243.5C146.5 240.833 146.5 238.167 146.5 235.5C146.5 234.833 146.5 234.167 146.5 233.5C146.5 231.5 146.5 229.5 146.5 227.5C146.5 225.833 146.5 224.167 146.5 222.5C146.5 221.167 146.5 219.833 146.5 218.5C146.5 216.5 146.5 214.5 146.5 212.5C146.5 211.5 146.5 210.5 146.5 209.5C146.5 207.167 146.5 204.833 146.5 202.5C146.5 201.833 146.5 201.167 146.5 200.5C150.327 168.494 136.327 154.994 104.5 160C101.625 161.302 98.6249 162.135 95.5 162.5C99.2593 159.626 103.593 157.792 108.5 157C115.167 156.333 121.833 156.333 128.5 157C140.192 160.027 147.026 167.527 149 179.5C149.667 211.833 149.667 244.167 149 276.5C147.94 283.535 145.44 289.868 141.5 295.5Z" fill="#685C1E"/>
<path fill-rule="evenodd" clip-rule="evenodd" d="M525.5 155.5C526.451 156.919 526.784 158.585 526.5 160.5C523.763 160.401 521.096 160.735 518.5 161.5C517.041 161.433 515.708 161.766 514.5 162.5C506.432 163.009 498.432 164.009 490.5 165.5C490.5 163.833 490.5 162.167 490.5 160.5C502.379 159.392 514.046 157.726 525.5 155.5Z" fill="#BD5F34"/>
<path fill-rule="evenodd" clip-rule="evenodd" d="M557.5 155.5C557.5 157.5 557.5 159.5 557.5 161.5C549.896 162.919 542.229 163.919 534.5 164.5C534.833 163.833 535.167 163.167 535.5 162.5C535.833 161.833 536.167 161.167 536.5 160.5C537.338 160.158 537.672 159.492 537.5 158.5C544.127 157.503 550.794 156.503 557.5 155.5Z" fill="#CC9439"/>
<path fill-rule="evenodd" clip-rule="evenodd" d="M633.5 156.5C633.5 157.167 633.5 157.833 633.5 158.5C616.143 159.131 598.81 160.131 581.5 161.5C581.5 160.5 581.5 159.5 581.5 158.5C598.818 157.485 616.151 156.818 633.5 156.5Z" fill="#BE5E34"/>
<path fill-rule="evenodd" clip-rule="evenodd" d="M671.5 155.5C678.833 155.5 686.167 155.5 693.5 155.5C693.5 156.5 693.5 157.5 693.5 158.5C686.167 158.5 678.833 158.5 671.5 158.5C671.5 157.5 671.5 156.5 671.5 155.5Z" fill="#BE6134"/>
<path fill-rule="evenodd" clip-rule="evenodd" d="M293.5 156.5C294.161 199.18 293.495 241.513 291.5 283.5C291.5 262.833 291.5 242.167 291.5 221.5C291.5 221.167 291.5 220.833 291.5 220.5C291.5 217.833 291.5 215.167 291.5 212.5C291.5 211.833 291.5 211.167 291.5 210.5C291.5 208.167 291.5 205.833 291.5 203.5C291.5 202.167 291.5 200.833 291.5 199.5C291.5 198.167 291.5 196.833 291.5 195.5C291.5 193.5 291.5 191.5 291.5 189.5C291.5 188.5 291.5 187.5 291.5 186.5C291.5 183.833 291.5 181.167 291.5 178.5C291.5 178.167 291.5 177.833 291.5 177.5C291.334 171.158 291.5 164.825 292 158.5C292.278 157.584 292.778 156.918 293.5 156.5Z" fill="#585417"/>
<path fill-rule="evenodd" clip-rule="evenodd" d="M146.5 200.5C139.477 200.969 132.477 201.636 125.5 202.5C125.818 197.968 125.485 193.634 124.5 189.5C124.156 180.985 119.823 177.485 111.5 179C108.405 179.935 106.071 181.769 104.5 184.5C102.59 185.975 101.424 187.975 101 190.5C100.501 195.155 100.334 199.821 100.5 204.5C93.2418 205.448 85.9085 206.115 78.5 206.5C78.132 197.386 78.9654 188.386 81 179.5C83.9669 172.048 88.8002 166.382 95.5 162.5C98.6249 162.135 101.625 161.302 104.5 160C136.327 154.994 150.327 168.494 146.5 200.5Z" fill="#BC5B33"/>
<path fill-rule="evenodd" clip-rule="evenodd" d="M633.5 158.5C633.5 159.833 633.5 161.167 633.5 162.5C625.493 162.334 617.493 162.5 609.5 163C608.058 163.377 607.058 164.21 606.5 165.5C605.5 165.833 604.833 166.5 604.5 167.5C596.764 167.45 589.097 168.117 581.5 169.5C581.5 166.833 581.5 164.167 581.5 161.5C598.81 160.131 616.143 159.131 633.5 158.5Z" fill="#CC953A"/>
<path fill-rule="evenodd" clip-rule="evenodd" d="M671.5 158.5C678.833 158.5 686.167 158.5 693.5 158.5C693.5 161.5 693.5 164.5 693.5 167.5C686.167 167.5 678.833 167.5 671.5 167.5C671.5 164.5 671.5 161.5 671.5 158.5Z" fill="#CA8E38"/>
<path fill-rule="evenodd" clip-rule="evenodd" d="M425.5 159.5C425.5 160.5 425.5 161.5 425.5 162.5C418.043 163.209 410.71 164.543 403.5 166.5C403.5 165.5 403.5 164.5 403.5 163.5C410.858 162.295 418.191 160.962 425.5 159.5Z" fill="#CA9138"/>
<path fill-rule="evenodd" clip-rule="evenodd" d="M526.5 160.5C526.893 162.284 527.559 163.95 528.5 165.5C526.194 165.993 523.861 166.326 521.5 166.5C521.25 164.326 520.25 162.659 518.5 161.5C521.096 160.735 523.763 160.401 526.5 160.5Z" fill="#CC953A"/>
<path fill-rule="evenodd" clip-rule="evenodd" d="M466.5 160.5C466.631 161.239 466.464 161.906 466 162.5C463.713 164.054 461.546 165.721 459.5 167.5C458.903 166.861 458.07 166.528 457 166.5C439.239 170.286 421.406 173.619 403.5 176.5C403.5 175.167 403.5 173.833 403.5 172.5C424.49 168.335 445.49 164.335 466.5 160.5Z" fill="#CC9439"/>
<path fill-rule="evenodd" clip-rule="evenodd" d="M514.5 162.5C514.167 163.167 513.833 163.833 513.5 164.5C511.896 165.287 511.229 166.62 511.5 168.5C511.167 168.5 510.833 168.5 510.5 168.5C503.809 169.336 497.142 170.336 490.5 171.5C490.5 169.5 490.5 167.5 490.5 165.5C498.432 164.009 506.432 163.009 514.5 162.5Z" fill="#CC9439"/>
<path fill-rule="evenodd" clip-rule="evenodd" d="M557.5 161.5C557.5 162.5 557.5 163.5 557.5 164.5C545.891 166.531 534.224 168.198 522.5 169.5C521.596 168.791 521.263 167.791 521.5 166.5C523.861 166.326 526.194 165.993 528.5 165.5C530.565 165.483 532.565 165.15 534.5 164.5C542.229 163.919 549.896 162.919 557.5 161.5Z" fill="#BE6134"/>
<path fill-rule="evenodd" clip-rule="evenodd" d="M261.5 164.5C262.919 163.549 264.585 163.216 266.5 163.5C266.168 206.337 266.501 249.003 267.5 291.5C267.44 292.043 267.107 292.376 266.5 292.5C265.5 249.839 265.167 207.172 265.5 164.5C264.167 164.5 262.833 164.5 261.5 164.5Z" fill="#917D3D"/>
<path fill-rule="evenodd" clip-rule="evenodd" d="M513.5 164.5C513.5 190.167 513.5 215.833 513.5 241.5C511.51 217.523 510.843 193.19 511.5 168.5C511.229 166.62 511.896 165.287 513.5 164.5Z" fill="#585417"/>
<path fill-rule="evenodd" clip-rule="evenodd" d="M557.5 164.5C557.5 167.167 557.5 169.833 557.5 172.5C546.109 173.341 534.775 174.674 523.5 176.5C522.532 174.393 522.198 172.059 522.5 169.5C534.224 168.198 545.891 166.531 557.5 164.5Z" fill="#CD963A"/>
<path fill-rule="evenodd" clip-rule="evenodd" d="M639.5 165.5C635.773 170.735 631.44 175.568 626.5 180C621.177 180.499 615.844 180.666 610.5 180.5C610.5 175.833 610.5 171.167 610.5 166.5C620.139 165.64 629.806 165.307 639.5 165.5Z" fill="#5C571A"/>
<path fill-rule="evenodd" clip-rule="evenodd" d="M350.5 167.5C350.5 169.833 350.5 172.167 350.5 174.5C343.244 176.218 335.91 177.551 328.5 178.5C328.5 176.167 328.5 173.833 328.5 171.5C335.756 169.782 343.09 168.449 350.5 167.5Z" fill="#BC5D33"/>
<path fill-rule="evenodd" clip-rule="evenodd" d="M459.5 167.5C457.5 167.5 456.5 168.5 456.5 170.5C455.5 170.833 454.833 171.5 454.5 172.5C437.339 174.709 420.339 177.709 403.5 181.5C403.5 179.833 403.5 178.167 403.5 176.5C421.406 173.619 439.239 170.286 457 166.5C458.07 166.528 458.903 166.861 459.5 167.5Z" fill="#BD5E34"/>
<path fill-rule="evenodd" clip-rule="evenodd" d="M606.5 165.5C606.333 178.837 606.5 192.171 607 205.5C617.752 206.487 628.585 206.82 639.5 206.5C640.132 214.573 639.465 222.24 637.5 229.5C637.5 222.5 637.5 215.5 637.5 208.5C626.823 208.79 616.156 208.957 605.5 209C605 208.5 604.5 208 604 207.5C603.5 194.838 603.333 182.171 603.5 169.5C603.833 168.833 604.167 168.167 604.5 167.5C604.833 166.5 605.5 165.833 606.5 165.5Z" fill="#625A1B"/>
<path fill-rule="evenodd" clip-rule="evenodd" d="M671.5 167.5C678.833 167.5 686.167 167.5 693.5 167.5C693.5 188.167 693.5 208.833 693.5 229.5C686.167 229.5 678.833 229.5 671.5 229.5C671.5 208.833 671.5 188.167 671.5 167.5Z" fill="#CD9739"/>
<path fill-rule="evenodd" clip-rule="evenodd" d="M350.5 165.5C350.5 166.167 350.5 166.833 350.5 167.5C343.09 168.449 335.756 169.782 328.5 171.5C328.5 170.833 328.5 170.167 328.5 169.5C335.809 168.038 343.142 166.705 350.5 165.5Z" fill="#C98938"/>
<path fill-rule="evenodd" clip-rule="evenodd" d="M510.5 168.5C510.5 169.5 510.5 170.5 510.5 171.5C503.832 172.5 497.165 173.5 490.5 174.5C490.5 173.5 490.5 172.5 490.5 171.5C497.142 170.336 503.809 169.336 510.5 168.5Z" fill="#BE6134"/>
<path fill-rule="evenodd" clip-rule="evenodd" d="M604.5 167.5C604.167 168.167 603.833 168.833 603.5 169.5C596.16 169.723 588.827 170.056 581.5 170.5C581.5 170.167 581.5 169.833 581.5 169.5C589.097 168.117 596.764 167.45 604.5 167.5Z" fill="#C06835"/>
<path fill-rule="evenodd" clip-rule="evenodd" d="M603.5 169.5C603.333 182.171 603.5 194.838 604 207.5C604.5 208 605 208.5 605.5 209C616.156 208.957 626.823 208.79 637.5 208.5C637.5 215.5 637.5 222.5 637.5 229.5C618.86 230.785 600.193 231.785 581.5 232.5C581.5 211.833 581.5 191.167 581.5 170.5C588.827 170.056 596.16 169.723 603.5 169.5Z" fill="#CD973A"/>
<path fill-rule="evenodd" clip-rule="evenodd" d="M456.5 170.5C456.511 172.017 457.177 173.184 458.5 174C464.71 174.204 468.543 177.371 470 183.5C470.5 205.164 470.667 226.831 470.5 248.5C469.5 248.5 468.5 248.5 467.5 248.5C467.5 228.167 467.5 207.833 467.5 187.5C467.672 186.508 467.338 185.842 466.5 185.5C466.539 182.911 465.539 180.911 463.5 179.5C463.389 178.883 463.056 178.383 462.5 178C460.527 177.505 458.527 177.338 456.5 177.5C455.058 176.18 454.392 174.514 454.5 172.5C454.833 171.5 455.5 170.833 456.5 170.5Z" fill="#695F21"/>
<path fill-rule="evenodd" clip-rule="evenodd" d="M454.5 172.5C454.392 174.514 455.058 176.18 456.5 177.5C447.257 178.55 438.257 180.217 429.5 182.5C420.812 183.704 412.145 185.038 403.5 186.5C403.5 184.833 403.5 183.167 403.5 181.5C420.339 177.709 437.339 174.709 454.5 172.5Z" fill="#CD9539"/>
<path fill-rule="evenodd" clip-rule="evenodd" d="M510.5 171.5C510.5 174.167 510.5 176.833 510.5 179.5C503.81 179.948 497.143 180.615 490.5 181.5C490.5 179.167 490.5 176.833 490.5 174.5C497.165 173.5 503.832 172.5 510.5 171.5Z" fill="#CD9539"/>
<path fill-rule="evenodd" clip-rule="evenodd" d="M557.5 172.5C557.5 172.833 557.5 173.167 557.5 173.5C546.155 175.168 534.821 176.835 523.5 178.5C523.5 177.833 523.5 177.167 523.5 176.5C534.775 174.674 546.109 173.341 557.5 172.5Z" fill="#C06735"/>
<path fill-rule="evenodd" clip-rule="evenodd" d="M559.5 83.5C560.162 134.178 559.495 184.511 557.5 234.5C557.5 214.167 557.5 193.833 557.5 173.5C557.5 173.167 557.5 172.833 557.5 172.5C557.5 169.833 557.5 167.167 557.5 164.5C557.5 163.5 557.5 162.5 557.5 161.5C557.5 159.5 557.5 157.5 557.5 155.5C557.5 154.167 557.5 152.833 557.5 151.5C557.5 150.167 557.5 148.833 557.5 147.5C557.5 145.5 557.5 143.5 557.5 141.5C557.5 140.5 557.5 139.5 557.5 138.5C557.5 136.167 557.5 133.833 557.5 131.5C557.5 130.833 557.5 130.167 557.5 129.5C557.5 115.167 557.5 100.833 557.5 86.5C550.803 86.8854 544.136 87.552 537.5 88.5C537.5 87.8333 537.5 87.1667 537.5 86.5C544.718 84.9452 552.052 83.9452 559.5 83.5Z" fill="#61581A"/>
<path fill-rule="evenodd" clip-rule="evenodd" d="M560.5 79.5C561.568 78.5655 562.901 78.2322 564.5 78.5C564.5 82.8333 564.5 87.1667 564.5 91.5C564.5 140.5 564.5 189.5 564.5 238.5C564.167 238.5 563.833 238.5 563.5 238.5C563.5 185.5 563.5 132.5 563.5 79.5C562.5 79.5 561.5 79.5 560.5 79.5Z" fill="#AC955D"/>
<path fill-rule="evenodd" clip-rule="evenodd" d="M80.5 171.5C77.8987 177.565 76.0654 183.898 75 190.5C74.3333 220.5 74.3333 250.5 75 280.5C75.7824 285.99 77.1157 291.324 79 296.5C83.5187 306.357 91.0187 312.524 101.5 315C113.53 316.307 124.864 314.14 135.5 308.5C123.918 325.118 107.918 332.284 87.5 330C71.7069 325.529 63.2069 315.029 62 298.5C61.3333 265.833 61.3333 233.167 62 200.5C64.6427 188.539 70.8094 178.873 80.5 171.5Z" fill="#595519"/>
<path fill-rule="evenodd" clip-rule="evenodd" d="M557.5 173.5C557.5 193.833 557.5 214.167 557.5 234.5C557.5 234.833 557.5 235.167 557.5 235.5C550.16 236.725 542.827 237.058 535.5 236.5C531.661 217.103 527.661 197.77 523.5 178.5C534.821 176.835 546.155 175.168 557.5 173.5Z" fill="#CD973A"/>
<path fill-rule="evenodd" clip-rule="evenodd" d="M350.5 174.5C350.5 175.5 350.5 176.5 350.5 177.5C343.191 178.962 335.858 180.295 328.5 181.5C328.5 180.5 328.5 179.5 328.5 178.5C335.91 177.551 343.244 176.218 350.5 174.5Z" fill="#CB9139"/>
<path fill-rule="evenodd" clip-rule="evenodd" d="M350.5 177.5C350.366 179.292 350.699 180.958 351.5 182.5C343.958 184.627 336.291 186.293 328.5 187.5C328.5 185.5 328.5 183.5 328.5 181.5C335.858 180.295 343.191 178.962 350.5 177.5Z" fill="#BC5C33"/>
<path fill-rule="evenodd" clip-rule="evenodd" d="M456.5 177.5C458.527 177.338 460.527 177.505 462.5 178C463.056 178.383 463.389 178.883 463.5 179.5C456.108 180.127 448.775 181.127 441.5 182.5C437.5 182.5 433.5 182.5 429.5 182.5C438.257 180.217 447.257 178.55 456.5 177.5Z" fill="#BE6134"/>
<path fill-rule="evenodd" clip-rule="evenodd" d="M124.5 189.5C124.5 218.5 124.5 247.5 124.5 276.5C124.244 280.771 122.578 284.438 119.5 287.5C110.743 291.705 105.243 289.039 103 279.5C102.333 249.833 102.333 220.167 103 190.5C103.505 188.482 104.005 186.482 104.5 184.5C106.071 181.769 108.405 179.935 111.5 179C119.823 177.485 124.156 180.985 124.5 189.5Z" fill="#E7BF7F"/>
<path fill-rule="evenodd" clip-rule="evenodd" d="M379.5 182.5C362.535 185.626 345.535 188.626 328.5 191.5C328.5 190.167 328.5 188.833 328.5 187.5C336.291 186.293 343.958 184.627 351.5 182.5C360.851 181.297 370.184 179.963 379.5 178.5C379.5 179.833 379.5 181.167 379.5 182.5Z" fill="#CA9338"/>
<path fill-rule="evenodd" clip-rule="evenodd" d="M269.5 162.5C270.328 168.653 270.828 174.987 271 181.5C277.698 179.594 284.531 178.261 291.5 177.5C291.5 177.833 291.5 178.167 291.5 178.5C284.626 180.341 277.626 181.674 270.5 182.5C270.5 184.833 270.5 187.167 270.5 189.5C277.543 188.78 284.543 187.78 291.5 186.5C291.5 187.5 291.5 188.5 291.5 189.5C284.238 190.087 277.238 191.42 270.5 193.5C270.167 193.5 269.833 193.5 269.5 193.5C269.5 183.167 269.5 172.833 269.5 162.5Z" fill="#C5893B"/>
<path fill-rule="evenodd" clip-rule="evenodd" d="M291.5 178.5C291.5 181.167 291.5 183.833 291.5 186.5C284.543 187.78 277.543 188.78 270.5 189.5C270.5 187.167 270.5 184.833 270.5 182.5C277.626 181.674 284.626 180.341 291.5 178.5Z" fill="#BC5C33"/>
<path fill-rule="evenodd" clip-rule="evenodd" d="M463.5 179.5C465.539 180.911 466.539 182.911 466.5 185.5C459.808 186.741 453.142 188.075 446.5 189.5C445.091 187.028 443.424 184.695 441.5 182.5C448.775 181.127 456.108 180.127 463.5 179.5Z" fill="#CC9539"/>
<path fill-rule="evenodd" clip-rule="evenodd" d="M510.5 179.5C510.5 179.833 510.5 180.167 510.5 180.5C503.864 181.686 497.198 182.686 490.5 183.5C490.5 182.833 490.5 182.167 490.5 181.5C497.143 180.615 503.81 179.948 510.5 179.5Z" fill="#C06635"/>
<path fill-rule="evenodd" clip-rule="evenodd" d="M510.5 180.5C510.5 201.167 510.5 221.833 510.5 242.5C504.779 242.868 499.112 243.534 493.5 244.5C492.5 244.5 491.5 244.5 490.5 244.5C490.5 224.167 490.5 203.833 490.5 183.5C497.198 182.686 503.864 181.686 510.5 180.5Z" fill="#CD973A"/>
<path fill-rule="evenodd" clip-rule="evenodd" d="M510.5 168.5C510.833 168.5 511.167 168.5 511.5 168.5C510.843 193.19 511.51 217.523 513.5 241.5C512.791 242.404 511.791 242.737 510.5 242.5C510.5 221.833 510.5 201.167 510.5 180.5C510.5 180.167 510.5 179.833 510.5 179.5C510.5 176.833 510.5 174.167 510.5 171.5C510.5 170.5 510.5 169.5 510.5 168.5Z" fill="#937529"/>
<path fill-rule="evenodd" clip-rule="evenodd" d="M111.5 182.5C116.181 181.456 119.348 183.123 121 187.5C121.667 217.5 121.667 247.5 121 277.5C119.04 285.865 114.707 287.532 108 282.5C107.56 251.155 107.226 219.821 107 188.5C107.804 185.854 109.304 183.854 111.5 182.5Z" fill="#5C571B"/>
<path fill-rule="evenodd" clip-rule="evenodd" d="M379.5 182.5C379.5 183.833 379.5 185.167 379.5 186.5C362.452 189.576 345.452 192.91 328.5 196.5C328.5 194.833 328.5 193.167 328.5 191.5C345.535 188.626 362.535 185.626 379.5 182.5Z" fill="#BE5F34"/>
<path fill-rule="evenodd" clip-rule="evenodd" d="M429.5 182.5C428.833 183.5 428.167 184.5 427.5 185.5C426.833 185.833 426.167 186.167 425.5 186.5C418.131 187.24 410.798 188.24 403.5 189.5C403.5 188.5 403.5 187.5 403.5 186.5C412.145 185.038 420.812 183.704 429.5 182.5Z" fill="#BE6034"/>
<path fill-rule="evenodd" clip-rule="evenodd" d="M490.5 93.5C490.5 94.1667 490.5 94.8333 490.5 95.5C490.5 109.833 490.5 124.167 490.5 138.5C490.5 139.167 490.5 139.833 490.5 140.5C490.5 142.833 490.5 145.167 490.5 147.5C490.5 148.5 490.5 149.5 490.5 150.5C490.5 152.5 490.5 154.5 490.5 156.5C490.5 157.833 490.5 159.167 490.5 160.5C490.5 162.167 490.5 163.833 490.5 165.5C490.5 167.5 490.5 169.5 490.5 171.5C490.5 172.5 490.5 173.5 490.5 174.5C490.5 176.833 490.5 179.167 490.5 181.5C490.5 182.167 490.5 182.833 490.5 183.5C490.5 203.833 490.5 224.167 490.5 244.5C491.5 244.5 492.5 244.5 493.5 244.5C492.432 245.434 491.099 245.768 489.5 245.5C489.168 194.664 489.501 143.997 490.5 93.5Z" fill="#C49E5A"/>
<path fill-rule="evenodd" clip-rule="evenodd" d="M379.5 186.5C379.5 188.5 379.5 190.5 379.5 192.5C362.434 195.58 345.434 198.913 328.5 202.5C328.5 200.5 328.5 198.5 328.5 196.5C345.452 192.91 362.452 189.576 379.5 186.5Z" fill="#CD9639"/>
<path fill-rule="evenodd" clip-rule="evenodd" d="M425.5 186.5C424.631 188.717 424.298 191.05 424.5 193.5C417.375 194.325 410.375 195.659 403.5 197.5C403.5 194.833 403.5 192.167 403.5 189.5C410.798 188.24 418.131 187.24 425.5 186.5Z" fill="#CD9539"/>
<path fill-rule="evenodd" clip-rule="evenodd" d="M427.5 185.5C427.5 209.167 427.5 232.833 427.5 256.5C426.5 256.5 425.5 256.5 424.5 256.5C424.5 236.167 424.5 215.833 424.5 195.5C424.5 194.833 424.5 194.167 424.5 193.5C424.298 191.05 424.631 188.717 425.5 186.5C426.167 186.167 426.833 185.833 427.5 185.5Z" fill="#685D1C"/>
<path fill-rule="evenodd" clip-rule="evenodd" d="M466.5 185.5C467.338 185.842 467.672 186.508 467.5 187.5C460.547 188.779 453.547 189.779 446.5 190.5C446.5 190.167 446.5 189.833 446.5 189.5C453.142 188.075 459.808 186.741 466.5 185.5Z" fill="#BF6634"/>
<path fill-rule="evenodd" clip-rule="evenodd" d="M467.5 187.5C467.5 207.833 467.5 228.167 467.5 248.5C460.528 249.978 453.528 251.312 446.5 252.5C446.5 231.833 446.5 211.167 446.5 190.5C453.547 189.779 460.547 188.779 467.5 187.5Z" fill="#CD973A"/>
<path fill-rule="evenodd" clip-rule="evenodd" d="M104.5 184.5C104.005 186.482 103.505 188.482 103 190.5C102.333 220.167 102.333 249.833 103 279.5C105.243 289.039 110.743 291.705 119.5 287.5C114.401 293.812 108.901 294.145 103 288.5C102.027 286.608 101.36 284.608 101 282.5C100.5 271.505 100.333 260.505 100.5 249.5C100.5 248.833 100.5 248.167 100.5 247.5C100.5 245.167 100.5 242.833 100.5 240.5C100.5 239.5 100.5 238.5 100.5 237.5C100.5 235.5 100.5 233.5 100.5 231.5C100.5 230.167 100.5 228.833 100.5 227.5C100.5 225.833 100.5 224.167 100.5 222.5C100.5 220.5 100.5 218.5 100.5 216.5C100.5 215.5 100.5 214.5 100.5 213.5C100.5 211.167 100.5 208.833 100.5 206.5C100.5 205.833 100.5 205.167 100.5 204.5C100.334 199.821 100.501 195.155 101 190.5C101.424 187.975 102.59 185.975 104.5 184.5Z" fill="#5B5618"/>
<path fill-rule="evenodd" clip-rule="evenodd" d="M234.5 189.5C234.5 191.833 234.5 194.167 234.5 196.5C227.867 197.686 221.201 198.686 214.5 199.5C214.5 197.167 214.5 194.833 214.5 192.5C221.168 191.5 227.835 190.5 234.5 189.5Z" fill="#BC5B33"/>
<path fill-rule="evenodd" clip-rule="evenodd" d="M291.5 189.5C291.5 191.5 291.5 193.5 291.5 195.5C284.444 196.111 277.444 197.111 270.5 198.5C270.5 196.833 270.5 195.167 270.5 193.5C277.238 191.42 284.238 190.087 291.5 189.5Z" fill="#BC5D33"/>
<path fill-rule="evenodd" clip-rule="evenodd" d="M379.5 192.5C379.5 193.5 379.5 194.5 379.5 195.5C362.44 198.579 345.44 201.912 328.5 205.5C328.5 204.5 328.5 203.5 328.5 202.5C345.434 198.913 362.434 195.58 379.5 192.5Z" fill="#BE6134"/>
<path fill-rule="evenodd" clip-rule="evenodd" d="M188.5 149.5C189.209 148.596 190.209 148.263 191.5 148.5C191.5 187.167 191.5 225.833 191.5 264.5C191.165 225.989 190.165 187.656 188.5 149.5Z" fill="#A98F4D"/>
<path fill-rule="evenodd" clip-rule="evenodd" d="M382.5 171.5C383.209 170.596 384.209 170.263 385.5 170.5C385.833 170.5 386.167 170.5 386.5 170.5C386.5 180.833 386.5 191.167 386.5 201.5C385.833 201.5 385.167 201.5 384.5 201.5C384.167 201.5 383.833 201.5 383.5 201.5C385.436 191.76 386.102 181.76 385.5 171.5C384.5 171.5 383.5 171.5 382.5 171.5Z" fill="#9E8342"/>
<path fill-rule="evenodd" clip-rule="evenodd" d="M291.5 195.5C291.5 196.833 291.5 198.167 291.5 199.5C284.501 200.833 277.501 202.166 270.5 203.5C270.5 201.833 270.5 200.167 270.5 198.5C277.444 197.111 284.444 196.111 291.5 195.5Z" fill="#CB9339"/>
<path fill-rule="evenodd" clip-rule="evenodd" d="M379.5 195.5C379.5 196.5 379.5 197.5 379.5 198.5C371.377 199.291 363.377 200.791 355.5 203C353.907 203.949 352.574 205.115 351.5 206.5C351.167 207.167 350.833 207.833 350.5 208.5C343.09 209.449 335.756 210.782 328.5 212.5C328.5 210.167 328.5 207.833 328.5 205.5C345.44 201.912 362.44 198.579 379.5 195.5Z" fill="#CD963A"/>
<path fill-rule="evenodd" clip-rule="evenodd" d="M424.5 193.5C424.5 194.167 424.5 194.833 424.5 195.5C417.482 196.37 410.482 197.37 403.5 198.5C403.5 198.167 403.5 197.833 403.5 197.5C410.375 195.659 417.375 194.325 424.5 193.5Z" fill="#C06835"/>
<path fill-rule="evenodd" clip-rule="evenodd" d="M424.5 195.5C424.5 215.833 424.5 236.167 424.5 256.5C418.239 258.128 411.906 259.461 405.5 260.5C403.512 240.194 402.845 219.527 403.5 198.5C410.482 197.37 417.482 196.37 424.5 195.5Z" fill="#CD973A"/>
<path fill-rule="evenodd" clip-rule="evenodd" d="M188.5 195.5C188.5 195.833 188.5 196.167 188.5 196.5C181.461 197.282 174.461 198.282 167.5 199.5C167.5 198.833 167.5 198.167 167.5 197.5C174.468 196.541 181.468 195.874 188.5 195.5Z" fill="#CA8D39"/>
<path fill-rule="evenodd" clip-rule="evenodd" d="M188.5 196.5C188.5 199.167 188.5 201.833 188.5 204.5C181.444 204.645 174.444 205.312 167.5 206.5C167.5 204.167 167.5 201.833 167.5 199.5C174.461 198.282 181.461 197.282 188.5 196.5Z" fill="#BD5E34"/>
<path fill-rule="evenodd" clip-rule="evenodd" d="M234.5 187.5C234.5 188.167 234.5 188.833 234.5 189.5C227.835 190.5 221.168 191.5 214.5 192.5C214.5 194.833 214.5 197.167 214.5 199.5C221.201 198.686 227.867 197.686 234.5 196.5C234.5 197.5 234.5 198.5 234.5 199.5C227.544 200.779 220.544 201.779 213.5 202.5C213.5 198.833 213.5 195.167 213.5 191.5C214.167 191.5 214.5 191.167 214.5 190.5C221.202 189.716 227.869 188.716 234.5 187.5Z" fill="#CA8F39"/>
<path fill-rule="evenodd" clip-rule="evenodd" d="M403.5 109.5C403.5 110.167 403.5 110.833 403.5 111.5C403.5 125.833 403.5 140.167 403.5 154.5C403.5 154.833 403.5 155.167 403.5 155.5C403.5 158.167 403.5 160.833 403.5 163.5C403.5 164.5 403.5 165.5 403.5 166.5C403.5 168.5 403.5 170.5 403.5 172.5C403.5 173.833 403.5 175.167 403.5 176.5C403.5 178.167 403.5 179.833 403.5 181.5C403.5 183.167 403.5 184.833 403.5 186.5C403.5 187.5 403.5 188.5 403.5 189.5C403.5 192.167 403.5 194.833 403.5 197.5C403.5 197.833 403.5 198.167 403.5 198.5C402.845 219.527 403.512 240.194 405.5 260.5C404.791 261.404 403.791 261.737 402.5 261.5C402.168 210.664 402.501 159.997 403.5 109.5Z" fill="#C7A25D"/>
<path fill-rule="evenodd" clip-rule="evenodd" d="M234.5 199.5C234.5 201.5 234.5 203.5 234.5 205.5C227.547 206.779 220.547 207.779 213.5 208.5C213.5 206.5 213.5 204.5 213.5 202.5C220.544 201.779 227.544 200.779 234.5 199.5Z" fill="#BC5E34"/>
<path fill-rule="evenodd" clip-rule="evenodd" d="M291.5 199.5C291.5 200.833 291.5 202.167 291.5 203.5C284.682 205.597 277.682 206.93 270.5 207.5C270.5 206.167 270.5 204.833 270.5 203.5C277.501 202.166 284.501 200.833 291.5 199.5Z" fill="#BC5E33"/>
<path fill-rule="evenodd" clip-rule="evenodd" d="M146.5 200.5C146.5 201.167 146.5 201.833 146.5 202.5C139.52 203.165 132.52 203.498 125.5 203.5C125.5 203.167 125.5 202.833 125.5 202.5C132.477 201.636 139.477 200.969 146.5 200.5Z" fill="#CA8938"/>
<path fill-rule="evenodd" clip-rule="evenodd" d="M383.5 201.5C383.833 201.5 384.167 201.5 384.5 201.5C384.5 201.833 384.5 202.167 384.5 202.5C380.425 207.078 376.092 211.578 371.5 216C366.464 216.737 361.464 217.571 356.5 218.5C356.5 214.5 356.5 210.5 356.5 206.5C365.535 204.959 374.535 203.293 383.5 201.5Z" fill="#5B571B"/>
<path fill-rule="evenodd" clip-rule="evenodd" d="M384.5 202.5C384.5 202.167 384.5 201.833 384.5 201.5C385.167 201.5 385.833 201.5 386.5 201.5C386.5 213.167 386.5 224.833 386.5 236.5C386.167 236.5 385.833 236.5 385.5 236.5C385.828 224.988 385.495 213.654 384.5 202.5Z" fill="#999772"/>
<path fill-rule="evenodd" clip-rule="evenodd" d="M146.5 202.5C146.5 204.833 146.5 207.167 146.5 209.5C139.764 209.64 133.097 210.307 126.5 211.5C125.52 208.914 125.187 206.247 125.5 203.5C132.52 203.498 139.52 203.165 146.5 202.5Z" fill="#BD5C34"/>
<path fill-rule="evenodd" clip-rule="evenodd" d="M188.5 204.5C188.5 205.167 188.5 205.833 188.5 206.5C181.517 207.63 174.517 208.63 167.5 209.5C167.5 208.5 167.5 207.5 167.5 206.5C174.444 205.312 181.444 204.645 188.5 204.5Z" fill="#CC9339"/>
<path fill-rule="evenodd" clip-rule="evenodd" d="M291.5 203.5C291.5 205.833 291.5 208.167 291.5 210.5C284.444 211.111 277.444 212.111 270.5 213.5C270.5 211.5 270.5 209.5 270.5 207.5C277.682 206.93 284.682 205.597 291.5 203.5Z" fill="#CB9539"/>
<path fill-rule="evenodd" clip-rule="evenodd" d="M100.5 204.5C100.5 205.167 100.5 205.833 100.5 206.5C93.1869 207.187 85.8536 207.521 78.5 207.5C78.5 207.167 78.5 206.833 78.5 206.5C85.9085 206.115 93.2418 205.448 100.5 204.5Z" fill="#C88F38"/>
<path fill-rule="evenodd" clip-rule="evenodd" d="M100.5 206.5C100.5 208.833 100.5 211.167 100.5 213.5C93.2418 214.448 85.9085 215.115 78.5 215.5C78.5 212.833 78.5 210.167 78.5 207.5C85.8536 207.521 93.1869 207.187 100.5 206.5Z" fill="#BC5E34"/>
<path fill-rule="evenodd" clip-rule="evenodd" d="M234.5 205.5C234.5 207.167 234.5 208.833 234.5 210.5C227.433 211.017 220.433 212.017 213.5 213.5C213.5 211.833 213.5 210.167 213.5 208.5C220.547 207.779 227.547 206.779 234.5 205.5Z" fill="#CB9339"/>
<path fill-rule="evenodd" clip-rule="evenodd" d="M351.5 206.5C352.331 218.993 352.831 231.66 353 244.5C353.956 245.894 355.289 246.561 357 246.5C366.469 244.505 375.969 242.839 385.5 241.5C385.5 249.167 385.5 256.833 385.5 264.5C384.5 264.5 383.5 264.5 382.5 264.5C382.5 257.833 382.5 251.167 382.5 244.5C373.035 245.393 363.702 247.06 354.5 249.5C353.446 249.32 352.446 248.987 351.5 248.5C350.501 235.517 350.168 222.517 350.5 209.5C350.5 209.167 350.5 208.833 350.5 208.5C350.833 207.833 351.167 207.167 351.5 206.5Z" fill="#625A1C"/>
<path fill-rule="evenodd" clip-rule="evenodd" d="M188.5 206.5C188.5 208.833 188.5 211.167 188.5 213.5C181.444 213.645 174.444 214.312 167.5 215.5C167.5 213.5 167.5 211.5 167.5 209.5C174.517 208.63 181.517 207.63 188.5 206.5Z" fill="#BD5F34"/>
<path fill-rule="evenodd" clip-rule="evenodd" d="M442.5 191.5C443.167 213.167 443.833 234.833 444.5 256.5C444.44 257.043 444.107 257.376 443.5 257.5C442.5 235.51 442.167 213.51 442.5 191.5Z" fill="#A98F4D"/>
<path fill-rule="evenodd" clip-rule="evenodd" d="M124.5 189.5C125.485 193.634 125.818 197.968 125.5 202.5C125.5 202.833 125.5 203.167 125.5 203.5C125.187 206.247 125.52 208.914 126.5 211.5C133.097 210.307 139.764 209.64 146.5 209.5C146.5 210.5 146.5 211.5 146.5 212.5C139.456 212.756 132.456 213.422 125.5 214.5C125.5 216.5 125.5 218.5 125.5 220.5C125.5 221.833 125.5 223.167 125.5 224.5C125.5 225.833 125.5 227.167 125.5 228.5C125.5 230.5 125.5 232.5 125.5 234.5C125.5 235.5 125.5 236.5 125.5 237.5C125.5 239.833 125.5 242.167 125.5 244.5C125.5 245.167 125.5 245.833 125.5 246.5C125.827 256.681 125.494 266.681 124.5 276.5C124.5 247.5 124.5 218.5 124.5 189.5Z" fill="#C69341"/>
<path fill-rule="evenodd" clip-rule="evenodd" d="M234.5 210.5C234.5 211.833 234.5 213.167 234.5 214.5C227.447 215.176 220.447 216.176 213.5 217.5C213.5 216.167 213.5 214.833 213.5 213.5C220.433 212.017 227.433 211.017 234.5 210.5Z" fill="#BD5F34"/>
<path fill-rule="evenodd" clip-rule="evenodd" d="M291.5 210.5C291.5 211.167 291.5 211.833 291.5 212.5C284.556 214.017 277.556 215.35 270.5 216.5C270.5 215.5 270.5 214.5 270.5 213.5C277.444 212.111 284.444 211.111 291.5 210.5Z" fill="#BE6234"/>
<path fill-rule="evenodd" clip-rule="evenodd" d="M350.5 209.5C350.168 222.517 350.501 235.517 351.5 248.5C352.446 248.987 353.446 249.32 354.5 249.5C363.702 247.06 373.035 245.393 382.5 244.5C382.5 251.167 382.5 257.833 382.5 264.5C364.721 269.189 346.721 272.856 328.5 275.5C328.5 254.833 328.5 234.167 328.5 213.5C335.978 212.804 343.312 211.47 350.5 209.5Z" fill="#CC973A"/>
<path fill-rule="evenodd" clip-rule="evenodd" d="M350.5 208.5C350.5 208.833 350.5 209.167 350.5 209.5C343.312 211.47 335.978 212.804 328.5 213.5C328.5 213.167 328.5 212.833 328.5 212.5C335.756 210.782 343.09 209.449 350.5 208.5Z" fill="#C06935"/>
<path fill-rule="evenodd" clip-rule="evenodd" d="M146.5 212.5C146.5 214.5 146.5 216.5 146.5 218.5C139.456 218.756 132.456 219.422 125.5 220.5C125.5 218.5 125.5 216.5 125.5 214.5C132.456 213.422 139.456 212.756 146.5 212.5Z" fill="#BD5D34"/>
<path fill-rule="evenodd" clip-rule="evenodd" d="M188.5 213.5C188.5 214.833 188.5 216.167 188.5 217.5C181.492 218.084 174.492 218.751 167.5 219.5C167.5 218.167 167.5 216.833 167.5 215.5C174.444 214.312 181.444 213.645 188.5 213.5Z" fill="#CC953A"/>
<path fill-rule="evenodd" clip-rule="evenodd" d="M291.5 212.5C291.5 215.167 291.5 217.833 291.5 220.5C284.482 221.37 277.482 222.37 270.5 223.5C270.5 221.167 270.5 218.833 270.5 216.5C277.556 215.35 284.556 214.017 291.5 212.5Z" fill="#CC9639"/>
<path fill-rule="evenodd" clip-rule="evenodd" d="M100.5 213.5C100.5 214.5 100.5 215.5 100.5 216.5C93.085 216.813 85.7517 217.48 78.5 218.5C78.5 217.5 78.5 216.5 78.5 215.5C85.9085 215.115 93.2418 214.448 100.5 213.5Z" fill="#CA9439"/>
<path fill-rule="evenodd" clip-rule="evenodd" d="M234.5 214.5C234.5 216.5 234.5 218.5 234.5 220.5C227.45 221.175 220.45 222.175 213.5 223.5C213.5 221.5 213.5 219.5 213.5 217.5C220.447 216.176 227.447 215.176 234.5 214.5Z" fill="#CC953A"/>
<path fill-rule="evenodd" clip-rule="evenodd" d="M100.5 216.5C100.5 218.5 100.5 220.5 100.5 222.5C93.1912 223.248 85.8578 223.582 78.5 223.5C78.5 221.833 78.5 220.167 78.5 218.5C85.7517 217.48 93.085 216.813 100.5 216.5Z" fill="#BC5F34"/>
<path fill-rule="evenodd" clip-rule="evenodd" d="M188.5 217.5C188.5 218.833 188.5 220.167 188.5 221.5C181.539 222.718 174.539 223.718 167.5 224.5C167.5 222.833 167.5 221.167 167.5 219.5C174.492 218.751 181.492 218.084 188.5 217.5Z" fill="#BE6134"/>
<path fill-rule="evenodd" clip-rule="evenodd" d="M146.5 218.5C146.5 219.833 146.5 221.167 146.5 222.5C139.5 223.167 132.5 223.833 125.5 224.5C125.5 223.167 125.5 221.833 125.5 220.5C132.456 219.422 139.456 218.756 146.5 218.5Z" fill="#CD9439"/>
<path fill-rule="evenodd" clip-rule="evenodd" d="M234.5 220.5C234.5 221.5 234.5 222.5 234.5 223.5C227.453 224.221 220.453 225.221 213.5 226.5C213.5 225.5 213.5 224.5 213.5 223.5C220.45 222.175 227.45 221.175 234.5 220.5Z" fill="#BD6234"/>
<path fill-rule="evenodd" clip-rule="evenodd" d="M146.5 222.5C146.5 224.167 146.5 225.833 146.5 227.5C139.51 227.999 132.51 228.332 125.5 228.5C125.5 227.167 125.5 225.833 125.5 224.5C132.5 223.833 139.5 223.167 146.5 222.5Z" fill="#BE5E34"/>
<path fill-rule="evenodd" clip-rule="evenodd" d="M188.5 221.5C188.5 223.5 188.5 225.5 188.5 227.5C181.395 228.039 174.395 229.039 167.5 230.5C167.5 228.5 167.5 226.5 167.5 224.5C174.539 223.718 181.539 222.718 188.5 221.5Z" fill="#CC963A"/>
<path fill-rule="evenodd" clip-rule="evenodd" d="M291.5 220.5C291.5 220.833 291.5 221.167 291.5 221.5C284.58 223.084 277.58 224.417 270.5 225.5C270.5 224.833 270.5 224.167 270.5 223.5C277.482 222.37 284.482 221.37 291.5 220.5Z" fill="#C16A35"/>
<path fill-rule="evenodd" clip-rule="evenodd" d="M291.5 221.5C291.5 242.167 291.5 262.833 291.5 283.5C285.866 284.718 280.2 285.718 274.5 286.5C273.167 286.5 271.833 286.5 270.5 286.5C270.5 266.167 270.5 245.833 270.5 225.5C277.58 224.417 284.58 223.084 291.5 221.5Z" fill="#CC9739"/>
<path fill-rule="evenodd" clip-rule="evenodd" d="M100.5 222.5C100.5 224.167 100.5 225.833 100.5 227.5C93.1667 227.833 85.8333 228.167 78.5 228.5C78.5 226.833 78.5 225.167 78.5 223.5C85.8578 223.582 93.1912 223.248 100.5 222.5Z" fill="#CA9239"/>
<path fill-rule="evenodd" clip-rule="evenodd" d="M234.5 223.5C234.5 225.833 234.5 228.167 234.5 230.5C227.544 231.779 220.544 232.779 213.5 233.5C213.5 231.167 213.5 228.833 213.5 226.5C220.453 225.221 227.453 224.221 234.5 223.5Z" fill="#CC953A"/>
<path fill-rule="evenodd" clip-rule="evenodd" d="M269.5 193.5C269.833 193.5 270.167 193.5 270.5 193.5C270.5 195.167 270.5 196.833 270.5 198.5C270.5 200.167 270.5 201.833 270.5 203.5C270.5 204.833 270.5 206.167 270.5 207.5C270.5 209.5 270.5 211.5 270.5 213.5C270.5 214.5 270.5 215.5 270.5 216.5C270.5 218.833 270.5 221.167 270.5 223.5C270.5 224.167 270.5 224.833 270.5 225.5C270.5 245.833 270.5 266.167 270.5 286.5C271.833 286.5 273.167 286.5 274.5 286.5C273.081 287.451 271.415 287.784 269.5 287.5C269.5 256.167 269.5 224.833 269.5 193.5Z" fill="#BD9447"/>
<path fill-rule="evenodd" clip-rule="evenodd" d="M100.5 227.5C100.5 228.833 100.5 230.167 100.5 231.5C93.1826 232.118 85.8493 232.451 78.5 232.5C78.5 231.167 78.5 229.833 78.5 228.5C85.8333 228.167 93.1667 227.833 100.5 227.5Z" fill="#BB5D33"/>
<path fill-rule="evenodd" clip-rule="evenodd" d="M146.5 227.5C146.5 229.5 146.5 231.5 146.5 233.5C139.51 233.999 132.51 234.332 125.5 234.5C125.5 232.5 125.5 230.5 125.5 228.5C132.51 228.332 139.51 227.999 146.5 227.5Z" fill="#CD9539"/>
<path fill-rule="evenodd" clip-rule="evenodd" d="M188.5 227.5C188.5 228.5 188.5 229.5 188.5 230.5C181.428 231.092 174.428 232.092 167.5 233.5C167.5 232.5 167.5 231.5 167.5 230.5C174.395 229.039 181.395 228.039 188.5 227.5Z" fill="#BE6234"/>
<path fill-rule="evenodd" clip-rule="evenodd" d="M518.5 169.5C517.833 194.5 517.167 219.5 516.5 244.5C516.333 218.498 516.5 192.498 517 166.5C518.039 167.244 518.539 168.244 518.5 169.5Z" fill="#C4A15C"/>
<path fill-rule="evenodd" clip-rule="evenodd" d="M100.5 231.5C100.5 233.5 100.5 235.5 100.5 237.5C93.1781 238.038 85.8447 238.371 78.5 238.5C78.5 236.5 78.5 234.5 78.5 232.5C85.8493 232.451 93.1826 232.118 100.5 231.5Z" fill="#CB9439"/>
<path fill-rule="evenodd" clip-rule="evenodd" d="M188.5 230.5C188.5 232.833 188.5 235.167 188.5 237.5C181.788 238.342 175.121 239.509 168.5 241C175.18 240.966 181.847 240.466 188.5 239.5C188.334 249.172 188.5 258.839 189 268.5C189.346 271.576 190.012 274.576 191 277.5C195.555 282.486 200.388 282.819 205.5 278.5C208.529 276.628 210.695 273.961 212 270.5C213.361 258.881 213.861 247.214 213.5 235.5C220.523 234.607 227.523 233.607 234.5 232.5C234.667 244.171 234.5 255.838 234 267.5C232.806 272.947 231.306 278.281 229.5 283.5C227.461 288.378 224.127 292.212 219.5 295C209.163 300.668 198.163 302.668 186.5 301C175.409 296.69 169.243 288.523 168 276.5C167.5 262.171 167.333 247.837 167.5 233.5C174.428 232.092 181.428 231.092 188.5 230.5Z" fill="#CC973A"/>
<path fill-rule="evenodd" clip-rule="evenodd" d="M146.5 233.5C146.5 234.167 146.5 234.833 146.5 235.5C139.575 236.751 132.575 237.417 125.5 237.5C125.5 236.5 125.5 235.5 125.5 234.5C132.51 234.332 139.51 233.999 146.5 233.5Z" fill="#BE6134"/>
<path fill-rule="evenodd" clip-rule="evenodd" d="M234.5 230.5C234.5 231.167 234.5 231.833 234.5 232.5C227.523 233.607 220.523 234.607 213.5 235.5C213.5 234.833 213.5 234.167 213.5 233.5C220.544 232.779 227.544 231.779 234.5 230.5Z" fill="#C06A36"/>
<path fill-rule="evenodd" clip-rule="evenodd" d="M146.5 235.5C146.5 238.167 146.5 240.833 146.5 243.5C139.51 243.999 132.51 244.332 125.5 244.5C125.5 242.167 125.5 239.833 125.5 237.5C132.575 237.417 139.575 236.751 146.5 235.5Z" fill="#CD9639"/>
<path fill-rule="evenodd" clip-rule="evenodd" d="M100.5 237.5C100.5 238.5 100.5 239.5 100.5 240.5C93.1781 241.038 85.8447 241.371 78.5 241.5C78.5 240.5 78.5 239.5 78.5 238.5C85.8447 238.371 93.1781 238.038 100.5 237.5Z" fill="#BC5F34"/>
<path fill-rule="evenodd" clip-rule="evenodd" d="M188.5 237.5C188.5 238.167 188.5 238.833 188.5 239.5C181.847 240.466 175.18 240.966 168.5 241C175.121 239.509 181.788 238.342 188.5 237.5Z" fill="#C06835"/>
<path fill-rule="evenodd" clip-rule="evenodd" d="M100.5 240.5C100.5 242.833 100.5 245.167 100.5 247.5C93.0977 247.948 85.7644 248.615 78.5 249.5C78.5 246.833 78.5 244.167 78.5 241.5C85.8447 241.371 93.1781 241.038 100.5 240.5Z" fill="#CB9539"/>
<path fill-rule="evenodd" clip-rule="evenodd" d="M146.5 243.5C146.5 243.833 146.5 244.167 146.5 244.5C139.564 245.627 132.564 246.294 125.5 246.5C125.5 245.833 125.5 245.167 125.5 244.5C132.51 244.332 139.51 243.999 146.5 243.5Z" fill="#C16B35"/>
<path fill-rule="evenodd" clip-rule="evenodd" d="M146.5 244.5C146.667 256.171 146.5 267.838 146 279.5C145.117 285.036 143.617 290.37 141.5 295.5C141.291 296.922 140.791 298.255 140 299.5C128.61 310.255 115.11 314.088 99.5 311C87.7673 306.067 80.9339 297.234 79 284.5C78.5001 273.172 78.3335 261.838 78.5 250.5C85.8395 250.277 93.1729 249.944 100.5 249.5C100.333 260.505 100.5 271.505 101 282.5C101.36 284.608 102.027 286.608 103 288.5C108.901 294.145 114.401 293.812 119.5 287.5C122.578 284.438 124.244 280.771 124.5 276.5C125.494 266.681 125.827 256.681 125.5 246.5C132.564 246.294 139.564 245.627 146.5 244.5Z" fill="#CD973A"/>
<path fill-rule="evenodd" clip-rule="evenodd" d="M100.5 247.5C100.5 248.167 100.5 248.833 100.5 249.5C93.1729 249.944 85.8395 250.277 78.5 250.5C78.5 250.167 78.5 249.833 78.5 249.5C85.7644 248.615 93.0977 247.948 100.5 247.5Z" fill="#C06935"/>
<path fill-rule="evenodd" clip-rule="evenodd" d="M384.5 272.5C384.56 271.957 384.893 271.624 385.5 271.5C385.92 274.616 386.92 277.283 388.5 279.5C387.791 280.404 386.791 280.737 385.5 280.5C385.806 277.615 385.473 274.948 384.5 272.5Z" fill="#989570"/>
</svg>
