<svg width="200" height="54" viewBox="0 0 200 54" fill="none" xmlns="http://www.w3.org/2000/svg">
<path d="M113.3 18.2C113.3 12.4 113.4 7 113.7 2L98.4 4.9V6.3L99.9 6.5C101 6.6 101.7 7 102.1 7.6C102.5 8.3 102.8 9.3 103 10.8C103.2 13.7 103.4 20.3 103.3 30.7C103.3 41 103.2 47.5 103 50C108.5 51.2 112.8 51.7 116 51.7C122 51.7 126.7 50 130.1 46.5C133.5 43.1 135.3 38.3 135.3 32.4C135.3 27.7 134 23.8 131.4 20.7C128.8 17.6 125.5 16.1 121.6 16.1C119 16.1 116.3 16.8 113.3 18.2V18.2ZM113.6 49C113.4 45.8 113.2 36.2 113.2 20.5C114.1 20.2 115.3 20 116.8 20C119.2 20 121.1 21.2 122.5 23.7C123.9 26.2 124.6 29.2 124.6 33C124.6 37.7 123.8 41.5 122.2 44.7C120.6 47.8 118.6 49.4 116.1 49.4C115.3 49.2 114.5 49.1 113.6 49V49ZM41 3H1V5L3.1 5.2C4.7 5.5 5.8 6.1 6.5 7C7.2 8 7.6 9.6 7.7 11.8C8.5 22.6 8.5 32.7 7.7 42C7.5 44.2 7.1 45.8 6.5 46.8C5.8 47.8 4.7 48.4 3.1 48.6L1 48.9V50.9H26.8V48.9L24.1 48.7C22.5 48.5 21.4 47.8 20.7 46.9C20 45.9 19.6 44.3 19.5 42.1C19.2 38.1 19 33.5 19 28.4L24.4 28.5C27.3 28.6 29.3 30.8 30.3 35.2H32.3V18.9H30.3C29.3 23.2 27.4 25.4 24.4 25.5L19 25.6C19 16.6 19.2 10.2 19.5 6.3H27.4C33 6.3 36.8 9.9 39 17.1L41.4 16.4L41 3ZM36.3 33.8C36.3 39 37.8 43.3 40.7 46.7C43.6 50.1 47.9 51.7 53.3 51.7C58.7 51.7 63.1 50 66.3 46.5C69.5 43.1 71 38.8 71 33.6C71 28.4 69.5 24.1 66.6 20.7C63.7 17.3 59.4 15.7 54 15.7C48.6 15.7 44.2 17.4 41 20.9C37.8 24.3 36.3 28.6 36.3 33.8V33.8ZM58.6 22.4C59.8 25.3 60.3 29.1 60.3 33.7C60.3 44.3 58.1 49.5 53.8 49.5C51.6 49.5 49.9 48 48.7 45C47.5 42 47 38.2 47 33.7C47 23.2 49.2 18 53.5 18C55.7 17.9 57.4 19.4 58.6 22.4V22.4ZM143.1 46.7C146.4 50 150.6 51.7 155.6 51.7C158.7 51.7 161.4 51.1 163.8 49.8C166.2 48.6 168.1 47.1 169.4 45.3L168.4 44.1C166.2 45.8 163.7 46.6 160.8 46.6C156.8 46.6 153.7 45.3 151.6 42.6C149.4 39.9 148.4 36.5 148.6 32.1H170C170 27.3 168.8 23.4 166.3 20.3C163.8 17.3 160.3 15.8 155.8 15.8C150.2 15.8 145.9 17.6 142.8 21.1C139.7 24.6 138.2 28.9 138.2 34C138.2 39.2 139.8 43.4 143.1 46.7V46.7ZM150.5 21.6C151.6 19.2 153 18 154.9 18C157.9 18 159.4 21.8 159.4 29.5L148.8 29.7C148.9 26.7 149.4 24 150.5 21.6ZM196.9 17.6C194.2 16.4 190.8 15.7 186.7 15.7C182.5 15.7 179.2 16.8 176.7 18.9C174.2 21 172.9 23.6 172.9 26.7C172.9 29.4 173.7 31.5 175.2 33C176.7 34.5 179.1 35.8 182.2 36.9C185 37.9 187 38.9 188 39.8C189 40.8 189.6 41.9 189.6 43.4C189.6 44.8 189.1 46.1 188 47.1C187 48.2 185.6 48.7 183.8 48.7C179.4 48.7 176.1 45.5 173.8 39.1L172.1 39.6L172.5 49.6C176.1 51 180.1 51.7 184.5 51.7C189.1 51.7 192.6 50.7 195.2 48.6C197.8 46.6 199.1 43.7 199.1 40.1C199.1 37.7 198.5 35.7 197.2 34.2C195.9 32.7 193.8 31.4 190.8 30.2C187.5 29 185.2 27.9 184 26.9C182.8 25.9 182.2 24.7 182.2 23.2C182.2 21.7 182.6 20.5 183.5 19.5C184.4 18.5 185.5 18.1 186.9 18.1C190.9 18.1 193.8 21 195.6 26.7L197.3 26.2L196.9 17.6ZM100.7 16.7C99.3 16 97.8 15.7 96.1 15.7C94.4 15.7 92.7 16.4 90.8 17.8C88.9 19.2 87.5 21.1 86.4 23.7L86.5 15.7L71.3 18.7V20.1L72.8 20.2C74.7 20.4 75.8 21.9 76 24.6C76.6 30.8 76.6 37.4 76 44.4C75.8 47.1 74.7 48.5 72.8 48.8L71.3 49V50.9H92.5V49L89.8 48.8C87.9 48.6 86.8 47.1 86.6 44.4C86 38.6 85.9 32.4 86.4 26C87 25 88.3 24.4 90.3 24.2C92.3 24 94.6 24.6 97 26L100.7 16.7V16.7Z" fill="black"/>
</svg>
