<svg width="308" height="48" viewBox="0 0 308 48" fill="none" xmlns="http://www.w3.org/2000/svg">
<path fill-rule="evenodd" clip-rule="evenodd" d="M0 1.59404H7.638V46.42H0V1.59404ZM61.883 30.262L30.854 0.903037V46.419H38.198V17.257L69.227 47.112V1.59404H61.883V30.262ZM109.088 21.451L101.819 18.822C98.073 17.51 95.942 16.194 95.942 12.91C95.942 9.26004 99.322 7.50704 103.874 7.50704C109.161 7.50704 113.275 9.47804 117.019 12.326V4.51304C113.422 2.17804 108.795 0.863037 103.727 0.863037C95.428 0.863037 88.525 5.17004 88.525 13.055C88.525 20.428 93.078 23.641 99.1 25.831L105.636 28.168C109.675 29.701 111.952 31.089 111.952 34.592C111.952 38.607 108.353 40.433 103.212 40.433C97.926 40.433 93.004 38.536 88.891 35.249V43.207C92.05 45.398 97.19 47.15 103.212 47.15C112.394 47.15 119.369 42.622 119.369 34.446C119.369 27.949 116.139 24.006 109.088 21.451ZM136.576 1.59404H144.213V46.42H136.576V1.59404ZM185.105 1.59504H167.809V46.42H185.105C198.398 46.42 206.991 37.659 206.991 24.006C206.991 10.355 198.397 1.59504 185.105 1.59504V1.59504ZM184.811 39.632H175.448V8.31104H184.811C194.282 8.31104 199.351 14.37 199.351 24.006C199.351 33.569 194.283 39.632 184.811 39.632ZM224.325 46.42H251.679V39.632H231.815V25.74H249.622V19.096H231.815V8.31004H251.679V1.59404H224.325V46.42ZM291.318 27.949C298.442 26.854 301.801 22.546 301.801 15.026C301.801 6.26604 295.78 1.59404 286.452 1.59404H270.094V46.42H277.731V28.241H283.166L298.864 46.42H307.53L291.318 27.949ZM277.732 21.889V8.16404H286.305C291.372 8.16404 294.237 10.865 294.237 15.026C294.237 19.188 291.372 21.889 286.305 21.889H277.732V21.889Z" fill="#111111"/>
</svg>
