<svg width="102" height="59" viewBox="0 0 102 59" fill="none" xmlns="http://www.w3.org/2000/svg">
<path fill-rule="evenodd" clip-rule="evenodd" d="M24.7173 10.5181C23.1519 2.87604 22.6575 2.62953 19.0323 2.38301V1.06825H35.1809V2.38301C30.8142 2.79387 30.6494 2.79387 32.2973 11.6685L37.5703 39.7716L43.9144 9.53203C45.2326 3.36908 44.7383 2.7117 40.6187 2.46518L39.3005 2.38301V1.06825H50.7528V2.38301C47.2924 2.7117 47.2924 3.53343 45.8918 10.1894L35.5105 59H34.5218L25.706 15.2841L16.3958 59H15.4071L4.86107 7.80641C3.95477 3.28691 3.78998 2.62953 0 2.38301V1.06825H15.6543V2.38301C11.6995 2.79387 11.5347 3.20474 13.1826 11.6685L18.538 39.5251L24.6349 10.5181H24.7173ZM66.5719 58.6713C60.8869 58.6713 57.5089 53.4123 56.1906 53.4123C54.79 53.4123 53.2246 56.4526 52.7302 57.6852H51.5767V38.9499H52.7302C56.273 49.2214 61.7932 57.3565 66.4071 57.3565C69.126 57.3565 70.8562 54.8914 70.8562 51.1936C70.8562 37.6351 51.8239 28.8426 51.8239 12.0794C51.8239 5.25905 56.6026 0 61.7932 0C66.4895 0 69.0436 3.77994 70.609 3.77994C71.433 3.77994 72.0097 3.20474 72.9984 0.739554H73.9047V17.5028H72.7512C70.5267 9.36769 65.9952 1.23259 61.6284 1.23259C58.9095 1.23259 56.9321 3.77994 56.9321 7.39554C56.9321 20.461 75.9645 28.7604 75.9645 46.0989C75.9645 53.3301 71.5977 58.6713 66.5719 58.6713ZM86.3457 58.6713C80.5784 58.6713 78.2714 55.0557 78.2714 51.5223C78.2714 47.9889 80.4136 44.4554 83.5444 44.4554C86.9225 44.4554 88.3231 47.8245 86.7577 50.2897C85.4394 52.344 81.979 52.5905 81.979 54.234C81.979 56.6992 84.0388 57.3565 85.769 57.3565C90.7948 57.3565 90.4653 54.234 90.4653 43.6337V6.08078C90.4653 3.12256 89.8061 2.38301 86.5929 2.38301H85.357V1.06825H102V2.38301H100.599C98.8691 2.38301 98.21 3.12256 98.21 6.16295V42.8941C98.21 53.2479 90.7948 58.6713 86.3457 58.6713Z" fill="#222222"/>
</svg>
