<svg width="626" height="303" viewBox="0 0 626 303" fill="none" xmlns="http://www.w3.org/2000/svg">
<path d="M1.024 113.856V111.04H28.544V113.856H26.88C25.6 113.856 24.4907 114.752 23.552 116.544C22.6133 118.336 22.1867 120.512 22.272 123.072V165.312C22.1867 168.384 22.912 170.176 24.448 170.688H37.376C38.8267 170.176 39.552 168.384 39.552 165.312V123.072C39.552 120.512 39.0827 118.336 38.144 116.544C37.2053 114.752 36.096 113.856 34.816 113.856H33.152V111.04H60.672V113.856H59.008C57.8133 113.856 56.7467 114.709 55.808 116.416C54.8693 118.123 54.4 120.171 54.4 122.56V188.48C54.4 190.955 54.8693 193.045 55.808 194.752C56.7467 196.373 57.8133 197.184 59.008 197.184H60.672V200H33.152V197.184H34.816C36.096 197.184 37.2053 196.288 38.144 194.496C39.0827 192.704 39.552 190.571 39.552 188.096V183.616C39.552 177.472 37.0773 174.4 32.128 174.4H29.568C24.704 174.4 22.272 177.472 22.272 183.616V188.096C22.1867 190.571 22.6133 192.704 23.552 194.496C24.4907 196.288 25.6 197.184 26.88 197.184H28.544V200H1.024V197.184H2.688C3.88267 197.184 4.94933 196.331 5.888 194.624C6.82667 192.832 7.296 190.741 7.296 188.352V132.288C7.21067 120 5.67467 113.856 2.688 113.856H1.024ZM106.181 197.44H107.717V199.872H98.245C95.5143 199.872 93.2103 198.763 91.333 196.544C90.6503 195.691 90.0957 194.795 89.669 193.856C88.0477 196.245 85.9997 198.123 83.525 199.488C81.0503 200.768 78.4903 201.323 75.845 201.152C72.261 200.896 69.317 199.403 67.013 196.672C64.709 193.941 63.301 190.869 62.789 187.456C62.3623 184.043 62.789 180.544 64.069 176.96C65.4343 173.376 67.6103 170.645 70.597 168.768C71.7063 168.171 73.4557 167.317 75.845 166.208C78.2343 165.099 80.325 164.075 82.117 163.136C83.9943 162.197 85.317 161.344 86.085 160.576C88.133 158.443 89.1143 156.224 89.029 153.92C89.029 151.531 88.261 149.525 86.725 147.904C85.2743 146.197 83.7383 145.643 82.117 146.24C80.581 146.923 78.8743 148.331 76.997 150.464C75.205 152.512 73.797 154.432 72.773 156.224L71.109 158.912H68.805L68.165 142.144C68.421 142.059 69.189 141.888 70.469 141.632C71.0663 142.315 71.749 142.699 72.517 142.784C73.285 142.784 74.1383 142.571 75.077 142.144C76.0157 141.717 76.9543 141.248 77.893 140.736C78.917 140.224 80.1117 139.712 81.477 139.2C82.8423 138.603 84.165 138.219 85.445 138.048C88.261 137.621 90.693 137.792 92.741 138.56C94.8743 139.328 96.5383 140.48 97.733 142.016C98.9277 143.467 99.8663 145.344 100.549 147.648C101.232 149.867 101.658 152 101.829 154.048C102 156.011 102.085 158.187 102.085 160.576V191.936C102.341 193.557 102.853 194.88 103.621 195.904C104.389 196.928 105.242 197.44 106.181 197.44ZM80.581 190.016C81.7757 189.76 82.7997 189.333 83.653 188.736C84.5917 188.053 85.317 187.157 85.829 186.048C86.341 184.939 86.7677 183.957 87.109 183.104C87.4503 182.165 87.6637 180.843 87.749 179.136C87.8343 177.429 87.877 176.192 87.877 175.424C87.9623 174.571 87.9623 173.205 87.877 171.328C87.877 169.365 87.877 168.128 87.877 167.616C87.7063 168.469 86.6397 169.451 84.677 170.56C82.7997 171.584 80.837 172.779 78.789 174.144C76.741 175.424 75.4183 176.747 74.821 178.112C73.285 181.44 73.285 184.384 74.821 186.944C76.4423 189.504 78.3623 190.528 80.581 190.016ZM129.841 191.68C132.316 191.595 134.065 190.485 135.089 188.352C136.113 186.219 136.668 182.763 136.753 177.984V153.024C136.753 150.72 136.326 148.8 135.473 147.264C134.705 145.643 133.724 144.832 132.529 144.832H131.121V142.4L150.065 139.2V189.376C150.065 191.68 150.449 193.643 151.217 195.264C152.07 196.8 153.052 197.568 154.161 197.568H155.697V200C150.833 200.085 147.676 200.085 146.225 200C145.713 200 145.201 199.957 144.689 199.872C144.262 199.701 143.878 199.573 143.537 199.488C143.196 199.403 142.854 199.232 142.513 198.976C142.172 198.635 141.873 198.379 141.617 198.208C141.361 198.037 141.062 197.739 140.721 197.312C140.465 196.885 140.252 196.587 140.081 196.416C139.996 196.245 139.782 195.904 139.441 195.392C139.185 194.88 139.014 194.581 138.929 194.496C138.929 194.325 138.758 193.941 138.417 193.344C138.161 192.747 138.033 192.405 138.033 192.32C135.558 198.123 132.145 201.067 127.793 201.152C116.785 201.493 111.153 192.619 110.897 174.528V153.024C110.897 150.72 110.47 148.8 109.617 147.264C108.849 145.643 107.91 144.832 106.801 144.832H105.265V142.4L124.209 139.2V174.528C123.782 186.133 125.66 191.851 129.841 191.68ZM176.596 146.496C179.327 141.888 181.929 139.243 184.404 138.56C186.793 138.048 188.884 137.877 190.676 138.048C192.553 138.133 194.132 138.816 195.412 140.096C196.777 141.376 197.887 142.827 198.74 144.448C199.679 145.984 200.404 147.947 200.916 150.336C201.428 152.64 201.769 154.944 201.94 157.248C202.196 159.467 202.367 161.941 202.452 164.672V189.504C202.452 191.723 202.836 193.643 203.604 195.264C204.457 196.8 205.439 197.568 206.548 197.568H208.084V200H183.508V197.568H184.916C186.111 197.568 187.092 196.8 187.86 195.264C188.713 193.643 189.14 191.723 189.14 189.504V164.544C189.225 159.168 188.799 155.115 187.86 152.384C186.921 149.568 185.471 148.373 183.508 148.8C179.071 149.653 176.767 154.944 176.596 164.672V189.504C176.596 191.723 176.98 193.643 177.748 195.264C178.601 196.8 179.583 197.568 180.692 197.568H182.228V200H157.652V197.568H159.188C160.297 197.568 161.236 196.8 162.004 195.264C162.857 193.643 163.284 191.723 163.284 189.504V153.152C163.284 150.933 162.857 149.013 162.004 147.392C161.236 145.685 160.297 144.832 159.188 144.832H157.652V142.4L176.596 139.2V146.496ZM224.578 110.784V133.952C224.578 137.195 225.773 138.816 228.162 138.816V138.944H235.842V142.144H229.826C228.546 142.144 227.351 142.869 226.242 144.32C225.133 145.771 224.578 147.776 224.578 150.336V180.16C224.578 182.72 224.578 184.939 224.578 186.816C224.663 188.608 224.834 190.357 225.09 192.064C225.346 193.771 225.73 195.008 226.242 195.776C226.839 196.544 227.565 196.757 228.418 196.416C229.698 195.904 230.637 194.197 231.234 191.296C231.917 188.309 232.258 185.493 232.258 182.848V178.88L234.69 178.368L240.066 193.984C239.639 194.496 238.957 195.179 238.018 196.032C237.165 196.8 235.501 197.867 233.026 199.232C230.637 200.512 228.375 201.152 226.242 201.152C221.122 201.237 217.325 199.317 214.85 195.392C212.461 191.467 211.266 186.389 211.266 180.16V142.144H206.018V138.944H207.81L207.682 138.816C209.986 138.816 211.181 137.365 211.266 134.464V123.968C211.266 123.627 211.223 123.328 211.138 123.072C211.138 122.731 211.053 122.475 210.882 122.304C210.797 122.048 210.669 121.835 210.498 121.664C210.327 121.493 210.114 121.365 209.858 121.28C209.602 121.109 209.389 120.981 209.218 120.896C209.133 120.811 208.919 120.768 208.578 120.768C208.237 120.683 207.981 120.64 207.81 120.64C207.725 120.555 207.511 120.512 207.17 120.512C206.914 120.512 206.786 120.512 206.786 120.512V118.464L224.578 110.784ZM274.986 176.576L276.906 176.192L279.338 190.912C279.253 191.168 279.125 191.552 278.954 192.064C278.783 192.491 278.229 193.301 277.29 194.496C276.437 195.605 275.413 196.629 274.218 197.568C273.023 198.421 271.317 199.232 269.098 200C266.965 200.768 264.575 201.152 261.93 201.152C257.919 201.237 254.335 200.128 251.178 197.824C248.021 195.435 245.631 192.405 244.01 188.736C242.474 184.981 241.365 180.843 240.682 176.32C239.999 171.712 240.042 167.147 240.81 162.624C241.663 158.101 242.901 153.963 244.522 150.208C246.143 146.453 248.49 143.424 251.562 141.12C254.719 138.816 258.261 137.707 262.186 137.792C268.159 137.792 272.682 140.565 275.754 146.112C278.826 151.659 280.319 158.997 280.234 168.128L253.866 173.248C254.037 178.709 254.805 183.232 256.17 186.816C257.621 190.315 259.669 192.277 262.314 192.704C263.765 192.875 265.13 192.491 266.41 191.552C267.69 190.613 268.842 189.291 269.866 187.584C270.975 185.792 271.914 184.043 272.682 182.336C273.45 180.629 274.218 178.709 274.986 176.576ZM261.418 143.936C259.541 144.021 257.919 146.197 256.554 150.464C255.189 154.731 254.335 159.723 253.994 165.44L267.818 162.752C267.562 158.4 267.05 154.773 266.282 151.872C265.599 148.885 264.831 146.837 263.978 145.728C263.21 144.533 262.357 143.936 261.418 143.936ZM331.524 197.44H333.06V199.872H323.588C321.028 199.872 318.809 198.763 316.932 196.544C316.42 195.947 315.908 195.051 315.396 193.856C314.287 195.648 313.391 196.928 312.708 197.696C312.111 198.379 310.959 199.104 309.252 199.872C307.631 200.64 305.54 201.067 302.98 201.152C297.945 201.408 293.593 198.635 289.924 192.832C286.34 186.944 284.591 179.179 284.676 169.536C284.761 157.931 287.065 149.312 291.588 143.68C296.111 138.048 301.487 136.384 307.716 138.688C310.447 139.627 312.58 141.76 314.116 145.088V124.736C314.116 122.517 313.689 120.64 312.836 119.104C312.068 117.483 311.087 116.672 309.892 116.672H308.484V114.24L327.428 110.912V189.504C327.343 191.723 327.727 193.6 328.58 195.136C329.433 196.672 330.415 197.44 331.524 197.44ZM314.116 175.168V166.08C313.945 160.363 313.391 156.053 312.452 153.152C311.599 150.165 310.276 148.288 308.484 147.52C305.753 146.496 303.535 148.203 301.828 152.64C300.207 157.077 299.353 163.179 299.268 170.944C299.183 176.32 299.823 181.227 301.188 185.664C302.639 190.101 304.601 192.448 307.076 192.704C309.124 192.875 310.745 191.467 311.94 188.48C313.135 185.408 313.86 180.971 314.116 175.168ZM353.899 113.856V111.04H381.419V113.856H379.755C378.475 113.856 377.366 114.752 376.427 116.544C375.488 118.336 375.062 120.512 375.147 123.072V165.312C375.062 168.384 375.787 170.176 377.323 170.688H390.251C391.702 170.176 392.427 168.384 392.427 165.312V123.072C392.427 120.512 391.958 118.336 391.019 116.544C390.08 114.752 388.971 113.856 387.691 113.856H386.027V111.04H413.547V113.856H411.883C410.688 113.856 409.622 114.709 408.683 116.416C407.744 118.123 407.275 120.171 407.275 122.56V188.48C407.275 190.955 407.744 193.045 408.683 194.752C409.622 196.373 410.688 197.184 411.883 197.184H413.547V200H386.027V197.184H387.691C388.971 197.184 390.08 196.288 391.019 194.496C391.958 192.704 392.427 190.571 392.427 188.096V183.616C392.427 177.472 389.952 174.4 385.003 174.4H382.443C377.579 174.4 375.147 177.472 375.147 183.616V188.096C375.062 190.571 375.488 192.704 376.427 194.496C377.366 196.288 378.475 197.184 379.755 197.184H381.419V200H353.899V197.184H355.563C356.758 197.184 357.824 196.331 358.763 194.624C359.702 192.832 360.171 190.741 360.171 188.352V132.288C360.086 120 358.55 113.856 355.563 113.856H353.899ZM420.811 147.008C424.907 140.779 429.814 137.664 435.531 137.664C441.248 137.664 446.112 140.779 450.123 147.008C454.219 153.152 456.267 160.619 456.267 169.408C456.267 178.197 454.219 185.707 450.123 191.936C446.112 198.08 441.248 201.152 435.531 201.152C429.814 201.152 424.907 198.08 420.811 191.936C416.8 185.707 414.795 178.197 414.795 169.408C414.795 160.619 416.8 153.152 420.811 147.008ZM430.411 188.864C431.862 194.155 433.568 196.8 435.531 196.8C437.579 196.8 439.286 194.155 440.651 188.864C442.102 183.488 442.827 177.045 442.827 169.536C442.827 161.941 442.102 155.456 440.651 150.08C439.286 144.704 437.579 142.016 435.531 142.016C433.568 142.016 431.862 144.704 430.411 150.08C428.96 155.456 428.235 161.941 428.235 169.536C428.235 177.045 428.96 183.488 430.411 188.864ZM482.216 191.68C484.691 191.595 486.44 190.485 487.464 188.352C488.488 186.219 489.043 182.763 489.128 177.984V153.024C489.128 150.72 488.701 148.8 487.848 147.264C487.08 145.643 486.099 144.832 484.904 144.832H483.496V142.4L502.44 139.2V189.376C502.44 191.68 502.824 193.643 503.592 195.264C504.445 196.8 505.427 197.568 506.536 197.568H508.072V200C503.208 200.085 500.051 200.085 498.6 200C498.088 200 497.576 199.957 497.064 199.872C496.637 199.701 496.253 199.573 495.912 199.488C495.571 199.403 495.229 199.232 494.888 198.976C494.547 198.635 494.248 198.379 493.992 198.208C493.736 198.037 493.437 197.739 493.096 197.312C492.84 196.885 492.627 196.587 492.456 196.416C492.371 196.245 492.157 195.904 491.816 195.392C491.56 194.88 491.389 194.581 491.304 194.496C491.304 194.325 491.133 193.941 490.792 193.344C490.536 192.747 490.408 192.405 490.408 192.32C487.933 198.123 484.52 201.067 480.168 201.152C469.16 201.493 463.528 192.619 463.272 174.528V153.024C463.272 150.72 462.845 148.8 461.992 147.264C461.224 145.643 460.285 144.832 459.176 144.832H457.64V142.4L476.584 139.2V174.528C476.157 186.133 478.035 191.851 482.216 191.68ZM539.467 157.76C539.467 156.565 538.998 155.157 538.059 153.536C537.12 151.915 535.926 150.464 534.475 149.184C533.024 147.819 531.446 146.624 529.739 145.6C528.118 144.576 526.624 144.064 525.259 144.064C523.894 143.979 522.784 144.405 521.931 145.344C521.334 146.624 521.035 148.032 521.035 149.568C521.12 151.019 521.931 152.768 523.467 154.816C525.088 156.864 527.35 158.784 530.251 160.576C535.286 163.819 538.912 166.507 541.131 168.64C543.35 170.773 544.886 173.035 545.739 175.424C546.848 179.349 547.019 182.933 546.251 186.176C545.568 189.333 544.203 192.064 542.155 194.368C540.192 196.587 537.718 198.293 534.731 199.488C531.83 200.683 528.672 201.237 525.259 201.152C519.115 201.067 514.08 199.36 510.155 196.032L518.475 177.344L520.139 178.112C519.883 185.536 522.358 190.443 527.563 192.832C531.062 194.453 534.134 194.411 536.779 192.704C538.059 191.936 538.784 190.955 538.955 189.76C539.126 188.48 539.083 187.456 538.827 186.688C538.656 185.835 538.059 184.981 537.035 184.128C536.011 183.189 534.987 182.421 533.963 181.824C533.024 181.227 531.318 180.245 528.843 178.88C526.454 177.429 524.235 176.021 522.187 174.656C518.262 172.096 515.488 168.811 513.867 164.8C512.246 160.704 511.819 156.736 512.587 152.896C513.355 148.971 515.019 145.643 517.579 142.912C519.371 140.949 521.419 139.541 523.723 138.688C526.112 137.835 528.416 137.536 530.635 137.792C532.427 138.048 534.219 138.603 536.011 139.456C537.888 140.309 539.382 141.035 540.491 141.632C541.6 142.144 542.368 142.272 542.795 142.016L544.587 142.528L541.131 158.272L539.467 157.76ZM585.236 176.576L587.156 176.192L589.588 190.912C589.503 191.168 589.375 191.552 589.204 192.064C589.033 192.491 588.479 193.301 587.54 194.496C586.687 195.605 585.663 196.629 584.468 197.568C583.273 198.421 581.567 199.232 579.348 200C577.215 200.768 574.825 201.152 572.18 201.152C568.169 201.237 564.585 200.128 561.428 197.824C558.271 195.435 555.881 192.405 554.26 188.736C552.724 184.981 551.615 180.843 550.932 176.32C550.249 171.712 550.292 167.147 551.06 162.624C551.913 158.101 553.151 153.963 554.772 150.208C556.393 146.453 558.74 143.424 561.812 141.12C564.969 138.816 568.511 137.707 572.436 137.792C578.409 137.792 582.932 140.565 586.004 146.112C589.076 151.659 590.569 158.997 590.484 168.128L564.116 173.248C564.287 178.709 565.055 183.232 566.42 186.816C567.871 190.315 569.919 192.277 572.564 192.704C574.015 192.875 575.38 192.491 576.66 191.552C577.94 190.613 579.092 189.291 580.116 187.584C581.225 185.792 582.164 184.043 582.932 182.336C583.7 180.629 584.468 178.709 585.236 176.576ZM571.668 143.936C569.791 144.021 568.169 146.197 566.804 150.464C565.439 154.731 564.585 159.723 564.244 165.44L578.068 162.752C577.812 158.4 577.3 154.773 576.532 151.872C575.849 148.885 575.081 146.837 574.228 145.728C573.46 144.533 572.607 143.936 571.668 143.936Z" fill="#CC5600"/>
</svg>
