<svg xmlns="http://www.w3.org/2000/svg" viewBox="0 0 2000 800"><path d="M1208.3 274.2c-51 1.5-91 44.7-91 95.8v116.6c0 2.8 2.2 5 5 5h28.3c2.8 0 5-2.2 5-5v-117c0-30 22.9-55.7 52.8-57.1 30.7-1.5 56.8 22.1 58.3 52.8 0 .9.1 1.8.1 2.8v118.6c0 2.8 2.2 5 5 5h28.3c2.8 0 5-2.2 5-5V368c-.1-51.9-42.2-93.9-94.1-93.9-1 0-1.9 0-2.7.1zm238.5 1c-59.9-2.7-110.6 43.7-113.3 103.6-2.7 59.9 43.7 110.6 103.6 113.3 27.5 1.2 54.4-8 75.3-25.8v20.2c0 2.8 2.2 5 5 5h28.3c2.8 0 5-2.2 5-5V385.9c-.1-58.5-45.5-108.2-103.9-110.7zm-4.7 178.8c-38.8 0-70.3-31.5-70.4-70.3 0-38.8 31.5-70.3 70.3-70.4 38.8 0 70.3 31.5 70.4 70.3-.1 38.9-31.5 70.3-70.3 70.4zm254-178.8c-59.9-2.7-110.6 43.7-113.3 103.6-2.7 59.9 43.7 110.6 103.6 113.3 27.5 1.2 54.4-8 75.3-25.8v42.9c0 39.4-32.3 72.9-71.7 72.2-22.3-.4-43.1-11.4-56-29.6-1.5-2.1-4.4-2.7-6.6-1.3l-24 14.9c-2.4 1.5-3.1 4.6-1.6 6.9 0 .1.1.1.1.2 19.7 29 52.3 46.5 87.4 47.1 60.9 1.2 110.7-49.9 110.7-110.7V386c-.1-58.6-45.5-108.3-103.9-110.8zm-4.7 178.8c-38.8 0-70.3-31.5-70.3-70.3s31.5-70.3 70.3-70.3 70.3 31.5 70.3 70.3-31.5 70.2-70.3 70.3zM784.9 275.2C725 272.6 674.3 319 671.6 378.8s43.7 110.6 103.6 113.3c27.5 1.2 54.3-8 75.3-25.8v42.9c0 39.4-32.3 73-71.7 72.2-22.3-.4-43.1-11.4-56-29.6-1.5-2.1-4.4-2.7-6.6-1.3l-24 14.9c-2.4 1.5-3.1 4.6-1.6 6.9 0 .1.1.1.1.2 19.7 28.9 52.2 46.5 87.2 47.1 60.9 1.2 110.7-49.9 110.7-110.7V386c.1-58.6-45.2-108.3-103.7-110.8zM780.2 454c-38.8 0-70.3-31.5-70.3-70.3s31.5-70.3 70.3-70.3 70.3 31.5 70.3 70.3-31.5 70.2-70.3 70.3zm-149-177.4l-28.3.4c-2.7 0-4.9 2.2-4.9 4.9v112.8c0 30.7-25 55.6-55.7 55.6-.9 0-1.8 0-2.7-.1-29.9-1.5-52.8-27.2-52.8-57.1v-111c0-2.8-2.2-5-5-5h-28.3c-2.8 0-5 2.2-5 5v110.7c0 51 40 94.3 91 95.8 51.9 1.5 95.1-39.4 96.6-91.3V281.6c.1-2.8-2.1-5-4.9-5zm379.1 88.8c-27.7-7.7-44.5-13.4-44.5-28.4 0-21.7 23.7-29.6 39.7-29.6 18.2 0 29.2 4.2 43.5 13 2.3 1.4 5.3.7 6.8-1.6l13.1-20.4c1.5-2.3.8-5.4-1.5-6.9-.1 0-.1-.1-.2-.1-19-11.5-40.8-17.5-63.1-17.5-36 0-73.1 23.7-73.1 63.4 0 40.5 36 50.2 67.7 58.8 30 8.1 48.2 14.4 48.2 33.3 0 17.4-17.8 30.5-41.5 30.5-22.8 0-41.4-10.3-54-20-2.1-1.7-5.2-1.3-6.9.8l-15.6 19c-1.7 2.1-1.4 5.3.7 7 20.5 17.2 47.8 26.6 77.4 26.6 43.1 0 74.4-27.4 74.4-65.1.2-42.9-39.4-53.9-71.1-62.8zm-689-89.6c-30-3.5-60.1 5.6-83 25.2V185.3c0-2.8-2.2-5-5-5-.9 0-1.8.3-2.6.7l-28.3 17.2c-1.5.9-2.4 2.5-2.4 4.3v178.9c0 58.5 45.4 108.2 103.8 110.7 59.9 2.5 110.5-44 113.1-103.9 2.4-56.7-39.3-105.6-95.6-112.4zM308.6 454c-38.8 0-70.3-31.5-70.3-70.3s31.5-70.3 70.3-70.3 70.3 31.5 70.3 70.3c-.1 38.8-31.5 70.2-70.3 70.3z" fill="#000d47"/></svg>