<svg width="217" height="46" fill="none" xmlns="http://www.w3.org/2000/svg"><path fill="none" d="M0 0h216.024v45.901H0z"/><path d="M31.505 26.6c-1.7 0-3.2-1.4-3.2-3.1v-8.3c0-1.7 1.4-3.2 3.2-3.2 1.8 0 3.2 1.4 3.2 3.2v8.3c0 1.6-1.4 3.1-3.2 3.1zM3.105 10.3c1.7 0 3.2 1.4 3.2 3.2v8.3c.1 1.7-1.2 3.2-3 3.3-1.7.1-3.2-1.2-3.3-3v-8.6c-.1-1.8 1.3-3.2 3.1-3.2zM12.605 31c1.7 0 3.1-1.4 3.1-3.1V3.7c0-1.7-1.4-3.1-3.2-3.1-1.7 0-3.1 1.4-3.1 3.1v24.2c0 1.7 1.5 3.1 3.2 3.1zM22.105 5.9c-1.7 0-3.1 1.4-3.1 3.1v24.2c0 1.7 1.4 3.1 3.1 3.1 1.7 0 3.2-1.4 3.2-3.1V9c0-1.7-1.5-3.1-3.2-3.1zM82.405 10.5h3.1c.8 0 1.4.6 1.4 1.4v22.6c0 .8-.6 1.4-1.4 1.4h-3.1c-.8 0-1.4-.6-1.4-1.4V11.9c0-.8.6-1.4 1.4-1.4zM59.605 0h-10.8c-.8 0-1.4.6-1.4 1.4v33.1c0 .8.6 1.4 1.4 1.4h10.8c9.9 0 18-8.1 18-18s-8.1-18-18-17.9zm0 29.7h-5.9V6.3h5.9c6.5 0 11.7 5.2 11.7 11.7 0 6.5-5.2 11.7-11.7 11.7zM115.505 10.5h-3.4c-1 0-1.8.8-1.8 1.8v.6c-2.2-1.6-4.8-2.5-7.5-2.5-7.2 0-13 5.8-13 13s5.8 13 13 13c2.7 0 5.3-.9 7.5-2.5v1.3c0 .4.3.7.7.7h4.5c.4 0 .7-.3.7-.7V11.1c.1-.3-.3-.6-.7-.6zm-12.3 20.2c-4 0-7.3-3.3-7.3-7.3s3.3-7.3 7.3-7.3 7.3 3.3 7.3 7.3-3.3 7.3-7.3 7.3zM83.905 7.6a3.6 3.6 0 1 0 0-7.199 3.6 3.6 0 0 0 0 7.2zM215.405.4h-3.5c-1 0-1.8.8-1.8 1.8v10.7c-2.2-1.6-4.8-2.5-7.5-2.5-7.2 0-13 5.8-13 13s5.8 13 13 13c2.7 0 5.3-.9 7.5-2.5v1.3c0 .4.3.7.7.7h4.5c.4 0 .7-.3.7-.7V1.1c.1-.4-.2-.7-.6-.7zm-12.4 30.3c-4 0-7.3-3.3-7.3-7.3s3.3-7.3 7.3-7.3 7.3 3.3 7.3 7.3-3.3 7.3-7.3 7.3zM186.205 10.5h-3.5c-1 0-1.8.8-1.8 1.8v.6c-2.2-1.6-4.8-2.5-7.5-2.5-7.2 0-13 5.8-13 13s5.8 13 13 13c2.7 0 5.3-.9 7.5-2.5v1.3c0 .4.3.7.7.7h4.5c.4 0 .7-.3.7-.7V11.1c.1-.3-.2-.6-.6-.6zm-12.4 20.2c-4 0-7.3-3.3-7.3-7.3s3.3-7.3 7.3-7.3 7.3 3.3 7.3 7.3-3.2 7.3-7.3 7.3zM126.105.4h-3.5c-1 0-1.8.8-1.8 1.8v33c0 .4.3.7.7.7h4.5c.4 0 .7-.3.7-.7V1.1c.1-.4-.2-.7-.6-.7zM145.205 10.4c-2.7 0-5.3.9-7.5 2.5v-.7c0-1-.8-1.8-1.8-1.8h-3.4c-.4 0-.7.3-.7.7v34.1c0 .4.3.7.7.7h3.4c1 0 1.8-.8 1.8-1.8V33.8c2.2 1.6 4.8 2.5 7.5 2.5 7.2 0 13-5.8 13-13s-5.8-12.9-13-12.9zm-.4 20.3c-4 0-7.3-3.3-7.3-7.3s3.3-7.3 7.3-7.3 7.3 3.3 7.3 7.3-3.3 7.3-7.3 7.3z" fill="#203476"/></svg>