<svg height="60" viewBox="0 0 14.397 7.2" width="120" xmlns="http://www.w3.org/2000/svg"><g stroke-width=".019"><path d="M2.156 6.46a.954.954 0 0 0 .954-.953v-.954h-.954a.954.954 0 0 0 0 1.907z" fill="#0acf83"/><path d="M1.203 3.6c0-.526.427-.953.953-.953h.954v1.906h-.954a.954.954 0 0 1-.953-.953z" fill="#a259ff"/><path d="M1.203 1.693c0-.526.427-.953.953-.953h.954v1.907h-.954a.954.954 0 0 1-.953-.954z" fill="#f24e1e"/><path d="M3.11.74h.953a.954.954 0 0 1 0 1.907H3.11z" fill="#ff7262"/><path d="M5.016 3.6a.954.954 0 1 1-1.907 0 .954.954 0 0 1 1.907 0z" fill="#1abcfe"/></g><path d="M6.058 2.32v1.998h.257v-.954h.618v-.248h-.618v-.545h.803v-.25zm1.525.406a.168.168 0 1 0-.168-.168.168.168 0 0 0 .168.168zm-.131.252v1.341h.257V2.977h-.255zm1.213-.04c-.342 0-.58.289-.58.632 0 .342.24.63.58.63a.51.51 0 0 0 .379-.159v.179a.404.404 0 0 1-.402.407.412.412 0 0 1-.229-.076l-.129.223a.66.66 0 0 0 1.017-.557v-1.24h-.257v.12a.51.51 0 0 0-.38-.159zm-.322.632a.352.352 0 1 1 .7 0 .352.352 0 1 1-.7 0zm1.885-.38a.279.279 0 0 0-.279.278v.848h-.257V2.977h.257V3.1a.406.406 0 0 1 .332-.162.447.447 0 0 1 .398.227.493.493 0 0 1 .41-.227c.292 0 .474.236.476.529v.852h-.257v-.848a.279.279 0 1 0-.55 0v.848H10.5v-.848a.279.279 0 0 0-.279-.278zm2.709-.06a.621.621 0 0 0-.453-.192c-.383 0-.65.324-.65.71s.27.71.65.71a.621.621 0 0 0 .453-.192v.152h.257v-1.34h-.257zm-.85.519a.426.426 0 1 1 .85 0 .426.426 0 1 1-.85 0z" stroke-width=".083"/></svg>