<svg width="360" height="150" xmlns="http://www.w3.org/2000/svg" xmlns:xlink="http://www.w3.org/1999/xlink"><g style="mix-blend-mode:normal"><use xlink:href="#path0_fill" transform="translate(285.7 31.6)" fill="#6772E5" style="mix-blend-mode:normal"/><use xlink:href="#path1_fill" transform="translate(204.2 31.6)" fill="#6772E5" style="mix-blend-mode:normal"/><use xlink:href="#path2_fill" transform="translate(169.8)" fill="#6772E5" style="mix-blend-mode:normal"/><use xlink:href="#path3_fill" transform="translate(169.8 33.3)" fill="#6772E5" style="mix-blend-mode:normal"/><use xlink:href="#path4_fill" transform="translate(119.7 32.266)" fill="#6772E5" style="mix-blend-mode:normal"/><use xlink:href="#path5_fill" transform="translate(68.4 11.6)" fill="#6772E5" style="mix-blend-mode:normal"/><use xlink:href="#path6_fill" transform="translate(0 31.6)" fill="#6772E5" style="mix-blend-mode:normal"/></g><defs><path id="path0_fill" fill-rule="evenodd" d="M74.3 45.8C74.3 20.2 61.9 0 38.2 0 14.4 0 0 20.2 0 45.6c0 30.1 17 45.3 41.4 45.3 11.9 0 20.9-2.7 27.7-6.5v-20c-6.8 3.4-14.6 5.5-24.5 5.5-9.7 0-18.3-3.4-19.4-15.2h48.9c0-1.3.2-6.5.2-8.9zm-49.4-9.5c0-11.3 6.9-16 13.2-16 6.1 0 12.6 4.7 12.6 16H24.9z"/><path id="path1_fill" fill-rule="evenodd" d="M42.9 0c-9.8 0-16.1 4.6-19.6 7.8L22 1.6H0v116.6l25-5.3.1-28.3c3.6 2.6 8.9 6.3 17.7 6.3C60.7 90.9 77 76.5 77 44.8 76.9 15.8 60.4 0 42.9 0zm-6 68.9c-5.9 0-9.4-2.1-11.8-4.7L25 27.1c2.6-2.9 6.2-4.9 11.9-4.9 9.1 0 15.4 10.2 15.4 23.3 0 13.4-6.2 23.4-15.4 23.4z"/><path id="path2_fill" fill-rule="evenodd" d="M0 25.7l25.1-5.4V0L0 5.3v20.4z"/><path id="path3_fill" d="M25.1 0H0v87.5h25.1V0z"/><path id="path4_fill" fill-rule="evenodd" d="M23.2 8.434l-1.6-7.4H0v87.5h25v-59.3c5.9-7.7 15.9-6.3 19-5.2v-23c-3.2-1.2-14.9-3.4-20.8 7.4z"/><path id="path5_fill" fill-rule="evenodd" d="M24.5 0L.1 5.2 0 85.3C0 100.1 11.1 111 25.9 111c8.2 0 14.2-1.5 17.5-3.3V87.4c-3.2 1.3-19 5.9-19-8.9V43h19V21.7h-19L24.5 0z"/><path id="path6_fill" fill-rule="evenodd" d="M25.3 27.1c0-3.9 3.2-5.4 8.5-5.4 7.6 0 17.2 2.3 24.8 6.4V4.6C50.3 1.3 42.1 0 33.8 0 13.5 0 0 10.6 0 28.3c0 27.6 38 23.2 38 35.1 0 4.6-4 6.1-9.6 6.1-8.3 0-18.9-3.4-27.3-8v23.8c9.3 4 18.7 5.7 27.3 5.7 20.8 0 35.1-10.3 35.1-28.2-.1-29.8-38.2-24.5-38.2-35.7z"/></defs></svg>