<svg width="64" height="64" viewBox="0 0 64 64" fill="none" xmlns="http://www.w3.org/2000/svg">
<path d="M62.5 32C62.5 39.3388 62.331 44.8938 61.6443 49.1353C60.9591 53.3673 59.7873 56.0914 57.9393 57.9393C56.0914 59.7873 53.3673 60.9591 49.1353 61.6443C44.8938 62.331 39.3388 62.5 32 62.5C24.6612 62.5 19.1062 62.331 14.8647 61.6443C10.6327 60.9591 7.90865 59.7873 6.06066 57.9393C4.21267 56.0914 3.0409 53.3673 2.35572 49.1353C1.66901 44.8938 1.5 39.3388 1.5 32C1.5 24.6612 1.66901 19.1062 2.35572 14.8647C3.0409 10.6327 4.21267 7.90865 6.06066 6.06066C7.90865 4.21267 10.6327 3.0409 14.8647 2.35572C19.1062 1.66901 24.6612 1.5 32 1.5C39.3388 1.5 44.8938 1.66901 49.1353 2.35572C53.3673 3.0409 56.0914 4.21267 57.9393 6.06066C59.7873 7.90865 60.9591 10.6327 61.6443 14.8647C62.331 19.1062 62.5 24.6612 62.5 32Z" fill="#17171D" stroke="#8492A6" stroke-width="3"/>
<path fill-rule="evenodd" clip-rule="evenodd" d="M36.9875 32.3894C38.4527 31.0109 38.9301 28.782 38.9301 25.5714C38.9301 20.8376 35.1989 17 30.5964 17C25.9938 17 22.2627 20.8376 22.2627 25.5714C22.2627 28.782 22.74 31.0109 24.2052 32.3894C21.4967 33.9137 19.3588 36.3767 18.2054 39.3531C17.9343 40.0527 17.8489 40.9616 18.4735 41.3549C19.7935 42.1863 21.1943 40.5711 21.9822 39.2007C23.7228 36.1733 26.929 34.1429 30.5964 34.1429C30.7711 34.1429 30.9447 34.1475 31.1172 34.1566C33.003 34.256 35.0718 34.0619 36.5172 32.8123C36.6787 32.6728 36.8365 32.5316 36.9875 32.3894ZM35.5966 25.5714C35.5966 28.4559 35.1444 29.4133 34.8139 29.7816C34.5427 30.0836 33.6811 30.7143 30.5964 30.7143C27.5117 30.7143 26.6499 30.0836 26.3789 29.7816C26.0484 29.4133 25.5962 28.4559 25.5962 25.5714C25.5962 22.7311 27.8348 20.4286 30.5964 20.4286C33.3579 20.4286 35.5966 22.7311 35.5966 25.5714ZM38.9301 37.3657C41.0943 35.1714 43.2586 35.72 44.3406 36.8171C48.6691 41.2057 40.2575 47 38.9301 47C37.6025 47 29.1909 41.2057 33.5194 36.8171C34.6016 35.72 36.7658 35.1714 38.9301 37.3657Z" fill="white"/>
</svg>
