<svg xmlns="http://www.w3.org/2000/svg" width="200" height="53" fill="none" viewBox="0 0 200 53"><path stroke="#000" stroke-linecap="round" stroke-width="3" d="M1.67773 13.6281C10.2959 18.1639 16.9038 25.0627 24.8551 30.5819C35.0596 37.665 46.8025 42.0558 58.6554 45.4969C84.7365 53.0688 116.698 54.3311 141.278 41.7413C159.831 32.2389 177.68 13.4214 197.612 7.72643C200.605 6.87139 190.484 2.79867 189.457 2.46861C185.044 1.05016 179.242 2.0394 174.649 2.0394C167.022 2.0394 160.354 -0.452366 168.211 7.40453C176.762 15.9554 183.119 26.0534 190.959 34.874C197.899 42.6813 194.822 26.9622 194.822 21.3538C194.822 15.5595 194.822 9.76518 194.822 3.97085"/></svg>