<svg xmlns="http://www.w3.org/2000/svg" width="199" height="11" fill="none" viewBox="0 0 199 11"><path stroke="#fff" stroke-linecap="round" stroke-width="3" d="M4.91237 6.5969C4.91237 8.47854 2.72016 8.47621 2.07891 6.83302C1.36636 5.00711 3.28587 1.25278 5.46333 3.21249C7.19711 4.77289 2.69571 3.89383 4.91237 3.76344C6.89582 3.64676 7.42028 5.88853 4.91237 5.88853"/><path stroke="#fff" stroke-linecap="round" stroke-width="3" d="M20.3883 5.12509C20.2172 5.12509 20.3371 7.34741 17.7123 7.25019C12.7207 7.06532 20.2309 2.0624 20.2309 4.06255C20.2309 4.68126 16.326 3.70837 20.3883 3.70837C22.4736 3.70837 19.68 5.44704 19.68 3"/><path stroke="#fff" stroke-linecap="round" stroke-width="3" d="M35.6903 4.80359C35.6903 6.62578 34.8151 9.05657 32.3059 8.188C28.6805 6.93307 33.4542 1.74896 36.3199 2.00948C37.8207 2.14592 39.8906 5.12017 37.776 5.4726C36.1842 5.7379 34.8457 4.09522 37.107 4.09522"/><path stroke="#fff" stroke-linecap="round" stroke-width="3" d="M56 6H80.0844"/><path stroke="#fff" stroke-linecap="round" stroke-width="3" d="M90 6H110"/><path stroke="#fff" stroke-linecap="round" stroke-width="3" d="M121 6H145.084"/><path stroke="#fff" stroke-linecap="round" stroke-width="3" d="M180.655 8.60957C177.817 11.1329 176.207 4.05727 180.931 5.1071C182.811 5.52491 179.809 7.99404 179.239 8.21603C177.745 8.79677 175.905 8.04001 177.822 9.31794"/><path stroke="#fff" stroke-linecap="round" stroke-width="3" d="M164.221 4C166.071 4 166.202 6.74775 165.323 8.09278C164.415 9.48126 161.139 8.79943 162.214 7.18764C163.373 5.44905 166.954 6.71039 166.661 6.79411C164.977 7.2753 164.87 4.58876 165.638 6.12509"/><path stroke="#fff" stroke-linecap="round" stroke-width="3" d="M192.629 8.01366C190.508 8.01366 189.839 6.40456 192.354 5.96728C192.769 5.89506 198.219 5.46896 196.407 6.95112C195.528 7.67057 191.664 8.01366 194.203 8.01366C196.546 8.01366 197.756 8.72203 194.754 8.72203"/></svg>