<svg width="771" height="249" viewBox="0 0 771 249" fill="none" xmlns="http://www.w3.org/2000/svg">
<path d="M287.259 192.877C287.285 192.902 287.311 192.927 287.337 192.952C292.488 197.791 298.478 201.511 305.238 204.123C312.045 206.753 319.266 208.045 326.843 208.045C334.42 208.045 341.641 206.753 348.448 204.123C354.208 201.898 359.374 198.862 363.892 195H382.441V198C382.441 201.866 385.575 205 389.441 205H420.703C424.569 205 427.703 201.866 427.703 198V195H442.529V198C442.529 201.866 445.663 205 449.529 205H480.791C484.657 205 487.791 201.866 487.791 198V146.032C487.791 132.351 484.473 120.673 476.993 111.863C469.419 102.944 459.117 98.6348 446.89 98.6348C440.11 98.6348 433.808 100.181 428.173 103.425C427.553 103.782 426.946 104.156 426.353 104.545C425.079 102.808 423.023 101.68 420.703 101.68H389.441C385.575 101.68 382.441 104.814 382.441 108.68V115H367.452C367.024 114.568 366.589 114.144 366.146 113.728L364.951 115L366.146 113.728C360.995 108.889 355.005 105.168 348.245 102.556C341.454 99.9326 334.303 98.6348 326.843 98.6348C319.383 98.6348 312.232 99.9326 305.441 102.556C298.681 105.168 292.691 108.889 287.54 113.728C282.343 118.61 278.29 124.483 275.362 131.253C272.365 138.046 270.92 145.443 270.92 153.34C270.92 161.25 272.37 168.7 275.35 175.603L275.374 175.657C278.289 182.255 282.246 188.021 287.259 192.877Z" fill="white" stroke="white" stroke-width="14" stroke-linejoin="round"/>
<path d="M326.843 201.045C320.076 201.045 313.715 199.895 307.761 197.594C301.806 195.293 296.596 192.045 292.13 187.85C287.799 183.655 284.348 178.647 281.777 172.828C279.205 166.873 277.92 160.377 277.92 153.34C277.92 146.303 279.205 139.874 281.777 134.055C284.348 128.1 287.867 123.025 292.333 118.83C296.799 114.635 302.009 111.387 307.964 109.086C313.918 106.785 320.211 105.635 326.843 105.635C333.474 105.635 339.767 106.785 345.722 109.086C351.676 111.387 356.887 114.635 361.353 118.83C365.819 123.025 369.337 128.1 371.909 134.055C374.48 139.874 375.766 146.303 375.766 153.34C375.766 160.377 374.48 166.873 371.909 172.828C369.337 178.647 365.819 183.655 361.353 187.85C357.022 192.045 351.879 195.293 345.925 197.594C339.97 199.895 333.609 201.045 326.843 201.045ZM326.843 174.655C332.527 174.655 336.857 172.693 339.835 168.768C342.947 164.708 344.504 159.565 344.504 153.34C344.504 147.115 342.947 142.04 339.835 138.115C336.722 134.055 332.391 132.025 326.843 132.025C321.294 132.025 316.963 134.055 313.851 138.115C310.738 142.04 309.182 147.115 309.182 153.34C309.182 159.565 310.67 164.708 313.648 168.768C316.76 172.693 321.159 174.655 326.843 174.655ZM389.441 198V108.68H420.703V120.454C423.545 115.717 427.199 112.063 431.665 109.492C436.131 106.921 441.206 105.635 446.89 105.635C457.311 105.635 465.566 109.221 471.656 116.394C477.746 123.567 480.791 133.446 480.791 146.032V198H449.529V149.077C449.529 142.987 448.379 138.453 446.078 135.476C443.777 132.499 440.462 131.01 436.131 131.01C431.394 131.01 427.605 132.499 424.763 135.476C422.056 138.318 420.703 142.852 420.703 149.077V198H389.441Z" fill="#345C44"/>
<g clip-path="url(#clip0_49_1702)">
<mask id="mask0_49_1702" style="mask-type:alpha" maskUnits="userSpaceOnUse" x="524" y="2" width="247" height="247">
<path fill-rule="evenodd" clip-rule="evenodd" d="M647.5 249C746.3 249 771 224.3 771 125.5C771 26.7 746.3 2 647.5 2C548.7 2 524 26.7 524 125.5C524 224.3 548.7 249 647.5 249Z" fill="black"/>
</mask>
<g mask="url(#mask0_49_1702)">
<path d="M771 2H524V249H771V2Z" fill="url(#paint0_radial_49_1702)"/>
<path d="M764.246 125.5C764.246 174.949 757.901 203.147 741.524 219.524C725.147 235.901 696.949 242.246 647.5 242.246C598.052 242.246 569.853 235.901 553.476 219.524C537.098 203.147 530.754 174.949 530.754 125.5C530.754 76.0518 537.098 47.8529 553.476 31.4757C569.853 15.0985 598.052 8.75391 647.5 8.75391C696.949 8.75391 725.147 15.0985 741.524 31.4757C757.901 47.8529 764.246 76.0518 764.246 125.5Z" stroke="url(#paint1_radial_49_1702)" stroke-width="14"/>
<g filter="url(#filter0_dii_49_1702)">
<path fill-rule="evenodd" clip-rule="evenodd" d="M647.502 63.8889C647.186 63.997 646.7 64.1822 646.005 64.491C644.16 65.286 641.967 66.4284 639.151 68.0416C633.423 71.3144 626.253 75.9379 618.187 81.6343C608.871 88.2053 604.649 91.5136 599.389 95.6369C595.491 98.692 591.023 102.194 583.49 107.801C580.48 110.819 575.586 110.819 572.576 107.801C569.558 104.791 569.558 99.8969 572.576 96.8866C589.613 83.0469 592.691 80.739 609.279 69.0219C617.615 63.1402 625.404 58.1153 631.494 54.6342C634.589 52.8666 637.514 51.3537 639.807 50.3502C641.829 49.4626 644.739 48.3125 647.502 48.3125C650.266 48.3125 653.176 49.4626 655.198 50.3502C657.49 51.3537 660.416 52.8666 663.511 54.6342C669.6 58.1153 677.389 63.1402 685.726 69.0219C702.312 80.739 705.391 83.0469 722.428 96.8866C725.446 99.8969 725.446 104.791 722.428 107.801C719.418 110.819 714.524 110.819 711.513 107.801C703.98 102.194 699.513 98.692 695.616 95.6369C690.355 91.5136 686.133 88.2053 676.818 81.6343C668.752 75.9379 661.581 71.3144 655.854 68.0416C653.037 66.4284 650.845 65.286 649 64.491C648.305 64.1822 647.819 63.997 647.502 63.8889ZM578.031 187.25C578.031 182.989 581.489 179.531 585.75 179.531H709.25C713.511 179.531 716.969 182.989 716.969 187.25C716.969 191.511 713.511 194.969 709.25 194.969H585.75C581.489 194.969 578.031 191.511 578.031 187.25ZM639.781 164.094C639.781 168.354 643.239 171.812 647.5 171.812C651.761 171.812 655.219 168.354 655.219 164.094V110.062C655.219 105.802 651.761 102.344 647.5 102.344C643.239 102.344 639.781 105.802 639.781 110.062V164.094ZM686.094 171.812C681.833 171.812 678.375 168.354 678.375 164.094V110.062C678.375 105.802 681.833 102.344 686.094 102.344C690.354 102.344 693.812 105.802 693.812 110.062V164.094C693.812 168.354 690.354 171.812 686.094 171.812ZM601.188 164.094C601.188 168.354 604.646 171.812 608.906 171.812C613.167 171.812 616.625 168.354 616.625 164.094V110.062C616.625 105.802 613.167 102.344 608.906 102.344C604.646 102.344 601.188 105.802 601.188 110.062V164.094Z" fill="white"/>
</g>
</g>
</g>
<g clip-path="url(#clip1_49_1702)">
<mask id="path-7-outside-1_49_1702" maskUnits="userSpaceOnUse" x="6.73633" y="2.15039" width="234" height="242" fill="black">
<rect fill="white" x="6.73633" y="2.15039" width="234" height="242"/>
<path fill-rule="evenodd" clip-rule="evenodd" d="M183.494 199.489C184.462 197.765 185.844 196.211 187.092 195.115C188.281 194.072 189.635 193.164 191.103 192.565L191.26 192.5L191.421 192.449C192.347 192.154 193.331 191.935 194.298 191.877C194.399 189.155 196.144 186.251 197.794 184.385C198.766 183.286 199.906 182.295 201.186 181.572L201.334 181.488L201.488 181.417C201.699 181.319 201.914 181.225 202.131 181.137C201.943 178.867 202.792 176.49 203.697 174.448C204.975 171.567 206.607 168.768 208.136 166.011C208.928 164.58 209.717 163.142 210.449 161.679L210.731 161.115L211.163 160.656C211.549 160.245 211.97 159.863 212.415 159.531C211.471 157.706 211.064 155.414 211.057 153.293C209.072 150.679 209.037 146.076 209.65 143.273C210.429 139.712 209.817 134.312 206.637 132.06C206.575 132.016 206.445 131.929 206.367 131.903L203.43 131.665L202.605 128.82C196.333 107.199 184.233 85.9115 171.498 67.4979L168.279 62.8432L171.095 61.871C171.035 61.7028 170.98 61.5422 170.933 61.3922C170.507 60.0294 170.59 58.6018 171.277 57.4406C170.654 56.8062 170.034 56.1698 169.418 55.5291C168.362 54.4296 166.828 52.8886 166.132 51.5485C165.173 49.7056 165.063 47.5654 166.284 45.7981C166.32 45.7452 166.357 45.6935 166.394 45.6425C155.708 41.3992 144.201 38.6339 132.843 36.9832C120.295 35.1599 103.682 40.9033 91.5143 44.4738C79.6141 47.9654 71.0096 53.7473 62.8177 62.8993C60.8804 65.0641 59.1268 67.4664 57.4517 69.8372C55.0049 73.3012 52.6715 76.9271 50.0648 80.2663C48.8254 81.8534 47.2829 83.712 45.4609 84.9204C45.4162 85.5322 45.283 86.1477 45.0724 86.7456L44.8719 87.3158L44.5212 87.8085C42.8902 90.1018 41.3615 92.8954 40.1061 95.3986C37.2757 101.042 35.0325 107.234 34.0664 113.485C33.5299 116.957 33.5001 120.87 33.5748 124.376C33.6923 129.896 34.2038 135.452 35.0254 140.91C36.9835 153.917 40.8869 167.374 47.5073 178.798C53.1446 188.527 60.7685 196.757 70.9208 201.861C77.9508 205.395 85.0047 208.901 92.1178 212.265C96.2755 214.231 100.485 216.182 104.748 217.912C108.258 219.338 111.473 220.538 115.248 220.935C115.685 220.981 116.123 221.023 116.56 221.067C117.634 221.175 118.76 221.365 119.776 221.74C120.383 221.964 120.947 222.269 121.438 222.648C122.139 221.69 123.06 220.849 124.001 220.122L125.191 219.201L126.696 219.225C129.562 219.27 132.602 219.077 135.452 218.828C141.561 218.294 147.854 217.267 153.709 215.421C154.876 215.052 156.034 214.647 157.174 214.199C162.661 212.042 167.487 209.212 172.178 205.668C174.654 203.797 178.649 200.082 181.669 199.576C182.28 199.474 182.894 199.442 183.494 199.489ZM47.4147 199.673C47.6898 199.664 47.9668 199.681 48.2444 199.72C48.0102 199.437 47.7791 199.152 47.5512 198.866C47.5251 199.14 47.4792 199.41 47.4147 199.673ZM111.75 23.5445C111.652 23.6377 111.55 23.7284 111.446 23.816C111.631 23.7877 111.815 23.7606 112 23.7335C111.915 23.673 111.832 23.61 111.75 23.5445ZM111.767 15.6539C112.038 15.3527 112.329 15.066 112.631 14.7932C115.044 12.6102 120.906 12.8212 123.985 12.888C129.414 13.0064 134.967 13.5357 140.336 14.3327C146.252 15.2109 153.116 16.5573 158.596 18.9843C162.782 20.8385 167.457 22.7777 171.413 25.0698C174.148 26.6556 176.793 28.7114 177.011 32.1401C177.048 32.721 177.004 33.2931 176.873 33.8368C184.896 38.0322 191.509 43.7794 197.672 50.456C201.674 54.7925 205.356 59.4435 208.727 64.286C218.621 78.4959 229.184 99.7062 230.131 117.265C230.575 125.484 229.881 133.688 228.21 141.742C227.1 147.09 225.573 152.113 223.841 157.276C223.202 159.179 222.144 161.097 220.531 162.162C221.101 164.684 220.212 167.828 219.475 170.037C218.7 172.362 217.622 174.743 216.523 176.931C215.544 178.882 214.433 180.902 213.147 182.667C212.402 183.689 211.519 184.69 210.492 185.407C210.517 188.033 208.727 190.799 207.156 192.713C205.581 194.632 203.317 196.798 200.808 197.299C200.602 197.34 200.396 197.372 200.191 197.392C200.18 197.534 200.164 197.675 200.143 197.816C201.239 197.575 202.39 197.678 203.529 198.331C207.523 200.623 205.629 205.596 204.255 208.803C202.54 212.803 197.37 217.328 193.965 219.966C189.808 223.186 179.341 230.814 174.574 225.094C173.972 224.372 173.552 223.535 173.364 222.628C165.962 227.491 157.39 229.905 148.628 230.906C142.709 231.583 136.261 232.309 130.301 232.209C127.494 232.163 123.748 231.931 121.681 229.833C120.989 230.417 120.128 230.832 119.198 231.074C118.01 231.384 116.699 231.474 115.475 231.495C111.522 231.558 107.237 230.912 103.367 230.167C100.201 229.559 96.9219 228.707 93.618 227.665C93.8756 228.426 93.9456 229.252 93.7692 230.115C93.2179 232.812 90.8395 233.966 88.3483 234.122C86.4903 234.238 84.4112 233.977 82.5734 233.707C76.3845 232.797 68.3402 227.63 63.2425 224.081C59.1097 221.204 55.0473 218.068 51.2467 214.762C49.6023 213.332 46.5356 210.767 45.1642 208.419C44.7452 207.898 44.3381 207.348 44.0096 206.773C43.4368 205.771 43.163 204.659 43.2845 203.589C41.7778 203.845 40.2231 203.404 39.0223 202.404C37.8373 201.417 37.132 200.029 36.8053 198.54C36.2037 195.8 36.0343 192.558 39.2384 191.217C40.274 190.784 41.2228 190.758 42.0903 190.997C31.5981 174.933 24.1488 159.639 22.3911 139.711C21.9883 135.147 22.005 130.526 22.2871 125.955C22.6421 120.2 23.4176 114.373 24.5306 108.651C23.4668 109.449 22.1602 109.83 20.7781 109.573C18.3961 109.13 17.1169 107.162 16.7958 104.927C16.2757 101.306 19.2998 94.3319 20.7905 91.0009C22.2823 87.668 24.2899 83.4096 26.4661 80.4849L26.6851 80.1907L26.9509 79.9374C27.3826 79.5273 27.868 79.17 28.3826 78.8708C30.6208 77.5691 33.5668 77.2912 35.5194 79.3351C35.5612 79.3792 35.6019 79.4233 35.6416 79.468C35.628 75.2682 38.0438 70.2959 39.6327 67.4091C43.6911 60.0364 49.7141 52.9616 56.3261 47.7695C65.7318 40.3829 77.5557 34.1361 88.703 29.9085C93.9487 27.9195 99.3916 26.2492 104.937 25.0282C103.442 24.4391 102.234 23.2641 101.74 21.66C100.649 18.1091 103.379 15.4371 106.465 14.3963L107.553 14.029L108.678 14.2539C109.831 14.4839 110.913 14.9507 111.767 15.6539Z"/>
</mask>
<path fill-rule="evenodd" clip-rule="evenodd" d="M183.494 199.489C184.462 197.765 185.844 196.211 187.092 195.115C188.281 194.072 189.635 193.164 191.103 192.565L191.26 192.5L191.421 192.449C192.347 192.154 193.331 191.935 194.298 191.877C194.399 189.155 196.144 186.251 197.794 184.385C198.766 183.286 199.906 182.295 201.186 181.572L201.334 181.488L201.488 181.417C201.699 181.319 201.914 181.225 202.131 181.137C201.943 178.867 202.792 176.49 203.697 174.448C204.975 171.567 206.607 168.768 208.136 166.011C208.928 164.58 209.717 163.142 210.449 161.679L210.731 161.115L211.163 160.656C211.549 160.245 211.97 159.863 212.415 159.531C211.471 157.706 211.064 155.414 211.057 153.293C209.072 150.679 209.037 146.076 209.65 143.273C210.429 139.712 209.817 134.312 206.637 132.06C206.575 132.016 206.445 131.929 206.367 131.903L203.43 131.665L202.605 128.82C196.333 107.199 184.233 85.9115 171.498 67.4979L168.279 62.8432L171.095 61.871C171.035 61.7028 170.98 61.5422 170.933 61.3922C170.507 60.0294 170.59 58.6018 171.277 57.4406C170.654 56.8062 170.034 56.1698 169.418 55.5291C168.362 54.4296 166.828 52.8886 166.132 51.5485C165.173 49.7056 165.063 47.5654 166.284 45.7981C166.32 45.7452 166.357 45.6935 166.394 45.6425C155.708 41.3992 144.201 38.6339 132.843 36.9832C120.295 35.1599 103.682 40.9033 91.5143 44.4738C79.6141 47.9654 71.0096 53.7473 62.8177 62.8993C60.8804 65.0641 59.1268 67.4664 57.4517 69.8372C55.0049 73.3012 52.6715 76.9271 50.0648 80.2663C48.8254 81.8534 47.2829 83.712 45.4609 84.9204C45.4162 85.5322 45.283 86.1477 45.0724 86.7456L44.8719 87.3158L44.5212 87.8085C42.8902 90.1018 41.3615 92.8954 40.1061 95.3986C37.2757 101.042 35.0325 107.234 34.0664 113.485C33.5299 116.957 33.5001 120.87 33.5748 124.376C33.6923 129.896 34.2038 135.452 35.0254 140.91C36.9835 153.917 40.8869 167.374 47.5073 178.798C53.1446 188.527 60.7685 196.757 70.9208 201.861C77.9508 205.395 85.0047 208.901 92.1178 212.265C96.2755 214.231 100.485 216.182 104.748 217.912C108.258 219.338 111.473 220.538 115.248 220.935C115.685 220.981 116.123 221.023 116.56 221.067C117.634 221.175 118.76 221.365 119.776 221.74C120.383 221.964 120.947 222.269 121.438 222.648C122.139 221.69 123.06 220.849 124.001 220.122L125.191 219.201L126.696 219.225C129.562 219.27 132.602 219.077 135.452 218.828C141.561 218.294 147.854 217.267 153.709 215.421C154.876 215.052 156.034 214.647 157.174 214.199C162.661 212.042 167.487 209.212 172.178 205.668C174.654 203.797 178.649 200.082 181.669 199.576C182.28 199.474 182.894 199.442 183.494 199.489ZM47.4147 199.673C47.6898 199.664 47.9668 199.681 48.2444 199.72C48.0102 199.437 47.7791 199.152 47.5512 198.866C47.5251 199.14 47.4792 199.41 47.4147 199.673ZM111.75 23.5445C111.652 23.6377 111.55 23.7284 111.446 23.816C111.631 23.7877 111.815 23.7606 112 23.7335C111.915 23.673 111.832 23.61 111.75 23.5445ZM111.767 15.6539C112.038 15.3527 112.329 15.066 112.631 14.7932C115.044 12.6102 120.906 12.8212 123.985 12.888C129.414 13.0064 134.967 13.5357 140.336 14.3327C146.252 15.2109 153.116 16.5573 158.596 18.9843C162.782 20.8385 167.457 22.7777 171.413 25.0698C174.148 26.6556 176.793 28.7114 177.011 32.1401C177.048 32.721 177.004 33.2931 176.873 33.8368C184.896 38.0322 191.509 43.7794 197.672 50.456C201.674 54.7925 205.356 59.4435 208.727 64.286C218.621 78.4959 229.184 99.7062 230.131 117.265C230.575 125.484 229.881 133.688 228.21 141.742C227.1 147.09 225.573 152.113 223.841 157.276C223.202 159.179 222.144 161.097 220.531 162.162C221.101 164.684 220.212 167.828 219.475 170.037C218.7 172.362 217.622 174.743 216.523 176.931C215.544 178.882 214.433 180.902 213.147 182.667C212.402 183.689 211.519 184.69 210.492 185.407C210.517 188.033 208.727 190.799 207.156 192.713C205.581 194.632 203.317 196.798 200.808 197.299C200.602 197.34 200.396 197.372 200.191 197.392C200.18 197.534 200.164 197.675 200.143 197.816C201.239 197.575 202.39 197.678 203.529 198.331C207.523 200.623 205.629 205.596 204.255 208.803C202.54 212.803 197.37 217.328 193.965 219.966C189.808 223.186 179.341 230.814 174.574 225.094C173.972 224.372 173.552 223.535 173.364 222.628C165.962 227.491 157.39 229.905 148.628 230.906C142.709 231.583 136.261 232.309 130.301 232.209C127.494 232.163 123.748 231.931 121.681 229.833C120.989 230.417 120.128 230.832 119.198 231.074C118.01 231.384 116.699 231.474 115.475 231.495C111.522 231.558 107.237 230.912 103.367 230.167C100.201 229.559 96.9219 228.707 93.618 227.665C93.8756 228.426 93.9456 229.252 93.7692 230.115C93.2179 232.812 90.8395 233.966 88.3483 234.122C86.4903 234.238 84.4112 233.977 82.5734 233.707C76.3845 232.797 68.3402 227.63 63.2425 224.081C59.1097 221.204 55.0473 218.068 51.2467 214.762C49.6023 213.332 46.5356 210.767 45.1642 208.419C44.7452 207.898 44.3381 207.348 44.0096 206.773C43.4368 205.771 43.163 204.659 43.2845 203.589C41.7778 203.845 40.2231 203.404 39.0223 202.404C37.8373 201.417 37.132 200.029 36.8053 198.54C36.2037 195.8 36.0343 192.558 39.2384 191.217C40.274 190.784 41.2228 190.758 42.0903 190.997C31.5981 174.933 24.1488 159.639 22.3911 139.711C21.9883 135.147 22.005 130.526 22.2871 125.955C22.6421 120.2 23.4176 114.373 24.5306 108.651C23.4668 109.449 22.1602 109.83 20.7781 109.573C18.3961 109.13 17.1169 107.162 16.7958 104.927C16.2757 101.306 19.2998 94.3319 20.7905 91.0009C22.2823 87.668 24.2899 83.4096 26.4661 80.4849L26.6851 80.1907L26.9509 79.9374C27.3826 79.5273 27.868 79.17 28.3826 78.8708C30.6208 77.5691 33.5668 77.2912 35.5194 79.3351C35.5612 79.3792 35.6019 79.4233 35.6416 79.468C35.628 75.2682 38.0438 70.2959 39.6327 67.4091C43.6911 60.0364 49.7141 52.9616 56.3261 47.7695C65.7318 40.3829 77.5557 34.1361 88.703 29.9085C93.9487 27.9195 99.3916 26.2492 104.937 25.0282C103.442 24.4391 102.234 23.2641 101.74 21.66C100.649 18.1091 103.379 15.4371 106.465 14.3963L107.553 14.029L108.678 14.2539C109.831 14.4839 110.913 14.9507 111.767 15.6539Z" fill="white"/>
<path fill-rule="evenodd" clip-rule="evenodd" d="M183.494 199.489C184.462 197.765 185.844 196.211 187.092 195.115C188.281 194.072 189.635 193.164 191.103 192.565L191.26 192.5L191.421 192.449C192.347 192.154 193.331 191.935 194.298 191.877C194.399 189.155 196.144 186.251 197.794 184.385C198.766 183.286 199.906 182.295 201.186 181.572L201.334 181.488L201.488 181.417C201.699 181.319 201.914 181.225 202.131 181.137C201.943 178.867 202.792 176.49 203.697 174.448C204.975 171.567 206.607 168.768 208.136 166.011C208.928 164.58 209.717 163.142 210.449 161.679L210.731 161.115L211.163 160.656C211.549 160.245 211.97 159.863 212.415 159.531C211.471 157.706 211.064 155.414 211.057 153.293C209.072 150.679 209.037 146.076 209.65 143.273C210.429 139.712 209.817 134.312 206.637 132.06C206.575 132.016 206.445 131.929 206.367 131.903L203.43 131.665L202.605 128.82C196.333 107.199 184.233 85.9115 171.498 67.4979L168.279 62.8432L171.095 61.871C171.035 61.7028 170.98 61.5422 170.933 61.3922C170.507 60.0294 170.59 58.6018 171.277 57.4406C170.654 56.8062 170.034 56.1698 169.418 55.5291C168.362 54.4296 166.828 52.8886 166.132 51.5485C165.173 49.7056 165.063 47.5654 166.284 45.7981C166.32 45.7452 166.357 45.6935 166.394 45.6425C155.708 41.3992 144.201 38.6339 132.843 36.9832C120.295 35.1599 103.682 40.9033 91.5143 44.4738C79.6141 47.9654 71.0096 53.7473 62.8177 62.8993C60.8804 65.0641 59.1268 67.4664 57.4517 69.8372C55.0049 73.3012 52.6715 76.9271 50.0648 80.2663C48.8254 81.8534 47.2829 83.712 45.4609 84.9204C45.4162 85.5322 45.283 86.1477 45.0724 86.7456L44.8719 87.3158L44.5212 87.8085C42.8902 90.1018 41.3615 92.8954 40.1061 95.3986C37.2757 101.042 35.0325 107.234 34.0664 113.485C33.5299 116.957 33.5001 120.87 33.5748 124.376C33.6923 129.896 34.2038 135.452 35.0254 140.91C36.9835 153.917 40.8869 167.374 47.5073 178.798C53.1446 188.527 60.7685 196.757 70.9208 201.861C77.9508 205.395 85.0047 208.901 92.1178 212.265C96.2755 214.231 100.485 216.182 104.748 217.912C108.258 219.338 111.473 220.538 115.248 220.935C115.685 220.981 116.123 221.023 116.56 221.067C117.634 221.175 118.76 221.365 119.776 221.74C120.383 221.964 120.947 222.269 121.438 222.648C122.139 221.69 123.06 220.849 124.001 220.122L125.191 219.201L126.696 219.225C129.562 219.27 132.602 219.077 135.452 218.828C141.561 218.294 147.854 217.267 153.709 215.421C154.876 215.052 156.034 214.647 157.174 214.199C162.661 212.042 167.487 209.212 172.178 205.668C174.654 203.797 178.649 200.082 181.669 199.576C182.28 199.474 182.894 199.442 183.494 199.489ZM47.4147 199.673C47.6898 199.664 47.9668 199.681 48.2444 199.72C48.0102 199.437 47.7791 199.152 47.5512 198.866C47.5251 199.14 47.4792 199.41 47.4147 199.673ZM111.75 23.5445C111.652 23.6377 111.55 23.7284 111.446 23.816C111.631 23.7877 111.815 23.7606 112 23.7335C111.915 23.673 111.832 23.61 111.75 23.5445ZM111.767 15.6539C112.038 15.3527 112.329 15.066 112.631 14.7932C115.044 12.6102 120.906 12.8212 123.985 12.888C129.414 13.0064 134.967 13.5357 140.336 14.3327C146.252 15.2109 153.116 16.5573 158.596 18.9843C162.782 20.8385 167.457 22.7777 171.413 25.0698C174.148 26.6556 176.793 28.7114 177.011 32.1401C177.048 32.721 177.004 33.2931 176.873 33.8368C184.896 38.0322 191.509 43.7794 197.672 50.456C201.674 54.7925 205.356 59.4435 208.727 64.286C218.621 78.4959 229.184 99.7062 230.131 117.265C230.575 125.484 229.881 133.688 228.21 141.742C227.1 147.09 225.573 152.113 223.841 157.276C223.202 159.179 222.144 161.097 220.531 162.162C221.101 164.684 220.212 167.828 219.475 170.037C218.7 172.362 217.622 174.743 216.523 176.931C215.544 178.882 214.433 180.902 213.147 182.667C212.402 183.689 211.519 184.69 210.492 185.407C210.517 188.033 208.727 190.799 207.156 192.713C205.581 194.632 203.317 196.798 200.808 197.299C200.602 197.34 200.396 197.372 200.191 197.392C200.18 197.534 200.164 197.675 200.143 197.816C201.239 197.575 202.39 197.678 203.529 198.331C207.523 200.623 205.629 205.596 204.255 208.803C202.54 212.803 197.37 217.328 193.965 219.966C189.808 223.186 179.341 230.814 174.574 225.094C173.972 224.372 173.552 223.535 173.364 222.628C165.962 227.491 157.39 229.905 148.628 230.906C142.709 231.583 136.261 232.309 130.301 232.209C127.494 232.163 123.748 231.931 121.681 229.833C120.989 230.417 120.128 230.832 119.198 231.074C118.01 231.384 116.699 231.474 115.475 231.495C111.522 231.558 107.237 230.912 103.367 230.167C100.201 229.559 96.9219 228.707 93.618 227.665C93.8756 228.426 93.9456 229.252 93.7692 230.115C93.2179 232.812 90.8395 233.966 88.3483 234.122C86.4903 234.238 84.4112 233.977 82.5734 233.707C76.3845 232.797 68.3402 227.63 63.2425 224.081C59.1097 221.204 55.0473 218.068 51.2467 214.762C49.6023 213.332 46.5356 210.767 45.1642 208.419C44.7452 207.898 44.3381 207.348 44.0096 206.773C43.4368 205.771 43.163 204.659 43.2845 203.589C41.7778 203.845 40.2231 203.404 39.0223 202.404C37.8373 201.417 37.132 200.029 36.8053 198.54C36.2037 195.8 36.0343 192.558 39.2384 191.217C40.274 190.784 41.2228 190.758 42.0903 190.997C31.5981 174.933 24.1488 159.639 22.3911 139.711C21.9883 135.147 22.005 130.526 22.2871 125.955C22.6421 120.2 23.4176 114.373 24.5306 108.651C23.4668 109.449 22.1602 109.83 20.7781 109.573C18.3961 109.13 17.1169 107.162 16.7958 104.927C16.2757 101.306 19.2998 94.3319 20.7905 91.0009C22.2823 87.668 24.2899 83.4096 26.4661 80.4849L26.6851 80.1907L26.9509 79.9374C27.3826 79.5273 27.868 79.17 28.3826 78.8708C30.6208 77.5691 33.5668 77.2912 35.5194 79.3351C35.5612 79.3792 35.6019 79.4233 35.6416 79.468C35.628 75.2682 38.0438 70.2959 39.6327 67.4091C43.6911 60.0364 49.7141 52.9616 56.3261 47.7695C65.7318 40.3829 77.5557 34.1361 88.703 29.9085C93.9487 27.9195 99.3916 26.2492 104.937 25.0282C103.442 24.4391 102.234 23.2641 101.74 21.66C100.649 18.1091 103.379 15.4371 106.465 14.3963L107.553 14.029L108.678 14.2539C109.831 14.4839 110.913 14.9507 111.767 15.6539Z" stroke="white" stroke-width="20" mask="url(#path-7-outside-1_49_1702)"/>
<path fill-rule="evenodd" clip-rule="evenodd" d="M43.8671 76.3309C45.3822 71.9377 46.5941 71.1797 50.533 65.8773C54.472 60.5755 65.0766 51.7884 67.501 49.5158C69.9248 47.2433 80.8326 42.6982 83.2564 41.3347C85.6802 39.9713 139.613 38.153 152.037 39.0622C164.459 39.9713 170.822 42.85 170.822 42.85C170.822 42.85 178.094 44.5158 184.76 51.7877C191.426 59.0596 215.363 111.478 220.211 120.265C225.059 129.051 222.028 140.262 221.423 146.322C220.817 152.382 215.362 161.169 213.545 165.411C211.726 169.653 198.396 202.679 162.946 213.586C127.495 224.494 107.801 222.676 104.165 222.676C100.529 222.676 86.2881 217.223 79.3193 213.89C72.3504 210.556 45.081 172.379 40.233 165.108C35.3854 157.836 28.7198 122.385 29.9317 115.719C31.1436 109.053 35.9917 89.9643 43.8671 76.3309Z" fill="#141C28"/>
<path fill-rule="evenodd" clip-rule="evenodd" d="M71.5344 47.9662C71.5344 47.9662 84.0785 36.1492 111.53 32.6953C138.981 29.2408 170.614 42.5126 171.068 43.2397C171.523 43.9667 164.978 41.8763 166.341 47.0571C167.705 52.2385 175.25 56.6929 172.705 57.5107C170.159 58.3285 172.432 60.4189 172.886 61.4194C173.341 62.4187 172.433 65.8732 170.796 66.0546C169.16 66.2367 169.16 66.4188 163.433 64.6005C157.707 62.7822 150.071 63.0556 149.071 66.8731C148.072 70.6911 150.071 72.6908 150.071 74.0542C150.071 75.4177 152.435 74.9634 147.617 77.3267C142.8 79.69 139.8 80.417 142.164 85.4164C144.527 90.4157 146.072 88.7802 148.799 90.4157C151.526 92.052 150.799 93.1432 152.162 93.961C153.526 94.7794 153.526 96.5063 150.526 95.2337C147.527 93.961 148.435 95.2337 146.345 94.688C144.254 94.1431 144.436 92.052 141.982 89.9615C139.528 87.871 136.801 86.6891 136.346 88.8709C135.892 91.0521 138.255 91.9612 135.619 93.5974C132.983 95.2337 130.71 97.6883 131.074 101.324C131.438 104.96 135.437 101.506 135.255 106.414C135.073 111.323 131.256 116.595 131.256 122.049C131.256 127.503 135.255 124.776 134.165 127.684C133.073 130.593 129.257 129.139 125.621 143.682C121.985 158.226 122.53 162.589 129.984 166.043C137.437 169.497 152.708 165.498 155.254 171.497C157.799 177.497 152.891 198.584 152.709 204.947C152.527 211.309 165.798 211.31 168.707 207.128C171.616 202.946 179.069 194.947 182.705 197.674C186.341 200.402 191.795 198.038 195.25 192.402C198.704 186.767 203.432 178.949 199.795 177.495C196.159 176.04 194.887 178.585 195.614 172.405C196.341 166.223 204.614 160.588 204.977 154.224C205.341 147.861 207.522 143.953 207.522 143.953C207.522 143.953 207.978 136.772 207.705 134.59C207.431 132.409 211.886 136.227 210.614 141.317C209.34 146.407 209.432 153.134 212.795 153.77C216.158 154.406 218.248 153.588 218.158 156.588C218.067 159.587 207.613 194.128 182.708 207.399C157.802 220.671 129.079 229.336 113.171 225.882C97.2639 222.428 102.809 224.215 101.718 219.671C100.627 215.126 97.3553 214.58 96.9911 211.672C96.6276 208.763 103.172 208.762 103.627 205.218C104.082 201.672 101.355 200.582 103.991 200.128C114.449 198.324 111.466 175.339 103.658 175.554C96.2432 175.758 96.053 174.402 92.9614 166.04C89.8698 157.679 92.2646 163.131 82.4479 158.768C72.6306 154.405 71.4487 152.678 70.1766 152.405C68.904 152.133 65.5408 153.678 66.1771 152.133C66.8135 150.587 69.8131 154.132 73.4491 150.133C77.085 146.133 73.9033 142.679 70.0853 140.133C66.2679 137.588 65.9043 139.042 65.3587 134.316C64.8131 129.589 69.9038 119.772 74.2668 117.591C78.6299 115.409 77.1757 117.045 80.2661 117.954C83.3564 118.863 87.9015 116.864 88.083 113.227C88.2651 109.591 86.4468 106.137 89.3557 107.046C92.2646 107.955 96.1727 102.774 93.9915 97.774C91.8097 92.7746 90.4469 95.2286 91.4461 90.6841C92.446 86.139 91.7189 87.4117 91.5375 83.9578C91.3554 80.5033 95.0821 77.7759 95.4456 74.1399C95.8092 70.504 97.3546 70.5953 96.4461 68.5042C95.537 66.4138 95.9912 66.1409 96.0826 64.0505C96.1733 61.9594 94.1736 61.1416 96.264 59.7782C98.3545 58.4148 101.173 58.3234 100.173 64.1412C99.1729 69.959 98.2638 73.6857 97.3546 77.958C96.4461 82.2296 96.1739 89.2294 101.9 89.9565C107.627 90.6835 109.444 87.5932 110.536 83.8665C111.626 80.1398 112.172 79.5028 113.99 78.1394C115.807 76.776 120.625 74.5035 120.08 75.5947C119.535 76.6853 121.352 84.6843 126.261 84.8663C131.169 85.0478 130.533 83.8665 130.988 81.3211C131.442 78.7758 134.623 76.5939 133.261 75.5947C131.897 74.5948 130.805 74.5948 128.715 74.5948C126.625 74.5948 124.26 76.3218 124.352 74.5035C124.443 72.6858 127.806 71.5045 127.897 70.3225C127.988 69.1406 125.988 69.1406 126.716 66.4138C127.443 63.687 129.897 59.7788 129.352 57.3242C128.806 54.8702 127.352 56.2336 128.261 53.8703C129.17 51.507 132.624 49.8708 131.352 47.1434C130.079 44.4166 128.898 43.6895 127.443 44.8715C125.989 46.0528 128.261 48.5074 125.262 46.0528C122.261 43.5988 120.625 42.144 117.898 42.0533C115.172 41.9626 117.081 44.5986 112.626 42.9624C108.172 41.3262 110.718 45.0529 107.354 43.326C103.991 41.599 102.264 41.2355 99.355 43.4167C96.4461 45.5985 94.1742 47.689 92.9922 47.8711C91.8103 48.0525 87.9929 53.234 87.9022 51.325C87.8114 49.4159 89.2656 48.5981 88.4471 47.0527C87.6294 45.5078 79.8125 45.78 78.994 47.7797C78.1756 49.7795 79.9032 50.9614 77.9034 50.143C75.9037 49.3252 73.7219 50.4164 72.0857 52.6884C70.4494 54.9609 68.4497 56.5058 68.4497 54.5067C68.4497 52.5069 71.5344 47.9662 71.5344 47.9662Z" fill="#387EA4"/>
<path fill-rule="evenodd" clip-rule="evenodd" d="M179.396 47.8391C179.032 49.3846 178.578 51.7479 175.214 49.4754C171.852 47.2034 168.761 47.2942 169.943 49.5667C171.124 51.8393 185.486 64.5648 183.668 66.0189C181.85 67.4737 174.124 57.2022 175.033 60.1111C175.942 63.0199 177.123 64.6562 174.487 65.2011C171.852 65.7468 172.67 72.4731 170.579 74.2914C168.488 76.109 165.671 73.6544 166.67 72.9273C167.67 72.2002 171.397 70.7461 168.397 69.0192C165.398 67.2916 150.673 64.9283 151.672 69.1099C152.672 73.2915 154.763 78.018 151.399 78.9266C148.036 79.8357 143.127 79.2907 144.309 83.2896C145.49 87.2897 145.855 87.8347 148.945 87.1076C152.036 86.3805 155.671 96.9243 156.58 92.7433C157.489 88.5617 155.035 76.1997 157.944 77.5631C160.853 78.9265 160.307 83.9259 163.67 84.108C167.034 84.2901 167.579 85.9263 164.488 86.9262C161.398 87.9254 166.124 90.1072 164.488 93.6525C162.852 97.1971 162.943 94.6523 159.126 96.5607C155.308 98.4697 156.58 100.288 154.035 99.6517C151.49 99.0154 150.945 95.9244 149.399 100.288C147.854 104.651 139.218 104.65 141.218 109.013C143.218 113.377 136.673 114.468 135.764 120.103C134.855 125.739 143.673 124.557 147.127 119.285C150.581 114.013 155.034 111.65 157.58 115.103C160.125 118.558 165.306 122.739 163.67 119.012C162.033 115.285 157.216 112.74 161.125 112.286C165.034 111.832 162.034 115.831 168.578 120.376C175.123 124.921 172.396 122.012 171.215 119.376C170.033 116.74 173.578 114.104 176.669 118.649C179.759 123.194 185.031 118.104 184.85 122.83C184.668 127.557 178.578 129.92 174.487 128.739C170.397 127.557 171.669 130.921 168.578 132.465C165.488 134.01 161.67 130.557 160.579 127.103C159.489 123.648 155.126 124.284 152.399 125.103C149.671 125.921 139.128 125.284 132.946 140.555C126.766 155.826 127.129 160.008 134.037 162.189C140.945 164.371 160.216 159.098 159.852 175.459C159.489 191.821 156.581 206.001 161.308 205.274C166.034 204.547 183.305 190.549 184.031 183.095C184.759 175.641 186.759 177.641 192.394 168.915C198.03 160.189 201.302 152.189 197.484 153.826C193.667 155.462 191.485 158.734 189.122 156.007C186.759 153.28 180.579 139.645 181.851 134.918C183.123 130.192 187.305 132.373 190.577 142.19C193.85 152.007 194.395 154.007 199.667 146.554C204.939 139.1 207.12 133.828 202.757 133.828C198.394 133.828 195.667 135.1 195.122 130.737C194.576 126.374 195.667 123.283 198.939 127.283C202.212 131.282 204.757 125.465 209.12 128.555C213.483 131.646 215.12 138.372 213.847 144.19C212.575 150.008 216.21 156.916 217.483 142.009C218.755 127.101 217.484 125.827 220.211 130.372C222.937 134.918 220.029 137.826 220.938 140.735C221.847 143.644 222.574 147.825 223.847 135.827C225.119 123.828 228.392 115.283 216.757 91.4675C205.122 67.652 194.579 60.3795 189.67 54.9252C184.761 49.4716 177.49 45.29 179.396 47.8391Z" fill="#00D959"/>
<path fill-rule="evenodd" clip-rule="evenodd" d="M195.122 182.183C193.122 186.91 188.032 197.272 185.123 195.272C182.214 193.273 189.941 187.455 190.577 185.637C191.214 183.819 192.213 181.91 193.668 181.638C195.122 181.365 195.849 181.274 195.122 182.183Z" fill="#00D959"/>
<path fill-rule="evenodd" clip-rule="evenodd" d="M97.9524 218.178C91.044 213.633 88.3172 210.906 91.5896 208.725C94.862 206.543 98.1345 204.18 97.4068 200.362C96.6803 196.545 99.043 198.362 103.042 196.545C107.043 194.726 108.679 183.818 104.861 180.728C101.043 177.637 93.7714 178.909 89.0449 170.365C84.3183 161.82 87.5901 165.457 77.0464 160.185C76.3742 159.849 70.3548 154.527 69.2491 156.801C67.7691 159.846 67.9411 156.566 67.9121 156.409C67.4585 153.954 66.9576 156.09 65.7756 157.09C64.5943 158.09 59.231 157.727 58.6857 153.909C58.1404 150.091 60.9583 150.455 57.3224 147.455C53.6863 144.456 56.231 138.001 53.8677 137.455C51.5045 136.91 47.8687 138.91 48.0504 133.456C48.2322 128.002 56.4129 124.003 58.2309 129.82C60.0489 135.638 62.4123 132.547 61.8668 127.275C61.3215 122.003 69.3209 112.731 72.5019 112.731C75.6836 112.731 75.9564 109.913 77.6834 108.732C79.4103 107.55 79.8646 107.55 80.7737 110.004C81.6829 112.458 83.2277 109.914 82.6827 108.459C82.1371 107.005 80.683 106.186 80.5916 104.277C80.5009 102.368 79.5924 101.551 78.8647 102.733C78.1376 103.914 76.0472 105.187 75.7744 103.823C75.5016 102.46 78.6833 101.005 82.3192 100.278C85.9552 99.5508 87.8636 99.1873 88.7727 101.46C89.6819 103.732 91.7723 100.46 91.4995 99.6415C91.2273 98.8237 92.4099 98.733 88.9561 94.4607C85.5015 90.1884 90.1374 88.7343 88.8647 86.7345C87.592 84.7348 86.6835 91.0976 83.5932 87.3709C80.5022 83.6436 81.0472 78.8263 79.2295 81.2803C77.4118 83.7349 75.3214 86.0982 74.5937 91.4611C73.8666 96.824 70.6849 97.9146 70.5942 95.1878C70.5035 92.461 73.1395 92.0975 71.2305 90.3705C69.3215 88.6429 66.2312 87.2795 66.2312 84.0077C66.2312 80.7353 71.3213 74.8268 75.4121 73.3727C79.5023 71.9179 84.2295 69.2818 83.6839 68.1912C83.1383 67.1006 82.2291 69.6454 81.0478 68.0091C79.8658 66.3729 82.2291 60.283 81.0478 61.1921C79.8658 62.1013 81.4113 66.7371 77.9568 66.9185C74.5029 67.1006 76.5027 65.7366 75.3207 64.9188C74.1394 64.101 72.0489 63.4647 70.867 65.1916C69.6857 66.9185 67.1403 67.6456 68.1402 63.1919C69.1401 58.7375 70.5035 56.9192 68.2315 56.8285C65.959 56.7377 64.4135 58.3739 65.4134 55.283C66.4132 52.1926 69.4129 49.0109 67.2317 49.6473C65.0498 50.2836 46.3248 68.0999 48.5063 68.3727C50.6882 68.6449 53.5968 68.0085 52.0515 70.2811C50.5064 72.5536 44.5984 84.0978 40.9624 96.0963C37.3265 108.095 34.8725 114.276 36.8722 122.094C38.8721 129.911 39.054 125.911 38.7812 122.729C38.5084 119.548 40.2355 116.367 40.5082 123.275C40.781 130.183 40.2358 137 45.4172 143.364C50.5984 149.727 57.5975 157.362 60.9607 159.089C64.324 160.816 65.5054 164.907 63.5056 165.997C61.5062 167.088 60.2338 168.815 62.0516 173.36C63.8698 177.905 68.8698 182.54 74.4141 189.357C79.9591 196.175 81.5039 205.81 86.5039 211.446C91.5033 217.082 100.502 221.899 97.9524 218.178Z" fill="#00D959"/>
<path fill-rule="evenodd" clip-rule="evenodd" d="M140.589 91.1877C140.68 93.4602 140.771 95.1872 143.497 97.1869C146.224 99.1867 147.406 101.823 145.316 102.914C143.225 104.005 140.588 105.459 140.407 102.823C140.226 100.187 142.68 100.914 141.679 99.0052C140.68 97.0962 140.68 98.2781 139.407 95.1872C138.134 92.0968 137.862 89.915 140.589 91.1877Z" fill="#00D959"/>
<path fill-rule="evenodd" clip-rule="evenodd" d="M136.59 96.8233C135.772 96.8233 133.681 98.4595 134.953 99.0051C136.227 99.5501 137.226 100.551 135.772 101.368C134.318 102.186 137.863 103.914 138.499 100.823C139.135 97.7325 138.227 95.9148 136.59 96.8233Z" fill="#00D959"/>
<path fill-rule="evenodd" clip-rule="evenodd" d="M129.863 79.1892C128.136 81.3711 130.136 84.0071 127.045 82.5524C123.954 81.0983 124.227 80.4619 123.682 79.3713C123.137 78.2801 122.046 76.2803 123.137 76.4624C124.227 76.6445 124.227 79.1892 125.682 77.9166C127.136 76.6445 131.681 76.9167 129.863 79.1892Z" fill="#00D959"/>
<path fill-rule="evenodd" clip-rule="evenodd" d="M90.5952 58.1001C90.323 61.1905 92.2314 60.9183 93.0498 63.2816C93.8676 65.6442 91.9586 65.6442 91.7772 68.1896C91.5951 70.7349 94.2765 69.1895 93.4134 71.2799C92.5496 73.371 91.2322 73.5531 90.4138 74.0981C89.5953 74.6437 88.5047 75.4161 89.55 76.3253C90.5952 77.2344 89.6413 79.3249 88.6868 80.0066C87.7323 80.6883 85.2323 80.5062 84.8234 78.143C84.4145 75.7797 83.8235 77.4159 83.3693 75.6436C82.9144 73.8707 84.6873 74.1895 86.3229 72.2804C87.9591 70.3714 89.55 68.6445 88.5047 68.2356C87.4595 67.8261 86.7778 67.9628 87.1413 66.7355C87.5049 65.5081 88.1412 63.9627 87.2774 63.6445C86.4143 63.3263 84.1871 63.463 84.6873 62.1904C85.1869 60.9177 88.5501 59.2361 89.2318 58.7585C89.9141 58.2816 91.0047 57.4632 90.5952 58.1001Z" fill="#00D959"/>
<path fill-rule="evenodd" clip-rule="evenodd" d="M77.3924 53.9175C75.8022 55.0087 75.3927 56.6443 77.0749 56.4175C78.7565 56.19 79.665 56.3721 78.3016 57.7809C76.9382 59.1896 75.6655 63.2345 74.6656 62.8256C73.6658 62.4167 74.6656 60.3262 73.2569 61.3715C71.8481 62.4167 70.8029 61.4622 71.8481 60.0988C72.8933 58.7354 74.6656 56.9171 74.3928 56.0993C74.1207 55.2809 72.9387 56.781 73.1201 55.3262C73.3022 53.8721 76.1204 51.827 76.8475 52.418C77.5745 53.0083 78.0288 53.5086 77.3924 53.9175Z" fill="#00D959"/>
<path fill-rule="evenodd" clip-rule="evenodd" d="M85.0287 48.0542C83.6653 48.5544 81.0304 49.4182 81.9849 50.4181C82.9395 51.418 88.4838 48.2816 85.0287 48.0542Z" fill="#00D959"/>
<path fill-rule="evenodd" clip-rule="evenodd" d="M84.3935 51.8727C82.2577 51.7366 81.8488 51.5545 80.6215 52.8726C79.3941 54.1906 79.2127 55.2359 80.0758 54.5995C80.9396 53.9638 81.1671 53.2815 82.1209 53.9638C83.0755 54.6455 83.6664 54.1906 84.1661 53.2815C84.6663 52.373 86.5753 52.0094 84.3935 51.8727Z" fill="#00D959"/>
<path fill-rule="evenodd" clip-rule="evenodd" d="M105.801 84.5507C106.165 82.2782 108.437 77.0974 111.982 76.461C115.527 75.8247 114.437 73.5521 118.618 72.4615C122.799 71.3709 124.254 73.1886 123.981 69.007C123.708 64.8261 122.981 64.4626 124.89 61.5537C126.799 58.6448 127.071 58.0992 126.072 56.5543C125.072 55.0088 125.618 52.827 127.163 51.0093C128.709 49.191 128.345 46.2821 126.981 47.9183C125.618 49.5546 124.073 51.6457 123.618 49.4638C123.164 47.2826 125.618 49.8274 122.891 46.8277C120.164 43.8281 117.983 43.2825 114.619 45.8279C111.256 48.3732 110.074 49.3731 108.165 50.0094C106.256 50.6458 106.438 51.5543 104.166 51.5543C101.893 51.5543 97.6209 54.3725 99.3485 55.4631C101.075 56.5543 103.166 55.7359 103.348 58.372C103.529 61.008 105.438 66.7351 102.348 72.8251C99.2571 78.915 98.8936 85.3691 101.712 85.9141C104.529 86.4597 106.075 86.9146 105.801 84.5507Z" fill="#00D959"/>
<path fill-rule="evenodd" clip-rule="evenodd" d="M96.1673 53.2371C98.5306 50.5103 102.485 49.0555 103.803 49.2376C105.121 49.419 104.667 48.6926 106.257 47.7835C107.848 46.8743 112.257 46.5561 110.848 45.5563C109.438 44.5564 107.121 46.5561 105.893 45.1927C104.667 43.8293 101.076 45.1474 99.5305 46.7836C97.9856 48.4192 95.3495 48.7827 92.6227 50.2375C89.8959 51.6916 89.441 53.6006 91.1686 55.2368C92.8955 56.873 93.7139 58.5093 94.6225 56.873C95.5316 55.2368 96.0766 54.964 96.1673 53.2371Z" fill="#00D959"/>
<path fill-rule="evenodd" clip-rule="evenodd" d="M58.9057 137.859C58.9057 137.859 64.0871 140.405 64.9049 143.222C65.7233 146.04 63.7236 144.631 62.7008 143.382C61.678 142.132 60.7238 141.064 59.7691 140.405C58.8147 139.745 57.7012 140.041 57.3831 139.064C57.065 138.087 57.9739 137.746 58.9057 137.859Z" fill="#00D959"/>
<path fill-rule="evenodd" clip-rule="evenodd" d="M70.0182 145.722C68.4274 144.949 67.2454 144.722 67.6096 145.767C67.9731 146.813 65.2917 147.494 67.2914 148.131C69.2912 148.767 73.4267 147.494 70.0182 145.722Z" fill="#00D959"/>
<path fill-rule="evenodd" clip-rule="evenodd" d="M45.9303 72.8649C42.0217 77.2279 29.6602 99.5886 27.4786 121.041C25.2968 142.493 33.8415 166.125 41.8406 178.851C44.7831 183.533 48.1262 190.636 53.618 196.111C63.0548 205.52 75.5844 212.789 79.8359 213.938C86.5622 215.756 83.2898 214.302 79.6545 208.848C76.0185 203.394 82.2906 203.485 72.2918 194.213C62.2926 184.941 56.9296 172.306 58.7476 167.761C60.5655 163.217 62.141 166.065 56.1417 160.611C50.1425 155.157 37.2047 140.551 35.3868 129.825C33.5689 119.1 32.0234 104.101 36.023 95.5564C40.0227 87.0118 51.4758 69.2258 45.9303 72.8649Z" fill="#6ECAD0"/>
<path fill-rule="evenodd" clip-rule="evenodd" d="M119.995 226.63C117.529 226.574 115.241 226.331 113.172 225.882C97.2646 222.428 102.81 224.216 101.718 219.671C100.628 215.126 97.3559 214.58 96.9918 211.672C96.9823 211.593 96.9785 211.517 96.9785 211.443C100.454 217.741 106.48 222.537 119.995 226.63Z" fill="#6ECAD0"/>
<path fill-rule="evenodd" clip-rule="evenodd" d="M97.9524 218.178C91.044 213.633 88.3172 210.906 91.5896 208.725C92.6985 207.986 93.808 207.225 94.7606 206.394C93.8716 203.871 93.1471 201.135 92.3677 198.146C88.7318 184.209 88.7318 176.331 77.8239 171.483C72.7395 169.223 68.4451 164.724 64.1432 157.558C62.1098 157.661 59.0878 156.724 58.6858 153.909C58.1404 150.091 60.9583 150.455 57.3224 147.455C53.6863 144.456 56.2311 138.001 53.8677 137.455C51.5045 136.91 47.8687 138.91 48.0504 133.456C48.1168 131.465 49.2498 129.669 50.7495 128.472C49.8998 126.333 49.0281 124.106 48.1306 121.792C44.1821 111.609 43.7977 98.1477 44.9961 84.8539C43.5635 88.3525 42.1432 92.2001 40.9624 96.0963C37.3265 108.095 34.8725 114.276 36.8722 122.094C38.8721 129.911 39.054 125.911 38.7812 122.729C38.5084 119.548 40.2355 116.367 40.5082 123.275C40.781 130.183 40.2358 137 45.4172 143.364C50.5984 149.727 57.5975 157.362 60.9607 159.089C64.324 160.816 65.5054 164.907 63.5056 165.997C61.5062 167.088 60.2338 168.815 62.0516 173.36C63.8698 177.905 68.8698 182.54 74.4141 189.357C79.9591 196.175 81.504 205.81 86.5039 211.446C91.5033 217.082 100.502 221.899 97.9524 218.178Z" fill="#8DE9AD"/>
<path fill-rule="evenodd" clip-rule="evenodd" d="M45.9303 72.8649C42.0217 77.2279 29.6602 99.5886 27.4786 121.041C25.2968 142.493 33.8415 166.125 41.8406 178.851C44.7831 183.533 48.1262 190.636 53.618 196.111C63.0548 205.52 75.5844 212.789 79.8359 213.938C86.5622 215.756 83.2898 214.302 79.6545 208.848C76.0185 203.394 82.2906 203.485 72.2918 194.213C62.2926 184.941 56.9296 172.306 58.7476 167.761C60.5655 163.217 62.141 166.065 56.1417 160.611C50.1425 155.157 37.2047 140.551 35.3868 129.825C33.5689 119.1 32.0234 104.101 36.023 95.5564C38.3856 90.5085 43.3493 82.2361 45.8726 77.0616C46.0758 75.5362 46.2948 74.0229 46.5273 72.5259C46.3549 72.6053 46.1585 72.7155 45.9303 72.8649Z" fill="#79BDC6"/>
<path fill-rule="evenodd" clip-rule="evenodd" d="M30.0985 107.321C28.8807 111.813 27.9458 116.448 27.4786 121.042C25.2968 142.494 33.8415 166.126 41.8406 178.852C44.7831 183.533 48.1262 190.636 53.618 196.112C63.0548 205.521 75.5844 212.79 79.8359 213.939C80.8755 214.219 81.6756 214.422 82.2735 214.544C62.4524 202.205 50.9852 181.801 51.2664 173.927C51.5693 165.443 48.8423 169.079 35.8137 149.385C29.4293 139.734 28.9392 122.447 30.0985 107.321Z" fill="#FDFCD6"/>
<path fill-rule="evenodd" clip-rule="evenodd" d="M155.128 208.802C159.058 210.991 166.601 210.157 168.707 207.128C171.616 202.947 179.07 194.948 182.706 197.675C186.342 200.402 191.795 198.038 195.25 192.402C198.704 186.767 203.432 178.949 199.795 177.495C196.159 176.04 194.887 178.586 195.614 172.405C196.342 166.224 204.614 160.588 204.978 154.225C205.341 147.862 207.522 143.953 207.522 143.953C207.522 143.953 207.978 136.772 207.705 134.591C207.432 132.409 211.886 136.227 210.614 141.317C209.341 146.408 209.432 153.134 212.795 153.77C216.158 154.407 218.249 153.588 218.158 156.588C218.067 159.587 207.614 194.128 182.708 207.399C168.295 215.079 152.605 221.217 138.859 224.355C144.366 219.236 149.894 214.114 155.128 208.802ZM123.564 32.1582C147.458 32.8103 170.679 42.6174 171.068 43.2399C171.523 43.967 164.978 41.8765 166.342 47.0573C167.706 52.2388 175.25 56.6932 172.705 57.5109C170.16 58.3287 172.432 60.4192 172.886 61.4197C173.341 62.419 172.433 65.8735 170.796 66.0549C169.16 66.237 169.16 66.4191 163.433 64.6008C160.23 63.5839 156.429 63.2216 153.526 63.7679C143.321 50.6656 132.43 39.9555 123.564 32.1582Z" fill="#2C6389"/>
<path fill-rule="evenodd" clip-rule="evenodd" d="M159.442 204.297C159.857 205.053 160.459 205.405 161.307 205.274C166.033 204.547 183.304 190.549 184.031 183.095C184.758 175.641 186.758 177.641 192.394 168.915C198.03 160.189 201.301 152.189 197.484 153.826C193.667 155.462 191.485 158.734 189.121 156.007C188.3 155.059 187.017 152.792 185.746 150.041C184.287 172.559 173.319 189.346 159.442 204.297ZM179.396 47.839C179.032 49.3845 178.578 51.7478 175.214 49.4753C171.851 47.2033 168.761 47.2941 169.942 49.5666C171.124 51.8392 185.486 64.5647 183.668 66.0188C181.85 67.4736 174.123 57.2021 175.033 60.1109C175.942 63.0198 177.123 64.6561 174.487 65.201C171.851 65.7466 172.669 72.4729 170.578 74.2912C168.488 76.1089 165.67 73.6543 166.669 72.9272C167.67 72.2001 171.397 70.746 168.397 69.0191C166.536 67.948 160.166 66.6325 155.834 66.785C167.211 81.9702 177.452 100.148 182.66 120.58L182.672 120.631C184 120.582 184.927 120.801 184.849 122.83C184.806 123.938 184.44 124.916 183.85 125.748C184.351 128.171 184.754 130.534 185.068 132.845C186.766 133.799 188.805 136.875 190.576 142.19C193.849 152.007 194.394 154.007 199.666 146.554C204.939 139.1 207.12 133.827 202.757 133.827C198.394 133.827 195.667 135.1 195.121 130.736C194.576 126.373 195.667 123.283 198.939 127.283C202.212 131.282 204.757 125.465 209.12 128.555C213.483 131.646 215.119 138.372 213.846 144.19C212.574 150.007 216.209 156.916 217.482 142.009C218.755 127.101 217.483 125.827 220.21 130.372C222.937 134.917 220.028 137.826 220.937 140.735C221.846 143.643 222.573 147.825 223.846 135.827C225.119 123.828 228.392 115.283 216.756 91.4674C205.122 67.6519 194.578 60.3793 189.67 54.9251C184.761 49.4715 177.489 45.2899 179.396 47.839Z" fill="#10CD5E"/>
<path fill-rule="evenodd" clip-rule="evenodd" d="M195.122 182.183C193.122 186.91 188.032 197.272 185.123 195.272C182.214 193.273 189.941 187.455 190.577 185.637C191.214 183.819 192.213 181.91 193.668 181.638C195.122 181.365 195.849 181.274 195.122 182.183Z" fill="#00D959"/>
<path fill-rule="evenodd" clip-rule="evenodd" d="M211.206 152.784C211.846 160.445 212.009 167.537 211.818 174.062C216.117 165.168 218.118 157.893 218.158 156.588C218.248 153.588 216.158 154.407 212.795 153.77C212.148 153.648 211.624 153.3 211.206 152.784ZM208.426 134.104C209.148 137.198 209.745 140.291 210.19 143.371C210.305 142.67 210.448 141.98 210.614 141.317C211.511 137.725 209.558 134.767 208.426 134.104ZM153.496 36.9577C163.781 39.798 170.856 42.8984 171.068 43.2399C171.523 43.9669 164.978 41.8765 166.341 47.0573C167.705 52.2387 175.249 56.6931 172.705 57.5109C170.159 58.3287 172.432 60.4192 172.886 61.4197C172.967 61.5967 173.004 61.8519 173.003 62.1518C165.802 51.9647 158.86 43.306 153.496 36.9577Z" fill="#214767"/>
<path fill-rule="evenodd" clip-rule="evenodd" d="M179.396 47.8396C179.032 49.385 178.578 51.7483 175.214 49.4758C171.852 47.2039 168.761 47.2946 169.943 49.5671C171.124 51.8397 185.486 64.5652 183.668 66.0193C181.85 67.4741 174.123 57.2026 175.033 60.1115C175.871 62.7954 176.942 64.3957 175.031 65.0554C187.432 82.9869 200.215 105.169 206.73 127.624C207.469 127.684 208.259 127.946 209.12 128.556C213.483 131.646 215.119 138.372 213.846 144.19C212.574 150.008 216.209 156.916 217.482 142.009C218.755 127.102 217.483 125.828 220.21 130.373C222.937 134.918 220.028 137.826 220.937 140.736C221.846 143.644 222.573 147.826 223.846 135.827C225.119 123.829 228.392 115.283 216.756 91.4679C205.122 67.6524 194.578 60.3799 189.67 54.9256C184.761 49.472 177.489 45.2904 179.396 47.8396Z" fill="#19C15E"/>
<path fill-rule="evenodd" clip-rule="evenodd" d="M187.486 56.7019C185.248 54.3203 178.215 45.7486 168.305 41.7807C158.396 37.8127 146.568 34.6379 133.462 32.7333C120.355 30.8287 104.373 36.225 90.307 40.3524C76.242 44.4797 67.2916 51.4637 59.6196 60.0354C51.9475 68.6065 44.2756 84.1622 40.7592 81.6225C37.243 79.0828 45.2346 61.94 58.9801 51.1462C72.7257 40.3524 103.733 23.8447 133.462 27.6539C163.191 31.4631 176.936 34.321 194.518 53.3684C212.099 72.4163 224.885 99.7178 225.845 117.496C226.804 135.274 222.009 149.242 219.771 155.909C217.533 162.576 214.337 155.909 215.616 150.83C216.894 145.75 222.328 131.147 219.451 112.734C216.574 94.3215 191.961 59.4003 187.486 56.7019Z" fill="#141C28"/>
<path fill-rule="evenodd" clip-rule="evenodd" d="M214.29 163.6C210.798 170.585 205.083 178.838 206.671 181.695C208.258 184.553 213.814 173.441 215.401 168.679C216.988 163.917 216.829 160.901 214.29 163.6Z" fill="#141C28"/>
<path fill-rule="evenodd" clip-rule="evenodd" d="M203.299 185.31C199.648 187.374 196.791 193.723 199.966 193.088C203.141 192.453 210.125 182.136 203.299 185.31Z" fill="#141C28"/>
<path fill-rule="evenodd" clip-rule="evenodd" d="M41.0237 85.32C41.0237 85.32 32.1476 97.7961 29.8243 112.829C27.5008 127.862 30.8203 186.507 68.9941 205.698C107.168 224.889 110.155 224.736 116.13 225.339C122.105 225.944 119.118 228.823 104.18 225.95C89.2423 223.078 61.1934 211.517 48.9115 193.477C36.6296 175.437 28.4963 160.029 26.6706 139.334C24.845 118.638 32.0613 93.2018 35.2147 88.0582C38.3682 82.9146 42.0193 82.4918 41.0237 85.32Z" fill="#141C28"/>
<path fill-rule="evenodd" clip-rule="evenodd" d="M126.63 223.519C126.63 223.519 144.506 223.795 158.747 218.195C172.987 212.596 179.35 204.319 182.38 203.81C185.41 203.303 185.41 206.636 181.471 209.841C177.532 213.047 170.867 224.042 148.142 226.639C125.417 229.237 121.175 227.736 126.63 223.519Z" fill="#141C28"/>
<path fill-rule="evenodd" clip-rule="evenodd" d="M192.728 196.539C188.396 198.31 184.34 204.938 187.944 204.681C191.548 204.425 200.731 193.985 192.728 196.539Z" fill="#141C28"/>
<path fill-rule="evenodd" clip-rule="evenodd" d="M199.478 202.956C190.615 215.42 175.104 219.021 177.873 222.344C180.644 225.668 197.816 212.927 200.308 207.111C202.801 201.295 201.417 201.295 199.478 202.956Z" fill="#141C28"/>
<path fill-rule="evenodd" clip-rule="evenodd" d="M48.7352 206.003C49.2549 208.37 72.6207 227.903 83.199 229.458C93.7768 231.013 88.5115 227.517 86.2125 226.936C83.9135 226.354 67.9067 220.562 60.1363 213.427C52.3657 206.292 44.5085 200.882 48.7352 206.003Z" fill="#141C28"/>
<path fill-rule="evenodd" clip-rule="evenodd" d="M42.2539 196.259C41.0086 194.826 40.2868 194.364 41.0014 197.62C41.7162 200.875 44.8922 199.092 42.2539 196.259Z" fill="#141C28"/>
<path fill-rule="evenodd" clip-rule="evenodd" d="M29.9128 83.0484C26.9172 87.0744 20.5776 101.04 21.0483 104.315C21.5188 107.59 24.0573 102.432 24.4397 98.5096C24.8221 94.5863 31.3726 85.2353 32.3143 83.3761C33.2562 81.5168 30.967 82.0454 29.9128 83.0484Z" fill="#141C28"/>
<path fill-rule="evenodd" clip-rule="evenodd" d="M117.876 20.8447C117.876 20.8447 145.478 21.103 157.424 26.2687C169.369 31.4338 172.876 34.7604 172.726 32.4135C172.577 30.066 168.922 28.2552 156.858 22.9112C144.794 17.5672 117.682 16.0167 115.513 17.978C113.345 19.94 113.88 20.742 117.876 20.8447Z" fill="#141C28"/>
<path fill-rule="evenodd" clip-rule="evenodd" d="M107.838 18.4654C105.106 19.3872 105.493 20.9326 106.918 21.1399C108.345 21.3472 110.958 19.0885 107.838 18.4654Z" fill="#141C28"/>
</g>
<defs>
<filter id="filter0_dii_49_1702" x="561.328" y="44.7188" width="172.348" height="166.422" filterUnits="userSpaceOnUse" color-interpolation-filters="sRGB">
<feFlood flood-opacity="0" result="BackgroundImageFix"/>
<feColorMatrix in="SourceAlpha" type="matrix" values="0 0 0 0 0 0 0 0 0 0 0 0 0 0 0 0 0 0 127 0" result="hardAlpha"/>
<feOffset dy="7.1875"/>
<feGaussianBlur stdDeviation="4.49219"/>
<feColorMatrix type="matrix" values="0 0 0 0 0 0 0 0 0 0 0 0 0 0 0 0 0 0 0.25 0"/>
<feBlend mode="normal" in2="BackgroundImageFix" result="effect1_dropShadow_49_1702"/>
<feBlend mode="normal" in="SourceGraphic" in2="effect1_dropShadow_49_1702" result="shape"/>
<feColorMatrix in="SourceAlpha" type="matrix" values="0 0 0 0 0 0 0 0 0 0 0 0 0 0 0 0 0 0 127 0" result="hardAlpha"/>
<feOffset dy="-3.59375"/>
<feGaussianBlur stdDeviation="1.79688"/>
<feComposite in2="hardAlpha" operator="arithmetic" k2="-1" k3="1"/>
<feColorMatrix type="matrix" values="0 0 0 0 0 0 0 0 0 0 0 0 0 0 0 0 0 0 0.15 0"/>
<feBlend mode="normal" in2="shape" result="effect2_innerShadow_49_1702"/>
<feColorMatrix in="SourceAlpha" type="matrix" values="0 0 0 0 0 0 0 0 0 0 0 0 0 0 0 0 0 0 127 0" result="hardAlpha"/>
<feOffset dy="-3.59375"/>
<feGaussianBlur stdDeviation="3.59375"/>
<feComposite in2="hardAlpha" operator="arithmetic" k2="-1" k3="1"/>
<feColorMatrix type="matrix" values="0 0 0 0 0.92549 0 0 0 0 0.215686 0 0 0 0 0.313726 0 0 0 0.5 0"/>
<feBlend mode="normal" in2="effect2_innerShadow_49_1702" result="effect3_innerShadow_49_1702"/>
</filter>
<radialGradient id="paint0_radial_49_1702" cx="0" cy="0" r="1" gradientUnits="userSpaceOnUse" gradientTransform="translate(647.5 2) rotate(90) scale(108.062)">
<stop stop-color="#FF7184"/>
<stop offset="1" stop-color="#EC3750"/>
</radialGradient>
<radialGradient id="paint1_radial_49_1702" cx="0" cy="0" r="1" gradientUnits="userSpaceOnUse" gradientTransform="translate(647.5 2) rotate(90) scale(123.5)">
<stop stop-color="white"/>
<stop offset="1" stop-color="white"/>
</radialGradient>
<clipPath id="clip0_49_1702">
<rect width="247" height="247" fill="white" transform="translate(524 2)"/>
</clipPath>
<clipPath id="clip1_49_1702">
<rect width="247.001" height="247" fill="white"/>
</clipPath>
</defs>
</svg>
