<svg width="32" height="32" viewBox="0 0 32 32" fill="none" xmlns="http://www.w3.org/2000/svg">
<g clip-path="url(#clip0)">
<circle cx="16" cy="16" r="15.25" fill="#E42D45" stroke="#F9D5D9" stroke-width="1.5"/>
<path d="M16.1942 8.096C16.1042 8.056 16.0412 8.032 16.0002 8.018V6C16.3582 6 16.7352 6.149 16.9972 6.264C17.2942 6.394 17.6732 6.59 18.0742 6.819C18.8632 7.27 19.8722 7.921 20.9522 8.683C23.1012 10.201 23.5 10.5 25.7072 12.293C26.0982 12.683 26.0982 13.317 25.7072 13.707C25.3172 14.098 24.6832 14.098 24.2932 13.707C22 12 21.8992 11.799 19.7982 10.317C18.7532 9.579 17.8242 8.98 17.0822 8.556C16.7172 8.347 16.4332 8.199 16.1942 8.096Z" fill="white"/>
<path d="M15.8062 8.096C15.8962 8.056 15.9592 8.032 16.0002 8.018V6C15.6422 6 15.2652 6.149 15.0032 6.264C14.7062 6.394 14.3272 6.59 13.9262 6.819C13.1372 7.27 12.1282 7.921 11.0482 8.683C8.89924 10.201 8.50049 10.5 6.29324 12.293C5.90224 12.683 5.90224 13.317 6.29324 13.707C6.68324 14.098 7.31724 14.098 7.70724 13.707C10.0005 12 10.1012 11.799 12.2022 10.317C13.2472 9.579 14.1762 8.98 14.9182 8.556C15.2832 8.347 15.5672 8.199 15.8062 8.096Z" fill="white"/>
<path d="M7 24C7 23.448 7.448 23 8 23H24C24.552 23 25 23.448 25 24C25 24.552 24.552 25 24 25H8C7.448 25 7 24.552 7 24Z" fill="white"/>
<path fill-rule="evenodd" clip-rule="evenodd" d="M16 22C15.448 22 15 21.552 15 21V14C15 13.448 15.448 13 16 13C16.552 13 17 13.448 17 14V21C17 21.552 16.552 22 16 22Z" fill="white"/>
<path fill-rule="evenodd" clip-rule="evenodd" d="M21 22C20.448 22 20 21.552 20 21V14C20 13.448 20.448 13 21 13C21.552 13 22 13.448 22 14V21C22 21.552 21.552 22 21 22Z" fill="white"/>
<path fill-rule="evenodd" clip-rule="evenodd" d="M11 22C10.448 22 10 21.552 10 21V14C10 13.448 10.448 13 11 13C11.552 13 12 13.448 12 14V21C12 21.552 11.552 22 11 22Z" fill="white"/>
</g>
<defs>
<clipPath id="clip0">
<rect width="32" height="32" fill="white"/>
</clipPath>
</defs>
</svg>
