<svg width="71" height="82" viewBox="0 0 71 82" fill="none" xmlns="http://www.w3.org/2000/svg">
<path d="M9.22005 3.85983C9.33464 3.78701 9.42707 3.75844 9.49734 3.7741C9.58323 3.79325 9.69596 3.91264 9.83552 4.13226C9.98373 4.3866 10.0604 4.53894 10.0656 4.58927C10.0777 4.68212 10.1082 5.11514 10.1572 5.88831C10.2087 6.68665 10.2698 7.44204 10.3405 8.15449C10.4707 9.44574 10.494 10.2788 10.4104 10.6536C10.3582 10.8878 10.2557 11.0535 10.1029 11.1506C10.0248 11.2069 9.94669 11.2264 9.8686 11.209C9.66559 11.1637 9.51128 10.9367 9.40569 10.528C9.25941 9.97078 9.14404 9.25657 9.05958 8.38532C8.97685 7.50627 8.93444 6.68537 8.93234 5.92265L8.92988 5.71309L8.68884 6.07737C8.37527 6.56483 8.09217 6.91563 7.83952 7.12979C7.73881 7.2139 7.6416 7.24551 7.5479 7.22462C7.48543 7.21069 7.42429 7.17247 7.36445 7.10996C7.21271 6.94499 7.05204 6.50755 6.88243 5.79765L6.73963 5.22485L6.66533 5.39271C6.45422 5.78825 6.18138 6.35036 5.84683 7.07902C5.56614 7.71314 5.42231 8.04582 5.41535 8.07705C5.41187 8.09267 5.37797 8.17118 5.31367 8.31257C5.2511 8.44616 5.16987 8.60837 5.06995 8.7992C4.97959 8.98397 4.90009 9.13837 4.83146 9.26241C4.70116 9.47926 4.55397 9.64316 4.3899 9.75412C4.22582 9.86508 4.08132 9.90663 3.95639 9.87878C3.85488 9.85616 3.77943 9.79016 3.73004 9.68079C3.68239 9.56362 3.68816 9.37229 3.74734 9.10681C3.75778 9.05996 3.8982 8.63226 4.1686 7.82372C4.36678 7.30235 4.59839 6.75975 4.86341 6.1959C4.9312 6.03889 5.09887 5.72792 5.36644 5.263C5.64355 4.79201 5.84681 4.46848 5.97622 4.29242C6.17336 4.0331 6.39435 3.79549 6.63919 3.57959C6.89184 3.36543 7.06111 3.26792 7.147 3.28707C7.31879 3.32536 7.55672 3.71035 7.86081 4.44204L8.09731 5.03572L8.30574 4.76252C8.59668 4.37658 8.90145 4.07568 9.22005 3.85983ZM13.9829 6.02804C13.9707 6.0827 13.9389 6.3174 13.8875 6.73214C13.836 7.14687 13.8042 7.38157 13.792 7.43623C13.7676 7.54555 13.7567 7.61279 13.7593 7.63796C13.7697 7.66486 13.7914 7.67789 13.8244 7.67705C14.1342 7.64775 14.5389 7.6888 15.0387 7.80019C15.2885 7.85589 15.495 7.92241 15.6581 7.99974C15.9547 8.13964 16.0848 8.29158 16.0482 8.45556C16.0256 8.55706 15.9236 8.66546 15.7422 8.78075C15.6085 8.8657 15.5156 8.91466 15.4635 8.92764C15.4115 8.94063 15.2948 8.931 15.1134 8.89878C14.9069 8.86914 14.5859 8.83856 14.1503 8.80703C13.7165 8.7677 13.49 8.7541 13.4709 8.76624C13.4614 8.77231 13.3852 9.0586 13.2426 9.62513L13.1564 10.0116C13.0868 10.324 13.0641 10.4992 13.0884 10.5374C13.1309 10.6043 13.3668 10.6856 13.7963 10.7813C14.1008 10.8492 14.4058 10.8967 14.7112 10.9238C15.0184 10.9431 15.2344 10.9666 15.3593 10.9945C15.4843 11.0223 15.617 11.0888 15.7575 11.1939C15.9179 11.3198 15.9851 11.4413 15.959 11.5585C15.9364 11.66 15.8478 11.7632 15.6933 11.8681C15.5657 11.9626 15.1977 11.9953 14.5895 11.9663C13.983 11.9294 13.3743 11.847 12.7635 11.7191C12.2247 11.599 11.9076 11.4955 11.8123 11.4087L11.6692 11.2784L11.9199 10.0434C12.3787 7.72772 12.6551 6.35907 12.7491 5.93742C12.8083 5.67194 12.873 5.47327 12.9434 5.34143C13.0659 5.12284 13.2322 4.98368 13.4422 4.92395C13.6618 4.85814 14.0011 4.84362 14.4601 4.88036C14.6857 4.89787 14.9507 4.94056 15.2553 5.00844C15.8955 5.15117 16.3501 5.31807 16.619 5.50915C16.7872 5.63681 16.8592 5.7553 16.8348 5.86462C16.8104 5.97394 16.6989 6.0884 16.5001 6.20802C16.3777 6.27909 16.1577 6.29153 15.8401 6.24533C14.6619 6.08923 14.0428 6.0168 13.9829 6.02804ZM19.4617 7.24934C19.4496 7.304 19.4177 7.5387 19.3663 7.95344C19.3148 8.36817 19.283 8.60287 19.2708 8.65753C19.2464 8.76685 19.2355 8.83409 19.2381 8.85926C19.2485 8.88616 19.2702 8.89919 19.3032 8.89835C19.613 8.86905 20.0177 8.9101 20.5175 9.02149C20.7673 9.07719 20.9738 9.14371 21.1369 9.22104C21.4336 9.36094 21.5636 9.51288 21.5271 9.67686C21.5044 9.77836 21.4024 9.88676 21.221 10.002C21.0873 10.087 20.9944 10.136 20.9423 10.1489C20.8903 10.1619 20.7736 10.1523 20.5922 10.1201C20.3857 10.0904 20.0647 10.0599 19.6291 10.0283C19.1953 9.989 18.9688 9.9754 18.9497 9.98754C18.9402 9.99361 18.8641 10.2799 18.7214 10.8464L18.6352 11.2329C18.5656 11.5453 18.5429 11.7205 18.5672 11.7587C18.6097 11.8256 18.8456 11.9069 19.2751 12.0026C19.5796 12.0705 19.8846 12.118 20.19 12.1451C20.4972 12.1644 20.7132 12.1879 20.8381 12.2158C20.9631 12.2436 21.0958 12.3101 21.2363 12.4152C21.3967 12.5411 21.4639 12.6626 21.4378 12.7798C21.4152 12.8813 21.3266 12.9845 21.1721 13.0894C21.0445 13.1839 20.6765 13.2166 20.0683 13.1876C19.4618 13.1507 18.8531 13.0683 18.2423 12.9404C17.7035 12.8203 17.3865 12.7168 17.2911 12.63L17.148 12.4997L17.3987 11.2647C17.8575 8.94902 18.1339 7.58037 18.2279 7.15872C18.2871 6.89324 18.3519 6.69457 18.4222 6.56273C18.5447 6.34414 18.711 6.20498 18.921 6.14525C19.1406 6.07944 19.4799 6.06492 19.9389 6.10166C20.1645 6.11917 20.4295 6.16186 20.7341 6.22974C21.3743 6.37247 21.8289 6.53937 22.0978 6.73045C22.266 6.85811 22.338 6.9766 22.3136 7.08592C22.2893 7.19524 22.1777 7.3097 21.9789 7.42932C21.8565 7.50039 21.6365 7.51283 21.319 7.46663C20.1407 7.31053 19.5216 7.2381 19.4617 7.24934ZM25.9644 7.29729C26.2819 7.34349 26.632 7.40923 27.0146 7.49452C27.3972 7.57981 27.7499 7.67072 28.0726 7.76725C29.0469 8.06639 29.5053 8.34479 29.4478 8.60247C29.4374 8.64932 29.4144 8.69746 29.3788 8.7469C29.1972 9.0097 28.657 9.13516 27.758 9.12329L27.3442 9.1048L26.9055 11.1831L26.7227 12.003C26.5504 12.776 26.4212 13.3005 26.3351 13.5764C26.249 13.8523 26.1521 14.0479 26.0445 14.1632C25.8482 14.3817 25.6564 14.4701 25.469 14.4283L25.4221 14.4179C25.3042 14.3588 25.2123 14.2195 25.1465 13.9999C25.0824 13.7725 25.0643 13.5226 25.0923 13.2502C25.0975 13.2267 25.1067 13.1304 25.1198 12.9612C25.1329 12.792 25.1404 12.6666 25.1422 12.5851C25.1773 11.9864 25.3263 11.0975 25.5891 9.91843L25.6752 9.53192L25.884 8.70555L25.4611 8.5621C25.0048 8.403 24.6344 8.22618 24.3499 8.03162C24.0654 7.83706 23.938 7.67342 23.9676 7.54067C24.0024 7.38451 24.2007 7.28528 24.5626 7.243C24.9245 7.20072 25.3917 7.21882 25.9644 7.29729ZM35.6409 9.45433C35.9585 9.50052 36.3086 9.56627 36.6912 9.65156C37.0738 9.73684 37.4265 9.82775 37.7492 9.92428C38.7234 10.2234 39.1818 10.5018 39.1244 10.7595C39.114 10.8064 39.0909 10.8545 39.0553 10.9039C38.8738 11.1667 38.3336 11.2922 37.4346 11.2803L37.0207 11.2618L36.582 13.3402L36.3993 14.16C36.2269 14.9331 36.0977 15.4575 36.0117 15.7334C35.9256 16.0093 35.8287 16.2049 35.721 16.3202C35.5248 16.5388 35.3329 16.6271 35.1455 16.5854L35.0987 16.5749C34.9807 16.5158 34.8888 16.3765 34.823 16.1569C34.759 15.9296 34.7409 15.6796 34.7689 15.4072C34.7741 15.3838 34.7833 15.2875 34.7964 15.1183C34.8095 14.9491 34.817 14.8237 34.8188 14.7421C34.8539 14.1434 35.0028 13.2545 35.2656 12.0755L35.3518 11.689L35.5606 10.8626L35.1377 10.7191C34.6814 10.56 34.311 10.3832 34.0265 10.1887C33.742 9.9941 33.6146 9.83045 33.6441 9.69771C33.679 9.54154 33.8773 9.44232 34.2392 9.40004C34.601 9.35776 35.0683 9.37585 35.6409 9.45433ZM41.3655 12.132C41.3534 12.1867 41.3215 12.4214 41.2701 12.8361C41.2186 13.2508 41.1868 13.4855 41.1746 13.5402C41.1502 13.6495 41.1393 13.7167 41.1419 13.7419C41.1523 13.7688 41.174 13.7818 41.207 13.781C41.5168 13.7517 41.9215 13.7927 42.4213 13.9041C42.6711 13.9598 42.8776 14.0264 43.0407 14.1037C43.3374 14.2436 43.4674 14.3955 43.4309 14.5595C43.4082 14.661 43.3062 14.7694 43.1248 14.8847C42.9911 14.9696 42.8982 15.0186 42.8461 15.0316C42.7941 15.0446 42.6774 15.035 42.496 15.0027C42.2895 14.9731 41.9685 14.9425 41.5329 14.911C41.0991 14.8717 40.8726 14.8581 40.8535 14.8702C40.844 14.8763 40.7679 15.1626 40.6252 15.7291L40.539 16.1156C40.4694 16.4279 40.4467 16.6032 40.471 16.6414C40.5135 16.7082 40.7494 16.7895 41.1789 16.8853C41.4834 16.9531 41.7884 17.0006 42.0938 17.0277C42.401 17.047 42.617 17.0706 42.7419 17.0984C42.8669 17.1263 42.9996 17.1928 43.1401 17.2978C43.3005 17.4238 43.3677 17.5453 43.3416 17.6624C43.319 17.7639 43.2304 17.8671 43.0759 17.972C42.9483 18.0665 42.5803 18.0993 41.9721 18.0702C41.3656 18.0334 40.7569 17.951 40.1461 17.823C39.6073 17.7029 39.2903 17.5994 39.1949 17.5126L39.0518 17.3824L39.3025 16.1473C39.7613 13.8317 40.0377 12.463 40.1317 12.0414C40.1909 11.7759 40.2557 11.5772 40.326 11.4454C40.4485 11.2268 40.6148 11.0876 40.8248 11.0279C41.0444 10.9621 41.3837 10.9476 41.8427 10.9843C42.0683 11.0018 42.3333 11.0445 42.6379 11.1124C43.2781 11.2551 43.7327 11.422 44.0016 11.6131C44.1698 11.7408 44.2418 11.8593 44.2174 11.9686C44.1931 12.0779 44.0815 12.1924 43.8827 12.312C43.7603 12.383 43.5403 12.3955 43.2228 12.3493C42.0445 12.1932 41.4254 12.1208 41.3655 12.132ZM47.7329 13.9448C47.7217 13.8849 47.6992 13.8389 47.6654 13.8068C47.6411 13.7686 47.6125 13.7499 47.5795 13.7508C47.5483 13.7438 47.5252 13.7551 47.5105 13.7846C47.4227 13.9207 47.2338 14.272 46.9436 14.8385C46.6534 15.4049 46.5022 15.7154 46.49 15.7701L46.5135 15.7753C46.5993 15.7945 46.8358 15.8185 47.2228 15.8474C47.6098 15.8763 47.8059 15.879 47.8111 15.8556C47.825 15.7931 47.8295 15.5892 47.8245 15.2438C47.8291 14.8924 47.8245 14.6373 47.8107 14.4785C47.8004 14.3041 47.7745 14.1262 47.7329 13.9448ZM47.5572 11.9754C47.6961 11.9408 47.7889 11.9287 47.8358 11.9391C47.8904 11.9513 47.9715 12.0104 48.0791 12.1163C48.1944 12.224 48.2885 12.3351 48.3613 12.4497C48.422 12.5452 48.4956 12.7665 48.5821 13.1136C48.6687 13.4608 48.7305 13.7901 48.7676 14.1017C48.8331 14.7638 48.8478 15.5252 48.8116 16.386C48.7833 17.2485 48.71 17.9452 48.5916 18.4762C48.5307 18.7495 48.4325 18.9694 48.297 19.1359C48.0582 19.4351 47.8021 19.5542 47.5288 19.4933C47.4273 19.4707 47.3454 19.4155 47.283 19.3278C47.2205 19.2402 47.1937 19.1399 47.2025 19.0271C47.1999 19.002 47.2456 18.7048 47.3397 18.1356L47.4664 17.4016L46.8261 17.4064C46.3662 17.4104 46.1267 17.4185 46.1076 17.4307C46.0694 17.4549 46.0442 17.4944 46.032 17.5491C45.9902 17.7365 45.8373 18.0179 45.5733 18.3935C45.318 18.73 45.0771 18.873 44.8506 18.8225C44.7491 18.7999 44.6689 18.7369 44.61 18.6336C44.5424 18.4956 44.5286 18.3368 44.5686 18.1572C44.5947 18.0401 44.6234 17.9482 44.6547 17.8814C45.6629 15.4177 46.237 14.0006 46.3769 13.6302C46.6055 13.0091 46.7667 12.6352 46.8605 12.5086C47.0473 12.2224 47.2795 12.0446 47.5572 11.9754ZM55.2363 14.1175C55.3509 14.0446 55.4433 14.0161 55.5136 14.0317C55.5995 14.0509 55.7122 14.1703 55.8518 14.3899C55.9878 14.6251 56.0606 14.7766 56.0701 14.8443C56.0822 14.9371 56.1127 15.3702 56.1617 16.1433C56.2132 16.9417 56.2743 17.6971 56.345 18.4095C56.4778 19.7259 56.505 20.5598 56.4267 20.9112C56.3953 21.0518 56.3449 21.1676 56.2755 21.2586C56.1556 21.4286 56.0254 21.498 55.8848 21.4666C55.6818 21.4214 55.5275 21.1944 55.4219 20.7856C55.2756 20.2284 55.1603 19.5142 55.0758 18.643C54.9931 17.7639 54.9507 16.943 54.9486 16.1803L54.9461 15.9707L54.6934 16.3324C54.3668 16.8415 54.0876 17.1932 53.8558 17.3874C53.755 17.4715 53.6578 17.5031 53.5641 17.4823C53.5017 17.4683 53.4405 17.4301 53.3807 17.3676C53.2289 17.2026 53.0683 16.7652 52.8987 16.0553L52.7559 15.4825L52.6699 15.6477C52.5291 15.9114 52.2289 16.5412 51.7692 17.537C51.3356 18.4895 51.0128 19.147 50.8008 19.5096C50.6688 19.7343 50.5207 19.9021 50.3567 20.013C50.2004 20.1257 50.0598 20.1681 49.9349 20.1403C49.7006 20.0881 49.6144 19.8681 49.6763 19.4802C49.6798 19.4646 49.682 19.4364 49.6829 19.3956C49.6916 19.3566 49.6985 19.3254 49.7037 19.3019C49.7333 19.1692 49.8989 18.702 50.2006 17.9004C50.3544 17.4676 50.6277 16.8851 51.0204 16.153C51.4131 15.4209 51.738 14.8827 51.9951 14.5383C52.1827 14.2851 52.4028 14.0514 52.6554 13.8372C52.9081 13.6231 53.0773 13.5256 53.1632 13.5447C53.335 13.583 53.573 13.968 53.877 14.6997L54.1135 15.2934L54.322 15.0202C54.6129 14.6342 54.9177 14.3333 55.2363 14.1175ZM60.75 15.2851C60.967 15.2679 61.216 15.2906 61.4971 15.3532C61.7782 15.4159 62.0367 15.5063 62.2726 15.6245C62.7211 15.8556 63.0706 16.1261 63.3212 16.4361C63.4114 16.5463 63.4425 16.6639 63.4147 16.7889C63.3973 16.8669 63.3521 16.9593 63.2791 17.066C63.1367 17.2637 62.9249 17.3313 62.6438 17.2686C62.4642 17.2286 62.2317 17.1317 61.9464 16.9779C61.5586 16.7685 61.2828 16.6456 61.1188 16.609C61.0251 16.5881 60.9366 16.5807 60.8533 16.5867C60.6615 16.6013 60.4927 16.6785 60.3468 16.8181C60.2009 16.9577 60.1063 17.1251 60.0627 17.3203C59.9949 17.6248 60.0663 17.8743 60.277 18.0688C60.4279 18.2008 60.7805 18.3655 61.3349 18.5628C61.7227 18.6985 61.9924 18.8119 62.1442 18.9031C62.296 18.9943 62.4166 19.1154 62.5058 19.2665C62.7711 19.6944 62.8349 20.2168 62.6974 20.8337C62.5617 21.4428 62.2937 21.8543 61.8935 22.0684C61.5411 22.2521 61.0595 22.3537 60.4486 22.3733C60.1848 22.3801 59.9904 22.3695 59.8655 22.3417C59.8343 22.3347 59.7111 22.2991 59.4959 22.2347C59.0535 22.0869 58.674 21.8957 58.3574 21.6613C58.0426 21.419 57.864 21.1906 57.8216 20.9763C57.7931 20.847 57.7936 20.7159 57.8232 20.5832C57.8562 20.4348 57.9262 20.3234 58.0329 20.2488C58.1415 20.1665 58.2699 20.1418 58.4183 20.1749C58.5042 20.194 58.77 20.3435 59.2158 20.6232C59.6478 20.8916 59.9948 21.0632 60.2568 21.138L60.6354 21.2593L60.9779 21.102C61.4362 20.8845 61.6906 20.6625 61.741 20.4361C61.7619 20.3424 61.7581 20.2678 61.7295 20.2122C61.5917 19.911 61.1047 19.5771 60.2684 19.2103C59.9388 19.0713 59.6907 18.934 59.5242 18.7985C59.2744 18.5953 59.0707 18.3327 58.913 18.0107C58.7631 17.6904 58.7125 17.4209 58.7612 17.2023C58.7908 17.0696 58.8664 16.8774 58.9881 16.6258C59.1175 16.376 59.2387 16.1817 59.3516 16.043C59.7068 15.5894 60.1729 15.3368 60.75 15.2851ZM9.41806 13.9896C9.53872 13.9263 9.64199 13.9043 9.72788 13.9234C9.86843 13.9547 9.99461 14.0689 10.1064 14.266C10.22 14.4552 10.2858 14.6748 10.3038 14.9247C10.3245 15.1998 10.2277 15.8175 10.0137 16.778C9.79782 17.7462 9.59865 18.4559 9.41613 18.907C9.23102 19.3329 8.96654 19.7288 8.62268 20.0948C8.28663 20.4625 7.97584 20.6801 7.69032 20.7476C7.47596 20.7899 7.25556 20.7859 7.02912 20.7354C6.75583 20.6745 6.48388 20.5524 6.21327 20.3691C5.30083 19.7559 4.92962 18.8289 5.09964 17.5882C5.12585 17.3236 5.13463 17.1739 5.12597 17.1392C5.1104 17.0619 5.15406 16.6455 5.25695 15.8898C5.36765 15.1358 5.45607 14.6104 5.52221 14.3137C5.59358 13.9936 5.65577 13.7697 5.70878 13.6422C5.7696 13.5164 5.86208 13.4141 5.98622 13.3352C6.12945 13.2442 6.27135 13.2144 6.4119 13.2457C6.63053 13.2944 6.77317 13.4451 6.83982 13.6976C6.9004 13.9406 6.84185 14.571 6.66416 15.5887C6.44296 16.8016 6.31573 17.6298 6.28246 18.0732C6.25094 18.5088 6.28805 18.8203 6.39378 19.0078C6.5134 19.2066 6.68252 19.3303 6.90116 19.3791C7.04171 19.4104 7.17621 19.3953 7.30468 19.3338C7.7873 19.0807 8.2427 17.9938 8.67088 16.0729C8.71962 15.8543 8.79362 15.4856 8.89288 14.9667L8.93988 14.7559C9.02517 14.3733 9.18456 14.1178 9.41806 13.9896ZM13.457 14.9883C13.674 14.9711 13.923 14.9938 14.2041 15.0564C14.4852 15.1191 14.7437 15.2095 14.9797 15.3277C15.4281 15.5588 15.7776 15.8293 16.0282 16.1393C16.1184 16.2495 16.1495 16.3671 16.1217 16.4921C16.1043 16.5701 16.0591 16.6625 15.9861 16.7692C15.8437 16.9669 15.6319 17.0345 15.3508 16.9718C15.1712 16.9318 14.9388 16.8349 14.6534 16.6811C14.2656 16.4717 13.9898 16.3488 13.8258 16.3122C13.7321 16.2913 13.6436 16.2839 13.5603 16.2899C13.3685 16.3045 13.1997 16.3817 13.0538 16.5213C12.908 16.6609 12.8133 16.8283 12.7698 17.0235C12.7019 17.328 12.7733 17.5775 12.984 17.772C13.1349 17.904 13.4875 18.0687 14.0419 18.266C14.4297 18.4017 14.6995 18.5151 14.8512 18.6063C15.003 18.6975 15.1236 18.8186 15.2128 18.9697C15.4781 19.3976 15.542 19.92 15.4045 20.5369C15.2687 21.146 15.0007 21.5575 14.6006 21.7716C14.2481 21.9553 13.7665 22.0569 13.1556 22.0765C12.8918 22.0833 12.6974 22.0727 12.5725 22.0449C12.5413 22.0379 12.4181 22.0023 12.2029 21.9379C11.7605 21.7901 11.381 21.5989 11.0644 21.3645C10.7496 21.1222 10.571 20.8938 10.5286 20.6795C10.5001 20.5502 10.5006 20.4191 10.5302 20.2864C10.5633 20.138 10.6332 20.0266 10.74 19.952C10.8485 19.8697 10.9769 19.845 11.1253 19.8781C11.2112 19.8972 11.477 20.0467 11.9229 20.3264C12.3548 20.5948 12.7018 20.7664 12.9638 20.8412L13.3425 20.9625L13.6849 20.8052C14.1432 20.5877 14.3976 20.3657 14.448 20.1393C14.4689 20.0456 14.4651 19.971 14.4365 19.9154C14.2987 19.6142 13.8117 19.2803 12.9755 18.9135C12.6458 18.7745 12.3977 18.6372 12.2312 18.5017C11.9815 18.2985 11.7777 18.0359 11.62 17.7139C11.4701 17.3936 11.4195 17.1241 11.4683 16.9055C11.4978 16.7728 11.5735 16.5806 11.6951 16.329C11.8246 16.0792 11.9457 15.8849 12.0586 15.7462C12.4138 15.2926 12.88 15.04 13.457 14.9883ZM19.1468 16.2566C19.3126 16.2854 19.6375 16.3537 20.1216 16.4616C21.1367 16.6879 21.7492 16.8449 21.9591 16.9327C22.1161 17.0005 22.2354 17.0721 22.3169 17.1477C22.4158 17.2189 22.4561 17.3139 22.4378 17.4328L22.4247 17.4914C22.4056 17.5773 22.3348 17.6557 22.2124 17.7268C21.9659 17.8768 21.5966 17.8969 21.1047 17.7873C20.8236 17.7246 20.6805 17.705 20.6752 17.7284C20.6648 17.7753 20.653 17.9202 20.6398 18.1631C20.6082 18.7462 20.5045 19.4321 20.3287 20.2207C20.2869 20.4081 20.2147 20.6953 20.112 21.0822C19.9711 21.6409 19.8911 21.9632 19.8719 22.0491L19.8484 22.1545C19.851 22.1797 19.9846 22.2423 20.2492 22.3422C20.604 22.4787 20.8768 22.6338 21.0676 22.8074C21.2601 22.9733 21.3398 23.1304 21.3068 23.2788C21.2876 23.3647 21.2238 23.4488 21.1153 23.5312C20.8731 23.6985 20.1976 23.6585 19.0888 23.4114C19.0341 23.3992 18.9404 23.3783 18.8077 23.3487C18.6767 23.3113 18.576 23.2848 18.5058 23.2691C17.7362 23.0812 17.2491 22.9316 17.0444 22.8204C16.5525 22.5632 16.3284 22.3371 16.3719 22.1418C16.3841 22.0872 16.4206 22.0338 16.4813 21.9818C16.7132 21.7876 17.2013 21.712 17.9458 21.755L18.3714 21.7761L18.8726 19.6379L19.3738 17.4998L18.6737 17.3314C18.3006 17.24 18.0442 17.1583 17.9046 17.0862C17.7649 17.0141 17.6713 16.9194 17.6236 16.8023C17.5925 16.7216 17.622 16.6257 17.7123 16.5147C17.8478 16.3482 18.0179 16.2468 18.2228 16.2104C18.4276 16.1741 18.7356 16.1895 19.1468 16.2566ZM27.7887 18.0969C27.8808 18.0519 27.9502 18.0346 27.997 18.045C28.1376 18.0763 28.1843 18.2712 28.1372 18.6295C28.0979 18.9896 27.9821 19.6564 27.7897 20.6298C27.7688 20.7235 27.7375 20.8641 27.6957 21.0515C27.6635 21.2328 27.6378 21.3664 27.6186 21.4523C27.3715 22.5611 27.1327 23.3931 26.9024 23.9483C26.8259 24.1443 26.723 24.3304 26.5936 24.5065C26.4737 24.6764 26.3782 24.774 26.307 24.7991C26.2801 24.8095 26.2433 24.8095 26.1964 24.799C25.7904 24.7085 25.2909 23.5481 24.698 21.3176L24.4838 20.4584L24.3401 21.2133C24.2426 21.7243 24.2012 22.0019 24.2159 22.0462C24.2332 22.1156 24.2192 22.2518 24.174 22.4549C24.1427 22.5954 24.0766 22.8184 23.9757 23.1237C23.7949 23.6408 23.5461 23.9665 23.2293 24.1007C23.1008 24.1623 22.9819 24.1808 22.8726 24.1565C22.7242 24.1234 22.6319 24.0045 22.5956 23.7997C22.5541 23.6183 22.5646 23.387 22.6273 23.1059C22.676 22.8873 22.7447 22.6526 22.8334 22.4019C23.0047 21.8909 23.1904 21.1865 23.3906 20.2885C23.5002 19.7966 23.5816 19.4131 23.6347 19.1381C23.6635 18.9724 23.7031 18.7763 23.7535 18.5498C23.8092 18.3 23.8736 18.1217 23.9465 18.015C24.1037 17.7878 24.2604 17.6916 24.4166 17.7264C24.5259 17.7507 24.6191 17.8289 24.6963 17.9608C24.8852 18.2898 25.2286 19.268 25.7265 20.8953C26.0088 21.8352 26.1733 22.3104 26.2202 22.3208C26.228 22.3226 26.2327 22.3196 26.2345 22.3117C26.238 22.2961 26.2619 22.2072 26.3062 22.045C26.3524 21.8749 26.4115 21.6463 26.4837 21.3592C26.5577 21.0642 26.629 20.7809 26.6977 20.5094L27.1232 18.8215L27.3824 18.4858C27.5552 18.2621 27.6907 18.1325 27.7887 18.0969ZM31.0698 19.0742C31.2511 19.0327 31.4433 19.0345 31.6463 19.0798C32.068 19.1738 32.3598 19.3905 32.5219 19.7299C32.6857 20.0614 32.7388 20.3561 32.6814 20.6137C32.6431 20.7855 32.5762 20.9018 32.4807 20.9624C32.3852 21.0231 32.3258 21.0508 32.3024 21.0456C32.2165 21.0265 32.0595 20.8849 31.8315 20.621C31.7014 20.4691 31.5622 20.3766 31.4138 20.3435C31.2108 20.2982 30.9921 20.3601 30.7577 20.5292C30.6492 20.6115 30.5376 20.726 30.423 20.8726C30.3083 21.0191 30.231 21.1453 30.1911 21.2512C30.1111 21.4629 30.0459 21.645 29.9955 21.7977C29.9415 21.966 29.9041 22.097 29.8833 22.1907C29.7893 22.6124 29.763 23.0245 29.8043 23.4272C29.8535 23.8316 29.9622 24.1345 30.1304 24.3359C30.2206 24.4462 30.3945 24.53 30.6522 24.5874C30.9255 24.6484 31.0999 24.6749 31.1754 24.6672C31.2579 24.6282 31.3065 24.5939 31.3212 24.5645C31.3369 24.4942 31.35 24.325 31.3606 24.0569L31.3738 23.8877L31.0276 23.7859C30.3665 23.5894 30.0656 23.3584 30.1248 23.0929C30.1474 22.9914 30.2264 22.8942 30.3618 22.8015L30.5507 22.6714L31.027 22.7407C31.1146 22.7521 31.2842 22.7817 31.5358 22.8296C31.7892 22.8697 31.9636 22.8963 32.059 22.9093C32.1623 22.9241 32.3037 22.9516 32.4833 22.9916C32.6238 23.0229 32.7011 23.0442 32.7149 23.0555C32.7817 23.0868 32.8298 23.1467 32.8593 23.2353C32.8965 23.3255 32.9056 23.4136 32.8865 23.4995C32.8847 23.5073 32.8782 23.5181 32.8669 23.532C32.8634 23.5476 32.8608 23.5593 32.8591 23.5672C32.8261 23.6418 32.7475 23.7185 32.6233 23.7974C32.507 23.878 32.4176 23.9114 32.3551 23.8974C32.3161 23.8887 32.2931 23.9 32.2861 23.9312C32.2722 23.9937 32.2648 24.1191 32.2638 24.3074C32.2593 24.5113 32.2344 24.7147 32.1892 24.9178C32.1526 25.0817 32.1191 25.2136 32.0887 25.3134C31.946 25.8799 31.7857 26.213 31.6077 26.3127C31.5444 26.3395 31.4932 26.3486 31.4541 26.3399C31.3448 26.3155 31.252 26.217 31.1758 26.0443L31.1043 25.8685C30.7772 25.9021 30.5572 25.9146 30.4444 25.9058C30.3004 25.8901 30.1932 25.8744 30.1229 25.8587C29.5451 25.7299 29.1193 25.4342 28.8454 24.9715C28.4865 24.3752 28.4185 23.5772 28.6413 22.5778C28.6483 22.5465 28.6604 22.4919 28.6778 22.4138C28.7031 22.3375 28.72 22.2798 28.7287 22.2407C28.9018 21.5744 29.1491 20.9615 29.4705 20.4021C29.7138 19.9727 29.9648 19.6557 30.2235 19.4511C30.4631 19.2586 30.7452 19.133 31.0698 19.0742ZM40.1116 24.9379C40.0066 24.8572 39.837 24.7907 39.6028 24.7385C39.3373 24.6793 39.0544 24.6613 38.7542 24.6845L38.4171 24.7077L38.3126 25.1762C38.2291 25.5511 38.1746 25.8504 38.1493 26.0742L38.0788 26.5011L38.3443 26.5234C38.8736 26.5758 39.3157 26.5596 39.6706 26.4748C39.8425 26.4394 39.9961 26.3752 40.1315 26.2825C40.2687 26.1819 40.3581 26.0748 40.3998 25.9612C40.4146 25.9317 40.4281 25.8896 40.4403 25.8349C40.5238 25.4601 40.4143 25.1611 40.1116 24.9379ZM40.4583 22.2244C40.3689 22.1471 40.1837 22.0771 39.9026 22.0144C39.5903 21.9448 39.2662 21.9095 38.9304 21.9084L38.7729 21.8979L38.7412 22.7022C38.72 23.2385 38.7359 23.5166 38.7888 23.5366L38.8122 23.5418C39.0308 23.5905 39.358 23.5569 39.7937 23.4409C39.9941 23.3872 40.1621 23.314 40.2975 23.2213C40.4425 23.1225 40.5411 22.9928 40.5932 22.8323L40.6167 22.7269C40.662 22.5239 40.6092 22.3564 40.4583 22.2244ZM39.9685 20.8366C40.2271 20.8532 40.4461 20.8816 40.6257 20.9216C41.0474 21.0156 41.3861 21.169 41.642 21.3817C41.7686 21.4755 41.8514 21.6374 41.8902 21.8674C41.9309 22.0895 41.926 22.3138 41.8755 22.5403C41.825 22.7667 41.7533 22.9597 41.6603 23.1193C41.5691 23.2711 41.4185 23.4507 41.2083 23.6579C40.9826 23.8617 40.8662 23.9792 40.8593 24.0104C40.8541 24.0338 40.9 24.0851 40.9972 24.1641C41.2114 24.343 41.3591 24.6177 41.4405 24.9883C41.5313 25.3528 41.5359 25.7185 41.454 26.0855C41.4488 26.1089 41.4371 26.1432 41.4188 26.1883C41.4101 26.2274 41.4032 26.2586 41.3979 26.282C41.1397 27.1097 40.3281 27.5517 38.9631 27.608C38.583 27.6217 38.1939 27.5841 37.7957 27.4953C37.3896 27.4048 37.135 27.3153 37.0318 27.2267L36.8627 27.1029L36.945 26.568C37.1759 25.1278 37.3681 23.8428 37.5216 22.7131C37.5896 22.1873 37.6576 21.7722 37.7254 21.4677L37.7463 21.374C37.8202 21.1527 38.0212 21.0049 38.3493 20.9305C38.7372 20.8449 39.2769 20.8135 39.9685 20.8366ZM45.5172 23.6963C45.5059 23.6364 45.4834 23.5904 45.4496 23.5583C45.4253 23.5201 45.3967 23.5014 45.3637 23.5023C45.3325 23.4953 45.3095 23.5066 45.2947 23.5361C45.207 23.6722 45.018 24.0236 44.7278 24.59C44.4376 25.1564 44.2864 25.467 44.2743 25.5216L44.2977 25.5268C44.3836 25.546 44.62 25.57 45.007 25.5989C45.394 25.6278 45.5901 25.6305 45.5953 25.6071C45.6092 25.5446 45.6137 25.3407 45.6087 24.9954C45.6133 24.6439 45.6087 24.3888 45.5949 24.23C45.5846 24.0556 45.5587 23.8777 45.5172 23.6963ZM45.3415 21.7269C45.4803 21.6923 45.5732 21.6802 45.62 21.6906C45.6747 21.7028 45.7558 21.7619 45.8633 21.8678C45.9786 21.9755 46.0727 22.0866 46.1455 22.2012C46.2062 22.2967 46.2798 22.518 46.3664 22.8652C46.4529 23.2123 46.5147 23.5416 46.5518 23.8532C46.6173 24.5153 46.632 25.2767 46.5959 26.1375C46.5675 27 46.4942 27.6967 46.3758 28.2277C46.3149 28.501 46.2167 28.7209 46.0812 28.8874C45.8424 29.1866 45.5864 29.3057 45.3131 29.2448C45.2116 29.2222 45.1296 29.167 45.0672 29.0794C45.0048 28.9917 44.9779 28.8914 44.9867 28.7786C44.9841 28.7535 45.0299 28.4563 45.1239 27.8872L45.2507 27.1531L44.6103 27.1579C44.1504 27.162 43.9109 27.17 43.8918 27.1822C43.8536 27.2065 43.8284 27.2459 43.8162 27.3006C43.7745 27.488 43.6216 27.7695 43.3575 28.145C43.1022 28.4815 42.8613 28.6245 42.6349 28.5741C42.5334 28.5514 42.4531 28.4885 42.3942 28.3852C42.3266 28.2472 42.3128 28.0883 42.3529 27.9088C42.379 27.7916 42.4077 27.6997 42.4389 27.6329C43.4471 25.1692 44.0212 23.7522 44.1611 23.3817C44.3898 22.7606 44.551 22.3867 44.6448 22.2601C44.8315 21.9739 45.0637 21.7961 45.3415 21.7269ZM52.7122 23.6527C52.8042 23.6076 52.8736 23.5903 52.9205 23.6008C53.061 23.6321 53.1078 23.8269 53.0607 24.1853C53.0214 24.5454 52.9055 25.2121 52.7131 26.1856C52.6922 26.2793 52.6609 26.4198 52.6191 26.6072C52.5869 26.7886 52.5612 26.9222 52.5421 27.0081C52.2949 28.1169 52.0562 28.9489 51.8259 29.504C51.7494 29.7001 51.6464 29.8862 51.517 30.0622C51.3972 30.2322 51.3016 30.3298 51.2305 30.3549C51.2036 30.3653 51.1667 30.3653 51.1198 30.3548C50.7138 30.2643 50.2143 29.1038 49.6214 26.8734L49.4072 26.0142L49.2635 26.769C49.166 27.2801 49.1246 27.5577 49.1393 27.602C49.1567 27.6714 49.1427 27.8076 49.0974 28.0106C49.0661 28.1512 49 28.3741 48.8991 28.6795C48.7183 29.1966 48.4695 29.5222 48.1527 29.6565C48.0242 29.718 47.9053 29.7366 47.796 29.7122C47.6477 29.6792 47.5553 29.5602 47.519 29.3554C47.4775 29.174 47.4881 28.9428 47.5507 28.6617C47.5994 28.4431 47.6682 28.2084 47.7568 27.9577C47.9281 27.4467 48.1138 26.7422 48.314 25.8443C48.4237 25.3524 48.505 24.9689 48.5581 24.6938C48.5869 24.5281 48.6265 24.332 48.677 24.1056C48.7327 23.8557 48.797 23.6775 48.87 23.5708C49.0272 23.3435 49.1839 23.2473 49.34 23.2821C49.4493 23.3065 49.5426 23.3847 49.6197 23.5166C49.8087 23.8456 50.1521 24.8238 50.6499 26.4511C50.9322 27.391 51.0967 27.8662 51.1436 27.8766C51.1514 27.8784 51.1562 27.8753 51.1579 27.8675C51.1614 27.8519 51.1853 27.763 51.2297 27.6007C51.2758 27.4307 51.3349 27.2021 51.4072 26.9149C51.4811 26.6199 51.5524 26.3367 51.6212 26.0651L52.0466 24.3773L52.3058 24.0416C52.4787 23.8179 52.6141 23.6882 52.7122 23.6527ZM54.6047 24.1852C54.7002 24.1245 54.8104 24.1081 54.9353 24.136C55.2086 24.1969 55.4228 24.3758 55.578 24.6727C55.7435 24.9964 55.8155 25.6477 55.794 26.6265C55.7912 26.9701 55.8015 27.1445 55.8249 27.1497C55.8405 27.1532 55.956 27.0027 56.1714 26.6983C56.4355 26.3228 56.7095 25.9945 56.9934 25.7136C57.2791 25.4248 57.5074 25.2462 57.6784 25.1778C57.7591 25.1466 57.8229 25.1362 57.8697 25.1466C57.9634 25.1675 58.0285 25.2435 58.0648 25.3745C58.1012 25.5056 58.1037 25.6414 58.0724 25.7819C58.0167 26.0318 57.7374 26.531 57.2345 27.2795L56.8358 27.8546L56.9437 27.977C57.1076 28.161 57.2792 28.4575 57.4586 28.8663C57.6397 29.2673 57.7782 29.6752 57.8743 30.0901C57.9876 30.5743 58.0147 30.9492 57.9555 31.2147C57.8668 31.6129 57.674 31.7789 57.3773 31.7128C57.2836 31.6919 57.2086 31.6424 57.1522 31.5643C57.0959 31.4861 57.0209 31.326 56.9274 31.0838C56.8399 30.8512 56.7615 30.6698 56.6922 30.5396C56.6306 30.4112 56.5401 30.2475 56.4204 30.0488C56.3026 29.8422 56.1825 29.6269 56.0603 29.4029C55.7509 28.8422 55.5806 28.5583 55.5494 28.5514C55.5259 28.5461 55.4968 28.6216 55.462 28.7778L55.4255 28.9418C55.2636 29.6679 55.0142 30.2353 54.6772 30.6437C54.3681 31.001 54.0964 31.1536 53.8621 31.1014C53.7841 31.0839 53.7259 31.0505 53.6878 31.001C53.5699 30.8682 53.5361 30.6885 53.5866 30.4621C53.6197 30.3137 53.6936 30.0925 53.8083 29.7984C53.9952 29.2909 54.1426 28.7951 54.2505 28.311C54.3532 27.8503 54.4134 27.4703 54.4309 27.1709C54.4485 26.8716 54.4305 26.4373 54.3771 25.868C54.3211 25.1998 54.3201 24.7447 54.3741 24.5027C54.3863 24.448 54.3989 24.4098 54.4119 24.3881C54.464 24.3014 54.5283 24.2338 54.6047 24.1852ZM60.8372 25.6483C60.9804 25.5573 61.0989 25.5222 61.1926 25.5431C61.2863 25.564 61.3726 25.6365 61.4515 25.7606C61.5668 25.9421 61.6139 26.1534 61.5929 26.3946C61.5719 26.6358 61.4579 27.221 61.2508 28.1502C61.0106 29.2278 60.8509 29.852 60.7718 30.0229C60.5476 30.5139 60.2989 30.7289 60.0256 30.668C59.9397 30.6488 59.853 30.5967 59.7654 30.5116C59.6379 30.3848 59.5734 30.2516 59.5717 30.1119C59.5796 29.9661 59.6532 29.544 59.7925 28.8456C59.8152 28.7441 59.8435 28.5988 59.8774 28.4096C59.9192 28.2222 59.9497 28.0856 59.9688 27.9997C60.2229 26.8597 60.4112 26.1804 60.5337 25.9618C60.6024 25.8377 60.7035 25.7333 60.8372 25.6483ZM59.1253 32.1147C59.127 32.1069 59.1266 32.0904 59.124 32.0653C59.1292 32.0419 59.1327 32.0262 59.1344 32.0184C59.171 31.8545 59.2539 31.7213 59.3833 31.619C59.5127 31.5167 59.6554 31.483 59.8116 31.5178C59.9678 31.5526 60.0827 31.6438 60.1563 31.7913C60.23 31.9389 60.2485 32.0947 60.212 32.2586C60.172 32.4382 60.0756 32.5766 59.9228 32.6736C59.7735 32.7551 59.6481 32.7845 59.5466 32.7619C59.4372 32.7375 59.3323 32.6568 59.2317 32.5196C59.1433 32.4015 59.1078 32.2666 59.1253 32.1147Z" fill="white"/>
<path fill-rule="evenodd" clip-rule="evenodd" d="M59.4768 78.738C60.0991 78.3871 61.9153 68.9567 61.4807 68.3335C60.9229 67.5337 59.8991 68.2416 59.748 69.5323C59.6321 70.5203 59.5039 70.2798 59.1193 68.3539C58.8533 67.0227 58.4528 65.3483 58.229 64.6326C57.8718 63.4893 57.9292 63.1243 58.7026 61.6278C59.9167 59.2771 60.1876 55.9942 59.4272 52.8493C58.8039 50.2712 58.8061 50.2321 59.6591 49.1531C60.1334 48.5529 60.7301 47.0029 60.9855 45.7079C61.38 43.7058 61.6274 43.261 62.6357 42.7367C65.4225 41.2888 66.8351 36.5691 65.6162 32.7786C64.9152 30.5987 64.471 30.1323 63.6783 30.7453C63.1785 31.1313 63.1998 31.5449 63.8118 33.3515C64.2117 34.5324 64.4773 36.0819 64.4018 36.7952C64.2285 38.433 63.0635 40.4607 62.0031 40.9695C61.285 41.3143 61.1164 41.1111 60.5797 39.2559C59.6948 36.1982 57.9779 34.2177 56.0335 34.012C54.0977 33.8071 52.9764 34.3176 52.3595 35.6847C51.2485 38.1461 53.1033 40.9982 56.8205 42.5445L59.3697 43.6048L59.1879 45.3229C59.0879 46.2683 58.7801 47.4181 58.504 47.8788C58.0285 48.6724 57.9178 48.6109 56.414 46.723C54.3308 44.1071 52.3809 43.1546 50.9145 44.0367C47.7406 45.9463 51.9063 51.8854 56.0641 51.3789C57.0592 51.2577 57.2825 51.4251 57.5873 52.5235C58.2115 54.7704 58.2312 57.977 57.6315 59.6699L57.0711 61.2513L56.029 59.2491C54.6742 56.647 52.1894 54.7 50.3919 54.8321C46.5462 55.1153 45.8129 59.8346 49.1277 62.9691C50.3384 64.1141 51.0781 64.4468 52.8047 64.625C53.9935 64.7472 55.2629 64.7188 55.6257 64.561C56.1434 64.3365 56.405 64.7533 56.8449 66.5043C57.153 67.7301 57.4829 69.2398 57.5781 69.8587L57.7511 70.9834L56.6356 69.646C55.3642 68.1216 54.9039 67.9567 54.486 68.8761C54.3107 69.2617 54.5978 70.0676 55.1971 70.8723C55.7496 71.6146 56.7143 73.6471 57.3406 75.3893C58.5903 78.8661 58.7648 79.14 59.4768 78.738ZM54.1012 36.612C53.4162 37.5773 54.7137 39.5844 56.545 40.392C57.2812 40.7166 58.1922 41.016 58.5692 41.0572C59.2136 41.1281 59.2203 41.024 58.6808 39.3465C58.365 38.3644 57.8646 37.2742 57.5684 36.9242C56.7505 35.9567 54.6973 35.772 54.1012 36.612ZM52.7176 48.1294C51.4446 47.0171 51.2711 45.7115 52.4119 45.8322C53.0782 45.9027 56.0907 48.6639 56.0386 49.1565C55.9783 49.7259 53.7591 49.0396 52.7176 48.1294ZM48.8912 58.0509C48.5741 59.4212 50.114 61.727 51.8609 62.4976C52.7266 62.8793 53.0764 63.044 53.4299 63.0426C53.707 63.0414 53.9865 62.9381 54.5188 62.7571C55.6935 62.3571 55.4434 61.457 53.4378 58.8705C52.2538 57.3432 51.7779 57.0366 50.575 57.025C49.4 57.0132 49.0874 57.2039 48.8912 58.0509Z" fill="white"/>
</svg>
