<svg width="525" height="330" viewBox="0 0 525 330" fill="none" xmlns="http://www.w3.org/2000/svg">
<g clip-path="url(#clip0_398_54)">
<rect width="525" height="330" rx="16" fill="black"/>
<path d="M45.0938 217.159V215.384L51.3793 205.455H52.7784V208.068H51.8906L47.3949 215.185V215.298H56.0099V217.159H45.0938ZM51.9901 220V216.619L52.0043 215.81V205.455H54.0852V220H51.9901ZM59.0851 220V218.409L64.007 213.31C64.5325 212.756 64.9658 212.27 65.3067 211.854C65.6523 211.432 65.9104 211.032 66.0808 210.653C66.2513 210.275 66.3365 209.872 66.3365 209.446C66.3365 208.963 66.2229 208.546 65.9956 208.196C65.7683 207.841 65.4582 207.569 65.0652 207.379C64.6722 207.185 64.2295 207.088 63.7371 207.088C63.2162 207.088 62.7617 207.195 62.3734 207.408C61.9852 207.621 61.6869 207.921 61.4786 208.31C61.2702 208.698 61.1661 209.152 61.1661 209.673H59.0709C59.0709 208.788 59.2745 208.014 59.6817 207.351C60.0889 206.688 60.6476 206.174 61.3578 205.81C62.068 205.44 62.8753 205.256 63.7797 205.256C64.6935 205.256 65.4984 205.438 66.1945 205.803C66.8952 206.162 67.4421 206.655 67.8351 207.28C68.2281 207.9 68.4246 208.601 68.4246 209.382C68.4246 209.922 68.3228 210.45 68.1192 210.966C67.9203 211.482 67.5723 212.057 67.0751 212.692C66.578 213.321 65.8867 214.086 65.0013 214.986L62.1107 218.011V218.118H68.6589V220H59.0851ZM71.9507 220V218.409L76.8726 213.31C77.3982 212.756 77.8314 212.27 78.1723 211.854C78.5179 211.432 78.776 211.032 78.9465 210.653C79.1169 210.275 79.2021 209.872 79.2021 209.446C79.2021 208.963 79.0885 208.546 78.8612 208.196C78.6339 207.841 78.3238 207.569 77.9308 207.379C77.5378 207.185 77.0951 207.088 76.6027 207.088C76.0819 207.088 75.6273 207.195 75.2391 207.408C74.8508 207.621 74.5525 207.921 74.3442 208.31C74.1358 208.698 74.0317 209.152 74.0317 209.673H71.9365C71.9365 208.788 72.1401 208.014 72.5473 207.351C72.9545 206.688 73.5132 206.174 74.2234 205.81C74.9337 205.44 75.741 205.256 76.6453 205.256C77.5591 205.256 78.3641 205.438 79.0601 205.803C79.7608 206.162 80.3077 206.655 80.7007 207.28C81.0937 207.9 81.2902 208.601 81.2902 209.382C81.2902 209.922 81.1884 210.45 80.9848 210.966C80.7859 211.482 80.4379 212.057 79.9408 212.692C79.4436 213.321 78.7523 214.086 77.8669 214.986L74.9763 218.011V218.118H81.5246V220H71.9507ZM89.6175 220.199C88.7273 220.199 87.9271 220.028 87.2169 219.688C86.5114 219.342 85.948 218.868 85.5266 218.267C85.1052 217.666 84.8803 216.979 84.8518 216.207H86.9825C87.0346 216.832 87.3116 217.346 87.8135 217.749C88.3154 218.151 88.9167 218.352 89.6175 218.352C90.1762 218.352 90.671 218.224 91.1018 217.969C91.5375 217.708 91.8784 217.351 92.1246 216.896C92.3755 216.442 92.501 215.923 92.501 215.341C92.501 214.749 92.3732 214.221 92.1175 213.757C91.8618 213.293 91.509 212.929 91.0592 212.663C90.6142 212.398 90.1028 212.263 89.5251 212.259C89.0848 212.259 88.6421 212.334 88.197 212.486C87.7519 212.637 87.3921 212.836 87.1175 213.082L85.1075 212.784L85.9243 205.455H93.9214V207.337H87.7496L87.2879 211.406H87.3732C87.6572 211.132 88.0337 210.902 88.5024 210.717C88.9759 210.533 89.4825 210.44 90.0223 210.44C90.9077 210.44 91.6961 210.651 92.3874 211.072C93.0834 211.494 93.6303 212.069 94.028 212.798C94.4304 213.523 94.6293 214.356 94.6246 215.298C94.6293 216.241 94.4162 217.081 93.9854 217.82C93.5592 218.558 92.9674 219.141 92.2098 219.567C91.457 219.988 90.5928 220.199 89.6175 220.199ZM103.712 220V218.409L108.634 213.31C109.159 212.756 109.592 212.27 109.933 211.854C110.279 211.432 110.537 211.032 110.707 210.653C110.878 210.275 110.963 209.872 110.963 209.446C110.963 208.963 110.849 208.546 110.622 208.196C110.395 207.841 110.085 207.569 109.692 207.379C109.299 207.185 108.856 207.088 108.364 207.088C107.843 207.088 107.388 207.195 107 207.408C106.612 207.621 106.313 207.921 106.105 208.31C105.897 208.698 105.793 209.152 105.793 209.673H103.697C103.697 208.788 103.901 208.014 104.308 207.351C104.715 206.688 105.274 206.174 105.984 205.81C106.695 205.44 107.502 205.256 108.406 205.256C109.32 205.256 110.125 205.438 110.821 205.803C111.522 206.162 112.069 206.655 112.462 207.28C112.855 207.9 113.051 208.601 113.051 209.382C113.051 209.922 112.949 210.45 112.746 210.966C112.547 211.482 112.199 212.057 111.702 212.692C111.205 213.321 110.513 214.086 109.628 214.986L106.737 218.011V218.118H113.286V220H103.712ZM121.378 220.199C120.488 220.199 119.688 220.028 118.978 219.688C118.272 219.342 117.709 218.868 117.287 218.267C116.866 217.666 116.641 216.979 116.613 216.207H118.743C118.796 216.832 119.073 217.346 119.574 217.749C120.076 218.151 120.678 218.352 121.378 218.352C121.937 218.352 122.432 218.224 122.863 217.969C123.298 217.708 123.639 217.351 123.886 216.896C124.136 216.442 124.262 215.923 124.262 215.341C124.262 214.749 124.134 214.221 123.878 213.757C123.623 213.293 123.27 212.929 122.82 212.663C122.375 212.398 121.864 212.263 121.286 212.259C120.846 212.259 120.403 212.334 119.958 212.486C119.513 212.637 119.153 212.836 118.878 213.082L116.868 212.784L117.685 205.455H125.682V207.337H119.511L119.049 211.406H119.134C119.418 211.132 119.795 210.902 120.263 210.717C120.737 210.533 121.243 210.44 121.783 210.44C122.669 210.44 123.457 210.651 124.148 211.072C124.844 211.494 125.391 212.069 125.789 212.798C126.191 213.523 126.39 214.356 126.386 215.298C126.39 216.241 126.177 217.081 125.746 217.82C125.32 218.558 124.728 219.141 123.971 219.567C123.218 219.988 122.354 220.199 121.378 220.199ZM134.494 220.199C133.476 220.199 132.577 220.024 131.796 219.673C131.019 219.323 130.411 218.84 129.97 218.224C129.53 217.609 129.312 216.908 129.317 216.122C129.312 215.507 129.438 214.941 129.693 214.425C129.954 213.904 130.306 213.471 130.751 213.125C131.197 212.775 131.694 212.552 132.243 212.457V212.372C131.519 212.197 130.939 211.809 130.503 211.207C130.067 210.606 129.852 209.915 129.857 209.134C129.852 208.39 130.048 207.727 130.446 207.145C130.849 206.558 131.4 206.096 132.101 205.76C132.802 205.424 133.599 205.256 134.494 205.256C135.38 205.256 136.171 205.426 136.867 205.767C137.567 206.103 138.119 206.565 138.521 207.152C138.924 207.734 139.127 208.395 139.132 209.134C139.127 209.915 138.905 210.606 138.465 211.207C138.024 211.809 137.451 212.197 136.746 212.372V212.457C137.29 212.552 137.78 212.775 138.216 213.125C138.656 213.471 139.007 213.904 139.267 214.425C139.532 214.941 139.667 215.507 139.672 216.122C139.667 216.908 139.445 217.609 139.004 218.224C138.564 218.84 137.953 219.323 137.172 219.673C136.395 220.024 135.503 220.199 134.494 220.199ZM134.494 218.402C135.096 218.402 135.617 218.303 136.057 218.104C136.497 217.9 136.838 217.618 137.08 217.259C137.321 216.894 137.444 216.468 137.449 215.98C137.444 215.473 137.312 215.026 137.051 214.638C136.796 214.25 136.448 213.944 136.007 213.722C135.567 213.499 135.063 213.388 134.494 213.388C133.921 213.388 133.412 213.499 132.967 213.722C132.522 213.944 132.172 214.25 131.916 214.638C131.661 215.026 131.535 215.473 131.54 215.98C131.535 216.468 131.651 216.894 131.888 217.259C132.129 217.618 132.473 217.9 132.918 218.104C133.363 218.303 133.888 218.402 134.494 218.402ZM134.494 211.634C134.977 211.634 135.406 211.536 135.78 211.342C136.154 211.148 136.448 210.878 136.661 210.533C136.878 210.187 136.99 209.782 136.994 209.318C136.99 208.864 136.881 208.466 136.668 208.125C136.459 207.784 136.168 207.521 135.794 207.337C135.42 207.147 134.987 207.053 134.494 207.053C133.992 207.053 133.552 207.147 133.173 207.337C132.799 207.521 132.508 207.784 132.3 208.125C132.091 208.466 131.99 208.864 131.994 209.318C131.99 209.782 132.094 210.187 132.307 210.533C132.52 210.878 132.814 211.148 133.188 211.342C133.566 211.536 134.002 211.634 134.494 211.634ZM142.816 220V218.409L147.738 213.31C148.264 212.756 148.697 212.27 149.038 211.854C149.384 211.432 149.642 211.032 149.812 210.653C149.983 210.275 150.068 209.872 150.068 209.446C150.068 208.963 149.954 208.546 149.727 208.196C149.5 207.841 149.189 207.569 148.796 207.379C148.403 207.185 147.961 207.088 147.468 207.088C146.947 207.088 146.493 207.195 146.105 207.408C145.716 207.621 145.418 207.921 145.21 208.31C145.001 208.698 144.897 209.152 144.897 209.673H142.802C142.802 208.788 143.006 208.014 143.413 207.351C143.82 206.688 144.379 206.174 145.089 205.81C145.799 205.44 146.607 205.256 147.511 205.256C148.425 205.256 149.23 205.438 149.926 205.803C150.626 206.162 151.173 206.655 151.566 207.28C151.959 207.9 152.156 208.601 152.156 209.382C152.156 209.922 152.054 210.45 151.85 210.966C151.652 211.482 151.304 212.057 150.806 212.692C150.309 213.321 149.618 214.086 148.733 214.986L145.842 218.011V218.118H152.39V220H142.816ZM161.27 217.159V215.384L167.555 205.455H168.954V208.068H168.066L163.571 215.185V215.298H172.186V217.159H161.27ZM168.166 220V216.619L168.18 215.81V205.455H170.261V220H168.166ZM175.751 220L182.1 207.443V207.337H174.757V205.455H184.373V207.401L178.045 220H175.751ZM188.324 220L194.673 207.443V207.337H187.329V205.455H196.946V207.401L190.618 220H188.324ZM200.896 220L207.246 207.443V207.337H199.902V205.455H209.518V207.401L203.19 220H200.896ZM218.481 220V218.409L223.403 213.31C223.929 212.756 224.362 212.27 224.703 211.854C225.048 211.432 225.306 211.032 225.477 210.653C225.647 210.275 225.733 209.872 225.733 209.446C225.733 208.963 225.619 208.546 225.392 208.196C225.164 207.841 224.854 207.569 224.461 207.379C224.068 207.185 223.626 207.088 223.133 207.088C222.612 207.088 222.158 207.195 221.77 207.408C221.381 207.621 221.083 207.921 220.875 208.31C220.666 208.698 220.562 209.152 220.562 209.673H218.467C218.467 208.788 218.671 208.014 219.078 207.351C219.485 206.688 220.044 206.174 220.754 205.81C221.464 205.44 222.271 205.256 223.176 205.256C224.09 205.256 224.895 205.438 225.591 205.803C226.291 206.162 226.838 206.655 227.231 207.28C227.624 207.9 227.821 208.601 227.821 209.382C227.821 209.922 227.719 210.45 227.515 210.966C227.316 211.482 226.968 212.057 226.471 212.692C225.974 213.321 225.283 214.086 224.397 214.986L221.507 218.011V218.118H228.055V220H218.481ZM236.425 220.199C235.776 220.189 235.137 220.071 234.507 219.844C233.882 219.616 233.314 219.238 232.803 218.707C232.291 218.177 231.882 217.464 231.574 216.57C231.271 215.675 231.12 214.557 231.12 213.217C231.12 211.948 231.245 210.821 231.496 209.837C231.752 208.852 232.119 208.021 232.597 207.344C233.075 206.662 233.653 206.143 234.33 205.788C235.007 205.433 235.767 205.256 236.61 205.256C237.476 205.256 238.245 205.426 238.918 205.767C239.59 206.108 240.135 206.579 240.551 207.18C240.973 207.782 241.24 208.466 241.354 209.233H239.188C239.041 208.627 238.75 208.132 238.314 207.749C237.879 207.365 237.31 207.173 236.61 207.173C235.544 207.173 234.713 207.637 234.117 208.565C233.525 209.493 233.227 210.784 233.222 212.436H233.328C233.579 212.024 233.887 211.674 234.252 211.385C234.621 211.091 235.033 210.866 235.487 210.71C235.947 210.549 236.43 210.469 236.936 210.469C237.779 210.469 238.541 210.675 239.223 211.087C239.91 211.494 240.457 212.057 240.864 212.777C241.271 213.497 241.475 214.321 241.475 215.249C241.475 216.177 241.264 217.017 240.843 217.77C240.426 218.523 239.839 219.119 239.081 219.56C238.324 219.995 237.438 220.208 236.425 220.199ZM236.418 218.352C236.977 218.352 237.476 218.215 237.916 217.94C238.357 217.666 238.705 217.296 238.96 216.832C239.216 216.368 239.344 215.85 239.344 215.277C239.344 214.718 239.218 214.209 238.968 213.75C238.721 213.291 238.38 212.926 237.945 212.656C237.514 212.386 237.022 212.251 236.468 212.251C236.046 212.251 235.656 212.332 235.296 212.493C234.941 212.654 234.628 212.876 234.358 213.161C234.088 213.445 233.875 213.771 233.719 214.141C233.567 214.505 233.492 214.891 233.492 215.298C233.492 215.843 233.617 216.347 233.868 216.811C234.124 217.275 234.472 217.649 234.912 217.933C235.357 218.213 235.859 218.352 236.418 218.352ZM249.74 220.199C249.091 220.189 248.452 220.071 247.822 219.844C247.197 219.616 246.629 219.238 246.118 218.707C245.606 218.177 245.197 217.464 244.889 216.57C244.586 215.675 244.434 214.557 244.434 213.217C244.434 211.948 244.56 210.821 244.811 209.837C245.066 208.852 245.433 208.021 245.912 207.344C246.39 206.662 246.968 206.143 247.645 205.788C248.322 205.433 249.082 205.256 249.924 205.256C250.791 205.256 251.56 205.426 252.233 205.767C252.905 206.108 253.45 206.579 253.866 207.18C254.288 207.782 254.555 208.466 254.669 209.233H252.503C252.356 208.627 252.065 208.132 251.629 207.749C251.193 207.365 250.625 207.173 249.924 207.173C248.859 207.173 248.028 207.637 247.432 208.565C246.84 209.493 246.541 210.784 246.537 212.436H246.643C246.894 212.024 247.202 211.674 247.566 211.385C247.936 211.091 248.348 210.866 248.802 210.71C249.262 210.549 249.745 210.469 250.251 210.469C251.094 210.469 251.856 210.675 252.538 211.087C253.225 211.494 253.771 212.057 254.179 212.777C254.586 213.497 254.789 214.321 254.789 215.249C254.789 216.177 254.579 217.017 254.157 217.77C253.741 218.523 253.154 219.119 252.396 219.56C251.638 219.995 250.753 220.208 249.74 220.199ZM249.733 218.352C250.291 218.352 250.791 218.215 251.231 217.94C251.672 217.666 252.02 217.296 252.275 216.832C252.531 216.368 252.659 215.85 252.659 215.277C252.659 214.718 252.533 214.209 252.282 213.75C252.036 213.291 251.695 212.926 251.26 212.656C250.829 212.386 250.336 212.251 249.782 212.251C249.361 212.251 248.97 212.332 248.611 212.493C248.255 212.654 247.943 212.876 247.673 213.161C247.403 213.445 247.19 213.771 247.034 214.141C246.882 214.505 246.807 214.891 246.807 215.298C246.807 215.843 246.932 216.347 247.183 216.811C247.439 217.275 247.787 217.649 248.227 217.933C248.672 218.213 249.174 218.352 249.733 218.352ZM262.778 220.199C261.887 220.199 261.087 220.028 260.377 219.688C259.672 219.342 259.108 218.868 258.687 218.267C258.265 217.666 258.04 216.979 258.012 216.207H260.143C260.195 216.832 260.472 217.346 260.974 217.749C261.476 218.151 262.077 218.352 262.778 218.352C263.336 218.352 263.831 218.224 264.262 217.969C264.698 217.708 265.039 217.351 265.285 216.896C265.536 216.442 265.661 215.923 265.661 215.341C265.661 214.749 265.533 214.221 265.278 213.757C265.022 213.293 264.669 212.929 264.219 212.663C263.774 212.398 263.263 212.263 262.685 212.259C262.245 212.259 261.802 212.334 261.357 212.486C260.912 212.637 260.552 212.836 260.278 213.082L258.268 212.784L259.084 205.455H267.082V207.337H260.91L260.448 211.406H260.533C260.817 211.132 261.194 210.902 261.663 210.717C262.136 210.533 262.643 210.44 263.182 210.44C264.068 210.44 264.856 210.651 265.548 211.072C266.244 211.494 266.79 212.069 267.188 212.798C267.591 213.523 267.789 214.356 267.785 215.298C267.789 216.241 267.576 217.081 267.146 217.82C266.719 218.558 266.128 219.141 265.37 219.567C264.617 219.988 263.753 220.199 262.778 220.199Z" fill="white"/>
<path d="M50.2259 273.909V287H48.2443V275.891H48.1676L45.0355 277.936V276.044L48.3018 273.909H50.2259ZM58.3246 287.217C57.3146 287.213 56.4517 286.947 55.7358 286.418C55.0199 285.89 54.4723 285.121 54.093 284.111C53.7138 283.101 53.5241 281.884 53.5241 280.461C53.5241 279.042 53.7138 277.83 54.093 276.824C54.4766 275.818 55.0263 275.051 55.7422 274.523C56.4624 273.994 57.3232 273.73 58.3246 273.73C59.326 273.73 60.1847 273.996 60.9006 274.529C61.6165 275.058 62.1641 275.825 62.5433 276.83C62.9268 277.832 63.1186 279.042 63.1186 280.461C63.1186 281.888 62.929 283.107 62.5497 284.117C62.1705 285.123 61.6229 285.892 60.907 286.425C60.1911 286.953 59.3303 287.217 58.3246 287.217ZM58.3246 285.511C59.2109 285.511 59.9034 285.078 60.402 284.213C60.9048 283.348 61.1562 282.097 61.1562 280.461C61.1562 279.374 61.0412 278.456 60.8111 277.706C60.5852 276.952 60.2592 276.381 59.8331 275.993C59.4112 275.601 58.9084 275.405 58.3246 275.405C57.4425 275.405 56.75 275.839 56.2472 276.709C55.7443 277.578 55.4908 278.829 55.4865 280.461C55.4865 281.552 55.5994 282.474 55.8253 283.229C56.0554 283.979 56.3814 284.548 56.8033 284.935C57.2251 285.319 57.7322 285.511 58.3246 285.511ZM70.3976 273.295L66.1788 288.969H64.4721L68.6909 273.295H70.3976ZM71.9956 287V285.568L76.4252 280.979C76.8983 280.48 77.2882 280.043 77.595 279.668C77.9061 279.289 78.1383 278.929 78.2917 278.588C78.4451 278.247 78.5218 277.885 78.5218 277.501C78.5218 277.067 78.4196 276.692 78.215 276.376C78.0105 276.057 77.7314 275.812 77.3777 275.641C77.024 275.467 76.6255 275.379 76.1824 275.379C75.7136 275.379 75.3045 275.475 74.9551 275.667C74.6056 275.859 74.3372 276.129 74.1497 276.479C73.9622 276.828 73.8684 277.237 73.8684 277.706H71.9828C71.9828 276.909 72.166 276.212 72.5325 275.616C72.899 275.019 73.4018 274.557 74.041 274.229C74.6802 273.896 75.4068 273.73 76.2207 273.73C77.0431 273.73 77.7676 273.894 78.394 274.222C79.0247 274.546 79.5169 274.989 79.8706 275.552C80.2243 276.11 80.4011 276.741 80.4011 277.444C80.4011 277.93 80.3095 278.405 80.1262 278.869C79.9473 279.334 79.6341 279.852 79.1866 280.423C78.7392 280.989 78.117 281.678 77.3201 282.487L74.7186 285.21V285.306H80.612V287H71.9956ZM83.4757 287L89.1902 275.699V275.603H82.5808V273.909H91.2356V275.661L85.5403 287H83.4757Z" fill="white"/>
<path d="M168.817 287.179C167.939 287.179 167.155 287.028 166.464 286.725C165.778 286.423 165.235 286.003 164.835 285.466C164.438 284.925 164.225 284.298 164.195 283.587H166.202C166.228 283.974 166.358 284.311 166.592 284.597C166.831 284.878 167.142 285.095 167.526 285.249C167.909 285.402 168.335 285.479 168.804 285.479C169.32 285.479 169.776 285.389 170.172 285.21C170.572 285.031 170.886 284.782 171.112 284.462C171.337 284.138 171.45 283.766 171.45 283.344C171.45 282.905 171.337 282.519 171.112 282.187C170.89 281.85 170.564 281.586 170.134 281.394C169.707 281.202 169.192 281.107 168.587 281.107H167.481V279.496H168.587C169.072 279.496 169.499 279.408 169.865 279.234C170.236 279.059 170.526 278.816 170.734 278.505C170.943 278.19 171.048 277.821 171.048 277.399C171.048 276.994 170.956 276.643 170.773 276.344C170.594 276.042 170.338 275.805 170.006 275.635C169.678 275.464 169.29 275.379 168.842 275.379C168.416 275.379 168.018 275.458 167.647 275.616C167.281 275.769 166.982 275.991 166.752 276.281C166.522 276.566 166.398 276.909 166.381 277.31H164.47C164.491 276.602 164.7 275.98 165.097 275.443C165.497 274.906 166.026 274.487 166.682 274.184C167.338 273.881 168.067 273.73 168.868 273.73C169.707 273.73 170.432 273.894 171.041 274.222C171.655 274.546 172.128 274.979 172.46 275.52C172.797 276.061 172.963 276.653 172.959 277.297C172.963 278.03 172.759 278.652 172.345 279.163C171.936 279.675 171.391 280.018 170.709 280.192V280.295C171.578 280.427 172.251 280.772 172.729 281.33C173.21 281.888 173.449 282.581 173.445 283.408C173.449 284.128 173.249 284.773 172.844 285.344C172.443 285.915 171.896 286.365 171.201 286.693C170.506 287.017 169.712 287.179 168.817 287.179ZM180.418 287.179C179.54 287.179 178.756 287.028 178.066 286.725C177.38 286.423 176.837 286.003 176.436 285.466C176.04 284.925 175.827 284.298 175.797 283.587H177.804C177.83 283.974 177.96 284.311 178.194 284.597C178.433 284.878 178.744 285.095 179.127 285.249C179.511 285.402 179.937 285.479 180.406 285.479C180.921 285.479 181.377 285.389 181.773 285.21C182.174 285.031 182.487 284.782 182.713 284.462C182.939 284.138 183.052 283.766 183.052 283.344C183.052 282.905 182.939 282.519 182.713 282.187C182.491 281.85 182.165 281.586 181.735 281.394C181.309 281.202 180.793 281.107 180.188 281.107H179.082V279.496H180.188C180.674 279.496 181.1 279.408 181.467 279.234C181.837 279.059 182.127 278.816 182.336 278.505C182.545 278.19 182.649 277.821 182.649 277.399C182.649 276.994 182.558 276.643 182.374 276.344C182.195 276.042 181.94 275.805 181.607 275.635C181.279 275.464 180.891 275.379 180.444 275.379C180.018 275.379 179.619 275.458 179.249 275.616C178.882 275.769 178.584 275.991 178.354 276.281C178.124 276.566 178 276.909 177.983 277.31H176.072C176.093 276.602 176.302 275.98 176.698 275.443C177.099 274.906 177.627 274.487 178.283 274.184C178.94 273.881 179.668 273.73 180.469 273.73C181.309 273.73 182.033 273.894 182.643 274.222C183.256 274.546 183.729 274.979 184.062 275.52C184.398 276.061 184.565 276.653 184.56 277.297C184.565 278.03 184.36 278.652 183.947 279.163C183.538 279.675 182.992 280.018 182.31 280.192V280.295C183.18 280.427 183.853 280.772 184.33 281.33C184.812 281.888 185.05 282.581 185.046 283.408C185.05 284.128 184.85 284.773 184.445 285.344C184.045 285.915 183.497 286.365 182.803 286.693C182.108 287.017 181.313 287.179 180.418 287.179ZM192.02 287.179C191.142 287.179 190.358 287.028 189.668 286.725C188.982 286.423 188.438 286.003 188.038 285.466C187.641 284.925 187.428 284.298 187.398 283.587H189.406C189.431 283.974 189.561 284.311 189.795 284.597C190.034 284.878 190.345 285.095 190.729 285.249C191.112 285.402 191.538 285.479 192.007 285.479C192.523 285.479 192.979 285.389 193.375 285.21C193.776 285.031 194.089 284.782 194.315 284.462C194.54 284.138 194.653 283.766 194.653 283.344C194.653 282.905 194.54 282.519 194.315 282.187C194.093 281.85 193.767 281.586 193.337 281.394C192.911 281.202 192.395 281.107 191.79 281.107H190.684V279.496H191.79C192.276 279.496 192.702 279.408 193.068 279.234C193.439 279.059 193.729 278.816 193.938 278.505C194.146 278.19 194.251 277.821 194.251 277.399C194.251 276.994 194.159 276.643 193.976 276.344C193.797 276.042 193.541 275.805 193.209 275.635C192.881 275.464 192.493 275.379 192.045 275.379C191.619 275.379 191.221 275.458 190.85 275.616C190.484 275.769 190.185 275.991 189.955 276.281C189.725 276.566 189.602 276.909 189.585 277.31H187.673C187.695 276.602 187.903 275.98 188.3 275.443C188.7 274.906 189.229 274.487 189.885 274.184C190.541 273.881 191.27 273.73 192.071 273.73C192.911 273.73 193.635 273.894 194.244 274.222C194.858 274.546 195.331 274.979 195.663 275.52C196 276.061 196.166 276.653 196.162 277.297C196.166 278.03 195.962 278.652 195.548 279.163C195.139 279.675 194.594 280.018 193.912 280.192V280.295C194.781 280.427 195.455 280.772 195.932 281.33C196.413 281.888 196.652 282.581 196.648 283.408C196.652 284.128 196.452 284.773 196.047 285.344C195.646 285.915 195.099 286.365 194.404 286.693C193.71 287.017 192.915 287.179 192.02 287.179Z" fill="white"/>
<path d="M45.6321 259H50.5469V257.732H47.1697V255.996H50.2805V254.728H47.1697V252.995H50.5327V251.727H45.6321V259ZM54.2469 251.727H52.5033L54.737 255.364L52.4607 259H54.2221L55.7135 256.518H55.7703L57.2618 259H59.0303L56.7611 255.364L58.9806 251.727H57.2441L55.7703 254.206H55.7135L54.2469 251.727ZM61.0036 259H62.5412V256.642H63.8338C65.5064 256.642 66.4794 255.644 66.4794 254.192C66.4794 252.746 65.5242 251.727 63.8729 251.727H61.0036V259ZM62.5412 255.41V252.984H63.5782C64.4659 252.984 64.8956 253.467 64.8956 254.192C64.8956 254.913 64.4659 255.41 63.5853 255.41H62.5412ZM70.0658 251.727H68.5282V259H70.0658V251.727ZM72.3809 259H73.9186V256.422H75.0407L76.4186 259H78.116L76.5713 256.173C77.3987 255.818 77.8568 255.097 77.8568 254.103C77.8568 252.658 76.9015 251.727 75.2502 251.727H72.3809V259ZM73.9186 255.186V252.984H74.9555C75.8433 252.984 76.273 253.379 76.273 254.103C76.273 254.824 75.8433 255.186 74.9626 255.186H73.9186ZM79.9934 259H84.9082V257.732H81.5311V255.996H84.6419V254.728H81.5311V252.995H84.894V251.727H79.9934V259ZM91.1118 253.819H92.5855C92.5642 252.523 91.4989 251.628 89.8795 251.628C88.2851 251.628 87.1168 252.509 87.1239 253.83C87.1203 254.902 87.8767 255.516 89.1054 255.811L89.8973 256.01C90.6892 256.202 91.1295 256.429 91.1331 256.919C91.1295 257.452 90.6253 257.814 89.844 257.814C89.045 257.814 88.4697 257.445 88.42 256.717H86.9321C86.9712 258.29 88.0969 259.103 89.8618 259.103C91.6374 259.103 92.6814 258.254 92.6849 256.923C92.6814 255.712 91.7687 255.069 90.5045 254.785L89.8511 254.629C89.219 254.483 88.6899 254.249 88.7006 253.727C88.7006 253.258 89.1161 252.913 89.8689 252.913C90.604 252.913 91.055 253.247 91.1118 253.819Z" fill="#4F566B"/>
<path d="M170.049 254.273C169.847 252.594 168.575 251.628 166.892 251.628C164.971 251.628 163.504 252.984 163.504 255.364C163.504 257.736 164.946 259.099 166.892 259.099C168.756 259.099 169.882 257.86 170.049 256.521L168.494 256.514C168.348 257.292 167.737 257.739 166.917 257.739C165.812 257.739 165.063 256.919 165.063 255.364C165.063 253.851 165.802 252.988 166.928 252.988C167.769 252.988 168.376 253.474 168.494 254.273H170.049ZM173.516 251.727H171.807L174.318 259H176.3L178.807 251.727H177.102L175.341 257.253H175.273L173.516 251.727ZM182.046 251.727H180.338L182.849 259H184.83L187.337 251.727H185.633L183.871 257.253H183.804L182.046 251.727Z" fill="#4F566B"/>
<rect y="22" width="525" height="45" fill="#C4C4C4"/>
<path fill-rule="evenodd" clip-rule="evenodd" d="M431.324 255.907C426.783 257.489 423.838 260.738 423.167 264.904C422.447 269.383 424.754 272.693 430.983 276.115C436.153 278.956 437.042 281.346 433.595 283.135C431.86 284.035 426.541 283.856 423.496 282.796C422.037 282.288 420.824 281.911 420.801 281.959C420.643 282.292 419.26 289.381 419.337 289.466C419.39 289.526 420.823 289.933 422.521 290.372C426.933 291.512 434.466 291.167 437.751 289.674C442.479 287.525 444.857 284.041 444.857 279.263C444.857 274.651 443.425 273.003 435.464 268.451C432.76 266.904 431.928 265.656 432.669 264.259C432.951 263.729 433.597 263.07 434.105 262.796C435.428 262.082 440.355 262.181 442.968 262.974L445.198 263.651L445.744 260.902C446.045 259.39 446.4 257.681 446.533 257.105C446.745 256.183 446.475 255.992 444.293 255.52C440.466 254.692 434.281 254.876 431.324 255.907ZM365 255.895C365 256.128 366.033 256.603 367.296 256.95C370.522 257.836 374.309 259.558 375.067 260.484C375.42 260.915 377.383 267.807 379.429 275.801L383.15 290.334L388.018 290.472L392.887 290.611L398.598 276.819C401.739 269.234 405.028 261.328 405.906 259.25L407.502 255.471H402.725H397.948L393.529 266.807C391.098 273.043 388.945 278.312 388.745 278.518C388.545 278.723 387.534 274.225 386.499 268.522C384.807 259.199 384.485 258.017 383.305 256.812L381.993 255.471H373.497C368.824 255.471 365 255.662 365 255.895ZM411.167 256.568C410.426 259.725 404.155 289.763 404.155 290.155C404.155 290.42 406.04 290.555 408.599 290.475L413.044 290.334L415.839 277.169C417.376 269.928 419.048 262.084 419.555 259.737L420.477 255.471H415.951C411.655 255.471 411.411 255.527 411.167 256.568ZM459.378 256.568C458.563 257.444 450.423 276.294 445.69 288.262L444.774 290.578L449.48 290.573L454.186 290.567L455.153 288.013L456.12 285.458H461.895H467.67L468.181 287.896L468.693 290.334L472.959 290.476C476.867 290.605 477.203 290.544 476.968 289.744C476.826 289.264 475.379 282.399 473.752 274.487C472.125 266.576 470.573 259.06 470.305 257.787L469.816 255.471H465.107C460.847 255.471 460.3 255.575 459.378 256.568ZM464.779 271.447C465.467 274.737 466.03 277.644 466.03 277.908C466.03 278.18 464.459 278.388 462.404 278.388C460.41 278.388 458.779 278.256 458.779 278.095C458.779 277.595 463.271 265.203 463.403 265.338C463.472 265.409 464.091 268.158 464.779 271.447Z" fill="white"/>
</g>
<defs>
<clipPath id="clip0_398_54">
<rect width="525" height="330" fill="white"/>
</clipPath>
</defs>
</svg>
