<svg width="488" height="374" viewBox="0 0 488 374" fill="none" xmlns="http://www.w3.org/2000/svg">
<g clip-path="url(#clip0_0_3)">
<path d="M330.3 197.86C314.63 196.96 300.73 181.64 304.65 162C303.801 162.456 303.053 163.079 302.451 163.831C301.85 164.584 301.407 165.451 301.15 166.38C299.59 171.81 295.57 175.29 291.99 179.3C285.27 186.8 277.59 193.49 272.29 202.21C271.64 203.27 270.76 203.58 269.79 202.93C268.82 202.28 268.92 201.17 269.49 200.26C271.805 196.854 274.418 193.662 277.3 190.72C283.013 184.46 288.757 178.227 294.53 172.02C296.153 170.28 297.36 168.194 298.06 165.92C299.18 162.29 302.06 159.92 304.49 157.31C305.2 156.54 306.21 155.63 307.49 156.19C308.77 156.75 308.49 158.12 308.49 159.19C308.23 162.92 306.94 166.47 306.98 170.28C307.13 184.28 321.15 196.52 334.98 194.62C337.98 194.22 340.89 190.29 340.91 186.07C340.91 177 336.49 169.98 329.63 164.7C324.08 160.44 317.81 157.13 311.92 153.3C310.33 152.3 309.18 152.64 307.92 153.76C307.03 154.56 305.86 155.09 304.92 154.02C303.98 152.95 305.2 152.07 305.83 151.2C308.83 147.01 313.54 147.33 317.83 146.73C318.83 146.6 320.01 146.83 319.96 148.21C319.96 149.37 318.8 149.31 317.96 149.41C316.64 149.56 314.96 149.29 314.59 150.97C314.43 151.71 315.66 152.28 316.49 152.54C317.96 152.99 319.58 154.1 320.77 152.03C322.133 149.319 324.502 147.249 327.37 146.26C331.54 144.94 333.71 146.26 333.9 150.38C333.99 152.45 334.51 152.91 336.58 152.44C342.26 151.16 343.47 152.12 343.67 157.87C343.74 159.8 344.15 161.04 346.37 160.94C347.07 160.87 347.77 161.078 348.319 161.519C348.867 161.961 349.219 162.601 349.3 163.3C350.06 167.55 350.3 171.76 347.41 175.46C347.18 175.75 346.97 176.29 346.72 176.31C341.26 176.69 343.59 180.53 343.72 183.22C344.1 190.49 341.2 195.12 334.86 199.37C323.51 206.98 312.21 214.83 302.05 224.09C299.75 226.18 297.29 228.04 295.32 230.55C293.66 232.67 294.13 233.44 296.14 234.77C304.24 240.13 311.94 246.1 320.48 250.77C322.3 251.77 323.25 254.71 325.18 254.19C326.77 253.77 327.76 251.31 329.18 249.89C335.94 243.01 341.18 234.89 347.1 227.37C350.9 222.52 355.94 219.06 360.23 214.78C360.951 214.282 361.834 214.079 362.7 214.21C370.11 214.96 377.41 215.64 384.3 219.34C389.63 222.2 395.59 223.88 400.4 227.84C402.84 229.84 404.64 232.04 404.48 235.39C404.48 236.01 404.34 236.93 404.68 237.21C408.12 240.04 405.4 242.31 403.95 244.5C397.42 254.38 389.66 263.5 384.54 274.25C380.113 283.193 374.703 291.615 368.41 299.36C364.49 304.36 359.16 308.13 355.83 313.67C355.19 314.73 354.27 315.67 353.67 316.67C352.39 318.98 350.42 319.6 348 319.21C345.637 318.952 343.297 318.518 341 317.91C336.84 316.59 332.77 316.82 328.47 317.2C318.47 318.08 308.77 320.32 299.18 322.81C286.73 326.04 274.45 330.14 263.35 336.89C259.87 339.01 256.92 341.99 253.69 344.53C251.86 345.97 248.88 346.99 248.35 348.77C247.77 350.71 250.94 352.25 251.91 354.5C254.65 360.78 252.78 367.64 247.46 368.91C243.12 369.91 238.54 369.73 234.26 371.28C227.08 373.89 219.58 373.84 212.11 373.61C203.39 373.34 194.59 374.67 185.96 372.84C178.55 371.27 174.6 361.66 178.51 355C179.88 352.67 181.14 350.16 183.63 348.65C185.1 347.76 185.35 346.91 183.79 345.54C181.26 343.32 178.33 341.62 176.05 339.06C174.89 337.76 173.05 338.3 171.45 338.86C156.45 344.23 141.17 342.76 125.98 340.43C107.98 337.68 92.8299 329.26 79.1399 317.22C72.1399 311.1 66.9599 303.86 61.1399 296.94C52.4199 286.63 47.1399 274.31 39.8899 263.12C38.504 260.877 37.8084 258.276 37.8899 255.64C37.8899 245.64 37.8299 235.7 40.8899 225.99C43.2523 218.463 47.1703 211.516 52.3899 205.6C53.8999 203.88 55.2899 202.28 55.2499 199.75C55.2651 198.8 55.5266 197.871 56.0086 197.052C56.4906 196.233 57.1767 195.554 57.9999 195.08C64.9999 190.57 71.6499 185.49 79.4999 182.4C80.7699 181.9 82.08 181.66 80.55 179.34C78.84 176.75 81.81 175.64 83.8 175.34C86.15 174.95 86.7299 174.47 85.0899 172.49C84.8832 172.25 84.7261 171.972 84.6277 171.672C84.5293 171.371 84.4917 171.054 84.5168 170.739C84.5419 170.423 84.6294 170.116 84.7741 169.835C84.9188 169.553 85.1179 169.304 85.3599 169.1C86.4799 167.88 87.8699 167.25 89.3599 168C91.9099 169.25 94.5399 170.43 96.9999 171.76C99.2599 172.97 99.23 176.15 98.44 178.45C97.8767 180.217 97.6064 182.065 97.6399 183.92C97.6399 189.11 98.9199 194.24 97.7599 199.53C97.1199 202.47 97.54 205.37 95.43 208.21C93.8 210.42 93.81 213.87 93.16 216.77C92.3825 219.586 91.2145 222.278 89.69 224.77C87.9486 228.238 86.5809 231.882 85.6099 235.64C84.3499 240.08 83.4599 244.64 78.8699 247.21C77.1499 248.21 78.54 249.21 79.18 249.91C82.18 253.08 85.0099 256.47 88.3799 259.17C94.7999 264.3 101.24 269.42 109.03 272.59C115.96 275.4 122.29 279.54 129.3 282.27C141.36 286.96 152.44 285.27 162.77 277.53C167.05 274.34 172.03 272.16 175.51 267.83C177.51 265.34 177.91 263.97 174.91 261.76C167.707 256.425 159.759 252.18 151.32 249.16C145.61 247.16 140.54 244.46 136.54 239.51C131.72 233.51 125.65 228.68 120.42 223.03C118.78 221.26 115.72 221.1 114.06 218.75C111.12 214.61 111.75 210.12 112.64 205.75C113.544 202.114 114.773 198.567 116.31 195.15C116.81 193.92 117.31 193.06 115.62 192.66C111.95 191.8 110.84 189.43 111.52 185.93C111.855 184.216 112.687 182.638 113.912 181.393C115.137 180.149 116.701 179.292 118.41 178.93C119.405 178.804 120.409 178.774 121.41 178.84C123.3 178.92 124 178.1 124.15 176.19C124.54 171.31 126.26 170.05 130.84 170.93C135.64 171.85 135.84 171.71 136.12 166.81C136.28 164.13 137.12 161.61 139.94 161.06C142.76 160.51 146.1 160.47 147.14 164.45C147.6 166.19 148.54 165.29 149.41 164.9C151.57 163.9 153.72 162.9 155.92 162.07C159.2 160.78 161.59 161.87 162.76 165.14C164.4 169.71 165.76 174.36 167.4 178.95C170.78 188.73 174.97 197.95 184.17 203.85C185.34 204.6 186.56 205.85 187.83 205.24C189.34 204.58 188.58 202.77 188.58 201.49C188.58 189.02 188.87 176.57 190.8 164.2C191.74 158.2 194.13 152.72 195.87 147.02C196.982 143.214 197.841 139.339 198.44 135.42C199.27 130.42 199.56 124.98 204.1 121.35C204.574 120.935 204.874 120.356 204.94 119.73C205.38 111.41 210.46 104.55 212.16 96.64C212.57 94.75 213.52 92.84 212.25 90.91C212.18 90.81 212.09 90.6399 212.13 90.5699C215.28 85.2599 209.69 82.5699 208.44 78.5699C206.95 73.7799 206.13 68.89 204.95 64.05C204.54 62.39 204.72 60.14 202.02 59.92C201.21 59.86 200.57 58.82 201.22 58.26C204.53 55.41 202.05 52.26 202.01 49.26C201.34 49.11 201.24 49.4999 201.2 49.8699C201.07 51.3799 201.01 53.13 199.41 53.69C197.81 54.25 196.64 52.69 195.83 51.52C192.36 46.67 188.46 42.12 184.92 37.41C182.36 34 180.83 29.33 178.5 25.41C175.033 19.4966 171.633 13.54 168.3 7.53999C167.402 6.04269 166.729 4.42216 166.3 2.72993C165.88 0.779928 166.65 -0.530042 169.01 0.259958C171.6 1.11996 174.47 1.13992 176.86 2.59992C183.54 6.68992 191.53 7.35001 198.37 10.94C201.1 12.36 203.37 14.58 206.11 16.05C208.48 17.33 210.72 18.3799 213.99 18.1099C217.26 17.8399 221.05 20.1099 223.99 22.4799C224.99 23.3199 225.82 24.5999 227.5 23.4799C228.65 22.7199 229.24 23.6799 229.8 24.5999C232.676 29.1338 236.281 33.1614 240.47 36.52C242.62 38.34 243.47 40.9699 245.12 43.1099C247.67 46.4199 251.32 48.52 253.68 51.93C253.933 52.2907 254.257 52.5963 254.632 52.8283C255.006 53.0604 255.424 53.214 255.86 53.28C259 53.28 261.09 55.0999 263.33 56.9599C264.547 58.0042 265.967 58.7858 267.5 59.2556C269.033 59.7253 270.647 59.8733 272.24 59.69C281.73 58.81 289.99 61.61 296.57 68.69C297.249 69.4324 298.164 69.9166 299.16 70.06C307.45 71.51 310.16 75.7199 307.16 83.6099C305.721 87.0385 305.304 90.8099 305.96 94.4699C306.49 97.3099 306.77 100.47 304.63 103.1C303.2 104.85 304.53 105.78 305.84 106.65C310.22 109.57 315.09 111.55 319.84 113.72C320.75 114.13 321.73 114.4 322.61 114.86C324.61 115.86 326.51 117.75 328.54 117.86C330.85 118 330.54 114.69 332.04 113.22C337.54 107.88 349.89 110.38 352.37 117.52C353.75 121.52 350.82 129.23 347.14 131.27C337.93 136.38 326.96 135.27 319.44 127.97C313.62 122.29 307.08 117.48 301.14 111.97C299.75 110.67 298.78 110.76 297.82 112.14C295.4 115.59 292.12 118.04 288.65 120.29C288.103 120.604 287.659 121.07 287.37 121.63C285.06 127.63 279.22 129.74 274.82 133.43C274.195 134.054 273.429 134.519 272.587 134.787C271.745 135.055 270.851 135.118 269.98 134.97C268.65 134.67 267.59 135.31 266.4 135.58C258.51 137.41 258.61 144.03 257.4 150.03C256.06 156.41 257.08 162.47 259.31 168.37C263.56 179.61 264.01 191.88 268.73 202.96C272.05 210.77 273.73 219.15 277.44 226.83C279.73 231.63 287.78 233.6 291.44 229.72C299.14 221.64 307.87 214.8 316.85 208.29C320.37 205.74 323.85 203.13 327.42 200.61C328.53 199.87 329.89 199.38 330.3 197.86ZM267.61 329.96L268.42 330.5C270.58 329.5 272.68 328.5 274.89 327.65C290.46 321.91 306.29 317.11 322.82 315.01C330.18 314.08 337.54 312.44 344.82 315.68C346.74 316.53 349.12 316.9 350.89 314.55C354.49 309.77 358.5 305.35 362.57 300.94C367.8 295.28 372.81 289.35 376.57 282.5C382.57 271.31 388.36 259.94 396.48 250.02C397.69 248.53 398.61 246.81 399.74 245.09C397.74 244.36 396.74 244.81 395.6 245.98C394.081 247.648 392.196 248.941 390.093 249.757C387.99 250.572 385.726 250.888 383.48 250.68C381.31 250.56 379.8 250.15 379.87 247.58C379.87 245.98 378.96 245.39 377.47 245.41C376.22 245.41 374.97 245.41 373.72 245.41C367.49 245.28 365.72 242.54 368.39 237.05C370.25 233.19 369.1 231.29 364.81 231.17C357.49 230.95 356.52 229.7 358.04 222.58C358.11 222.27 357.92 221.91 357.79 221.31C354.41 223.4 352.06 226.31 349.74 229.16C345.12 234.88 340.74 240.82 336.11 246.5C332.51 250.88 329.11 255.5 324.97 259.38C324.49 259.84 324.43 260.88 323.51 260.79C322.41 260.69 322.25 259.74 322.16 258.79C321.86 255.79 319.96 253.79 317.5 252.39C310.213 248.303 303.256 243.656 296.69 238.49C294.24 236.59 291.41 234.89 288.27 234.58C285.86 234.34 282.56 232 281.2 236.52C280.96 237.35 279.54 237.23 278.97 236.44C278.014 235.154 277.187 233.777 276.5 232.33C271.7 222.33 268.72 211.57 264.93 201.15C260.83 189.87 259.93 177.73 255.56 166.52C253.56 161.4 253.56 156.11 254.46 150.67C255.07 146.98 256.29 143.32 256.38 139.67C256.44 136.98 257.38 136.18 259.38 135.41C265.615 132.842 271.575 129.653 277.17 125.89C281.99 122.78 285.78 118.36 290.56 115.15C297.35 110.6 297.56 108.31 292.13 102.53C290.64 100.94 290.37 99.5299 291.83 97.9799C293.29 96.4299 294.77 97.0999 296.15 98.2299C297.147 99.1645 298.21 100.027 299.33 100.81C301.7 102.22 302.52 100.26 303.07 98.65C303.56 97.21 304.15 94.65 301.88 94.8C296.76 95.21 292.6 91.7 287.42 92.15C282.24 92.6 280.32 89.81 280.16 84.78C280 79.75 283.88 78.1999 287.39 76.3599C290.06 74.9499 293.27 72.8899 293.39 70.3599C293.53 68.0499 289.87 66.58 287.33 65.44C286.77 65.18 286.26 64.78 285.69 64.54C277.53 61.13 269.37 61.65 261.25 64.65C258.25 65.75 256.91 68.6499 254.76 70.7199C250.64 74.6099 245.17 76.2099 240.02 79.7199C244.39 79.7199 248.02 79.6399 251.6 79.7199C257.18 79.8899 261.88 83.48 261.24 89.14C260.74 93.55 258.24 96.1399 254.55 97.8599C248.2 100.86 241.55 101.03 234.82 99.51C230.55 98.51 229.26 96.83 229.13 92.51C229.03 89.2 229.64 86.23 232.35 83.9C231.701 84.0158 231.067 84.2035 230.46 84.4599C225.2 86.0899 222.24 88.8899 223.55 95.1099C224.28 98.5899 223.87 102.33 225.72 105.59C228.72 110.79 231.83 115.87 234.45 121.27C238.37 129.35 244.15 132.12 252.98 130.49C253.81 130.33 254.46 130.32 254.84 131.15C254.993 131.496 255.036 131.881 254.965 132.253C254.893 132.624 254.71 132.965 254.44 133.23C253.62 134.23 252.44 134.16 251.34 134.23C242.34 134.53 235.7 130.97 231.61 122.81C229.823 118.961 227.792 115.23 225.53 111.64C222.27 106.81 220.36 101.44 220.89 95.43C220.999 94.431 220.973 93.4217 220.81 92.43C220.59 91.25 220.69 89.37 219.55 89.16C218.01 88.87 217.22 90.7 216.33 91.81C215.98 92.24 216.06 93.0099 215.92 93.6099C214.877 98.4825 213.419 103.257 211.56 107.88C209.668 112.077 208.324 116.5 207.56 121.04C207.21 123.59 207.04 127.04 204.74 128.52C201.74 130.44 201.74 133.18 201.23 135.9C200.94 137.36 201.04 138.9 200.76 140.35C199.54 146.6 197.24 152.51 195.34 158.56C192.81 166.56 192.43 174.93 191.95 183.29C191.4 192.78 190.95 202.21 192.41 211.64C192.59 212.82 193.48 214.4 191.73 214.77C189.98 215.14 189.52 213.54 189.44 212.08C189.34 210.4 189.12 209.08 187.09 208.38C180.09 205.85 175.09 200.94 171.28 194.75C166.34 186.75 163.69 177.75 160.88 168.81C159.46 164.31 158.25 163.71 154.12 165.89C147.33 169.47 140.39 172.89 134.12 177.33C128.78 181.07 122.92 185.06 122.92 192.93C122.92 193.81 122.08 194.05 121.37 194.34C120.783 194.572 120.252 194.926 119.811 195.377C119.369 195.828 119.029 196.368 118.81 196.96C117.331 200.671 116.088 204.472 115.09 208.34C114.09 212.86 115.7 217.1 118.75 218.54C122.83 220.47 126.75 220.64 130.62 217.46C137.292 211.986 142.186 204.652 144.68 196.39C146.14 191.635 147.904 186.979 149.96 182.45C152.05 177.95 155.87 173.9 154.54 168.22C154.36 167.46 155.23 166.93 156.09 167.02C157.15 167.12 157.5 167.9 157.61 168.85C157.906 172.614 156.973 176.372 154.95 179.56C153.35 182.36 152.08 185.33 150.74 188.26C148.14 193.92 147.55 200.26 144.21 205.67C139.52 213.24 134.73 220.58 125.4 223.31C126.65 224.87 128.4 225.64 129.95 226.57C131.056 227.157 131.988 228.027 132.65 229.09C137.22 236.9 143.11 243.09 152.06 246.02C161.104 248.875 169.538 253.388 176.93 259.33C177.58 259.905 178.364 260.307 179.21 260.5C182.31 261.02 182.04 262.94 180.97 264.91C179.345 268.001 177.166 270.767 174.54 273.07C171.48 275.7 167.74 277.31 164.65 279.8C154.65 287.87 143.19 289.21 131.44 286.03C121.21 283.27 112.09 277.43 102.66 272.66C92.03 267.3 83.1499 259.31 75.5099 250.08C74.7081 249.123 73.6222 248.447 72.41 248.15C62.57 245.45 59.5199 241.8 59.0999 229.78C58.6807 221.91 59.8262 214.035 62.4699 206.61C62.9099 205.44 64.04 203.74 61.96 202.69C61.3779 202.304 60.6726 202.15 59.9825 202.257C59.2924 202.364 58.6673 202.726 58.2299 203.27C52.3099 210.07 46.7499 217.04 44.1099 225.95C42.3385 231.411 41.2502 237.071 40.8699 242.8C40.6299 248.72 39.2199 255.01 42.1399 260.53C46.5514 269.205 51.4699 277.613 56.8699 285.71C64.6899 297.04 72.3099 308.71 83.7699 316.97C91.3399 322.43 98.4999 328.47 107.25 332.24C112.41 334.46 118.05 334.24 123.18 336.16C129.1 338.43 135.3 339.04 141.52 339.16C151.35 339.34 161.09 339.54 170.69 335.88C174.36 334.49 173.75 333.46 172.84 331.19C171.29 327.37 169.62 323.52 169.26 319.4C168.12 306.59 170.52 294.31 175.26 282.4C176.26 279.98 178.16 278.4 179.98 276.67C180.7 276 181.64 275.22 182.58 276.24C183.52 277.26 182.58 278.09 181.96 278.83C180.59 280.43 178.78 281.68 177.96 283.76C172.05 299.68 168.71 315.59 176.16 332.12C178.43 337.142 182.336 341.245 187.24 343.76C189.94 345.23 193.39 345.35 196.52 345.95C198.17 346.27 199.74 346.87 199.37 348.68C198.88 351.02 197.37 349.48 196.17 349.11C191.96 347.82 188.01 347.41 184.73 351.43C182.17 354.57 179.56 357.52 180.14 362C180.5 364.74 181.83 367.3 183.99 368.43C186.5 369.75 186.25 366.24 187.43 365.09C191.13 361.45 193.52 361.56 196.29 366.01C196.569 366.424 196.81 366.863 197.01 367.32C198.08 370.04 200.01 371.07 202.93 370.72C204.172 370.575 205.428 370.575 206.67 370.72C209.89 371.08 211.77 370.29 212.91 366.72C214.59 361.39 219 360.94 222.48 365.26C222.8 365.65 223.01 366.12 223.35 366.48C226.45 369.83 231.1 370.48 233.46 367.59C234.64 366.16 235.69 364.59 236.96 363.23C242.55 357.07 244.77 357.23 248.5 364.08C250.79 361.2 250.82 357.61 248.14 353.97C246.14 351.32 243.57 349.67 240.05 351.23C238.25 352.03 236.36 351.71 234.51 351.69C233.62 351.69 232.58 351.5 232.65 350.35C232.72 349.2 233.65 349.07 234.65 349.03C236.263 348.955 237.863 348.7 239.42 348.27C249.63 345.38 256.95 338.42 263.56 330.74C265.97 327.93 268.35 324.56 268.84 320.57C269.953 313.069 268.06 305.431 263.57 299.32C262.608 298.156 261.924 296.788 261.57 295.32C261.39 294.4 261.57 293.49 262.57 293.21C263.45 292.98 263.83 293.73 264.24 294.38C268.71 301.53 272.55 308.72 271.79 317.75C271.45 322.38 270.59 326.38 267.61 329.96ZM94.8899 189.21C94.8899 187.09 94.8899 184.96 94.8899 182.85C94.8899 181.85 95.3499 180.64 94.3399 180.08C93.3299 179.52 92.19 180.47 91.29 181.08C89.72 182.08 88.4599 183.59 86.4899 183.84C76.4899 185.09 69.2999 191.72 61.4899 197.06C60.3499 197.84 60.7399 198.46 61.6099 199.06C62.4259 199.627 63.2853 200.128 64.18 200.56C73.51 204.75 81.7099 210.07 84.8799 220.64C85.0899 221.36 85.5299 222.49 86.4999 222.53C87.7399 222.53 87.95 221.27 88.28 220.42C92.08 210.32 94.7399 200.03 94.8899 189.21ZM257.35 59.8399C254.35 58.5699 252.64 56.33 250.59 54.4C248.345 52.0663 245.971 49.8596 243.48 47.79C242.48 47.01 241.23 46.1799 240.92 48.4899C240.17 54.2199 236.24 58.2699 233.17 62.7099C229.31 68.2699 224.02 72.5899 219.35 77.4599C218.14 78.7199 216.41 79.58 217.47 82.06C218.14 83.63 216.85 84.43 215.03 83.93C220.15 84.69 225.15 84.93 229.44 81.68C238.74 74.67 248.85 68.6899 257.35 59.8399ZM361.95 217.71C365.71 220.65 366.39 225.71 370.75 228.2C372.482 229.449 373.692 231.294 374.15 233.38C374.91 236.52 376.77 238.21 379.41 239.64C385.41 242.87 391.81 241.77 398.12 241.86C398.689 241.872 399.247 241.705 399.716 241.381C400.184 241.058 400.539 240.596 400.73 240.06C402.54 235.89 401.91 233.13 398.22 230.16C395.868 228.103 393.201 226.439 390.32 225.23C381.29 221.81 372.97 216.09 361.95 217.71ZM186.42 31.38C187.42 28.56 188.73 26.38 188.91 24.15C189.17 20.95 191.91 17.53 188.47 14.39C187.7 13.7 188.47 12.76 189.27 12.26C189.466 12.1028 189.694 11.9888 189.937 11.9255C190.181 11.8622 190.435 11.851 190.683 11.8925C190.931 11.934 191.168 12.0273 191.378 12.1665C191.587 12.3056 191.765 12.4873 191.9 12.6999C192.661 13.8475 193.013 15.2177 192.9 16.5899C193.15 21.9499 191.1 26.8199 189.75 31.8399C188.81 35.3299 188.75 35.3199 191.65 38.6199C192.65 31.3999 197.89 24.98 194.21 17.38C195.95 12.66 192.56 11.67 189.29 10.78C185.54 9.87173 181.919 8.49775 178.51 6.69001C176.844 5.85238 175.131 5.11107 173.38 4.46992C172.58 4.12992 171.66 3.59997 170.97 4.39997C170.28 5.19997 171.03 6.05998 171.41 6.77998C172.98 9.77998 174.41 12.83 176.24 15.63C179.57 20.65 182.15 26.21 186.42 31.38ZM341.51 122.16C339.81 121.47 337.08 123.45 337.51 120.46C337.87 118.14 340.34 119.06 341.96 118.96C343.58 118.86 344.96 119.2 345.04 121.29C345.13 124.08 342.57 126.39 339.84 127.02C334.84 128.17 331.12 123.17 326.19 124.39C326.03 124.39 325.72 124.16 325.6 123.97C321.45 117.32 313.79 116.63 307.6 113.32C313.6 117.83 318.32 123.79 324.46 128.03C330.96 132.51 337.89 132.88 344.93 129.03C350.36 126.03 351.1 118.4 346.06 114.97C344.612 113.965 342.923 113.363 341.166 113.226C339.408 113.089 337.646 113.422 336.06 114.19C331.95 116.07 331.88 119.47 335.68 121.96C336.288 122.388 336.872 122.849 337.43 123.34C339.15 124.66 340.35 124.14 341.51 122.11V122.16ZM199.06 19.8199C198.87 21.1699 198.64 22.5099 198.48 23.8199C197.79 29.5299 195.65 34.82 194.17 40.38C193.4 43.25 194.76 45.9699 196.68 46.7399C198.78 47.5799 200.28 44.7399 200.57 42.7399C201.26 37.8799 204.25 34.1699 206.21 29.9499C207.41 27.3699 210.52 25.09 209.88 22.44C209.17 19.5 205.11 19.38 202.66 17.79C201.6 17.1 200.66 15.2799 199.21 16.2399C198.15 16.9299 199.15 18.55 199.06 19.77V19.8199ZM331.15 152.38C330.87 151.08 331.94 149.12 329.6 148.79C327.72 148.52 323.52 152.13 322.8 154.63C321.99 157.38 324.68 157.63 326.02 158.4C331.56 161.73 336.48 165.61 339.65 171.4C340.42 172.79 340.92 174.53 343.04 174.4C345.16 174.27 345.74 172.4 346.48 170.86C347.22 169.32 346.98 167.67 346.84 166.06C346.7 164.45 345.91 163.81 344.05 164.06C339.46 164.7 339.27 164.38 340.47 159.87C340.89 158.29 341.54 156.55 340.17 155.29C338.8 154.03 337.37 155.47 335.97 155.76C334.22 156.13 333.19 159.19 331.21 157.76C329.42 156.38 331.71 154.19 331.15 152.38ZM69.9999 220.67C67.9199 225.67 71.09 240.56 74.91 244.06C76.22 245.27 77.14 244.52 78.17 243.81C81.72 241.35 81.9399 237.32 83.0199 233.67C83.5099 232.02 82.9299 231.38 81.5199 230.53C77.1915 227.845 73.2941 224.521 69.96 220.67H69.9999ZM71.15 244.38C64.87 232.66 65.2699 220.67 69.15 208.54C69.65 207.02 69.41 206.14 67.9 205.66C66.39 205.18 65.9 206.12 65.33 207.47C62.6583 214.736 61.4946 222.47 61.91 230.2C62.25 238.38 64.55 243.28 71.15 244.38ZM246.98 82.79C240.52 81.79 236.76 84.41 233.57 87.66C230.98 90.3 231.32 95.2399 234.24 96.2099C237.838 97.5556 241.71 98.0019 245.52 97.51C238.78 96.38 241.24 88.4899 246.95 82.8299L246.98 82.79ZM288.56 89.56C291.3 89.86 292.19 89.1199 291.98 85.9999C291.6 80.4799 292.53 77.3799 295.59 76.8699C296.47 76.7199 297.68 77.37 298.16 76.06C298.25 75.81 297.98 75.32 297.73 75.06C296.65 74.06 295.41 74.77 294.63 75.28C291.82 77.14 288.94 78.85 286.03 80.55C283.95 81.77 282.28 83.55 283.18 86.41C284 89.15 286.31 89.3799 288.53 89.5999L288.56 89.56ZM223.85 60.05C224.46 61.23 224.55 62.98 225.94 64.05C226.56 64.52 227.1 64.0499 227.58 63.6099C230.73 60.7299 233.58 57.6099 234.94 53.4699C235.19 52.7299 235.65 51.65 234.54 51.19C233.77 50.88 233.21 51.6599 232.63 52.1199C232.257 52.4417 231.98 52.8605 231.83 53.33C231.679 53.7995 231.662 54.3013 231.78 54.78C231.9 56.56 231.36 57.42 229.36 56.29C227.55 55.3 223.85 57.7599 223.82 60.0899L223.85 60.05ZM124.7 181.89C118.63 181.39 116.27 182.25 114.99 185.26C114.39 186.68 113.44 188.26 115.71 189.32C117.45 190.09 119.01 190.38 120.15 188.32C121.338 185.982 122.861 183.829 124.67 181.93L124.7 181.89ZM218.91 72.28C220.1 70.98 221.19 69.8099 222.25 68.6199C224.03 66.6199 222.25 64.94 221.71 63.17C221.48 62.44 221.07 61.8499 220.12 61.9699C219.394 62.0845 218.706 62.3664 218.108 62.7934C217.511 63.2204 217.021 63.7806 216.677 64.4298C216.334 65.0789 216.146 65.7992 216.129 66.5334C216.112 67.2676 216.267 67.9957 216.58 68.66C217.281 69.92 218.049 71.1416 218.88 72.3199L218.91 72.28ZM228.91 29.0899C226.83 30.8699 225.26 32.09 223.91 33.4C221.81 35.48 224.02 37.09 224.84 38.63C225.97 40.74 227.01 38.79 228.06 38.19C232.28 35.77 228.96 32.72 228.85 29.13L228.91 29.0899ZM249.21 84.0899C254.64 86.6999 254.74 86.9299 254.21 94.2499C257.54 92.6799 259.29 89.6599 258.35 87.0999C257.48 85.0499 252.59 83.2499 249.15 84.1199L249.21 84.0899Z" fill="white"/>
<path d="M349.5 29.9301C349.293 30.5052 349.043 31.0635 348.75 31.6C345.407 37.1208 341.695 42.4096 337.64 47.4301C336.24 49.1201 334.86 50.69 332.82 48.84C330.96 47.15 329.51 44.9701 331.46 42.3001C332.92 40.3001 334.34 38.2501 335.9 36.3001C337.99 33.6655 339.793 30.8161 341.28 27.8001C341.438 27.3875 341.683 27.0135 341.998 26.7033C342.312 26.393 342.69 26.1536 343.105 26.0011C343.519 25.8486 343.962 25.7866 344.403 25.8192C344.844 25.8518 345.272 25.9783 345.66 26.1901C347.26 26.9501 349.21 27.6101 349.5 29.9301Z" fill="white"/>
<path d="M132.39 108.71C132.39 106.71 132.39 105.49 132.39 104.25C132.46 100.81 135.39 98.98 138.5 100.44C138.729 100.546 138.934 100.697 139.103 100.883C139.273 101.069 139.403 101.288 139.487 101.525C139.571 101.763 139.606 102.015 139.591 102.266C139.577 102.518 139.511 102.764 139.4 102.99C138.15 106.91 140.06 109.66 142.69 112.18C143.41 112.87 143.99 113.7 144.76 114.32C147.76 116.72 147.57 118.73 144.11 120.42C143.999 120.478 143.895 120.549 143.8 120.63C139.28 124.51 138.37 124.27 134.86 119C132.829 115.977 131.952 112.325 132.39 108.71V108.71Z" fill="white"/>
<path d="M139.15 22.1601C136.79 27.1601 134.83 32.37 130.56 36.24C130.373 36.4034 130.151 36.5199 129.91 36.58C129.21 36.79 120.61 30.79 120.6 30.08C120.6 28.85 121.43 28.4101 122.41 28.0201C127.41 26.0201 131.41 23.1901 131.77 17.1901C131.764 17.0006 131.799 16.812 131.873 16.6376C131.948 16.4632 132.059 16.3072 132.2 16.1805C132.341 16.0537 132.508 15.9594 132.69 15.9041C132.871 15.8487 133.062 15.8337 133.25 15.86C134.85 16 138.87 20.3801 139.15 22.1601Z" fill="white"/>
<path d="M129.93 55.52C129.28 52.47 132.72 52.96 135.06 53.06C137.58 53.18 139.94 54.06 139.06 57.73C138.4 60.52 139.41 63.0799 141.46 65.2199C143.1 66.9299 142.27 73.6699 140.27 74.7099C138.27 75.7499 137.18 74.22 136.16 73.01C132.29 68.38 130.6 62.86 129.93 55.52Z" fill="white"/>
<path d="M456.9 136.76C456.9 140.2 455.4 141.2 452.13 139.86C450.42 139.16 448.93 138.13 446.9 138.07C445.918 138.023 444.941 138.233 444.064 138.679C443.187 139.124 442.442 139.789 441.9 140.61C441.28 141.4 440.77 142.89 439.32 142.09C438.13 141.43 438.44 140.09 438.55 139.03C438.649 137.679 438.873 136.34 439.22 135.03C440.14 131.97 439.89 129.66 436.12 129.03C435.961 129.014 435.807 128.964 435.668 128.885C435.529 128.805 435.409 128.697 435.315 128.568C435.22 128.439 435.154 128.291 435.121 128.135C435.087 127.978 435.087 127.817 435.12 127.66C435.171 127.443 435.267 127.239 435.401 127.061C435.536 126.883 435.706 126.735 435.901 126.627C436.096 126.519 436.311 126.452 436.533 126.432C436.755 126.412 436.979 126.439 437.19 126.51C439.265 126.934 441.312 127.485 443.32 128.16C447.16 129.52 450.94 131.09 454.77 132.5C456.87 133.27 456.94 134.96 456.9 136.76Z" fill="white"/>
<path d="M22.55 204.67C22.8609 207.002 22.5788 209.375 21.7299 211.57C21.5088 212.413 21.0327 213.167 20.3669 213.729C19.7011 214.291 18.8779 214.633 18.01 214.71C14.19 215.17 11.09 218.04 7.08003 218.16C5.08003 218.22 3.07997 218.92 2.64997 215.83C2.08997 211.26 2.90994 209.26 6.11994 209.75C11.7799 210.63 15 206.66 19.04 204.25C19.2417 204.112 19.4177 203.939 19.56 203.74C20.35 202.74 19.31 199.93 21.56 200.63C23.65 201.25 22.15 203.76 22.55 204.67Z" fill="white"/>
<path d="M99.86 85.2901C100.35 88.4401 99.22 91.4501 99.02 94.5501C98.8 98.0701 95.72 99.1801 93.02 99.6901C90.02 100.26 87.96 97.9601 86.25 95.8101C85.9532 95.3172 85.8492 94.7319 85.9581 94.1669C86.0671 93.602 86.3812 93.0973 86.84 92.7501C90.51 89.3401 93.84 85.7501 95.1 80.6801C95.44 79.2901 96.7 79.32 97.86 79.37C98.1385 79.3689 98.4141 79.426 98.6693 79.5375C98.9245 79.6491 99.1536 79.8128 99.3419 80.018C99.5302 80.2232 99.6735 80.4655 99.7627 80.7293C99.8519 80.9931 99.8851 81.2727 99.86 81.5501C99.89 82.8001 99.86 84.0501 99.86 85.2901Z" fill="white"/>
<path d="M139.91 143.51C139.83 141.71 140.06 140.21 142.19 139.78C143.37 139.55 144.01 138.54 144.68 137.62C145.5 136.5 146.4 135.31 148 135.62C149.6 135.93 150 137.25 150.29 138.68C150.58 140.11 151.1 141.3 151.45 142.68C153.01 148.56 152.99 148.56 147.89 152.01C147.38 152.36 146.89 152.83 146.42 153.17C145.42 153.83 145.9 156.1 144.22 155.79C142.22 155.43 143.11 153.29 142.59 152C141.47 149.18 139.67 146.63 139.91 143.51Z" fill="white"/>
<path d="M375.15 173.63C375.45 176.53 373.95 177.92 371.25 177.83C368.12 177.615 365.032 178.647 362.66 180.7C361.33 181.85 360.23 181.7 359.66 179.8C359.293 178.605 358.786 177.457 358.15 176.38C357.27 174.91 357.77 173.88 359.15 173.44C362.92 172.25 365.06 169.01 367.92 166.69C370.78 164.37 372.06 164.37 373.79 167.86C374.641 169.668 375.104 171.633 375.15 173.63Z" fill="white"/>
<path d="M378.15 143.69C378.15 145.62 377.95 146.57 376.67 147.15C373.73 148.48 370.67 149.72 368.17 151.81C367.32 152.5 365.91 152.63 365.52 151.65C364.73 149.73 361.75 148.33 363.52 145.77C365.86 142.25 368.45 138.89 371.07 135.57C371.246 135.301 371.487 135.081 371.771 134.931C372.055 134.781 372.373 134.706 372.694 134.713C373.016 134.72 373.33 134.808 373.607 134.971C373.885 135.133 374.116 135.363 374.28 135.64C375.937 138.131 377.24 140.84 378.15 143.69Z" fill="white"/>
<path d="M84.15 20.23C84.15 28.08 76.15 35.76 68.49 35.42C67.4367 35.342 66.4093 35.0561 65.467 34.579C64.5248 34.1018 63.6863 33.4428 63 32.64C60.77 30.33 61.68 26.72 64.81 26.54C71.21 26.16 75.5001 22.01 80.4401 18.98C80.7218 18.8491 80.9478 18.6224 81.0779 18.3403C81.2079 18.0582 81.2335 17.7392 81.15 17.44C80.89 16.27 80.64 14.98 82.4 15.12C83.72 15.21 84.09 16.43 84.14 17.62C84.15 18.49 84.15 19.38 84.15 20.23ZM64.62 29.13C66.81 32.31 69.04 33.47 71.39 32.29C75.2 30.37 78.7701 27.93 80.3201 23.56C75.5001 26.31 70.95 29.24 64.59 29.13H64.62Z" fill="white"/>
<path d="M19.89 86.61C19.89 80.08 20.16 79.8601 26.15 79.0501C29.1058 78.5131 31.9203 77.3763 34.42 75.71C35.49 75.07 36.7899 74.0401 37.7199 75.3901C38.9399 77.1801 36.86 77.7701 35.89 78.3901C32.89 80.2101 29.79 81.8601 26.17 81.9001C24.29 81.9001 22.86 82.46 22.78 84.49C22.71 86.14 21.87 88.2101 23.78 89.2801C24.5644 89.7138 25.4784 89.8514 26.3557 89.6679C27.233 89.4843 28.0153 88.9919 28.56 88.2801C31.4194 84.998 34.6059 82.0159 38.07 79.38C38.6831 78.833 39.1092 78.1076 39.2885 77.3058C39.4679 76.504 39.3915 75.6662 39.07 74.9101C38.73 73.7501 39.07 72.91 40.33 72.74C41.33 72.64 41.94 73.39 42.02 74.36C42.28 77.36 42.52 80.25 39.45 82.36C36.4836 84.1817 33.8963 86.5584 31.83 89.36C29.52 92.83 25.94 92.86 22.44 92.26C18.77 91.6 20.34 88.38 19.89 86.61Z" fill="white"/>
<path d="M471.36 210.38C477.94 210.27 481.69 210.84 483.47 219.07C483.988 221.766 485.109 224.309 486.75 226.51C488.91 229.27 486.44 231.21 484.52 232.65C482.6 234.09 480.1 233.65 479.13 231.39C477.37 227.32 474.71 223.87 472.33 220.22C471.62 219.13 470.84 217.87 472.33 217C473.82 216.13 474.33 217.74 474.87 218.55C477.21 221.78 479.68 224.94 481.28 228.64C481.56 229.27 481.78 230.32 482.77 229.94C483.76 229.56 483.85 228.66 483.46 227.73C482.05 224.41 481.01 220.97 479.88 217.55C478.75 214.13 475.62 213.13 472.05 213.06C470 213.06 466.23 214.26 466.22 211.86C466.22 208.92 469.99 211.28 471.36 210.38Z" fill="white"/>
<path d="M393.25 28.96C395.292 29.1312 397.21 30.0122 398.67 31.45C401.158 33.7032 403.961 35.5829 406.99 37.03C409.19 38.13 409.62 39.33 407.3 40.65C405.48 41.65 404.45 43.3701 403.24 44.9301C400.77 48.1301 400.09 48.1401 397.82 44.9301C396.895 43.6073 395.715 42.4821 394.35 41.62C392.65 40.54 391.19 40 390.09 42.29C389.73 43.03 389.21 43.54 388.34 43.14C387.992 42.9836 387.715 42.7038 387.561 42.3546C387.408 42.0055 387.39 41.6119 387.51 41.25C388.66 37.71 389.81 34.2501 389.93 30.4301C389.97 28.9001 391.77 29.12 393.25 28.96ZM403.3 39.6901C403.334 39.2769 403.23 38.8641 403.006 38.5154C402.782 38.1666 402.45 37.9012 402.06 37.76C400.094 36.6902 398.292 35.3431 396.71 33.76C395.39 32.53 394.08 32.37 393.1 34.2C392.25 35.78 391.78 37.2 394.1 38.03C395.943 38.7928 397.606 39.9341 398.98 41.38C399.55 41.94 400.13 43.11 401.07 42.38C401.923 41.58 402.672 40.6763 403.3 39.6901V39.6901Z" fill="white"/>
<path d="M106.67 172.58C105.723 172.748 104.749 172.66 103.847 172.326C102.945 171.992 102.149 171.424 101.54 170.68C99.5775 168.258 97.0549 166.349 94.19 165.12C92.45 164.41 92.77 163.28 93.69 162.18C95.29 160.28 96.89 158.36 98.69 156.61C100.2 155.11 101.69 155.76 103.41 156.71C107.77 159.17 111.23 162.8 115.3 165.62C116.69 166.62 116.84 168.8 115.68 168.98C112.25 169.51 110.4 173.58 106.67 172.58ZM100.98 159.16C99.7299 159.4 99.32 160.94 98.28 161.74C97.81 162.11 97.28 162.88 97.91 163.28C100.91 165.08 102.73 168.34 106.05 169.64C107.5 170.21 108.71 169.56 109.7 168.47C110.26 167.86 111.09 167.38 110.7 166.29C110.31 165.2 102.43 159.28 100.98 159.16Z" fill="white"/>
<path d="M391.43 98.6601C390.99 98.8501 390.76 98.9301 390.54 99.0501C389.54 99.5901 388.74 101.05 387.31 99.99C387.157 99.877 387.03 99.7326 386.938 99.5663C386.845 99.4001 386.79 99.2161 386.775 99.0265C386.759 98.837 386.785 98.6464 386.85 98.4676C386.915 98.2888 387.017 98.1259 387.15 97.99C388.42 96.73 389.28 94.71 391.57 94.99C392.325 95.0446 393.049 95.3122 393.658 95.7618C394.267 96.2114 394.736 96.8246 395.01 97.5301C396.41 101.38 399.56 102.59 403.16 103.07C405.24 103.35 406.09 104 405.22 106.23C404.308 108.544 403.563 110.92 402.99 113.34C402.46 115.57 401.37 116 399.51 114.92C394.74 112.13 392.35 107.44 389.93 102.78C389.746 102.446 389.694 102.055 389.785 101.684C389.875 101.314 390.102 100.991 390.42 100.78C391.42 100.13 392.07 100.78 392.56 101.58C394.19 104.09 395.75 106.64 397.4 109.13C398.02 110.07 398.82 111.13 400.1 110.66C401.22 110.29 400.82 108.92 401.24 108.05C401.77 106.92 401.38 106.17 400.24 105.73C396.94 104.51 393.65 103.28 392.48 99.4101C392.33 99.0701 391.71 98.8701 391.43 98.6601Z" fill="white"/>
<path d="M129.87 156.13C129.87 155.75 129.87 156.25 129.87 156.75C129.8 157.64 129.68 158.68 128.58 158.75C127.48 158.82 127.13 157.75 127.2 156.88C127.51 152.96 125.2 150.32 122.73 147.82C121.73 146.77 120.53 145 118.73 146.65C117.27 147.97 114.67 148.37 116.1 151.76C117.39 154.82 118.38 156.87 122.1 155.76C122.653 155.631 123.227 155.617 123.786 155.719C124.345 155.82 124.877 156.035 125.35 156.35C126.27 156.89 127.05 157.55 126.63 158.73C126.14 160.1 125.14 159.73 124.2 159.24C123.334 158.765 122.326 158.616 121.36 158.82C116.36 159.61 111.04 153.36 112.27 148.34C112.453 147.744 112.765 147.195 113.183 146.732C113.601 146.269 114.115 145.903 114.69 145.66C115.319 145.388 115.888 144.994 116.365 144.502C116.842 144.009 117.218 143.428 117.47 142.79C118.67 139.3 120.14 140.01 122 142.41C123.528 144.211 125.146 145.934 126.85 147.57C127.944 148.692 128.781 150.039 129.303 151.517C129.824 152.995 130.018 154.569 129.87 156.13V156.13Z" fill="white"/>
<path d="M18.15 132.91C18.133 134.45 17.9248 135.981 17.5301 137.47C16.5301 142.59 16.6201 142.64 11.5301 142.11C10.974 142.046 10.4109 142.093 9.87343 142.25C9.336 142.406 8.83508 142.668 8.40005 143.02C6.40005 144.57 4.13006 144.11 1.92007 144.08C0.330065 144.08 -0.319915 143.25 0.190085 141.62C0.830085 139.62 1.47999 137.62 1.96999 135.55C3.10999 130.77 6.33999 128.55 10.97 127.96C11.47 127.9 11.9701 127.96 12.4601 127.82C17.6601 126.7 18.2 127.15 18.15 132.91ZM11.39 139.16C12.39 138.97 13.91 140.04 14.39 138.57C14.9297 136.551 15.245 134.478 15.3301 132.39C15.4301 130.91 14.24 130.68 13.02 130.67C10.7151 130.699 8.50629 131.598 6.83694 133.187C5.16758 134.777 4.16125 136.939 4.02004 139.24C3.96004 140.91 4.56999 141.7 6.21999 140.71C7.86999 139.72 9.42005 138.9 11.4 139.16H11.39Z" fill="white"/>
<path d="M441.2 90.8899C435.65 90.8899 434.46 89.3899 434.2 82.8899C434.2 82.1499 434.26 81.41 434.2 80.68C434.14 79.95 434.2 79.1799 435.02 78.8499C435.314 78.7252 435.643 78.7112 435.946 78.8105C436.25 78.9098 436.507 79.1157 436.67 79.3899C438.04 81.8799 439.67 81.09 441.67 80.16C443.92 79.16 446.26 78.3099 448.44 77.0699C451.17 75.5199 452.15 76.2699 452.44 79.4699C452.66 82.2699 451.75 84.8999 451.44 87.6099C451.407 88.246 451.143 88.8482 450.698 89.3032C450.252 89.7581 449.655 90.0344 449.02 90.0799C446.15 90.3799 443.32 90.6599 441.2 90.8899ZM449.46 80.3499C446.04 81.7199 442.98 83 439.87 84.15C439.599 84.2103 439.343 84.3233 439.117 84.4826C438.89 84.6419 438.696 84.8444 438.548 85.0784C438.399 85.3124 438.298 85.5734 438.251 85.8465C438.203 86.1196 438.209 86.3994 438.27 86.67C438.44 88 439.46 88.0199 440.49 88.0999C446.9 88.5899 448.64 87.1699 449.46 80.3799V80.3499Z" fill="white"/>
<path d="M371.94 65.63C371.71 66.654 371.117 67.56 370.27 68.1801C367.46 70.9001 365.09 73.87 363.95 77.72C363.15 80.43 361.82 79.4901 360.53 78.0301C358.82 76.0301 357.53 73.1801 354.04 75.0301C353.54 75.2801 352.82 74.8501 352.58 74.1501C352.498 73.8462 352.514 73.5243 352.625 73.23C352.737 72.9357 352.938 72.6838 353.2 72.51C355.332 70.5507 356.742 67.9294 357.2 65.07C357.224 64.947 357.268 64.8287 357.33 64.72C359.5 60.82 363.16 63.23 366.11 62.72C368.18 62.37 370.44 62.44 371.71 64.72C371.822 65.0135 371.899 65.3189 371.94 65.63V65.63ZM368.44 65.4201C365.74 65.4201 363.9 65.4201 362.06 65.4201C359.41 65.5001 359.66 67.7501 359.12 69.4201C358.53 71.3001 359.6 72.48 360.8 73.57C361.63 74.33 362.15 73.5701 362.5 72.9401C363.92 70.3801 366.01 68.28 368.44 65.38V65.4201Z" fill="white"/>
<path d="M87.88 139.64C86 139.64 83.7501 139.75 83.2001 137.51C82.6501 135.27 85.0001 134.98 86.4301 134.09C88.6501 132.72 90.8801 131.28 91.2101 128.3C91.3001 127.5 91.7701 126.61 92.5701 126.86C93.9505 127.249 95.2413 127.905 96.37 128.79C97.2 129.48 96.46 130.46 95.73 130.96C95.2026 131.272 94.7599 131.709 94.4408 132.232C94.1217 132.755 93.936 133.348 93.9 133.96C93.45 138.74 92.49 139.57 87.88 139.64Z" fill="white"/>
</g>
<defs>
<clipPath id="clip0_0_3">
<rect width="487.59" height="373.83" fill="white"/>
</clipPath>
</defs>
</svg>