<?xml version="1.0" encoding="UTF-8" standalone="no"?>
<svg
   fill="none"
   height="184"
   viewBox="0 0 526 184"
   width="526"
   version="1.1"
   id="svg10"
   xmlns="http://www.w3.org/2000/svg"
   xmlns:svg="http://www.w3.org/2000/svg">
  <defs
     id="defs10" />
  <path
     id="path1"
     d="M 113.02734,0.09179687 C 75.816049,-1.1136606 58.24376,9.9899464 56.203125,11.375 c -0.1462,0.0992 -0.239847,0.226872 -0.310547,0.388672 L 30.5,69.898438 17.4375,115.76953 c -0.202,0.709 0.412926,1.38467 1.140625,1.26367 33.739566,-5.60199 60.27883,-0.49175 115.421875,14.74024 55.99994,15.46898 103.42609,35.92383 191,35.92383 81.18592,0 184.59116,-94.773928 199.24414,-108.599614 0.658,-0.621099 0.14328,-1.650672 -0.76172,-1.638672 -21.81498,0.2896 -41.29582,0.06588 -46.88281,-0.01172 -0.74,-0.0102 -1.20423,-0.794226 -0.86523,-1.453125 L 497.2168,14.177734 c 0.38,-0.740899 -0.80663,-1.868187 -1.51563,-1.429687 C 474.32819,25.981234 355.38366,92.170018 237.42578,35.609375 182.79127,9.4126012 141.96946,1.0293749 113.02734,0.09179687 Z M 91.03125,26.007812 c 4.365606,0.232518 9.0974,5.501274 9.58008,18.970704 -0.076,3.461392 -1.802053,7.161105 -1.251955,8.595703 0.1677,0.564898 14.255855,5.769531 14.255855,5.769531 0,0 5.01166,-11.664346 8.09766,-16.990234 5.77298,-14.467572 18.53267,-6.293326 14.80469,2.660156 -2.473,13.991372 -11.4393,40.450423 -13.36328,46.787109 -4.323,12.321779 -19.95378,14.324299 -14.5918,-2.355469 1.405,-6.430486 2.7793,-14.203124 2.7793,-14.203124 L 94.273438,68.699219 c -10e-7,0 -3.315669,6.621421 -6.539063,12.724609 -5.43829,11.052578 -24.4309,15.393562 -13.294922,-11.208984 5.36139,-16.679568 7.91339,-29.587777 9.242188,-37.101563 0.781592,-4.421059 3.954137,-7.286314 7.349609,-7.105469 z m 80.18359,15.998047 c 0.24134,0.0089 0.47718,0.0281 0.70899,0.05273 1.6,0.1324 3.77545,3.385626 5.43945,6.511718 5.448,20.58766 -4.31503,58.453093 -6.04101,60.996103 -5.942,9.59798 -16.36819,7.78304 -12.40821,-2.58594 1.85,-6.29898 3.83203,-12.025397 3.83203,-12.025397 L 149.25,93.447266 c -10.60498,20.602064 -20.13953,11.976254 -14.64453,3.076172 5.87798,-10.42628 18.40036,-33.252543 24.27734,-44.761719 4.0725,-8.107484 8.71202,-9.889571 12.33203,-9.75586 z m 43.97266,16 c 10.93437,-0.290912 14.04937,9.862088 12.39844,14.513672 -0.944,2.736096 -4.6591,5.843758 -9.95508,-0.923828 -8.82498,-4.42129 -14.36,13.647212 -16.875,22.746094 -1.068,5.410288 -1.94434,15.470593 2.97266,19.433593 2.89998,2.365 6.48973,1.93141 9.13671,2.06641 2.079,0.261 6.24297,8.36158 -5.91601,12.01758 -2.08,-0.262 -12.79105,-0.29504 -17.20703,-10.625 -4.859,-10.71398 -1.7793,-26.433599 -1.7793,-26.433599 0,0 6.40863,-32.458297 24.93359,-32.591797 0.79938,-0.116943 1.56206,-0.18373 2.29102,-0.203125 z M 433.75,59 c 1.49197,0.0077 2.88144,0.244041 4.17969,0.712891 3.03998,1.867796 5.00554,7.000631 4.18554,11.419921 -0.94698,3.842194 -2.52734,6.978516 -2.52734,6.978516 5.256,0.5298 9.10352,5.774639 10.10352,12.640625 1,6.866086 -5.46812,13.328127 -17.4961,17.328127 -4.05198,1.141 -8.35587,1.12875 -8.54687,-0.28125 -0.129,-2.757 -10.3418,-35.601564 -10.3418,-35.601564 -0.319,-1.988196 -1.39512,-4.168769 3.92188,-7.164063 C 423.87425,61.015836 429.2741,58.976755 433.75,59 Z m -265.79492,0.386719 c -0.20118,-0.03582 -0.42977,0.01741 -0.68946,0.171875 l -12.84374,18.683594 13.30468,2.271484 c 0,0 3.24618,-20.589613 0.22852,-21.126953 z M 244.04492,68 c 3.91207,-0.06163 8.60513,5.076998 7.96094,11.396484 0.256,8.688984 -2.30859,20.160157 -2.30859,20.160157 0,0 1.25213,-2.91419 12.03711,-12.013672 10.78596,-9.098382 13.29887,-5.220521 11.92187,0.355469 -1.315,5.323988 -15.10937,19.041012 -15.10937,19.041012 1.94498,0.767 3.95703,6.67188 3.95703,6.67188 3.07798,8.06298 4.71329,14.41047 5.15429,19.10547 -0.18,13.69696 -12.54234,9.72704 -13.48632,2.74804 -0.883,-7.23198 -4.71876,-24.11328 -4.71876,-24.11328 l -4.39062,0.49414 c 0,0 -2.69367,8.74216 -5.13867,12.16016 -10.09198,14.93496 -19.25417,9.89759 -14.74219,1.34961 0.564,-1.204 5.32753,-9.68555 7.26953,-14.31055 8.14498,-18.935558 4.06136,-29.412293 7.31836,-39.359373 0.88063,-2.553777 2.49718,-3.657534 4.27539,-3.685547 z m 186.49805,0 c -2.73504,0.143894 -6.32807,1.731215 -9.64063,2.875 l 4.43946,10.396484 c 0,0 10.76218,-4.325368 9.49218,-10.097656 C 434.2788,68.64889 432.67022,67.888082 430.54297,68 Z m -31.82227,4 c 2.32834,-0.01668 5.17432,2.675652 6.90625,7.417969 2.566,9.39448 5.23944,24.570801 3.89844,29.966801 -1.278,5.13798 -2.6193,11.62784 -9.2793,13.21484 -1.72898,0.381 -16.13903,2.45543 -21.20703,-13.31055 -4.87798,-16.536762 -6.41609,-21.297073 -6.99609,-26.634763 -0.58,-5.33769 4.86236,-8.600329 8.06836,-2.869141 2.435,4.442792 5.26425,23.738584 9.24023,31.851564 2.18,3.285 6.66435,3.87728 8.77735,0.86328 2.49498,-4.557 0.69434,-15.940637 -0.84766,-25.074219 -1.092,-4.37499 -2.35011,-7.719115 -2.28711,-10.162109 C 395.41239,73.664847 396.90977,72.01297 398.7207,72 Z m -54.21093,10.001953 c 2.12729,0.0949 4.47031,2.956359 5.72656,10.695313 3.30998,10.667974 2.46864,31.295094 4.05664,33.205074 1.588,1.91 13.40839,-0.75503 16.60937,-1.83203 3.2,-1.077 9.09863,0.33697 7.76563,3.54297 -1.079,3.271 -4.13063,3.58086 -4.76563,3.96484 -0.636,0.383 -27.35565,8.30424 -28.34765,3.03126 -0.992,-5.274 -1.05469,-7.70065 -2.05469,-16.68165 -1,-8.98198 -3.432,-21.281627 -3.5,-28.666011 -0.0356,-3.92237 2.09882,-7.367325 4.50977,-7.259766 z M 318.72461,85 c 3.75961,0.04816 7.10011,2.248974 9.91992,6.232422 2.54,5.06509 1.14895,10.766328 -5.95703,5.623047 -0.445,-0.3903 -3.04408,-1.890748 -5.58008,-0.34375 -0.634,0.387098 -1.83747,0.902901 -3.10547,2.779297 -4.24498,6.338984 -2.97109,17.687314 -0.62109,23.529294 3.557,8.63298 7.80522,11.11122 13.44922,8.99024 5.64198,-2.122 5.89617,-0.95636 6.91015,-0.69336 1.268,0.329 4.50803,10.25837 -9.25195,12.48437 -13.75996,2.225 -21.81789,-8.95138 -22.46289,-28.40234 -0.325,-13.03098 2.58686,-21.64268 7.21484,-26.23047 3.38319,-2.740538 6.56023,-4.006212 9.48438,-3.96875 z m 117.73047,0.638672 c -4.46999,0.110534 -9.58985,3.648437 -9.58985,3.648437 0,0 3.04593,12.762551 2.91993,12.185551 -0.065,-0.833 15.69007,-3.971467 12.33007,-12.185551 -1.15567,-2.823247 -3.31873,-3.706336 -5.66015,-3.648437 z"
     style="fill:#ffffff;fill-opacity:1" />
  <path
     d="m 56.2741,6.96607 c 0,0 1.0366,-1.19259 2.9957,-0.94409 1.9591,0.2485 1.4758,2.50907 0.7379,3.98192 C 59.2698,11.4768 40.6829,49.588 27.2312,92.5764 13.7796,135.565 14.8081,181.5 14.8081,184 H 0.00983695 C -0.191864,179.5 2.61166,136.251 17.4214,92.5764 32.2312,48.9014 54.3114,8.48401 56.2741,6.96607 Z"
     fill="#000"
     id="path10"
     style="fill:#ffffff;fill-opacity:1" />
</svg>
