<svg xmlns="http://www.w3.org/2000/svg" width="286" height="82" fill="none" viewBox="0 0 286 82"><path fill="#000" fill-rule="evenodd" d="M153.796 7.84696C153.796 9.26219 154.301 10.45 155.312 11.4103C156.323 12.3454 157.624 12.8129 159.216 12.8129C160.404 12.8129 161.352 12.636 162.06 12.2822C162.742 11.9031 163.487 11.3724 164.296 10.6901C165.08 9.98244 165.876 9.43909 166.684 9.06001C167.468 8.68093 168.517 8.49139 169.831 8.49139C172.206 8.49139 174.607 9.08528 177.033 10.2731C179.459 11.4356 182.176 13.4952 185.183 16.4521C188.123 19.3415 192.663 23.8676 192.793 30.2209L192.793 30.2226V56.3484C192.793 58.4928 192.464 59.9105 191.805 60.6014C190.889 61.4592 189.079 61.9476 186.376 62.0668V68.0711H212.288V62.0668H211.653C210.76 62.0668 209.761 61.9238 208.657 61.6379C207.576 61.3281 206.788 60.8635 206.295 60.244C205.825 59.6245 205.59 58.3975 205.59 56.5628V30.2581C205.59 30.2581 205.588 25.8213 212.288 24.9558V18C210.569 17.9787 208.767 18.2611 206.994 18.539C206.32 18.6447 205.65 18.7497 204.99 18.8371C200.572 19.4224 196.621 19.9457 195 18C194.942 17.9309 194.887 17.8673 194.833 17.8089C191.748 14.0559 188.81 10.9753 186.017 8.56721C182.53 5.53457 179.131 3.34854 175.82 2.00912C172.51 0.669708 169.098 0 165.585 0C163.589 0 161.693 0.303264 159.899 0.909792C158.104 1.51632 156.639 2.41348 155.501 3.60126C154.364 4.78904 153.796 6.20428 153.796 7.84696ZM188 51.807C188 54.2844 187.459 56.6649 186.376 58.9484C185.316 61.2103 183.604 63.2569 181.241 65.088C178.877 66.9191 175.796 68.3625 171.996 69.4181C168.219 70.4737 163.768 71.0015 158.643 71.0015C153.651 71.0015 149.112 70.5491 145.025 69.6443C140.961 68.761 137.769 67.5223 135.449 65.9282C133.13 64.334 131.97 62.5568 131.97 60.5964C131.97 59.153 132.489 57.9682 133.527 57.0418C134.544 56.1155 135.858 55.6523 137.47 55.6523C138.818 55.6523 139.989 56.0186 140.983 56.751C141.977 57.4835 142.584 58.5067 142.805 59.8208C143.158 61.5658 144.992 62.9014 148.305 63.8278C151.619 64.7756 154.744 65.2496 157.682 65.2496C163.757 65.2496 168.208 64.097 171.035 61.792C173.885 59.5085 175.31 56.4387 175.31 52.5825C175.31 49.6743 174.813 47.3478 173.819 45.6028C172.847 43.8363 171.543 42.5868 169.909 41.8544C168.296 41.122 166.441 40.7557 164.342 40.7557H159.703V57.2086C159.703 58.8655 158.36 60.2086 156.703 60.2086H150.709C149.052 60.2086 147.709 58.8655 147.709 57.2086V25.4712C147.709 23.7909 147.355 22.6599 146.649 22.0783C145.964 21.4751 144.705 21.1735 142.871 21.1735C140.927 21.1735 139.293 21.5074 137.967 22.1752C136.62 22.843 135.626 23.6186 134.985 24.5018C134.323 25.3635 133.991 26.0852 133.991 26.6669C133.991 27.227 134.146 27.507 134.455 27.507C134.521 27.507 134.764 27.3993 135.184 27.1839C135.582 26.9469 136.046 26.7315 136.576 26.5376C137.106 26.3437 137.647 26.2468 138.199 26.2468C139.591 26.2468 140.751 26.7099 141.678 27.6363C142.628 28.5411 143.103 29.6505 143.103 30.9646C143.103 32.0633 142.783 33.065 142.142 33.9698C141.524 34.8746 140.684 35.5855 139.624 36.1025C138.542 36.598 137.371 36.8457 136.112 36.8457C133.262 36.8457 131.031 35.9086 129.419 34.0344C127.806 32.1602 127 29.9844 127 27.507C127 25.3097 127.574 23.2631 128.723 21.3674C129.85 19.4501 131.694 17.9098 134.256 16.7465C136.819 15.5832 140.121 15.0015 144.163 15.0015C145.334 15.0015 146.406 15.0123 147.378 15.0338C148.372 15.0554 149.343 15.0769 150.293 15.0985C151.265 15.12 152.326 15.1308 153.474 15.1308H167.192C168.694 15.1308 170.207 15.1846 171.731 15.2924C173.255 15.3785 174.724 15.5724 176.138 15.874C177.574 16.1541 178.888 16.5957 180.081 17.1989C181.959 18.1467 183.45 19.5147 184.554 21.3027C185.681 23.0692 186.244 25.1589 186.244 27.5717C186.244 28.9504 186.012 30.3291 185.548 31.7078C185.084 33.0866 184.289 34.3791 183.162 35.5855C182.058 36.7704 180.622 37.7398 178.855 38.4938V38.623C182.08 39.9802 184.41 41.7467 185.846 43.9225C187.282 46.0983 188 48.7264 188 51.807ZM174.249 28.1856C174.249 26.6561 173.785 25.3851 172.858 24.3726C171.952 23.3385 170.792 22.6061 169.379 22.1752C167.987 21.7228 166.551 21.4966 165.071 21.4966C162.641 21.4966 161.106 21.712 160.466 22.1429C159.957 22.4445 159.703 23.2631 159.703 24.5988V34.8746H164.607C167.17 34.8746 169.412 34.4114 171.334 33.4851C173.277 32.5372 174.249 30.7707 174.249 28.1856ZM79.9492 54.5073C81.3164 50.3415 82 46.1073 82 41.8049C82 39.7561 81.7152 37.8325 81.1455 36.0341C80.5986 34.213 79.7782 32.6081 78.6845 31.2195C77.5907 29.8081 76.1665 28.6927 74.4118 27.8732C72.68 27.0309 70.6292 26.6098 68.2593 26.6098C66.9376 26.6098 65.6729 26.7577 64.4652 27.0537C63.2575 27.3496 62.1295 27.7366 61.0813 28.2146C60.0559 28.6699 58.8595 29.2732 57.4923 30.0244V25.1415C59.8622 25.0732 62.2662 24.5951 64.7045 23.7073C67.1427 22.8195 69.1708 21.5902 70.7887 20.0195C72.4293 18.4488 73.2497 16.6618 73.2497 14.6585C73.2497 13.4065 72.8851 12.2683 72.1559 11.2439C71.4267 10.2195 70.4127 9.42276 69.1138 8.85366C67.8377 8.28455 66.3907 8 64.7728 8C62.8587 8 60.8876 8.3187 58.8595 8.9561C56.8542 9.5935 54.9287 10.6293 53.083 12.0634C51.26 13.4976 49.7446 15.387 48.5369 17.7317C47.557 17.6406 46.11 17.4016 44.1959 17.0146C42.2818 16.6049 40.1398 16.1154 37.7699 15.5463C35.4228 14.9772 33.9416 14.6358 33.3264 14.522L28.6436 13.4634C24.0178 12.439 20.4744 11.9268 18.0133 11.9268C14.618 11.9268 11.5304 12.5528 8.75031 13.8049C5.97027 15.0569 3.81687 16.7528 2.29012 18.8927C0.763374 21.0325 0 23.3545 0 25.8585C0 27.7024 0.455745 29.4781 1.36724 31.1854C2.25594 32.8927 3.53203 34.2699 5.1955 35.3171C6.88176 36.3642 8.84146 36.8878 11.0746 36.8878C13.6952 36.8878 15.8713 36.2163 17.6032 34.8732C19.3578 33.5301 20.2351 31.7772 20.2351 29.6146C20.2351 28.6585 20.0072 27.7821 19.5515 26.9854C19.1185 26.1886 18.5147 25.574 17.7399 25.1415C16.9879 24.6862 16.1904 24.4585 15.3472 24.4585C13.3419 24.4585 11.9177 25.1984 11.0746 26.678C10.6189 27.452 10.2429 27.987 9.94664 28.2829C9.65041 28.5789 9.33139 28.7268 8.98958 28.7268C8.46547 28.7268 7.94136 28.4992 7.41726 28.0439C6.91594 27.5886 6.66528 26.8374 6.66528 25.7902C6.66528 24.0146 7.41726 22.6602 8.92122 21.7268C10.448 20.7935 12.476 20.3268 15.0054 20.3268C16.5777 20.3268 18.583 20.6228 21.0213 21.2146L22.1492 21.522V49.8976C22.1492 51.9008 21.8872 53.2325 21.3631 53.8927C20.4972 55.0537 18.8451 55.6341 16.4068 55.6341H15.5523V61.3707H40.2651V55.6341H39.4106C37.5192 55.6341 36.152 55.0537 35.3089 53.8927C34.7848 53.278 34.5227 51.9463 34.5227 49.8976V23.4C37.6218 24.0602 41.4728 24.6407 46.0759 25.1415C45.8936 26.2569 45.8024 27.6114 45.8024 29.2049V50.0341C45.8024 52.0602 45.5062 53.4715 44.9137 54.2683C44.344 55.0423 43.2616 55.4976 41.6665 55.6341V61.3707H62.7903V55.6341C61.6282 55.5659 60.7053 55.4293 60.0217 55.2244C59.3608 55.0195 58.8367 54.7008 58.4494 54.2683C58.062 53.813 57.7999 53.278 57.6632 52.6634C57.5493 52.0488 57.4923 51.2179 57.4923 50.1707V37.161C58.5633 36.2049 59.7482 35.4992 61.0471 35.0439C62.346 34.5886 63.5195 34.361 64.5677 34.361C66.7781 34.361 68.2821 35.4764 69.0796 37.7073C69.9 39.9382 70.3101 42.7154 70.3101 46.039C70.3101 50.6829 69.4898 55.1675 67.8491 59.4927C66.7553 62.3837 65.3653 64.865 63.679 66.9366C62.0156 69.0081 60.4432 70.0439 58.9621 70.0439C58.6203 70.0211 58.3012 69.9984 58.005 69.9756H56.8429C55.0654 69.9756 53.5387 70.3626 52.2626 71.1366C50.9865 71.9333 50.3485 73.1285 50.3485 74.722C50.3485 76.9073 51.8183 78 54.7578 78C56.3757 78 58.0848 77.6699 59.885 77.0098C61.7079 76.3496 63.5195 75.4276 65.3197 74.2439C67.1427 73.0829 68.8176 71.774 70.3443 70.3171C71.8938 68.8829 73.1357 67.4829 74.07 66.1171C76.6222 62.5203 78.5819 58.6504 79.9492 54.5073ZM64.2601 14.0439C65.5362 14.0439 66.1742 14.4537 66.1742 15.2732C66.1742 15.8878 65.7982 16.4911 65.0463 17.0829C64.3171 17.652 63.3486 18.1415 62.1409 18.5512C60.9332 18.961 59.7027 19.1772 58.4494 19.2C58.9051 17.5837 59.7141 16.3203 60.8762 15.4098C62.0611 14.4992 63.1891 14.0439 64.2601 14.0439ZM285.57 74.0332C285.57 76.2503 284.592 77.9786 282.638 79.2182C280.707 80.4578 278.335 81.0776 275.522 81.0776C272.041 81.0776 268.513 80.3267 264.937 78.8248C261.361 77.323 257.809 75.0822 254.281 72.1023C250.777 69.1463 247.559 65.6658 244.627 61.6609C242.815 59.134 241.098 56.6905 239.477 54.3304C237.88 51.9704 236.283 49.4673 234.686 46.8212C233.112 44.1751 231.611 41.517 230.18 38.8471C228.774 36.1771 227.272 33.0185 225.675 29.3711L225.688 56.1732C225.688 58.1995 225.926 59.5464 226.403 60.2139C227.19 61.2152 229.097 61.8231 232.125 62.0376V68.045H214.013V61.9371C215.919 61.731 217.248 61.2519 218 60.5C218.667 59.8563 219.001 58.4618 219.001 56.3163L218.988 37.8459V29.9433C218.321 26.6747 217.051 25.9376 214 24.9376V18H224.495H233.291C234.364 20.5508 235.639 23.2922 237.117 26.2244C238.619 29.1566 240.288 32.2556 242.123 35.5216C243.959 38.7636 245.556 41.529 246.915 43.8175C248.274 46.106 250.05 49.0501 252.243 52.6498V31.1948C252.243 29.1924 252.136 27.762 251.921 26.9038C251.731 26.0456 251.194 25.3901 250.312 24.9371C249.454 24.4603 248 24.1504 245.95 24.0074V18H265.581V24.0074C263.531 24.1028 262.053 24.3769 261.147 24.8298C260.241 25.2828 259.669 25.9622 259.43 26.8681C259.216 27.7739 259.109 29.2162 259.109 31.1948V63.3415C260.372 65.3678 261.814 67.1676 263.435 68.741C265.056 70.3382 266.761 71.6136 268.549 72.5671C270.337 73.5445 272.005 74.0332 273.555 74.0332C274.27 74.0332 274.83 73.7114 275.236 73.0678C275.355 72.9009 275.701 72.3168 276.273 71.3156C276.702 70.6004 277.274 70.0045 277.989 69.5277C278.728 69.0748 279.574 68.8483 280.528 68.8483C282.077 68.8483 283.305 69.337 284.211 70.3144C285.117 71.3156 285.57 72.5552 285.57 74.0332ZM117 49.4967C116.294 51.9069 115.183 53.9686 113.67 55.6816C112.176 57.3946 110.329 58.7093 108.129 59.6256C105.929 60.5419 103.487 61 100.803 61C97.6138 61 94.7376 60.3327 92.1743 58.9981C89.611 57.6636 87.6028 55.7613 86.1495 53.2913C84.7165 50.8214 84 47.9928 84 44.8058C84 41.7582 84.7165 39.0293 86.1495 36.619C87.5826 34.1889 89.5404 32.3165 92.0229 31.0019C94.5257 29.6673 97.3312 29 100.439 29C103.507 29 106.151 29.6275 108.372 30.8824C110.592 32.1373 112.287 33.681 113.458 35.5135C114.649 37.3461 115.315 39.1189 115.456 40.8319V41.071L95.4138 47.7339C95.7771 50.0246 96.6248 51.7874 97.9569 53.0224C99.289 54.2375 100.883 54.845 102.74 54.845C104.92 54.845 106.757 54.2375 108.25 53.0224C109.764 51.8073 110.844 50.0644 111.49 47.7937L117 49.4967ZM104.739 39.4575C104.739 38.2425 104.325 37.2067 103.497 36.3501C102.67 35.4936 101.63 35.0654 100.379 35.0654C98.2394 35.0654 96.7761 35.8422 95.989 37.3959C95.2018 38.9496 94.8083 40.7423 94.8083 42.774L104.739 39.4575Z" clip-rule="evenodd"/></svg>