<svg fill-rule = "evenodd" cliprule = "evenodd" stroke-linejoin = "round" stroke-miterlimit = "1.414" xmlns = "http://www.w3.org/2000/svg" aria-label = "bolt-docs" viewBox = "0 0 32 32" preserveAspectRatio = "xMidYMid meet" fill = "currentColor" width = "48" height = "48"> 
<path fill-rule="evenodd" clip-rule="evenodd" d="M7.5 11a1 1 0 0 1 1-1h16a1 1 0 0 1 0 2h-16a1 1 0 0 1-1-1zM7.5 16a1 1 0 0 1 1-1h16a1 1 0 0 1 0 2h-16a1 1 0 0 1-1-1zM7.5 21c0-.552.414-1 .923-1h10.154c.51 0 .923.448.923 1s-.413 1-.923 1H8.423c-.51 0-.923-.448-.923-1z" />
</svg>