<svg fill-rule = "evenodd" cliprule = "evenodd" stroke-linejoin = "round" stroke-miterlimit = "1.414" xmlns = "http://www.w3.org/2000/svg" aria-label = "bolt-docs" viewBox = "0 0 32 32" preserveAspectRatio = "xMidYMid meet" fill = "currentColor" width = "48" height = "48"> 
<g>
  <path d="M7.17,21.67c-1.381,2.392 -0.562,5.45 1.83,6.83c2.391,1.381 5.449,0.562 6.83,-1.83l4,-6.928l1,-1.732l4,-6.928c1.381,-2.392 0.561,-5.45 -1.83,-6.83c-2.392,-1.381 -5.45,-0.562 -6.83,1.83l-0.5,0.866c-0.276,0.478 -0.113,1.09 0.366,1.366c0.478,0.276 1.09,0.112 1.366,-0.366l0.5,-0.866c0.828,-1.435 2.663,-1.927 4.098,-1.098c1.435,0.828 1.926,2.663 1.098,4.098l-0.5,0.866l-3.5,6.062l-1,1.732l-4,6.928c-0.829,1.435 -2.663,1.927 -4.098,1.098c-1.435,-0.828 -1.927,-2.663 -1.098,-4.098l2,-3.464l4,-6.928c0.276,-0.478 0.887,-0.642 1.366,-0.366c0.478,0.276 0.642,0.888 0.366,1.366l-4,6.928c-0.276,0.479 -0.112,1.09 0.366,1.366c0.478,0.276 1.09,0.113 1.366,-0.366l4,-6.928c0.828,-1.435 0.337,-3.27 -1.098,-4.098c-1.435,-0.829 -3.27,-0.337 -4.098,1.098l-4,6.928l-2,3.464Z" />
</g>
</svg>