<svg fill-rule = "evenodd" cliprule = "evenodd" stroke-linejoin = "round" stroke-miterlimit = "1.414" xmlns = "http://www.w3.org/2000/svg" aria-label = "bolt-docs" viewBox = "0 0 32 32" preserveAspectRatio = "xMidYMid meet" fill = "currentColor" width = "48" height = "48"> 
<g>
  <path fill-rule="evenodd" clip-rule="evenodd" d="M14 8.024A77.397 77.397 0 0 1 16 8c10.083 0 11 1.5 11 8s-.917 8-11 8c-.711 0-1.377-.007-2-.024-8.208-.212-9-1.935-9-7.976s.792-7.763 9-7.976zM7 16c0 1.581.039 2.668.25 3.542.166.799.259 1.02.715 1.332.359.285 1.028.598 2.38.816 1.384.226 3.158.31 5.604.31H16c2.473 0 4.261-.083 5.655-.31 1.352-.218 2.021-.53 2.38-.816.456-.313.55-.533.715-1.332.211-.874.25-1.96.25-3.542 0-1.581-.039-2.668-.25-3.542-.166-.799-.259-1.02-.715-1.332-.359-.285-1.028-.598-2.38-.816C20.26 10.083 18.473 10 16 10h-.05c-2.447 0-4.22.085-5.605.31-1.352.218-2.021.53-2.38.816-.456.313-.55.533-.715 1.332C7.039 13.332 7 14.418 7 16z" />
  <path d="M30 16a2 2 0 0 1-2 2v-4a2 2 0 0 1 2 2z" />
</g>
</svg>