<svg fill-rule = "evenodd" cliprule = "evenodd" stroke-linejoin = "round" stroke-miterlimit = "1.414" xmlns = "http://www.w3.org/2000/svg" aria-label = "bolt-docs" viewBox = "0 0 32 32" preserveAspectRatio = "xMidYMid meet" fill = "currentColor" width = "48" height = "48"> 
<g>
  <path fill-rule="evenodd" clip-rule="evenodd" d="M14 11.024A77.266 77.266 0 0 1 16 11c10.083 0 11 1.5 11 8s-.917 8-11 8c-.711 0-1.377-.007-2-.024-8.208-.212-9-1.935-9-7.976s.792-7.764 9-7.976zM7 19c0 1.581.039 2.668.25 3.542.166.799.259 1.02.715 1.332.359.285 1.028.598 2.38.816 1.384.226 3.158.31 5.604.31H16c2.473 0 4.261-.083 5.655-.31 1.352-.218 2.021-.53 2.38-.816.456-.313.55-.533.715-1.332.211-.874.25-1.96.25-3.542 0-1.581-.039-2.668-.25-3.542-.166-.799-.259-1.02-.715-1.332-.359-.285-1.028-.598-2.38-.816C20.26 13.083 18.473 13 16 13h-.05c-2.447 0-4.22.085-5.605.31-1.352.218-2.021.53-2.38.816-.456.313-.55.533-.715 1.332C7.039 16.332 7 17.418 7 19z" />
  <path d="M16 6a5 5 0 0 0-5 5v14.5a1 1 0 1 0 2 0V11a3 3 0 0 1 6 0v14.5a1 1 0 1 0 2 0V11a5 5 0 0 0-5-5z" />
</g>
</svg>