<svg fill-rule = "evenodd" cliprule = "evenodd" stroke-linejoin = "round" stroke-miterlimit = "1.414" xmlns = "http://www.w3.org/2000/svg" aria-label = "bolt-docs" viewBox = "0 0 32 32" preserveAspectRatio = "xMidYMid meet" fill = "currentColor" width = "48" height = "48"> 
<g>
  <path d="M10.707,4.693c0.391,-0.391 1.024,-0.391 1.414,0l1.331,1.33c0.742,-0.61 1.686,-1.037 2.548,-1.037c0.869,0 1.822,0.435 2.567,1.053l1.346,-1.346c0.39,-0.391 1.024,-0.391 1.414,0c0.391,0.39 0.391,1.024 0,1.414l-1.414,1.414c-0.044,0.044 -0.091,0.083 -0.14,0.117c0.453,1.275 -0.328,2.531 -3.773,2.531c-3.463,0 -4.234,-1.268 -3.766,-2.55c-0.039,-0.029 -0.077,-0.062 -0.113,-0.098l-1.414,-1.414c-0.39,-0.39 -0.39,-1.024 0,-1.414Z" />
  <path d="M23.441,22.114c0.361,-0.912 0.559,-1.905 0.559,-2.945l3,0c0.552,0 1,-0.448 1,-1c0,-0.553 -0.448,-1 -1,-1l-3.072,0c-0.098,-1.129 -0.318,-2.162 -0.787,-3.04l2.993,-1.728c0.478,-0.276 0.642,-0.888 0.366,-1.366c-0.276,-0.479 -0.888,-0.642 -1.366,-0.366l-3.315,1.914c-1.19,-0.892 -3.019,-1.414 -5.819,-1.414c-2.8,0 -4.629,0.522 -5.819,1.414l-3.315,-1.914c-0.478,-0.276 -1.09,-0.113 -1.366,0.366c-0.276,0.478 -0.112,1.09 0.366,1.366l2.993,1.728c-0.469,0.878 -0.689,1.911 -0.787,3.04l-3.072,0c-0.552,0 -1,0.447 -1,1c0,0.552 0.448,1 1,1l3,0c0,1.04 0.198,2.033 0.559,2.945l-2.693,1.555c-0.478,0.276 -0.642,0.887 -0.366,1.366c0.276,0.478 0.888,0.642 1.366,0.366l2.658,-1.535c1.454,2.002 3.813,3.303 6.476,3.303c2.663,0 5.022,-1.301 6.476,-3.303l2.658,1.535c0.478,0.276 1.09,0.112 1.366,-0.366c0.276,-0.479 0.112,-1.09 -0.366,-1.366l-2.694,-1.555Z" />
</g>
</svg>