<svg fill-rule = "evenodd" cliprule = "evenodd" stroke-linejoin = "round" stroke-miterlimit = "1.414" xmlns = "http://www.w3.org/2000/svg" aria-label = "bolt-docs" viewBox = "0 0 32 32" preserveAspectRatio = "xMidYMid meet" fill = "currentColor" width = "48" height = "48"> 
<g>
  <path d="M12.121,4.693c-0.39,-0.391 -1.023,-0.391 -1.414,0c-0.39,0.39 -0.39,1.024 0,1.414l1.414,1.414c0.036,0.036 0.074,0.069 0.113,0.098c-0.245,0.672 -0.15,1.34 0.495,1.824c0.585,0.439 1.624,0.726 3.271,0.726c1.647,0 2.685,-0.287 3.271,-0.726c0.639,-0.479 0.738,-1.139 0.502,-1.805c0.049,-0.034 0.096,-0.073 0.14,-0.117l1.414,-1.414c0.391,-0.39 0.391,-1.024 0,-1.414c-0.39,-0.391 -1.024,-0.391 -1.414,0l-1.346,1.346c-0.745,-0.618 -1.698,-1.053 -2.567,-1.053c-0.862,0 -1.806,0.427 -2.548,1.037l-1.331,-1.33Zm3.879,3.476c-0.761,0 -1.289,-0.072 -1.638,-0.161c-0.021,-0.005 -0.041,-0.01 -0.06,-0.016c0.133,-0.17 0.331,-0.371 0.602,-0.563c0.465,-0.329 0.881,-0.443 1.096,-0.443c0.215,0 0.631,0.114 1.096,0.443c0.271,0.192 0.47,0.393 0.602,0.563c-0.019,0.006 -0.039,0.011 -0.06,0.016c-0.349,0.089 -0.877,0.161 -1.638,0.161Z" />
  <path d="M6.866,10.669c-0.478,-0.276 -1.09,-0.113 -1.366,0.366c-0.276,0.478 -0.112,1.09 0.366,1.366l2.993,1.728c-0.469,0.878 -0.689,1.911 -0.787,3.04l-3.072,0c-0.552,0 -1,0.447 -1,1c0,0.552 0.448,1 1,1l3,0c0,1.04 0.198,2.033 0.559,2.945l-2.693,1.555c-0.478,0.276 -0.642,0.888 -0.366,1.366c0.276,0.478 0.888,0.642 1.366,0.366l2.658,-1.535c1.454,2.002 3.813,3.303 6.476,3.303c2.663,0 5.022,-1.301 6.476,-3.303l2.658,1.535c0.478,0.276 1.09,0.112 1.366,-0.366c0.276,-0.478 0.112,-1.09 -0.366,-1.366l-2.694,-1.555c0.362,-0.912 0.56,-1.905 0.56,-2.945l3,0c0.552,0 1,-0.448 1,-1c0,-0.553 -0.448,-1 -1,-1l-3.072,0c-0.098,-1.129 -0.318,-2.162 -0.787,-3.04l2.993,-1.728c0.478,-0.276 0.642,-0.888 0.366,-1.366c-0.276,-0.479 -0.888,-0.642 -1.366,-0.366l-3.315,1.914c-0.581,-0.436 -1.314,-0.783 -2.238,-1.024c-0.969,-0.253 -2.148,-0.39 -3.581,-0.39c-1.433,0 -2.612,0.137 -3.581,0.39c-0.924,0.241 -1.657,0.588 -2.238,1.024l-3.315,-1.914Zm15.134,8.5c0,3.313 -2.686,6 -6,6c-3.314,0 -6,-2.687 -6,-6c0,-2.245 0.211,-3.603 0.851,-4.459c0.532,-0.71 1.75,-1.541 5.149,-1.541c3.399,0 4.617,0.831 5.149,1.541c0.64,0.856 0.851,2.214 0.851,4.459Z" />
</g>
</svg>