<svg fill-rule = "evenodd" cliprule = "evenodd" stroke-linejoin = "round" stroke-miterlimit = "1.414" xmlns = "http://www.w3.org/2000/svg" aria-label = "bolt-docs" viewBox = "0 0 32 32" preserveAspectRatio = "xMidYMid meet" fill = "currentColor" width = "48" height = "48"> 
<g>
  <path d="M18.186,9.144c-0.502,-0.122 -1.139,-0.145 -2.186,-0.144c-1.047,-0.001 -1.684,0.022 -2.186,0.144l-0.013,0.002c-0.207,0.044 -0.226,0.048 -0.324,0.111c-0.017,0.007 -0.027,0.011 -0.034,0.012c-0.001,0.005 -0.005,0.013 -0.012,0.024c-0.034,0.043 -0.179,0.265 -0.285,1.008c-0.072,0.487 -0.111,1.06 -0.13,1.773c0.818,-0.057 1.802,-0.074 2.984,-0.074c1.182,0 2.166,0.017 2.984,0.074c-0.019,-0.713 -0.058,-1.286 -0.13,-1.773c-0.106,-0.743 -0.251,-0.965 -0.285,-1.008c-0.007,-0.011 -0.011,-0.019 -0.012,-0.024c-0.007,-0.001 -0.017,-0.005 -0.034,-0.012c-0.098,-0.063 -0.117,-0.067 -0.324,-0.111l-0.013,-0.002Zm2.805,3.252c-0.091,-4.83 -0.908,-5.396 -4.991,-5.396c-4.083,0 -4.9,0.566 -4.991,5.396c-1.808,0.57 -2.009,1.931 -2.009,5.104c0,5 0.5,5.5 7,5.5c6.5,0 7,-0.5 7,-5.5c0,-3.173 -0.201,-4.534 -2.009,-5.104Zm-9.991,5.104c0,-1.218 0.018,-1.992 0.142,-2.58c0.048,-0.261 0.059,-0.309 0.13,-0.428c0.009,-0.022 0.013,-0.035 0.014,-0.043c0.005,-0.001 0.013,-0.005 0.026,-0.012c0.041,-0.033 0.275,-0.189 1.11,-0.297c0.857,-0.115 1.978,-0.14 3.578,-0.14c1.6,0 2.721,0.025 3.578,0.14c0.835,0.108 1.069,0.264 1.11,0.297c0.013,0.007 0.021,0.011 0.026,0.012c0.001,0.008 0.005,0.021 0.014,0.043c0.071,0.119 0.082,0.167 0.13,0.428c0.124,0.588 0.142,1.362 0.142,2.58c0,1.218 -0.018,1.992 -0.142,2.58c-0.048,0.261 -0.059,0.309 -0.13,0.428c-0.009,0.022 -0.013,0.035 -0.014,0.043c-0.005,0.001 -0.013,0.005 -0.026,0.012c-0.041,0.033 -0.275,0.189 -1.11,0.297c-0.857,0.115 -1.978,0.14 -3.578,0.14c-1.6,0 -2.721,-0.025 -3.578,-0.14c-0.835,-0.108 -1.069,-0.264 -1.11,-0.297c-0.013,-0.007 -0.021,-0.011 -0.026,-0.012c-0.001,-0.008 -0.005,-0.021 -0.014,-0.043c-0.071,-0.119 -0.082,-0.167 -0.13,-0.428c-0.124,-0.588 -0.142,-1.362 -0.142,-2.58Z" />
</g>
</svg>