<svg fill-rule = "evenodd" cliprule = "evenodd" stroke-linejoin = "round" stroke-miterlimit = "1.414" xmlns = "http://www.w3.org/2000/svg" aria-label = "bolt-docs" viewBox = "0 0 32 32" preserveAspectRatio = "xMidYMid meet" fill = "currentColor" width = "48" height = "48"> 
<g>
  <path d="M8.391 12.32c-.636-.131-1.248.368-1.213 1.016.808 14.714 1.271 14.711 7.681 14.669C15.22 28.003 15.6 28 16 28s.78.003 1.141.005c6.41.042 6.873.045 7.681-14.669.035-.648-.577-1.147-1.212-1.016a.975.975 0 0 0-.784.896c-.17 3.094-.323 5.51-.519 7.407-.266 2.584-.588 3.883-.95 4.566-.225.426-.422.586-1.067.701-.716.128-1.615.123-3.019.115h-.002a161.358 161.358 0 0 0-2.538 0h-.001c-1.405.008-2.304.013-3.02-.115-.645-.115-.842-.275-1.067-.701-.362-.683-.684-1.982-.95-4.566-.196-1.897-.349-4.313-.519-7.407a.975.975 0 0 0-.783-.896z" />
  <path d="M6 10a1 1 0 0 1 1-1h18a1 1 0 0 1 0 2H7a1 1 0 0 1-1-1z" fill-rule="nonzero" />
  <path d="M12.25 7.973C12.112 8.185 12 8.5 12 9h-2c0-.81.186-1.525.576-2.121.366-.536.963-1.006 1.525-1.271C13.24 5.087 14.687 5 16 5c1.313 0 2.76.087 3.899.608.562.265 1.158.735 1.525 1.271C21.814 7.475 22 8.19 22 9h-2c0-.5-.112-.815-.25-1.027-.161-.272-.324-.388-.684-.546C18.36 7.103 17.306 7 16 7c-1.306 0-2.36.103-3.066.427-.36.158-.523.274-.684.546z" />
  <path d="M12.044 14.086a1 1 0 1 1 1.998-.087l.349 7.992a1 1 0 0 1-1.998.087l-.349-7.992zM17.956 13.999a1 1 0 0 1 1.998.087l-.348 7.993a1 1 0 0 1-1.999-.088l.349-7.992z" fill-rule="nonzero" />
</g>
</svg>