<svg fill-rule = "evenodd" cliprule = "evenodd" stroke-linejoin = "round" stroke-miterlimit = "1.414" xmlns = "http://www.w3.org/2000/svg" aria-label = "bolt-docs" viewBox = "0 0 32 32" preserveAspectRatio = "xMidYMid meet" fill = "currentColor" width = "48" height = "48"> 
<g>
  <path fill-rule="evenodd" clip-rule="evenodd" d="M26 16c0-11-.833-12-10-12S6 5 6 16s.833 12 10 12 10-1 10-12zm-15.5-6a1 1 0 0 0 0 2h11a1 1 0 0 0 0-2h-11zm-1 6a1 1 0 0 1 1-1h11a1 1 0 0 1 0 2h-11a1 1 0 0 1-1-1zm1 4a1 1 0 0 0 0 2h8a1 1 0 0 0 0-2h-8z" />
</g>
</svg>