<svg fill-rule = "evenodd" cliprule = "evenodd" stroke-linejoin = "round" stroke-miterlimit = "1.414" xmlns = "http://www.w3.org/2000/svg" aria-label = "bolt-docs" viewBox = "0 0 32 32" preserveAspectRatio = "xMidYMid meet" fill = "currentColor" width = "48" height = "48"> 
<g>
  <path d="M16,6.033c5.1,0 7.247,0.576 8.336,1.665c1.089,1.089 1.664,3.235 1.664,8.335c0,5.1 -0.575,7.247 -1.664,8.336c-1.089,1.089 -3.236,1.664 -8.336,1.664c-5.1,0 -7.247,-0.575 -8.336,-1.664c-1.089,-1.089 -1.664,-3.236 -1.664,-8.336c0,-5.1 0.575,-7.247 1.664,-8.335c1.089,-1.089 3.236,-1.665 8.336,-1.665Zm12,10c0,-10 -2,-12 -12,-12c-10,0 -12,2 -12,12c0,10 2,12 12,12c10,0 12,-2 12,-12Zm-19.25,0c0,0.336 0.175,0.617 0.332,0.825l0.001,0.002c0.836,1.087 2.004,1.978 3.102,2.816c0.09,0.068 0.179,0.137 0.268,0.205l0.079,0.06c0.061,0.047 0.122,0.094 0.183,0.141l0.001,0.001c0.394,0.305 0.977,0.258 1.31,-0.113c0.343,-0.382 0.284,-0.953 -0.121,-1.266c-0.178,-0.138 -0.359,-0.276 -0.54,-0.415c-0.92,-0.703 -1.854,-1.417 -2.579,-2.256c0.734,-0.851 1.651,-1.55 2.576,-2.255c0.181,-0.138 0.363,-0.276 0.543,-0.415c0.404,-0.313 0.464,-0.884 0.121,-1.266c-0.333,-0.372 -0.917,-0.417 -1.31,-0.113c-0.181,0.139 -0.363,0.278 -0.546,0.418l-0.01,0.007c-1.099,0.836 -2.228,1.695 -3.077,2.798l-0.001,0.001c-0.157,0.208 -0.332,0.49 -0.332,0.825Zm14.5,0c0,0.336 -0.175,0.617 -0.332,0.825l-0.001,0.002c-0.836,1.087 -2.004,1.978 -3.102,2.816c-0.179,0.136 -0.356,0.272 -0.53,0.406l-0.001,0.001c-0.394,0.305 -0.977,0.258 -1.31,-0.113c-0.343,-0.382 -0.284,-0.953 0.121,-1.266c0.178,-0.138 0.359,-0.276 0.54,-0.415c0.92,-0.703 1.854,-1.417 2.579,-2.256c-0.734,-0.851 -1.651,-1.55 -2.576,-2.255l-0.002,-0.001c-0.18,-0.137 -0.361,-0.275 -0.541,-0.414c-0.404,-0.313 -0.464,-0.884 -0.121,-1.266c0.333,-0.372 0.917,-0.417 1.31,-0.113c0.184,0.142 0.369,0.283 0.556,0.425c1.099,0.836 2.228,1.695 3.077,2.798l0.001,0.001c0.157,0.208 0.332,0.49 0.332,0.825Z" />
</g>
</svg>