<svg fill-rule = "evenodd" cliprule = "evenodd" stroke-linejoin = "round" stroke-miterlimit = "1.414" xmlns = "http://www.w3.org/2000/svg" aria-label = "bolt-docs" viewBox = "0 0 32 32" preserveAspectRatio = "xMidYMid meet" fill = "currentColor" width = "48" height = "48"> 
<g>
  <path d="M26,16c0,5.523 -4.477,10 -10,10c-5.523,0 -10,-4.477 -10,-10c0,-5.523 4.477,-10 10,-10c5.523,0 10,4.477 10,10Zm2,0c0,6.627 -5.373,12 -12,12c-6.627,0 -12,-5.373 -12,-12c0,-6.627 5.373,-12 12,-12c6.627,0 12,5.373 12,12Zm-17.5,0c0.829,0 1.5,-0.672 1.5,-1.5c0,-0.828 -0.671,-1.5 -1.5,-1.5c-0.829,0 -1.5,0.672 -1.5,1.5c0,0.828 0.671,1.5 1.5,1.5Zm12.5,-1.5c0,0.828 -0.671,1.5 -1.5,1.5c-0.829,0 -1.5,-0.672 -1.5,-1.5c0,-0.828 0.671,-1.5 1.5,-1.5c0.829,0 1.5,0.672 1.5,1.5Zm-6.999,8c2.45,0 4.534,-1.715 5,-4c0.232,-1.14 -3,-1.5 -5,-1.5c-2,0 -5.259,0.231 -5,1.5c0.466,2.285 2.549,4 5,4Zm2,-2c0,0 -0.896,0.5 -2,0.5c-1.105,0 -2,-0.5 -2,-0.5c0,0 0.895,-1 2,-1c1.104,0 2,1 2,1Z" />
</g>
</svg>