<svg fill-rule = "evenodd" cliprule = "evenodd" stroke-linejoin = "round" stroke-miterlimit = "1.414" xmlns = "http://www.w3.org/2000/svg" aria-label = "bolt-docs" viewBox = "0 0 32 32" preserveAspectRatio = "xMidYMid meet" fill = "currentColor" width = "48" height = "48"> 
<g>
  <path d="M18.496,10.132c-0.479,-0.274 -1.09,-0.108 -1.364,0.372c-0.274,0.479 -0.108,1.09 0.372,1.364c1.554,0.886 3.031,1.929 4.357,3.132l-13.861,0c-0.552,0 -1,0.448 -1,1c0,0.552 0.448,1 1,1l13.861,0c-1.326,1.203 -2.803,2.246 -4.357,3.132c-0.48,0.274 -0.646,0.885 -0.372,1.364c0.274,0.48 0.885,0.646 1.364,0.372c2.16,-1.237 4.859,-2.886 6.237,-5.061c0.076,-0.12 0.267,-0.431 0.267,-0.807c0,-0.376 -0.191,-0.687 -0.267,-0.807c-1.403,-2.215 -4.021,-3.792 -6.237,-5.061Z" />
</g>
</svg>