<svg fill-rule = "evenodd" cliprule = "evenodd" stroke-linejoin = "round" stroke-miterlimit = "1.414" xmlns = "http://www.w3.org/2000/svg" aria-label = "bolt-docs" viewBox = "0 0 32 32" preserveAspectRatio = "xMidYMid meet" fill = "currentColor" width = "48" height = "48"> 
<g>
  <path fill-rule="evenodd" clip-rule="evenodd" d="M16 26.0002C24 26.0002 26 24.0002 26 16.0002C26 8.00024 24 6.00024 16 6.00024C8 6.00024 6 8.00024 6 16.0002C6 24.0002 8 26.0002 16 26.0002ZM18.6696 18.2544C18.6196 18.8044 19.025 19.2908 19.575 19.3408C20.125 19.3908 20.6114 18.9855 20.6614 18.4355L20.6615 18.4338C21.0797 16.5772 21.0797 15.163 20.8286 12.6612C20.7628 12.2869 20.6485 11.9033 20.3726 11.6274C20.0967 11.3515 19.7131 11.2372 19.3387 11.1714C16.8371 10.9203 15.4229 10.9203 13.5651 11.3385C13.0263 11.4598 12.6092 11.875 12.6592 12.425C12.7092 12.975 13.1956 13.3804 13.7456 13.3304L13.9557 13.3114C15.4442 13.1765 16.3383 13.0955 17.4922 13.0936L17.4937 13.0951L12.053 18.5358C11.6625 18.9264 11.6625 19.5595 12.053 19.95C12.4435 20.3406 13.0767 20.3406 13.4672 19.95L18.9054 14.5118C18.9021 15.6445 18.8229 16.5339 18.6979 17.9365L18.6696 18.2544Z" />
</g>
</svg>