<svg fill-rule = "evenodd" cliprule = "evenodd" stroke-linejoin = "round" stroke-miterlimit = "1.414" xmlns = "http://www.w3.org/2000/svg" aria-label = "bolt-docs" viewBox = "0 0 32 32" preserveAspectRatio = "xMidYMid meet" fill = "currentColor" width = "48" height = "48"> 
<g>
  <path d="M19.491,27.944c7.731,-0.319 8.509,-2.242 8.509,-11.944c0,-11 -1,-12 -12,-12c-11,0 -12,1 -12,12c0,10.985 0.997,11.997 11.956,12l0,-7.667l-2.956,0l0,-3.377l2.956,0l0,-2.491c0,-2.891 1.789,-4.465 4.403,-4.465c1.251,0 2.327,0.092 2.641,0.133l0,3.021l-1.813,0.001c-1.421,0 -1.696,0.666 -1.696,1.644l0,2.157l3.39,0l-0.442,3.377l-2.948,0l0,7.611Z" />
</g>
</svg>