<svg fill-rule = "evenodd" cliprule = "evenodd" stroke-linejoin = "round" stroke-miterlimit = "1.414" xmlns = "http://www.w3.org/2000/svg" aria-label = "bolt-docs" viewBox = "0 0 32 32" preserveAspectRatio = "xMidYMid meet" fill = "currentColor" width = "48" height = "48"> 
<g>
  <path fill-rule="evenodd" clip-rule="evenodd" d="M7 11a1 1 0 0 1 1-1h16a1 1 0 0 1 0 2H8a1 1 0 0 1-1-1zM10 16a1 1 0 0 1 1-1h10a1 1 0 0 1 0 2H11a1 1 0 0 1-1-1zM13 21a1 1 0 0 1 1-1h4a1 1 0 0 1 0 2h-4a1 1 0 0 1-1-1z" />
</g>
</svg>