<svg fill-rule = "evenodd" cliprule = "evenodd" stroke-linejoin = "round" stroke-miterlimit = "1.414" xmlns = "http://www.w3.org/2000/svg" aria-label = "bolt-docs" viewBox = "0 0 32 32" preserveAspectRatio = "xMidYMid meet" fill = "currentColor" width = "48" height = "48"> 
<path d="M10 13a1 1 0 0 1-1-1V9a1 1 0 0 0-2 0v3a3 3 0 0 0 3 3v-2zM12 13V8.875C12 8.392 11.552 8 11 8s-1 .392-1 .875v14.25c0 .483.448.875 1 .875s1-.392 1-.875V13zM12 13v2a3 3 0 0 0 3-3V9a1 1 0 1 0-2 0v3a1 1 0 0 1-1 1zM22 14.89c1.725-.389 3-1.76 3-3.39C25 9.567 23.209 8 21 8c-2.21 0-4 1.567-4 3.5 0 1.63 1.275 3.001 3 3.39v8.235c0 .483.448.875 1 .875s1-.392 1-.875V14.89z" />
</svg>