<svg fill-rule = "evenodd" cliprule = "evenodd" stroke-linejoin = "round" stroke-miterlimit = "1.414" xmlns = "http://www.w3.org/2000/svg" aria-label = "bolt-docs" viewBox = "0 0 32 32" preserveAspectRatio = "xMidYMid meet" fill = "currentColor" width = "48" height = "48"> 
<g>
  <path d="M 11.4912 8.97717C 12.3703 8.17303 12.6567 6.87286 12.6567 5C 12.6567 2.23859 10.4181 0 7.65668 0C 4.89526 0 2.65668 2.23859 2.65668 5C 2.65668 6.87286 2.94302 8.17303 3.82211 8.97717C 2.19708 9.86633 0.914429 11.3031 0.222412 13.0393C 0.0597229 13.4474 0.0085144 13.9776 0.38324 14.207C 1.17523 14.692 2.01566 13.7498 2.48837 12.9504C 3.53268 11.1844 5.45636 10 7.65668 10C 7.76151 10 7.86569 10.0027 7.96918 10.008C 9.10062 10.066 10.3418 9.95276 11.209 9.22382C 11.3059 9.14246 11.4006 9.06012 11.4912 8.97717ZM 10.6567 5C 10.6567 6.68262 10.3854 7.24109 10.1871 7.45593C 10.0244 7.63208 9.50742 8 7.65668 8C 5.80594 8 5.28891 7.63208 5.12628 7.45593C 4.92798 7.24109 4.65668 6.68262 4.65668 5C 4.65668 3.34314 5.99982 2 7.65668 2C 9.31354 2 10.6567 3.34314 10.6567 5ZM 12.6567 11.88C 13.9552 10.6 15.2537 10.92 15.9029 11.56C 18.4999 14.12 13.4531 17.5 12.6567 17.5C 11.8602 17.5 6.81342 14.12 9.41043 11.56C 10.0597 10.92 11.3582 10.6 12.6567 11.88Z" transform="translate(8.34332 8)" />
</g>
</svg>