<svg fill-rule = "evenodd" cliprule = "evenodd" stroke-linejoin = "round" stroke-miterlimit = "1.414" xmlns = "http://www.w3.org/2000/svg" aria-label = "bolt-docs" viewBox = "0 0 32 32" preserveAspectRatio = "xMidYMid meet" fill = "currentColor" width = "48" height = "48"> 
<path fill-rule="evenodd" clip-rule="evenodd" d="M12.862 12.776c.072-.302.138-.842.138-1.776s-.066-1.474-.138-1.776a2.012 2.012 0 0 0-.017-.069 2.103 2.103 0 0 0-.069-.017C12.474 9.066 11.934 9 11 9s-1.474.066-1.776.138a2.08 2.08 0 0 0-.069.017 2.08 2.08 0 0 0-.017.069C9.066 9.526 9 10.066 9 11s.066 1.474.138 1.776l.017.069.069.017c.302.072.842.138 1.776.138s1.474-.066 1.776-.138l.069-.017.017-.069zm10 0c.072-.302.138-.842.138-1.776s-.066-1.474-.138-1.776a2.012 2.012 0 0 0-.017-.069 2.103 2.103 0 0 0-.069-.017C22.474 9.066 21.934 9 21 9s-1.474.066-1.776.138a2.103 2.103 0 0 0-.069.017l-.017.069C19.066 9.526 19 10.066 19 11s.066 1.474.138 1.776l.017.069.069.017c.302.072.842.138 1.776.138s1.474-.066 1.776-.138l.069-.017.017-.069zm-10 10c.072-.302.138-.842.138-1.776s-.066-1.474-.138-1.776a2.034 2.034 0 0 0-.017-.069 2.034 2.034 0 0 0-.069-.017C12.474 19.066 11.934 19 11 19s-1.474.066-1.776.138a2.012 2.012 0 0 0-.069.017l-.017.069C9.066 19.526 9 20.066 9 21s.066 1.474.138 1.776l.017.069.069.017c.302.072.842.138 1.776.138s1.474-.066 1.776-.138l.069-.017.017-.069zm10 0c.072-.302.138-.842.138-1.776s-.066-1.474-.138-1.776a2.034 2.034 0 0 0-.017-.069 2.034 2.034 0 0 0-.069-.017C22.474 19.066 21.934 19 21 19s-1.474.066-1.776.138a2.034 2.034 0 0 0-.069.017l-.017.069c-.072.302-.138.842-.138 1.776s.066 1.474.138 1.776l.017.069.069.017c.302.072.842.138 1.776.138s1.474-.066 1.776-.138l.069-.017.017-.069zM15 11c0 2.007-.275 2.861-.707 3.293-.432.432-1.286.707-3.293.707s-2.861-.275-3.293-.707C7.275 13.861 7 13.007 7 11s.275-2.861.707-3.293C8.139 7.275 8.993 7 11 7s2.861.275 3.293.707C14.725 8.139 15 8.993 15 11zm10 0c0 2.007-.275 2.861-.707 3.293-.432.432-1.286.707-3.293.707s-2.861-.275-3.293-.707C17.275 13.861 17 13.007 17 11s.275-2.861.707-3.293C18.139 7.275 18.993 7 21 7s2.861.275 3.293.707C24.725 8.139 25 8.993 25 11zM14.293 24.293c.432-.432.707-1.286.707-3.293s-.275-2.861-.707-3.293C13.861 17.275 13.007 17 11 17s-2.861.275-3.293.707C7.275 18.139 7 18.993 7 21s.275 2.861.707 3.293C8.139 24.725 8.993 25 11 25s2.861-.275 3.293-.707zM25 21c0 2.007-.275 2.861-.707 3.293-.432.432-1.286.707-3.293.707s-2.861-.275-3.293-.707C17.275 23.861 17 23.007 17 21s.275-2.861.707-3.293C18.139 17.275 18.993 17 21 17s2.861.275 3.293.707c.432.432.707 1.286.707 3.293z" />
</svg>