<svg fill-rule = "evenodd" cliprule = "evenodd" stroke-linejoin = "round" stroke-miterlimit = "1.414" xmlns = "http://www.w3.org/2000/svg" aria-label = "bolt-docs" viewBox = "0 0 32 32" preserveAspectRatio = "xMidYMid meet" fill = "currentColor" width = "48" height = "48"> 
<g>
  <path fill-rule="evenodd" clip-rule="evenodd" d="M26 16c0 5.523-4.477 10-10 10-4.16 0-7.726-2.54-9.233-6.153l-1.847.77C6.73 24.952 11.008 28 16 28c6.627 0 12-5.373 12-12S22.627 4 16 4 4 9.373 4 16h2c0-5.523 4.477-10 10-10s10 4.477 10 10z" />
  <path d="M4.293 17.707a1 1 0 0 0 1.414 0l3-3a1 1 0 1 0-1.414-1.415l-1.188 1.293H4.078l-1.37-1.293a1 1 0 0 0-1.415 1.415l3 3zM5.462 19.313a1 1 0 0 0-.541 1.306l1.848-.765a1 1 0 0 0-1.307-.541zM15.64 17a1 1 0 0 1-1-1V9a1 1 0 0 1 2 0v7a1 1 0 0 1-1 1z" />
  <path d="M21.702 19.502a1 1 0 0 1-1.366.366l-5.196-3a1 1 0 0 1 1-1.732l5.196 3a1 1 0 0 1 .366 1.366z" />
</g>
</svg>