<svg fill-rule = "evenodd" cliprule = "evenodd" stroke-linejoin = "round" stroke-miterlimit = "1.414" xmlns = "http://www.w3.org/2000/svg" aria-label = "bolt-docs" viewBox = "0 0 32 32" preserveAspectRatio = "xMidYMid meet" fill = "currentColor" width = "48" height = "48"> 
<g>
  <path d="M16,5c-0.358,0 -0.736,0.149 -0.997,0.264c-0.297,0.13 -0.676,0.326 -1.077,0.555c-0.789,0.451 -1.798,1.102 -2.878,1.864c-2.149,1.518 -4.715,3.572 -6.755,5.61c-0.391,0.39 -0.391,1.024 0,1.414c0.39,0.391 1.024,0.391 1.414,0c1.96,-1.962 4.394,-3.908 6.495,-5.39c1.045,-0.738 1.974,-1.337 2.716,-1.761c0.365,-0.209 0.649,-0.357 0.887,-0.46c0.091,-0.04 0.154,-0.064 0.195,-0.078c0.041,0.014 0.104,0.038 0.194,0.078c0.239,0.103 0.523,0.251 0.888,0.46c0.742,0.424 1.671,1.023 2.716,1.761c2.101,1.482 4.535,3.428 6.495,5.39c0.39,0.391 1.024,0.391 1.414,0c0.391,-0.39 0.391,-1.024 0,-1.414c-2.04,-2.038 -4.606,-4.092 -6.755,-5.61c-1.08,-0.762 -2.089,-1.413 -2.878,-1.864c-0.401,-0.229 -0.78,-0.425 -1.077,-0.555c-0.262,-0.115 -0.639,-0.264 -0.997,-0.264Zm3.934,19.816c0.184,-0.028 0.358,-0.061 0.524,-0.098l0.014,-0.003c0.923,-0.2 1.291,-0.482 1.522,-0.79c0.292,-0.39 0.589,-1.123 0.774,-2.649l0.001,-0.003c0.165,-1.347 0.218,-3.047 0.229,-5.273c0.002,-0.552 0.45,-1 1.002,-1c0.552,0 1,0.448 0.998,1c-0.052,10.061 -1.005,11 -8.998,11c-7.993,0 -8.946,-0.939 -8.998,-11c-0.002,-0.552 0.446,-1 0.998,-1c0.552,0 1,0.448 1.002,1c0.011,2.226 0.064,3.926 0.229,5.273l0.001,0.003c0.185,1.526 0.482,2.259 0.774,2.649c0.231,0.308 0.599,0.59 1.523,0.79l0.013,0.003c0.166,0.037 0.34,0.07 0.524,0.098c-0.049,-0.788 -0.066,-1.718 -0.066,-2.816c0,-5.133 0.4,-6 4,-6c3.6,0 4,0.867 4,6c0,1.098 -0.017,2.028 -0.066,2.816Zm-2.015,0.16c0.062,-0.782 0.081,-1.74 0.081,-2.976c0,-1.258 -0.02,-2.159 -0.105,-2.87l0,-0.002c-0.081,-0.688 -0.196,-0.921 -0.228,-0.973c-0.001,-0.001 -0.001,-0.002 -0.001,-0.003c-0.002,-0.005 -0.007,-0.009 -0.012,-0.009c-0.019,-0.001 -0.042,-0.003 -0.073,-0.009c-0.004,-0.001 -0.009,-0.002 -0.012,-0.003c-0.338,-0.11 -0.751,-0.133 -1.568,-0.131l-0.002,0c-0.817,-0.002 -1.23,0.021 -1.568,0.131c-0.004,0.001 -0.008,0.002 -0.012,0.003c-0.031,0.006 -0.055,0.008 -0.073,0.009c-0.005,0 -0.01,0.004 -0.012,0.009c0,0.002 0,0.002 -0.001,0.003c-0.032,0.052 -0.147,0.285 -0.228,0.973l0,0.002c-0.085,0.711 -0.105,1.612 -0.105,2.87c0,1.236 0.019,2.194 0.08,2.976c0.569,0.018 1.204,0.024 1.92,0.024l0,0c0.715,0 1.35,-0.006 1.919,-0.024Z" />
</g>
</svg>