<svg fill-rule = "evenodd" cliprule = "evenodd" stroke-linejoin = "round" stroke-miterlimit = "1.414" xmlns = "http://www.w3.org/2000/svg" aria-label = "bolt-docs" viewBox = "0 0 32 32" preserveAspectRatio = "xMidYMid meet" fill = "currentColor" width = "48" height = "48"> 
<g>
  <path d="M15,4c0,-0.552 0.448,-1 1,-1c0.552,0 1,0.448 1,1l0,2c0,0.552 -0.448,1 -1,1c-0.552,0 -1,-0.448 -1,-1l0,-2Zm-5.879,2.707c-0.39,-0.39 -1.023,-0.39 -1.414,0c-0.39,0.391 -0.39,1.024 0,1.414l1.414,1.415c0.391,0.39 1.024,0.39 1.415,0c0.39,-0.391 0.39,-1.024 0,-1.415l-1.415,-1.414Zm9.688,11.72c0.732,-0.786 1.191,-1.881 1.191,-3.251c0,-2.361 -1.845,-4.176 -4,-4.176c-2.155,0 -4,1.815 -4,4.176c0,1.537 0.335,2.397 1.168,3.224c0.86,0.854 1.674,2.086 1.812,3.6l2.046,0c0.158,-1.539 1.024,-2.757 1.783,-3.573Zm1.464,1.363c-0.703,0.754 -1.273,1.677 -1.273,2.708c0,0.829 -0.672,1.502 -1.502,1.502l-2.95,0c-0.855,0 -1.548,-0.693 -1.548,-1.548c0,-1.009 -0.525,-1.922 -1.241,-2.633c-1.295,-1.286 -1.759,-2.704 -1.759,-4.643c0,-3.411 2.686,-6.176 6,-6.176c3.314,0 6,2.765 6,6.176c0,1.841 -0.628,3.433 -1.727,4.614Zm-3.509,5.21c0.758,0 0.777,0.126 0.046,0.327l-3.45,0.949c-0.182,0.049 -0.36,-0.088 -0.36,-0.276c0,-0.218 0.07,-0.42 0.189,-0.585c0.089,-0.123 0.232,-0.19 0.378,-0.23l0.565,-0.151c0.084,-0.023 0.171,-0.034 0.258,-0.034l2.374,0Zm-3.762,2.534c0.027,0.386 0.474,0.514 0.847,0.414l4.603,-1.234c0.323,-0.086 0.548,-0.379 0.548,-0.714c0,-0.265 -0.287,-0.391 -0.543,-0.322l-5.143,1.378c-0.185,0.049 -0.314,0.217 -0.314,0.409c0,0.023 0.001,0.046 0.002,0.069Zm3.515,1.466c0.088,0 0.175,-0.012 0.259,-0.034l1.137,-0.305c0.105,-0.028 0.205,-0.073 0.296,-0.134l0.346,-0.23c0.278,-0.186 0.445,-0.498 0.445,-0.832c0,-0.066 -0.062,-0.114 -0.126,-0.097l-4.587,1.23c-0.109,0.029 -0.132,0.172 -0.039,0.234c0.164,0.11 0.357,0.168 0.555,0.168l1.714,0Zm8.018,-22.293c-0.39,-0.39 -1.023,-0.39 -1.414,0l-1.414,1.414c-0.39,0.391 -0.39,1.024 0,1.415c0.391,0.39 1.024,0.39 1.414,0l1.415,-1.415c0.39,-0.39 0.39,-1.023 0,-1.414Zm2.464,7.293c0.552,0 1,0.448 1,1c0,0.552 -0.448,1 -1,1l-2,0c-0.552,0 -1,-0.448 -1,-1c0,-0.552 0.448,-1 1,-1l2,0Zm-19,1c0,-0.552 -0.448,-1 -1,-1l-2,0c-0.552,0 -1,0.448 -1,1c0,0.552 0.448,1 1,1l2,0c0.552,0 1,-0.448 1,-1Z" />
</g>
</svg>