<svg fill-rule = "evenodd" cliprule = "evenodd" stroke-linejoin = "round" stroke-miterlimit = "1.414" xmlns = "http://www.w3.org/2000/svg" aria-label = "bolt-docs" viewBox = "0 0 32 32" preserveAspectRatio = "xMidYMid meet" fill = "currentColor" width = "48" height = "48"> 
<g>
  <path fill-rule="evenodd" clip-rule="evenodd" d="M30 16c0 7.364-6.636 14-14 14S2 23.364 2 16 8.636 2 16 2s14 6.636 14 14zm2 0c0 8.836-7.164 16-16 16S0 24.836 0 16 7.164 0 16 0s16 7.164 16 16z" />
  <path fill-rule="evenodd" clip-rule="evenodd" d="M21.08 10.873c0 1.873-.286 3.173-1.164 3.977a8.034 8.034 0 0 1 3.648 4.188c.124.328.153.708-.052.993-.568.79-1.673-.11-2.129-.97a6 6 0 0 0-10.604 0c-.456.86-1.561 1.76-2.13.97-.205-.285-.175-.665-.051-.993a8.025 8.025 0 0 1 3.649-4.188c-.88-.804-1.166-2.104-1.166-3.977a5 5 0 0 1 10 0zm-2.468 2.456c.198-.215.469-.773.469-2.456a3 3 0 1 0-6 0c0 1.683.272 2.24.47 2.456.163.176.68.544 2.53.544 1.85 0 2.367-.368 2.53-.544z" />
  <path d="M15.098 19.127a1 1 0 0 1 2 0v1.268l1.098-.634a1 1 0 0 1 1 1.732l-1.098.634 1.098.634a1 1 0 1 1-1 1.732l-1.098-.634v1.268a1 1 0 1 1-2 0v-1.268L14 24.493a1 1 0 1 1-1-1.732l1.098-.634L13 21.493a1 1 0 0 1 1-1.732l1.098.634v-1.268z" />
</g>
</svg>