<svg fill-rule = "evenodd" cliprule = "evenodd" stroke-linejoin = "round" stroke-miterlimit = "1.414" xmlns = "http://www.w3.org/2000/svg" aria-label = "bolt-docs" viewBox = "0 0 32 32" preserveAspectRatio = "xMidYMid meet" fill = "currentColor" width = "48" height = "48"> 
<path d="M10 10a1.5 1.5 0 1 0-3 0 1.5 1.5 0 0 0 3 0zM25 10c0 .552-.392 1-.875 1h-11.25c-.483 0-.875-.448-.875-1s.392-1 .875-1h11.25c.483 0 .875.448.875 1zM10 16a1.5 1.5 0 1 0-3 0 1.5 1.5 0 0 0 3 0zM25 16c0 .552-.392 1-.875 1h-11.25c-.483 0-.875-.448-.875-1s.392-1 .875-1h11.25c.483 0 .875.448.875 1zM10 22a1.5 1.5 0 1 0-3 0 1.5 1.5 0 0 0 3 0zM25 22c0 .552-.392 1-.875 1h-11.25c-.483 0-.875-.448-.875-1s.392-1 .875-1h11.25c.483 0 .875.448.875 1z" />
</svg>