<svg fill-rule = "evenodd" cliprule = "evenodd" stroke-linejoin = "round" stroke-miterlimit = "1.414" xmlns = "http://www.w3.org/2000/svg" aria-label = "bolt-docs" viewBox = "0 0 32 32" preserveAspectRatio = "xMidYMid meet" fill = "currentColor" width = "48" height = "48"> 
<g>
  <path fill-rule="evenodd" clip-rule="evenodd" d="M16 6c5.1 0 7.247.576 8.336 1.665C25.425 8.754 26 10.9 26 16c0 5.1-.575 7.247-1.664 8.336C23.247 25.425 21.1 26 16 26s-7.247-.575-8.336-1.664C6.575 23.247 6 21.1 6 16s.575-7.247 1.664-8.335C8.753 6.576 10.9 6 16 6zm12 10C28 6 26 4 16 4S4 6 4 16s2 12 12 12 12-2 12-12z" />
  <path d="M17.025 16c0 2.525-2.02 4.571-4.512 4.571-2.492 0-4.513-2.047-4.513-4.57 0-2.525 2.02-4.572 4.513-4.572 2.492 0 4.512 2.046 4.512 4.571zm4.95 0c0 2.377-1.01 4.304-2.256 4.304-1.246 0-2.256-1.927-2.256-4.304 0-2.376 1.01-4.304 2.256-4.304 1.246 0 2.256 1.927 2.256 4.304zM24 16c0 2.129-.355 3.855-.794 3.855-.438 0-.793-1.726-.793-3.855 0-2.13.355-3.855.793-3.855.439 0 .794 1.726.794 3.855z" />
</g>
</svg>