<svg fill-rule = "evenodd" cliprule = "evenodd" stroke-linejoin = "round" stroke-miterlimit = "1.414" xmlns = "http://www.w3.org/2000/svg" aria-label = "bolt-docs" viewBox = "0 0 32 32" preserveAspectRatio = "xMidYMid meet" fill = "currentColor" width = "48" height = "48"> 
<g>
  <path d="M22.586,9.414c0.864,0.864 1.414,2.572 1.414,6.586l0,1.5c0,0.828 -0.672,1.5 -1.5,1.5c-0.828,0 -1.5,-0.672 -1.5,-1.5l0,-0.5l0,-1l0,-4c0,-0.552 -0.448,-1 -1,-1c-0.552,0 -1,0.448 -1,1c-0.836,-0.628 -1.874,-1 -3,-1c-2.761,0 -5,2.239 -5,5c0,2.761 2.239,5 5,5c1.416,0 2.694,-0.588 3.604,-1.534c0.63,0.926 1.692,1.534 2.896,1.534c1.933,0 3.5,-1.567 3.5,-3.5l0,-0.5l0,-1c0,-8 -2,-10 -10,-10c-8,0 -10,2 -10,10c0,8 2,10 10,10l6,0c0.552,0 1,-0.448 1,-1c0,-0.552 -0.448,-1 -1,-1l-6,0c-4.014,0 -5.722,-0.55 -6.586,-1.414c-0.864,-0.864 -1.414,-2.572 -1.414,-6.586c0,-4.014 0.55,-5.722 1.414,-6.586c0.864,-0.864 2.572,-1.414 6.586,-1.414c4.014,0 5.722,0.55 6.586,1.414Zm-3.586,6.586c0,1.657 -1.343,3 -3,3c-1.657,0 -3,-1.343 -3,-3c0,-1.657 1.343,-3 3,-3c1.657,0 3,1.343 3,3Z" />
</g>
</svg>