<svg fill-rule = "evenodd" cliprule = "evenodd" stroke-linejoin = "round" stroke-miterlimit = "1.414" xmlns = "http://www.w3.org/2000/svg" aria-label = "bolt-docs" viewBox = "0 0 32 32" preserveAspectRatio = "xMidYMid meet" fill = "currentColor" width = "48" height = "48"> 
<g>
  <path fill-rule="evenodd" clip-rule="evenodd" d="M16 8c-4.507 0-8 3.302-8 7.76 0 2.333.956 4.348 2.513 5.74.13.118.209.28.215.456l.044 1.423a.641.641 0 0 0 .898.566l1.587-.7a.638.638 0 0 1 .427-.032c.729.201 1.506.307 2.316.307 4.507 0 8-3.3 8-7.76C24 11.302 20.507 8 16 8zm4.803 5.97l-2.35 3.728a1.201 1.201 0 0 1-1.735.32l-1.869-1.401a.48.48 0 0 0-.578.001l-2.524 1.916c-.336.256-.777-.148-.55-.506l2.35-3.728a1.201 1.201 0 0 1 1.735-.32l1.869 1.402a.48.48 0 0 0 .578-.002l2.524-1.915c.336-.256.777.148.55.505z" />
  <path fill-rule="evenodd" clip-rule="evenodd" d="M16 6c5.1 0 7.247.576 8.336 1.665C25.425 8.754 26 10.9 26 16c0 5.1-.575 7.247-1.664 8.336C23.247 25.425 21.1 26 16 26s-7.247-.575-8.336-1.664C6.575 23.247 6 21.1 6 16s.575-7.247 1.664-8.335C8.753 6.576 10.9 6 16 6zm12 10C28 6 26 4 16 4S4 6 4 16s2 12 12 12 12-2 12-12z" />
</g>
</svg>