<svg fill-rule = "evenodd" cliprule = "evenodd" stroke-linejoin = "round" stroke-miterlimit = "1.414" xmlns = "http://www.w3.org/2000/svg" aria-label = "bolt-docs" viewBox = "0 0 32 32" preserveAspectRatio = "xMidYMid meet" fill = "currentColor" width = "48" height = "48"> 
<g>
  <path d="M16,6c5.1,0 7.247,0.575 8.336,1.664c1.089,1.089 1.664,3.236 1.664,8.336c0,5.1 -0.575,7.247 -1.664,8.336c-1.089,1.089 -3.236,1.664 -8.336,1.664c-5.1,0 -7.247,-0.575 -8.336,-1.664c-1.089,-1.089 -1.664,-3.236 -1.664,-8.336c0,-5.1 0.575,-7.247 1.664,-8.336c1.089,-1.089 3.236,-1.664 8.336,-1.664Zm12,10c0,-10 -2,-12 -12,-12c-10,0 -12,2 -12,12c0,10 2,12 12,12c10,0 12,-2 12,-12Zm-16,-1c-0.552,0 -1,0.448 -1,1c0,0.552 0.448,1 1,1l8,0c0.552,0 1,-0.448 1,-1c0,-0.552 -0.448,-1 -1,-1l-8,0Z" />
</g>
</svg>