<svg fill-rule = "evenodd" cliprule = "evenodd" stroke-linejoin = "round" stroke-miterlimit = "1.414" xmlns = "http://www.w3.org/2000/svg" aria-label = "bolt-docs" viewBox = "0 0 32 32" preserveAspectRatio = "xMidYMid meet" fill = "currentColor" width = "48" height = "48"> 
<g>
  <path fill-rule="evenodd" clip-rule="evenodd" d="M17.9187 5.61612C17.9187 5.61612 17.9187 5.61612 17.9187 5.61612C17.9777 5.90533 17.7002 6.1181 17.4074 6.08069C17.4074 6.08069 17.4074 6.08069 17.4074 6.08069C16.4521 5.95862 15.4647 5.95859 14.5093 6.08066C14.5093 6.08066 14.5093 6.08066 14.5093 6.08066C14.2165 6.11807 13.939 5.90531 13.9981 5.61609C13.9981 5.61609 13.9981 5.61609 13.9981 5.61608C14.1827 4.71219 14.9928 4 15.9584 4C16.9239 4 17.7341 4.71222 17.9187 5.61612ZM12.0814 25.7795C12.0814 25.7795 12.0814 25.7795 12.0814 25.7795C11.9115 25.2815 12.3963 24.8765 12.9214 24.9111C12.9214 24.9111 12.9214 24.9111 12.9214 24.9111C13.2715 24.9342 13.6248 25.1646 13.9659 25.3871C13.9659 25.3871 13.9659 25.3871 13.9659 25.3871C14.1654 25.5172 14.3608 25.6446 14.549 25.7264C14.5491 25.7264 14.5491 25.7264 14.5491 25.7264C15.0237 25.9324 15.6573 26 15.9584 26C16.2103 26 16.8495 25.9176 17.3386 25.7064C17.5216 25.6273 17.7149 25.5075 17.9133 25.3845C17.9134 25.3844 17.9135 25.3844 17.9135 25.3843C17.9136 25.3843 17.9137 25.3842 17.9138 25.3842C18.2686 25.1643 18.6392 24.9345 18.995 24.911C18.995 24.911 18.995 24.911 18.995 24.911C19.5202 24.8763 20.0052 25.2814 19.8351 25.7795C19.8351 25.7795 19.8351 25.7795 19.8351 25.7795C19.335 27.2447 17.423 28 15.9584 28C14.4941 28 12.5815 27.2447 12.0814 25.7795ZM20.9584 14.4879C20.9584 14.4958 20.9586 14.5041 20.959 14.512C21.0393 16.1501 21.5785 17.2785 22.0494 18.264C22.0494 18.264 22.0494 18.264 22.0494 18.264C22.1524 18.4797 22.2522 18.6886 22.3432 18.8945C22.3437 18.8956 22.3443 18.8968 22.3448 18.898C22.9429 20.2247 22.9444 20.8614 22.8999 21.0825C22.8992 21.0861 22.8985 21.0895 22.8978 21.0932L22.8973 21.0961C22.897 21.0977 22.8967 21.0992 22.8964 21.1008C22.8862 21.1578 22.8618 21.269 22.4903 21.4372C22.4903 21.4372 22.4903 21.4372 22.4903 21.4372C22.0024 21.6581 21.2014 21.8246 20.0018 21.9128C20.0016 21.9128 20.0014 21.9128 20.0012 21.9128C18.8324 22 17.4983 22 16.0247 22C16.0247 22 16.0247 22 16.0247 22H15.9583H15.892C15.892 22 15.892 22 15.892 22C14.4185 22 13.0843 22 11.9156 21.9128C11.9154 21.9128 11.9152 21.9128 11.915 21.9128C10.7154 21.8246 9.91433 21.6582 9.42646 21.4374C9.42645 21.4374 9.42645 21.4374 9.42644 21.4374C9.05569 21.2696 9.03061 21.1585 9.02046 21.1017C9.02013 21.0998 9.01981 21.0981 9.01946 21.0962L9.01895 21.0935C9.0183 21.09 9.01764 21.0868 9.01693 21.0833C8.97245 20.8627 8.97353 20.226 9.5724 18.8983C9.5724 18.8983 9.5724 18.8983 9.5724 18.8983C9.6779 18.6643 9.79385 18.4306 9.91235 18.1918C9.91264 18.1912 9.91292 18.1906 9.9132 18.19C9.91349 18.1894 9.91378 18.1889 9.91406 18.1883C10.4137 17.1812 10.9584 16.083 10.9584 14.5C10.9584 11.7762 11.8638 10.5501 12.7004 9.92774C12.7066 9.92308 12.7127 9.91831 12.7188 9.9134C13.7234 9.10035 14.852 8.99512 15.9561 8.99999C15.9576 9 15.9591 9 15.9606 8.99999C17.0647 8.99512 18.1933 9.10035 19.1979 9.91343C19.204 9.91834 19.2101 9.92311 19.2164 9.92777C20.0517 10.5492 20.9557 11.7726 20.9584 14.4879ZM23.7809 17.2641C23.7808 17.264 23.7808 17.2639 23.7808 17.2639C23.7807 17.2638 23.7807 17.2637 23.7806 17.2636C23.3321 16.3506 22.9584 15.5899 22.9584 14.5C22.9584 8 18.4583 7 15.9583 7C13.4584 7 8.95837 8 8.95837 14.5C8.95837 15.576 8.66201 16.1819 8.20036 17.1257C8.20036 17.1257 8.20036 17.1257 8.20036 17.1257C8.0634 17.4057 7.9119 17.7154 7.74927 18.076C7.74927 18.076 7.74926 18.076 7.74926 18.076C5.07736 24 9.95837 24 15.9583 24C21.9583 24 26.8401 24 24.1671 18.0739C24.1671 18.0739 24.1671 18.0739 24.1671 18.0739C24.0369 17.7851 23.906 17.5187 23.7809 17.2641Z" />
  <rect x="9.85554" y="4.76389" width="26.4285" height="3" rx="1.5" transform="rotate(51.0892 9.85554 4.76389)" stroke="white" />
</g>
</svg>