<svg fill-rule = "evenodd" cliprule = "evenodd" stroke-linejoin = "round" stroke-miterlimit = "1.414" xmlns = "http://www.w3.org/2000/svg" aria-label = "bolt-docs" viewBox = "0 0 32 32" preserveAspectRatio = "xMidYMid meet" fill = "currentColor" width = "48" height = "48"> 
<path d="M13 7a1 1 0 00-1 1v1.019C8.275 9.168 7 10.234 7 13c0 3 .857 4 6 4 4 0 4 .5 4 1.998v.004C17 20.5 17 21 13 21c-2.935 0-3.717-.269-3.925-1.005C8.925 19.463 8.552 19 8 19c-.552 0-1.015.452-.924.997.365 2.203 2.052 2.892 4.924 2.988V24a1 1 0 002 0v-1.015c3.725-.125 5-1.035 5-3.985 0-.813-.055-1.47-.222-2h6.808l-2.293 2.293a.999.999 0 101.414 1.414l4-4a.999.999 0 000-1.414l-4-4a.999.999 0 10-1.414 1.414L25.586 15H13c-3.394 0-4 0-4-2s.75-2 4-2c3.064 0 3.326.4 3.682.948l.067.101c.308.458.698.951 1.25.95.552 0 1.017-.453.91-.995-.372-1.893-1.903-2.989-4.909-2.989V8a1 1 0 00-1-1z" />
</svg>