<svg fill-rule = "evenodd" cliprule = "evenodd" stroke-linejoin = "round" stroke-miterlimit = "1.414" xmlns = "http://www.w3.org/2000/svg" aria-label = "bolt-docs" viewBox = "0 0 32 32" preserveAspectRatio = "xMidYMid meet" fill = "currentColor" width = "48" height = "48"> 
<g>
  <path d="M25.698,22.196c0.248,-1.511 0.302,-3.475 0.302,-6.196c0,-2.716 -0.063,-4.673 -0.324,-6.181c-0.245,-1.442 -0.619,-2.125 -1.019,-2.521c-0.403,-0.397 -1.093,-0.761 -2.534,-0.996c-1.502,-0.249 -3.445,-0.302 -6.123,-0.302c-2.678,0 -4.621,0.053 -6.123,0.302c-1.441,0.235 -2.131,0.599 -2.534,0.996c-0.4,0.396 -0.774,1.079 -1.019,2.521c-0.261,1.508 -0.324,3.465 -0.324,6.181c0,2.721 0.053,4.685 0.302,6.196c0.235,1.45 0.6,2.127 0.987,2.515c0.388,0.387 1.065,0.752 2.515,0.987c1.511,0.249 3.475,0.302 6.196,0.302c2.721,0 4.685,-0.053 6.196,-0.302c1.45,-0.235 2.127,-0.6 2.515,-0.987c0.387,-0.388 0.752,-1.065 0.987,-2.515Zm-9.698,5.804c11,0 12,-1 12,-12c0,-11 -1.169,-12 -12,-12c-10.831,0 -12,1 -12,12c0,11 1,12 12,12Z" />
  <path d="M8.556,20.674c-0.706,-0.103 -1.385,0.459 -1.28,1.164c0.06,0.406 0.379,0.72 0.784,0.784c1.958,0.308 4.539,0.378 7.94,0.378c3.4,0 5.982,-0.07 7.939,-0.378c0.406,-0.064 0.724,-0.378 0.785,-0.784c0.105,-0.705 -0.574,-1.267 -1.28,-1.164c-0.038,0.006 -0.077,0.011 -0.116,0.017c-0.001,0 -0.002,0 -0.002,0c-1.802,0.253 -4.143,0.309 -7.326,0.309c0,0 0,0 0,0c-3.183,0 -5.524,-0.056 -7.326,-0.309c0,0 -0.001,0 -0.002,0c-0.039,-0.006 -0.078,-0.011 -0.116,-0.017Z" />
  <path d="M11.722,10.034c-0.808,-0.186 -1.612,0.319 -1.798,1.126c-0.045,0.195 -0.049,0.39 -0.019,0.576c0.05,0.307 -0.056,0.664 -0.323,0.825c-0.107,0.065 -0.212,0.133 -0.316,0.204c-0.465,0.319 -1.106,0.201 -1.256,-0.343c-0.149,-0.54 -0.169,-1.125 -0.035,-1.71c0.433,-1.884 2.311,-3.06 4.194,-2.627c1.884,0.432 3.061,2.31 2.628,4.194c-0.055,0.241 -0.134,0.471 -0.234,0.687c-0.268,0.58 -1.007,0.479 -1.431,0.001c-0.052,-0.06 -0.107,-0.118 -0.164,-0.174c-0.208,-0.207 -0.25,-0.546 -0.158,-0.825c0.015,-0.044 0.027,-0.09 0.038,-0.136c0.185,-0.808 -0.319,-1.613 -1.126,-1.798Zm1.5,7.742c0.407,0.341 1.013,0.286 1.352,-0.124c0.251,-0.296 0.501,-0.6 0.752,-0.905l0.001,0c1.088,-1.32 2.208,-2.677 3.551,-3.705c1.424,1.09 2.563,2.484 3.694,3.868l0.001,0.001c0.203,0.248 0.405,0.495 0.609,0.741c0.339,0.41 0.945,0.465 1.352,0.124c0.403,-0.338 0.457,-0.957 0.122,-1.361c-0.216,-0.26 -0.432,-0.524 -0.651,-0.791l-0.007,-0.009c-1.239,-1.514 -2.533,-3.095 -4.108,-4.221c-0.299,-0.211 -0.637,-0.394 -1.012,-0.394c-0.375,0 -0.713,0.183 -1.012,0.394c-1.581,1.13 -2.909,2.754 -4.163,4.287l0,0c-0.203,0.248 -0.405,0.494 -0.604,0.735c-0.34,0.41 -0.285,1.018 0.123,1.36Zm-0.421,-2.606c0.275,-0.312 0.271,-0.778 -0.024,-1.072c-0.231,-0.23 -0.483,-0.464 -0.763,-0.704c-0.299,-0.211 -0.637,-0.394 -1.012,-0.394c-0.375,0 -0.728,0.171 -1.012,0.394c-1.441,1.135 -1.99,2.084 -2.767,3.022c-0.34,0.41 -0.285,1.018 0.123,1.36c0.407,0.341 1.013,0.286 1.352,-0.124c0.802,-1.152 1.292,-1.652 2.304,-2.61c0.089,0.084 0.173,0.165 0.254,0.242c0.42,0.401 1.161,0.321 1.545,-0.114Z" />
</g>
</svg>