<svg fill-rule = "evenodd" cliprule = "evenodd" stroke-linejoin = "round" stroke-miterlimit = "1.414" xmlns = "http://www.w3.org/2000/svg" aria-label = "bolt-docs" viewBox = "0 0 32 32" preserveAspectRatio = "xMidYMid meet" fill = "currentColor" width = "48" height = "48"> 
<g>
  <path d="M26.957,4.843c-0.39,-0.391 -1.024,-0.391 -1.414,0l-10.896,10.896c-0.904,0.96 -1.173,2.243 -1.246,2.744c-0.017,0.115 0.073,0.211 0.189,0.2c0.487,-0.045 1.722,-0.25 2.834,-1.186l10.886,-10.887c0.391,-0.39 0.391,-1.023 0,-1.414l-0.353,-0.353Zm-9.18,14.129l-0.032,0.027l-0.033,0.028c-1.552,1.306 -3.249,1.584 -3.939,1.647c-1.415,0.131 -2.555,-1.095 -2.351,-2.482c0.091,-0.616 0.501,-2.413 1.753,-3.807l0.007,-0.008l0.009,-0.009l0.01,-0.011l0.01,-0.011l0.011,-0.011l0.011,-0.01l7.885,-7.885c-1.343,-0.346 -3.025,-0.483 -5.118,-0.483c-8,0 -10,2 -10,10c0,8 2,10 10,10c8,0 10,-2 10,-10c0,-1.931 -0.117,-3.514 -0.406,-4.802l-7.756,7.756l-0.03,0.03l-0.031,0.031Z" />
</g>
</svg>