<svg fill-rule = "evenodd" cliprule = "evenodd" stroke-linejoin = "round" stroke-miterlimit = "1.414" xmlns = "http://www.w3.org/2000/svg" aria-label = "bolt-docs" viewBox = "0 0 32 32" preserveAspectRatio = "xMidYMid meet" fill = "currentColor" width = "48" height = "48"> 
<g transform="translate(6 7)">
  <path fill-rule="evenodd" clip-rule="evenodd" d="M18.0919 17.2635C18.4824 16.8729 18.4824 16.2398 18.0919 15.8492L16.2286 13.9859C16.6221 13.708 16.9846 13.416 17.3152 13.1197C18.1483 12.3729 18.7937 11.587 19.2375 10.9046C19.459 10.5639 19.6382 10.237 19.7658 9.94239C19.8795 9.67992 20 9.33716 20 9C20 8.66283 19.8795 8.32008 19.7658 8.05761C19.6382 7.76304 19.459 7.43606 19.2375 7.09543C18.7937 6.41302 18.1483 5.62706 17.3152 4.88034C15.6487 3.38668 13.1709 2 10 2C8.21732 2 6.65369 2.4383 5.33013 3.08749L2.53553 0.292892C2.14501 -0.0976305 1.51184 -0.0976305 1.12132 0.292892C0.730793 0.683417 0.730797 1.31658 1.12132 1.70711L16.6777 17.2635C17.0682 17.654 17.7014 17.654 18.0919 17.2635ZM6.84489 4.60225L8.59259 6.34995C9.01231 6.12657 9.49137 6 10 6C11.6569 6 13 7.34315 13 9C13 9.50863 12.8734 9.98769 12.65 10.4074L14.7894 12.5468C15.2257 12.2613 15.6231 11.9504 15.9803 11.6303C16.6813 11.0021 17.212 10.3505 17.5608 9.81418C17.7356 9.54544 17.8568 9.31773 17.9306 9.14745C17.9598 9.08006 17.9772 9.03153 17.9875 9C17.9772 8.96846 17.9598 8.91994 17.9306 8.85255C17.8568 8.68227 17.7356 8.45456 17.5608 8.18582C17.212 7.64948 16.6813 6.99794 15.9803 6.36966C14.5786 5.11332 12.5564 4 10 4C8.83453 4 7.78011 4.23139 6.84489 4.60225Z" />
  <path d="M2.43916 8.18582C2.62448 7.90088 2.86115 7.58342 3.14742 7.2542C3.32609 7.04873 3.32418 6.73839 3.13164 6.54585L2.42325 5.83747C2.22571 5.63992 1.90372 5.64189 1.71823 5.85078C1.33557 6.28172 1.01615 6.70548 0.762543 7.09543C0.541012 7.43606 0.36179 7.76304 0.234196 8.05761C0.120506 8.32008 0 8.66283 0 9C0 9.33716 0.120506 9.67992 0.234196 9.94239C0.36179 10.237 0.541012 10.5639 0.762543 10.9046C1.20635 11.587 1.85171 12.3729 2.68483 13.1197C4.35131 14.6133 6.82914 16 10 16C10.4956 16 10.9743 15.9661 11.4357 15.9032C11.8258 15.8501 11.9649 15.3791 11.6865 15.1007L10.7275 14.1417C10.6257 14.0399 10.485 13.9877 10.3411 13.9934C10.2285 13.9978 10.1148 14 10 14C7.44358 14 5.42142 12.8867 4.01971 11.6303C3.31874 11.0021 2.78797 10.3505 2.43916 9.81418C2.26439 9.54544 2.14318 9.31773 2.06943 9.14745C2.04023 9.08006 2.02279 9.03153 2.0125 9C2.02279 8.96847 2.04023 8.91994 2.06943 8.85255C2.14318 8.68227 2.26439 8.45456 2.43916 8.18582Z" />
</g>
</svg>