<svg fill-rule = "evenodd" cliprule = "evenodd" stroke-linejoin = "round" stroke-miterlimit = "1.414" xmlns = "http://www.w3.org/2000/svg" aria-label = "bolt-docs" viewBox = "0 0 32 32" preserveAspectRatio = "xMidYMid meet" fill = "currentColor" width = "48" height = "48"> 
<g transform="translate(6 4)">
  <path d="M 13.1955 2.23785C 12.44 2.04071 11.4794 1.99933 10 2C 8.52065 1.99933 7.55997 2.04071 6.8045 2.23785C 6.1992 2.38824 5.97868 2.58063 5.82935 2.78922C 5.62134 3.07977 5.37756 3.66086 5.21555 4.8999C 5.09674 5.79526 5.03786 6.87158 5.01379 8.21457C 6.31618 8.05185 7.9507 8 10 8C 12.0493 8 13.6838 8.05185 14.9862 8.21457C 14.9621 6.87158 14.9033 5.79526 14.7845 4.8999C 14.6225 3.66086 14.3787 3.07977 14.1707 2.78922C 14.0213 2.58066 13.8008 2.38824 13.1955 2.23785ZM 16.992 8.64078C 16.893 0.897217 15.8017 0 10 0C 4.19827 0 3.107 0.897217 3.00796 8.64078C 0.403839 9.52625 0 11.5516 0 16C 0 23 1 24 10 24C 19 24 20 23 20 16C 20 11.5516 19.5962 9.52625 16.992 8.64078ZM 2.25122 12.2217C 2.04568 13.1338 1.99948 14.2954 2 16C 1.99948 17.7046 2.04568 18.8662 2.25122 19.7783C 2.42407 20.5734 2.66103 20.8885 2.89148 21.0771C 3.17363 21.3079 3.72681 21.5756 4.93619 21.7563C 6.18376 21.946 7.78571 22.0003 10 22C 12.2143 22.0003 13.8162 21.946 15.0638 21.7563C 16.2732 21.5756 16.8264 21.308 17.1085 21.0771C 17.339 20.8885 17.5759 20.5734 17.7488 19.7783C 17.9543 18.8662 18.0005 17.7046 18 16C 18.0005 14.2954 17.9543 13.1338 17.7488 12.2217C 17.5759 11.4266 17.339 11.1115 17.1085 10.9229C 16.8264 10.692 16.2732 10.4244 15.0638 10.2437C 13.8162 10.054 12.2143 9.99969 10 10C 7.78571 9.99969 6.18376 10.054 4.93619 10.2437C 3.72681 10.4244 3.17363 10.6921 2.89148 10.9229C 2.66103 11.1115 2.42407 11.4266 2.25122 12.2217ZM 11 16.7325C 11.5978 16.3867 12 15.7403 12 15C 12 13.8954 11.1046 13 10 13C 8.89543 13 8 13.8954 8 15C 8 15.7403 8.40221 16.3867 9 16.7325L 9 18C 9 18.5523 9.44772 19 10 19C 10.5523 19 11 18.5523 11 18L 11 16.7325Z" />
</g>
</svg>