<svg fill-rule = "evenodd" cliprule = "evenodd" stroke-linejoin = "round" stroke-miterlimit = "1.414" xmlns = "http://www.w3.org/2000/svg" aria-label = "bolt-docs" viewBox = "0 0 32 32" preserveAspectRatio = "xMidYMid meet" fill = "currentColor" width = "48" height = "48"> 
<g>
  <path d="M7.222,15.218c0.257,-1.016 0.616,-1.893 1.085,-2.62c1.043,-1.616 2.704,-2.605 5.41,-2.605c0.552,0 1,-0.447 1,-1c0,-0.552 -0.448,-1 -1,-1c-3.294,0 -5.633,1.261 -7.091,3.521c-1.405,2.179 -1.909,5.161 -1.909,8.479c0,4 1,5 5,5c4,0 5,-1 5,-5c0,-4 -1,-5 -5,-5c-1.014,0 -1.834,0.064 -2.495,0.225Z" />
  <path d="M19.222,15.218c0.257,-1.016 0.616,-1.893 1.085,-2.62c1.043,-1.616 2.704,-2.605 5.41,-2.605c0.552,0 1,-0.447 1,-1c0,-0.552 -0.448,-1 -1,-1c-3.294,0 -5.633,1.261 -7.091,3.521c-1.405,2.179 -1.909,5.161 -1.909,8.479c0,4 1,5 5,5c4,0 5,-1 5,-5c0,-4 -1,-5 -5,-5c-1.014,0 -1.834,0.064 -2.495,0.225Z" />
</g>
</svg>