<svg fill-rule = "evenodd" cliprule = "evenodd" stroke-linejoin = "round" stroke-miterlimit = "1.414" xmlns = "http://www.w3.org/2000/svg" aria-label = "bolt-docs" viewBox = "0 0 32 32" preserveAspectRatio = "xMidYMid meet" fill = "currentColor" width = "48" height = "48"> 
<g>
  <path d="M19.22,8.687c-0.353,-1.21 -2.087,-1.21 -2.44,0c-0.406,1.393 -0.814,2.183 -1.362,2.731c-0.548,0.548 -1.338,0.956 -2.731,1.362c-1.21,0.353 -1.21,2.087 0,2.44c1.393,0.406 2.183,0.814 2.731,1.362c0.548,0.548 0.956,1.338 1.362,2.731c0.353,1.21 2.087,1.21 2.44,0c0.406,-1.393 0.814,-2.183 1.362,-2.731c0.548,-0.548 1.338,-0.956 2.731,-1.362c1.21,-0.353 1.21,-2.087 0,-2.44c-1.393,-0.406 -2.183,-0.814 -2.731,-1.362c-0.548,-0.548 -0.956,-1.338 -1.362,-2.731Zm-2.388,4.145c0.482,-0.481 0.856,-1.041 1.168,-1.688c0.312,0.647 0.686,1.207 1.168,1.688c0.482,0.482 1.041,0.856 1.688,1.168c-0.647,0.312 -1.206,0.686 -1.688,1.168c-0.482,0.482 -0.856,1.041 -1.168,1.688c-0.312,-0.647 -0.686,-1.206 -1.168,-1.688c-0.481,-0.482 -1.041,-0.856 -1.688,-1.168c0.647,-0.312 1.207,-0.686 1.688,-1.168Z" />
  <path d="M12.852,19.726c-0.26,0.408 -0.444,0.76 -0.553,1.089c-0.059,0.175 -0.095,0.344 -0.11,0.511c-0.011,0.116 -0.011,0.232 0,0.348c0.015,0.167 0.052,0.336 0.11,0.513c0.109,0.328 0.293,0.679 0.553,1.087c0.029,0.046 0.058,0.092 0.089,0.138c0.215,0.327 -0.201,0.744 -0.526,0.529c-0.047,-0.031 -0.093,-0.061 -0.138,-0.09c-0.407,-0.261 -0.758,-0.446 -1.085,-0.555c-0.175,-0.059 -0.343,-0.095 -0.509,-0.11c-0.115,-0.011 -0.23,-0.011 -0.346,0c-0.166,0.015 -0.334,0.051 -0.509,0.11c-0.327,0.109 -0.678,0.294 -1.085,0.555c-0.045,0.029 -0.091,0.059 -0.137,0.09c-0.326,0.215 -0.741,-0.202 -0.526,-0.529c0.03,-0.047 0.06,-0.092 0.089,-0.138c0.256,-0.403 0.439,-0.751 0.547,-1.076c0.058,-0.174 0.095,-0.341 0.11,-0.506c0.011,-0.123 0.011,-0.244 -0.001,-0.367c-0.017,-0.165 -0.055,-0.332 -0.115,-0.506c-0.111,-0.323 -0.297,-0.669 -0.558,-1.07c-0.029,-0.045 -0.06,-0.09 -0.091,-0.136c-0.218,-0.325 0.192,-0.747 0.52,-0.535c0.047,0.03 0.093,0.06 0.139,0.088c0.415,0.26 0.771,0.443 1.103,0.55c0.177,0.057 0.347,0.092 0.516,0.105c0.109,0.009 0.217,0.009 0.326,-0.001c0.169,-0.015 0.339,-0.051 0.515,-0.11c0.331,-0.11 0.686,-0.297 1.097,-0.561c0.045,-0.029 0.091,-0.059 0.138,-0.09c0.325,-0.215 0.741,0.202 0.526,0.529c-0.018,0.027 -0.035,0.053 -0.052,0.079c-0.012,0.02 -0.025,0.039 -0.037,0.059Z" />
</g>
</svg>