<svg fill-rule = "evenodd" cliprule = "evenodd" stroke-linejoin = "round" stroke-miterlimit = "1.414" xmlns = "http://www.w3.org/2000/svg" aria-label = "bolt-docs" viewBox = "0 0 32 32" preserveAspectRatio = "xMidYMid meet" fill = "currentColor" width = "48" height = "48"> 
<g>
  <path d="M 5.8902 8.70774C 6.31445 9.0613 6.3718 9.69185 6.01822 10.1161C 5.66464 10.5404 5.03409 10.5977 4.6098 10.2442L 4.60855 10.2431C 3 9.22597 2 8.22597 0.40863 6.27944C 0.19043 5.96819 0 5.61611 0 5.22594C 0 4.83579 0.19043 4.48371 0.40863 4.17246C 2 2.22597 3 1.22597 4.60944 0.20804C 5.0762 -0.0871717 5.66464 -0.0885144 6.01822 0.335756C 6.3718 0.760027 6.31445 1.3906 5.8902 1.74416L 5.72845 1.87903C 4.58041 2.83635 3.8909 3.41132 3.07352 4.22597L 16 4.22597C 18.7614 4.22597 21 6.46454 21 9.22597C 21 11.9874 18.7614 14.226 16 14.226L 12 14.226C 11.4477 14.226 11 13.7783 11 13.226C 11 12.6737 11.4477 12.226 12 12.226L 16 12.226C 17.6569 12.226 19 10.8828 19 9.22597C 19 7.56911 17.6569 6.22597 16 6.22597L 3.07495 6.22597C 3.87918 7.02567 4.56436 7.59874 5.64545 8.50295L 5.8902 8.70774Z" transform="translate(6 9)" />
</g>
</svg>