<svg fill-rule = "evenodd" cliprule = "evenodd" stroke-linejoin = "round" stroke-miterlimit = "1.414" xmlns = "http://www.w3.org/2000/svg" aria-label = "bolt-docs" viewBox = "0 0 32 32" preserveAspectRatio = "xMidYMid meet" fill = "currentColor" width = "48" height = "48"> 
<g>
  <path d="M10 24a2 2 0 1 0 0-4 2 2 0 0 0 0 4z" />
  <path fill-rule="evenodd" clip-rule="evenodd" d="M8 9a1 1 0 0 1 1-1c8.284 0 15 6.716 15 15a1 1 0 1 1-2 0c0-7.18-5.82-13-13-13a1 1 0 0 1-1-1z" />
  <path fill-rule="evenodd" clip-rule="evenodd" d="M8 15a1 1 0 0 1 1-1 9 9 0 0 1 9 9 1 1 0 1 1-2 0 7 7 0 0 0-7-7 1 1 0 0 1-1-1z" />
</g>
</svg>