<svg fill-rule = "evenodd" cliprule = "evenodd" stroke-linejoin = "round" stroke-miterlimit = "1.414" xmlns = "http://www.w3.org/2000/svg" aria-label = "bolt-docs" viewBox = "0 0 32 32" preserveAspectRatio = "xMidYMid meet" fill = "currentColor" width = "48" height = "48"> 
<g fill-rule="nonzero">
  <path d="M16.707,5.294c-0.39,-0.39 -1.024,-0.39 -1.414,0l-3,3c-0.391,0.391 -0.391,1.024 0,1.415c0.39,0.39 1.024,0.39 1.414,0l1.293,-1.293l0,9.585c0,0.553 0.448,1 1,1c0.552,0 1,-0.447 1,-1l0,-9.585l1.293,1.293c0.39,0.39 1.024,0.39 1.414,0c0.391,-0.391 0.391,-1.024 0,-1.415l-3,-3Zm-5.817,7.023c0.588,-0.114 1.11,0.36 1.11,0.959l0,0.426c0,0.265 -0.198,0.487 -0.459,0.531l-0.002,0c-1.042,0.17 -1.486,0.416 -1.706,0.612c-0.191,0.171 -0.42,0.489 -0.588,1.31l-0.007,0.03c-0.191,0.926 -0.238,2.106 -0.238,3.815l0,0.003c0,1.709 0.047,2.889 0.238,3.814l0.007,0.031c0.168,0.821 0.397,1.139 0.588,1.309c0.219,0.197 0.662,0.442 1.699,0.612l0.017,0.002c1.094,0.182 2.493,0.231 4.45,0.23l0.002,0c1.957,0.001 3.356,-0.048 4.45,-0.23l0.017,-0.002c1.037,-0.17 1.48,-0.415 1.699,-0.611c0.191,-0.171 0.42,-0.489 0.588,-1.31l0.007,-0.031c0.191,-0.925 0.238,-2.105 0.238,-3.814l0,-0.003c0,-1.709 -0.047,-2.889 -0.238,-3.815l-0.007,-0.03c-0.168,-0.821 -0.397,-1.139 -0.588,-1.31c-0.22,-0.196 -0.664,-0.442 -1.706,-0.612l-0.002,0c-0.262,-0.044 -0.459,-0.266 -0.459,-0.531l0,-0.426c0,-0.599 0.522,-1.073 1.11,-0.959c3.362,0.655 3.89,2.553 3.89,7.684c0,7.059 -1,8 -9,8c-8,0 -9,-0.941 -9,-8c0,-5.131 0.528,-7.029 3.89,-7.684Z" />
</g>
</svg>