<svg fill-rule = "evenodd" cliprule = "evenodd" stroke-linejoin = "round" stroke-miterlimit = "1.414" xmlns = "http://www.w3.org/2000/svg" aria-label = "bolt-docs" viewBox = "0 0 32 32" preserveAspectRatio = "xMidYMid meet" fill = "currentColor" width = "48" height = "48"> 
<g>
  <path fill-rule="evenodd" clip-rule="evenodd" d="M24.956 14.112c-.034.525.37 1.01.869.84 1.466-.5 2.22-2.413 2.22-3.877 0-1.465-.755-3.376-2.22-3.877-.498-.17-.903.315-.869.84.038.555.576 1.146.796 1.657.212.49.294 1.128.294 1.38 0 .301-.069.935-.274 1.41-.221.51-.778 1.072-.816 1.627zM7.043 8.038c.035-.525-.37-1.01-.868-.84-1.466.5-2.22 2.413-2.22 3.877 0 1.465.754 3.376 2.22 3.877.498.17.903-.315.868-.84-.037-.555-.575-1.146-.795-1.657a4.142 4.142 0 0 1-.294-1.38c0-.3.068-.935.274-1.409.221-.51.778-1.073.815-1.628zM15.954 25.836c-7 0-8-1-8-10 0-6.433.511-8.778 3.359-9.593a.992.992 0 0 1 .278-.073l.026-.006.001.003a1 1 0 0 1 1.086.996v1a3 3 0 0 0 3 3h.5a3 3 0 0 0 3-3v-1a1 1 0 0 1 1.087-.996v-.003l.027.006c.098.01.19.036.278.073 2.848.815 3.358 3.16 3.358 9.593 0 9-1 10-8 10zm-.017-9.792c1.298-1.28 2.597-.96 3.246-.32 2.597 2.56-2.45 5.94-3.246 5.94-.797 0-5.843-3.38-3.246-5.94.649-.64 1.947-.96 3.246.32z" />
</g>
</svg>