<svg fill-rule = "evenodd" cliprule = "evenodd" stroke-linejoin = "round" stroke-miterlimit = "1.414" xmlns = "http://www.w3.org/2000/svg" aria-label = "bolt-docs" viewBox = "0 0 32 32" preserveAspectRatio = "xMidYMid meet" fill = "currentColor" width = "48" height = "48"> 
<g transform="translate(7.21309 7.32291)">
  <path d="M5.78691 11.8084C4.72724 11.8084 4.00271 11.6386 3.45685 11.4584C0.249474 10.3997 -0.496537 9.58643 0.286926 4.88565C1.07001 0.187093 2.5186 -0.5453 6.78691 0.308362C9.28691 0.808362 12.7869 0.885648 12.7869 4.88565C12.7869 6.52905 12.703 8.3656 12.4029 9.38565C11.7731 11.5265 6.90882 13.3425 8.28691 15.8856C8.78691 16.8084 7.78691 17.8084 6.78691 17.3856C5.78691 16.9629 5.03691 15.7944 5.03691 14.3856C5.03691 13.276 5.28691 12.8084 5.78691 11.8084Z" />
  <path d="M16.2869 1.38565C17.6619 1.38565 18.7869 1.80232 18.7869 6.38565C18.7869 10.969 17.6619 11.3856 16.2869 11.3856C14.9119 11.3856 13.7869 10.969 13.7869 6.38565C13.7869 1.80232 14.9119 1.38565 16.2869 1.38565Z" />
</g>
</svg>