<svg fill-rule = "evenodd" cliprule = "evenodd" stroke-linejoin = "round" stroke-miterlimit = "1.414" xmlns = "http://www.w3.org/2000/svg" aria-label = "bolt-docs" viewBox = "0 0 32 32" preserveAspectRatio = "xMidYMid meet" fill = "currentColor" width = "48" height = "48"> 
<g>
  <path d="M16 4C9.373 4 4 9.373 4 16h2c0-5.523 4.477-10 10-10V4zM6.767 19.847A10.003 10.003 0 0 0 16 26v2c-4.991 0-9.271-3.047-11.08-7.383l1.847-.77zM16 28c6.627 0 12-5.373 12-12h-2c0 5.523-4.477 10-10 10v2zM25.233 12.153A10.003 10.003 0 0 0 16 6V4c4.991 0 9.271 3.048 11.08 7.383l-1.847.77z" />
  <path d="M26.54 12.694a1 1 0 0 0 .54-1.307l-1.847.766a1 1 0 0 0 1.307.541zM4.293 17.707a1 1 0 0 0 1.414 0l3-3a1 1 0 1 0-1.414-1.415l-1.188 1.293H4.078l-1.37-1.293a1 1 0 0 0-1.415 1.415l3 3zM26.293 14.293a1 1 0 0 1 1.414 0l3 3a1 1 0 1 1-1.414 1.415l-1.188-1.293h-2.027l-1.37 1.293a1 1 0 0 1-1.415-1.415l3-3zM5.462 19.313a1 1 0 0 0-.541 1.306l1.848-.765a1 1 0 0 0-1.307-.541z" />
  <path fill-rule="evenodd" clip-rule="evenodd" d="M16 7a1 1 0 0 0-1 1v2.019l2-.004V8a1 1 0 0 0-1-1zM17 24v-2.015h-2V24a1 1 0 0 0 2 0z" />
  <path fill-rule="evenodd" clip-rule="evenodd" d="M21.909 12.004c.107.542-.358.995-.91.995-.552.001-.942-.492-1.25-.95C19.347 11.451 19.25 11 16 11s-4 0-4 2 .606 2 4 2c5.143 0 6 .8 6 4 0 2.95-1.275 3.86-5 3.985-.631.021-1.369.021-2 0-2.872-.096-4.559-.785-4.924-2.988-.091-.545.372-.997.924-.997s.925.463 1.075.995c.208.736.99 1.005 3.925 1.005 4 0 4-.5 4-1.998v-.004C20 17.5 20 17 16 17c-5.143 0-6-1-6-4 0-2.766 1.275-3.832 5-3.981a28.378 28.378 0 0 1 2-.004c3.006 0 4.537 1.096 4.909 2.989z" />
</g>
</svg>