<svg fill-rule = "evenodd" cliprule = "evenodd" stroke-linejoin = "round" stroke-miterlimit = "1.414" xmlns = "http://www.w3.org/2000/svg" aria-label = "bolt-docs" viewBox = "0 0 32 32" preserveAspectRatio = "xMidYMid meet" fill = "currentColor" width = "48" height = "48"> 
<g>
  <path fill-rule="evenodd" clip-rule="evenodd" d="M7.4849 20.3931C7.90917 20.7467 8.53973 20.6894 8.8933 20.2651C10.2702 18.62 13.6548 14.7995 15.3751 13.4905C17.1243 14.8215 20.46 18.5905 21.8569 20.2651C22.2104 20.6894 22.841 20.7467 23.2653 20.3931C23.6895 20.0396 23.7465 19.4086 23.393 18.9843C21.8613 17.1447 18.4 13.1847 16.4286 11.7835C16.1173 11.5653 15.7652 11.3749 15.3751 11.3749C14.9849 11.3749 14.6328 11.5653 14.3216 11.7835C12.3899 13.1564 8.8602 17.1828 7.35791 18.9835L7.35686 18.9847C7.0033 19.409 7.06062 20.0396 7.4849 20.3931Z" />
</g>
</svg>