<svg fill-rule = "evenodd" cliprule = "evenodd" stroke-linejoin = "round" stroke-miterlimit = "1.414" xmlns = "http://www.w3.org/2000/svg" aria-label = "bolt-docs" viewBox = "0 0 32 32" preserveAspectRatio = "xMidYMid meet" fill = "currentColor" width = "48" height = "48"> 
<g>
  <path d="M 10 0C 6.82915 0 4.35131 1.38666 2.68483 2.88031C 1.85171 3.62708 1.20635 4.41302 0.762543 5.09546C 0.541014 5.43604 0.36179 5.76306 0.234196 6.05762C 0.120506 6.32007 0 6.66284 0 7C 0 7.33716 0.120506 7.67993 0.234196 7.94238C 0.36179 8.23694 0.541014 8.56396 0.762543 8.90454C 1.20635 9.58698 1.85171 10.3729 2.68483 11.1197C 4.35131 12.6133 6.82915 14 10 14C 13.1709 14 15.6487 12.6133 17.3152 11.1197C 18.1483 10.3729 18.7937 9.58698 19.2375 8.90454C 19.459 8.56396 19.6382 8.23694 19.7658 7.94238C 19.8795 7.67993 20 7.33716 20 7C 20 6.66284 19.8795 6.32007 19.7658 6.05762C 19.6382 5.76306 19.459 5.43604 19.2375 5.09546C 18.7937 4.41302 18.1483 3.62708 17.3152 2.88031C 15.6487 1.38666 13.1709 0 10 0ZM 12.5 6.5C 12.6546 6.5 12.8051 6.48248 12.9496 6.44928C 12.9827 6.62781 13 6.81189 13 7C 13 8.65686 11.6569 10 10 10C 8.34315 10 7 8.65686 7 7C 7 5.34314 8.34315 4 10 4C 10.1881 4 10.3722 4.01727 10.5507 4.05042C 10.5175 4.19495 10.5 4.3454 10.5 4.5C 10.5 5.60455 11.3954 6.5 12.5 6.5Z" transform="translate(6 9)" />
</g>
</svg>