<svg fill-rule = "evenodd" cliprule = "evenodd" stroke-linejoin = "round" stroke-miterlimit = "1.414" xmlns = "http://www.w3.org/2000/svg" aria-label = "bolt-docs" viewBox = "0 0 32 32" preserveAspectRatio = "xMidYMid meet" fill = "currentColor" width = "48" height = "48"> 
<g>
  <path d="M24.518,7.453c0.279,0.487 0.058,1.095 -0.452,1.329l-0.103,0.047c-0.437,0.201 -0.953,0.013 -1.194,-0.404c-1.199,-2.078 -2.928,-3.659 -4.917,-4.673c-0.493,-0.251 -0.741,-0.834 -0.529,-1.346c0.21,-0.509 0.794,-0.755 1.288,-0.511c2.385,1.179 4.46,3.053 5.89,5.53l0.017,0.028Zm-2.539,1.428c0.215,0.371 0.046,0.837 -0.343,1.016l-0.568,0.26c-0.301,0.138 -0.655,0.011 -0.821,-0.276c-0.865,-1.499 -2.094,-2.656 -3.511,-3.425c-0.487,-0.265 -0.736,-0.846 -0.524,-1.358c0.21,-0.509 0.794,-0.756 1.283,-0.504c1.813,0.938 3.388,2.388 4.484,4.287Zm3.225,5.464c-0.13,0.288 -0.264,0.586 -0.336,0.89c-0.28,1.179 0,2.632 0,2.632c0,0 0.513,2.835 0,4.289c-0.855,2.423 -2.471,4.253 -5.113,4.253c-1.282,0 -2.765,-1.207 -3.956,-2.177l-0.001,0l0,0l-0.001,-0.001c-0.388,-0.316 -0.744,-0.606 -1.053,-0.821c-0.807,-0.563 -2.506,-1.542 -3.711,-2.237c-0.67,-0.386 -1.187,-0.684 -1.312,-0.773c-0.631,-0.448 -0.731,-1.306 -0.38,-1.867c0.351,-0.561 1.245,-0.91 1.929,-0.37c0.684,0.54 2.946,1.941 2.946,1.941c0,0 -3.64,-3.678 -4.283,-4.221c-0.644,-0.544 -0.727,-1.5 -0.212,-2.014c0.514,-0.514 1.324,-0.538 1.799,-0.151c0.475,0.387 4.364,4.149 4.364,4.149c0,0 -3.987,-5.03 -4.364,-5.495c-0.376,-0.465 -0.483,-1.281 0,-1.764c0.484,-0.484 1.325,-0.486 1.826,0c0.5,0.486 4.378,5.174 4.378,5.174c0,0 -2.669,-4.478 -2.98,-5.174c-0.31,-0.696 -0.03,-1.597 0.617,-1.84c0.648,-0.242 1.384,-0.054 1.802,0.53c0.115,0.159 0.433,0.744 0.85,1.511c1.112,2.044 2.928,5.382 3.453,5.382c0.477,0 0.511,-0.272 0.577,-0.805l0,0l0,-0.001c0.034,-0.274 0.077,-0.617 0.193,-1.027c0.307,-1.086 2.073,-2.919 3.071,-1.755c0.446,0.521 0.181,1.109 -0.103,1.742Zm0.802,12.595c-2.22,2.422 -3.372,2.045 -4.129,1.488c-1.62,-1.191 -1.406,-1.27 -0.507,-1.605c0.648,-0.24 1.65,-0.612 2.579,-1.626c0.843,-0.92 1.227,-1.771 1.486,-2.346c0.424,-0.939 0.516,-1.142 1.734,0.293c0.609,0.716 1.058,1.374 -1.163,3.796Zm-20.864,-8.729c-0.473,0.081 -0.791,0.535 -0.667,0.999c0.627,2.34 1.901,4.333 3.578,5.839c0.409,0.368 1.038,0.281 1.373,-0.157c0.336,-0.439 0.247,-1.066 -0.159,-1.443c-1.337,-1.242 -2.352,-2.863 -2.86,-4.756c-0.099,-0.37 -0.456,-0.619 -0.834,-0.555l-0.431,0.073Zm-2.709,0.46c0.526,-0.089 1.023,0.26 1.161,0.775c0.681,2.539 2.069,4.699 3.897,6.324c0.414,0.368 0.501,0.995 0.165,1.434c-0.335,0.438 -0.963,0.525 -1.379,0.163c-2.167,-1.887 -3.815,-4.418 -4.615,-7.403c-0.011,-0.041 -0.021,-0.082 -0.032,-0.124c-0.141,-0.542 0.23,-1.071 0.783,-1.165l0.02,-0.004Z" />
</g>
</svg>