<svg xmlns="http://www.w3.org/2000/svg" width="1684" height="346" fill="none" viewBox="0 0 1684 346"><path fill="#09AFB4" d="M1684 268L0 0V346H1684V268Z"/><path fill="#12D0D6" fill-opacity=".2" d="M2.65461 140.419C12.4321 140.714 21.3743 143.024 29.3466 147.309C33.859 149.732 38.0574 152.513 42.3156 155.217C50.9218 160.681 59.5073 166.174 68.0246 171.72C70.577 173.381 73.461 173.711 76.6075 173.614C77.7645 173.579 78.9798 173.532 80.0733 173.758C82.4054 174.235 84.5054 175.129 85.1357 177.085C85.7718 179.073 84.9838 180.894 82.9356 182.185C78.0016 185.297 73.083 188.458 67.1811 190.49C63.4264 191.785 59.6238 192.993 55.8608 194.264C48.9439 196.595 41.9768 198.849 35.1538 201.33C32.4128 202.331 29.9485 203.805 27.4331 205.151C25.3608 206.259 23.3381 205.894 22.2946 204.053C21.2947 202.287 21.8252 200.62 23.103 199.075C25.3798 196.311 28.3686 194.04 32.1415 192.558C35.8988 191.085 39.8113 189.792 43.7734 188.691C48.0377 187.507 52.509 186.744 56.7924 185.595C61.48 184.339 66.0645 182.858 70.6806 181.444C71.4618 181.202 72.1732 180.824 73.0399 180.457C59.724 174.929 48.854 167.185 37.7647 159.663C32.6537 156.196 27.5402 152.74 21.509 150.199C15.5899 147.705 9.33791 146.209 2.54739 146.132C2.12833 146.13 1.71175 146.033 1.29186 145.978C1.75054 144.126 2.20257 142.273 2.65461 140.419Z"/><path fill="#12D0D6" fill-opacity=".2" d="M480.165 186.507C479.197 187.683 478.407 188.806 477.413 189.805C476.382 190.846 475.318 191.94 473.975 192.709C470.891 194.464 467.408 193.858 465.188 191.452C463.758 189.899 462.972 188.216 462.813 186.328C462.174 178.542 463.144 170.872 465.681 163.32C466.239 161.651 466.824 159.986 467.469 158.102C466.735 158.319 466.279 158.412 465.867 158.58C461.269 160.483 456.657 162.362 452.101 164.318C450.61 164.96 449.236 165.771 447.854 166.556C445.314 168.003 442.721 168.202 440.507 167.07C438.356 165.963 437.401 164.097 438.444 161.795C439.583 159.269 440.945 156.759 442.658 154.443C447.462 147.946 454.209 142.617 460.74 137.161C466.917 131.998 473.408 127.102 481.535 123.757C485.64 122.069 489.956 120.675 494.216 119.227C495.19 118.896 496.363 118.742 497.428 118.774C498.822 118.81 499.877 119.448 500.158 120.556C500.423 121.609 499.824 122.431 498.586 122.882C490.105 125.986 483.317 130.803 477.106 136.019C470.939 141.2 465.352 146.791 459.525 152.21C459.07 152.637 458.7 153.112 457.955 153.935C458.957 153.635 459.426 153.491 459.898 153.358C464.854 151.988 469.777 150.529 474.781 149.276C477.865 148.504 480.953 150.253 481.11 152.823C481.196 154.304 480.852 155.829 480.453 157.294C478.889 163.115 477.226 168.916 475.616 174.73C475.465 175.263 475.446 175.82 475.314 176.758C476.54 175.93 477.373 175.336 478.249 174.791C482.04 172.445 485.797 173.143 487.712 176.573C488.797 178.526 489.718 180.529 490.834 182.47C494.777 189.314 501.091 194.502 509.697 197.994C513.983 199.736 518.375 201.329 522.719 202.978C523.191 203.157 523.701 203.267 524.664 203.548C521.663 196.987 521.145 190.566 522.78 183.889C522.05 183.895 521.536 183.916 521.016 183.905C519.18 183.874 517.308 183.991 515.511 183.775C508.486 182.935 504.496 179.529 504.159 174.085C503.85 169.174 505.198 164.411 506.688 159.684C507.785 156.201 509.171 152.775 510.413 149.318C510.709 148.499 510.979 147.676 511.196 146.841C512.083 143.401 511.575 142.805 506.958 142.67C504.527 142.601 502.049 142.779 499.636 143.056C496.177 143.446 492.757 144.044 489.31 144.526C488.47 144.643 487.509 144.891 486.772 144.695C485.642 144.395 484.17 143.946 483.738 143.234C483.305 142.527 483.844 141.389 484.219 140.502C484.397 140.079 485.101 139.704 485.679 139.476C492.826 136.655 500.132 134.196 508.431 134.517C510.074 134.578 511.739 134.802 513.317 135.155C519.802 136.6 523.392 140.212 522.814 145.371C522.441 148.678 521.174 151.926 520.259 155.198C518.825 160.318 517.311 165.422 515.91 170.547C515.619 171.599 515.672 172.706 515.567 173.785C515.453 175.042 516.26 175.824 517.83 175.928C520.078 176.076 522.349 176.128 524.606 176.066C525.111 176.054 525.734 175.446 526.048 175.005C527.527 172.945 528.856 170.822 530.373 168.778C530.905 168.062 531.728 167.424 532.583 166.908C534.05 166.025 535.763 165.912 537.455 166.53C539.168 167.151 540.083 168.276 540.009 169.708C539.957 170.826 539.622 171.946 539.338 173.052C538.094 177.957 536.562 182.825 535.66 187.763C535.192 190.333 535.612 193.036 535.98 195.646C537.038 203.154 538.594 210.59 541.8 217.778C542.222 218.726 542.281 219.839 542.159 220.847C541.836 223.496 538.646 225.014 535.627 223.74C533.738 222.94 531.852 221.649 530.848 220.21C529.311 217.997 528.4 215.499 527.494 213.065C527.083 211.959 526.604 211.526 525.044 211.296C508.643 208.94 494.552 203.544 484.827 192.688C483.133 190.806 481.819 188.721 480.165 186.507Z"/><path fill="#12D0D6" fill-opacity=".2" d="M166.525 102.144C163.597 114.179 155.802 124.114 144.481 132.459C129.916 143.191 113.176 151.138 93.3592 154.807C85.2332 156.313 77.0141 156.961 68.7444 155.249C60.343 153.514 53.9927 149.827 50.0073 143.833C46.1619 138.054 45.1007 131.83 45.0421 125.443C44.9848 118.967 45.9985 112.64 49.3365 106.625C51.6829 102.391 55.1246 98.7424 59.4963 95.6239C67.6848 89.7722 76.8437 85.0745 87.5312 82.372C98.1514 79.6915 108.853 77.2129 119.497 74.578C123.523 73.5817 127.537 72.5203 131.45 71.2806C136.154 69.7898 139.697 67.2498 141.882 63.6481C142.686 62.3262 143.751 61.0895 144.459 59.738C144.896 58.9076 145.008 57.9408 145.051 57.0277C145.105 55.9891 144.386 54.7919 146.18 54.2042C149.104 53.245 150.637 53.4442 152.107 55.0029C153.724 56.7201 155.325 58.4456 156.816 60.2293C164.967 69.9557 168.413 80.6442 167.65 92.1495C167.428 95.4838 166.905 98.8118 166.525 102.144ZM149.634 72.6724C147.439 74.2541 145.529 75.8821 143.289 77.1668C141.042 78.4556 138.59 79.6252 136.008 80.4538C131.764 81.8098 127.383 82.9348 122.995 84.0059C112.691 86.5204 102.343 88.9283 92.0249 91.4144C82.5032 93.7084 74.1528 97.6292 66.4393 102.408C60.9529 105.81 57.0952 110.064 55.7399 115.424C55.0508 118.136 54.7173 120.941 54.6616 123.708C54.5614 129.025 55.3615 134.261 58.5004 139.129C60.7448 142.617 64.0806 145.184 68.9322 146.499C73.7704 147.812 78.7344 147.849 83.6724 147.09C108.249 143.307 127.739 133.224 141.844 117.58C153.999 104.097 154.985 88.8873 149.979 73.2874C149.908 73.0711 149.75 72.874 149.634 72.6724Z"/><path fill="#12D0D6" fill-opacity=".2" d="M913.26 248.784C912.981 244.569 913.501 240.945 914.925 237.392C918.68 228.002 925.55 220.677 937.306 216.157C956.79 208.663 976.963 202.689 998.295 199.18C1006.8 197.781 1015.46 197.18 1024.12 198.044C1027.54 198.383 1030.86 199.373 1034.21 200.107C1034.85 200.246 1035.44 200.543 1036 200.834C1037.47 201.605 1038.82 202.503 1038.29 204.064C1037.74 205.671 1035.91 205.889 1034.16 205.843C1029.61 205.714 1025.08 205.338 1020.54 205.309C1007.47 205.232 994.789 207.067 982.324 210.064C968.748 213.329 955.604 217.306 942.92 222.301C933.257 226.102 927.677 232.032 924.913 239.81C924.237 241.71 923.792 243.676 923.458 245.636C923.047 248.082 923.549 250.368 925.456 252.502C927.673 254.976 925.93 258.06 922.034 258.299C919.681 258.441 916.976 258.195 914.9 257.4C909.864 255.461 904.929 253.305 900.282 250.867C885.453 243.082 869.981 236.13 854.245 229.525C849.866 227.686 844.976 226.555 840.339 225.065C839.16 224.684 837.953 224.273 836.954 223.685C835.372 222.755 834.724 221.436 835.22 219.911C835.722 218.388 837.109 217.382 839.068 217.22C840.731 217.083 842.452 217.415 844.155 217.486C845.966 217.561 847.849 217.821 849.59 217.564C857.739 216.356 865.392 214.111 872.482 210.733C880.575 206.881 888.768 203.154 896.873 199.309C899.634 197.999 902.294 196.542 904.939 195.088C907.242 193.824 909.721 193.725 911.536 194.942C913.167 196.038 913.454 197.596 912.369 199.48C908.884 205.505 907.725 211.976 906.233 218.377C906.193 218.541 906.299 218.725 906.381 219.123C907.101 218.682 907.687 218.365 908.217 217.997C913.543 214.291 918.882 210.593 924.152 206.838C924.567 206.543 924.788 205.698 924.543 205.319C923.589 203.845 922.429 202.452 921.315 201.04C920.969 200.599 920.516 200.201 920.147 199.768C917.548 196.689 918.956 193.879 923.628 193.192C926.511 192.766 929.466 192.578 932.404 192.461C939.266 192.189 946.173 192.325 952.864 190.808C953.447 190.675 954.034 190.554 954.491 190.455C953.166 185.509 951.864 180.64 950.483 175.501C953.872 175.988 957.034 176.421 960.17 176.93C960.454 176.976 960.766 177.501 960.805 177.824C961.301 182.191 962.879 186.323 964.989 190.389C966.379 193.067 964.815 194.771 961.098 195.178C960.857 195.206 960.602 195.207 960.37 195.258C950.788 197.348 940.966 198.05 931.065 198.345C930.601 198.358 930.142 198.493 929.618 198.581C930.605 200.404 931.626 202.109 932.455 203.872C933.89 206.926 933.289 207.955 930.14 210.15C921.642 216.084 913.264 222.12 904.841 228.117C904.799 228.148 904.762 228.185 904.719 228.221C902.887 229.67 901.152 230.071 899.297 229.472C897.499 228.891 896.631 227.625 896.837 225.567C897.173 222.276 897.462 218.972 898.059 215.708C898.655 212.448 899.6 209.223 900.39 205.981C900.205 205.896 900.011 205.816 899.825 205.731C899.369 205.882 898.893 205.999 898.468 206.191C892.34 208.983 886.148 211.698 880.108 214.603C873.881 217.603 867.401 220.144 860.409 221.908C860.013 222.01 859.629 222.145 859.093 222.311C877.074 231.103 894.933 239.831 913.26 248.784Z"/><path fill="#12D0D6" fill-opacity=".2" d="M230.658 155.155C233.154 146.361 237.24 137.986 241.794 129.72C243.535 126.557 245.061 123.32 246.751 120.139C248.943 116.004 252.206 112.441 256.686 109.581C260.328 107.256 264.584 105.965 269.297 105.649C275.255 105.247 279.995 106.964 283.395 110.734C287.011 114.746 288.617 119.3 288.49 124.106C288.132 137.165 283.696 149.374 274.293 160.314C269.55 165.831 263.304 170.345 255.769 173.659C251.6 175.496 247.09 176.529 242.229 176.412C235.733 176.255 230.75 173.22 229.652 168.306C229.089 165.789 229.238 163.147 229.411 160.577C229.518 158.759 230.217 156.962 230.658 155.155ZM277.008 137.961C278.468 132.088 278.954 127.925 278.109 123.719C277.555 120.971 276.411 118.386 274.074 116.238C273.348 115.574 271.98 114.727 271.124 114.852C268.521 115.229 266.011 116.02 263.49 116.71C263.188 116.793 262.988 117.219 262.846 117.515C261.35 120.603 260.077 123.765 258.36 126.774C252.878 136.359 247.294 145.914 243.132 155.901C242.017 158.584 241.029 161.337 240.488 164.119C239.677 168.288 241.351 169.321 246.809 168.462C250.722 167.845 253.931 166.219 256.915 164.28C268.292 156.889 274.561 147.29 277.008 137.961Z"/><path fill="#12D0D6" fill-opacity=".2" d="M782.055 229.557C782.08 229.132 782.131 228.808 782.109 228.478C781.462 219.328 785.717 212.906 794.156 209.115C807.103 203.312 821.646 204.56 837.012 210.693C843.494 213.282 849.582 216.598 854.378 221.622C856.723 224.078 858.488 226.701 858.896 229.652C859.351 232.946 857.29 235.15 853.875 235.104C850.833 235.066 849.033 233.287 849.283 230.741C849.354 230.008 849.01 229.029 848.479 228.316C846.693 225.911 844.075 224.287 841.246 222.987C836.954 221.017 832.542 219.745 828.035 219.324C816.749 218.274 806.91 220.223 798.493 225.076C795.77 226.647 793.772 228.698 792.995 231.646C792.713 232.723 792.912 233.308 794.361 233.913C797.776 235.334 801.124 237.004 803.57 239.72C804.68 240.949 805.617 242.395 806.165 243.801C806.894 245.671 805.937 246.903 803.768 246.788C800.491 246.615 797.12 246.446 793.835 245.65C788.459 244.345 783.119 242.571 777.778 240.931C772.665 239.365 767.567 237.699 762.464 236.101C758.377 234.823 754.381 233.295 750.741 230.922C749.325 229.995 747.954 228.933 746.776 227.784C745.465 226.501 745.627 225.46 747.168 224.902C748.288 224.5 749.545 224.125 750.829 224.186C754.753 224.371 758.711 224.445 762.656 225.166C768.576 226.242 774.499 227.835 780.42 229.206C780.928 229.325 781.441 229.428 782.055 229.557Z"/><path fill="#12D0D6" fill-opacity=".2" d="M409.861 239.997C408.112 238.932 406.405 238.063 404.969 236.985C400.036 233.296 399.435 228.062 403.376 223.72C406.255 220.545 410.249 218.498 414.944 217.238C420.09 215.853 425.408 215.143 430.863 215.309C439.439 215.568 441.371 218.108 443.252 222.663C444.642 226.018 446.681 228.964 450.039 231.243C454.584 234.321 459.4 237.164 464.084 240.125C465.026 240.72 465.984 241.333 466.742 242.06C468.714 243.956 468.275 245.42 465.844 246.841C453.9 253.791 439.905 256.716 425.601 259.02C418.842 260.11 411.973 260.608 405.104 259.864C402.477 259.582 399.772 258.998 397.436 258.054C392.202 255.939 391.024 251.69 394.43 247.963C397.684 244.404 402.299 242.208 407.496 240.666C408.225 240.444 408.968 240.244 409.861 239.997ZM452.59 245.375C451.96 245.11 451.486 244.91 451.005 244.709C445.543 242.455 440.697 239.597 436.63 235.996C432.709 232.526 429.975 228.651 429.864 223.916C429.859 223.794 429.71 223.672 429.55 223.427C425.941 223.558 422.364 224.07 419.145 225.367C417.139 226.173 415.259 227.34 413.721 228.625C412.002 230.063 412.121 231.661 413.894 233.078C415.454 234.322 417.289 235.373 419.116 236.396C420.448 237.142 421.991 237.666 423.37 238.36C424.693 239.026 425.426 239.998 425.126 241.255C424.842 242.445 423.791 243.145 422.326 243.458C421.44 243.647 420.528 243.749 419.619 243.867C413.718 244.625 408.748 246.728 404.617 250.018C403.882 250.605 403.299 251.303 402.645 251.954C404.689 253.051 407.45 253.575 411.724 253.676C426.119 254.016 439.306 250.685 451.964 245.798C452.118 245.73 452.235 245.615 452.59 245.375Z"/><path fill="#12D0D6" fill-opacity=".2" d="M394.094 161.003C392.814 151.587 396.169 143.276 401.634 135.421C403.284 133.053 405.832 131.041 408.097 128.946C408.86 128.242 409.974 127.736 411.009 127.24C412.403 126.574 413.922 126.327 415.276 127.261C416.654 128.21 416.428 129.388 415.634 130.499C412.431 134.975 409.702 139.592 407.705 144.484C405.273 150.449 403.997 156.496 404.474 162.747C404.586 164.206 404.79 165.71 404.427 167.116C404.076 168.498 403.205 169.842 402.303 171.086C401.659 171.976 400.565 171.978 399.506 171.244C399.117 170.977 398.406 170.679 398.004 170.775C395.921 171.279 394.269 170.661 392.693 169.763C382.771 164.11 371.434 162.371 359.413 163.011C355.811 163.202 352.189 164.119 348.784 165.109C346.695 165.718 344.994 167.111 343.26 168.072C338.927 165.532 338.318 162.221 339.241 158.691C341.32 150.731 348.018 145.716 357.398 142.62C359.561 141.905 361.983 141.588 364.333 141.318C366.329 141.086 368.38 141.476 369.719 142.699C370.46 143.381 370.696 144.446 370.897 145.368C370.95 145.603 370.052 146.013 369.526 146.254C369.186 146.406 368.663 146.32 368.317 146.471C363.152 148.699 358.245 151.191 354.449 154.768C354.065 155.13 353.727 155.53 353.39 155.926C353.257 156.076 353.177 156.26 352.801 156.872C360.019 154.944 366.992 154.498 374.103 155.377C381.138 156.256 387.82 157.85 394.094 161.003Z"/><path fill="#12D0D6" fill-opacity=".2" d="M213.968 84.987C213.669 85.7366 213.476 86.2743 213.236 86.8053C211.593 90.4955 207.423 92.6759 202.349 92.47C199.249 92.3471 196.955 91.1508 195.606 89.0653C194.407 87.2126 193.572 85.222 192.434 83.3463C191.531 81.8586 190.473 80.4171 189.341 79.0232C188.754 78.2995 187.904 77.8656 186.55 78.0304C184.869 78.2381 183.334 77.2566 183.183 76.1568C183.033 75.052 184.054 74.2211 185.946 73.9645C188.883 73.5675 191.584 74.114 193.461 75.8633C195.316 77.5936 196.827 79.5492 198.352 81.4751C199.303 82.6792 199.928 84.0372 200.84 85.2621C201.224 85.7718 202.118 86.5343 202.544 86.4528C203.496 86.2725 204.789 85.766 205.083 85.153C205.837 83.581 206.162 81.8838 206.587 80.2274C206.75 79.5851 206.722 78.91 206.826 78.259C207.086 76.6847 207.988 75.4404 210.144 75.0631C212.235 74.6925 213.814 75.3843 215.084 76.6607C216.506 78.0803 217.908 79.5236 219.502 80.8254C224.665 85.0654 233.034 86.1727 239.812 83.5953C242.898 82.4217 243.778 81.2376 243.414 78.6119C242.945 75.2048 241.176 72.2503 237.987 69.8423C225.125 60.1418 209.548 56.5246 191.826 57.7831C191.406 57.8126 190.822 57.8081 190.602 58.0037C189.703 58.8151 188.748 58.81 187.697 58.268C186.457 57.63 185.708 56.6399 186.187 55.6044C186.69 54.5035 187.487 53.2652 188.656 52.6193C190.293 51.7133 192.33 51.0916 194.315 50.7058C203.119 48.985 211.721 49.8985 220.224 52.066C229.308 54.3857 237.271 58.0293 243.933 63.346C249.764 68.0043 252.149 73.6524 252.178 79.9609C252.2 83.9325 249.585 86.7275 245.085 88.5698C237.01 91.8696 223.322 91.8424 215.143 85.7C214.857 85.4898 214.508 85.3129 213.968 84.987Z"/><path fill="#12D0D6" fill-opacity=".2" d="M1052.29 204.009C1047.02 195.873 1041.78 187.802 1036.54 179.725C1036.69 179.604 1036.85 179.49 1037 179.369C1040.46 179.866 1043.93 180.322 1047.36 180.905C1047.85 180.986 1048.25 181.629 1048.58 182.062C1053.65 188.799 1058.66 195.554 1063.77 202.269C1065.03 203.936 1066.6 205.466 1067.97 207.085C1068.57 207.794 1069.1 208.552 1069.54 209.324C1070.66 211.271 1070.24 213.07 1068.46 214.248C1066.61 215.482 1063.97 215.478 1061.6 214.44C1059.43 213.489 1057.22 212.516 1054.88 211.899C1046.08 209.584 1037.28 210.523 1028.55 212.234C1021.88 213.542 1015.72 215.807 1010.16 218.918C1002.05 223.46 998.095 229.782 997.295 237.377C997.197 238.314 997.599 239.683 995.963 239.849C994.41 240.012 993.825 238.771 993.422 237.772C993.135 237.06 992.922 236.3 992.91 235.558C992.737 226.143 996.422 218.112 1006.96 212.534C1020.3 205.483 1034.94 202.446 1051.1 203.984C1051.5 204.011 1051.91 203.996 1052.29 204.009Z"/><path fill="#12D0D6" fill-opacity=".2" d="M176.072 200.579C175.188 200.452 174.536 200.363 173.892 200.266C162.154 198.505 158.982 190.503 162.532 183.504C164.533 179.559 167.969 176.47 172.523 174.128C179.523 170.526 187.139 168.148 195.603 167.599C197.175 167.498 198.812 167.527 200.349 167.769C202.861 168.156 204.382 169.928 203.938 171.608C203.53 173.14 200.747 174.68 198.642 174.541C198.459 174.531 198.198 174.556 198.108 174.475C196.621 173.125 194.98 174.015 193.463 174.341C187.833 175.54 182.752 177.622 178.047 180.243C174.697 182.108 172.122 184.486 170.79 187.55C169.419 190.687 170.896 192.923 174.978 193.954C175.963 194.201 177.007 194.319 178.018 194.517C179.661 194.832 180.944 194.705 182.242 193.586C184.471 191.666 187.838 191.706 189.884 193.416C192.003 195.189 191.628 197.883 189.131 199.575C188.374 200.085 187.679 200.735 187.248 201.429C182.889 208.555 178.657 215.725 174.229 222.825C172.837 225.067 171 227.154 169.311 229.284C168.874 229.834 168.274 230.351 167.612 230.752C165.722 231.902 163.401 231.32 162.937 229.505C162.673 228.468 162.788 227.348 162.919 226.279C163.638 220.342 166.854 215.023 170.073 209.72C171.627 207.159 173.389 204.669 175.056 202.15C175.363 201.682 175.653 201.227 176.072 200.579Z"/><path fill="#12D0D6" fill-opacity=".2" d="M751.871 205.599C752.481 205.639 752.719 205.678 752.956 205.665C759.376 205.287 765.796 204.91 772.196 204.529C772.248 204.399 772.342 204.297 772.304 204.228C771.486 202.731 771.345 201.279 772.939 200.017C774.535 198.746 776.542 198.696 778.596 199.102C782.695 199.918 786.756 200.866 790.884 201.597C792.578 201.898 794.404 201.939 796.145 201.824C800.155 201.571 802.76 203.863 801.39 206.742C798.344 213.169 795.202 219.566 792.061 225.958C791.608 226.881 791.013 227.773 790.34 228.612C789.43 229.749 788.049 230.306 786.273 230.088C784.516 229.873 783.291 229.057 782.949 227.756C782.647 226.624 782.559 225.406 782.742 224.259C783.593 218.881 785.715 213.764 788.519 208.808C788.761 208.383 789.008 207.959 789.285 207.476C786.806 207.12 784.485 206.765 782.141 206.476C781.828 206.436 781.3 206.683 781.113 206.915C779.309 209.15 776.445 209.837 773.305 210.163C767.221 210.795 761.131 211.4 755.062 212.087C751.724 212.463 748.403 212.937 745.099 213.456C742.568 213.848 740.273 213.698 738.62 212.018C737.027 210.399 737.463 208.665 738.737 207.11C742.333 202.717 746.062 198.397 749.689 194.019C751.171 192.229 752.56 190.394 753.893 188.541C755.235 186.678 757.226 185.875 759.449 186.433C761.737 187.004 762.974 188.704 762.261 190.779C761.783 192.174 761.015 193.548 760.094 194.811C757.806 197.933 755.355 200.989 752.98 204.072C752.625 204.513 752.321 204.966 751.871 205.599Z"/><path fill="#12D0D6" fill-opacity=".2" d="M301.033 172.31C298.978 171.513 297.336 170.912 295.739 170.244C287.701 166.875 286.395 162.106 291.95 156.505C294.257 154.183 297.058 152.287 300.474 150.997C305.672 149.033 311.166 147.857 316.985 148.164C318.499 148.244 320.091 148.965 321.374 149.683C322.542 150.337 322.689 151.457 321.911 152.502C321.175 153.49 320.071 153.813 318.628 153.553C318.102 153.456 317.505 153.365 316.996 153.45C310.126 154.63 303.613 156.347 298.961 160.757C296.821 162.79 296.903 163.188 299.715 164.574C300.746 165.082 301.834 165.529 302.857 166.046C304.24 166.747 305.658 167.42 306.925 168.231C312.25 171.639 311.613 175.352 305.241 177.448C302.669 178.294 299.883 178.803 297.154 179.33C292.093 180.31 287.003 181.185 281.934 182.116C281.171 182.255 280.427 182.46 279.325 182.719C281.023 183.454 282.407 184.039 283.772 184.647C285.162 185.264 286.284 186.054 286.191 187.42C286.098 188.76 284.968 189.559 283.493 190.05C281.861 190.592 280.194 191.082 278.502 191.505C272.777 192.928 268.489 195.816 264.881 199.382C264.384 199.871 264.209 200.559 263.873 201.176C261.79 201.395 260.344 200.67 259.713 199.025C259.084 197.376 259.592 195.858 260.687 194.415C263.39 190.861 267.459 188.645 272.456 187.333C273.036 187.184 273.62 187.046 274.206 186.898C274.258 186.884 274.297 186.837 274.545 186.666C273.893 186.377 273.287 186.126 272.71 185.843C268.795 183.928 268.544 180.361 272.43 178.415C274.381 177.438 276.747 176.848 279.037 176.4C285.457 175.145 291.938 174.068 298.39 172.908C299.139 172.772 299.868 172.576 301.033 172.31Z"/><path fill="#12D0D6" fill-opacity=".2" d="M1335.7 226.733C1332.29 231.618 1328.82 236.229 1325.8 241.016C1322.32 246.53 1319.28 252.202 1315.98 257.778C1315.3 258.928 1314.47 260.055 1313.47 261.059C1311.83 262.71 1309.39 263.242 1307.27 262.615C1305.16 261.984 1304.13 260.525 1304.06 258.406C1304.04 257.838 1303.64 257.02 1303.07 256.758C1300.03 255.36 1296.94 254.013 1293.75 252.841C1291.94 252.173 1289.89 252.402 1288.35 253.407C1286.07 254.892 1283.94 256.526 1281.85 258.17C1281.34 258.572 1281.05 259.249 1280.97 259.823C1280.82 260.833 1280.09 261.172 1278.93 261.301C1276.33 261.589 1273.71 260.329 1273.23 258.183C1272.95 256.944 1273.09 255.526 1273.59 254.325C1276.08 248.421 1283.97 243.889 1291.54 243.868C1295 243.857 1298.2 244.671 1301.25 245.838C1303.87 246.843 1306.42 247.945 1309.19 249.083C1309.71 248.285 1310.22 247.497 1310.73 246.71C1315.14 239.971 1319.56 233.24 1323.93 226.486C1324.58 225.485 1325.3 225.15 1326.8 225.423C1329.73 225.961 1332.71 226.304 1335.7 226.733Z"/><path fill="#12D0D6" fill-opacity=".2" d="M330.558 186C330.787 185.653 331.116 184.865 331.735 184.246C336.869 179.102 342.718 174.579 350.59 171.916C351.811 171.505 353.127 171.16 354.442 171.042C357.275 170.789 359.569 172.017 360.643 174.042C360.971 174.67 361.53 175.258 362.128 175.766C364.848 178.065 367.585 180.35 370.388 182.592C371.471 183.455 372.668 184.272 373.945 184.957C376.026 186.07 376.531 188.087 374.801 189.625C373.975 190.362 372.922 190.983 371.855 191.522C366.654 194.151 361.865 197.146 357.635 200.671C357.178 201.049 356.432 201.343 355.767 201.422C352.764 201.778 350.495 202.958 348.97 204.921C348.25 205.843 347.54 205.879 346.66 205.229C345.423 204.322 344.135 203.429 343.102 202.387C339.35 198.598 335.699 194.755 332.011 190.928C330.716 189.579 330.037 188.108 330.558 186ZM350.786 196.405C354.308 191.669 359.602 188.546 365.866 185.932C364.017 184.403 362.43 182.986 360.7 181.675C357.769 179.452 357.83 179.683 353.976 180.762C349.59 181.992 346.676 184.464 343.753 187.003C343.413 187.298 343.206 188.034 343.435 188.305C345.753 190.958 348.174 193.551 350.786 196.405Z"/><path fill="#12D0D6" fill-opacity=".2" d="M1206.07 208.506C1210.72 209.175 1215.37 209.806 1220.01 210.536C1221.17 210.719 1222.38 211.088 1223.34 211.611C1227.64 213.946 1231.42 216.736 1234.17 220.186C1235.5 221.84 1236.39 223.754 1237.03 225.642C1237.39 226.703 1237.12 228.012 1236.65 229.087C1235.87 230.929 1233.99 231.426 1231.85 230.421C1230.4 229.742 1229.11 228.839 1227.81 227.985C1224.02 225.518 1220.49 222.77 1216.44 220.587C1206.87 215.424 1196.53 214.492 1185.72 218.219C1183.89 218.848 1182.09 219.651 1180.55 220.63C1179.5 221.298 1178.74 222.362 1178.21 223.359C1177.57 224.557 1177.08 224.829 1175.52 224.22C1172.17 222.904 1170.28 219.763 1171.74 217.002C1172.68 215.229 1174.2 213.504 1175.98 212.147C1179.6 209.381 1184.11 207.614 1189.05 206.563C1189.95 206.371 1191 206.373 1191.93 206.497C1196.65 207.132 1201.35 207.829 1206.07 208.506Z"/><path fill="#12D0D6" fill-opacity=".2" d="M55.9589 84.0625C49.6729 82.8476 43.8701 80.9201 38.3323 78.555C23.9057 72.3922 12.4704 63.9483 5.31119 52.3828C1.403 46.0719 -0.477227 39.4553 1.30979 32.4672C1.71701 30.8823 2.61929 29.3263 3.60424 27.8825C4.45174 26.6356 6.28534 26.2808 7.72366 26.7569C9.19272 27.248 10.1523 28.4745 9.58596 29.8093C6.2084 37.8477 9.21838 45.1339 14.292 52.0244C21.9229 62.3895 32.555 70.4326 46.9232 75.2553C52.257 77.0468 57.9155 77.902 63.7603 77.965C64.3704 77.9734 64.9901 77.999 65.5907 78.0747C67.8812 78.3562 69.3379 79.4903 69.3871 81.0086C69.4417 82.5331 68.0813 83.9652 65.8224 84.0899C62.5659 84.272 59.2532 84.0919 55.9589 84.0625Z"/><path fill="#12D0D6" fill-opacity=".2" d="M760.81 131.878C764.485 132.406 767.907 132.898 771.589 133.427C771.448 134.004 771.331 134.542 771.187 135.076C769.517 141.246 769.546 147.443 770.841 153.637C772.633 162.223 778.727 168.964 786.537 174.927C789.755 177.386 793.276 179.615 796.403 182.136C797.686 183.166 798.582 184.621 799.139 186.006C799.687 187.369 798.916 187.596 797.071 187.463C792.722 187.161 789.38 185.407 786.165 183.392C783.17 181.513 780.105 179.699 777.204 177.745C764.921 169.448 758.842 158.984 758.77 146.418C758.746 142.06 759.076 137.748 760.313 133.492C760.455 132.995 760.617 132.5 760.81 131.878Z"/><path fill="#12D0D6" fill-opacity=".2" d="M607.575 172.407C607.847 171.294 607.994 170.153 608.415 169.077C609.209 167.062 611.058 166.054 613.816 165.8C621.493 165.09 629.155 164.273 636.826 163.531C638.341 163.384 639.929 163.163 641.384 163.372C642.328 163.508 643.577 164.279 643.794 164.939C644.01 165.604 643.415 166.803 642.664 167.202C641.242 167.959 639.515 168.525 637.812 168.793C632.219 169.675 626.595 170.426 620.961 171.133C619.507 171.315 619.184 171.734 619.099 172.847C618.745 177.315 618.562 181.817 617.612 186.22C616.33 192.123 614.487 197.957 612.682 203.779C612.259 205.145 611.296 206.555 610.057 207.577C609.213 208.275 607.45 208.65 606.141 208.6C604.548 208.534 603.772 207.345 603.487 206.173C603.291 205.395 603.183 204.571 603.278 203.786C604.567 193.313 605.902 182.846 607.225 172.378C607.333 172.383 607.454 172.395 607.575 172.407Z"/><path fill="#12D0D6" fill-opacity=".2" d="M829.2 141.661C830.835 141.896 832.814 142.128 834.753 142.496C835.207 142.582 835.725 143.08 835.853 143.457C836.713 145.911 837.487 148.379 838.254 150.846C838.434 151.432 838.498 152.044 838.638 152.767C839.151 152.64 839.549 152.586 839.898 152.451C845.448 150.368 851.386 149.483 857.48 149.09C860.883 148.871 863.381 149.938 864.675 152.359C866.208 155.238 867.594 158.158 868.963 161.087C869.521 162.271 870.261 162.732 872.058 162.583C875.463 162.301 878.916 162.327 882.348 162.217C882.951 162.198 883.551 162.163 883.808 162.152C883.833 157.96 883.858 153.884 883.884 149.629C887.187 150.103 889.991 150.506 893.175 150.963C893.444 155.245 893.781 159.643 893.94 164.041C893.968 164.827 893.412 165.699 892.861 166.407C891.719 167.87 889.831 168.054 887.931 167.189C887.096 166.805 886.016 166.496 885.077 166.536C881.53 166.697 877.989 166.976 874.467 167.315C873.41 167.417 872.346 167.777 871.391 168.168C869.063 169.112 866.908 168.951 865.394 167.232C863.851 165.494 862.634 163.575 861.434 161.67C860.369 159.974 859.493 158.21 858.594 156.453C858.132 155.552 857.388 155.191 856.175 155.455C851.696 156.418 847.093 157.131 842.778 158.408C836.276 160.338 833.163 159.167 831.986 153.872C831.097 149.818 830.139 145.765 829.2 141.661Z"/><path fill="#12D0D6" fill-opacity=".2" d="M737.374 150.427C735.867 155.843 731.625 161.137 724.246 164.769C713.326 170.144 699.476 167.567 693.865 159.046C692.792 157.412 692.298 155.486 691.948 153.65C691.605 151.873 692.809 150.487 694.432 150.065C696.032 149.655 697.743 150.197 699.123 151.674C700.229 152.863 701.154 154.148 702.253 155.337C707.457 160.988 715.626 161.813 722.254 157.116C728.931 152.385 731.253 146.419 729.134 139.626C728.649 138.06 727.321 136.538 725.946 135.268C723.716 133.214 723.4 131.298 725.571 129.982C727.687 128.696 730.72 129.258 732.56 131.277C737.43 136.632 739.201 142.906 737.374 150.427Z"/><path fill="#12D0D6" fill-opacity=".2" d="M322.037 127.679C319.205 126.992 317.23 125.361 317.076 123.373C316.92 121.332 318.685 119.482 321.515 118.906C334.86 116.194 348.221 113.527 361.57 110.826C367.568 109.611 373.529 108.296 379.546 107.147C381.025 106.863 382.729 106.843 384.208 107.093C386.005 107.398 387.079 108.52 387.239 109.98C387.404 111.446 386.513 112.534 384.892 113.257C384.26 113.536 383.558 113.737 382.856 113.905C368.959 117.22 355.064 120.55 341.146 123.808C337.272 124.715 333.316 125.399 329.405 126.206C328.406 126.411 327.447 126.76 326.444 126.954C324.993 127.232 323.513 127.436 322.037 127.679Z"/><path fill="#12D0D6" fill-opacity=".2" d="M315.799 249.068C309.327 246.584 305.033 242.279 300.133 238.457C295.666 234.972 290.788 231.793 285.98 228.577C283.656 227.022 282.766 225.372 283.868 223.671C284.949 222.003 287.484 221.141 290.199 221.911C292.225 222.488 294.332 223.298 295.864 224.432C301.001 228.214 305.842 232.223 310.894 236.072C314.021 238.45 317.31 240.703 320.547 242.997C321.62 243.758 322.509 243.696 323.663 242.858C325.618 241.437 327.762 240.149 329.969 238.971C330.918 238.462 332.227 238.143 333.385 238.104C336.589 237.998 338.509 240.446 337.039 242.639C336.706 243.13 336.233 243.602 335.714 243.981C330.769 247.588 325.82 251.184 320.818 254.746C319.935 255.374 318.864 255.902 317.775 256.306C316.354 256.831 314.872 256.787 313.68 255.866C312.551 254.995 312.437 253.885 313.056 252.843C313.795 251.618 314.77 250.468 315.799 249.068Z"/><path fill="#12D0D6" fill-opacity=".2" d="M222.047 233.712C220.76 234.79 219.182 235.731 218.248 236.966C214.9 241.357 211.782 245.85 208.564 250.302C206.894 252.609 205.39 254.998 203.476 257.175C200.963 260.032 197.351 261.616 192.738 261.609C187.155 261.599 182.863 258.33 183.423 254.426C183.527 253.717 183.927 252.924 184.529 252.402C185.129 251.886 186.132 251.523 187.019 251.413C187.289 251.377 187.919 252.377 188.148 252.959C188.749 254.499 189.406 256.009 191.818 256.298C194.171 256.578 195.904 255.622 197.074 254.21C198.523 252.468 199.715 250.6 201.018 248.784C204.644 243.757 208.191 238.691 211.93 233.712C213.948 231.021 216.887 229.039 220.885 228.155C226.272 226.968 229.559 228.831 229.666 233.131C229.693 234.261 229.65 235.396 229.642 236.526C229.635 237.909 230.515 238.871 232.28 238.992C234.398 239.138 236.542 239.034 238.677 238.992C239.955 238.969 241.231 238.841 242.517 238.788C243.871 238.734 244.168 239.406 243.721 240.166C243.366 240.775 242.756 241.417 242.027 241.756C238.831 243.241 235.417 244.236 231.575 244.054C226.477 243.807 223.031 241.267 222.587 237.335C222.465 236.229 222.526 235.107 222.501 233.994C222.346 233.898 222.196 233.807 222.047 233.712Z"/><path fill="#12D0D6" fill-opacity=".2" d="M642.095 220.265C643.088 218.31 644.138 216.062 645.378 213.883C646.233 212.379 648.527 211.519 650.806 211.931C652.381 212.215 653.929 212.776 655.316 213.435C660.07 215.688 664.765 218.011 669.423 220.371C670.947 221.145 672.495 221.991 673.663 223.041C676.076 225.216 674.901 227.806 671.362 228.692C670.505 228.907 669.731 229.319 668.912 229.63C665.021 231.116 661.17 232.666 657.222 234.048C655.981 234.483 654.474 234.568 653.075 234.636C646.479 234.973 641.92 231.897 641.664 226.825C641.555 224.764 641.916 222.692 642.095 220.265ZM652.012 221.991C652.027 224.07 651.947 225.84 652.111 227.591C652.145 227.961 653.012 228.55 653.553 228.586C657.101 228.847 660.366 228.011 663.94 226.892C659.864 225.217 656.168 223.703 652.012 221.991Z"/><path fill="#12D0D6" fill-opacity=".2" d="M832.577 161.74C837.56 162.573 841.964 164.03 845.537 166.725C850.148 170.21 850.023 174.419 845.103 177.639C841.11 180.251 836.376 181.215 831.194 180.75C828.891 180.546 826.601 180.207 824.321 179.853C818.975 179.016 815.266 175.666 815.391 171.853C815.403 171.522 815.396 171.183 815.513 170.872C817.261 166.33 823.79 159.754 832.577 161.74ZM830.941 174.145C831.063 174.068 831.185 173.99 831.307 173.913C831.857 173.913 832.405 173.949 832.952 173.906C834.565 173.778 836.36 173.582 836.883 172.257C837.424 170.886 835.913 170.056 834.671 169.286C834.294 169.052 833.846 168.888 833.411 168.725C832.096 168.224 830.8 168.207 829.651 168.972C828.484 169.75 827.543 170.788 828.242 171.929C828.779 172.799 830.018 173.416 830.941 174.145Z"/><path fill="#12D0D6" fill-opacity=".2" d="M994.691 165.564C994.53 167.914 994.548 170.321 994.151 172.684C993.803 174.758 991.516 175.761 987.958 175.742C986.179 175.729 984.4 175.748 982.631 175.642C976.964 175.298 971.521 176.07 966.192 177.503C965.383 177.719 964.529 177.834 963.692 177.968C960.828 178.428 959.384 177.354 958.871 175.003C958.701 174.233 958.792 173.38 959.034 172.616C960.253 168.776 961.555 164.957 962.872 160.998C973.306 162.492 983.872 164.01 994.691 165.564Z"/><path fill="#12D0D6" fill-opacity=".2" d="M585.052 189.289C584.155 192.964 583.615 196.11 582.557 199.15C581.968 200.83 580.643 202.4 579.387 203.884C578.401 205.047 577.194 205.064 576.383 203.849C575.114 201.944 573.641 199.919 573.366 197.861C572.3 189.935 571.658 181.964 573.165 174.011C573.444 172.529 573.984 171.047 574.695 169.654C575.765 167.551 578.094 166.491 580.739 166.644C583.364 166.794 585.43 168.137 586.149 170.322C587.403 174.149 586.894 178.012 586.361 181.862C585.99 184.541 585.424 187.197 585.052 189.289Z"/><path fill="#12D0D6" fill-opacity=".2" d="M622.828 198.336C623.912 193.889 624.985 189.435 626.089 184.991C626.435 183.603 626.757 182.197 627.344 180.865C628.091 179.154 630.039 178.356 632.096 178.694C634.186 179.036 635.421 180.345 635.229 182.177C634.025 193.572 631.662 204.837 628.679 216.023C628.209 217.784 627.079 219.482 625.99 221.101C624.922 222.686 623.275 223.263 621.658 222.898C619.631 222.438 619.11 221.164 619.193 219.781C619.336 217.333 619.474 214.875 619.987 212.465C620.982 207.762 622.224 203.095 623.366 198.413C623.193 198.388 623.014 198.362 622.828 198.336Z"/><path fill="#12D0D6" fill-opacity=".2" d="M191.378 134.787C189.879 135.237 188.6 135.688 187.266 135.998C181.17 137.416 175.698 135.287 173.937 130.606C171.919 125.233 173.128 119.937 175.489 114.796C175.771 114.176 177.198 113.599 178.178 113.502C179.622 113.361 180.651 114.249 180.778 115.308C180.944 116.796 180.789 118.306 180.712 119.806C180.595 122.061 180.2 124.33 180.341 126.575C180.616 130.831 183.032 131.839 187.906 129.876C189.424 129.264 190.858 128.519 192.324 127.837C195.582 126.323 198.669 127.232 199.504 130.094C200.016 131.832 200.125 133.639 200.4 135.417C200.654 137.055 200.95 138.688 201.12 140.335C201.281 141.875 202.329 142.707 204.239 143.055C205.332 143.255 206.38 143.585 207.72 143.925C205.583 146.118 203.188 147.422 199.956 147.391C196.847 147.362 194.649 145.942 193.718 143.805C192.718 141.506 192.292 139.051 191.651 136.66C191.506 136.068 191.474 135.467 191.378 134.787Z"/><path fill="#12D0D6" fill-opacity=".2" d="M516.598 231.44C517.187 229.305 518.448 226.929 521.066 225.107C522.756 223.928 524.69 223.165 527.048 223.224C530.548 223.314 532.457 225.639 531.048 228.089C530.902 228.348 530.724 228.597 530.541 228.841C526.566 234.14 527.457 240.779 532.758 245.382C534.309 246.725 536.107 247.67 538.487 248.007C540.894 248.348 542.144 249.484 542.05 250.913C541.957 252.279 540.443 253.329 538.091 253.552C534.592 253.884 531.384 253.106 528.395 251.794C519.881 248.066 514.671 239.312 516.598 231.44Z"/><path fill="#12D0D6" fill-opacity=".2" d="M1128.07 212.223C1131.69 212.743 1135.17 213.242 1138.77 213.76C1134.29 221.718 1129.12 229.162 1119.18 233.868C1115.74 235.493 1112.09 236.75 1108.07 237.112C1106.41 237.261 1104.62 237.109 1103.01 236.771C1100.92 236.333 1099.73 234.874 1099.76 233.367C1099.79 231.865 1101.09 230.614 1103.24 230.099C1104.47 229.805 1105.76 229.668 1106.99 229.358C1116.87 226.883 1123.59 221.893 1127.08 214.358C1127.4 213.695 1127.7 213.025 1128.07 212.223Z"/><path fill="#12D0D6" fill-opacity=".2" d="M51.2478 53.3731C45.3156 52.2301 39.093 50.0784 33.8798 46.4389C32.6275 45.5668 31.572 44.4798 30.6727 43.373C29.7452 42.241 29.7969 40.9854 31.1873 40.0227C32.5947 39.0464 34.1364 39.2679 35.5959 39.9955C36.1599 40.2774 36.6746 40.6208 37.1668 40.9716C40.8602 43.5948 45.1233 45.5178 49.6978 47.0945C54.2458 48.6674 58.8181 48.7589 63.5173 47.5687C68.1663 46.3871 72.0634 44.2837 75.6979 41.8466C77.4575 40.6674 79.1269 39.4065 80.9014 38.2505C82.5775 37.1597 84.1499 37.058 85.4205 37.8271C86.7446 38.6303 87.07 40.0034 85.9625 41.4137C85.054 42.5726 84.0594 43.83 82.6927 44.6113C78.4609 47.0154 74.2154 49.4756 69.6264 51.4268C64.2391 53.7177 58.2553 54.3376 51.2478 53.3731Z"/><path fill="#12D0D6" fill-opacity=".2" d="M51.0899 75.2973C51.7417 73.2455 53.2765 71.775 55.5 70.8368C57.6405 69.9289 59.8943 69.1483 62.1818 68.4835C70.3471 66.1109 78.768 64.6363 87.5425 64.7291C89.5385 64.7516 91.5903 65.0253 93.512 65.4652C96.0725 66.0497 97.3864 67.7974 96.8413 69.4682C96.3834 70.8661 95.1143 71.6139 93.2882 71.7689C80.6098 72.8485 68.2967 75.3069 55.9595 77.6668C55.4835 77.7569 55.0051 77.8573 54.5511 77.9981C51.9966 78.799 51.1476 78.3599 51.0589 76.1859C51.0497 75.8569 51.0829 75.5235 51.0899 75.2973Z"/><path fill="#12D0D6" fill-opacity=".2" d="M571.847 123.203C570.719 122.782 568.873 122.31 567.354 121.49C562.764 119.018 562.274 114.371 566.15 111.255C567.614 110.076 569.023 108.836 570.647 107.79C574.189 105.509 578.259 105.291 582.433 106.508C589.277 108.506 591.475 114.582 586.996 119.128C583.356 122.827 578.257 123.711 571.847 123.203ZM577.366 113.913C575.742 113.775 574.422 113.522 573.12 113.583C571.595 113.66 571.464 114.761 571.591 115.594C571.643 115.918 572.836 116.412 573.44 116.361C575.13 116.202 576.393 115.422 577.366 113.913Z"/><path fill="#12D0D6" fill-opacity=".2" d="M279.645 76.2804C278.822 80.5271 277.206 84.5594 274.771 88.4212C274.277 89.2063 273.677 89.4107 273.011 88.8976C272.137 88.2224 271.111 87.4092 270.896 86.5433C270.245 83.9662 269.749 81.3479 269.576 78.7285C269.198 73.1731 269.11 67.6119 268.802 62.0508C268.654 59.3028 270.073 57.4616 273.012 56.9749C276.014 56.4815 279.177 57.7815 279.938 60.3005C280.65 62.654 280.937 65.147 280.854 67.5713C280.75 70.4786 280.071 73.3772 279.645 76.2804Z"/><path fill="#12D0D6" fill-opacity=".2" d="M1076.85 183.01C1080.31 183.508 1083.32 183.898 1086.3 184.411C1086.78 184.496 1087.29 185.076 1087.47 185.509C1088.24 187.443 1088.77 189.437 1089.61 191.355C1091.68 196.09 1093.87 200.796 1095.99 205.523C1096.26 206.144 1096.69 206.83 1096.57 207.425C1096.39 208.281 1096.04 209.314 1095.27 209.859C1094.21 210.605 1092.79 210.169 1091.73 209.52C1091.02 209.085 1090.41 208.537 1089.85 207.981C1086.27 204.45 1083.72 200.475 1081.74 196.291C1080.17 192.968 1078.75 189.604 1077.39 186.227C1077 185.289 1077.04 184.253 1076.85 183.01Z"/><path fill="#12D0D6" fill-opacity=".2" d="M282.609 80.03C283.06 78.1819 283.347 76.2996 284.002 74.4913C284.866 72.1054 287.364 70.8579 290.167 71.1549C293.002 71.4566 295.145 73.1647 294.946 75.6145C294.629 79.4529 293.944 83.2755 293.214 87.0863C293.02 88.1048 292.236 89.1229 291.439 89.9914C290.146 91.4015 288.286 92.0642 285.99 91.7185C283.694 91.3729 282.261 90.2264 281.822 88.5304C281.493 87.2572 281.437 85.9069 281.581 84.6118C281.757 83.0729 282.278 81.5572 282.65 80.0307C282.636 80.0339 282.623 80.0319 282.609 80.03Z"/><path fill="#12D0D6" fill-opacity=".2" d="M763.199 178.39C762.163 177.982 760.11 177.407 758.401 176.459C754.989 174.573 754.466 171.106 757.146 168.605C758.455 167.383 759.99 166.25 761.651 165.305C765.247 163.254 769.658 163.724 772.712 166.318C776.016 169.129 776.166 172.036 773.065 174.798C772.071 175.685 770.961 176.514 769.816 177.29C768.168 178.406 766.158 178.804 763.199 178.39Z"/><path fill="#12D0D6" fill-opacity=".2" d="M128.146 52.4384C126.848 54.9151 126.461 57.7396 127.124 60.72C127.501 62.4176 125.391 63.3404 123.305 62.6128C118.233 60.8483 113.168 59.0848 108.084 57.3398C106.631 56.8404 105.25 56.2985 105.283 54.8659C105.32 53.4445 106.676 52.8467 108.173 52.433C112.657 51.1959 117.145 49.97 121.661 48.7958C122.565 48.561 123.597 48.5032 124.562 48.5204C127.288 48.5685 128.8 50.0962 128.146 52.4384Z"/><path fill="#12D0D6" fill-opacity=".2" d="M575.672 220.667C572.69 220.228 571.39 218.086 573.193 216.194C575.982 213.276 579.545 210.961 583.776 209.35C586.21 208.426 588.421 208.891 590.292 210.386C592.583 212.216 594.199 214.361 595.222 216.764C596.105 218.841 594.599 220.728 591.798 220.764C586.602 220.831 581.405 220.735 576.212 220.707C576.04 220.709 575.854 220.682 575.672 220.667Z"/><path fill="#12D0D6" fill-opacity=".2" d="M1199.87 227.04C1202.75 227.454 1205.1 227.791 1207.86 228.189C1207.05 230.808 1206.27 233.397 1205.44 235.972C1204.6 238.558 1203.7 241.134 1202.72 244.069C1204.58 243.507 1205.98 243.089 1207.73 242.564C1207.35 244.116 1207.62 246.005 1206.57 246.709C1204.29 248.211 1202.25 250.29 1198.92 250.519C1197.15 250.64 1195.85 249.819 1195.34 248.51C1195.03 247.715 1194.76 246.799 1194.95 246.007C1196.51 239.715 1198.19 233.441 1199.87 227.04Z"/><path fill="#12D0D6" fill-opacity=".2" d="M721.379 200.476C725.07 200.684 728.772 200.846 732.452 201.127C733.209 201.182 734.234 201.546 734.536 202.002C734.828 202.44 734.6 203.348 734.153 203.77C731.068 206.688 729.321 210.13 727.505 213.542C726.885 214.7 725.929 215.461 724.292 215.548C722.5 215.645 721.115 215.007 720.509 213.742C719.881 212.426 719.513 211.031 719.098 209.655C718.412 207.364 717.826 205.06 717.132 202.773C716.518 200.75 718.45 199.511 721.416 200.069C721.405 200.2 721.392 200.336 721.379 200.476Z"/><path fill="#12D0D6" fill-opacity=".2" d="M533.085 136.932C530.76 136.593 529.411 135.527 529.366 134.189C529.327 132.852 530.544 131.668 532.661 131.423C535.99 131.029 539.348 130.798 542.708 130.557C546.307 130.297 549.911 130.07 553.521 129.907C554.529 129.862 555.634 129.957 556.569 130.239C558.191 130.726 559.07 131.745 558.996 133.119C558.925 134.425 558.014 135.398 556.417 135.771C555.213 136.053 553.889 136.095 552.616 136.155C546.623 136.446 540.624 136.705 534.632 136.964C534.027 136.988 533.414 136.937 533.085 136.932Z"/><path fill="#12D0D6" fill-opacity=".2" d="M1125.84 237.319C1127.54 234.05 1129.2 230.715 1131.04 227.45C1131.53 226.579 1132.5 225.81 1133.45 225.169C1134.67 224.346 1136.17 224.33 1137.56 224.979C1138.93 225.613 1139.37 226.643 1139.01 227.802C1138.69 228.808 1138.27 229.798 1137.76 230.757C1135.05 236.005 1132.28 241.24 1129.56 246.488C1129.09 247.383 1128.3 247.48 1127.64 246.836C1126.92 246.119 1126.16 245.228 1126.06 244.368C1125.81 242.097 1125.89 239.8 1125.84 237.319Z"/><path fill="#12D0D6" fill-opacity=".2" d="M1159.2 205.084C1158.93 205.347 1158.45 205.885 1157.89 206.365C1155.27 208.599 1152.58 210.798 1150 213.052C1148.85 214.055 1147.6 214.689 1145.83 214.245C1144.12 213.82 1143.6 212.768 1143.44 211.503C1143.19 209.49 1142.86 207.477 1142.56 205.468C1142.31 203.863 1143.28 202.723 1145.28 202.488C1148.67 202.087 1152.07 201.73 1155.47 201.431C1157.91 201.221 1159.8 202.92 1159.2 205.084Z"/><path fill="#12D0D6" fill-opacity=".2" d="M805.139 138.199C803.262 139.578 801.626 140.701 800.107 141.909C797.341 144.112 794.735 146.448 791.873 148.568C790.706 149.431 789.102 150.199 787.549 150.42C786.551 150.562 784.852 149.832 784.277 149.115C783.691 148.386 783.56 146.893 784.166 146.24C786.936 143.262 790.038 140.468 792.996 137.59C793.764 136.839 794.613 136.628 795.868 136.84C798.8 137.341 801.763 137.714 805.139 138.199Z"/><path fill="#12D0D6" fill-opacity=".2" d="M52.915 64.1771C51.5634 63.0634 51.555 61.8574 52.8631 60.8933C54.1621 59.9386 55.6563 59.0012 57.2909 58.4752C61.9191 56.9841 66.8065 56.3758 71.8394 56.581C72.69 56.6186 73.5563 56.7325 74.3604 56.9326C75.7289 57.2719 76.7341 57.9447 76.7849 59.1463C76.8387 60.2796 75.9911 61.0192 74.7219 61.4287C73.6546 61.7721 72.5337 62.0813 71.3953 62.2084C65.833 62.8202 60.259 63.3669 54.6934 63.9359C54.1003 63.9986 53.5052 64.0981 52.915 64.1771Z"/><path fill="#12D0D6" fill-opacity=".2" d="M50.6813 216.608C50.5316 215.36 50.46 214.103 50.2177 212.869C49.5951 209.64 51.6412 208.048 55.8074 208.704C57.6552 208.996 59.496 209.43 61.252 209.957C63.629 210.674 64.2463 212.147 62.6924 213.667C60.3823 215.919 57.9438 218.106 55.3442 220.163C54.7404 220.636 53.1211 220.789 52.2484 220.532C50.8882 220.13 49.8959 219.179 50.0145 217.875C50.0543 217.458 50.2108 217.042 50.3117 216.629C50.4375 216.62 50.5621 216.617 50.6813 216.608Z"/><path fill="#12D0D6" fill-opacity=".2" d="M361.105 224.346C361.212 223.595 361.431 222.84 361.407 222.091C361.272 217.908 363.533 214.871 368.389 212.869C369.857 212.261 370.995 211.177 372.274 210.304C373.841 209.24 375.535 209.092 376.936 209.917C378.272 210.701 378.62 212.151 377.585 213.487C376.904 214.362 376.073 215.231 375.073 215.89C370.669 218.803 366.18 221.641 361.72 224.503C361.507 224.446 361.306 224.396 361.105 224.346Z"/><path fill="#12D0D6" fill-opacity=".2" d="M1004.9 242.698C1002.3 242.298 1001.45 241.161 1002.31 239.81C1003.14 238.507 1004.21 237.287 1005.23 236.066C1006.09 235.052 1007.09 234.102 1007.94 233.089C1009.25 231.539 1012.43 231.551 1013.38 233.304C1014.53 235.468 1015.35 237.752 1016.11 240.027C1016.49 241.186 1015.59 242.188 1014.06 242.306C1010.77 242.558 1007.46 242.6 1004.9 242.698Z"/><path fill="#12D0D6" fill-opacity=".2" d="M1102.12 196.012C1105.64 196.517 1108.54 196.887 1111.4 197.388C1111.97 197.485 1112.69 198.026 1112.83 198.459C1113.8 201.463 1114.77 204.471 1115.46 207.514C1115.74 208.705 1115.81 210.476 1114.01 210.814C1112.05 211.183 1111.01 209.623 1110.24 208.38C1109.07 206.511 1108.1 204.575 1106.88 202.73C1105.87 201.222 1104.6 199.829 1103.5 198.36C1103.03 197.738 1102.72 197.049 1102.12 196.012Z"/><path fill="#12D0D6" fill-opacity=".2" d="M220.708 190.113C221.386 188.404 221.993 186.678 222.762 184.992C223.288 183.847 224.45 183.258 226.087 183.457C230.334 183.977 233.158 186.163 235.682 188.561C236.771 189.594 235.862 190.616 234.147 190.85C230.732 191.316 227.35 191.956 223.928 192.42C223.053 192.538 221.854 192.492 221.231 192.112C220.614 191.738 220.538 190.839 220.226 190.171C220.381 190.156 220.544 190.137 220.708 190.113Z"/><path fill="#12D0D6" fill-opacity=".2" d="M801.817 168.482C800.135 168.219 798.879 167.557 798.361 166.241C797.765 164.734 798.023 163.313 799.434 162.152C801.386 160.551 803.909 160.021 806.654 160.41C809.314 160.787 810.814 162.926 809.681 164.893C808.288 167.303 805.606 168.994 801.817 168.482Z"/><path fill="#12D0D6" fill-opacity=".2" d="M190.35 92.7075C187.173 92.2246 185.37 90.4807 185.871 88.3702C186.431 86.0147 189.395 84.3533 192.286 84.7686C195.881 85.2851 198.039 87.265 197.434 89.4926C196.803 91.8274 193.739 93.2209 190.35 92.7075Z"/><path fill="#12D0D6" fill-opacity=".2" d="M525.49 115.448C528.011 115.774 529.611 117.251 529.293 118.949C528.916 120.945 526.029 122.517 523.311 122.211C520.808 121.926 519.174 120.137 519.65 118.187C520.066 116.455 522.923 115.117 525.49 115.448Z"/><path fill="#12D0D6" fill-opacity=".2" d="M671.134 204.985C668.365 204.551 666.725 202.983 667.219 201.242C667.75 199.347 670.007 198.213 672.476 198.61C675.25 199.051 677.063 200.754 676.561 202.447C676.041 204.184 673.526 205.361 671.134 204.985Z"/><path fill="#12D0D6" fill-opacity=".2" d="M1003.19 166.653C1005.13 166.933 1006.63 167.143 1008.12 167.368C1008.59 167.44 1009.05 167.543 1009.83 167.691C1009.15 169.603 1008.64 171.479 1007.81 173.268C1007.2 174.591 1005.56 174.931 1003.87 174.814C1002.63 174.733 1001.98 174.042 1002.11 173.145C1002.39 171.02 1002.8 168.907 1003.19 166.653Z"/><path fill="#12D0D6" fill-opacity=".2" d="M1111.15 219.685C1110.67 221.688 1108.76 222.761 1106.28 222.41C1104.05 222.095 1102.4 220.241 1102.8 218.502C1103.18 216.891 1105.89 215.315 1107.8 215.595C1110.14 215.936 1111.61 217.738 1111.15 219.685Z"/><path fill="#12D0D6" fill-opacity=".2" d="M716.511 241.15C715.739 243.554 714.019 244.517 711.355 244.044C708.963 243.616 707.296 241.934 707.741 240.392C708.234 238.682 711.608 237.312 714.115 237.804C716.216 238.217 717.074 239.407 716.511 241.15Z"/><path fill="#12D0D6" fill-opacity=".2" d="M1242.16 209.758C1241.79 211.169 1240.02 212.057 1238.17 211.769C1236.32 211.483 1235.46 210.55 1235.84 209.257C1236.28 207.736 1237.84 206.929 1239.76 207.221C1241.48 207.479 1242.48 208.542 1242.16 209.758Z"/><path fill="#12D0D6" fill-opacity=".2" d="M1409.25 255.292C1407.28 254.966 1406.14 253.862 1406.53 252.676C1406.88 251.621 1407.75 251.092 1409.23 251.331C1410.83 251.587 1412.16 253.025 1411.81 254.148C1411.46 255.276 1410.33 255.362 1409.25 255.292Z"/><path fill="#12D0D6" fill-opacity=".2" d="M219.539 105.427C218.128 105.203 217.221 104.1 217.511 102.969C217.801 101.806 218.969 101.08 220.163 101.315C221.562 101.585 222.777 103.007 222.472 104.004C222.16 105 220.849 105.636 219.539 105.427Z"/><path fill="#12D0D6" fill-opacity=".2" d="M1121.07 220.076C1120.86 219.781 1120.15 219.145 1120.31 218.962C1120.93 218.269 1121.73 217.343 1122.64 217.214C1123.67 217.072 1124.71 217.844 1124.42 218.908C1124.08 220.149 1122.77 220.102 1121.07 220.076Z"/><path fill="#12D0D6" fill-opacity=".2" d="M133.464 105.295C131.857 110.163 128.992 114.888 123.775 118.397C120.162 120.832 116.063 122.917 111.864 124.734C109.689 125.674 106.861 125.817 104.284 126.06C103.249 126.16 102.007 125.696 101.027 125.259C99.2456 124.47 98.7204 123.126 100.013 121.917C101.828 120.227 103.873 118.64 106.104 117.275C108.976 115.51 112.192 114.086 115.131 112.384C121.138 108.908 125.146 104.543 125.421 98.5111C125.511 96.5055 126.477 95.6456 128.177 95.4143C129.935 95.1753 131.711 95.9589 132.73 97.5321C134.289 99.9385 134.035 102.475 133.464 105.295Z"/><path fill="#12D0D6" fill-opacity=".2" d="M94.1784 129.058C93.8036 130.51 91.811 131.46 89.8552 131.132C88.039 130.823 86.942 129.54 87.3355 128.18C87.7465 126.749 89.5933 125.804 91.471 126.058C93.3209 126.313 94.5396 127.662 94.1784 129.058Z"/><path fill="#12D0D6" fill-opacity=".2" d="M1391.18 232.488C1393.34 233.237 1395.69 233.781 1397.62 234.797C1399.05 235.551 1400.29 236.792 1400.97 238.027C1402.37 240.558 1400.52 243.098 1397.01 243.655C1395.42 243.908 1393.68 243.939 1392.08 243.761C1376.75 242.045 1366.72 250.137 1361.15 257.326C1360.47 258.191 1360.73 259.48 1360.56 260.571C1360.51 260.923 1360.6 261.497 1360.39 261.572C1359.99 261.72 1359.36 261.678 1358.91 261.544C1356 260.672 1354.56 258.88 1353.97 256.628C1353.22 253.768 1354.14 251.098 1355.77 248.554C1359.26 243.13 1364.38 238.825 1371.04 235.612C1377.2 232.63 1383.93 231.858 1391.18 232.488Z"/><path fill="#12D0D6" fill-opacity=".2" d="M1406.75 302.708C1409.24 293.914 1413.33 285.538 1417.88 277.273C1419.62 274.109 1421.15 270.872 1422.84 267.691C1425.03 263.557 1428.29 259.993 1432.77 257.134C1436.42 254.809 1440.67 253.518 1445.38 253.201C1451.34 252.8 1456.08 254.516 1459.48 258.286C1463.1 262.299 1464.7 266.852 1464.58 271.659C1464.22 284.718 1459.78 296.926 1450.38 307.867C1445.64 313.384 1439.39 317.898 1431.86 321.212C1427.69 323.049 1423.18 324.081 1418.32 323.964C1411.82 323.808 1406.84 320.772 1405.74 315.858C1405.18 313.341 1405.33 310.7 1405.5 308.13C1405.61 306.311 1406.3 304.515 1406.75 302.708ZM1453.1 285.513C1454.56 279.641 1455.04 275.478 1454.2 271.272C1453.64 268.523 1452.5 265.939 1450.16 263.79C1449.44 263.126 1448.07 262.28 1447.21 262.405C1444.61 262.781 1442.1 263.573 1439.58 264.262C1439.28 264.345 1439.07 264.771 1438.93 265.068C1437.44 268.156 1436.16 271.318 1434.45 274.326C1428.97 283.912 1423.38 293.467 1419.22 303.453C1418.1 306.136 1417.12 308.89 1416.58 311.671C1415.76 315.84 1417.44 316.873 1422.9 316.014C1426.81 315.398 1430.02 313.772 1433 311.833C1444.38 304.442 1450.65 294.843 1453.1 285.513Z"/><path fill="#12D0D6" fill-opacity=".2" d="M1608.7 260.733C1605.29 265.618 1601.82 270.229 1598.8 275.016C1595.32 280.53 1592.28 286.202 1588.98 291.778C1588.3 292.928 1587.47 294.055 1586.47 295.059C1584.83 296.71 1582.39 297.242 1580.27 296.615C1578.16 295.984 1577.13 294.525 1577.06 292.406C1577.04 291.838 1576.64 291.02 1576.07 290.758C1573.03 289.36 1569.94 288.013 1566.75 286.841C1564.94 286.173 1562.89 286.402 1561.35 287.407C1559.07 288.892 1556.94 290.526 1554.85 292.17C1554.34 292.572 1554.05 293.249 1553.97 293.823C1553.82 294.833 1553.09 295.172 1551.93 295.301C1549.33 295.589 1546.71 294.329 1546.23 292.183C1545.95 290.944 1546.09 289.526 1546.59 288.325C1549.08 282.421 1556.97 277.889 1564.54 277.868C1568 277.857 1571.2 278.671 1574.25 279.838C1576.87 280.843 1579.42 281.945 1582.19 283.083C1582.71 282.285 1583.22 281.497 1583.73 280.71C1588.14 273.971 1592.56 267.24 1596.93 260.486C1597.58 259.485 1598.3 259.15 1599.8 259.423C1602.73 259.961 1605.71 260.304 1608.7 260.733Z"/><path fill="#12D0D6" fill-opacity=".2" d="M1544.7 284.733C1541.29 289.618 1537.82 294.229 1534.8 299.016C1531.32 304.53 1528.28 310.202 1524.98 315.778C1524.3 316.928 1523.47 318.055 1522.47 319.059C1520.83 320.71 1518.39 321.242 1516.27 320.615C1514.16 319.984 1513.13 318.525 1513.06 316.406C1513.04 315.838 1512.64 315.02 1512.07 314.758C1509.03 313.36 1505.94 312.013 1502.75 310.841C1500.94 310.173 1498.89 310.402 1497.35 311.407C1495.07 312.892 1492.94 314.526 1490.85 316.17C1490.34 316.572 1490.05 317.249 1489.97 317.823C1489.82 318.833 1489.09 319.172 1487.93 319.301C1485.33 319.589 1482.71 318.329 1482.23 316.183C1481.95 314.944 1482.09 313.526 1482.59 312.325C1485.08 306.421 1492.97 301.889 1500.54 301.868C1504 301.857 1507.2 302.671 1510.25 303.838C1512.87 304.843 1515.42 305.945 1518.19 307.083C1518.71 306.285 1519.22 305.497 1519.73 304.71C1524.14 297.971 1528.56 291.24 1532.93 284.486C1533.58 283.485 1534.3 283.15 1535.8 283.423C1538.73 283.961 1541.71 284.304 1544.7 284.733Z"/><path fill="#12D0D6" fill-opacity=".2" d="M1266.86 322.997C1265.11 321.932 1263.4 321.063 1261.97 319.985C1257.04 316.296 1256.43 311.062 1260.38 306.72C1263.26 303.545 1267.25 301.498 1271.94 300.238C1277.09 298.853 1282.41 298.143 1287.86 298.309C1296.44 298.568 1298.37 301.108 1300.25 305.663C1301.64 309.018 1303.68 311.964 1307.04 314.243C1311.58 317.321 1316.4 320.164 1321.08 323.125C1322.03 323.72 1322.98 324.333 1323.74 325.06C1325.71 326.956 1325.27 328.42 1322.84 329.841C1310.9 336.791 1296.91 339.716 1282.6 342.02C1275.84 343.11 1268.97 343.608 1262.1 342.864C1259.48 342.582 1256.77 341.998 1254.44 341.054C1249.2 338.939 1248.02 334.69 1251.43 330.963C1254.68 327.404 1259.3 325.208 1264.5 323.666C1265.22 323.444 1265.97 323.244 1266.86 322.997ZM1309.59 328.375C1308.96 328.11 1308.49 327.91 1308.01 327.709C1302.54 325.455 1297.7 322.597 1293.63 318.996C1289.71 315.526 1286.97 311.651 1286.86 306.916C1286.86 306.794 1286.71 306.672 1286.55 306.427C1282.94 306.558 1279.36 307.07 1276.14 308.367C1274.14 309.173 1272.26 310.34 1270.72 311.625C1269 313.063 1269.12 314.661 1270.89 316.078C1272.45 317.322 1274.29 318.373 1276.12 319.396C1277.45 320.142 1278.99 320.666 1280.37 321.36C1281.69 322.026 1282.43 322.998 1282.13 324.255C1281.84 325.445 1280.79 326.145 1279.33 326.458C1278.44 326.647 1277.53 326.749 1276.62 326.867C1270.72 327.625 1265.75 329.728 1261.62 333.018C1260.88 333.605 1260.3 334.303 1259.65 334.954C1261.69 336.051 1264.45 336.575 1268.72 336.676C1283.12 337.016 1296.31 333.685 1308.96 328.798C1309.12 328.73 1309.24 328.615 1309.59 328.375Z"/><path fill="#12D0D6" fill-opacity=".2" d="M1367.07 270.506C1371.72 271.175 1376.37 271.806 1381.01 272.536C1382.17 272.719 1383.38 273.088 1384.34 273.611C1388.64 275.946 1392.42 278.736 1395.17 282.186C1396.5 283.84 1397.39 285.754 1398.03 287.642C1398.39 288.703 1398.12 290.012 1397.65 291.087C1396.87 292.929 1394.99 293.426 1392.85 292.421C1391.4 291.742 1390.11 290.839 1388.81 289.985C1385.02 287.518 1381.49 284.77 1377.44 282.587C1367.87 277.424 1357.53 276.492 1346.72 280.219C1344.89 280.848 1343.09 281.651 1341.55 282.63C1340.5 283.298 1339.74 284.362 1339.21 285.359C1338.57 286.557 1338.08 286.829 1336.52 286.22C1333.17 284.904 1331.28 281.763 1332.74 279.002C1333.68 277.229 1335.2 275.504 1336.98 274.147C1340.6 271.381 1345.11 269.614 1350.05 268.563C1350.95 268.371 1352 268.373 1352.93 268.497C1357.65 269.132 1362.35 269.829 1367.07 270.506Z"/><path fill="#12D0D6" fill-opacity=".2" d="M1112.4 314.607C1113.16 311.17 1114.74 307.957 1117.41 305.138C1118.62 303.86 1120.07 302.624 1121.73 301.716C1122.99 301.02 1124.75 300.586 1126.31 300.54C1129.24 300.454 1130.7 302.504 1129.7 304.548C1127.87 308.284 1125.9 312.012 1124.62 315.865C1123.71 318.599 1123.77 321.535 1123.54 324.387C1123.42 325.828 1123.99 327.141 1125.29 328.286C1126.44 329.29 1126.11 329.861 1124.41 330.087C1120.31 330.634 1117.04 329.525 1114.63 326.98C1111.65 323.836 1111.57 320.215 1111.95 316.549C1112.01 315.898 1112.24 315.255 1112.4 314.607Z"/><path fill="#12D0D6" fill-opacity=".2" d="M1217.64 305.53C1220.45 305.342 1223.18 304.963 1225.91 305.022C1229.76 305.105 1233.04 306.369 1235.43 308.757C1237.5 310.831 1237.48 313.353 1235.51 315.464C1231.88 319.345 1222.86 321.669 1216.95 320.244C1210.37 318.659 1206.33 313.956 1206.72 308.321C1207.08 303.11 1209.87 298.575 1213.51 294.304C1217.71 289.38 1222.86 285.164 1229.78 282.48C1231.71 281.728 1234.07 281.3 1236.24 281.284C1238.85 281.263 1240.66 282.876 1240.88 284.667C1241.07 286.263 1239.47 288.057 1237.23 288.703C1236.85 288.812 1236.28 288.936 1236 288.801C1234.53 288.067 1233.59 288.819 1232.58 289.414C1225.79 293.437 1221.14 298.683 1217.83 304.691C1217.73 304.862 1217.67 305.049 1217.62 305.232C1217.6 305.313 1217.63 305.407 1217.64 305.53ZM1227.96 313.111C1224.22 311.844 1220.67 312.064 1217.04 312.848C1218.91 315.901 1224.39 316.086 1227.96 313.111Z"/><path fill="#12D0D6" fill-opacity=".2" d="M993.165 296.507C992.197 297.683 991.407 298.806 990.413 299.805C989.382 300.846 988.318 301.94 986.975 302.709C983.891 304.464 980.408 303.858 978.188 301.452C976.758 299.899 975.972 298.216 975.813 296.328C975.174 288.542 976.144 280.872 978.681 273.32C979.239 271.651 979.824 269.986 980.469 268.102C979.735 268.319 979.279 268.412 978.867 268.58C974.269 270.483 969.657 272.362 965.101 274.318C963.61 274.96 962.236 275.771 960.854 276.556C958.314 278.003 955.721 278.202 953.507 277.07C951.356 275.963 950.401 274.097 951.444 271.795C952.583 269.269 953.945 266.759 955.658 264.443C960.462 257.946 967.209 252.617 973.74 247.161C979.917 241.998 986.408 237.102 994.535 233.757C998.64 232.069 1002.96 230.675 1007.22 229.227C1008.19 228.896 1009.36 228.742 1010.43 228.774C1011.82 228.81 1012.88 229.448 1013.16 230.556C1013.42 231.609 1012.82 232.431 1011.59 232.882C1003.1 235.986 996.317 240.803 990.106 246.019C983.939 251.2 978.352 256.791 972.525 262.21C972.07 262.637 971.7 263.112 970.955 263.935C971.957 263.635 972.426 263.491 972.898 263.358C977.854 261.988 982.777 260.529 987.781 259.276C990.865 258.504 993.953 260.253 994.11 262.823C994.196 264.304 993.851 265.829 993.453 267.294C991.889 273.115 990.226 278.916 988.616 284.73C988.465 285.263 988.446 285.82 988.313 286.758C989.54 285.93 990.373 285.336 991.249 284.791C995.04 282.445 998.797 283.143 1000.71 286.573C1001.8 288.526 1002.72 290.529 1003.83 292.47C1007.78 299.314 1014.09 304.502 1022.7 307.994C1026.98 309.736 1031.38 311.329 1035.72 312.978C1036.19 313.157 1036.7 313.267 1037.66 313.548C1034.66 306.987 1034.14 300.566 1035.78 293.889C1035.05 293.895 1034.54 293.916 1034.02 293.905C1032.18 293.874 1030.31 293.991 1028.51 293.775C1021.49 292.935 1017.5 289.529 1017.16 284.085C1016.85 279.174 1018.2 274.411 1019.69 269.684C1020.79 266.201 1022.17 262.775 1023.41 259.318C1023.71 258.499 1023.98 257.676 1024.2 256.841C1025.08 253.401 1024.58 252.805 1019.96 252.67C1017.53 252.601 1015.05 252.779 1012.64 253.056C1009.18 253.446 1005.76 254.044 1002.31 254.526C1001.47 254.643 1000.51 254.891 999.772 254.695C998.642 254.395 997.17 253.946 996.738 253.234C996.305 252.527 996.844 251.389 997.219 250.502C997.397 250.079 998.101 249.704 998.679 249.476C1005.83 246.655 1013.13 244.196 1021.43 244.517C1023.07 244.578 1024.74 244.802 1026.32 245.155C1032.8 246.6 1036.39 250.212 1035.81 255.371C1035.44 258.678 1034.17 261.926 1033.26 265.198C1031.82 270.318 1030.31 275.422 1028.91 280.547C1028.62 281.599 1028.67 282.706 1028.57 283.785C1028.45 285.042 1029.26 285.824 1030.83 285.928C1033.08 286.076 1035.35 286.128 1037.61 286.066C1038.11 286.054 1038.73 285.446 1039.05 285.005C1040.53 282.945 1041.86 280.822 1043.37 278.778C1043.91 278.062 1044.73 277.424 1045.58 276.908C1047.05 276.025 1048.76 275.912 1050.46 276.53C1052.17 277.151 1053.08 278.276 1053.01 279.708C1052.96 280.826 1052.62 281.946 1052.34 283.052C1051.09 287.957 1049.56 292.825 1048.66 297.763C1048.19 300.333 1048.61 303.036 1048.98 305.646C1050.04 313.154 1051.59 320.59 1054.8 327.778C1055.22 328.726 1055.28 329.839 1055.16 330.847C1054.84 333.496 1051.65 335.014 1048.63 333.74C1046.74 332.94 1044.85 331.649 1043.85 330.21C1042.31 327.997 1041.4 325.499 1040.49 323.065C1040.08 321.959 1039.6 321.526 1038.04 321.296C1021.64 318.94 1007.55 313.544 997.826 302.688C996.133 300.806 994.819 298.721 993.165 296.507Z"/><path fill="#12D0D6" fill-opacity=".2" d="M909.032 311.991C907.185 310.146 905.378 308.275 903.473 306.469C901.167 304.277 898.723 302.172 896.434 299.967C895.843 299.401 895.473 298.635 895.264 297.912C894.719 296.058 896.302 294.246 898.685 294.345C909.111 294.776 919.151 292.53 929.406 291.879C936.197 291.449 942.999 291.142 949.801 290.777C949.926 290.769 950.049 290.776 950.171 290.783C953.356 290.865 955.613 292.13 955.897 293.983C956.178 295.82 954.353 297.635 951.186 297.983C947.25 298.416 943.25 298.545 939.272 298.665C927.923 299.006 916.571 299.272 905.226 299.565C905.052 299.572 904.883 299.617 904.24 299.715C905.548 300.753 906.58 301.71 907.796 302.508C911.389 304.863 914.412 307.559 916.534 310.813C916.945 311.443 917.382 312.076 917.651 312.749C918.757 315.492 916.957 317.934 913.256 318.305C909.49 318.684 905.676 318.897 901.884 318.907C894.278 318.929 886.669 318.766 879.057 318.676C874.75 318.623 873.022 316.853 874.323 313.663C875.472 310.842 876.803 308.064 878.121 305.114C877.121 305.039 876.108 304.936 875.086 304.895C866.4 304.551 857.84 303.638 849.601 301.403C846.131 300.46 843.065 299.016 840.602 296.876C837.434 294.127 836.556 290.989 838.157 287.525C840.14 283.229 843.524 279.704 849.002 277.775C858.348 274.483 868.133 273.168 878.228 275.263C881.475 275.935 884.602 277.246 887.43 278.677C889.108 279.526 890.413 281.056 891.314 282.496C892.598 284.535 891.325 287.216 888.943 288.549C887.725 289.23 886.252 289.119 885.696 288.014C883.178 283.028 877.381 282.344 871.711 281.904C866.351 281.488 861.062 282.361 856.05 283.961C852.679 285.035 850.16 286.819 848.692 289.424C847.719 291.155 847.81 292.22 849.808 293.279C851.856 294.36 854.137 295.243 856.457 295.941C864.626 298.404 873.255 299.036 881.921 299.462C882.587 299.494 883.265 299.391 883.934 299.355C887.744 299.162 889.921 301.488 888.432 304.181C887.065 306.653 885.659 309.12 884.279 311.59C884.022 312.05 883.83 312.529 883.687 312.831C892.037 312.662 900.271 312.492 908.503 312.328C908.68 312.221 908.859 312.109 909.032 311.991Z"/><path fill="#12D0D6" fill-opacity=".2" d="M763.043 314.956C764.426 313.231 765.817 311.534 767.165 309.815C769.082 307.369 769.669 304.737 769.048 301.926C768.64 300.071 767.376 298.711 765.198 297.859C758.541 295.259 751.758 295.009 744.963 297.43C742.703 298.236 740.305 299.044 739.861 301.458C739.63 302.715 735.716 303.225 733.979 302.394C732.187 301.534 731.168 299.845 731.977 298.053C732.681 296.49 733.718 294.89 735.132 293.661C739.934 289.484 746.327 288.088 753.356 288.062C754.396 288.058 755.442 288.14 756.479 288.231C758.459 288.404 759.907 287.26 759.156 285.857C756.772 281.445 753.112 278.177 746.063 278.993C742.261 279.435 738.662 280.852 734.929 281.721C733.974 281.943 732.494 282.058 731.89 281.659C731.048 281.105 730.323 279.992 730.396 279.157C730.614 276.71 732.614 275.026 735.319 273.861C739.103 272.222 743.238 271.791 747.454 272.244C749.921 272.508 752.298 273.225 754.739 273.681C755.547 273.834 756.414 273.806 757.321 273.556C757.426 273.602 757.573 273.623 757.637 273.696C760.091 276.157 762.801 278.496 764.913 281.12C767.215 283.976 768.133 287.094 764.68 290.112C769.941 292.146 774.843 294.325 776.3 299.068C777.231 302.103 776.997 305.092 775.189 307.908C772.617 311.909 766.733 316.067 763.043 314.956Z"/><path fill="#12D0D6" fill-opacity=".2" d="M337.398 307.164C337.842 305.342 338.564 302.803 339.066 300.238C339.931 295.792 343.259 293.115 348.915 292.401C356.971 291.381 365.057 290.487 373.169 289.771C386.039 288.64 398.973 287.925 411.807 286.598C419.203 285.832 426.453 284.221 433.76 282.972C435.569 282.661 437.211 282.808 438.45 283.963C439.666 285.094 439.467 286.307 438.664 287.54C434.181 294.468 429.743 301.413 425.217 308.325C423.695 310.643 422.15 312.973 420.272 315.118C417.966 317.746 414.754 319.441 410.569 320.155C401.698 321.671 392.784 323.112 384.073 325.068C372.286 327.713 360.676 330.811 348.987 333.703C347.53 334.064 346.067 334.477 344.566 334.679C339.68 335.341 335.954 333.5 335.463 329.731C335.038 326.425 335.23 323.044 335.539 319.717C335.904 315.769 336.683 311.844 337.398 307.164ZM344.851 326.292C353.591 323.933 361.66 321.758 370.252 319.441C368.613 317.589 367.16 315.874 365.612 314.214C364.684 313.225 363.495 312.372 362.608 311.357C361.393 309.967 361.481 308.394 362.612 307.252C363.788 306.068 365.924 305.461 367.905 306.025C369.185 306.389 370.611 306.942 371.4 307.743C373.785 310.173 376.113 312.669 378.03 315.327C379.643 317.572 379.374 317.687 382.612 316.873C382.781 316.829 382.927 316.739 383.335 316.56C382.233 315.043 381.135 313.538 380.047 312.024C379.19 310.828 378.141 309.684 377.55 308.415C376.25 305.649 378.703 303.095 382.535 303.065C384.864 303.045 386.839 303.805 387.983 305.29C389.053 306.68 389.853 308.254 390.37 309.829C390.927 311.547 391.022 313.357 391.343 315.311C392.784 315.101 394.208 314.877 395.638 314.681C399.459 314.157 403.278 313.702 407.148 314.385C409.707 314.837 410.971 314.252 411.858 312.361C412.478 311.034 413.17 309.717 413.987 308.455C418.133 302.033 422.328 295.634 426.499 289.221C426.566 289.115 426.507 288.964 426.506 288.657C424.939 288.934 423.462 289.208 421.986 289.45C408.248 291.715 394.547 294.143 380.749 296.171C371.625 297.513 362.62 299.099 353.738 301.194C352.133 301.571 351.294 302.191 350.951 303.457C350.159 306.366 349.102 309.232 348.338 312.139C347.11 316.75 346.048 321.385 344.851 326.292Z"/><path fill="#12D0D6" fill-opacity=".2" d="M680.598 303.268C683.221 303.512 685.677 303.596 688.029 304.018C689.189 304.227 690.309 304.937 691.172 305.627C692.44 306.633 692.86 307.93 692.168 309.3C691.507 310.6 690.069 311.165 688.383 311.197C684.687 311.264 681.757 312.534 679.308 314.507C676.938 316.412 674.654 318.388 672.453 320.418C669.258 323.367 668.413 326.802 669.358 330.516C669.652 331.678 668.984 332.047 667.611 332.093C663.893 332.219 660.321 330.058 659.094 326.8C657.914 323.656 658.342 320.52 659.617 317.464C661.449 313.056 665.281 309.807 670.1 307.17C670.894 306.735 671.7 306.306 672.207 306.03C671.178 303.087 669.859 300.287 669.285 297.399C668.716 294.543 668.897 291.599 668.753 288.693C666.575 288.824 664.261 289.12 661.962 289.07C649.672 288.81 640.703 280.436 642.578 271.082C643.379 267.097 645.543 263.582 649.026 260.61C657.835 253.088 668.966 250.455 681.808 251.808C685.811 252.23 689.117 253.846 691.228 256.528C692.073 257.605 692.351 258.977 692.674 260.244C692.772 260.633 692.307 261.269 691.846 261.525C691.608 261.655 690.777 261.256 690.293 261.012C689.076 260.388 688.004 259.483 686.679 259.108C684.711 258.545 682.542 257.964 680.498 258.051C669.694 258.496 661.417 262.232 656.312 269.71C654.846 271.857 654.244 274.127 655.256 276.55C656.769 280.16 659.871 282.106 664.81 282.356C666.454 282.439 668.461 282.785 669.666 282.214C670.661 281.744 670.726 280.099 671.198 278.978C671.732 277.723 672.155 276.436 672.822 275.227C673.486 274.027 674.694 273.218 676.525 273.27C678.335 273.324 679.685 274.131 680.037 275.396C680.704 277.823 681.446 280.307 681.417 282.766C681.35 289.272 680.892 295.774 680.592 302.278C680.587 302.637 680.6 303.009 680.598 303.268Z"/><path fill="#12D0D6" fill-opacity=".2" d="M524.26 322.784C523.981 318.569 524.501 314.945 525.925 311.392C529.68 302.002 536.55 294.677 548.306 290.157C567.79 282.663 587.963 276.689 609.295 273.18C617.801 271.781 626.456 271.18 635.118 272.044C638.543 272.383 641.864 273.373 645.214 274.107C645.847 274.246 646.442 274.543 646.997 274.834C648.466 275.605 649.822 276.503 649.29 278.064C648.74 279.671 646.912 279.889 645.156 279.843C640.613 279.714 636.083 279.338 631.544 279.309C618.466 279.232 605.789 281.067 593.324 284.064C579.748 287.329 566.604 291.306 553.92 296.301C544.257 300.102 538.677 306.032 535.913 313.81C535.237 315.71 534.792 317.676 534.458 319.636C534.047 322.082 534.549 324.368 536.456 326.502C538.673 328.976 536.93 332.06 533.034 332.299C530.681 332.441 527.976 332.195 525.9 331.4C520.864 329.461 515.929 327.305 511.282 324.867C496.453 317.082 480.981 310.13 465.245 303.525C460.866 301.686 455.976 300.555 451.339 299.065C450.16 298.684 448.953 298.273 447.954 297.685C446.372 296.755 445.724 295.436 446.22 293.911C446.722 292.388 448.109 291.382 450.068 291.22C451.731 291.083 453.452 291.415 455.155 291.486C456.966 291.561 458.849 291.821 460.59 291.564C468.739 290.356 476.392 288.111 483.482 284.733C491.575 280.881 499.768 277.154 507.873 273.309C510.634 271.999 513.294 270.542 515.939 269.088C518.242 267.824 520.721 267.725 522.536 268.942C524.167 270.038 524.454 271.596 523.369 273.48C519.884 279.505 518.725 285.976 517.233 292.377C517.193 292.541 517.299 292.725 517.381 293.123C518.101 292.682 518.687 292.365 519.217 291.997C524.543 288.291 529.882 284.593 535.152 280.838C535.567 280.543 535.788 279.698 535.543 279.319C534.589 277.845 533.429 276.452 532.315 275.04C531.969 274.599 531.516 274.201 531.147 273.768C528.548 270.689 529.956 267.879 534.628 267.192C537.511 266.766 540.466 266.578 543.404 266.461C550.266 266.189 557.173 266.325 563.864 264.808C564.447 264.675 565.034 264.554 565.491 264.455C564.166 259.509 562.864 254.64 561.483 249.501C564.872 249.988 568.034 250.421 571.17 250.93C571.454 250.976 571.766 251.501 571.805 251.824C572.301 256.191 573.879 260.323 575.989 264.389C577.379 267.067 575.815 268.771 572.098 269.178C571.857 269.206 571.602 269.207 571.37 269.258C561.788 271.348 551.966 272.05 542.065 272.345C541.601 272.358 541.142 272.493 540.618 272.581C541.605 274.404 542.626 276.109 543.455 277.872C544.89 280.926 544.289 281.955 541.14 284.15C532.642 290.084 524.264 296.12 515.841 302.117C515.799 302.148 515.762 302.185 515.719 302.221C513.887 303.67 512.152 304.071 510.297 303.472C508.499 302.891 507.631 301.625 507.837 299.567C508.173 296.276 508.462 292.972 509.059 289.708C509.655 286.448 510.6 283.223 511.39 279.981C511.205 279.896 511.011 279.816 510.825 279.731C510.369 279.882 509.893 279.999 509.468 280.191C503.34 282.983 497.148 285.698 491.108 288.603C484.881 291.603 478.401 294.144 471.409 295.908C471.013 296.01 470.629 296.145 470.093 296.311C488.074 305.103 505.933 313.831 524.26 322.784Z"/><path fill="#12D0D6" fill-opacity=".2" d="M230.26 322.784C229.981 318.569 230.501 314.945 231.925 311.392C235.68 302.002 242.55 294.677 254.306 290.157C273.79 282.663 293.963 276.689 315.295 273.18C323.801 271.781 332.456 271.18 341.118 272.044C344.543 272.383 347.864 273.373 351.214 274.107C351.847 274.246 352.442 274.543 352.997 274.834C354.466 275.605 355.822 276.503 355.29 278.064C354.74 279.671 352.912 279.889 351.156 279.843C346.613 279.714 342.083 279.338 337.544 279.309C324.466 279.232 311.789 281.067 299.324 284.064C285.748 287.329 272.604 291.306 259.92 296.301C250.257 300.102 244.677 306.032 241.913 313.81C241.237 315.71 240.792 317.676 240.458 319.636C240.047 322.082 240.549 324.368 242.456 326.502C244.673 328.976 242.93 332.06 239.034 332.299C236.681 332.441 233.976 332.195 231.9 331.4C226.864 329.461 221.929 327.305 217.282 324.867C202.453 317.082 186.981 310.13 171.245 303.525C166.866 301.686 161.976 300.555 157.339 299.065C156.16 298.684 154.953 298.273 153.954 297.685C152.372 296.755 151.724 295.436 152.22 293.911C152.722 292.388 154.109 291.382 156.068 291.22C157.731 291.083 159.452 291.415 161.155 291.486C162.966 291.561 164.849 291.821 166.59 291.564C174.739 290.356 182.392 288.111 189.482 284.733C197.575 280.881 205.768 277.154 213.873 273.309C216.634 271.999 219.294 270.542 221.939 269.088C224.242 267.824 226.721 267.725 228.536 268.942C230.167 270.038 230.454 271.596 229.369 273.48C225.884 279.505 224.725 285.976 223.233 292.377C223.193 292.541 223.299 292.725 223.381 293.123C224.101 292.682 224.687 292.365 225.217 291.997C230.543 288.291 235.882 284.593 241.152 280.838C241.567 280.543 241.788 279.698 241.543 279.319C240.589 277.845 239.429 276.452 238.315 275.04C237.969 274.599 237.516 274.201 237.147 273.768C234.548 270.689 235.956 267.879 240.628 267.192C243.511 266.766 246.466 266.578 249.404 266.461C256.266 266.189 263.173 266.325 269.864 264.808C270.447 264.675 271.034 264.554 271.491 264.455C270.166 259.509 268.864 254.64 267.483 249.501C270.872 249.988 274.034 250.421 277.17 250.93C277.454 250.976 277.766 251.501 277.805 251.824C278.301 256.191 279.879 260.323 281.989 264.389C283.379 267.067 281.815 268.771 278.098 269.178C277.857 269.206 277.602 269.207 277.37 269.258C267.788 271.348 257.966 272.05 248.065 272.345C247.601 272.358 247.142 272.493 246.618 272.581C247.605 274.404 248.626 276.109 249.455 277.872C250.89 280.926 250.289 281.955 247.14 284.15C238.642 290.084 230.264 296.12 221.841 302.117C221.799 302.148 221.762 302.185 221.719 302.221C219.887 303.67 218.152 304.071 216.297 303.472C214.499 302.891 213.631 301.625 213.837 299.567C214.173 296.276 214.462 292.972 215.059 289.708C215.655 286.448 216.6 283.223 217.39 279.981C217.205 279.896 217.011 279.816 216.825 279.731C216.369 279.882 215.893 279.999 215.468 280.191C209.34 282.983 203.148 285.698 197.108 288.603C190.881 291.603 184.401 294.144 177.409 295.908C177.013 296.01 176.629 296.145 176.093 296.311C194.074 305.103 211.933 313.831 230.26 322.784Z"/><path fill="#12D0D6" fill-opacity=".2" d="M97.2603 311.784C96.9814 307.569 97.5009 303.945 98.9246 300.392C102.68 291.002 109.55 283.677 121.306 279.157C140.79 271.663 160.963 265.689 182.295 262.18C190.801 260.781 199.456 260.18 208.118 261.044C211.543 261.383 214.864 262.373 218.214 263.107C218.847 263.246 219.442 263.543 219.997 263.834C221.466 264.605 222.822 265.503 222.29 267.064C221.74 268.671 219.912 268.889 218.156 268.843C213.613 268.714 209.083 268.338 204.544 268.309C191.466 268.232 178.789 270.067 166.324 273.064C152.748 276.329 139.604 280.306 126.92 285.301C117.257 289.102 111.677 295.032 108.913 302.81C108.237 304.71 107.792 306.676 107.458 308.636C107.047 311.082 107.549 313.368 109.456 315.502C111.673 317.976 109.93 321.06 106.034 321.299C103.681 321.441 100.976 321.195 98.9002 320.4C93.8638 318.461 88.9287 316.305 84.2822 313.867C69.4533 306.082 53.9813 299.13 38.2455 292.525C33.8657 290.686 28.9759 289.555 24.3391 288.065C23.1595 287.684 21.953 287.273 20.9545 286.685C19.3724 285.755 18.7243 284.436 19.22 282.911C19.7223 281.388 21.1093 280.382 23.068 280.22C24.7313 280.083 26.4525 280.415 28.1549 280.486C29.9661 280.561 31.8492 280.821 33.5902 280.564C41.7395 279.356 49.3923 277.111 56.4822 273.733C64.5751 269.881 72.768 266.154 80.8729 262.309C83.6342 260.999 86.2937 259.542 88.9387 258.088C91.2419 256.824 93.7214 256.725 95.5361 257.942C97.1672 259.038 97.4544 260.596 96.369 262.48C92.884 268.505 91.7253 274.976 90.2327 281.377C90.1928 281.541 90.2992 281.725 90.381 282.123C91.1007 281.682 91.6871 281.365 92.217 280.997C97.5434 277.291 102.882 273.593 108.152 269.838C108.567 269.543 108.788 268.698 108.543 268.319C107.589 266.845 106.429 265.452 105.315 264.04C104.969 263.599 104.516 263.201 104.147 262.768C101.548 259.689 102.956 256.879 107.628 256.192C110.511 255.766 113.466 255.578 116.404 255.461C123.266 255.189 130.173 255.325 136.864 253.808C137.447 253.675 138.034 253.554 138.491 253.455C137.166 248.509 135.864 243.64 134.483 238.501C137.872 238.988 141.034 239.421 144.17 239.93C144.454 239.976 144.766 240.501 144.805 240.824C145.301 245.191 146.879 249.323 148.989 253.389C150.379 256.067 148.815 257.771 145.098 258.178C144.857 258.206 144.602 258.207 144.37 258.258C134.788 260.348 124.966 261.05 115.065 261.345C114.601 261.358 114.142 261.493 113.618 261.581C114.605 263.404 115.626 265.109 116.455 266.872C117.89 269.926 117.289 270.955 114.14 273.15C105.642 279.084 97.2642 285.12 88.8406 291.117C88.7986 291.148 88.7621 291.185 88.7189 291.221C86.8867 292.67 85.1519 293.071 83.2966 292.472C81.4986 291.891 80.6312 290.625 80.8374 288.567C81.1725 285.276 81.4624 281.972 82.0592 278.708C82.6547 275.448 83.5996 272.223 84.3903 268.981C84.2047 268.896 84.0111 268.816 83.8254 268.731C83.369 268.882 82.8935 268.999 82.4682 269.191C76.3397 271.983 70.1477 274.698 64.1085 277.603C57.8811 280.603 51.4012 283.144 44.4091 284.908C44.0129 285.01 43.6291 285.145 43.0934 285.311C61.0743 294.103 78.9334 302.831 97.2603 311.784Z"/></svg>