<svg xmlns="http://www.w3.org/2000/svg" width="1656" height="327" fill="none" viewBox="0 0 1656 327"><path fill="#09AFB4" d="M604.068 250.194C582.773 268.552 565.563 261.315 559.619 255.402L552.144 217.766L1112.35 134.43L1123.45 190.324L1122.43 189.461C1110.75 180.832 1082.46 170.151 1062.75 196.453C1043.03 222.755 1010.85 212.531 997.22 204.131C987.16 196.842 962.182 187.915 942.755 210.512C923.327 233.109 892.089 224.915 878.899 217.994C868.505 211.891 842.183 204.727 820.051 224.888C797.919 245.049 771.041 237.951 760.369 231.881C751.209 226.617 727.534 220.52 706.112 238.238C684.69 255.956 662.128 249.728 653.525 244.399C645.912 238.681 625.362 231.835 604.068 250.194Z"/><path fill="#09AFB4" d="M1160.2 176.41C1138.9 194.769 1129.15 195.34 1123.2 189.426L1095.09 142.128L1655.3 58.7925L1655.32 117.793C1643.65 109.164 1625.41 94.5132 1605.69 120.815C1585.98 147.117 1553.79 136.893 1540.17 128.493C1530.11 121.204 1505.13 112.277 1485.7 134.874C1466.27 157.471 1435.04 149.277 1421.85 142.355C1411.45 136.253 1385.13 129.089 1363 149.25C1340.87 169.411 1313.99 162.313 1303.32 156.243C1294.16 150.979 1270.48 144.882 1249.06 162.6C1227.64 180.318 1205.08 174.09 1196.47 168.761C1188.86 163.043 1181.49 158.052 1160.2 176.41Z"/><path fill="#09AFB4" d="M58.0344 292.577C35.6432 308.663 5.55976 332.202 0.5 325.5V240L552.841 176L561.392 256.143L515.973 237.256C515.962 234.703 498.135 238.787 478.437 256.143C454.092 277.592 430.29 262.706 418.134 252.57C409.276 243.984 385.689 239.111 364.63 259.716C343.572 280.321 331.5 288 301.548 282.176C288 278.5 267.889 260.686 244.5 278.5C221.111 296.314 198.951 274.416 184.5 278.5C166 281.467 175.944 282.579 153.5 298C131.056 313.421 118.095 299.002 110.423 292.577C103.742 285.875 80.4255 276.492 58.0344 292.577Z"/><path fill="#09AFB4" d="M1655.65 69.7925L0.49995 293L0.5 1L1655.62 0.292521L1655.65 69.7925Z"/><path fill="#12D0D6" fill-opacity=".2" d="M24.2199 271.791C24.8963 270.528 25.4223 269.213 26.2628 268.007C35.0287 255.517 45.6684 243.959 59.8487 234.285C63.3977 231.862 67.5383 229.894 71.5421 227.878C73.4476 226.915 75.6175 226.139 77.675 227.646C79.6205 229.069 79.8572 229.822 78.3831 232.359C75.9304 236.567 73.4363 240.766 70.9695 244.975C70.689 245.452 70.4848 245.944 70.5731 246.624C72.8801 245.32 75.1877 244.011 77.4952 242.701C78.0198 242.401 78.5007 242.044 79.051 241.77C81.6009 240.512 83.989 241.107 84.6217 243.22C85.3884 245.766 86.0751 248.333 86.7483 250.895C87.5707 254.022 89.1911 256.874 91.8831 259.258C95.3296 262.309 98.8802 265.308 102.63 268.149C104.005 269.192 106.096 269.719 107.859 270.484C108.659 270.832 109.444 271.185 110.237 271.539C105.349 271.553 100.468 271.567 95.58 271.581C94.1441 270.868 92.5327 270.287 91.3185 269.406C89.5107 268.092 88.0618 266.511 86.3162 265.14C82.3182 262.017 79.5371 258.388 78.5543 254.022C78.2152 252.516 78.1643 250.956 77.9622 249.209C76.9964 249.751 76.1903 250.25 75.3274 250.682C73.1846 251.756 71.1012 252.944 68.8224 253.819C65.6911 255.021 61.7582 253.028 62.0293 250.5C62.1062 249.794 62.3049 249.071 62.5991 248.385C64.1636 244.79 65.7771 241.201 67.3694 237.612C67.534 237.235 67.6914 236.858 67.8495 236.476C67.6819 236.382 67.5073 236.288 67.3393 236.2C66.8876 236.62 66.4889 237.076 65.9783 237.449C57.6778 243.585 50.4339 250.335 44.1968 257.631C40.2228 262.279 36.5269 267.046 32.7094 271.756C29.8788 271.775 27.0493 271.783 24.2199 271.791Z"/><path fill="#12D0D6" fill-opacity=".2" d="M284.957 271.044C285.332 270.54 285.721 270.037 286.082 269.528C288.733 265.821 291.473 262.135 293.952 258.376C294.477 257.579 294.294 256.418 294 255.534C293.551 254.206 293.598 253.018 294.897 251.9C296.234 250.75 297.94 250.369 299.836 250.572C303.503 250.97 306.201 253.359 306.488 256.466C306.784 259.699 305.264 262.702 303.143 265.56C301.755 267.437 300.025 269.195 298.453 271.005C293.954 271.018 289.456 271.031 284.957 271.044Z"/><path fill="#12D0D6" fill-opacity=".2" d="M307.324 270.98C309.592 267.917 310.994 264.679 312.095 261.348C312.669 259.609 314.734 258.614 316.738 258.724C318.834 258.838 320.507 260.089 320.345 261.874C320.215 263.261 319.771 264.748 318.923 266.022C317.769 267.758 316.1 269.327 314.652 270.964C312.212 270.966 309.771 270.973 307.324 270.98Z"/><path fill="#12D0D6" fill-opacity=".2" d="M134.523 51.0139C133.311 63.3509 126.704 74.3168 116.178 84.2211C102.635 96.9598 86.3992 107.257 66.3015 113.767C58.0606 116.438 49.5912 118.273 40.7083 117.78C31.6845 117.283 24.5004 114.556 19.4289 109.202C14.5362 104.041 12.478 98.0344 11.4402 91.7215C10.3899 85.3196 10.479 78.9092 13.0388 72.4708C14.8374 67.9394 17.8674 63.8282 21.9479 60.1065C29.5894 53.125 38.4191 47.1448 49.1475 42.9174C59.8091 38.7216 70.5865 34.7139 81.2793 30.5599C85.324 28.9889 89.3466 27.3552 93.2368 25.5597C97.9124 23.4009 101.217 20.3721 102.945 16.4897C103.58 15.0646 104.502 13.6857 105.033 12.2452C105.361 11.3599 105.33 10.3867 105.236 9.47651C105.133 8.44072 104.201 7.36019 105.981 6.51785C108.882 5.14379 110.511 5.1182 112.282 6.44748C114.23 7.9123 116.164 9.38762 117.991 10.9365C127.976 19.3797 133.203 29.4587 134.166 40.9575C134.445 44.29 134.409 47.66 134.523 51.0139ZM112.406 24.296C110.36 26.1804 108.617 28.0692 106.479 29.6661C104.334 31.2682 101.957 32.7821 99.3916 33.9773C95.1742 35.9359 90.7794 37.6858 86.3686 39.3834C76.0106 43.369 65.5918 47.2554 55.2152 51.2149C45.6396 54.8687 37.534 59.9624 30.2235 65.8126C25.0243 69.9771 21.6533 74.7486 21.0601 80.2499C20.7565 83.0346 20.8379 85.86 21.203 88.6061C21.9118 93.884 23.5467 98.9498 27.5635 103.313C30.4368 106.439 34.3069 108.495 39.5658 109.092C44.8106 109.689 49.9911 109.005 55.0228 107.536C80.0653 100.222 98.8412 87.4104 111.153 69.8768C121.763 54.7657 120.464 39.5683 112.86 24.8546C112.753 24.6509 112.557 24.4787 112.406 24.296Z"/><path fill="#12D0D6" fill-opacity=".2" d="M244.163 238.179C230.621 238.238 217.974 236.412 207.328 230.644C193.185 222.988 185.599 212.664 187.656 198.791C188.584 192.551 191.97 186.775 195.736 181.082C202.038 171.55 210.401 163.07 221.139 155.886C230.983 149.302 242.523 145.375 255.194 143.748C267.435 142.175 276.875 145.68 284.075 152.179C292.328 159.623 297.856 168.225 301.42 177.676C304.904 186.923 304.355 196.27 301.059 205.792C300.018 208.815 297.994 211.479 294.746 213.644C293.527 214.453 292.243 215.001 290.677 214.603C289.007 214.178 288.208 213.181 288.212 211.92C288.216 210.743 288.574 209.549 288.698 208.366C289.301 202.477 290.654 196.518 290.286 190.722C289.626 180.373 284.714 171.115 276.616 163.038C274.099 160.528 271.033 158.281 267.874 156.192C263.513 153.3 258.067 152.808 252.104 153.825C241.517 155.624 232.455 159.59 224.474 165.212C213.18 173.162 204.323 182.281 200.847 193.333C196.691 206.547 201.351 217.71 215.138 225.829C223.043 230.484 232.912 231.591 243.215 231.667C252.451 231.734 261.46 230.165 270.531 228.757C275.12 228.048 279.761 227.454 284.385 227.106C292.022 226.535 297.312 228.968 300.542 233.852C301.6 235.45 302.885 236.974 304.292 238.404C305.385 239.515 307.062 239.641 308.721 238.742C312.263 236.822 315.949 235.011 319.191 232.836C321.895 231.023 324.564 230.35 327.916 230.702C331.038 231.028 334.244 231.076 337.393 231.344C339.461 231.522 341.529 231.777 343.504 232.185C345.05 232.505 346.067 233.376 345.88 234.695C345.686 236.088 344.312 236.819 342.643 237.18C338.048 238.166 333.413 238.342 328.804 238.036C327.413 237.94 326.331 238.084 325.227 238.805C323.323 240.045 321.366 241.244 319.364 242.39C318.21 243.053 316.981 243.679 315.689 244.154C307.19 247.291 300.679 246.415 295.072 241.324C293.716 240.088 292.5 238.731 291.524 237.3C289.898 234.929 287.303 234.068 283.713 234.47C277.35 235.179 271.003 235.998 264.629 236.592C257.813 237.224 250.982 237.657 244.163 238.179Z"/><path fill="#12D0D6" fill-opacity=".2" d="M629.003 154.911C609.461 157.662 590.177 160.381 570.885 163.1C570.855 163.262 570.825 163.424 570.795 163.581C571.378 163.768 571.944 163.981 572.536 164.142C583.384 167.077 591.723 172.349 598.649 178.907C599.625 179.835 600.446 180.901 601.023 182.008C602.376 184.626 601.085 186.953 597.484 188.256C595.416 189.005 593.217 189.649 591.017 190.012C580.444 191.743 569.859 193.437 559.261 194.995C548.46 196.585 537.635 198.076 526.801 199.437C523.643 199.833 520.335 199.895 517.221 199.626C513.021 199.267 510.8 197.196 510.868 194.072C510.913 192.041 511.301 189.984 511.798 187.957C512.226 186.198 514.077 185.078 516.3 184.909C518.565 184.74 520.645 185.666 521.069 187.381C521.454 188.929 521.519 190.561 521.396 192.163C521.295 193.398 521.865 193.778 523.407 193.638C528.937 193.135 534.492 192.816 539.993 192.11C554.417 190.268 568.82 188.286 583.217 186.287C585.992 185.903 588.709 185.173 591.749 184.541C591.269 184.098 591.072 183.873 590.822 183.691C581.354 176.738 570.529 171.426 556.801 169.582C554.442 169.264 552.114 168.784 549.864 168.215C546.822 167.444 545.254 165.852 545.458 163.926C545.702 161.607 547.712 160.089 550.527 159.506C556.447 158.28 562.408 157.138 568.405 156.283C588.747 153.384 609.111 150.615 629.472 147.814C631.257 147.569 633.075 147.349 634.868 147.307C638.184 147.24 640.395 148.626 640.83 151.026C641.022 152.088 641.025 153.197 640.861 154.281C639.594 162.735 638.271 171.19 636.948 179.64C636.55 182.158 636.23 184.681 635.615 187.184C635.225 188.77 634.529 190.368 633.632 191.867C632.658 193.492 630.704 193.796 629.418 192.429C628.183 191.119 627.102 189.537 626.799 187.947C626.293 185.269 626.164 182.491 626.407 179.748C627.094 171.866 628.044 163.977 628.894 156.089C628.913 155.827 628.94 155.555 629.003 154.911Z"/><path fill="#12D0D6" fill-opacity=".2" d="M209.489 94.1681C210.746 85.1014 213.724 76.2181 217.208 67.3753C218.539 63.9911 219.634 60.5657 220.911 57.1713C222.563 52.7606 225.419 48.7598 229.653 45.2783C233.094 42.448 237.333 40.5521 242.198 39.5544C248.348 38.2914 253.552 39.3021 257.673 42.5398C262.056 45.9861 264.427 50.2597 265.03 55.0355C266.654 68.0133 263.896 80.742 255.768 92.9366C251.666 99.0864 245.846 104.461 238.497 108.836C234.432 111.26 229.888 112.937 224.802 113.527C218.006 114.316 212.348 112.035 210.451 107.331C209.48 104.921 209.231 102.285 209.018 99.7162C208.851 97.9009 209.306 96.021 209.489 94.1681ZM255.179 70.4166C255.803 64.3919 255.673 60.2008 254.148 56.1603C253.151 53.5206 251.563 51.1286 248.797 49.3417C247.94 48.7894 246.383 48.1503 245.51 48.3987C242.855 49.1494 240.358 50.2972 237.836 51.3458C237.534 51.4722 237.39 51.9227 237.288 52.2369C236.201 55.5105 235.357 58.8253 234.027 62.0525C229.779 72.3365 225.419 82.6052 222.607 93.0944C221.855 95.9118 221.246 98.7811 221.107 101.612C220.9 105.857 222.803 106.636 228.361 104.993C232.346 103.815 235.443 101.739 238.257 99.3865C248.987 90.4182 254.054 80.0062 255.179 70.4166Z"/><path fill="#12D0D6" fill-opacity=".2" d="M703.499 93.0039C707.942 92.269 712.386 91.5237 716.835 90.7993C719.386 90.389 721.933 89.9474 724.501 89.647C728.35 89.1965 731.003 90.6907 730.849 93.5325C730.694 96.3168 730.134 99.1284 729.442 101.904C728.331 106.344 726.792 110.755 725.787 115.2C725.324 117.242 725.372 119.398 725.761 121.406C726.36 124.502 729.022 126.399 733.152 127.12C737.149 127.815 741.241 127.84 745.379 127.116C753.704 125.669 760.983 122.645 766.97 117.944C772.597 113.533 774.699 108.289 774.164 102.613C773.765 98.3492 769.36 95.1281 763.541 94.836C762.112 94.7616 760.37 95.0701 759.098 95.6336C756.725 96.6817 754.582 98.0431 752.358 99.2896C751.632 99.6946 750.964 100.157 750.271 100.588C750.062 100.563 749.844 100.542 749.635 100.517C749.623 99.4911 749.4 98.4505 749.628 97.4399C751.064 91.1356 760.858 86.4189 769.249 88.0955C778.208 89.8909 783.611 94.182 784.595 101.181C785.666 108.802 782.664 115.78 774.959 121.469C762.587 130.599 748.083 134.743 731.445 132.3C722.508 130.991 717.379 126.574 717.608 119.75C717.762 115.192 719.187 110.572 720.206 105.991C720.828 103.2 721.773 100.434 722.544 97.6483C722.677 97.156 722.657 96.6433 722.728 95.9262C719.06 96.5437 715.646 97.171 712.215 97.6831C706.215 98.5742 700.215 99.4705 694.188 100.205C692.234 100.446 690.196 100.31 688.246 100.148C686.037 99.9611 684.323 99.1288 683.732 97.456C683.156 95.8407 683.965 94.3785 685.685 93.2904C687.752 91.9815 689.934 90.7246 692.25 89.6871C702.054 85.3002 710.989 80.1099 718.866 73.9022C725.522 68.6556 730.317 62.6504 733.126 55.9078C733.849 54.1737 734.129 52.3414 734.398 50.551C734.654 48.8863 735.781 47.6429 737.725 47.292C739.641 46.9463 741.863 47.5731 742.253 49.0634C742.746 50.9457 743.086 53.0117 742.559 54.9075C740.076 63.8573 733.837 71.5307 725.247 78.3108C718.881 83.3315 712.091 87.9977 704.549 92.038C704.138 92.259 703.779 92.5321 703.394 92.7791C703.421 92.8628 703.456 92.936 703.499 93.0039Z"/><path fill="#12D0D6" fill-opacity=".2" d="M527.724 79.2012C527.484 78.8408 527.329 78.5482 527.107 78.2925C520.931 71.2355 520.624 63.5338 525.517 55.5293C533.031 43.2579 546.244 35.7843 563.164 31.8008C570.303 30.1216 577.551 29.2636 584.744 30.5459C588.26 31.1743 591.383 32.2747 593.545 34.4348C595.959 36.8454 595.55 39.8397 592.599 41.7948C589.972 43.5396 587.338 43.1442 585.987 40.9294C585.598 40.2921 584.702 39.6981 583.809 39.4286C580.802 38.5162 577.564 38.7244 574.344 39.3197C569.46 40.2232 564.902 41.7642 560.786 44.0523C550.482 49.7855 543.259 57.1111 539.039 65.9665C537.673 68.8328 537.224 71.665 538.371 74.5135C538.791 75.5536 539.321 75.9132 540.934 75.558C544.729 74.7203 548.621 74.1231 552.384 74.9025C554.089 75.2534 555.78 75.8817 557.113 76.7047C558.886 77.7985 558.824 79.358 556.898 80.5304C553.986 82.3022 550.998 84.1318 547.697 85.4023C542.294 87.4795 536.634 89.1545 531.054 90.9392C525.716 92.6499 520.33 94.2717 514.98 95.9511C510.696 97.2977 506.338 98.3881 501.764 98.5844C499.982 98.6575 498.157 98.5948 496.442 98.3485C494.531 98.0714 494.03 97.1309 495.006 95.7781C495.718 94.7975 496.563 93.759 497.7 93.0598C501.171 90.9201 504.604 88.6707 508.423 86.9539C514.151 84.3734 520.199 82.2106 526.109 79.8704C526.617 79.6701 527.119 79.4541 527.724 79.2012Z"/><path fill="#12D0D6" fill-opacity=".2" d="M398.788 115.237C396.802 114.437 394.89 113.825 393.228 112.966C387.521 110.031 386.094 104.939 389.538 100.068C392.054 96.5073 395.904 93.9009 400.607 91.9722C405.759 89.8539 411.195 88.3784 416.907 87.7498C425.887 86.7612 428.29 88.994 430.947 93.2301C432.909 96.3484 435.486 98.9679 439.335 100.736C444.544 103.123 450 105.237 455.336 107.487C456.408 107.94 457.501 108.407 458.402 109.017C460.748 110.606 460.514 112.119 458.197 113.879C446.809 122.493 432.666 127.421 418.106 131.78C411.227 133.84 404.142 135.331 396.868 135.593C394.086 135.695 391.176 135.51 388.597 134.915C382.817 133.582 380.939 129.547 383.92 125.363C386.768 121.368 391.243 118.524 396.426 116.243C397.151 115.917 397.895 115.611 398.788 115.237ZM444.156 114.353C443.458 114.183 442.933 114.053 442.402 113.924C436.363 112.487 430.873 110.362 426.083 107.388C421.465 104.523 418.022 101.085 417.182 96.4144C417.159 96.2941 416.985 96.1952 416.78 95.976C413.038 96.6304 409.387 97.656 406.229 99.4075C404.262 100.496 402.48 101.925 401.073 103.42C399.501 105.094 399.869 106.657 401.934 107.803C403.751 108.807 405.825 109.581 407.887 110.329C409.388 110.874 411.078 111.167 412.621 111.655C414.102 112.121 415.015 112.977 414.894 114.265C414.781 115.484 413.792 116.329 412.312 116.852C411.418 117.168 410.483 117.401 409.553 117.65C403.518 119.258 398.658 122.061 394.854 125.918C394.178 126.605 393.677 127.381 393.095 128.121C395.393 128.909 398.351 129.026 402.823 128.506C417.882 126.752 431.119 121.539 443.568 114.863C443.718 114.773 443.823 114.642 444.156 114.353Z"/><path fill="#12D0D6" fill-opacity=".2" d="M690.746 215.727C689.063 215.162 687.694 214.632 686.248 214.233C679.026 212.245 671.613 210.549 664.598 208.257C658.632 206.306 653.105 203.695 647.412 201.341C646.44 200.941 645.597 200.378 644.744 199.852C638.064 195.753 637.282 190.779 643.29 185.445C651.669 178.012 662.425 173.58 675.084 172.215C676.849 172.027 678.771 172.403 680.455 172.817C682.174 173.241 683.031 174.379 682.969 175.787C682.907 177.2 681.897 178.26 680.189 178.95C678.811 179.509 677.452 180.24 675.853 179.533C675.595 179.419 675.089 179.535 674.72 179.615C666.369 181.538 659.039 184.799 653.061 189.687C650.083 192.124 650.22 192.673 653.579 194.531C659.969 198.066 667.1 200.693 674.586 202.865C680.416 204.554 686.272 206.19 692.036 207.974C694.15 208.627 696.201 209.48 697.994 210.511C702.311 212.984 702.472 216.573 698.003 219.364C694.582 221.499 690.692 223.357 686.708 224.818C677.332 228.246 667.328 230.08 657.372 231.997C642.363 234.887 627.379 237.887 612.374 240.802C610.363 241.195 608.291 241.547 606.252 241.647C603.032 241.808 601.607 239.985 603.377 237.887C604.363 236.718 605.735 235.494 607.307 234.831C610.399 233.529 613.655 232.212 617.004 231.6C628.548 229.49 640.156 227.599 651.771 225.781C660.965 224.342 670.207 223.055 679.094 220.507C682.442 219.545 685.595 218.123 688.809 216.874C689.411 216.647 689.911 216.232 690.746 215.727Z"/><path fill="#12D0D6" fill-opacity=".2" d="M124.96 161.714C127.732 161.575 130.305 161.301 132.822 161.377C134.063 161.416 135.339 161.956 136.344 162.513C137.82 163.325 138.456 164.548 137.944 166.004C137.454 167.387 136.041 168.155 134.289 168.432C130.446 169.034 127.585 170.717 125.334 173.026C123.155 175.256 121.076 177.544 119.092 179.873C116.212 183.256 115.857 186.779 117.409 190.317C117.894 191.425 117.254 191.887 115.83 192.132C111.973 192.797 107.919 191.176 106.141 188.13C104.43 185.189 104.397 182.024 105.258 178.813C106.494 174.184 109.992 170.412 114.612 167.102C115.373 166.555 116.148 166.014 116.635 165.668C115.112 162.904 113.309 160.324 112.268 157.548C111.238 154.804 110.977 151.864 110.382 149.009C108.132 149.455 105.764 150.084 103.36 150.368C90.5084 151.896 79.8772 144.91 80.4019 135.38C80.6266 131.318 82.3451 127.525 85.5216 124.078C93.5547 115.353 104.757 111.129 118.351 110.604C122.589 110.44 126.283 111.559 128.894 113.907C129.939 114.851 130.438 116.168 130.969 117.375C131.131 117.746 130.743 118.443 130.302 118.764C130.073 118.927 129.146 118.652 128.604 118.481C127.24 118.04 125.984 117.301 124.545 117.122C122.408 116.85 120.057 116.59 117.94 116.973C106.745 118.983 98.6871 123.883 94.509 132.027C93.3092 134.364 93.0289 136.699 94.4541 138.95C96.5836 142.303 100.115 143.779 105.303 143.309C107.029 143.152 109.174 143.204 110.344 142.463C111.309 141.853 111.124 140.215 111.446 139.037C111.81 137.718 112.055 136.382 112.565 135.089C113.073 133.805 114.209 132.828 116.126 132.614C118.021 132.404 119.552 133.007 120.112 134.209C121.179 136.513 122.332 138.865 122.678 141.302C123.604 147.752 124.121 154.254 124.802 160.736C124.852 161.092 124.922 161.458 124.96 161.714Z"/><path fill="#12D0D6" fill-opacity=".2" d="M487.687 158.587C481.259 158.584 476.01 158.243 471.28 156.666C468.356 155.691 465.479 154.464 463.122 152.912C457.093 148.947 455.76 143.833 459.31 138.035C461.426 134.581 464.264 131.339 466.712 127.973C468.84 125.041 471.059 122.126 472.871 119.101C473.862 117.445 474.209 115.581 474.626 113.795C474.871 112.743 474.772 111.822 472.958 111.283C471.26 110.786 470.781 109.343 471.106 107.908C471.417 106.552 473.137 105.39 475.203 105.029C478.592 104.438 481.912 105.685 483.537 108.213C485.002 110.49 485.481 113.005 484.681 115.519C483.632 118.835 482.369 122.166 480.606 125.343C478.43 129.258 475.613 133.002 473.147 136.845C472.211 138.297 471.412 139.801 470.697 141.31C469.884 143.023 470.324 144.587 472.098 145.67C473.651 146.623 475.307 147.618 477.187 148.13C487.799 151.02 498.476 150.461 508.856 145.894C511.458 144.751 513.847 143.049 515.754 141.275C519.22 138.047 518.528 135.464 514.186 133.394C513.72 133.17 513.231 132.962 512.734 132.77C508.046 130.973 505.487 131.326 501.493 134.309C498.981 136.184 495.729 135.969 494.155 133.791C492.985 132.172 493.136 130.429 494.177 128.705C496.698 124.517 501.407 122.515 507.084 122.106C516.115 121.457 523.41 123.849 528.325 129.141C532.563 133.697 532.122 138.737 528.087 143.783C525.206 147.386 521.076 150.114 516.236 152.21C506.933 156.255 497.06 158.487 487.687 158.587Z"/><path fill="#12D0D6" fill-opacity=".2" d="M131.256 237.388C130.375 237.866 129.826 238.124 129.343 238.434C126.827 240.058 124.299 241.672 121.836 243.338C117.887 246.013 112.289 245.694 109.976 242.409C108.947 240.947 108.38 239.175 108.236 237.474C107.728 231.531 109.694 225.728 112.417 220.006C116.979 210.412 123.189 201.315 130.885 192.779C141.996 180.461 154.395 168.851 170.031 159.324C175.02 156.285 180.282 153.492 185.516 150.688C186.689 150.056 188.256 149.654 189.67 149.514C191.905 149.293 193.669 150.549 193.737 152.082C193.804 153.699 192.333 154.839 189.877 155.144C189.34 155.213 188.768 155.419 188.306 155.661C156.883 172.145 135.799 194.074 122.844 220.253C119.84 226.327 118.13 232.533 118.215 239.042C118.655 238.81 118.997 238.647 119.312 238.463C122.874 236.407 126.45 234.356 129.98 232.274C130.476 231.979 130.96 231.517 131.115 231.088C131.99 228.673 132.622 226.217 133.615 223.828C134.572 221.518 135.869 219.264 137.028 216.989C137.168 216.717 137.308 216.444 137.489 216.182C138.475 214.72 140.133 214.045 141.927 214.354C143.666 214.652 144.596 215.832 144.24 217.424C143.728 219.744 143.033 222.058 142.619 224.378C141.621 229.974 140.523 235.577 139.87 241.178C139.266 246.354 140.412 251.359 142.258 256.225C142.526 256.941 143.425 257.509 143.637 258.225C143.886 259.072 144.033 260.087 143.621 260.889C143.096 261.916 141.563 262.182 140.291 261.888C139.184 261.634 138.136 261.151 137.264 260.598C134.895 259.098 133.583 257.061 132.684 254.856C130.828 250.308 130.433 245.574 130.912 240.732C131.025 239.727 131.123 238.738 131.256 237.388Z"/><path fill="#12D0D6" fill-opacity=".2" d="M708.612 160.9C712.215 160.858 715.712 160.471 719.106 159.331C720.364 158.909 720.96 158.316 721.349 157.31C722.125 155.33 723.057 153.344 724.274 151.467C725.225 150.005 726.99 149.037 729.309 148.973C732.302 148.886 734.01 150.628 733.244 152.802C732.162 155.877 731.079 158.962 730.242 162.062C728.99 166.718 732.278 169.728 739.15 170.744C747.229 171.935 760.872 167.333 763.615 158.686C764.6 155.59 763.427 153.004 761.452 150.518C760.088 148.796 761.068 147.396 763.886 147.079C767.018 146.724 769.335 147.754 771.069 149.45C774.062 152.371 774.731 155.765 773.451 159.479C770.521 168.017 760.856 174.293 748.258 175.898C741.719 176.733 735.554 176.223 729.791 174.214C726.12 172.937 723.282 171.02 721.759 168.193C721.346 167.43 720.828 167.301 719.734 167.503C700.62 171.069 685.879 166.386 674.208 156.32C669.992 152.685 668.612 148.121 669.733 143.141C671.974 133.208 679.221 125.569 690.978 120.088C692.142 119.546 693.448 119.071 694.758 118.832C695.91 118.624 697.243 118.594 698.322 118.837C700.245 119.271 700.625 121.154 699.304 122.204C693.386 126.92 687.923 131.896 684.743 137.881C683.509 140.208 682.527 142.702 682.259 145.125C682.061 146.916 682.587 149.028 683.854 150.448C689.551 156.852 697.591 160.717 708.612 160.9Z"/><path fill="#12D0D6" fill-opacity=".2" d="M346.979 249.045C344.888 248.664 344.796 247.445 345.043 246.163C345.688 242.864 347.548 239.85 350.109 237.048C353.345 233.502 356.696 230.007 360 226.486C360.364 226.093 360.708 225.694 361.24 225.107C359.929 224.985 358.887 224.867 357.842 224.787C345.665 223.848 333.46 223.057 321.08 223.317C317.239 223.396 313.371 223.82 309.514 224.135C307.967 224.265 306.492 224.301 305.558 223.309C304.579 222.271 305.471 221.331 306.106 220.267C307.875 217.327 309.779 214.375 310.901 211.321C312.816 206.109 314.202 200.82 315.741 195.552C315.967 194.766 315.879 193.94 315.824 193.139C315.701 191.444 316.348 189.987 318.498 189.05C320.656 188.112 322.754 188.274 324.696 189.158C325.271 189.423 325.842 189.73 326.279 190.106C333.175 195.962 342.307 199.222 352.414 201.281C364.566 203.758 376.992 205.256 390.008 204.276C396.976 203.754 403.311 201.91 408.853 198.425C410.761 197.221 412.614 197.153 413.771 198.248C414.832 199.25 414.412 200.706 412.521 201.737C406.398 205.093 399.651 207.174 392.286 207.99C380.868 209.247 369.821 208.4 358.905 206.799C347.132 205.069 335.678 202.758 325.271 198.507C325.013 198.403 324.691 198.367 324.491 198.321C321.143 205.149 317.821 211.924 314.448 218.794C314.872 218.793 315.492 218.817 316.104 218.784C331.403 217.96 346.587 218.168 361.696 219.062C361.822 219.072 361.949 219.071 362.075 219.087C365.303 219.554 367.782 219.018 369.614 216.511C371.061 214.529 373.632 214.061 375.742 214.893C377.764 215.687 378.574 217.438 377.052 219.311C373.815 223.297 370.54 227.314 366.71 231.009C361.081 236.446 354.956 241.608 349.058 246.899C348.338 247.529 347.752 248.237 346.979 249.045Z"/><path fill="#12D0D6" fill-opacity=".2" d="M614.867 122.357C615.301 122.832 615.726 123.255 616.091 123.709C617.727 125.761 619.605 127.723 620.896 129.901C622.339 132.336 621.932 134.88 619.255 137.138C618.182 138.041 616.876 138.599 615.262 138.326C613.635 138.048 612.814 137.125 612.799 135.989C612.751 132.965 610.49 130.873 608.136 128.787C606.596 127.415 604.914 126.111 603.604 124.624C600.532 121.148 602.379 117.772 608.05 116.49C612.81 115.414 617.651 115.081 622.447 115.501C627.032 115.902 630.298 117.703 632.462 120.637C635.262 124.428 638.11 125.095 643.964 123.462C648.407 122.224 652.343 120.329 655.908 117.954C661.344 114.333 663.296 110.037 661.808 105.054C660.585 100.971 657.801 97.6559 653.169 94.8017C653.088 95.6182 653.061 96.1049 652.992 96.5918C652.271 101.523 651.669 106.464 650.737 111.386C650.459 112.847 649.408 114.315 648.445 115.689C647.663 116.805 646.201 117.359 644.478 117.186C642.826 117.018 641.952 116.204 641.653 115.08C641.429 114.264 641.331 113.401 641.4 112.559C641.979 105.195 642.75 97.8247 643.181 90.4662C643.432 86.0647 648.822 84.1132 652.981 85.4722C665.564 89.591 674.615 98.3299 672.721 109.837C671.98 114.329 669.173 118.256 664.518 121.425C657.596 126.138 649.596 129.233 640.487 130.091C633.942 130.706 628.725 129.11 625.574 124.791C623.123 121.465 620.458 120.881 614.867 122.357Z"/><path fill="#12D0D6" fill-opacity=".2" d="M380.765 76.2158C377.991 67.0821 380.217 58.3684 384.713 49.8C386.071 47.2163 388.419 44.8549 390.46 42.4524C391.148 41.6446 392.232 40.9822 393.235 40.3409C394.586 39.4789 396.132 39.014 397.686 39.7421C399.268 40.4806 399.213 41.6791 398.555 42.8949C395.901 47.7899 393.762 52.7567 392.427 57.8886C390.805 64.1464 390.4 70.317 391.853 76.4352C392.193 77.8627 392.636 79.3214 392.472 80.7661C392.317 82.1846 391.615 83.6413 390.865 85.004C390.33 85.9788 389.19 86.1391 387.973 85.5669C387.527 85.3589 386.74 85.1676 386.336 85.3205C384.241 86.1219 382.425 85.7503 380.645 85.0908C369.436 80.9367 357.351 80.8615 344.917 83.2414C341.191 83.9532 337.556 85.387 334.157 86.8619C332.073 87.7679 330.512 89.3945 328.852 90.5975C323.946 88.7121 322.805 85.5234 323.227 81.8959C324.177 73.7144 330.393 67.7784 339.698 63.3509C341.843 62.3296 344.32 61.6632 346.728 61.0546C348.774 60.5359 350.971 60.6238 352.554 61.6396C353.431 62.2075 353.84 63.2267 354.191 64.1101C354.282 64.3348 353.409 64.871 352.897 65.1864C352.566 65.3862 352.008 65.3774 351.67 65.5772C346.626 68.5325 341.892 71.7118 338.482 75.8031C338.137 76.2175 337.845 76.6631 337.554 77.1035C337.438 77.2713 337.384 77.4651 337.085 78.1253C344.315 75.169 351.516 73.7146 359.064 73.5516C366.532 73.3994 373.742 74.0067 380.765 76.2158Z"/><path fill="#12D0D6" fill-opacity=".2" d="M175.163 253.284C175.604 248.61 180.9 243.326 186.909 241.556C195.365 239.067 204.023 243.84 202.59 250.255C202.067 252.611 200.452 254.567 197.324 255.591C196.527 255.855 195.279 255.895 194.644 255.594C194.191 255.381 194.23 254.412 194.389 253.81C194.613 252.972 195.139 252.16 195.58 251.347C196.185 250.231 196.238 249.19 195.211 248.282C194.137 247.338 192.679 247.206 191.051 247.441C187.823 247.905 183.353 251.848 184.974 254.905C185.868 256.587 187.044 258.07 189.19 258.969C193.434 260.751 197.963 261.508 203.127 260.561C209.522 259.392 215.136 257.178 220.112 253.846C230.079 247.162 241.864 244.192 254.57 243.355C259.766 243.011 264.835 243.525 269.592 244.835C274.762 246.259 277.486 249.543 276.697 253.297C276.511 254.182 276.089 255.083 275.535 255.901C274.567 257.317 273.202 257.399 272 256.178C271.492 255.661 271.075 255.092 270.627 254.544C268.997 252.571 266.575 251.604 263.35 251.399C252.126 250.693 241.688 252.911 231.907 257.57C228.271 259.302 224.917 261.399 221.201 263.006C209.713 267.973 197.978 269.362 186.127 265.702C179.223 263.576 174.68 258.382 175.163 253.284Z"/><path fill="#12D0D6" fill-opacity=".2" d="M606.2 206.043C606.384 204.175 606.635 202.426 606.716 200.678C607.075 192.896 607.391 185.114 607.701 177.332C607.724 176.673 607.562 176.019 607.493 175.36C607.296 173.487 608.222 172.208 610.252 171.553C612.32 170.882 614.922 171.247 615.981 172.688C616.803 173.821 617.472 175.211 617.4 176.509C616.956 184.438 616.334 192.367 615.656 200.302C615.45 202.673 614.897 205.05 614.472 207.422C613.886 210.699 612.094 212.306 607.656 213.056C602.442 213.94 597.181 214.651 591.933 215.372C575.2 217.681 558.725 221.093 542.234 224.447C540.034 224.893 537.882 225.558 535.777 226.25C535.046 226.487 534.556 227.148 533.881 227.542C533.408 227.821 532.811 228.132 532.263 228.17C529.054 228.373 526.846 226.385 527.524 223.961C528.028 222.149 529.536 220.705 531.55 219.716C534.806 218.116 538.115 216.474 541.644 215.328C551.324 212.192 561.477 210.488 571.647 208.978C582.779 207.324 593.933 205.869 605.178 206.151C605.424 206.161 605.685 206.102 606.2 206.043Z"/><path fill="#12D0D6" fill-opacity=".2" d="M489.197 174.286C488.63 174.371 488.016 174.436 487.417 174.558C474.894 177.189 462.643 176.722 450.61 174.69C441.407 173.136 437.642 169.238 438.32 162.161C438.681 158.366 439.495 154.565 440.054 150.769C440.244 149.492 440.392 148.21 440.375 146.943C440.341 144.641 442.34 142.589 445.165 142.199C448.248 141.772 450.982 143.015 451.217 145.431C451.438 147.707 451.071 150.063 450.708 152.377C450.2 155.649 449.298 158.917 448.868 162.188C448.386 165.847 449.383 166.922 454.02 167.945C466.333 170.652 478.846 171.338 491.57 167.1C498.048 164.941 502.062 167.405 501.006 172.656C498.592 184.693 496.855 196.765 494.835 208.827C494.558 210.486 494.267 212.146 493.905 213.806C493.786 214.366 493.62 215.036 493.129 215.425C492.285 216.092 491.207 216.911 490.164 217.019C489.457 217.094 488.317 216.177 487.966 215.508C487.405 214.458 487.227 213.249 487.087 212.088C485.645 200.062 486.671 187.966 489.193 175.835C489.273 175.458 489.332 175.076 489.383 174.699C489.392 174.61 489.308 174.526 489.197 174.286Z"/><path fill="#12D0D6" fill-opacity=".2" d="M140.442 108.248C139.501 108.251 138.808 108.258 138.122 108.255C125.616 108.218 121.085 100.758 123.716 93.315C125.198 89.1193 128.308 85.5626 132.697 82.5831C139.443 78.0008 147.02 74.5411 155.759 72.7684C157.383 72.4393 159.093 72.2303 160.732 72.2465C163.411 72.265 165.268 73.7982 165.061 75.5256C164.87 77.1012 162.205 79.0292 159.989 79.1978C159.796 79.214 159.528 79.2775 159.422 79.2098C157.666 78.0898 156.091 79.2089 154.559 79.7523C148.874 81.757 143.894 84.5551 139.391 87.8332C136.183 90.1657 133.863 92.8935 132.943 96.1195C131.994 99.424 133.875 101.423 138.288 101.85C139.353 101.951 140.46 101.917 141.544 101.966C143.305 102.039 144.623 101.727 145.804 100.431C147.835 98.2065 151.351 97.7569 153.745 99.1524C156.226 100.6 156.247 103.321 153.902 105.358C153.191 105.972 152.566 106.717 152.223 107.466C148.769 115.153 145.454 122.865 141.924 130.536C140.815 132.956 139.219 135.29 137.784 137.643C137.413 138.251 136.866 138.849 136.237 139.343C134.443 140.756 131.935 140.517 131.172 138.787C130.74 137.799 130.688 136.674 130.66 135.597C130.502 129.616 133.041 123.884 135.586 118.168C136.814 115.407 138.271 112.687 139.623 109.951C139.872 109.443 140.104 108.951 140.442 108.248Z"/><path fill="#12D0D6" fill-opacity=".2" d="M760.568 68.3877C761.209 68.3388 761.463 68.3433 761.709 68.2956C768.344 66.9893 774.979 65.683 781.593 64.3768C781.627 64.2406 781.709 64.1253 781.659 64.0626C780.577 62.7 780.208 61.283 781.677 59.8031C783.147 58.3128 785.231 57.972 787.434 58.0755C791.833 58.2879 796.211 58.6365 800.626 58.7599C802.438 58.8122 804.349 58.587 806.146 58.2208C810.287 57.3874 813.353 59.2781 812.366 62.3264C810.173 69.13 807.876 75.9182 805.579 82.7012C805.249 83.6807 804.764 84.6501 804.191 85.5779C803.416 86.836 802.062 87.5882 800.177 87.6302C798.313 87.6722 796.911 87.043 796.355 85.8045C795.867 84.7279 795.589 83.5356 795.605 82.3739C795.669 76.9264 797.099 71.5536 799.264 66.2414C799.451 65.7856 799.644 65.3297 799.858 64.8111C797.22 64.8187 794.746 64.8048 792.259 64.859C791.926 64.8652 791.413 65.1859 791.253 65.4428C789.715 67.917 786.834 69.0137 783.61 69.7922C777.365 71.3014 771.109 72.7844 764.887 74.3459C761.464 75.2034 758.075 76.155 754.709 77.1484C752.131 77.9041 749.716 78.089 747.735 76.6661C745.827 75.2954 746.017 73.5157 747.107 71.791C750.183 66.921 753.41 62.1028 756.521 57.2431C757.793 55.2563 758.961 53.2383 760.067 51.2101C761.18 49.1714 763.133 48.0878 765.536 48.3164C768.009 48.55 769.558 50.0526 769.133 52.2097C768.848 53.66 768.257 55.1321 767.491 56.5157C765.582 59.9382 763.495 63.3193 761.49 66.7159C761.187 67.2034 760.94 67.696 760.568 68.3877Z"/><path fill="#12D0D6" fill-opacity=".2" d="M716.115 189.522C730.513 189.952 740.162 193.703 748.092 199.833C751.758 202.664 754.558 205.963 756.571 209.636C758.202 212.599 757.244 213.695 753.215 215.187C750.799 216.084 748.528 216.101 746.125 216.375C743.521 216.67 740.873 217.201 738.389 217.94C729.676 220.524 713.942 216.226 709.983 209.628C708.313 206.849 706.475 204.123 704.444 201.497C703.195 199.889 701.549 198.439 699.869 197.057C698.371 195.826 698.494 194.078 700.731 193.413C706.487 191.695 712.035 189.152 716.115 189.522ZM711.022 195.188C713.286 198.102 715.516 200.942 717.701 203.803C718.985 205.479 720.062 207.255 721.457 208.874C722.98 210.638 724.995 212.144 727.915 212.586C731.127 213.069 734.442 213.3 737.714 213.61C738.099 213.645 738.522 213.513 739.426 213.39C737.964 212.505 736.861 211.791 735.702 211.14C733.391 209.839 730.949 208.647 728.761 207.246C728.055 206.798 727.497 205.727 727.762 205.114C728.037 204.48 729.338 203.838 730.331 203.589C731.456 203.303 732.777 203.315 733.947 203.427C738.249 203.833 741.787 205.309 744.762 207.483C745.144 207.764 745.549 208.03 745.939 208.306C742.599 199.891 722.842 192.643 711.022 195.188Z"/><path fill="#12D0D6" fill-opacity=".2" d="M456.475 186.462C459.312 186.527 462.511 186.858 465.177 188.284C469.368 190.528 469.623 194.608 465.761 197.257C463.235 198.991 460.276 198.952 458.475 196.995C457.562 196.003 456.458 195.719 454.942 195.896C450.478 196.416 446.692 197.798 444.304 200.918C442.875 202.785 442.832 204.586 444.165 206.335C445.774 208.444 448.09 210.054 451.195 210.836C454.204 211.591 457.393 212.021 460.505 212.588C461.783 212.82 463.136 212.942 464.339 213.294C465.892 213.75 466.797 214.684 466.787 215.998C466.778 217.306 465.916 218.376 464.33 218.966C462.994 219.462 461.515 219.759 460.073 220.036C459.006 220.243 457.884 220.361 456.802 220.364C452.316 220.387 448.808 221.962 445.986 224.545C443.856 226.492 441.718 228.45 439.823 230.517C438.507 231.955 437.745 233.579 438.588 235.288C439.018 236.155 438.334 236.356 437.285 236.375C433.432 236.438 430.894 234.002 431.71 230.891C432.435 228.142 434.003 225.584 436.643 223.488C438.715 221.839 441.185 220.461 443.411 218.906C444.132 218.407 444.88 217.771 445.114 217.127C445.211 216.855 444.075 216.335 443.405 216.028C441.41 215.102 439.228 214.36 437.381 213.303C428.165 208.024 427.997 198.846 436.908 192.258C441.645 188.76 449.074 186.504 456.475 186.462Z"/><path fill="#12D0D6" fill-opacity=".2" d="M562.101 132.628C559.966 144.283 553.835 153.939 539.444 160.097C534.578 162.178 529.498 163.993 524.417 165.75C522.747 166.33 520.761 166.461 518.927 166.556C518.188 166.594 517.465 165.963 516.733 165.641C517.283 165.158 517.719 164.471 518.409 164.218C525.474 161.639 531.796 158.204 538.013 154.617C547.304 149.259 550.758 142.221 550.645 134.2C550.588 130.197 549.447 126.359 547.087 122.834C543.582 117.59 537.412 115.044 529.708 114.15C528.442 114.002 527.012 114.236 525.696 114.46C524.171 114.716 522.596 114.772 521.96 113.764C521.417 112.892 521.076 111.548 521.637 110.741C522.453 109.566 523.969 108.463 525.506 107.726C529.179 105.973 533.19 105.888 537.153 106.437C551.314 108.4 560.006 115.623 561.675 126.853C561.993 128.856 561.99 130.897 562.101 132.628Z"/><path fill="#12D0D6" fill-opacity=".2" d="M285.478 100.926C283.214 100.435 281.411 100.079 279.643 99.6498C270.749 97.4828 268.658 92.952 273.592 86.601C275.642 83.9683 278.272 81.6845 281.636 79.9114C286.754 77.2124 292.302 75.2499 298.415 74.7091C300.006 74.5685 301.776 75.0501 303.224 75.5744C304.541 76.0521 304.865 77.1396 304.214 78.2874C303.598 79.3723 302.497 79.8517 300.953 79.8038C300.389 79.7845 299.753 79.781 299.235 79.9395C292.253 82.1049 285.726 84.7505 281.551 89.7911C279.631 92.1147 279.777 92.4963 282.921 93.4606C284.074 93.8131 285.276 94.0974 286.421 94.4604C287.971 94.9531 289.552 95.4143 290.997 96.0329C297.069 98.6318 296.973 102.4 290.651 105.4C288.099 106.611 285.272 107.519 282.508 108.438C277.382 110.143 272.21 111.748 267.068 113.406C266.293 113.654 265.548 113.965 264.439 114.382C266.322 114.863 267.855 115.241 269.371 115.644C270.915 116.053 272.204 116.672 272.317 118.038C272.425 119.377 271.368 120.332 269.906 121.033C268.288 121.806 266.625 122.533 264.926 123.198C259.174 125.438 255.146 128.919 251.931 132.973C251.487 133.529 251.41 134.235 251.154 134.896C249.016 135.414 247.398 134.906 246.489 133.37C245.58 131.829 245.877 130.254 246.798 128.665C249.073 124.755 252.976 121.971 257.985 119.947C258.566 119.715 259.154 119.494 259.742 119.262C259.794 119.241 259.827 119.188 260.06 118.983C259.336 118.792 258.666 118.632 258.021 118.435C253.647 117.107 252.84 113.614 256.594 111.123C258.478 109.872 260.854 108.945 263.172 108.169C269.674 105.994 276.265 103.987 282.815 101.901C283.574 101.658 284.304 101.358 285.478 100.926Z"/><path fill="#12D0D6" fill-opacity=".2" d="M318.351 110.188C318.537 109.81 318.76 108.983 319.311 108.28C323.876 102.443 329.282 97.1163 337.081 93.3368C338.291 92.7525 339.61 92.2202 340.963 91.9128C343.878 91.2504 346.457 92.1326 347.887 93.9808C348.325 94.5552 348.997 95.0556 349.698 95.4722C352.885 97.3521 356.088 99.2163 359.353 101.028C360.614 101.726 361.987 102.36 363.423 102.853C365.763 103.652 366.598 105.575 365.03 107.349C364.281 108.198 363.279 108.965 362.249 109.654C357.228 113.012 352.694 116.672 348.824 120.775C348.405 121.216 347.673 121.616 346.991 121.79C343.914 122.579 341.73 124.076 340.441 126.241C339.831 127.258 339.096 127.396 338.079 126.881C336.651 126.163 335.171 125.466 333.936 124.585C329.444 121.38 325.051 118.106 320.62 114.854C319.064 113.707 318.131 112.349 318.351 110.188ZM341.031 117.548C343.978 112.349 349.02 108.488 355.15 104.991C352.989 103.746 351.118 102.574 349.114 101.528C345.718 99.7535 345.816 99.9731 341.964 101.601C337.58 103.456 334.92 106.325 332.261 109.263C331.951 109.604 331.848 110.363 332.129 110.598C334.951 112.887 337.871 115.103 341.031 117.548Z"/><path fill="#12D0D6" fill-opacity=".2" d="M698.949 68.6323C700.128 66.7242 701.318 64.8422 702.46 62.9447C704.085 60.2452 704.294 57.555 703.217 54.8632C702.508 53.0861 700.983 51.9236 698.581 51.3967C691.244 49.7904 684.134 50.5276 677.421 53.9115C675.188 55.0377 672.812 56.1852 672.718 58.6397C672.67 59.9166 668.667 60.9903 666.729 60.4203C664.73 59.8295 663.409 58.3053 663.978 56.4146C664.473 54.7649 665.31 53.0305 666.596 51.6087C670.963 46.7768 677.414 44.4664 684.738 43.4198C685.821 43.2649 686.924 43.1938 688.019 43.1331C690.11 43.0172 691.445 41.6738 690.447 40.3946C687.287 36.3745 682.972 33.671 675.747 35.5023C671.852 36.4919 668.317 38.4173 664.557 39.8199C663.596 40.1785 662.071 40.5073 661.38 40.2006C660.418 39.7742 659.491 38.7774 659.44 37.9403C659.293 35.4866 661.12 33.5296 663.762 31.9836C667.456 29.8119 671.702 28.7846 676.166 28.62C678.778 28.5236 681.366 28.8877 683.98 28.9848C684.846 29.019 685.745 28.8647 686.653 28.4853C686.77 28.5164 686.925 28.5159 687.004 28.5785C689.938 30.658 693.121 32.5797 695.724 34.8694C698.561 37.3625 699.994 40.3149 696.856 43.8037C702.652 45.0534 708.096 46.4978 710.34 50.981C711.775 53.8497 711.988 56.8422 710.534 59.8919C708.465 64.2253 702.967 69.1964 698.949 68.6323Z"/><path fill="#12D0D6" fill-opacity=".2" d="M392.427 175.803C399.681 175.458 406.816 175.108 413.948 174.779C415.646 174.701 415.78 173.842 415.727 172.953C415.344 166.664 413.383 160.893 407.092 156.568C405.596 155.541 403.977 154.604 402.594 153.498C401.047 152.268 399.57 150.964 398.309 149.56C397.36 148.5 397.401 147.223 398.748 146.121C400.086 145.028 401.743 144.94 403.403 145.317C404.17 145.493 404.898 145.789 405.573 146.112C418.161 152.119 424.261 160.945 424.49 172.294C424.501 172.901 424.368 173.53 424.201 174.142C423.28 177.525 420.895 179.123 416.276 179.419C410.483 179.791 404.679 179.986 398.901 180.562C395.601 180.891 392.348 181.821 389.079 182.49C388.385 182.633 387.713 182.855 387.011 182.946C384.997 183.219 383.285 182.862 382.161 181.646C381.049 180.446 381.346 179.163 382.397 177.894C385.762 173.834 386.18 169.605 384.972 165.302C384.502 163.618 383.605 162.176 381.291 161.403C379.627 160.848 378.945 159.662 379.183 158.254C379.435 156.783 380.619 155.749 382.459 155.163C385.387 154.233 387.925 154.739 390.094 156.114C392.198 157.442 393.227 159.266 393.749 161.284C394.854 165.551 394.189 169.849 392.746 174.149C392.605 174.568 392.479 174.992 392.366 175.416C392.342 175.511 392.39 175.605 392.427 175.803Z"/><path fill="#12D0D6" fill-opacity=".2" d="M605.063 56.4945C605.176 55.3534 605.155 54.2023 605.429 53.0764C605.949 50.9662 607.722 49.7 610.558 49.0482C618.453 47.2308 626.316 45.3087 634.2 43.4599C635.756 43.0944 637.378 42.645 638.927 42.6405C639.931 42.6377 641.352 43.2197 641.679 43.8414C642.006 44.4684 641.569 45.7412 640.847 46.2456C639.48 47.2019 637.766 48.0127 636.033 48.5252C630.336 50.2108 624.588 51.7709 618.823 53.2892C617.335 53.6807 617.063 54.142 617.143 55.2563C617.458 59.7294 617.955 64.2125 617.638 68.7083C617.205 74.7377 616.177 80.7792 615.185 86.8049C614.953 88.2184 614.165 89.7539 613.029 90.945C612.256 91.7583 610.475 92.3861 609.104 92.5261C607.432 92.6931 606.441 91.6284 605.965 90.51C605.642 89.7679 605.403 88.9679 605.382 88.1778C605.124 77.6241 604.916 67.0703 604.693 56.5164C604.807 56.5056 604.935 56.5001 605.063 56.4945Z"/><path fill="#12D0D6" fill-opacity=".2" d="M783.779 138.414C786.628 138.489 789.475 138.67 792.338 138.609C797.042 138.517 799.246 139.756 799.016 143.231C798.686 148.214 798.065 153.208 797.262 158.186C796.626 162.118 795.567 166.04 794.606 169.963C794.391 170.847 793.915 171.733 793.373 172.561C792.658 173.647 791.436 174.346 789.776 174.33C788.038 174.314 786.801 173.59 786.551 172.398C786.186 170.651 785.926 168.847 786.096 167.062C786.743 160.221 787.533 153.379 788.393 146.538C788.564 145.161 788.063 144.796 786.227 144.765C783.037 144.706 779.845 144.521 776.737 144.127C774.131 143.8 772.051 142.738 771.522 140.652C770.996 138.602 772.461 137.018 774.547 135.73C776.897 134.279 779.326 132.885 781.799 131.549C787.416 128.519 792.836 125.343 797.019 121.15C798.275 119.89 800.194 119.581 801.641 120.252C803.095 120.928 803.553 122.303 802.284 123.62C800.243 125.735 798.085 127.829 795.644 129.694C792.355 132.204 788.749 134.496 785.268 136.871C784.737 137.234 784.154 137.555 783.59 137.896C783.65 138.069 783.718 138.241 783.779 138.414Z"/><path fill="#12D0D6" fill-opacity=".2" d="M300.549 53.6988C297.492 53.4302 295.183 52.1025 294.718 50.1572C294.244 48.1597 295.801 46.0726 298.663 45.0911C312.16 40.4685 325.681 35.8878 339.184 31.2757C345.252 29.2018 351.265 27.0339 357.361 25.0227C358.86 24.5266 360.633 24.2599 362.214 24.292C364.134 24.3336 365.425 25.2875 365.815 26.7097C366.211 28.1371 365.449 29.3428 363.87 30.2944C363.253 30.6625 362.552 30.9628 361.846 31.2317C347.865 36.5306 333.89 41.8453 319.878 47.092C315.979 48.5526 311.958 49.8043 308.005 51.1709C306.994 51.5192 306.048 52.0033 305.032 52.3411C303.563 52.8267 302.05 53.2445 300.549 53.6988Z"/><path fill="#12D0D6" fill-opacity=".2" d="M149.377 224.05C150.831 214.485 152.158 207.072 155.487 199.862C156.55 197.551 158.3 195.37 159.875 193.173C160.318 192.559 161.119 191.897 161.951 191.633C162.864 191.343 164.287 191.182 164.946 191.52C165.586 191.843 165.927 192.899 165.748 193.574C164.629 197.806 163.047 202.007 162.14 206.248C160.16 215.547 158.658 224.881 160.286 234.091C161.11 238.778 162.709 243.347 163.949 247.969C164.146 248.701 164.392 249.427 164.467 250.175C164.668 252.289 162.504 253.65 159.865 252.878C158.38 252.443 156.965 251.589 156.027 250.639C151.755 246.282 150.102 241.112 149.669 235.686C149.307 231.119 149.43 226.514 149.377 224.05Z"/><path fill="#12D0D6" fill-opacity=".2" d="M313.624 146.71C306.497 145.192 301.362 141.554 295.669 138.483C290.479 135.683 284.907 133.245 279.404 130.759C276.743 129.558 275.562 128.054 276.452 126.21C277.324 124.402 279.835 123.181 282.782 123.549C284.983 123.826 287.303 124.321 289.074 125.221C295.008 128.218 300.668 131.483 306.523 134.559C310.147 136.459 313.92 138.211 317.645 140.011C318.88 140.609 319.797 140.418 320.872 139.421C322.694 137.731 324.732 136.145 326.851 134.658C327.763 134.017 329.079 133.511 330.281 133.303C333.604 132.734 335.98 134.877 334.783 137.262C334.511 137.796 334.09 138.331 333.607 138.783C329.004 143.071 324.395 147.349 319.724 151.601C318.901 152.351 317.865 153.029 316.791 153.587C315.39 154.313 313.839 154.485 312.455 153.746C311.145 153.049 310.856 151.966 311.341 150.845C311.925 149.525 312.765 148.246 313.624 146.71Z"/><path fill="#12D0D6" fill-opacity=".2" d="M342.472 153.843C340.949 155.009 339.121 156.406 337.024 158.014C346.339 160.938 355.324 163.754 364.31 166.575C364.447 166.47 364.585 166.365 364.722 166.265C364.504 165.821 364.346 165.35 364.062 164.932C362.857 163.167 361.498 161.46 360.434 159.642C359.653 158.31 358.875 156.878 358.757 155.429C358.507 152.301 362.171 150.291 366.208 151.159C368.486 151.65 370.352 152.665 371.252 154.216C372.649 156.614 373.931 159.091 374.739 161.652C375.476 163.994 375.562 166.49 375.83 168.928C375.997 170.455 375.535 171.911 373.559 172.875C371.724 173.77 370.08 173.298 368.273 172.832C361.654 171.114 354.969 169.501 348.264 167.934C343.536 166.828 338.705 165.91 333.969 164.815C332.185 164.401 330.399 163.872 328.875 163.123C325.341 161.386 324.643 158.29 327.597 155.738C330.689 153.071 334.341 150.748 337.632 148.358C339.389 150.336 340.87 152.022 342.472 153.843Z"/><path fill="#12D0D6" fill-opacity=".2" d="M171.646 126.819C170.468 128.073 168.967 129.234 168.182 130.591C165.364 135.424 162.801 140.324 160.127 145.198C158.738 147.724 157.536 150.307 155.874 152.74C153.691 155.933 150.168 158.026 145.357 158.688C139.536 159.49 134.561 156.877 134.548 152.932C134.548 152.215 134.843 151.372 135.391 150.768C135.938 150.17 136.928 149.665 137.836 149.427C138.112 149.353 138.921 150.251 139.249 150.794C140.112 152.231 141.027 153.63 143.586 153.565C146.082 153.501 147.742 152.303 148.746 150.735C149.99 148.801 150.947 146.778 152.027 144.792C155.039 139.289 157.962 133.76 161.098 128.288C162.79 125.332 165.551 122.943 169.584 121.488C175.018 119.531 178.73 120.896 179.499 125.138C179.7 126.252 179.829 127.382 179.994 128.501C180.198 129.871 181.262 130.695 183.121 130.559C185.351 130.396 187.57 129.981 189.79 129.629C191.118 129.421 192.429 129.109 193.761 128.87C195.165 128.62 195.577 129.241 195.228 130.059C194.951 130.713 194.413 131.437 193.704 131.879C190.6 133.813 187.193 135.293 183.16 135.671C177.807 136.168 173.827 134.154 172.763 130.327C172.466 129.25 172.358 128.13 172.162 127.032C171.985 126.959 171.815 126.892 171.646 126.819Z"/><path fill="#12D0D6" fill-opacity=".2" d="M260.247 190.426C260.586 189.645 260.855 189.063 261.091 188.471C263.235 183.086 265.373 177.695 267.518 172.31C268.43 170.026 269.814 169.038 271.733 169.299C273.652 169.561 274.566 170.83 273.719 173.103C271.813 178.226 269.607 183.303 267.575 188.406C266.859 190.208 266.135 192.026 265.671 193.858C265.012 196.45 262.321 197.84 258.99 197.132C258.387 197.003 257.789 196.832 257.261 196.598C247.737 192.356 236.996 190.848 225.701 190.65C222.891 190.601 220.05 190.792 217.228 190.946C216.666 190.979 215.726 191.259 215.598 191.553C214.974 192.931 213.871 192.5 212.841 192.183C209.951 191.302 209.197 188.777 211.655 187.085C213.286 185.966 215.481 185.075 217.586 184.598C224.538 183.019 231.432 183.392 238.202 184.366C245.454 185.408 252.353 187.078 258.615 189.839C259.035 190.021 259.495 190.161 260.247 190.426Z"/><path fill="#12D0D6" fill-opacity=".2" d="M269.486 209.279C268.854 203.577 271.15 198.521 273.733 193.5C274.153 192.683 274.636 191.87 275.235 191.11C276.415 189.615 278.277 189.019 280.189 189.427C281.962 189.803 282.988 191.009 282.58 192.638C282.15 194.334 281.476 196.011 280.857 197.692C279.304 201.888 277.812 206.1 276.092 210.265C275.674 211.281 274.449 212.153 273.619 213.108C273.324 213.449 273.006 213.806 272.862 214.183C272.246 215.838 270.475 216.513 268.573 215.655C264.227 213.695 259.581 211.976 255.73 209.58C248.201 204.908 239.306 202.819 229.466 202.136C227.31 201.985 225.117 201.996 222.971 201.809C222.186 201.738 221.493 201.306 220.756 201.041C221.243 200.401 221.579 199.364 222.255 199.184C225.131 198.417 228.093 197.566 231.041 197.359C241.459 196.628 250.565 198.8 258.502 203.287C261.977 205.261 265.553 207.139 269.486 209.279Z"/><path fill="#12D0D6" fill-opacity=".2" d="M584.164 76.4754C583.792 80.2441 583.709 83.4363 583.072 86.5987C582.715 88.3474 581.573 90.0932 580.491 91.7446C579.642 93.0395 578.385 93.2315 577.354 92.146C575.74 90.4448 573.894 88.6553 573.292 86.6581C570.969 78.9674 569.081 71.1707 569.435 63.0799C569.499 61.5727 569.836 60.0281 570.364 58.5457C571.158 56.309 573.424 54.9211 576.205 54.6881C578.965 54.4552 581.324 55.4846 582.408 57.5431C584.3 61.1483 584.36 65.0465 584.393 68.9344C584.416 71.6396 584.233 74.3507 584.164 76.4754Z"/><path fill="#12D0D6" fill-opacity=".2" d="M263.68 162.844C262.416 168.546 261.355 173.992 259.964 179.411C259.145 182.611 257.122 183.475 253.334 182.094C247.013 179.789 240.295 178.646 233.129 178.379C231.481 178.316 230.041 177.791 229.515 176.527C229.011 175.33 229.989 174.453 231.044 173.576C232.862 172.069 234.574 170.489 236.399 168.982C241.465 164.808 247.94 162.188 254.469 159.663C257.138 158.635 260.973 159.257 262.686 160.885C263.28 161.459 263.416 162.301 263.68 162.844ZM254.265 166.445C253.993 166.341 253.72 166.243 253.447 166.139C248.941 168.303 244.224 170.231 239.988 173.378C243.996 173.827 247.535 174.23 251.472 174.674C252.435 171.872 253.347 169.159 254.265 166.445Z"/><path fill="#12D0D6" fill-opacity=".2" d="M624.929 79.9431C625.38 75.384 625.817 70.8198 626.289 66.2607C626.436 64.837 626.557 63.3977 626.965 61.9941C627.482 60.1926 629.392 59.1196 631.588 59.1552C633.819 59.1907 635.307 60.3062 635.386 62.1479C635.874 73.601 635.134 85.0942 633.735 96.5998C633.513 98.411 632.596 100.256 631.707 102.016C630.837 103.74 629.208 104.551 627.467 104.425C625.283 104.264 624.545 103.078 624.42 101.697C624.194 99.254 623.963 96.8005 624.128 94.3406C624.447 89.5413 625.028 84.7412 625.502 79.9414C625.318 79.9419 625.127 79.9425 624.929 79.9431Z"/><path fill="#12D0D6" fill-opacity=".2" d="M182.953 109.723C181.459 110.386 180.194 111.018 178.851 111.519C172.713 113.807 166.683 112.495 164.131 108.118C161.205 103.092 161.656 97.675 163.331 92.2438C163.53 91.5891 164.93 90.8107 165.936 90.5723C167.42 90.2227 168.628 90.9519 168.922 91.9819C169.324 93.4302 169.393 94.9475 169.542 96.4436C169.765 98.6931 169.7 100.996 170.19 103.197C171.128 107.37 173.801 108.017 178.582 105.366C180.071 104.54 181.451 103.594 182.876 102.706C186.041 100.734 189.398 101.185 190.707 103.897C191.506 105.543 191.896 107.316 192.455 109.036C192.97 110.62 193.528 112.193 193.957 113.799C194.36 115.299 195.581 115.971 197.625 116.038C198.795 116.077 199.937 116.251 201.387 116.394C199.494 118.874 197.197 120.513 193.823 120.952C190.577 121.375 188.068 120.288 186.772 118.309C185.377 116.178 184.557 113.81 183.523 111.537C183.282 110.972 183.157 110.381 182.953 109.723Z"/><path fill="#12D0D6" fill-opacity=".2" d="M808.302 168.191C808.249 166.083 808.103 163.985 808.17 161.87C808.319 157.223 808.879 152.554 808.713 147.934C808.543 143.147 806.088 139.156 800.464 136.597C798.447 135.682 798.561 133.029 800.608 131.422C801.65 130.603 802.951 129.966 804.113 129.224C809.11 126.034 814.087 122.833 819.083 119.648C820.464 118.77 821.89 117.939 823.303 117.087C823.458 117.17 823.613 117.248 823.767 117.332C823.506 119.97 823.295 122.613 822.928 125.246C822.874 125.649 822.149 126.122 821.596 126.422C817.077 128.858 812.525 131.262 807.935 133.698C807.935 133.698 807.901 133.829 807.975 133.871C814.916 137.906 816.554 143.809 816.106 150.058C815.77 154.816 814.144 159.603 812.952 164.363C812.716 165.321 811.977 166.281 811.235 167.136C810.772 167.677 809.867 168.03 809.16 168.461C808.878 168.373 808.591 168.279 808.302 168.191Z"/><path fill="#12D0D6" fill-opacity=".2" d="M59.0821 205.266C57.6673 205.27 56.2489 205.311 54.8459 205.268C51.9904 205.182 50.5968 203.47 51.866 201.504C52.4258 200.633 53.3356 199.872 54.0463 199.049C57.009 195.618 60.0813 192.223 62.8739 188.725C64.8587 186.244 67.9073 185.236 71.1597 186.53C72.5408 187.081 73.8081 187.925 74.7341 188.859C78.8932 193.07 82.9179 197.354 86.9577 201.628C88.0393 202.776 88.5982 204.062 87.3641 205.457C86.1549 206.816 84.3601 206.874 82.4864 206.727C75.651 206.197 68.8139 205.683 61.9754 205.185C61.0277 205.114 60.0524 205.18 59.0903 205.183C59.0872 205.214 59.0846 205.24 59.0821 205.266ZM77.3994 203.675C77.4608 203.555 77.5157 203.429 77.5771 203.309C73.9173 200.127 70.2645 196.946 66.5134 193.686C64.0279 196.367 61.668 198.922 59.1663 201.624C65.4263 202.323 71.4131 202.997 77.3994 203.675Z"/><path fill="#12D0D6" fill-opacity=".2" d="M10.0755 41.2084C10.4412 39.0829 11.8163 37.4045 13.9908 36.1529C16.0834 34.9433 18.3136 33.8433 20.5967 32.853C28.7461 29.3185 37.2993 26.6357 46.4609 25.453C48.5452 25.1854 50.726 25.1583 52.7967 25.3145C55.5555 25.5212 57.1925 27.0601 56.8798 28.7931C56.6162 30.2433 55.4075 31.1678 53.5275 31.5865C40.4754 34.4967 28.015 38.7186 15.5144 42.8464C15.032 43.0048 14.5486 43.1736 14.0969 43.379C11.5563 44.5427 10.6041 44.2315 10.179 42.0925C10.1192 41.7682 10.1028 41.4334 10.0755 41.2084Z"/><path fill="#12D0D6" fill-opacity=".2" d="M19.4687 242.805C15.9085 242.836 14.1335 240.905 15.4054 238.839C15.9359 237.98 16.764 237.114 17.7381 236.488C27.621 230.155 37.5564 223.862 47.5109 217.591C48.4611 216.992 49.5724 216.481 50.705 216.112C52.8176 215.415 54.9691 215.827 56.2163 217.017C57.4051 218.154 57.4504 219.771 56.1765 221.14C55.5833 221.775 54.8115 222.358 54.0049 222.863C45.5281 228.136 37.0578 233.414 28.5225 238.634C26.4227 239.917 24.1535 241.054 21.8732 242.159C21.0123 242.57 19.9257 242.688 19.4687 242.805Z"/><path fill="#12D0D6" fill-opacity=".2" d="M690.694 142.998C691.3 137.36 698.493 131.489 706.121 130.442C708.315 130.137 710.388 130.341 712.087 131.32C713.071 131.887 713.489 132.519 711.979 133.345C710.222 134.308 708.597 135.432 707.041 136.583C703.309 139.351 702.391 143.064 704.484 146.354C705.408 147.811 706.258 149.3 707.204 150.747C707.793 151.656 707.432 152.233 706.176 152.707C703.568 153.693 701.045 153.679 698.528 152.954C693.316 151.457 690.212 147.51 690.694 142.998Z"/><path fill="#12D0D6" fill-opacity=".2" d="M361.656 248.799C362.312 247.594 362.699 246.258 363.674 245.199C367.628 240.896 371.69 236.641 375.853 232.443C378.681 229.588 381.665 226.801 384.755 224.087C385.661 223.289 387.111 222.505 388.408 222.329C391.269 221.933 393.186 223.995 391.889 226.17C390.567 228.387 389.012 230.6 387.084 232.578C383.622 236.12 379.883 239.532 376.112 242.913C373.109 245.606 369.878 248.174 366.775 250.81C365.918 251.54 364.838 252.16 363.775 251.614C362.913 251.171 362.477 250.288 361.919 249.573C361.78 249.401 361.894 249.107 361.889 248.872C361.821 248.846 361.739 248.82 361.656 248.799Z"/><path fill="#12D0D6" fill-opacity=".2" d="M811.734 93.5467C813.522 88.1205 815.261 82.6891 817.105 77.2732C818.012 74.6071 819.107 71.9667 820.147 69.3212C820.364 68.7659 820.645 68.2104 821.028 67.7017C821.809 66.6686 823.013 66.0791 824.585 66.2002C826.122 66.3214 827.194 66.9933 827.358 68.1284C827.517 69.2373 827.564 70.404 827.312 71.5193C825.375 79.9548 822.754 88.2981 818.46 96.4002C817.314 98.5542 816.22 99.3213 814.51 99.164C812.716 98.9965 811.899 97.8895 812.033 95.7436C812.075 95.0319 812.167 94.3199 812.237 93.6081C812.063 93.5877 811.895 93.5672 811.734 93.5467Z"/><path fill="#12D0D6" fill-opacity=".2" d="M768.215 39.8107C767.074 39.5576 764.845 39.2867 762.919 38.5962C759.073 37.2258 757.997 33.8694 760.409 31.0055C761.587 29.6049 763.014 28.2613 764.601 27.0846C768.036 24.5316 772.706 24.356 776.287 26.4807C780.161 28.7825 780.762 31.6379 777.951 34.8222C777.051 35.8452 776.021 36.8266 774.945 37.7612C773.398 39.1052 771.364 39.7912 768.215 39.8107Z"/><path fill="#12D0D6" fill-opacity=".2" d="M579.184 108.896C576.009 108.895 574.326 106.963 575.916 104.829C578.377 101.536 581.738 98.7268 585.903 96.5171C588.298 95.2491 590.675 95.3888 592.853 96.5966C595.522 98.075 597.535 99.9635 598.969 102.194C600.207 104.121 598.926 106.207 596.011 106.65C590.605 107.471 585.172 108.131 579.754 108.858C579.575 108.884 579.377 108.885 579.184 108.896Z"/><path fill="#12D0D6" fill-opacity=".2" d="M224.517 224.729C221.224 223.854 219.504 221.504 220.015 218.84C221.026 213.62 229.133 207.15 236.14 206.015C238.692 205.6 241.301 205.529 243.243 206.769C244.248 207.41 245.007 208.533 245.169 209.537C245.366 210.766 243.673 211.226 242.31 211.638C236.812 213.308 231.726 215.405 227.964 219.052C226.485 220.49 225.109 221.886 224.978 223.713C224.976 224.021 224.712 224.331 224.517 224.729Z"/><path fill="#12D0D6" fill-opacity=".2" d="M742.953 121.252C742.123 121.134 740.593 121.018 739.176 120.693C737.143 120.228 736.294 119.152 736.79 118C737.294 116.831 738.817 116.236 740.982 116.58C745.514 117.31 749.369 116.012 752.879 113.841C753.956 113.173 754.843 112.218 755.48 111.285C756.389 109.958 755.701 108.971 753.883 108.547C753.406 108.434 752.895 108.383 752.419 108.269C751.03 107.938 750.141 107.271 750.348 106.109C750.569 104.873 751.753 104.268 753.319 104.091C758.748 103.473 763.808 107.232 762.491 111.176C761.939 112.831 760.686 114.561 759.148 115.884C755.043 119.423 749.681 121.008 742.953 121.252Z"/><path fill="#12D0D6" fill-opacity=".2" d="M521.981 32.2014C519.506 32.2033 517.936 31.3443 517.685 30.0264C517.44 28.7085 518.528 27.3605 520.697 26.8101C524.107 25.9369 527.572 25.2206 531.038 24.4938C534.75 23.7139 538.473 22.9654 542.211 22.2797C543.255 22.0883 544.422 22.0222 545.44 22.1658C547.205 22.4119 548.277 23.2932 548.411 24.6638C548.537 25.9664 547.735 27.0623 546.127 27.6634C544.915 28.1169 543.542 28.3511 542.223 28.5956C536.02 29.7541 529.806 30.8812 523.599 32.0084C522.972 32.12 522.325 32.1585 521.981 32.2014Z"/><path fill="#12D0D6" fill-opacity=".2" d="M511.983 215.565C513.221 217.853 514.461 219.901 515.446 222.028C516.18 223.616 515.434 224.79 513.752 225.282C511.902 225.821 510.324 225.192 509.625 223.536C508.697 221.33 506.91 219.666 504.371 218.381C500.457 216.409 500.766 213.572 505.278 211.853C509.562 210.218 514.03 208.876 518.459 207.498C520.079 206.991 521.591 207.29 522.39 208.429C523.221 209.609 522.527 210.694 521.062 211.426C518.644 212.636 516.125 213.726 513.637 214.859C513.029 215.138 512.396 215.391 511.983 215.565Z"/><path fill="#12D0D6" fill-opacity=".2" d="M801.945 184.075C796.136 184.102 793.635 182.006 794.508 178.251C795.382 174.492 796.692 173.541 801.07 172.32C804.568 171.347 809.834 172.656 811.716 174.649C813.444 176.481 813.123 178.941 810.823 180.826C808.214 182.963 804.947 183.967 801.945 184.075ZM801.998 181.103C802.199 181.071 802.719 181.033 803.199 180.9C804.864 180.44 806.481 179.745 806.735 178.394C806.988 177.054 805.215 176.745 803.947 176.341C800.122 175.111 799.259 175.548 798.977 178.757C798.84 180.358 799.68 181.088 801.998 181.103Z"/><path fill="#12D0D6" fill-opacity=".2" d="M10.2774 29.9365C8.698 29.0305 8.5047 27.838 9.72098 26.6938C10.9292 25.56 12.3435 24.4153 13.9672 23.6571C18.5639 21.509 23.566 20.1969 28.8442 19.669C29.7367 19.5827 30.6573 19.5696 31.5262 19.6508C33.0047 19.7879 34.1556 20.3078 34.3923 21.4898C34.6217 22.6037 33.8512 23.4588 32.5907 24.0485C31.5305 24.5434 30.4093 25.0124 29.2419 25.3035C23.5368 26.717 17.8096 28.0678 12.0944 29.4394C11.4858 29.5877 10.8805 29.7726 10.2774 29.9365Z"/><path fill="#12D0D6" fill-opacity=".2" d="M356.061 143.705C356.059 142.946 356.171 142.166 356.032 141.429C355.251 137.308 357.143 133.974 361.9 131.287C363.338 130.472 364.358 129.234 365.558 128.184C367.029 126.903 368.772 126.511 370.359 127.124C371.871 127.705 372.456 129.09 371.582 130.563C371.005 131.528 370.272 132.508 369.33 133.306C365.185 136.829 360.939 140.29 356.727 143.771C356.496 143.746 356.279 143.726 356.061 143.705Z"/><path fill="#12D0D6" fill-opacity=".2" d="M517.512 181.013C513.579 181.024 510.498 179.217 510.883 176.898C511.44 173.552 513.768 171.034 518.49 170.979C522.426 170.936 525.61 173.355 525.313 176.066C525.021 178.736 521.445 181.007 517.512 181.013Z"/><path fill="#12D0D6" fill-opacity=".2" d="M204.462 130.215C204.908 128.424 205.276 126.628 205.82 124.848C206.194 123.638 207.315 122.886 209.052 122.845C213.56 122.743 216.837 124.497 219.835 126.503C221.129 127.368 220.337 128.511 218.585 128.992C215.096 129.949 211.668 131.074 208.172 132.031C207.278 132.274 206.021 132.403 205.314 132.117C204.613 131.837 204.396 130.958 203.969 130.342C204.128 130.305 204.295 130.263 204.462 130.215Z"/><path fill="#12D0D6" fill-opacity=".2" d="M237.926 221.645C236.866 219.634 237.236 217.754 238.942 216.226C240.952 214.426 243.268 212.74 245.77 211.33C246.893 210.694 248.913 210.505 250.316 210.7C253.433 211.135 254.045 213.891 251.56 215.568C250.931 215.993 250.151 216.299 249.418 216.631C246.022 218.153 242.619 219.664 239.21 221.176C238.878 221.313 238.528 221.424 237.926 221.645Z"/><path fill="#12D0D6" fill-opacity=".2" d="M510.778 12.0403C513.456 11.996 515.35 13.2255 515.278 14.9525C515.19 16.9831 512.421 18.9585 509.541 19.0505C506.888 19.1314 504.911 17.5986 505.109 15.5991C505.277 13.8247 508.051 12.0848 510.778 12.0403Z"/><path fill="#12D0D6" fill-opacity=".2" d="M676.306 79.5081C673.352 79.4799 671.403 78.1668 671.651 76.3713C671.915 74.4187 674.095 72.9682 676.729 73.0025C679.689 73.0359 681.84 74.4583 681.575 76.2068C681.299 78.0024 678.856 79.5322 676.306 79.5081Z"/><path fill="#12D0D6" fill-opacity=".2" d="M254.436 257.155C256.701 257.132 258.384 258.425 258.248 260.084C258.094 261.927 255.856 263.681 253.633 263.703C251.121 263.726 248.685 262.257 248.755 260.755C248.837 259.002 251.718 257.183 254.436 257.155Z"/><path fill="#12D0D6" fill-opacity=".2" d="M216.295 206.103C216.089 207.904 214.045 209.411 211.825 209.402C209.733 209.392 208.078 208.11 208.238 206.634C208.423 204.969 211.014 203.089 213.076 203.119C215.081 203.145 216.487 204.454 216.295 206.103Z"/><path fill="#12D0D6" fill-opacity=".2" d="M100.538 58.9342C99.6077 63.9864 97.3435 69.0792 92.4418 73.3108C89.0472 76.2457 85.0929 78.9047 80.9937 81.3131C78.8693 82.5593 75.9435 83.1119 73.2946 83.7265C72.2304 83.9755 70.8648 83.6969 69.7761 83.4069C67.7982 82.8841 67.0453 81.6304 68.2075 80.2456C69.8415 78.3101 71.7304 76.4418 73.8478 74.7665C76.5721 72.6028 79.7065 70.7257 82.5106 68.6141C88.2406 64.3016 91.7519 59.3989 91.1155 53.3883C90.9029 51.39 91.7788 50.3985 93.5159 49.9226C95.3112 49.4308 97.2826 49.9484 98.586 51.3575C100.579 53.513 100.702 56.0609 100.538 58.9342Z"/><path fill="#12D0D6" fill-opacity=".2" d="M63.2175 88.1614C63.0488 89.6532 61.1169 90.8832 59.0277 90.8421C57.0871 90.8005 55.7472 89.6898 55.9495 88.2869C56.1591 86.8106 57.9399 85.6072 59.9362 85.5858C61.9037 85.5697 63.3805 86.7272 63.2175 88.1614Z"/><path fill="#12D0D6" fill-opacity=".2" d="M55.7109 281.779C58.0801 282.207 60.6135 282.403 62.7764 283.13C64.3778 283.669 65.8654 284.717 66.7657 285.839C68.6102 288.142 67.0692 290.925 63.492 291.987C61.8746 292.468 60.0717 292.75 58.3688 292.807C42.1295 293.335 32.9129 302.802 28.1977 310.727C27.6296 311.681 28.0941 312.92 28.0839 314.024C28.0841 314.38 28.2698 314.934 28.0614 315.039C27.6663 315.244 27.0038 315.293 26.5154 315.227C23.3484 314.786 21.5725 313.221 20.6104 311.078C19.3944 308.356 19.9374 305.581 21.2565 302.825C24.0576 296.951 28.7388 291.945 35.1879 287.798C41.1619 283.951 48.0521 282.209 55.7109 281.779Z"/><path fill="#12D0D6" fill-opacity=".2" d="M820.535 156.208C821.676 154.682 822.996 153.203 823.909 151.62C825.249 149.298 826.279 146.893 827.46 144.524C827.911 143.618 828.307 142.68 828.909 141.82C830.027 140.232 831.954 139.41 833.995 139.514C836.077 139.623 837.966 140.69 838.055 142.432C838.154 144.374 838.04 146.451 837.232 148.327C833.698 156.615 827.283 163.771 819.153 170.189C819.614 165.525 820.074 160.867 820.535 156.208Z"/><path fill="#12D0D6" fill-opacity=".2" d="M833.79 22.102C834.691 22.293 835.599 22.4735 836.499 22.675C845.407 24.6955 850.323 29.4118 850.343 36.4341C850.35 38.8621 849.749 41.3703 848.945 43.7797C848.523 45.042 847.33 46.385 846.001 47.3097C843.54 49.0279 840.376 48.341 839.605 46.0461C839.31 45.1678 839.323 44.184 839.415 43.2471C839.579 41.5878 839.977 39.9279 840.162 38.2686C840.687 33.4634 839.083 31.7988 832.951 30.6599C833.226 27.8073 833.508 24.9546 833.79 22.102Z"/><path fill="#12D0D6" fill-opacity=".2" d="M1023.2 22.1977C1021.16 24.0821 1019.41 25.9709 1017.28 27.5677C1015.13 29.1699 1012.75 30.6837 1010.19 31.8789C1005.97 33.8376 1001.58 35.5874 997.166 37.285C986.808 41.2706 976.39 45.157 966.013 49.1165C956.437 52.7703 948.332 57.864 941.021 63.7143C935.822 67.8787 932.451 72.6502 931.858 78.1515C931.554 80.9362 931.636 83.7616 932.001 86.5078C932.709 91.7856 934.344 96.8514 938.361 101.215C941.234 104.341 945.105 106.397 950.363 106.994C955.608 107.591 960.789 106.906 965.821 105.437C990.863 98.1233 1009.64 85.3121 1021.95 67.7785C1032.56 52.6673 1031.26 37.4699 1023.66 22.7563C1023.55 22.5525 1023.36 22.3804 1023.2 22.1977Z"/><path fill="#12D0D6" fill-opacity=".2" d="M874.401 149.403C872.194 150.555 870.356 151.618 868.4 152.518C865.866 153.687 863.315 154.887 860.623 155.79C856.235 157.262 851.945 157.238 848.331 155.024C844.636 152.764 843.19 149.649 844.505 146.077C845.452 143.51 846.919 140.905 848.863 138.618C851.464 135.555 854.744 132.783 857.738 129.891C858.129 129.513 858.581 129.161 859.269 128.573C855.804 129.206 852.745 129.895 849.642 130.312C844.296 131.023 839.579 130.241 835.839 127.437C832.35 124.814 831.156 121.589 833.074 117.989C834.602 115.127 836.549 112.244 839.058 109.756C853.819 95.1303 871.091 82.5066 892.815 73.5696C894.09 73.0479 895.354 72.4949 896.554 71.874C898.246 71.0005 900.023 70.8279 901.939 70.9062C905.235 71.0432 907.269 72.9997 906.186 75.3732C905.184 77.5739 903.737 79.6868 902.63 81.872C901.244 84.597 899.759 87.3171 898.748 90.1038C897.552 93.4038 897.598 96.7265 898.421 99.9946C899.019 102.384 899.307 104.838 900 107.201C900.529 108.999 901.204 110.824 902.312 112.427C904.569 115.701 907.496 118.718 909.497 122.076C911.001 124.605 913.38 126.586 915.24 128.868C925.622 141.601 919.363 153.905 905.094 161.905C900.438 164.514 895.148 165.795 889.484 165.723C884.152 165.654 880.138 163.981 877.613 160.618C875.651 158.002 874.706 155.122 874.513 152.061C874.449 151.276 874.443 150.476 874.401 149.403ZM887.937 107.256C887.827 101.998 886.449 96.9835 888.07 91.8089C889.693 86.6238 892.772 81.8741 896.706 77.2737C893.21 78.728 889.847 80.2708 886.542 81.871C869.373 90.167 855.546 100.986 843.625 113.197C841.902 114.965 840.506 117 839.534 119.027C837.616 123.052 841.229 126.636 846.908 126.489C848.801 126.442 850.754 126.07 852.62 125.646C857.258 124.591 861.852 123.396 866.472 122.299C868.674 121.775 870.787 121.784 872.148 123.256C873.548 124.759 872.896 126.347 871.475 127.779C869.7 129.563 867.684 131.223 865.902 133.007C862.707 136.213 859.463 139.409 856.539 142.741C855.272 144.183 854.477 145.923 853.917 147.583C853.208 149.684 854.969 150.678 857.673 149.796C859.536 149.189 861.371 148.441 863.035 147.557C868.289 144.769 873.434 141.871 878.656 139.051C881.981 137.252 884.13 137.042 886.05 138.224C887.916 139.375 888.122 141.159 886.252 143.686C883.452 147.483 883.205 151.34 884.198 155.246C885.206 159.21 888.173 160.677 893.655 159.803C902.449 158.396 907.615 153.928 910.774 148.012C911.451 146.738 911.826 145.24 911.643 143.938C910.257 133.994 901.196 128.081 886.264 130.908C884.88 131.168 883.461 131.434 882.063 131.48C879.878 131.554 878.832 130.615 879.07 128.998C879.322 127.234 880.647 125.775 882.664 124.969C885.779 123.725 889.115 122.81 892.364 121.775C892.817 121.632 893.318 121.573 893.815 121.478C891.861 118.281 889.967 115.194 888.049 112.054C886.651 112.106 885.11 112.173 883.571 112.224C874.311 112.533 869.543 106.901 871.662 100.197C872.269 98.2852 874.193 97.0604 876.433 96.9337C878.787 96.8013 880.655 97.8582 881.252 99.7665C881.606 100.901 881.687 102.094 882.085 103.218C882.818 105.314 884.443 106.827 887.937 107.256Z"/><path fill="#12D0D6" fill-opacity=".2" d="M910.003 204.318C910.347 204.348 910.767 204.384 911.188 204.425C916.595 204.953 922.007 205.435 927.392 206.042C928.609 206.18 928.804 205.708 929.208 205.126C931.942 201.215 934.629 197.288 937.479 193.418C945.745 182.191 954.08 170.985 962.408 159.784C963.426 158.42 964.582 157.104 965.684 155.756C961.481 152.707 957.356 149.715 953.238 146.733C938.767 166.01 924.409 185.13 910.003 204.318Z"/><path fill="#12D0D6" fill-opacity=".2" d="M1120.29 92.0697C1121.54 83.003 1124.52 74.1197 1128.01 65.2769C1129.34 61.8927 1130.43 58.4673 1131.71 55.0729C1133.36 50.6622 1136.22 46.6614 1140.45 43.18C1143.89 40.3496 1148.13 38.4537 1153 37.456C1159.15 36.193 1164.35 37.2037 1168.47 40.4414C1172.85 43.8877 1175.22 48.1613 1175.83 52.9371C1177.45 65.9149 1174.69 78.6436 1166.57 90.8383C1162.46 96.988 1156.64 102.363 1149.29 106.738C1145.23 109.162 1140.69 110.839 1135.6 111.429C1128.8 112.218 1123.15 109.937 1121.25 105.233C1120.28 102.823 1120.03 100.186 1119.82 97.6178C1119.65 95.8025 1120.1 93.9226 1120.29 92.0697ZM1165.98 68.3182C1166.6 62.2935 1166.47 58.1025 1164.95 54.0619C1163.95 51.4222 1162.36 49.0302 1159.6 47.2433C1158.74 46.6911 1157.18 46.0519 1156.31 46.3003C1153.65 47.051 1151.16 48.1989 1148.63 49.2474C1148.33 49.3739 1148.19 49.8243 1148.09 50.1386C1147 53.4121 1146.15 56.7269 1144.82 59.9541C1140.58 70.2381 1136.22 80.5068 1133.4 90.996C1132.65 93.8134 1132.04 96.6827 1131.9 99.514C1131.7 103.758 1133.6 104.538 1139.16 102.895C1143.14 101.716 1146.24 99.6404 1149.05 97.2881C1159.79 88.3198 1164.85 77.9078 1165.98 68.3182Z"/><path fill="#12D0D6" fill-opacity=".2" d="M1438.52 77.1028C1438.28 76.7424 1438.13 76.4499 1437.9 76.1941C1431.73 69.1371 1431.42 61.4354 1436.31 53.4309C1443.83 41.1596 1457.04 33.686 1473.96 29.7025C1481.1 28.0232 1488.35 27.1652 1495.54 28.4476C1499.06 29.0759 1502.18 30.1763 1504.34 32.3365C1506.76 34.7471 1506.35 37.7414 1503.4 39.6964C1500.77 41.4412 1498.14 41.0458 1496.78 38.831C1496.4 38.1937 1495.5 37.5998 1494.61 37.3302C1491.6 36.4179 1488.36 36.626 1485.14 37.2213C1480.26 38.1248 1475.7 39.6659 1471.58 41.9539C1461.28 47.6871 1454.06 55.0127 1449.84 63.8682C1448.47 66.7344 1448.02 69.5666 1449.17 72.4152C1449.59 73.4553 1450.12 73.8148 1451.73 73.4596C1455.53 72.622 1459.42 72.0247 1463.18 72.8041C1464.89 73.1551 1466.58 73.7833 1467.91 74.6063C1469.68 75.7001 1469.62 77.2596 1467.7 78.432C1464.78 80.2038 1461.8 82.0334 1458.49 83.3039C1453.09 85.3811 1447.43 87.0561 1441.85 88.8408C1436.51 90.5515 1431.13 92.1734 1425.78 93.8527C1421.49 95.1993 1417.14 96.2897 1412.56 96.486C1410.78 96.5591 1408.95 96.4964 1407.24 96.2501C1405.33 95.973 1404.83 95.0325 1405.8 93.6797C1406.52 92.6991 1407.36 91.6606 1408.5 90.9614C1411.97 88.8217 1415.4 86.5723 1419.22 84.8555C1424.95 82.275 1431 80.1122 1436.91 77.772C1437.41 77.5717 1437.92 77.3557 1438.52 77.1028Z"/><path fill="#12D0D6" fill-opacity=".2" d="M1309.59 113.139C1307.6 112.338 1305.69 111.726 1304.03 110.868C1298.32 107.933 1296.89 102.84 1300.34 97.9692C1302.85 94.409 1306.7 91.8025 1311.4 89.8738C1316.56 87.7555 1321.99 86.28 1327.7 85.6514C1336.68 84.6629 1339.09 86.8956 1341.75 91.1317C1343.71 94.2501 1346.28 96.8695 1350.13 98.6376C1355.34 101.025 1360.8 103.139 1366.13 105.389C1367.21 105.841 1368.3 106.309 1369.2 106.919C1371.55 108.508 1371.31 110.021 1368.99 111.781C1357.61 120.395 1343.46 125.323 1328.9 129.682C1322.02 131.742 1314.94 133.233 1307.67 133.494C1304.88 133.596 1301.97 133.411 1299.4 132.817C1293.61 131.483 1291.74 127.449 1294.72 123.265C1297.57 119.269 1302.04 116.425 1307.22 114.145C1307.95 113.818 1308.69 113.513 1309.59 113.139ZM1354.95 112.255C1354.26 112.084 1353.73 111.955 1353.2 111.826C1347.16 110.388 1341.67 108.264 1336.88 105.29C1332.26 102.425 1328.82 98.9865 1327.98 94.316C1327.96 94.1957 1327.78 94.0968 1327.58 93.8776C1323.84 94.532 1320.18 95.5576 1317.03 97.3091C1315.06 98.3979 1313.28 99.8264 1311.87 101.322C1310.3 102.995 1310.67 104.559 1312.73 105.704C1314.55 106.709 1316.62 107.483 1318.68 108.23C1320.19 108.775 1321.88 109.069 1323.42 109.556C1324.9 110.023 1325.81 110.879 1325.69 112.166C1325.58 113.386 1324.59 114.231 1323.11 114.753C1322.22 115.07 1321.28 115.303 1320.35 115.551C1314.32 117.159 1309.46 119.962 1305.65 123.819C1304.98 124.507 1304.47 125.283 1303.89 126.022C1306.19 126.811 1309.15 126.928 1313.62 126.408C1328.68 124.653 1341.92 119.44 1354.37 112.764C1354.52 112.675 1354.62 112.544 1354.95 112.255Z"/><path fill="#12D0D6" fill-opacity=".2" d="M1035.76 159.616C1038.53 159.477 1041.1 159.202 1043.62 159.279C1044.86 159.317 1046.14 159.858 1047.14 160.415C1048.62 161.227 1049.25 162.45 1048.74 163.906C1048.25 165.289 1046.84 166.057 1045.09 166.334C1041.24 166.936 1038.38 168.619 1036.13 170.928C1033.95 173.158 1031.87 175.445 1029.89 177.774C1027.01 181.158 1026.65 184.68 1028.21 188.218C1028.69 189.326 1028.05 189.789 1026.63 190.033C1022.77 190.699 1018.72 189.078 1016.94 186.032C1015.23 183.091 1015.19 179.925 1016.06 176.715C1017.29 172.086 1020.79 168.313 1025.41 165.003C1026.17 164.457 1026.95 163.916 1027.43 163.569C1025.91 160.805 1024.11 158.226 1023.07 155.45C1022.04 152.706 1021.77 149.766 1021.18 146.91C1018.93 147.356 1016.56 147.986 1014.16 148.27C1001.31 149.798 990.675 142.812 991.2 133.281C991.424 129.22 993.143 125.426 996.319 121.979C1004.35 113.254 1015.55 109.031 1029.15 108.505C1033.39 108.341 1037.08 109.461 1039.69 111.808C1040.74 112.752 1041.24 114.07 1041.77 115.277C1041.93 115.648 1041.54 116.345 1041.1 116.665C1040.87 116.828 1039.94 116.554 1039.4 116.383C1038.04 115.942 1036.78 115.202 1035.34 115.023C1033.21 114.752 1030.86 114.492 1028.74 114.875C1017.54 116.885 1009.48 121.785 1005.31 129.928C1004.11 132.266 1003.83 134.6 1005.25 136.851C1007.38 140.205 1010.91 141.681 1016.1 141.211C1017.83 141.054 1019.97 141.105 1021.14 140.364C1022.11 139.754 1021.92 138.117 1022.24 136.939C1022.61 135.619 1022.85 134.284 1023.36 132.99C1023.87 131.707 1025.01 130.73 1026.92 130.515C1028.82 130.306 1030.35 130.908 1030.91 132.11C1031.98 134.415 1033.13 136.766 1033.48 139.204C1034.4 145.653 1034.92 152.156 1035.6 158.637C1035.65 158.993 1035.72 159.359 1035.76 159.616Z"/><path fill="#12D0D6" fill-opacity=".2" d="M1525.67 120.259C1526.1 120.734 1526.52 121.156 1526.89 121.611C1528.52 123.662 1530.4 125.624 1531.69 127.803C1533.14 130.237 1532.73 132.781 1530.05 135.039C1528.98 135.942 1527.67 136.501 1526.06 136.228C1524.43 135.95 1523.61 135.026 1523.6 133.891C1523.55 130.866 1521.29 128.775 1518.93 126.688C1517.39 125.316 1515.71 124.013 1514.4 122.525C1511.33 119.049 1513.18 115.674 1518.85 114.391C1523.61 113.316 1528.45 112.982 1533.24 113.403C1537.83 113.803 1541.1 115.605 1543.26 118.539C1546.06 122.33 1548.91 122.997 1554.76 121.363C1559.21 120.126 1563.14 118.231 1566.71 115.856C1572.14 112.235 1574.09 107.938 1572.61 102.956C1571.38 98.8724 1568.6 95.5575 1563.97 92.7033C1563.89 93.5198 1563.86 94.0066 1563.79 94.4934C1563.07 99.4247 1562.47 104.366 1561.54 109.288C1561.26 110.748 1560.21 112.216 1559.24 113.59C1558.46 114.707 1557 115.261 1555.28 115.088C1553.62 114.92 1552.75 114.106 1552.45 112.982C1552.23 112.166 1552.13 111.303 1552.2 110.46C1552.78 103.096 1553.55 95.7263 1553.98 88.3678C1554.23 83.9663 1559.62 82.0148 1563.78 83.3739C1576.36 87.4926 1585.41 96.2315 1583.52 107.739C1582.78 112.23 1579.97 116.158 1575.32 119.326C1568.39 124.04 1560.39 127.135 1551.29 127.993C1544.74 128.608 1539.52 127.011 1536.37 122.693C1533.92 119.366 1531.26 118.783 1525.67 120.259Z"/><path fill="#12D0D6" fill-opacity=".2" d="M1291.56 74.1174C1288.79 64.9837 1291.01 56.27 1295.51 47.7016C1296.87 45.118 1299.22 42.7565 1301.26 40.354C1301.95 39.5462 1303.03 38.8838 1304.03 38.2425C1305.38 37.3805 1306.93 36.9156 1308.48 37.6437C1310.07 38.3822 1310.01 39.5807 1309.35 40.7966C1306.7 45.6916 1304.56 50.6583 1303.23 55.7903C1301.6 62.048 1301.2 68.2186 1302.65 74.3368C1302.99 75.7643 1303.43 77.223 1303.27 78.6677C1303.11 80.0862 1302.41 81.5429 1301.66 82.9056C1301.13 83.8804 1299.99 84.0407 1298.77 83.4686C1298.32 83.2605 1297.54 83.0692 1297.13 83.2221C1295.04 84.0235 1293.22 83.6519 1291.44 82.9924C1280.23 78.8383 1268.15 78.7631 1255.71 81.143C1251.99 81.8549 1248.35 83.2886 1244.95 84.7635C1242.87 85.6695 1241.31 87.2961 1239.65 88.4992C1234.74 86.6137 1233.6 83.425 1234.02 79.7975C1234.97 71.616 1241.19 65.68 1250.5 61.2526C1252.64 60.2313 1255.12 59.5649 1257.53 58.9562C1259.57 58.4375 1261.77 58.5254 1263.35 59.5413C1264.23 60.1091 1264.64 61.1283 1264.99 62.0117C1265.08 62.2364 1264.21 62.7726 1263.69 63.0881C1263.36 63.2879 1262.81 63.279 1262.47 63.4788C1257.42 66.4341 1252.69 69.6134 1249.28 73.7048C1248.93 74.1191 1248.64 74.5648 1248.35 75.0051C1248.24 75.1729 1248.18 75.3667 1247.88 76.0269C1255.11 73.0706 1262.31 71.6162 1269.86 71.4533C1277.33 71.301 1284.54 71.9083 1291.56 74.1174Z"/><path fill="#12D0D6" fill-opacity=".2" d="M1051.24 106.15C1050.3 106.153 1049.61 106.16 1048.92 106.157C1036.41 106.119 1031.88 98.6599 1034.51 91.2166C1036 87.0209 1039.11 83.4642 1043.49 80.4847C1050.24 75.9024 1057.82 72.4428 1066.56 70.67C1068.18 70.3409 1069.89 70.1319 1071.53 70.1482C1074.21 70.1667 1076.07 71.6998 1075.86 73.4272C1075.67 75.0028 1073 76.9308 1070.79 77.0994C1070.59 77.1156 1070.33 77.1792 1070.22 77.1115C1068.46 75.9915 1066.89 77.1106 1065.36 77.6539C1059.67 79.6586 1054.69 82.4567 1050.19 85.7349C1046.98 88.0674 1044.66 90.7951 1043.74 94.0211C1042.79 97.3257 1044.67 99.3244 1049.09 99.7513C1050.15 99.8529 1051.26 99.8184 1052.34 99.8676C1054.1 99.941 1055.42 99.6285 1056.6 98.3326C1058.63 96.1081 1062.15 95.6585 1064.54 97.054C1067.02 98.5016 1067.04 101.223 1064.7 103.26C1063.99 103.874 1063.36 104.619 1063.02 105.368C1059.57 113.054 1056.25 120.766 1052.72 128.437C1051.61 130.858 1050.02 133.191 1048.58 135.545C1048.21 136.153 1047.66 136.751 1047.04 137.245C1045.24 138.657 1042.73 138.419 1041.97 136.689C1041.54 135.701 1041.49 134.576 1041.46 133.498C1041.3 127.518 1043.84 121.786 1046.38 116.07C1047.61 113.308 1049.07 110.588 1050.42 107.853C1050.67 107.345 1050.9 106.852 1051.24 106.15Z"/><path fill="#12D0D6" fill-opacity=".2" d="M1196.28 98.8272C1194.01 98.3366 1192.21 97.9807 1190.44 97.5515C1181.55 95.3844 1179.46 90.8536 1184.39 84.5026C1186.44 81.8699 1189.07 79.5861 1192.43 77.813C1197.55 75.114 1203.1 73.1515 1209.21 72.6107C1210.8 72.4701 1212.57 72.9517 1214.02 73.4761C1215.34 73.9537 1215.66 75.0412 1215.01 76.189C1214.4 77.2739 1213.29 77.7533 1211.75 77.7054C1211.19 77.6861 1210.55 77.6827 1210.03 77.8411C1203.05 80.0066 1196.52 82.6521 1192.35 87.6927C1190.43 90.0163 1190.57 90.3979 1193.72 91.3622C1194.87 91.7147 1196.07 91.9991 1197.22 92.3621C1198.77 92.8548 1200.35 93.3159 1201.79 93.9345C1207.87 96.5335 1207.77 100.301 1201.45 103.302C1198.9 104.513 1196.07 105.421 1193.31 106.339C1188.18 108.044 1183.01 109.65 1177.87 111.308C1177.09 111.556 1176.35 111.867 1175.24 112.283C1177.12 112.765 1178.65 113.142 1180.17 113.546C1181.71 113.955 1183 114.574 1183.11 115.939C1183.22 117.279 1182.17 118.234 1180.7 118.934C1179.09 119.708 1177.42 120.435 1175.72 121.099C1169.97 123.34 1165.94 126.82 1162.73 130.875C1162.28 131.43 1162.21 132.137 1161.95 132.797C1159.81 133.316 1158.2 132.808 1157.29 131.272C1156.38 129.731 1156.67 128.155 1157.6 126.567C1159.87 122.657 1163.77 119.872 1168.78 117.849C1169.36 117.617 1169.95 117.395 1170.54 117.163C1170.59 117.142 1170.63 117.09 1170.86 116.885C1170.13 116.693 1169.46 116.533 1168.82 116.336C1164.44 115.009 1163.64 111.516 1167.39 109.025C1169.28 107.774 1171.65 106.846 1173.97 106.07C1180.47 103.896 1187.06 101.889 1193.61 99.803C1194.37 99.5601 1195.1 99.2597 1196.28 98.8272Z"/><path fill="#12D0D6" fill-opacity=".2" d="M1229.15 108.089C1229.34 107.712 1229.56 106.885 1230.11 106.182C1234.67 100.345 1240.08 95.0179 1247.88 91.2384C1249.09 90.6541 1250.41 90.1219 1251.76 89.8145C1254.68 89.152 1257.25 90.0342 1258.68 91.8825C1259.12 92.4568 1259.79 92.9572 1260.5 93.3738C1263.68 95.2537 1266.89 97.1179 1270.15 98.9295C1271.41 99.6271 1272.78 100.262 1274.22 100.755C1276.56 101.554 1277.4 103.477 1275.83 105.25C1275.08 106.1 1274.08 106.867 1273.05 107.555C1268.03 110.913 1263.49 114.574 1259.62 118.677C1259.2 119.117 1258.47 119.517 1257.79 119.692C1254.71 120.48 1252.53 121.978 1251.24 124.143C1250.63 125.16 1249.89 125.298 1248.88 124.783C1247.45 124.065 1245.97 123.368 1244.73 122.487C1240.24 119.282 1235.85 116.008 1231.42 112.756C1229.86 111.609 1228.93 110.251 1229.15 108.089ZM1251.83 115.449C1254.78 110.25 1259.82 106.39 1265.95 102.892C1263.79 101.648 1261.92 100.476 1259.91 99.4298C1256.52 97.6552 1256.61 97.8747 1252.76 99.5027C1248.38 101.357 1245.72 104.227 1243.06 107.165C1242.75 107.506 1242.65 108.265 1242.93 108.5C1245.75 110.789 1248.67 113.004 1251.83 115.449Z"/><path fill="#12D0D6" fill-opacity=".2" d="M1609.75 66.5339C1610.93 64.6258 1612.12 62.7439 1613.26 60.8463C1614.88 58.1468 1615.09 55.4566 1614.01 52.7648C1613.31 50.9877 1611.78 49.8252 1609.38 49.2983C1602.04 47.692 1594.93 48.4292 1588.22 51.8131C1585.99 52.9393 1583.61 54.0869 1583.52 56.5413C1583.47 57.8182 1579.46 58.8919 1577.53 58.3219C1575.53 57.7311 1574.21 56.2069 1574.78 54.3163C1575.27 52.6665 1576.11 50.9321 1577.39 49.5103C1581.76 44.6785 1588.21 42.368 1595.54 41.3214C1596.62 41.1666 1597.72 41.0954 1598.82 41.0347C1600.91 40.9188 1602.24 39.5754 1601.24 38.2962C1598.08 34.2761 1593.77 31.5727 1586.55 33.4039C1582.65 34.3936 1579.11 36.3189 1575.36 37.7216C1574.39 38.0802 1572.87 38.4089 1572.18 38.1022C1571.22 37.6759 1570.29 36.6791 1570.24 35.842C1570.09 33.3882 1571.92 31.4312 1574.56 29.8852C1578.25 27.7135 1582.5 26.6862 1586.96 26.5216C1589.58 26.4252 1592.16 26.7893 1594.78 26.8865C1595.64 26.9206 1596.54 26.7663 1597.45 26.3869C1597.57 26.418 1597.72 26.4176 1597.8 26.4801C1600.74 28.5596 1603.92 30.4813 1606.52 32.771C1609.36 35.2642 1610.79 38.2166 1607.65 41.7053C1613.45 42.955 1618.89 44.3994 1621.14 48.8826C1622.57 51.7513 1622.79 54.7439 1621.33 57.7935C1619.26 62.1269 1613.76 67.098 1609.75 66.5339Z"/><path fill="#12D0D6" fill-opacity=".2" d="M1515.86 54.3961C1515.97 53.255 1515.95 52.1039 1516.23 50.9781C1516.75 48.8678 1518.52 47.6016 1521.36 46.9498C1529.25 45.1324 1537.11 43.2104 1545 41.3616C1546.55 40.996 1548.18 40.5466 1549.72 40.5422C1550.73 40.5393 1552.15 41.1213 1552.48 41.743C1552.8 42.37 1552.37 43.6429 1551.65 44.1473C1550.28 45.1035 1548.56 45.9143 1546.83 46.4269C1541.13 48.1124 1535.39 49.6725 1529.62 51.1909C1528.13 51.5823 1527.86 52.0436 1527.94 53.1579C1528.26 57.631 1528.75 62.1141 1528.44 66.61C1528 72.6393 1526.97 78.6808 1525.98 84.7066C1525.75 86.1201 1524.96 87.6555 1523.83 88.8466C1523.05 89.6599 1521.27 90.2877 1519.9 90.4277C1518.23 90.5947 1517.24 89.5301 1516.76 88.4116C1516.44 87.6695 1516.2 86.8696 1516.18 86.0795C1515.92 75.5258 1515.71 64.9719 1515.49 54.4181C1515.6 54.4073 1515.73 54.4017 1515.86 54.3961Z"/><path fill="#12D0D6" fill-opacity=".2" d="M1211.35 51.6004C1208.29 51.3318 1205.98 50.0041 1205.52 48.0588C1205.04 46.0613 1206.6 43.9742 1209.46 42.9927C1222.96 38.3701 1236.48 33.7894 1249.98 29.1773C1256.05 27.1034 1262.06 24.9355 1268.16 22.9244C1269.66 22.4282 1271.43 22.1615 1273.01 22.1936C1274.93 22.2352 1276.22 23.1891 1276.61 24.6113C1277.01 26.0387 1276.25 27.2444 1274.67 28.196C1274.05 28.5641 1273.35 28.8644 1272.64 29.1333C1258.66 34.4322 1244.69 39.7469 1230.68 44.9936C1226.78 46.4543 1222.76 47.7059 1218.8 49.0726C1217.79 49.4208 1216.85 49.9049 1215.83 50.2427C1214.36 50.7284 1212.85 51.1461 1211.35 51.6004Z"/><path fill="#12D0D6" fill-opacity=".2" d="M1224.42 144.612C1217.3 143.094 1212.16 139.456 1206.47 136.385C1201.28 133.585 1195.71 131.146 1190.2 128.661C1187.54 127.46 1186.36 125.956 1187.25 124.112C1188.12 122.304 1190.63 121.083 1193.58 121.451C1195.78 121.727 1198.1 122.223 1199.87 123.123C1205.81 126.12 1211.47 129.385 1217.32 132.461C1220.94 134.36 1224.72 136.113 1228.44 137.913C1229.68 138.511 1230.6 138.32 1231.67 137.323C1233.49 135.632 1235.53 134.046 1237.65 132.559C1238.56 131.918 1239.88 131.412 1241.08 131.205C1244.4 130.635 1246.78 132.779 1245.58 135.163C1245.31 135.698 1244.89 136.233 1244.41 136.684C1239.8 140.973 1235.19 145.251 1230.52 149.502C1229.7 150.253 1228.66 150.931 1227.59 151.489C1226.19 152.215 1224.64 152.387 1223.25 151.648C1221.94 150.95 1221.65 149.868 1222.14 148.747C1222.72 147.426 1223.56 146.147 1224.42 144.612Z"/><path fill="#12D0D6" fill-opacity=".2" d="M1082.44 124.721C1081.27 125.975 1079.76 127.135 1078.98 128.493C1076.16 133.326 1073.6 138.226 1070.92 143.1C1069.54 145.626 1068.33 148.209 1066.67 150.642C1064.49 153.835 1060.97 155.927 1056.15 156.59C1050.33 157.392 1045.36 154.779 1045.35 150.834C1045.35 150.117 1045.64 149.273 1046.19 148.67C1046.74 148.072 1047.73 147.567 1048.63 147.329C1048.91 147.255 1049.72 148.152 1050.05 148.696C1050.91 150.132 1051.82 151.532 1054.38 151.467C1056.88 151.402 1058.54 150.205 1059.54 148.637C1060.79 146.703 1061.74 144.68 1062.82 142.694C1065.84 137.191 1068.76 131.662 1071.9 126.19C1073.59 123.234 1076.35 120.845 1080.38 119.389C1085.82 117.432 1089.53 118.798 1090.3 123.039C1090.5 124.153 1090.63 125.283 1090.79 126.403C1091 127.773 1092.06 128.597 1093.92 128.461C1096.15 128.297 1098.37 127.883 1100.59 127.531C1101.92 127.323 1103.23 127.011 1104.56 126.771C1105.96 126.521 1106.37 127.143 1106.03 127.96C1105.75 128.615 1105.21 129.339 1104.5 129.78C1101.4 131.715 1097.99 133.195 1093.96 133.573C1088.61 134.07 1084.62 132.056 1083.56 128.229C1083.26 127.151 1083.16 126.032 1082.96 124.934C1082.78 124.861 1082.61 124.793 1082.44 124.721Z"/><path fill="#12D0D6" fill-opacity=".2" d="M857.414 189.979C855.866 188.393 854.132 186.624 852.308 184.756C849.784 185.611 847.157 186.498 844.487 187.4C844.663 188.336 844.998 189.24 844.958 190.151C844.86 192.286 842.415 193.554 839.682 193.018C837.288 192.549 835.722 191.371 834.385 189.946C833.469 188.975 832.516 188.026 831.518 187.107C830.436 186.111 829.849 185.035 830.777 183.729C831.705 182.424 833.254 182.069 835.073 182.121C840.856 182.282 846.152 180.713 851.284 178.663C851.888 178.42 852.379 177.958 852.83 177.544C854.23 176.252 855.789 175.228 858.138 175.425C860.677 175.637 862.17 176.706 862.893 178.478C863.633 180.291 864.475 182.073 865.339 183.85C865.586 184.352 866.053 184.785 866.348 185.155C868.87 184.468 871.219 183.88 873.516 183.183C874.967 182.744 876.242 182.652 877.062 183.654C877.902 184.672 877.182 185.59 876.028 186.31C873.08 188.166 869.941 189.87 867.151 191.84C864.072 194.016 861.202 196.368 858.414 198.746C857.078 199.891 855.92 201.223 857.007 202.827C857.148 203.041 856.629 203.717 856.203 203.944C854.488 204.843 852.11 204.285 851.116 202.755C849.827 200.77 850.246 198.608 851.595 196.689C853.21 194.371 855.407 192.256 857.414 189.979Z"/><path fill="#12D0D6" fill-opacity=".2" d="M1494.96 74.3771C1494.59 78.1457 1494.51 81.3379 1493.87 84.5003C1493.51 86.2491 1492.37 87.9948 1491.29 89.6463C1490.44 90.9412 1489.18 91.1331 1488.15 90.0477C1486.54 88.3464 1484.69 86.5569 1484.09 84.5597C1481.77 76.869 1479.88 69.0724 1480.23 60.9815C1480.3 59.4743 1480.63 57.9297 1481.16 56.4473C1481.96 54.2106 1484.22 52.8227 1487 52.5897C1489.76 52.3568 1492.12 53.3862 1493.21 55.4448C1495.1 59.0499 1495.16 62.9482 1495.19 66.836C1495.21 69.5413 1495.03 72.2524 1494.96 74.3771Z"/><path fill="#12D0D6" fill-opacity=".2" d="M1174.48 160.746C1173.21 166.448 1172.15 171.893 1170.76 177.313C1169.94 180.513 1167.92 181.377 1164.13 179.996C1157.81 177.69 1151.09 176.548 1143.93 176.281C1142.28 176.217 1140.84 175.693 1140.31 174.428C1139.81 173.231 1140.79 172.355 1141.84 171.478C1143.66 169.971 1145.37 168.391 1147.2 166.884C1152.26 162.709 1158.74 160.09 1165.27 157.565C1167.94 156.537 1171.77 157.159 1173.48 158.787C1174.08 159.361 1174.21 160.203 1174.48 160.746ZM1165.06 164.347C1164.79 164.243 1164.52 164.144 1164.24 164.041C1159.74 166.204 1155.02 168.133 1150.79 171.279C1154.79 171.728 1158.33 172.132 1162.27 172.576C1163.23 169.773 1164.14 167.06 1165.06 164.347Z"/><path fill="#12D0D6" fill-opacity=".2" d="M1535.73 77.8447C1536.18 73.2857 1536.61 68.7215 1537.09 64.1624C1537.23 62.7387 1537.36 61.2993 1537.76 59.8958C1538.28 58.0942 1540.19 57.0213 1542.39 57.0569C1544.62 57.0923 1546.1 58.2079 1546.18 60.0496C1546.67 71.5026 1545.93 82.9959 1544.53 94.5015C1544.31 96.3126 1543.39 98.1572 1542.5 99.9179C1541.63 101.642 1540.01 102.453 1538.26 102.327C1536.08 102.165 1535.34 100.98 1535.22 99.5987C1534.99 97.1556 1534.76 94.7021 1534.93 92.2423C1535.24 87.4429 1535.83 82.6428 1536.3 77.843C1536.12 77.8436 1535.92 77.8441 1535.73 77.8447Z"/><path fill="#12D0D6" fill-opacity=".2" d="M1093.75 107.624C1092.26 108.288 1090.99 108.919 1089.65 109.42C1083.51 111.709 1077.48 110.397 1074.93 106.019C1072 100.994 1072.45 95.5766 1074.13 90.1454C1074.33 89.4908 1075.73 88.7123 1076.73 88.474C1078.22 88.1243 1079.43 88.8535 1079.72 89.8835C1080.12 91.3318 1080.19 92.8491 1080.34 94.3453C1080.56 96.5947 1080.5 98.8973 1080.99 101.099C1081.93 105.272 1084.6 105.918 1089.38 103.267C1090.87 102.442 1092.25 101.496 1093.67 100.607C1096.84 98.636 1100.2 99.0868 1101.5 101.799C1102.3 103.445 1102.69 105.218 1103.25 106.938C1103.77 108.522 1104.33 110.095 1104.75 111.7C1105.16 113.201 1106.38 113.873 1108.42 113.94C1109.59 113.978 1110.74 114.153 1112.18 114.295C1110.29 116.776 1107.99 118.415 1104.62 118.854C1101.37 119.277 1098.87 118.19 1097.57 116.211C1096.17 114.08 1095.35 111.712 1094.32 109.438C1094.08 108.874 1093.95 108.283 1093.75 107.624Z"/><path fill="#12D0D6" fill-opacity=".2" d="M988.197 201.577C988.259 201.457 988.313 201.331 988.375 201.21C984.715 198.029 981.062 194.847 977.311 191.588C974.826 194.269 972.466 196.824 969.964 199.526C976.224 200.225 982.211 200.898 988.197 201.577Z"/><path fill="#12D0D6" fill-opacity=".2" d="M920.873 39.1101C921.239 36.9845 922.614 35.3061 924.789 34.0545C926.881 32.845 929.111 31.7449 931.394 30.7546C939.544 27.2201 948.097 24.5374 957.258 23.3547C959.343 23.0871 961.524 23.0599 963.594 23.2162C966.353 23.4228 967.99 24.9618 967.677 26.6947C967.414 28.1449 966.205 29.0694 964.325 29.4882C951.273 32.3983 938.813 36.6202 926.312 40.748C925.83 40.9064 925.346 41.0752 924.895 41.2806C922.354 42.4443 921.402 42.1331 920.977 39.9941C920.917 39.6699 920.9 39.335 920.873 39.1101Z"/><path fill="#12D0D6" fill-opacity=".2" d="M1489.98 106.798C1486.81 106.796 1485.12 104.865 1486.71 102.731C1489.18 99.4375 1492.54 96.6284 1496.7 94.4187C1499.1 93.1507 1501.47 93.2905 1503.65 94.4982C1506.32 95.9767 1508.33 97.8651 1509.77 100.095C1511 102.023 1509.72 104.109 1506.81 104.552C1501.4 105.373 1495.97 106.032 1490.55 106.759C1490.37 106.786 1490.17 106.787 1489.98 106.798Z"/><path fill="#12D0D6" fill-opacity=".2" d="M1432.78 30.103C1430.3 30.1049 1428.73 29.246 1428.48 27.928C1428.24 26.6101 1429.33 25.2622 1431.49 24.7117C1434.9 23.8386 1438.37 23.1222 1441.84 22.3954C1445.55 21.6155 1449.27 20.8671 1453.01 20.1813C1454.05 19.99 1455.22 19.9238 1456.24 20.0674C1458 20.3135 1459.08 21.1948 1459.21 22.5654C1459.33 23.868 1458.53 24.9639 1456.92 25.5651C1455.71 26.0185 1454.34 26.2527 1453.02 26.4972C1446.82 27.6557 1440.6 28.7829 1434.4 29.91C1433.77 30.0217 1433.12 30.0602 1432.78 30.103Z"/><path fill="#12D0D6" fill-opacity=".2" d="M921.075 27.8381C919.496 26.9322 919.302 25.7396 920.519 24.5954C921.727 23.4617 923.141 22.3169 924.765 21.5587C929.362 19.4106 934.364 18.0985 939.642 17.5706C940.534 17.4843 941.455 17.4712 942.324 17.5525C943.802 17.6895 944.953 18.2095 945.19 19.3914C945.419 20.5053 944.649 21.3605 943.388 21.9501C942.328 22.4451 941.207 22.914 940.04 23.2051C934.335 24.6186 928.607 25.9694 922.892 27.341C922.283 27.4893 921.678 27.6742 921.075 27.8381Z"/><path fill="#12D0D6" fill-opacity=".2" d="M885.877 185.188C885.53 183.975 885.263 182.741 884.822 181.555C883.679 178.45 885.569 176.576 890.012 176.621C891.983 176.641 893.969 176.803 895.88 177.07C898.467 177.434 899.336 178.802 897.949 180.533C895.885 183.098 893.677 185.616 891.282 188.03C890.725 188.586 889.06 188.973 888.111 188.845C886.632 188.645 885.452 187.848 885.376 186.54C885.353 186.121 885.453 185.687 885.495 185.263C885.625 185.236 885.754 185.215 885.877 185.188Z"/><path fill="#12D0D6" fill-opacity=".2" d="M1266.86 141.607C1266.86 140.848 1266.97 140.068 1266.83 139.331C1266.05 135.21 1267.94 131.876 1272.7 129.188C1274.14 128.373 1275.16 127.135 1276.36 126.085C1277.83 124.804 1279.57 124.412 1281.16 125.025C1282.67 125.607 1283.25 126.992 1282.38 128.465C1281.8 129.429 1281.07 130.41 1280.13 131.208C1275.98 134.731 1271.74 138.192 1267.52 141.673C1267.29 141.647 1267.08 141.627 1266.86 141.607Z"/><path fill="#12D0D6" fill-opacity=".2" d="M1115.26 128.117C1115.71 126.326 1116.07 124.53 1116.62 122.749C1116.99 121.54 1118.11 120.788 1119.85 120.746C1124.36 120.645 1127.63 122.399 1130.63 124.405C1131.93 125.27 1131.13 126.413 1129.38 126.894C1125.89 127.851 1122.47 128.975 1118.97 129.932C1118.08 130.176 1116.82 130.305 1116.11 130.019C1115.41 129.739 1115.19 128.86 1114.77 128.244C1114.93 128.207 1115.09 128.164 1115.26 128.117Z"/><path fill="#12D0D6" fill-opacity=".2" d="M1421.58 9.94195C1424.25 9.89765 1426.15 11.1271 1426.08 12.8542C1425.99 14.8847 1423.22 16.8602 1420.34 16.9521C1417.69 17.033 1415.71 15.5002 1415.91 13.5007C1416.07 11.7264 1418.85 9.98639 1421.58 9.94195Z"/><path fill="#12D0D6" fill-opacity=".2" d="M1587.1 77.4097C1584.15 77.3815 1582.2 76.0685 1582.45 74.2729C1582.71 72.3203 1584.89 70.8699 1587.53 70.9042C1590.49 70.9376 1592.64 72.3599 1592.37 74.1084C1592.1 75.9041 1589.65 77.4338 1587.1 77.4097Z"/><path fill="#12D0D6" fill-opacity=".2" d="M1011.34 56.8358C1010.41 61.8881 1008.14 66.9808 1003.24 71.2125C999.845 74.1473 995.891 76.8064 991.791 79.2147C989.667 80.461 986.741 81.0135 984.092 81.6281C983.028 81.8771 981.663 81.5985 980.574 81.3086C978.596 80.7857 977.843 79.532 979.005 78.1473C980.639 76.2117 982.528 74.3434 984.646 72.6681C987.37 70.5044 990.504 68.6273 993.308 66.5157C999.038 62.2032 1002.55 57.3005 1001.91 51.2899C1001.7 49.2916 1002.58 48.3001 1004.31 47.8242C1006.11 47.3324 1008.08 47.8501 1009.38 49.2592C1011.38 51.4146 1011.5 53.9626 1011.34 56.8358Z"/><path fill="#12D0D6" fill-opacity=".2" d="M974.015 86.063C973.847 87.5548 971.915 88.7848 969.825 88.7437C967.885 88.7022 966.545 87.5914 966.747 86.1885C966.957 84.7122 968.738 83.5089 970.734 83.4875C972.701 83.4714 974.178 84.6288 974.015 86.063Z"/></svg>