<svg xmlns="http://www.w3.org/2000/svg" version="1.1" xmlns:xlink="http://www.w3.org/1999/xlink" xmlns:svgjs="http://svgjs.dev/svgjs" viewBox="0 0 800 800" opacity="1" width="800" height="800"><g stroke-width="0.5" stroke="hsla(0, 0%, 0%, 1.00)" fill="none"><rect width="44.44444444444444" height="44.44444444444444" x="0" y="0" opacity="0.15"></rect><circle r="3.75" cx="0" cy="0" fill="hsla(0, 0%, 0%, 1.00)" stroke="none"></circle><rect width="44.44444444444444" height="44.44444444444444" x="44.44444444444444" y="0" opacity="0.15"></rect><circle r="3.75" cx="44.44444444444444" cy="0" fill="hsla(0, 0%, 0%, 1.00)" stroke="none"></circle><rect width="44.44444444444444" height="44.44444444444444" x="88.88888888888889" y="0" opacity="0.15"></rect><circle r="3.75" cx="88.88888888888889" cy="0" fill="hsla(0, 0%, 0%, 1.00)" stroke="none"></circle><rect width="44.44444444444444" height="44.44444444444444" x="133.33333333333331" y="0" opacity="0.15"></rect><circle r="3.75" cx="133.33333333333331" cy="0" fill="hsla(0, 0%, 0%, 1.00)" stroke="none"></circle><rect width="44.44444444444444" height="44.44444444444444" x="177.77777777777777" y="0" opacity="0.15"></rect><circle r="3.75" cx="177.77777777777777" cy="0" fill="hsla(0, 0%, 0%, 1.00)" stroke="none"></circle><rect width="44.44444444444444" height="44.44444444444444" x="222.22222222222223" y="0" opacity="0.15"></rect><circle r="3.75" cx="222.22222222222223" cy="0" fill="hsla(0, 0%, 0%, 1.00)" stroke="none"></circle><rect width="44.44444444444444" height="44.44444444444444" x="266.6666666666667" y="0" opacity="0.15"></rect><circle r="3.75" cx="266.6666666666667" cy="0" fill="hsla(0, 0%, 0%, 1.00)" stroke="none"></circle><rect width="44.44444444444444" height="44.44444444444444" x="311.11111111111114" y="0" opacity="0.15"></rect><circle r="3.75" cx="311.11111111111114" cy="0" fill="hsla(0, 0%, 0%, 1.00)" stroke="none"></circle><rect width="44.44444444444444" height="44.44444444444444" x="355.5555555555556" y="0" opacity="0.15"></rect><circle r="3.75" cx="355.5555555555556" cy="0" fill="hsla(0, 0%, 0%, 1.00)" stroke="none"></circle><rect width="44.44444444444444" height="44.44444444444444" x="400.00000000000006" y="0" opacity="0.15"></rect><circle r="3.75" cx="400.00000000000006" cy="0" fill="hsla(0, 0%, 0%, 1.00)" stroke="none"></circle><rect width="44.44444444444444" height="44.44444444444444" x="444.4444444444445" y="0" opacity="0.15"></rect><circle r="3.75" cx="444.4444444444445" cy="0" fill="hsla(0, 0%, 0%, 1.00)" stroke="none"></circle><rect width="44.44444444444444" height="44.44444444444444" x="488.88888888888897" y="0" opacity="0.15"></rect><circle r="3.75" cx="488.88888888888897" cy="0" fill="hsla(0, 0%, 0%, 1.00)" stroke="none"></circle><rect width="44.44444444444444" height="44.44444444444444" x="533.3333333333334" y="0" opacity="0.15"></rect><circle r="3.75" cx="533.3333333333334" cy="0" fill="hsla(0, 0%, 0%, 1.00)" stroke="none"></circle><rect width="44.44444444444444" height="44.44444444444444" x="577.7777777777778" y="0" opacity="0.15"></rect><circle r="3.75" cx="577.7777777777778" cy="0" fill="hsla(0, 0%, 0%, 1.00)" stroke="none"></circle><rect width="44.44444444444444" height="44.44444444444444" x="622.2222222222223" y="0" opacity="0.15"></rect><circle r="3.75" cx="622.2222222222223" cy="0" fill="hsla(0, 0%, 0%, 1.00)" stroke="none"></circle><rect width="44.44444444444444" height="44.44444444444444" x="666.6666666666667" y="0" opacity="0.15"></rect><circle r="3.75" cx="666.6666666666667" cy="0" fill="hsla(0, 0%, 0%, 1.00)" stroke="none"></circle><rect width="44.44444444444444" height="44.44444444444444" x="711.1111111111112" y="0" opacity="0.15"></rect><circle r="3.75" cx="711.1111111111112" cy="0" fill="hsla(0, 0%, 0%, 1.00)" stroke="none"></circle><rect width="44.44444444444444" height="44.44444444444444" x="755.5555555555557" y="0" opacity="0.15"></rect><circle r="3.75" cx="755.5555555555557" cy="0" fill="hsla(0, 0%, 0%, 1.00)" stroke="none"></circle><rect width="44.44444444444444" height="44.44444444444444" x="800.0000000000001" y="0" opacity="0.15"></rect><circle r="3.75" cx="800.0000000000001" cy="0" fill="hsla(0, 0%, 0%, 1.00)" stroke="none"></circle><rect width="44.44444444444444" height="44.44444444444444" x="0" y="44.44444444444444" opacity="0.15"></rect><circle r="3.75" cx="0" cy="44.44444444444444" fill="hsla(0, 0%, 0%, 1.00)" stroke="none"></circle><rect width="44.44444444444444" height="44.44444444444444" x="44.44444444444444" y="44.44444444444444" opacity="0.15"></rect><circle r="3.75" cx="44.44444444444444" cy="44.44444444444444" fill="hsla(0, 0%, 0%, 1.00)" stroke="none"></circle><rect width="44.44444444444444" height="44.44444444444444" x="88.88888888888889" y="44.44444444444444" opacity="0.15"></rect><circle r="3.75" cx="88.88888888888889" cy="44.44444444444444" fill="hsla(0, 0%, 0%, 1.00)" stroke="none"></circle><rect width="44.44444444444444" height="44.44444444444444" x="133.33333333333331" y="44.44444444444444" opacity="0.15"></rect><circle r="3.75" cx="133.33333333333331" cy="44.44444444444444" fill="hsla(0, 0%, 0%, 1.00)" stroke="none"></circle><rect width="44.44444444444444" height="44.44444444444444" x="177.77777777777777" y="44.44444444444444" opacity="0.15"></rect><circle r="3.75" cx="177.77777777777777" cy="44.44444444444444" fill="hsla(0, 0%, 0%, 1.00)" stroke="none"></circle><rect width="44.44444444444444" height="44.44444444444444" x="222.22222222222223" y="44.44444444444444" opacity="0.15"></rect><circle r="3.75" cx="222.22222222222223" cy="44.44444444444444" fill="hsla(0, 0%, 0%, 1.00)" stroke="none"></circle><rect width="44.44444444444444" height="44.44444444444444" x="266.6666666666667" y="44.44444444444444" opacity="0.15"></rect><circle r="3.75" cx="266.6666666666667" cy="44.44444444444444" fill="hsla(0, 0%, 0%, 1.00)" stroke="none"></circle><rect width="44.44444444444444" height="44.44444444444444" x="311.11111111111114" y="44.44444444444444" opacity="0.15"></rect><circle r="3.75" cx="311.11111111111114" cy="44.44444444444444" fill="hsla(0, 0%, 0%, 1.00)" stroke="none"></circle><rect width="44.44444444444444" height="44.44444444444444" x="355.5555555555556" y="44.44444444444444" opacity="0.15"></rect><circle r="3.75" cx="355.5555555555556" cy="44.44444444444444" fill="hsla(0, 0%, 0%, 1.00)" stroke="none"></circle><rect width="44.44444444444444" height="44.44444444444444" x="400.00000000000006" y="44.44444444444444" opacity="0.15"></rect><circle r="3.75" cx="400.00000000000006" cy="44.44444444444444" fill="hsla(0, 0%, 0%, 1.00)" stroke="none"></circle><rect width="44.44444444444444" height="44.44444444444444" x="444.4444444444445" y="44.44444444444444" opacity="0.15"></rect><circle r="3.75" cx="444.4444444444445" cy="44.44444444444444" fill="hsla(0, 0%, 0%, 1.00)" stroke="none"></circle><rect width="44.44444444444444" height="44.44444444444444" x="488.88888888888897" y="44.44444444444444" opacity="0.15"></rect><circle r="3.75" cx="488.88888888888897" cy="44.44444444444444" fill="hsla(0, 0%, 0%, 1.00)" stroke="none"></circle><rect width="44.44444444444444" height="44.44444444444444" x="533.3333333333334" y="44.44444444444444" opacity="0.15"></rect><circle r="3.75" cx="533.3333333333334" cy="44.44444444444444" fill="hsla(0, 0%, 0%, 1.00)" stroke="none"></circle><rect width="44.44444444444444" height="44.44444444444444" x="577.7777777777778" y="44.44444444444444" opacity="0.15"></rect><circle r="3.75" cx="577.7777777777778" cy="44.44444444444444" fill="hsla(0, 0%, 0%, 1.00)" stroke="none"></circle><rect width="44.44444444444444" height="44.44444444444444" x="622.2222222222223" y="44.44444444444444" opacity="0.15"></rect><circle r="3.75" cx="622.2222222222223" cy="44.44444444444444" fill="hsla(0, 0%, 0%, 1.00)" stroke="none"></circle><rect width="44.44444444444444" height="44.44444444444444" x="666.6666666666667" y="44.44444444444444" opacity="0.15"></rect><circle r="3.75" cx="666.6666666666667" cy="44.44444444444444" fill="hsla(0, 0%, 0%, 1.00)" stroke="none"></circle><rect width="44.44444444444444" height="44.44444444444444" x="711.1111111111112" y="44.44444444444444" opacity="0.15"></rect><circle r="3.75" cx="711.1111111111112" cy="44.44444444444444" fill="hsla(0, 0%, 0%, 1.00)" stroke="none"></circle><rect width="44.44444444444444" height="44.44444444444444" x="755.5555555555557" y="44.44444444444444" opacity="0.15"></rect><circle r="3.75" cx="755.5555555555557" cy="44.44444444444444" fill="hsla(0, 0%, 0%, 1.00)" stroke="none"></circle><rect width="44.44444444444444" height="44.44444444444444" x="800.0000000000001" y="44.44444444444444" opacity="0.15"></rect><circle r="3.75" cx="800.0000000000001" cy="44.44444444444444" fill="hsla(0, 0%, 0%, 1.00)" stroke="none"></circle><rect width="44.44444444444444" height="44.44444444444444" x="0" y="88.88888888888889" opacity="0.15"></rect><circle r="3.75" cx="0" cy="88.88888888888889" fill="hsla(0, 0%, 0%, 1.00)" stroke="none"></circle><rect width="44.44444444444444" height="44.44444444444444" x="44.44444444444444" y="88.88888888888889" opacity="0.15"></rect><circle r="3.75" cx="44.44444444444444" cy="88.88888888888889" fill="hsla(0, 0%, 0%, 1.00)" stroke="none"></circle><rect width="44.44444444444444" height="44.44444444444444" x="88.88888888888889" y="88.88888888888889" opacity="0.15"></rect><circle r="3.75" cx="88.88888888888889" cy="88.88888888888889" fill="hsla(0, 0%, 0%, 1.00)" stroke="none"></circle><rect width="44.44444444444444" height="44.44444444444444" x="133.33333333333331" y="88.88888888888889" opacity="0.15"></rect><circle r="3.75" cx="133.33333333333331" cy="88.88888888888889" fill="hsla(0, 0%, 0%, 1.00)" stroke="none"></circle><rect width="44.44444444444444" height="44.44444444444444" x="177.77777777777777" y="88.88888888888889" opacity="0.15"></rect><circle r="3.75" cx="177.77777777777777" cy="88.88888888888889" fill="hsla(0, 0%, 0%, 1.00)" stroke="none"></circle><rect width="44.44444444444444" height="44.44444444444444" x="222.22222222222223" y="88.88888888888889" opacity="0.15"></rect><circle r="3.75" cx="222.22222222222223" cy="88.88888888888889" fill="hsla(0, 0%, 0%, 1.00)" stroke="none"></circle><rect width="44.44444444444444" height="44.44444444444444" x="266.6666666666667" y="88.88888888888889" opacity="0.15"></rect><circle r="3.75" cx="266.6666666666667" cy="88.88888888888889" fill="hsla(0, 0%, 0%, 1.00)" stroke="none"></circle><rect width="44.44444444444444" height="44.44444444444444" x="311.11111111111114" y="88.88888888888889" opacity="0.15"></rect><circle r="3.75" cx="311.11111111111114" cy="88.88888888888889" fill="hsla(0, 0%, 0%, 1.00)" stroke="none"></circle><rect width="44.44444444444444" height="44.44444444444444" x="355.5555555555556" y="88.88888888888889" opacity="0.15"></rect><circle r="3.75" cx="355.5555555555556" cy="88.88888888888889" fill="hsla(0, 0%, 0%, 1.00)" stroke="none"></circle><rect width="44.44444444444444" height="44.44444444444444" x="400.00000000000006" y="88.88888888888889" opacity="0.15"></rect><circle r="3.75" cx="400.00000000000006" cy="88.88888888888889" fill="hsla(0, 0%, 0%, 1.00)" stroke="none"></circle><rect width="44.44444444444444" height="44.44444444444444" x="444.4444444444445" y="88.88888888888889" opacity="0.15"></rect><circle r="3.75" cx="444.4444444444445" cy="88.88888888888889" fill="hsla(0, 0%, 0%, 1.00)" stroke="none"></circle><rect width="44.44444444444444" height="44.44444444444444" x="488.88888888888897" y="88.88888888888889" opacity="0.15"></rect><circle r="3.75" cx="488.88888888888897" cy="88.88888888888889" fill="hsla(0, 0%, 0%, 1.00)" stroke="none"></circle><rect width="44.44444444444444" height="44.44444444444444" x="533.3333333333334" y="88.88888888888889" opacity="0.15"></rect><circle r="3.75" cx="533.3333333333334" cy="88.88888888888889" fill="hsla(0, 0%, 0%, 1.00)" stroke="none"></circle><rect width="44.44444444444444" height="44.44444444444444" x="577.7777777777778" y="88.88888888888889" opacity="0.15"></rect><circle r="3.75" cx="577.7777777777778" cy="88.88888888888889" fill="hsla(0, 0%, 0%, 1.00)" stroke="none"></circle><rect width="44.44444444444444" height="44.44444444444444" x="622.2222222222223" y="88.88888888888889" opacity="0.15"></rect><circle r="3.75" cx="622.2222222222223" cy="88.88888888888889" fill="hsla(0, 0%, 0%, 1.00)" stroke="none"></circle><rect width="44.44444444444444" height="44.44444444444444" x="666.6666666666667" y="88.88888888888889" opacity="0.15"></rect><circle r="3.75" cx="666.6666666666667" cy="88.88888888888889" fill="hsla(0, 0%, 0%, 1.00)" stroke="none"></circle><rect width="44.44444444444444" height="44.44444444444444" x="711.1111111111112" y="88.88888888888889" opacity="0.15"></rect><circle r="3.75" cx="711.1111111111112" cy="88.88888888888889" fill="hsla(0, 0%, 0%, 1.00)" stroke="none"></circle><rect width="44.44444444444444" height="44.44444444444444" x="755.5555555555557" y="88.88888888888889" opacity="0.15"></rect><circle r="3.75" cx="755.5555555555557" cy="88.88888888888889" fill="hsla(0, 0%, 0%, 1.00)" stroke="none"></circle><rect width="44.44444444444444" height="44.44444444444444" x="800.0000000000001" y="88.88888888888889" opacity="0.15"></rect><circle r="3.75" cx="800.0000000000001" cy="88.88888888888889" fill="hsla(0, 0%, 0%, 1.00)" stroke="none"></circle><rect width="44.44444444444444" height="44.44444444444444" x="0" y="133.33333333333331" opacity="0.15"></rect><circle r="3.75" cx="0" cy="133.33333333333331" fill="hsla(0, 0%, 0%, 1.00)" stroke="none"></circle><rect width="44.44444444444444" height="44.44444444444444" x="44.44444444444444" y="133.33333333333331" opacity="0.15"></rect><circle r="3.75" cx="44.44444444444444" cy="133.33333333333331" fill="hsla(0, 0%, 0%, 1.00)" stroke="none"></circle><rect width="44.44444444444444" height="44.44444444444444" x="88.88888888888889" y="133.33333333333331" opacity="0.15"></rect><circle r="3.75" cx="88.88888888888889" cy="133.33333333333331" fill="hsla(0, 0%, 0%, 1.00)" stroke="none"></circle><rect width="44.44444444444444" height="44.44444444444444" x="133.33333333333331" y="133.33333333333331" opacity="0.15"></rect><circle r="3.75" cx="133.33333333333331" cy="133.33333333333331" fill="hsla(0, 0%, 0%, 1.00)" stroke="none"></circle><rect width="44.44444444444444" height="44.44444444444444" x="177.77777777777777" y="133.33333333333331" opacity="0.15"></rect><circle r="3.75" cx="177.77777777777777" cy="133.33333333333331" fill="hsla(0, 0%, 0%, 1.00)" stroke="none"></circle><rect width="44.44444444444444" height="44.44444444444444" x="222.22222222222223" y="133.33333333333331" opacity="0.15"></rect><circle r="3.75" cx="222.22222222222223" cy="133.33333333333331" fill="hsla(0, 0%, 0%, 1.00)" stroke="none"></circle><rect width="44.44444444444444" height="44.44444444444444" x="266.6666666666667" y="133.33333333333331" opacity="0.15"></rect><circle r="3.75" cx="266.6666666666667" cy="133.33333333333331" fill="hsla(0, 0%, 0%, 1.00)" stroke="none"></circle><rect width="44.44444444444444" height="44.44444444444444" x="311.11111111111114" y="133.33333333333331" opacity="0.15"></rect><circle r="3.75" cx="311.11111111111114" cy="133.33333333333331" fill="hsla(0, 0%, 0%, 1.00)" stroke="none"></circle><rect width="44.44444444444444" height="44.44444444444444" x="355.5555555555556" y="133.33333333333331" opacity="0.15"></rect><circle r="3.75" cx="355.5555555555556" cy="133.33333333333331" fill="hsla(0, 0%, 0%, 1.00)" stroke="none"></circle><rect width="44.44444444444444" height="44.44444444444444" x="400.00000000000006" y="133.33333333333331" opacity="0.15"></rect><circle r="3.75" cx="400.00000000000006" cy="133.33333333333331" fill="hsla(0, 0%, 0%, 1.00)" stroke="none"></circle><rect width="44.44444444444444" height="44.44444444444444" x="444.4444444444445" y="133.33333333333331" opacity="0.15"></rect><circle r="3.75" cx="444.4444444444445" cy="133.33333333333331" fill="hsla(0, 0%, 0%, 1.00)" stroke="none"></circle><rect width="44.44444444444444" height="44.44444444444444" x="488.88888888888897" y="133.33333333333331" opacity="0.15"></rect><circle r="3.75" cx="488.88888888888897" cy="133.33333333333331" fill="hsla(0, 0%, 0%, 1.00)" stroke="none"></circle><rect width="44.44444444444444" height="44.44444444444444" x="533.3333333333334" y="133.33333333333331" opacity="0.15"></rect><circle r="3.75" cx="533.3333333333334" cy="133.33333333333331" fill="hsla(0, 0%, 0%, 1.00)" stroke="none"></circle><rect width="44.44444444444444" height="44.44444444444444" x="577.7777777777778" y="133.33333333333331" opacity="0.15"></rect><circle r="3.75" cx="577.7777777777778" cy="133.33333333333331" fill="hsla(0, 0%, 0%, 1.00)" stroke="none"></circle><rect width="44.44444444444444" height="44.44444444444444" x="622.2222222222223" y="133.33333333333331" opacity="0.15"></rect><circle r="3.75" cx="622.2222222222223" cy="133.33333333333331" fill="hsla(0, 0%, 0%, 1.00)" stroke="none"></circle><rect width="44.44444444444444" height="44.44444444444444" x="666.6666666666667" y="133.33333333333331" opacity="0.15"></rect><circle r="3.75" cx="666.6666666666667" cy="133.33333333333331" fill="hsla(0, 0%, 0%, 1.00)" stroke="none"></circle><rect width="44.44444444444444" height="44.44444444444444" x="711.1111111111112" y="133.33333333333331" opacity="0.15"></rect><circle r="3.75" cx="711.1111111111112" cy="133.33333333333331" fill="hsla(0, 0%, 0%, 1.00)" stroke="none"></circle><rect width="44.44444444444444" height="44.44444444444444" x="755.5555555555557" y="133.33333333333331" opacity="0.15"></rect><circle r="3.75" cx="755.5555555555557" cy="133.33333333333331" fill="hsla(0, 0%, 0%, 1.00)" stroke="none"></circle><rect width="44.44444444444444" height="44.44444444444444" x="800.0000000000001" y="133.33333333333331" opacity="0.15"></rect><circle r="3.75" cx="800.0000000000001" cy="133.33333333333331" fill="hsla(0, 0%, 0%, 1.00)" stroke="none"></circle><rect width="44.44444444444444" height="44.44444444444444" x="0" y="177.77777777777777" opacity="0.15"></rect><circle r="3.75" cx="0" cy="177.77777777777777" fill="hsla(0, 0%, 0%, 1.00)" stroke="none"></circle><rect width="44.44444444444444" height="44.44444444444444" x="44.44444444444444" y="177.77777777777777" opacity="0.15"></rect><circle r="3.75" cx="44.44444444444444" cy="177.77777777777777" fill="hsla(0, 0%, 0%, 1.00)" stroke="none"></circle><rect width="44.44444444444444" height="44.44444444444444" x="88.88888888888889" y="177.77777777777777" opacity="0.15"></rect><circle r="3.75" cx="88.88888888888889" cy="177.77777777777777" fill="hsla(0, 0%, 0%, 1.00)" stroke="none"></circle><rect width="44.44444444444444" height="44.44444444444444" x="133.33333333333331" y="177.77777777777777" opacity="0.15"></rect><circle r="3.75" cx="133.33333333333331" cy="177.77777777777777" fill="hsla(0, 0%, 0%, 1.00)" stroke="none"></circle><rect width="44.44444444444444" height="44.44444444444444" x="177.77777777777777" y="177.77777777777777" opacity="0.15"></rect><circle r="3.75" cx="177.77777777777777" cy="177.77777777777777" fill="hsla(0, 0%, 0%, 1.00)" stroke="none"></circle><rect width="44.44444444444444" height="44.44444444444444" x="222.22222222222223" y="177.77777777777777" opacity="0.15"></rect><circle r="3.75" cx="222.22222222222223" cy="177.77777777777777" fill="hsla(0, 0%, 0%, 1.00)" stroke="none"></circle><rect width="44.44444444444444" height="44.44444444444444" x="266.6666666666667" y="177.77777777777777" opacity="0.15"></rect><circle r="3.75" cx="266.6666666666667" cy="177.77777777777777" fill="hsla(0, 0%, 0%, 1.00)" stroke="none"></circle><rect width="44.44444444444444" height="44.44444444444444" x="311.11111111111114" y="177.77777777777777" opacity="0.15"></rect><circle r="3.75" cx="311.11111111111114" cy="177.77777777777777" fill="hsla(0, 0%, 0%, 1.00)" stroke="none"></circle><rect width="44.44444444444444" height="44.44444444444444" x="355.5555555555556" y="177.77777777777777" opacity="0.15"></rect><circle r="3.75" cx="355.5555555555556" cy="177.77777777777777" fill="hsla(0, 0%, 0%, 1.00)" stroke="none"></circle><rect width="44.44444444444444" height="44.44444444444444" x="400.00000000000006" y="177.77777777777777" opacity="0.15"></rect><circle r="3.75" cx="400.00000000000006" cy="177.77777777777777" fill="hsla(0, 0%, 0%, 1.00)" stroke="none"></circle><rect width="44.44444444444444" height="44.44444444444444" x="444.4444444444445" y="177.77777777777777" opacity="0.15"></rect><circle r="3.75" cx="444.4444444444445" cy="177.77777777777777" fill="hsla(0, 0%, 0%, 1.00)" stroke="none"></circle><rect width="44.44444444444444" height="44.44444444444444" x="488.88888888888897" y="177.77777777777777" opacity="0.15"></rect><circle r="3.75" cx="488.88888888888897" cy="177.77777777777777" fill="hsla(0, 0%, 0%, 1.00)" stroke="none"></circle><rect width="44.44444444444444" height="44.44444444444444" x="533.3333333333334" y="177.77777777777777" opacity="0.15"></rect><circle r="3.75" cx="533.3333333333334" cy="177.77777777777777" fill="hsla(0, 0%, 0%, 1.00)" stroke="none"></circle><rect width="44.44444444444444" height="44.44444444444444" x="577.7777777777778" y="177.77777777777777" opacity="0.15"></rect><circle r="3.75" cx="577.7777777777778" cy="177.77777777777777" fill="hsla(0, 0%, 0%, 1.00)" stroke="none"></circle><rect width="44.44444444444444" height="44.44444444444444" x="622.2222222222223" y="177.77777777777777" opacity="0.15"></rect><circle r="3.75" cx="622.2222222222223" cy="177.77777777777777" fill="hsla(0, 0%, 0%, 1.00)" stroke="none"></circle><rect width="44.44444444444444" height="44.44444444444444" x="666.6666666666667" y="177.77777777777777" opacity="0.15"></rect><circle r="3.75" cx="666.6666666666667" cy="177.77777777777777" fill="hsla(0, 0%, 0%, 1.00)" stroke="none"></circle><rect width="44.44444444444444" height="44.44444444444444" x="711.1111111111112" y="177.77777777777777" opacity="0.15"></rect><circle r="3.75" cx="711.1111111111112" cy="177.77777777777777" fill="hsla(0, 0%, 0%, 1.00)" stroke="none"></circle><rect width="44.44444444444444" height="44.44444444444444" x="755.5555555555557" y="177.77777777777777" opacity="0.15"></rect><circle r="3.75" cx="755.5555555555557" cy="177.77777777777777" fill="hsla(0, 0%, 0%, 1.00)" stroke="none"></circle><rect width="44.44444444444444" height="44.44444444444444" x="800.0000000000001" y="177.77777777777777" opacity="0.15"></rect><circle r="3.75" cx="800.0000000000001" cy="177.77777777777777" fill="hsla(0, 0%, 0%, 1.00)" stroke="none"></circle><rect width="44.44444444444444" height="44.44444444444444" x="0" y="222.22222222222223" opacity="0.15"></rect><circle r="3.75" cx="0" cy="222.22222222222223" fill="hsla(0, 0%, 0%, 1.00)" stroke="none"></circle><rect width="44.44444444444444" height="44.44444444444444" x="44.44444444444444" y="222.22222222222223" opacity="0.15"></rect><circle r="3.75" cx="44.44444444444444" cy="222.22222222222223" fill="hsla(0, 0%, 0%, 1.00)" stroke="none"></circle><rect width="44.44444444444444" height="44.44444444444444" x="88.88888888888889" y="222.22222222222223" opacity="0.15"></rect><circle r="3.75" cx="88.88888888888889" cy="222.22222222222223" fill="hsla(0, 0%, 0%, 1.00)" stroke="none"></circle><rect width="44.44444444444444" height="44.44444444444444" x="133.33333333333331" y="222.22222222222223" opacity="0.15"></rect><circle r="3.75" cx="133.33333333333331" cy="222.22222222222223" fill="hsla(0, 0%, 0%, 1.00)" stroke="none"></circle><rect width="44.44444444444444" height="44.44444444444444" x="177.77777777777777" y="222.22222222222223" opacity="0.15"></rect><circle r="3.75" cx="177.77777777777777" cy="222.22222222222223" fill="hsla(0, 0%, 0%, 1.00)" stroke="none"></circle><rect width="44.44444444444444" height="44.44444444444444" x="222.22222222222223" y="222.22222222222223" opacity="0.15"></rect><circle r="3.75" cx="222.22222222222223" cy="222.22222222222223" fill="hsla(0, 0%, 0%, 1.00)" stroke="none"></circle><rect width="44.44444444444444" height="44.44444444444444" x="266.6666666666667" y="222.22222222222223" opacity="0.15"></rect><circle r="3.75" cx="266.6666666666667" cy="222.22222222222223" fill="hsla(0, 0%, 0%, 1.00)" stroke="none"></circle><rect width="44.44444444444444" height="44.44444444444444" x="311.11111111111114" y="222.22222222222223" opacity="0.15"></rect><circle r="3.75" cx="311.11111111111114" cy="222.22222222222223" fill="hsla(0, 0%, 0%, 1.00)" stroke="none"></circle><rect width="44.44444444444444" height="44.44444444444444" x="355.5555555555556" y="222.22222222222223" opacity="0.15"></rect><circle r="3.75" cx="355.5555555555556" cy="222.22222222222223" fill="hsla(0, 0%, 0%, 1.00)" stroke="none"></circle><rect width="44.44444444444444" height="44.44444444444444" x="400.00000000000006" y="222.22222222222223" opacity="0.15"></rect><circle r="3.75" cx="400.00000000000006" cy="222.22222222222223" fill="hsla(0, 0%, 0%, 1.00)" stroke="none"></circle><rect width="44.44444444444444" height="44.44444444444444" x="444.4444444444445" y="222.22222222222223" opacity="0.15"></rect><circle r="3.75" cx="444.4444444444445" cy="222.22222222222223" fill="hsla(0, 0%, 0%, 1.00)" stroke="none"></circle><rect width="44.44444444444444" height="44.44444444444444" x="488.88888888888897" y="222.22222222222223" opacity="0.15"></rect><circle r="3.75" cx="488.88888888888897" cy="222.22222222222223" fill="hsla(0, 0%, 0%, 1.00)" stroke="none"></circle><rect width="44.44444444444444" height="44.44444444444444" x="533.3333333333334" y="222.22222222222223" opacity="0.15"></rect><circle r="3.75" cx="533.3333333333334" cy="222.22222222222223" fill="hsla(0, 0%, 0%, 1.00)" stroke="none"></circle><rect width="44.44444444444444" height="44.44444444444444" x="577.7777777777778" y="222.22222222222223" opacity="0.15"></rect><circle r="3.75" cx="577.7777777777778" cy="222.22222222222223" fill="hsla(0, 0%, 0%, 1.00)" stroke="none"></circle><rect width="44.44444444444444" height="44.44444444444444" x="622.2222222222223" y="222.22222222222223" opacity="0.15"></rect><circle r="3.75" cx="622.2222222222223" cy="222.22222222222223" fill="hsla(0, 0%, 0%, 1.00)" stroke="none"></circle><rect width="44.44444444444444" height="44.44444444444444" x="666.6666666666667" y="222.22222222222223" opacity="0.15"></rect><circle r="3.75" cx="666.6666666666667" cy="222.22222222222223" fill="hsla(0, 0%, 0%, 1.00)" stroke="none"></circle><rect width="44.44444444444444" height="44.44444444444444" x="711.1111111111112" y="222.22222222222223" opacity="0.15"></rect><circle r="3.75" cx="711.1111111111112" cy="222.22222222222223" fill="hsla(0, 0%, 0%, 1.00)" stroke="none"></circle><rect width="44.44444444444444" height="44.44444444444444" x="755.5555555555557" y="222.22222222222223" opacity="0.15"></rect><circle r="3.75" cx="755.5555555555557" cy="222.22222222222223" fill="hsla(0, 0%, 0%, 1.00)" stroke="none"></circle><rect width="44.44444444444444" height="44.44444444444444" x="800.0000000000001" y="222.22222222222223" opacity="0.15"></rect><circle r="3.75" cx="800.0000000000001" cy="222.22222222222223" fill="hsla(0, 0%, 0%, 1.00)" stroke="none"></circle><rect width="44.44444444444444" height="44.44444444444444" x="0" y="266.6666666666667" opacity="0.15"></rect><circle r="3.75" cx="0" cy="266.6666666666667" fill="hsla(0, 0%, 0%, 1.00)" stroke="none"></circle><rect width="44.44444444444444" height="44.44444444444444" x="44.44444444444444" y="266.6666666666667" opacity="0.15"></rect><circle r="3.75" cx="44.44444444444444" cy="266.6666666666667" fill="hsla(0, 0%, 0%, 1.00)" stroke="none"></circle><rect width="44.44444444444444" height="44.44444444444444" x="88.88888888888889" y="266.6666666666667" opacity="0.15"></rect><circle r="3.75" cx="88.88888888888889" cy="266.6666666666667" fill="hsla(0, 0%, 0%, 1.00)" stroke="none"></circle><rect width="44.44444444444444" height="44.44444444444444" x="133.33333333333331" y="266.6666666666667" opacity="0.15"></rect><circle r="3.75" cx="133.33333333333331" cy="266.6666666666667" fill="hsla(0, 0%, 0%, 1.00)" stroke="none"></circle><rect width="44.44444444444444" height="44.44444444444444" x="177.77777777777777" y="266.6666666666667" opacity="0.15"></rect><circle r="3.75" cx="177.77777777777777" cy="266.6666666666667" fill="hsla(0, 0%, 0%, 1.00)" stroke="none"></circle><rect width="44.44444444444444" height="44.44444444444444" x="222.22222222222223" y="266.6666666666667" opacity="0.15"></rect><circle r="3.75" cx="222.22222222222223" cy="266.6666666666667" fill="hsla(0, 0%, 0%, 1.00)" stroke="none"></circle><rect width="44.44444444444444" height="44.44444444444444" x="266.6666666666667" y="266.6666666666667" opacity="0.15"></rect><circle r="3.75" cx="266.6666666666667" cy="266.6666666666667" fill="hsla(0, 0%, 0%, 1.00)" stroke="none"></circle><rect width="44.44444444444444" height="44.44444444444444" x="311.11111111111114" y="266.6666666666667" opacity="0.15"></rect><circle r="3.75" cx="311.11111111111114" cy="266.6666666666667" fill="hsla(0, 0%, 0%, 1.00)" stroke="none"></circle><rect width="44.44444444444444" height="44.44444444444444" x="355.5555555555556" y="266.6666666666667" opacity="0.15"></rect><circle r="3.75" cx="355.5555555555556" cy="266.6666666666667" fill="hsla(0, 0%, 0%, 1.00)" stroke="none"></circle><rect width="44.44444444444444" height="44.44444444444444" x="400.00000000000006" y="266.6666666666667" opacity="0.15"></rect><circle r="3.75" cx="400.00000000000006" cy="266.6666666666667" fill="hsla(0, 0%, 0%, 1.00)" stroke="none"></circle><rect width="44.44444444444444" height="44.44444444444444" x="444.4444444444445" y="266.6666666666667" opacity="0.15"></rect><circle r="3.75" cx="444.4444444444445" cy="266.6666666666667" fill="hsla(0, 0%, 0%, 1.00)" stroke="none"></circle><rect width="44.44444444444444" height="44.44444444444444" x="488.88888888888897" y="266.6666666666667" opacity="0.15"></rect><circle r="3.75" cx="488.88888888888897" cy="266.6666666666667" fill="hsla(0, 0%, 0%, 1.00)" stroke="none"></circle><rect width="44.44444444444444" height="44.44444444444444" x="533.3333333333334" y="266.6666666666667" opacity="0.15"></rect><circle r="3.75" cx="533.3333333333334" cy="266.6666666666667" fill="hsla(0, 0%, 0%, 1.00)" stroke="none"></circle><rect width="44.44444444444444" height="44.44444444444444" x="577.7777777777778" y="266.6666666666667" opacity="0.15"></rect><circle r="3.75" cx="577.7777777777778" cy="266.6666666666667" fill="hsla(0, 0%, 0%, 1.00)" stroke="none"></circle><rect width="44.44444444444444" height="44.44444444444444" x="622.2222222222223" y="266.6666666666667" opacity="0.15"></rect><circle r="3.75" cx="622.2222222222223" cy="266.6666666666667" fill="hsla(0, 0%, 0%, 1.00)" stroke="none"></circle><rect width="44.44444444444444" height="44.44444444444444" x="666.6666666666667" y="266.6666666666667" opacity="0.15"></rect><circle r="3.75" cx="666.6666666666667" cy="266.6666666666667" fill="hsla(0, 0%, 0%, 1.00)" stroke="none"></circle><rect width="44.44444444444444" height="44.44444444444444" x="711.1111111111112" y="266.6666666666667" opacity="0.15"></rect><circle r="3.75" cx="711.1111111111112" cy="266.6666666666667" fill="hsla(0, 0%, 0%, 1.00)" stroke="none"></circle><rect width="44.44444444444444" height="44.44444444444444" x="755.5555555555557" y="266.6666666666667" opacity="0.15"></rect><circle r="3.75" cx="755.5555555555557" cy="266.6666666666667" fill="hsla(0, 0%, 0%, 1.00)" stroke="none"></circle><rect width="44.44444444444444" height="44.44444444444444" x="800.0000000000001" y="266.6666666666667" opacity="0.15"></rect><circle r="3.75" cx="800.0000000000001" cy="266.6666666666667" fill="hsla(0, 0%, 0%, 1.00)" stroke="none"></circle><rect width="44.44444444444444" height="44.44444444444444" x="0" y="311.11111111111114" opacity="0.15"></rect><circle r="3.75" cx="0" cy="311.11111111111114" fill="hsla(0, 0%, 0%, 1.00)" stroke="none"></circle><rect width="44.44444444444444" height="44.44444444444444" x="44.44444444444444" y="311.11111111111114" opacity="0.15"></rect><circle r="3.75" cx="44.44444444444444" cy="311.11111111111114" fill="hsla(0, 0%, 0%, 1.00)" stroke="none"></circle><rect width="44.44444444444444" height="44.44444444444444" x="88.88888888888889" y="311.11111111111114" opacity="0.15"></rect><circle r="3.75" cx="88.88888888888889" cy="311.11111111111114" fill="hsla(0, 0%, 0%, 1.00)" stroke="none"></circle><rect width="44.44444444444444" height="44.44444444444444" x="133.33333333333331" y="311.11111111111114" opacity="0.15"></rect><circle r="3.75" cx="133.33333333333331" cy="311.11111111111114" fill="hsla(0, 0%, 0%, 1.00)" stroke="none"></circle><rect width="44.44444444444444" height="44.44444444444444" x="177.77777777777777" y="311.11111111111114" opacity="0.15"></rect><circle r="3.75" cx="177.77777777777777" cy="311.11111111111114" fill="hsla(0, 0%, 0%, 1.00)" stroke="none"></circle><rect width="44.44444444444444" height="44.44444444444444" x="222.22222222222223" y="311.11111111111114" opacity="0.15"></rect><circle r="3.75" cx="222.22222222222223" cy="311.11111111111114" fill="hsla(0, 0%, 0%, 1.00)" stroke="none"></circle><rect width="44.44444444444444" height="44.44444444444444" x="266.6666666666667" y="311.11111111111114" opacity="0.15"></rect><circle r="3.75" cx="266.6666666666667" cy="311.11111111111114" fill="hsla(0, 0%, 0%, 1.00)" stroke="none"></circle><rect width="44.44444444444444" height="44.44444444444444" x="311.11111111111114" y="311.11111111111114" opacity="0.15"></rect><circle r="3.75" cx="311.11111111111114" cy="311.11111111111114" fill="hsla(0, 0%, 0%, 1.00)" stroke="none"></circle><rect width="44.44444444444444" height="44.44444444444444" x="355.5555555555556" y="311.11111111111114" opacity="0.15"></rect><circle r="3.75" cx="355.5555555555556" cy="311.11111111111114" fill="hsla(0, 0%, 0%, 1.00)" stroke="none"></circle><rect width="44.44444444444444" height="44.44444444444444" x="400.00000000000006" y="311.11111111111114" opacity="0.15"></rect><circle r="3.75" cx="400.00000000000006" cy="311.11111111111114" fill="hsla(0, 0%, 0%, 1.00)" stroke="none"></circle><rect width="44.44444444444444" height="44.44444444444444" x="444.4444444444445" y="311.11111111111114" opacity="0.15"></rect><circle r="3.75" cx="444.4444444444445" cy="311.11111111111114" fill="hsla(0, 0%, 0%, 1.00)" stroke="none"></circle><rect width="44.44444444444444" height="44.44444444444444" x="488.88888888888897" y="311.11111111111114" opacity="0.15"></rect><circle r="3.75" cx="488.88888888888897" cy="311.11111111111114" fill="hsla(0, 0%, 0%, 1.00)" stroke="none"></circle><rect width="44.44444444444444" height="44.44444444444444" x="533.3333333333334" y="311.11111111111114" opacity="0.15"></rect><circle r="3.75" cx="533.3333333333334" cy="311.11111111111114" fill="hsla(0, 0%, 0%, 1.00)" stroke="none"></circle><rect width="44.44444444444444" height="44.44444444444444" x="577.7777777777778" y="311.11111111111114" opacity="0.15"></rect><circle r="3.75" cx="577.7777777777778" cy="311.11111111111114" fill="hsla(0, 0%, 0%, 1.00)" stroke="none"></circle><rect width="44.44444444444444" height="44.44444444444444" x="622.2222222222223" y="311.11111111111114" opacity="0.15"></rect><circle r="3.75" cx="622.2222222222223" cy="311.11111111111114" fill="hsla(0, 0%, 0%, 1.00)" stroke="none"></circle><rect width="44.44444444444444" height="44.44444444444444" x="666.6666666666667" y="311.11111111111114" opacity="0.15"></rect><circle r="3.75" cx="666.6666666666667" cy="311.11111111111114" fill="hsla(0, 0%, 0%, 1.00)" stroke="none"></circle><rect width="44.44444444444444" height="44.44444444444444" x="711.1111111111112" y="311.11111111111114" opacity="0.15"></rect><circle r="3.75" cx="711.1111111111112" cy="311.11111111111114" fill="hsla(0, 0%, 0%, 1.00)" stroke="none"></circle><rect width="44.44444444444444" height="44.44444444444444" x="755.5555555555557" y="311.11111111111114" opacity="0.15"></rect><circle r="3.75" cx="755.5555555555557" cy="311.11111111111114" fill="hsla(0, 0%, 0%, 1.00)" stroke="none"></circle><rect width="44.44444444444444" height="44.44444444444444" x="800.0000000000001" y="311.11111111111114" opacity="0.15"></rect><circle r="3.75" cx="800.0000000000001" cy="311.11111111111114" fill="hsla(0, 0%, 0%, 1.00)" stroke="none"></circle><rect width="44.44444444444444" height="44.44444444444444" x="0" y="355.5555555555556" opacity="0.15"></rect><circle r="3.75" cx="0" cy="355.5555555555556" fill="hsla(0, 0%, 0%, 1.00)" stroke="none"></circle><rect width="44.44444444444444" height="44.44444444444444" x="44.44444444444444" y="355.5555555555556" opacity="0.15"></rect><circle r="3.75" cx="44.44444444444444" cy="355.5555555555556" fill="hsla(0, 0%, 0%, 1.00)" stroke="none"></circle><rect width="44.44444444444444" height="44.44444444444444" x="88.88888888888889" y="355.5555555555556" opacity="0.15"></rect><circle r="3.75" cx="88.88888888888889" cy="355.5555555555556" fill="hsla(0, 0%, 0%, 1.00)" stroke="none"></circle><rect width="44.44444444444444" height="44.44444444444444" x="133.33333333333331" y="355.5555555555556" opacity="0.15"></rect><circle r="3.75" cx="133.33333333333331" cy="355.5555555555556" fill="hsla(0, 0%, 0%, 1.00)" stroke="none"></circle><rect width="44.44444444444444" height="44.44444444444444" x="177.77777777777777" y="355.5555555555556" opacity="0.15"></rect><circle r="3.75" cx="177.77777777777777" cy="355.5555555555556" fill="hsla(0, 0%, 0%, 1.00)" stroke="none"></circle><rect width="44.44444444444444" height="44.44444444444444" x="222.22222222222223" y="355.5555555555556" opacity="0.15"></rect><circle r="3.75" cx="222.22222222222223" cy="355.5555555555556" fill="hsla(0, 0%, 0%, 1.00)" stroke="none"></circle><rect width="44.44444444444444" height="44.44444444444444" x="266.6666666666667" y="355.5555555555556" opacity="0.15"></rect><circle r="3.75" cx="266.6666666666667" cy="355.5555555555556" fill="hsla(0, 0%, 0%, 1.00)" stroke="none"></circle><rect width="44.44444444444444" height="44.44444444444444" x="311.11111111111114" y="355.5555555555556" opacity="0.15"></rect><circle r="3.75" cx="311.11111111111114" cy="355.5555555555556" fill="hsla(0, 0%, 0%, 1.00)" stroke="none"></circle><rect width="44.44444444444444" height="44.44444444444444" x="355.5555555555556" y="355.5555555555556" opacity="0.15"></rect><circle r="3.75" cx="355.5555555555556" cy="355.5555555555556" fill="hsla(0, 0%, 0%, 1.00)" stroke="none"></circle><rect width="44.44444444444444" height="44.44444444444444" x="400.00000000000006" y="355.5555555555556" opacity="0.15"></rect><circle r="3.75" cx="400.00000000000006" cy="355.5555555555556" fill="hsla(0, 0%, 0%, 1.00)" stroke="none"></circle><rect width="44.44444444444444" height="44.44444444444444" x="444.4444444444445" y="355.5555555555556" opacity="0.15"></rect><circle r="3.75" cx="444.4444444444445" cy="355.5555555555556" fill="hsla(0, 0%, 0%, 1.00)" stroke="none"></circle><rect width="44.44444444444444" height="44.44444444444444" x="488.88888888888897" y="355.5555555555556" opacity="0.15"></rect><circle r="3.75" cx="488.88888888888897" cy="355.5555555555556" fill="hsla(0, 0%, 0%, 1.00)" stroke="none"></circle><rect width="44.44444444444444" height="44.44444444444444" x="533.3333333333334" y="355.5555555555556" opacity="0.15"></rect><circle r="3.75" cx="533.3333333333334" cy="355.5555555555556" fill="hsla(0, 0%, 0%, 1.00)" stroke="none"></circle><rect width="44.44444444444444" height="44.44444444444444" x="577.7777777777778" y="355.5555555555556" opacity="0.15"></rect><circle r="3.75" cx="577.7777777777778" cy="355.5555555555556" fill="hsla(0, 0%, 0%, 1.00)" stroke="none"></circle><rect width="44.44444444444444" height="44.44444444444444" x="622.2222222222223" y="355.5555555555556" opacity="0.15"></rect><circle r="3.75" cx="622.2222222222223" cy="355.5555555555556" fill="hsla(0, 0%, 0%, 1.00)" stroke="none"></circle><rect width="44.44444444444444" height="44.44444444444444" x="666.6666666666667" y="355.5555555555556" opacity="0.15"></rect><circle r="3.75" cx="666.6666666666667" cy="355.5555555555556" fill="hsla(0, 0%, 0%, 1.00)" stroke="none"></circle><rect width="44.44444444444444" height="44.44444444444444" x="711.1111111111112" y="355.5555555555556" opacity="0.15"></rect><circle r="3.75" cx="711.1111111111112" cy="355.5555555555556" fill="hsla(0, 0%, 0%, 1.00)" stroke="none"></circle><rect width="44.44444444444444" height="44.44444444444444" x="755.5555555555557" y="355.5555555555556" opacity="0.15"></rect><circle r="3.75" cx="755.5555555555557" cy="355.5555555555556" fill="hsla(0, 0%, 0%, 1.00)" stroke="none"></circle><rect width="44.44444444444444" height="44.44444444444444" x="800.0000000000001" y="355.5555555555556" opacity="0.15"></rect><circle r="3.75" cx="800.0000000000001" cy="355.5555555555556" fill="hsla(0, 0%, 0%, 1.00)" stroke="none"></circle><rect width="44.44444444444444" height="44.44444444444444" x="0" y="400.00000000000006" opacity="0.15"></rect><circle r="3.75" cx="0" cy="400.00000000000006" fill="hsla(0, 0%, 0%, 1.00)" stroke="none"></circle><rect width="44.44444444444444" height="44.44444444444444" x="44.44444444444444" y="400.00000000000006" opacity="0.15"></rect><circle r="3.75" cx="44.44444444444444" cy="400.00000000000006" fill="hsla(0, 0%, 0%, 1.00)" stroke="none"></circle><rect width="44.44444444444444" height="44.44444444444444" x="88.88888888888889" y="400.00000000000006" opacity="0.15"></rect><circle r="3.75" cx="88.88888888888889" cy="400.00000000000006" fill="hsla(0, 0%, 0%, 1.00)" stroke="none"></circle><rect width="44.44444444444444" height="44.44444444444444" x="133.33333333333331" y="400.00000000000006" opacity="0.15"></rect><circle r="3.75" cx="133.33333333333331" cy="400.00000000000006" fill="hsla(0, 0%, 0%, 1.00)" stroke="none"></circle><rect width="44.44444444444444" height="44.44444444444444" x="177.77777777777777" y="400.00000000000006" opacity="0.15"></rect><circle r="3.75" cx="177.77777777777777" cy="400.00000000000006" fill="hsla(0, 0%, 0%, 1.00)" stroke="none"></circle><rect width="44.44444444444444" height="44.44444444444444" x="222.22222222222223" y="400.00000000000006" opacity="0.15"></rect><circle r="3.75" cx="222.22222222222223" cy="400.00000000000006" fill="hsla(0, 0%, 0%, 1.00)" stroke="none"></circle><rect width="44.44444444444444" height="44.44444444444444" x="266.6666666666667" y="400.00000000000006" opacity="0.15"></rect><circle r="3.75" cx="266.6666666666667" cy="400.00000000000006" fill="hsla(0, 0%, 0%, 1.00)" stroke="none"></circle><rect width="44.44444444444444" height="44.44444444444444" x="311.11111111111114" y="400.00000000000006" opacity="0.15"></rect><circle r="3.75" cx="311.11111111111114" cy="400.00000000000006" fill="hsla(0, 0%, 0%, 1.00)" stroke="none"></circle><rect width="44.44444444444444" height="44.44444444444444" x="355.5555555555556" y="400.00000000000006" opacity="0.15"></rect><circle r="3.75" cx="355.5555555555556" cy="400.00000000000006" fill="hsla(0, 0%, 0%, 1.00)" stroke="none"></circle><rect width="44.44444444444444" height="44.44444444444444" x="400.00000000000006" y="400.00000000000006" opacity="0.15"></rect><circle r="3.75" cx="400.00000000000006" cy="400.00000000000006" fill="hsla(0, 0%, 0%, 1.00)" stroke="none"></circle><rect width="44.44444444444444" height="44.44444444444444" x="444.4444444444445" y="400.00000000000006" opacity="0.15"></rect><circle r="3.75" cx="444.4444444444445" cy="400.00000000000006" fill="hsla(0, 0%, 0%, 1.00)" stroke="none"></circle><rect width="44.44444444444444" height="44.44444444444444" x="488.88888888888897" y="400.00000000000006" opacity="0.15"></rect><circle r="3.75" cx="488.88888888888897" cy="400.00000000000006" fill="hsla(0, 0%, 0%, 1.00)" stroke="none"></circle><rect width="44.44444444444444" height="44.44444444444444" x="533.3333333333334" y="400.00000000000006" opacity="0.15"></rect><circle r="3.75" cx="533.3333333333334" cy="400.00000000000006" fill="hsla(0, 0%, 0%, 1.00)" stroke="none"></circle><rect width="44.44444444444444" height="44.44444444444444" x="577.7777777777778" y="400.00000000000006" opacity="0.15"></rect><circle r="3.75" cx="577.7777777777778" cy="400.00000000000006" fill="hsla(0, 0%, 0%, 1.00)" stroke="none"></circle><rect width="44.44444444444444" height="44.44444444444444" x="622.2222222222223" y="400.00000000000006" opacity="0.15"></rect><circle r="3.75" cx="622.2222222222223" cy="400.00000000000006" fill="hsla(0, 0%, 0%, 1.00)" stroke="none"></circle><rect width="44.44444444444444" height="44.44444444444444" x="666.6666666666667" y="400.00000000000006" opacity="0.15"></rect><circle r="3.75" cx="666.6666666666667" cy="400.00000000000006" fill="hsla(0, 0%, 0%, 1.00)" stroke="none"></circle><rect width="44.44444444444444" height="44.44444444444444" x="711.1111111111112" y="400.00000000000006" opacity="0.15"></rect><circle r="3.75" cx="711.1111111111112" cy="400.00000000000006" fill="hsla(0, 0%, 0%, 1.00)" stroke="none"></circle><rect width="44.44444444444444" height="44.44444444444444" x="755.5555555555557" y="400.00000000000006" opacity="0.15"></rect><circle r="3.75" cx="755.5555555555557" cy="400.00000000000006" fill="hsla(0, 0%, 0%, 1.00)" stroke="none"></circle><rect width="44.44444444444444" height="44.44444444444444" x="800.0000000000001" y="400.00000000000006" opacity="0.15"></rect><circle r="3.75" cx="800.0000000000001" cy="400.00000000000006" fill="hsla(0, 0%, 0%, 1.00)" stroke="none"></circle><rect width="44.44444444444444" height="44.44444444444444" x="0" y="444.4444444444445" opacity="0.15"></rect><circle r="3.75" cx="0" cy="444.4444444444445" fill="hsla(0, 0%, 0%, 1.00)" stroke="none"></circle><rect width="44.44444444444444" height="44.44444444444444" x="44.44444444444444" y="444.4444444444445" opacity="0.15"></rect><circle r="3.75" cx="44.44444444444444" cy="444.4444444444445" fill="hsla(0, 0%, 0%, 1.00)" stroke="none"></circle><rect width="44.44444444444444" height="44.44444444444444" x="88.88888888888889" y="444.4444444444445" opacity="0.15"></rect><circle r="3.75" cx="88.88888888888889" cy="444.4444444444445" fill="hsla(0, 0%, 0%, 1.00)" stroke="none"></circle><rect width="44.44444444444444" height="44.44444444444444" x="133.33333333333331" y="444.4444444444445" opacity="0.15"></rect><circle r="3.75" cx="133.33333333333331" cy="444.4444444444445" fill="hsla(0, 0%, 0%, 1.00)" stroke="none"></circle><rect width="44.44444444444444" height="44.44444444444444" x="177.77777777777777" y="444.4444444444445" opacity="0.15"></rect><circle r="3.75" cx="177.77777777777777" cy="444.4444444444445" fill="hsla(0, 0%, 0%, 1.00)" stroke="none"></circle><rect width="44.44444444444444" height="44.44444444444444" x="222.22222222222223" y="444.4444444444445" opacity="0.15"></rect><circle r="3.75" cx="222.22222222222223" cy="444.4444444444445" fill="hsla(0, 0%, 0%, 1.00)" stroke="none"></circle><rect width="44.44444444444444" height="44.44444444444444" x="266.6666666666667" y="444.4444444444445" opacity="0.15"></rect><circle r="3.75" cx="266.6666666666667" cy="444.4444444444445" fill="hsla(0, 0%, 0%, 1.00)" stroke="none"></circle><rect width="44.44444444444444" height="44.44444444444444" x="311.11111111111114" y="444.4444444444445" opacity="0.15"></rect><circle r="3.75" cx="311.11111111111114" cy="444.4444444444445" fill="hsla(0, 0%, 0%, 1.00)" stroke="none"></circle><rect width="44.44444444444444" height="44.44444444444444" x="355.5555555555556" y="444.4444444444445" opacity="0.15"></rect><circle r="3.75" cx="355.5555555555556" cy="444.4444444444445" fill="hsla(0, 0%, 0%, 1.00)" stroke="none"></circle><rect width="44.44444444444444" height="44.44444444444444" x="400.00000000000006" y="444.4444444444445" opacity="0.15"></rect><circle r="3.75" cx="400.00000000000006" cy="444.4444444444445" fill="hsla(0, 0%, 0%, 1.00)" stroke="none"></circle><rect width="44.44444444444444" height="44.44444444444444" x="444.4444444444445" y="444.4444444444445" opacity="0.15"></rect><circle r="3.75" cx="444.4444444444445" cy="444.4444444444445" fill="hsla(0, 0%, 0%, 1.00)" stroke="none"></circle><rect width="44.44444444444444" height="44.44444444444444" x="488.88888888888897" y="444.4444444444445" opacity="0.15"></rect><circle r="3.75" cx="488.88888888888897" cy="444.4444444444445" fill="hsla(0, 0%, 0%, 1.00)" stroke="none"></circle><rect width="44.44444444444444" height="44.44444444444444" x="533.3333333333334" y="444.4444444444445" opacity="0.15"></rect><circle r="3.75" cx="533.3333333333334" cy="444.4444444444445" fill="hsla(0, 0%, 0%, 1.00)" stroke="none"></circle><rect width="44.44444444444444" height="44.44444444444444" x="577.7777777777778" y="444.4444444444445" opacity="0.15"></rect><circle r="3.75" cx="577.7777777777778" cy="444.4444444444445" fill="hsla(0, 0%, 0%, 1.00)" stroke="none"></circle><rect width="44.44444444444444" height="44.44444444444444" x="622.2222222222223" y="444.4444444444445" opacity="0.15"></rect><circle r="3.75" cx="622.2222222222223" cy="444.4444444444445" fill="hsla(0, 0%, 0%, 1.00)" stroke="none"></circle><rect width="44.44444444444444" height="44.44444444444444" x="666.6666666666667" y="444.4444444444445" opacity="0.15"></rect><circle r="3.75" cx="666.6666666666667" cy="444.4444444444445" fill="hsla(0, 0%, 0%, 1.00)" stroke="none"></circle><rect width="44.44444444444444" height="44.44444444444444" x="711.1111111111112" y="444.4444444444445" opacity="0.15"></rect><circle r="3.75" cx="711.1111111111112" cy="444.4444444444445" fill="hsla(0, 0%, 0%, 1.00)" stroke="none"></circle><rect width="44.44444444444444" height="44.44444444444444" x="755.5555555555557" y="444.4444444444445" opacity="0.15"></rect><circle r="3.75" cx="755.5555555555557" cy="444.4444444444445" fill="hsla(0, 0%, 0%, 1.00)" stroke="none"></circle><rect width="44.44444444444444" height="44.44444444444444" x="800.0000000000001" y="444.4444444444445" opacity="0.15"></rect><circle r="3.75" cx="800.0000000000001" cy="444.4444444444445" fill="hsla(0, 0%, 0%, 1.00)" stroke="none"></circle><rect width="44.44444444444444" height="44.44444444444444" x="0" y="488.88888888888897" opacity="0.15"></rect><circle r="3.75" cx="0" cy="488.88888888888897" fill="hsla(0, 0%, 0%, 1.00)" stroke="none"></circle><rect width="44.44444444444444" height="44.44444444444444" x="44.44444444444444" y="488.88888888888897" opacity="0.15"></rect><circle r="3.75" cx="44.44444444444444" cy="488.88888888888897" fill="hsla(0, 0%, 0%, 1.00)" stroke="none"></circle><rect width="44.44444444444444" height="44.44444444444444" x="88.88888888888889" y="488.88888888888897" opacity="0.15"></rect><circle r="3.75" cx="88.88888888888889" cy="488.88888888888897" fill="hsla(0, 0%, 0%, 1.00)" stroke="none"></circle><rect width="44.44444444444444" height="44.44444444444444" x="133.33333333333331" y="488.88888888888897" opacity="0.15"></rect><circle r="3.75" cx="133.33333333333331" cy="488.88888888888897" fill="hsla(0, 0%, 0%, 1.00)" stroke="none"></circle><rect width="44.44444444444444" height="44.44444444444444" x="177.77777777777777" y="488.88888888888897" opacity="0.15"></rect><circle r="3.75" cx="177.77777777777777" cy="488.88888888888897" fill="hsla(0, 0%, 0%, 1.00)" stroke="none"></circle><rect width="44.44444444444444" height="44.44444444444444" x="222.22222222222223" y="488.88888888888897" opacity="0.15"></rect><circle r="3.75" cx="222.22222222222223" cy="488.88888888888897" fill="hsla(0, 0%, 0%, 1.00)" stroke="none"></circle><rect width="44.44444444444444" height="44.44444444444444" x="266.6666666666667" y="488.88888888888897" opacity="0.15"></rect><circle r="3.75" cx="266.6666666666667" cy="488.88888888888897" fill="hsla(0, 0%, 0%, 1.00)" stroke="none"></circle><rect width="44.44444444444444" height="44.44444444444444" x="311.11111111111114" y="488.88888888888897" opacity="0.15"></rect><circle r="3.75" cx="311.11111111111114" cy="488.88888888888897" fill="hsla(0, 0%, 0%, 1.00)" stroke="none"></circle><rect width="44.44444444444444" height="44.44444444444444" x="355.5555555555556" y="488.88888888888897" opacity="0.15"></rect><circle r="3.75" cx="355.5555555555556" cy="488.88888888888897" fill="hsla(0, 0%, 0%, 1.00)" stroke="none"></circle><rect width="44.44444444444444" height="44.44444444444444" x="400.00000000000006" y="488.88888888888897" opacity="0.15"></rect><circle r="3.75" cx="400.00000000000006" cy="488.88888888888897" fill="hsla(0, 0%, 0%, 1.00)" stroke="none"></circle><rect width="44.44444444444444" height="44.44444444444444" x="444.4444444444445" y="488.88888888888897" opacity="0.15"></rect><circle r="3.75" cx="444.4444444444445" cy="488.88888888888897" fill="hsla(0, 0%, 0%, 1.00)" stroke="none"></circle><rect width="44.44444444444444" height="44.44444444444444" x="488.88888888888897" y="488.88888888888897" opacity="0.15"></rect><circle r="3.75" cx="488.88888888888897" cy="488.88888888888897" fill="hsla(0, 0%, 0%, 1.00)" stroke="none"></circle><rect width="44.44444444444444" height="44.44444444444444" x="533.3333333333334" y="488.88888888888897" opacity="0.15"></rect><circle r="3.75" cx="533.3333333333334" cy="488.88888888888897" fill="hsla(0, 0%, 0%, 1.00)" stroke="none"></circle><rect width="44.44444444444444" height="44.44444444444444" x="577.7777777777778" y="488.88888888888897" opacity="0.15"></rect><circle r="3.75" cx="577.7777777777778" cy="488.88888888888897" fill="hsla(0, 0%, 0%, 1.00)" stroke="none"></circle><rect width="44.44444444444444" height="44.44444444444444" x="622.2222222222223" y="488.88888888888897" opacity="0.15"></rect><circle r="3.75" cx="622.2222222222223" cy="488.88888888888897" fill="hsla(0, 0%, 0%, 1.00)" stroke="none"></circle><rect width="44.44444444444444" height="44.44444444444444" x="666.6666666666667" y="488.88888888888897" opacity="0.15"></rect><circle r="3.75" cx="666.6666666666667" cy="488.88888888888897" fill="hsla(0, 0%, 0%, 1.00)" stroke="none"></circle><rect width="44.44444444444444" height="44.44444444444444" x="711.1111111111112" y="488.88888888888897" opacity="0.15"></rect><circle r="3.75" cx="711.1111111111112" cy="488.88888888888897" fill="hsla(0, 0%, 0%, 1.00)" stroke="none"></circle><rect width="44.44444444444444" height="44.44444444444444" x="755.5555555555557" y="488.88888888888897" opacity="0.15"></rect><circle r="3.75" cx="755.5555555555557" cy="488.88888888888897" fill="hsla(0, 0%, 0%, 1.00)" stroke="none"></circle><rect width="44.44444444444444" height="44.44444444444444" x="800.0000000000001" y="488.88888888888897" opacity="0.15"></rect><circle r="3.75" cx="800.0000000000001" cy="488.88888888888897" fill="hsla(0, 0%, 0%, 1.00)" stroke="none"></circle><rect width="44.44444444444444" height="44.44444444444444" x="0" y="533.3333333333334" opacity="0.15"></rect><circle r="3.75" cx="0" cy="533.3333333333334" fill="hsla(0, 0%, 0%, 1.00)" stroke="none"></circle><rect width="44.44444444444444" height="44.44444444444444" x="44.44444444444444" y="533.3333333333334" opacity="0.15"></rect><circle r="3.75" cx="44.44444444444444" cy="533.3333333333334" fill="hsla(0, 0%, 0%, 1.00)" stroke="none"></circle><rect width="44.44444444444444" height="44.44444444444444" x="88.88888888888889" y="533.3333333333334" opacity="0.15"></rect><circle r="3.75" cx="88.88888888888889" cy="533.3333333333334" fill="hsla(0, 0%, 0%, 1.00)" stroke="none"></circle><rect width="44.44444444444444" height="44.44444444444444" x="133.33333333333331" y="533.3333333333334" opacity="0.15"></rect><circle r="3.75" cx="133.33333333333331" cy="533.3333333333334" fill="hsla(0, 0%, 0%, 1.00)" stroke="none"></circle><rect width="44.44444444444444" height="44.44444444444444" x="177.77777777777777" y="533.3333333333334" opacity="0.15"></rect><circle r="3.75" cx="177.77777777777777" cy="533.3333333333334" fill="hsla(0, 0%, 0%, 1.00)" stroke="none"></circle><rect width="44.44444444444444" height="44.44444444444444" x="222.22222222222223" y="533.3333333333334" opacity="0.15"></rect><circle r="3.75" cx="222.22222222222223" cy="533.3333333333334" fill="hsla(0, 0%, 0%, 1.00)" stroke="none"></circle><rect width="44.44444444444444" height="44.44444444444444" x="266.6666666666667" y="533.3333333333334" opacity="0.15"></rect><circle r="3.75" cx="266.6666666666667" cy="533.3333333333334" fill="hsla(0, 0%, 0%, 1.00)" stroke="none"></circle><rect width="44.44444444444444" height="44.44444444444444" x="311.11111111111114" y="533.3333333333334" opacity="0.15"></rect><circle r="3.75" cx="311.11111111111114" cy="533.3333333333334" fill="hsla(0, 0%, 0%, 1.00)" stroke="none"></circle><rect width="44.44444444444444" height="44.44444444444444" x="355.5555555555556" y="533.3333333333334" opacity="0.15"></rect><circle r="3.75" cx="355.5555555555556" cy="533.3333333333334" fill="hsla(0, 0%, 0%, 1.00)" stroke="none"></circle><rect width="44.44444444444444" height="44.44444444444444" x="400.00000000000006" y="533.3333333333334" opacity="0.15"></rect><circle r="3.75" cx="400.00000000000006" cy="533.3333333333334" fill="hsla(0, 0%, 0%, 1.00)" stroke="none"></circle><rect width="44.44444444444444" height="44.44444444444444" x="444.4444444444445" y="533.3333333333334" opacity="0.15"></rect><circle r="3.75" cx="444.4444444444445" cy="533.3333333333334" fill="hsla(0, 0%, 0%, 1.00)" stroke="none"></circle><rect width="44.44444444444444" height="44.44444444444444" x="488.88888888888897" y="533.3333333333334" opacity="0.15"></rect><circle r="3.75" cx="488.88888888888897" cy="533.3333333333334" fill="hsla(0, 0%, 0%, 1.00)" stroke="none"></circle><rect width="44.44444444444444" height="44.44444444444444" x="533.3333333333334" y="533.3333333333334" opacity="0.15"></rect><circle r="3.75" cx="533.3333333333334" cy="533.3333333333334" fill="hsla(0, 0%, 0%, 1.00)" stroke="none"></circle><rect width="44.44444444444444" height="44.44444444444444" x="577.7777777777778" y="533.3333333333334" opacity="0.15"></rect><circle r="3.75" cx="577.7777777777778" cy="533.3333333333334" fill="hsla(0, 0%, 0%, 1.00)" stroke="none"></circle><rect width="44.44444444444444" height="44.44444444444444" x="622.2222222222223" y="533.3333333333334" opacity="0.15"></rect><circle r="3.75" cx="622.2222222222223" cy="533.3333333333334" fill="hsla(0, 0%, 0%, 1.00)" stroke="none"></circle><rect width="44.44444444444444" height="44.44444444444444" x="666.6666666666667" y="533.3333333333334" opacity="0.15"></rect><circle r="3.75" cx="666.6666666666667" cy="533.3333333333334" fill="hsla(0, 0%, 0%, 1.00)" stroke="none"></circle><rect width="44.44444444444444" height="44.44444444444444" x="711.1111111111112" y="533.3333333333334" opacity="0.15"></rect><circle r="3.75" cx="711.1111111111112" cy="533.3333333333334" fill="hsla(0, 0%, 0%, 1.00)" stroke="none"></circle><rect width="44.44444444444444" height="44.44444444444444" x="755.5555555555557" y="533.3333333333334" opacity="0.15"></rect><circle r="3.75" cx="755.5555555555557" cy="533.3333333333334" fill="hsla(0, 0%, 0%, 1.00)" stroke="none"></circle><rect width="44.44444444444444" height="44.44444444444444" x="800.0000000000001" y="533.3333333333334" opacity="0.15"></rect><circle r="3.75" cx="800.0000000000001" cy="533.3333333333334" fill="hsla(0, 0%, 0%, 1.00)" stroke="none"></circle><rect width="44.44444444444444" height="44.44444444444444" x="0" y="577.7777777777778" opacity="0.15"></rect><circle r="3.75" cx="0" cy="577.7777777777778" fill="hsla(0, 0%, 0%, 1.00)" stroke="none"></circle><rect width="44.44444444444444" height="44.44444444444444" x="44.44444444444444" y="577.7777777777778" opacity="0.15"></rect><circle r="3.75" cx="44.44444444444444" cy="577.7777777777778" fill="hsla(0, 0%, 0%, 1.00)" stroke="none"></circle><rect width="44.44444444444444" height="44.44444444444444" x="88.88888888888889" y="577.7777777777778" opacity="0.15"></rect><circle r="3.75" cx="88.88888888888889" cy="577.7777777777778" fill="hsla(0, 0%, 0%, 1.00)" stroke="none"></circle><rect width="44.44444444444444" height="44.44444444444444" x="133.33333333333331" y="577.7777777777778" opacity="0.15"></rect><circle r="3.75" cx="133.33333333333331" cy="577.7777777777778" fill="hsla(0, 0%, 0%, 1.00)" stroke="none"></circle><rect width="44.44444444444444" height="44.44444444444444" x="177.77777777777777" y="577.7777777777778" opacity="0.15"></rect><circle r="3.75" cx="177.77777777777777" cy="577.7777777777778" fill="hsla(0, 0%, 0%, 1.00)" stroke="none"></circle><rect width="44.44444444444444" height="44.44444444444444" x="222.22222222222223" y="577.7777777777778" opacity="0.15"></rect><circle r="3.75" cx="222.22222222222223" cy="577.7777777777778" fill="hsla(0, 0%, 0%, 1.00)" stroke="none"></circle><rect width="44.44444444444444" height="44.44444444444444" x="266.6666666666667" y="577.7777777777778" opacity="0.15"></rect><circle r="3.75" cx="266.6666666666667" cy="577.7777777777778" fill="hsla(0, 0%, 0%, 1.00)" stroke="none"></circle><rect width="44.44444444444444" height="44.44444444444444" x="311.11111111111114" y="577.7777777777778" opacity="0.15"></rect><circle r="3.75" cx="311.11111111111114" cy="577.7777777777778" fill="hsla(0, 0%, 0%, 1.00)" stroke="none"></circle><rect width="44.44444444444444" height="44.44444444444444" x="355.5555555555556" y="577.7777777777778" opacity="0.15"></rect><circle r="3.75" cx="355.5555555555556" cy="577.7777777777778" fill="hsla(0, 0%, 0%, 1.00)" stroke="none"></circle><rect width="44.44444444444444" height="44.44444444444444" x="400.00000000000006" y="577.7777777777778" opacity="0.15"></rect><circle r="3.75" cx="400.00000000000006" cy="577.7777777777778" fill="hsla(0, 0%, 0%, 1.00)" stroke="none"></circle><rect width="44.44444444444444" height="44.44444444444444" x="444.4444444444445" y="577.7777777777778" opacity="0.15"></rect><circle r="3.75" cx="444.4444444444445" cy="577.7777777777778" fill="hsla(0, 0%, 0%, 1.00)" stroke="none"></circle><rect width="44.44444444444444" height="44.44444444444444" x="488.88888888888897" y="577.7777777777778" opacity="0.15"></rect><circle r="3.75" cx="488.88888888888897" cy="577.7777777777778" fill="hsla(0, 0%, 0%, 1.00)" stroke="none"></circle><rect width="44.44444444444444" height="44.44444444444444" x="533.3333333333334" y="577.7777777777778" opacity="0.15"></rect><circle r="3.75" cx="533.3333333333334" cy="577.7777777777778" fill="hsla(0, 0%, 0%, 1.00)" stroke="none"></circle><rect width="44.44444444444444" height="44.44444444444444" x="577.7777777777778" y="577.7777777777778" opacity="0.15"></rect><circle r="3.75" cx="577.7777777777778" cy="577.7777777777778" fill="hsla(0, 0%, 0%, 1.00)" stroke="none"></circle><rect width="44.44444444444444" height="44.44444444444444" x="622.2222222222223" y="577.7777777777778" opacity="0.15"></rect><circle r="3.75" cx="622.2222222222223" cy="577.7777777777778" fill="hsla(0, 0%, 0%, 1.00)" stroke="none"></circle><rect width="44.44444444444444" height="44.44444444444444" x="666.6666666666667" y="577.7777777777778" opacity="0.15"></rect><circle r="3.75" cx="666.6666666666667" cy="577.7777777777778" fill="hsla(0, 0%, 0%, 1.00)" stroke="none"></circle><rect width="44.44444444444444" height="44.44444444444444" x="711.1111111111112" y="577.7777777777778" opacity="0.15"></rect><circle r="3.75" cx="711.1111111111112" cy="577.7777777777778" fill="hsla(0, 0%, 0%, 1.00)" stroke="none"></circle><rect width="44.44444444444444" height="44.44444444444444" x="755.5555555555557" y="577.7777777777778" opacity="0.15"></rect><circle r="3.75" cx="755.5555555555557" cy="577.7777777777778" fill="hsla(0, 0%, 0%, 1.00)" stroke="none"></circle><rect width="44.44444444444444" height="44.44444444444444" x="800.0000000000001" y="577.7777777777778" opacity="0.15"></rect><circle r="3.75" cx="800.0000000000001" cy="577.7777777777778" fill="hsla(0, 0%, 0%, 1.00)" stroke="none"></circle><rect width="44.44444444444444" height="44.44444444444444" x="0" y="622.2222222222223" opacity="0.15"></rect><circle r="3.75" cx="0" cy="622.2222222222223" fill="hsla(0, 0%, 0%, 1.00)" stroke="none"></circle><rect width="44.44444444444444" height="44.44444444444444" x="44.44444444444444" y="622.2222222222223" opacity="0.15"></rect><circle r="3.75" cx="44.44444444444444" cy="622.2222222222223" fill="hsla(0, 0%, 0%, 1.00)" stroke="none"></circle><rect width="44.44444444444444" height="44.44444444444444" x="88.88888888888889" y="622.2222222222223" opacity="0.15"></rect><circle r="3.75" cx="88.88888888888889" cy="622.2222222222223" fill="hsla(0, 0%, 0%, 1.00)" stroke="none"></circle><rect width="44.44444444444444" height="44.44444444444444" x="133.33333333333331" y="622.2222222222223" opacity="0.15"></rect><circle r="3.75" cx="133.33333333333331" cy="622.2222222222223" fill="hsla(0, 0%, 0%, 1.00)" stroke="none"></circle><rect width="44.44444444444444" height="44.44444444444444" x="177.77777777777777" y="622.2222222222223" opacity="0.15"></rect><circle r="3.75" cx="177.77777777777777" cy="622.2222222222223" fill="hsla(0, 0%, 0%, 1.00)" stroke="none"></circle><rect width="44.44444444444444" height="44.44444444444444" x="222.22222222222223" y="622.2222222222223" opacity="0.15"></rect><circle r="3.75" cx="222.22222222222223" cy="622.2222222222223" fill="hsla(0, 0%, 0%, 1.00)" stroke="none"></circle><rect width="44.44444444444444" height="44.44444444444444" x="266.6666666666667" y="622.2222222222223" opacity="0.15"></rect><circle r="3.75" cx="266.6666666666667" cy="622.2222222222223" fill="hsla(0, 0%, 0%, 1.00)" stroke="none"></circle><rect width="44.44444444444444" height="44.44444444444444" x="311.11111111111114" y="622.2222222222223" opacity="0.15"></rect><circle r="3.75" cx="311.11111111111114" cy="622.2222222222223" fill="hsla(0, 0%, 0%, 1.00)" stroke="none"></circle><rect width="44.44444444444444" height="44.44444444444444" x="355.5555555555556" y="622.2222222222223" opacity="0.15"></rect><circle r="3.75" cx="355.5555555555556" cy="622.2222222222223" fill="hsla(0, 0%, 0%, 1.00)" stroke="none"></circle><rect width="44.44444444444444" height="44.44444444444444" x="400.00000000000006" y="622.2222222222223" opacity="0.15"></rect><circle r="3.75" cx="400.00000000000006" cy="622.2222222222223" fill="hsla(0, 0%, 0%, 1.00)" stroke="none"></circle><rect width="44.44444444444444" height="44.44444444444444" x="444.4444444444445" y="622.2222222222223" opacity="0.15"></rect><circle r="3.75" cx="444.4444444444445" cy="622.2222222222223" fill="hsla(0, 0%, 0%, 1.00)" stroke="none"></circle><rect width="44.44444444444444" height="44.44444444444444" x="488.88888888888897" y="622.2222222222223" opacity="0.15"></rect><circle r="3.75" cx="488.88888888888897" cy="622.2222222222223" fill="hsla(0, 0%, 0%, 1.00)" stroke="none"></circle><rect width="44.44444444444444" height="44.44444444444444" x="533.3333333333334" y="622.2222222222223" opacity="0.15"></rect><circle r="3.75" cx="533.3333333333334" cy="622.2222222222223" fill="hsla(0, 0%, 0%, 1.00)" stroke="none"></circle><rect width="44.44444444444444" height="44.44444444444444" x="577.7777777777778" y="622.2222222222223" opacity="0.15"></rect><circle r="3.75" cx="577.7777777777778" cy="622.2222222222223" fill="hsla(0, 0%, 0%, 1.00)" stroke="none"></circle><rect width="44.44444444444444" height="44.44444444444444" x="622.2222222222223" y="622.2222222222223" opacity="0.15"></rect><circle r="3.75" cx="622.2222222222223" cy="622.2222222222223" fill="hsla(0, 0%, 0%, 1.00)" stroke="none"></circle><rect width="44.44444444444444" height="44.44444444444444" x="666.6666666666667" y="622.2222222222223" opacity="0.15"></rect><circle r="3.75" cx="666.6666666666667" cy="622.2222222222223" fill="hsla(0, 0%, 0%, 1.00)" stroke="none"></circle><rect width="44.44444444444444" height="44.44444444444444" x="711.1111111111112" y="622.2222222222223" opacity="0.15"></rect><circle r="3.75" cx="711.1111111111112" cy="622.2222222222223" fill="hsla(0, 0%, 0%, 1.00)" stroke="none"></circle><rect width="44.44444444444444" height="44.44444444444444" x="755.5555555555557" y="622.2222222222223" opacity="0.15"></rect><circle r="3.75" cx="755.5555555555557" cy="622.2222222222223" fill="hsla(0, 0%, 0%, 1.00)" stroke="none"></circle><rect width="44.44444444444444" height="44.44444444444444" x="800.0000000000001" y="622.2222222222223" opacity="0.15"></rect><circle r="3.75" cx="800.0000000000001" cy="622.2222222222223" fill="hsla(0, 0%, 0%, 1.00)" stroke="none"></circle><rect width="44.44444444444444" height="44.44444444444444" x="0" y="666.6666666666667" opacity="0.15"></rect><circle r="3.75" cx="0" cy="666.6666666666667" fill="hsla(0, 0%, 0%, 1.00)" stroke="none"></circle><rect width="44.44444444444444" height="44.44444444444444" x="44.44444444444444" y="666.6666666666667" opacity="0.15"></rect><circle r="3.75" cx="44.44444444444444" cy="666.6666666666667" fill="hsla(0, 0%, 0%, 1.00)" stroke="none"></circle><rect width="44.44444444444444" height="44.44444444444444" x="88.88888888888889" y="666.6666666666667" opacity="0.15"></rect><circle r="3.75" cx="88.88888888888889" cy="666.6666666666667" fill="hsla(0, 0%, 0%, 1.00)" stroke="none"></circle><rect width="44.44444444444444" height="44.44444444444444" x="133.33333333333331" y="666.6666666666667" opacity="0.15"></rect><circle r="3.75" cx="133.33333333333331" cy="666.6666666666667" fill="hsla(0, 0%, 0%, 1.00)" stroke="none"></circle><rect width="44.44444444444444" height="44.44444444444444" x="177.77777777777777" y="666.6666666666667" opacity="0.15"></rect><circle r="3.75" cx="177.77777777777777" cy="666.6666666666667" fill="hsla(0, 0%, 0%, 1.00)" stroke="none"></circle><rect width="44.44444444444444" height="44.44444444444444" x="222.22222222222223" y="666.6666666666667" opacity="0.15"></rect><circle r="3.75" cx="222.22222222222223" cy="666.6666666666667" fill="hsla(0, 0%, 0%, 1.00)" stroke="none"></circle><rect width="44.44444444444444" height="44.44444444444444" x="266.6666666666667" y="666.6666666666667" opacity="0.15"></rect><circle r="3.75" cx="266.6666666666667" cy="666.6666666666667" fill="hsla(0, 0%, 0%, 1.00)" stroke="none"></circle><rect width="44.44444444444444" height="44.44444444444444" x="311.11111111111114" y="666.6666666666667" opacity="0.15"></rect><circle r="3.75" cx="311.11111111111114" cy="666.6666666666667" fill="hsla(0, 0%, 0%, 1.00)" stroke="none"></circle><rect width="44.44444444444444" height="44.44444444444444" x="355.5555555555556" y="666.6666666666667" opacity="0.15"></rect><circle r="3.75" cx="355.5555555555556" cy="666.6666666666667" fill="hsla(0, 0%, 0%, 1.00)" stroke="none"></circle><rect width="44.44444444444444" height="44.44444444444444" x="400.00000000000006" y="666.6666666666667" opacity="0.15"></rect><circle r="3.75" cx="400.00000000000006" cy="666.6666666666667" fill="hsla(0, 0%, 0%, 1.00)" stroke="none"></circle><rect width="44.44444444444444" height="44.44444444444444" x="444.4444444444445" y="666.6666666666667" opacity="0.15"></rect><circle r="3.75" cx="444.4444444444445" cy="666.6666666666667" fill="hsla(0, 0%, 0%, 1.00)" stroke="none"></circle><rect width="44.44444444444444" height="44.44444444444444" x="488.88888888888897" y="666.6666666666667" opacity="0.15"></rect><circle r="3.75" cx="488.88888888888897" cy="666.6666666666667" fill="hsla(0, 0%, 0%, 1.00)" stroke="none"></circle><rect width="44.44444444444444" height="44.44444444444444" x="533.3333333333334" y="666.6666666666667" opacity="0.15"></rect><circle r="3.75" cx="533.3333333333334" cy="666.6666666666667" fill="hsla(0, 0%, 0%, 1.00)" stroke="none"></circle><rect width="44.44444444444444" height="44.44444444444444" x="577.7777777777778" y="666.6666666666667" opacity="0.15"></rect><circle r="3.75" cx="577.7777777777778" cy="666.6666666666667" fill="hsla(0, 0%, 0%, 1.00)" stroke="none"></circle><rect width="44.44444444444444" height="44.44444444444444" x="622.2222222222223" y="666.6666666666667" opacity="0.15"></rect><circle r="3.75" cx="622.2222222222223" cy="666.6666666666667" fill="hsla(0, 0%, 0%, 1.00)" stroke="none"></circle><rect width="44.44444444444444" height="44.44444444444444" x="666.6666666666667" y="666.6666666666667" opacity="0.15"></rect><circle r="3.75" cx="666.6666666666667" cy="666.6666666666667" fill="hsla(0, 0%, 0%, 1.00)" stroke="none"></circle><rect width="44.44444444444444" height="44.44444444444444" x="711.1111111111112" y="666.6666666666667" opacity="0.15"></rect><circle r="3.75" cx="711.1111111111112" cy="666.6666666666667" fill="hsla(0, 0%, 0%, 1.00)" stroke="none"></circle><rect width="44.44444444444444" height="44.44444444444444" x="755.5555555555557" y="666.6666666666667" opacity="0.15"></rect><circle r="3.75" cx="755.5555555555557" cy="666.6666666666667" fill="hsla(0, 0%, 0%, 1.00)" stroke="none"></circle><rect width="44.44444444444444" height="44.44444444444444" x="800.0000000000001" y="666.6666666666667" opacity="0.15"></rect><circle r="3.75" cx="800.0000000000001" cy="666.6666666666667" fill="hsla(0, 0%, 0%, 1.00)" stroke="none"></circle><rect width="44.44444444444444" height="44.44444444444444" x="0" y="711.1111111111112" opacity="0.15"></rect><circle r="3.75" cx="0" cy="711.1111111111112" fill="hsla(0, 0%, 0%, 1.00)" stroke="none"></circle><rect width="44.44444444444444" height="44.44444444444444" x="44.44444444444444" y="711.1111111111112" opacity="0.15"></rect><circle r="3.75" cx="44.44444444444444" cy="711.1111111111112" fill="hsla(0, 0%, 0%, 1.00)" stroke="none"></circle><rect width="44.44444444444444" height="44.44444444444444" x="88.88888888888889" y="711.1111111111112" opacity="0.15"></rect><circle r="3.75" cx="88.88888888888889" cy="711.1111111111112" fill="hsla(0, 0%, 0%, 1.00)" stroke="none"></circle><rect width="44.44444444444444" height="44.44444444444444" x="133.33333333333331" y="711.1111111111112" opacity="0.15"></rect><circle r="3.75" cx="133.33333333333331" cy="711.1111111111112" fill="hsla(0, 0%, 0%, 1.00)" stroke="none"></circle><rect width="44.44444444444444" height="44.44444444444444" x="177.77777777777777" y="711.1111111111112" opacity="0.15"></rect><circle r="3.75" cx="177.77777777777777" cy="711.1111111111112" fill="hsla(0, 0%, 0%, 1.00)" stroke="none"></circle><rect width="44.44444444444444" height="44.44444444444444" x="222.22222222222223" y="711.1111111111112" opacity="0.15"></rect><circle r="3.75" cx="222.22222222222223" cy="711.1111111111112" fill="hsla(0, 0%, 0%, 1.00)" stroke="none"></circle><rect width="44.44444444444444" height="44.44444444444444" x="266.6666666666667" y="711.1111111111112" opacity="0.15"></rect><circle r="3.75" cx="266.6666666666667" cy="711.1111111111112" fill="hsla(0, 0%, 0%, 1.00)" stroke="none"></circle><rect width="44.44444444444444" height="44.44444444444444" x="311.11111111111114" y="711.1111111111112" opacity="0.15"></rect><circle r="3.75" cx="311.11111111111114" cy="711.1111111111112" fill="hsla(0, 0%, 0%, 1.00)" stroke="none"></circle><rect width="44.44444444444444" height="44.44444444444444" x="355.5555555555556" y="711.1111111111112" opacity="0.15"></rect><circle r="3.75" cx="355.5555555555556" cy="711.1111111111112" fill="hsla(0, 0%, 0%, 1.00)" stroke="none"></circle><rect width="44.44444444444444" height="44.44444444444444" x="400.00000000000006" y="711.1111111111112" opacity="0.15"></rect><circle r="3.75" cx="400.00000000000006" cy="711.1111111111112" fill="hsla(0, 0%, 0%, 1.00)" stroke="none"></circle><rect width="44.44444444444444" height="44.44444444444444" x="444.4444444444445" y="711.1111111111112" opacity="0.15"></rect><circle r="3.75" cx="444.4444444444445" cy="711.1111111111112" fill="hsla(0, 0%, 0%, 1.00)" stroke="none"></circle><rect width="44.44444444444444" height="44.44444444444444" x="488.88888888888897" y="711.1111111111112" opacity="0.15"></rect><circle r="3.75" cx="488.88888888888897" cy="711.1111111111112" fill="hsla(0, 0%, 0%, 1.00)" stroke="none"></circle><rect width="44.44444444444444" height="44.44444444444444" x="533.3333333333334" y="711.1111111111112" opacity="0.15"></rect><circle r="3.75" cx="533.3333333333334" cy="711.1111111111112" fill="hsla(0, 0%, 0%, 1.00)" stroke="none"></circle><rect width="44.44444444444444" height="44.44444444444444" x="577.7777777777778" y="711.1111111111112" opacity="0.15"></rect><circle r="3.75" cx="577.7777777777778" cy="711.1111111111112" fill="hsla(0, 0%, 0%, 1.00)" stroke="none"></circle><rect width="44.44444444444444" height="44.44444444444444" x="622.2222222222223" y="711.1111111111112" opacity="0.15"></rect><circle r="3.75" cx="622.2222222222223" cy="711.1111111111112" fill="hsla(0, 0%, 0%, 1.00)" stroke="none"></circle><rect width="44.44444444444444" height="44.44444444444444" x="666.6666666666667" y="711.1111111111112" opacity="0.15"></rect><circle r="3.75" cx="666.6666666666667" cy="711.1111111111112" fill="hsla(0, 0%, 0%, 1.00)" stroke="none"></circle><rect width="44.44444444444444" height="44.44444444444444" x="711.1111111111112" y="711.1111111111112" opacity="0.15"></rect><circle r="3.75" cx="711.1111111111112" cy="711.1111111111112" fill="hsla(0, 0%, 0%, 1.00)" stroke="none"></circle><rect width="44.44444444444444" height="44.44444444444444" x="755.5555555555557" y="711.1111111111112" opacity="0.15"></rect><circle r="3.75" cx="755.5555555555557" cy="711.1111111111112" fill="hsla(0, 0%, 0%, 1.00)" stroke="none"></circle><rect width="44.44444444444444" height="44.44444444444444" x="800.0000000000001" y="711.1111111111112" opacity="0.15"></rect><circle r="3.75" cx="800.0000000000001" cy="711.1111111111112" fill="hsla(0, 0%, 0%, 1.00)" stroke="none"></circle><rect width="44.44444444444444" height="44.44444444444444" x="0" y="755.5555555555557" opacity="0.15"></rect><circle r="3.75" cx="0" cy="755.5555555555557" fill="hsla(0, 0%, 0%, 1.00)" stroke="none"></circle><rect width="44.44444444444444" height="44.44444444444444" x="44.44444444444444" y="755.5555555555557" opacity="0.15"></rect><circle r="3.75" cx="44.44444444444444" cy="755.5555555555557" fill="hsla(0, 0%, 0%, 1.00)" stroke="none"></circle><rect width="44.44444444444444" height="44.44444444444444" x="88.88888888888889" y="755.5555555555557" opacity="0.15"></rect><circle r="3.75" cx="88.88888888888889" cy="755.5555555555557" fill="hsla(0, 0%, 0%, 1.00)" stroke="none"></circle><rect width="44.44444444444444" height="44.44444444444444" x="133.33333333333331" y="755.5555555555557" opacity="0.15"></rect><circle r="3.75" cx="133.33333333333331" cy="755.5555555555557" fill="hsla(0, 0%, 0%, 1.00)" stroke="none"></circle><rect width="44.44444444444444" height="44.44444444444444" x="177.77777777777777" y="755.5555555555557" opacity="0.15"></rect><circle r="3.75" cx="177.77777777777777" cy="755.5555555555557" fill="hsla(0, 0%, 0%, 1.00)" stroke="none"></circle><rect width="44.44444444444444" height="44.44444444444444" x="222.22222222222223" y="755.5555555555557" opacity="0.15"></rect><circle r="3.75" cx="222.22222222222223" cy="755.5555555555557" fill="hsla(0, 0%, 0%, 1.00)" stroke="none"></circle><rect width="44.44444444444444" height="44.44444444444444" x="266.6666666666667" y="755.5555555555557" opacity="0.15"></rect><circle r="3.75" cx="266.6666666666667" cy="755.5555555555557" fill="hsla(0, 0%, 0%, 1.00)" stroke="none"></circle><rect width="44.44444444444444" height="44.44444444444444" x="311.11111111111114" y="755.5555555555557" opacity="0.15"></rect><circle r="3.75" cx="311.11111111111114" cy="755.5555555555557" fill="hsla(0, 0%, 0%, 1.00)" stroke="none"></circle><rect width="44.44444444444444" height="44.44444444444444" x="355.5555555555556" y="755.5555555555557" opacity="0.15"></rect><circle r="3.75" cx="355.5555555555556" cy="755.5555555555557" fill="hsla(0, 0%, 0%, 1.00)" stroke="none"></circle><rect width="44.44444444444444" height="44.44444444444444" x="400.00000000000006" y="755.5555555555557" opacity="0.15"></rect><circle r="3.75" cx="400.00000000000006" cy="755.5555555555557" fill="hsla(0, 0%, 0%, 1.00)" stroke="none"></circle><rect width="44.44444444444444" height="44.44444444444444" x="444.4444444444445" y="755.5555555555557" opacity="0.15"></rect><circle r="3.75" cx="444.4444444444445" cy="755.5555555555557" fill="hsla(0, 0%, 0%, 1.00)" stroke="none"></circle><rect width="44.44444444444444" height="44.44444444444444" x="488.88888888888897" y="755.5555555555557" opacity="0.15"></rect><circle r="3.75" cx="488.88888888888897" cy="755.5555555555557" fill="hsla(0, 0%, 0%, 1.00)" stroke="none"></circle><rect width="44.44444444444444" height="44.44444444444444" x="533.3333333333334" y="755.5555555555557" opacity="0.15"></rect><circle r="3.75" cx="533.3333333333334" cy="755.5555555555557" fill="hsla(0, 0%, 0%, 1.00)" stroke="none"></circle><rect width="44.44444444444444" height="44.44444444444444" x="577.7777777777778" y="755.5555555555557" opacity="0.15"></rect><circle r="3.75" cx="577.7777777777778" cy="755.5555555555557" fill="hsla(0, 0%, 0%, 1.00)" stroke="none"></circle><rect width="44.44444444444444" height="44.44444444444444" x="622.2222222222223" y="755.5555555555557" opacity="0.15"></rect><circle r="3.75" cx="622.2222222222223" cy="755.5555555555557" fill="hsla(0, 0%, 0%, 1.00)" stroke="none"></circle><rect width="44.44444444444444" height="44.44444444444444" x="666.6666666666667" y="755.5555555555557" opacity="0.15"></rect><circle r="3.75" cx="666.6666666666667" cy="755.5555555555557" fill="hsla(0, 0%, 0%, 1.00)" stroke="none"></circle><rect width="44.44444444444444" height="44.44444444444444" x="711.1111111111112" y="755.5555555555557" opacity="0.15"></rect><circle r="3.75" cx="711.1111111111112" cy="755.5555555555557" fill="hsla(0, 0%, 0%, 1.00)" stroke="none"></circle><rect width="44.44444444444444" height="44.44444444444444" x="755.5555555555557" y="755.5555555555557" opacity="0.15"></rect><circle r="3.75" cx="755.5555555555557" cy="755.5555555555557" fill="hsla(0, 0%, 0%, 1.00)" stroke="none"></circle><rect width="44.44444444444444" height="44.44444444444444" x="800.0000000000001" y="755.5555555555557" opacity="0.15"></rect><circle r="3.75" cx="800.0000000000001" cy="755.5555555555557" fill="hsla(0, 0%, 0%, 1.00)" stroke="none"></circle><rect width="44.44444444444444" height="44.44444444444444" x="0" y="800.0000000000001" opacity="0.15"></rect><circle r="3.75" cx="0" cy="800.0000000000001" fill="hsla(0, 0%, 0%, 1.00)" stroke="none"></circle><rect width="44.44444444444444" height="44.44444444444444" x="44.44444444444444" y="800.0000000000001" opacity="0.15"></rect><circle r="3.75" cx="44.44444444444444" cy="800.0000000000001" fill="hsla(0, 0%, 0%, 1.00)" stroke="none"></circle><rect width="44.44444444444444" height="44.44444444444444" x="88.88888888888889" y="800.0000000000001" opacity="0.15"></rect><circle r="3.75" cx="88.88888888888889" cy="800.0000000000001" fill="hsla(0, 0%, 0%, 1.00)" stroke="none"></circle><rect width="44.44444444444444" height="44.44444444444444" x="133.33333333333331" y="800.0000000000001" opacity="0.15"></rect><circle r="3.75" cx="133.33333333333331" cy="800.0000000000001" fill="hsla(0, 0%, 0%, 1.00)" stroke="none"></circle><rect width="44.44444444444444" height="44.44444444444444" x="177.77777777777777" y="800.0000000000001" opacity="0.15"></rect><circle r="3.75" cx="177.77777777777777" cy="800.0000000000001" fill="hsla(0, 0%, 0%, 1.00)" stroke="none"></circle><rect width="44.44444444444444" height="44.44444444444444" x="222.22222222222223" y="800.0000000000001" opacity="0.15"></rect><circle r="3.75" cx="222.22222222222223" cy="800.0000000000001" fill="hsla(0, 0%, 0%, 1.00)" stroke="none"></circle><rect width="44.44444444444444" height="44.44444444444444" x="266.6666666666667" y="800.0000000000001" opacity="0.15"></rect><circle r="3.75" cx="266.6666666666667" cy="800.0000000000001" fill="hsla(0, 0%, 0%, 1.00)" stroke="none"></circle><rect width="44.44444444444444" height="44.44444444444444" x="311.11111111111114" y="800.0000000000001" opacity="0.15"></rect><circle r="3.75" cx="311.11111111111114" cy="800.0000000000001" fill="hsla(0, 0%, 0%, 1.00)" stroke="none"></circle><rect width="44.44444444444444" height="44.44444444444444" x="355.5555555555556" y="800.0000000000001" opacity="0.15"></rect><circle r="3.75" cx="355.5555555555556" cy="800.0000000000001" fill="hsla(0, 0%, 0%, 1.00)" stroke="none"></circle><rect width="44.44444444444444" height="44.44444444444444" x="400.00000000000006" y="800.0000000000001" opacity="0.15"></rect><circle r="3.75" cx="400.00000000000006" cy="800.0000000000001" fill="hsla(0, 0%, 0%, 1.00)" stroke="none"></circle><rect width="44.44444444444444" height="44.44444444444444" x="444.4444444444445" y="800.0000000000001" opacity="0.15"></rect><circle r="3.75" cx="444.4444444444445" cy="800.0000000000001" fill="hsla(0, 0%, 0%, 1.00)" stroke="none"></circle><rect width="44.44444444444444" height="44.44444444444444" x="488.88888888888897" y="800.0000000000001" opacity="0.15"></rect><circle r="3.75" cx="488.88888888888897" cy="800.0000000000001" fill="hsla(0, 0%, 0%, 1.00)" stroke="none"></circle><rect width="44.44444444444444" height="44.44444444444444" x="533.3333333333334" y="800.0000000000001" opacity="0.15"></rect><circle r="3.75" cx="533.3333333333334" cy="800.0000000000001" fill="hsla(0, 0%, 0%, 1.00)" stroke="none"></circle><rect width="44.44444444444444" height="44.44444444444444" x="577.7777777777778" y="800.0000000000001" opacity="0.15"></rect><circle r="3.75" cx="577.7777777777778" cy="800.0000000000001" fill="hsla(0, 0%, 0%, 1.00)" stroke="none"></circle><rect width="44.44444444444444" height="44.44444444444444" x="622.2222222222223" y="800.0000000000001" opacity="0.15"></rect><circle r="3.75" cx="622.2222222222223" cy="800.0000000000001" fill="hsla(0, 0%, 0%, 1.00)" stroke="none"></circle><rect width="44.44444444444444" height="44.44444444444444" x="666.6666666666667" y="800.0000000000001" opacity="0.15"></rect><circle r="3.75" cx="666.6666666666667" cy="800.0000000000001" fill="hsla(0, 0%, 0%, 1.00)" stroke="none"></circle><rect width="44.44444444444444" height="44.44444444444444" x="711.1111111111112" y="800.0000000000001" opacity="0.15"></rect><circle r="3.75" cx="711.1111111111112" cy="800.0000000000001" fill="hsla(0, 0%, 0%, 1.00)" stroke="none"></circle><rect width="44.44444444444444" height="44.44444444444444" x="755.5555555555557" y="800.0000000000001" opacity="0.15"></rect><circle r="3.75" cx="755.5555555555557" cy="800.0000000000001" fill="hsla(0, 0%, 0%, 1.00)" stroke="none"></circle><rect width="44.44444444444444" height="44.44444444444444" x="800.0000000000001" y="800.0000000000001" opacity="0.15"></rect><circle r="3.75" cx="800.0000000000001" cy="800.0000000000001" fill="hsla(0, 0%, 0%, 1.00)" stroke="none"></circle></g></svg>