<svg xmlns="http://www.w3.org/2000/svg" version="1.1" xmlns:xlink="http://www.w3.org/1999/xlink" xmlns:svgjs="http://svgjs.dev/svgjs" viewBox="0 0 800 800" opacity="1" width="800" height="800"><g stroke-width="2" stroke="#09afb4" fill="none"><rect width="9.736842105263158" height="9.736842105263158" x="-4.868421052631579" y="-4.868421052631579" fill="#09afb4" stroke="none"></rect><rect width="9.736842105263158" height="9.736842105263158" x="39.57602339181287" y="-4.868421052631579" fill="#09afb4" stroke="none"></rect><rect width="9.736842105263158" height="9.736842105263158" x="84.02046783625731" y="-4.868421052631579" fill="#09afb4" stroke="none"></rect><rect width="9.736842105263158" height="9.736842105263158" x="128.46491228070172" y="-4.868421052631579" fill="#09afb4" stroke="none"></rect><rect width="9.736842105263158" height="9.736842105263158" x="172.90935672514618" y="-4.868421052631579" fill="#09afb4" stroke="none"></rect><rect width="9.736842105263158" height="9.736842105263158" x="217.35380116959064" y="-4.868421052631579" fill="#09afb4" stroke="none"></rect><rect width="9.736842105263158" height="9.736842105263158" x="261.7982456140351" y="-4.868421052631579" fill="#09afb4" stroke="none"></rect><rect width="9.736842105263158" height="9.736842105263158" x="306.2426900584796" y="-4.868421052631579" fill="#09afb4" stroke="none"></rect><rect width="9.736842105263158" height="9.736842105263158" x="350.68713450292404" y="-4.868421052631579" fill="#09afb4" stroke="none"></rect><rect width="9.736842105263158" height="9.736842105263158" x="395.1315789473685" y="-4.868421052631579" fill="#09afb4" stroke="none"></rect><rect width="9.736842105263158" height="9.736842105263158" x="439.57602339181295" y="-4.868421052631579" fill="#09afb4" stroke="none"></rect><rect width="9.736842105263158" height="9.736842105263158" x="484.0204678362574" y="-4.868421052631579" fill="#09afb4" stroke="none"></rect><rect width="9.736842105263158" height="9.736842105263158" x="528.4649122807018" y="-4.868421052631579" fill="#09afb4" stroke="none"></rect><rect width="9.736842105263158" height="9.736842105263158" x="572.9093567251463" y="-4.868421052631579" fill="#09afb4" stroke="none"></rect><rect width="9.736842105263158" height="9.736842105263158" x="617.3538011695907" y="-4.868421052631579" fill="#09afb4" stroke="none"></rect><rect width="9.736842105263158" height="9.736842105263158" x="661.7982456140352" y="-4.868421052631579" fill="#09afb4" stroke="none"></rect><rect width="9.736842105263158" height="9.736842105263158" x="706.2426900584796" y="-4.868421052631579" fill="#09afb4" stroke="none"></rect><rect width="9.736842105263158" height="9.736842105263158" x="750.6871345029241" y="-4.868421052631579" fill="#09afb4" stroke="none"></rect><rect width="9.736842105263158" height="9.736842105263158" x="795.1315789473686" y="-4.868421052631579" fill="#09afb4" stroke="none"></rect><rect width="9.736842105263158" height="9.736842105263158" x="-4.868421052631579" y="39.57602339181287" fill="#09afb4" stroke="none"></rect><rect width="9.736842105263158" height="9.736842105263158" x="39.57602339181287" y="39.57602339181287" fill="#09afb4" stroke="none"></rect><rect width="9.736842105263158" height="9.736842105263158" x="84.02046783625731" y="39.57602339181287" fill="#09afb4" stroke="none"></rect><rect width="9.736842105263158" height="9.736842105263158" x="128.46491228070172" y="39.57602339181287" fill="#09afb4" stroke="none"></rect><rect width="9.736842105263158" height="9.736842105263158" x="172.90935672514618" y="39.57602339181287" fill="#09afb4" stroke="none"></rect><rect width="9.736842105263158" height="9.736842105263158" x="217.35380116959064" y="39.57602339181287" fill="#09afb4" stroke="none"></rect><rect width="9.736842105263158" height="9.736842105263158" x="261.7982456140351" y="39.57602339181287" fill="#09afb4" stroke="none"></rect><rect width="9.736842105263158" height="9.736842105263158" x="306.2426900584796" y="39.57602339181287" fill="#09afb4" stroke="none"></rect><rect width="9.736842105263158" height="9.736842105263158" x="350.68713450292404" y="39.57602339181287" fill="#09afb4" stroke="none"></rect><rect width="9.736842105263158" height="9.736842105263158" x="395.1315789473685" y="39.57602339181287"></rect><rect width="9.736842105263158" height="9.736842105263158" x="439.57602339181295" y="39.57602339181287" fill="#09afb4" stroke="none"></rect><rect width="9.736842105263158" height="9.736842105263158" x="484.0204678362574" y="39.57602339181287" fill="#09afb4" stroke="none"></rect><rect width="9.736842105263158" height="9.736842105263158" x="528.4649122807018" y="39.57602339181287" fill="#09afb4" stroke="none"></rect><rect width="9.736842105263158" height="9.736842105263158" x="572.9093567251463" y="39.57602339181287" fill="#09afb4" stroke="none"></rect><rect width="9.736842105263158" height="9.736842105263158" x="617.3538011695907" y="39.57602339181287"></rect><rect width="9.736842105263158" height="9.736842105263158" x="661.7982456140352" y="39.57602339181287" fill="#09afb4" stroke="none"></rect><rect width="9.736842105263158" height="9.736842105263158" x="706.2426900584796" y="39.57602339181287"></rect><rect width="9.736842105263158" height="9.736842105263158" x="750.6871345029241" y="39.57602339181287"></rect><rect width="9.736842105263158" height="9.736842105263158" x="795.1315789473686" y="39.57602339181287" fill="#09afb4" stroke="none"></rect><rect width="9.736842105263158" height="9.736842105263158" x="-4.868421052631579" y="84.02046783625731" fill="#09afb4" stroke="none"></rect><rect width="9.736842105263158" height="9.736842105263158" x="39.57602339181287" y="84.02046783625731" fill="#09afb4" stroke="none"></rect><rect width="9.736842105263158" height="9.736842105263158" x="84.02046783625731" y="84.02046783625731"></rect><rect width="9.736842105263158" height="9.736842105263158" x="128.46491228070172" y="84.02046783625731" fill="#09afb4" stroke="none"></rect><rect width="9.736842105263158" height="9.736842105263158" x="172.90935672514618" y="84.02046783625731" fill="#09afb4" stroke="none"></rect><rect width="9.736842105263158" height="9.736842105263158" x="217.35380116959064" y="84.02046783625731"></rect><rect width="9.736842105263158" height="9.736842105263158" x="261.7982456140351" y="84.02046783625731"></rect><rect width="9.736842105263158" height="9.736842105263158" x="306.2426900584796" y="84.02046783625731" fill="#09afb4" stroke="none"></rect><rect width="9.736842105263158" height="9.736842105263158" x="350.68713450292404" y="84.02046783625731" fill="#09afb4" stroke="none"></rect><rect width="9.736842105263158" height="9.736842105263158" x="395.1315789473685" y="84.02046783625731" fill="#09afb4" stroke="none"></rect><rect width="9.736842105263158" height="9.736842105263158" x="439.57602339181295" y="84.02046783625731" fill="#09afb4" stroke="none"></rect><rect width="9.736842105263158" height="9.736842105263158" x="484.0204678362574" y="84.02046783625731" fill="#09afb4" stroke="none"></rect><rect width="9.736842105263158" height="9.736842105263158" x="528.4649122807018" y="84.02046783625731" fill="#09afb4" stroke="none"></rect><rect width="9.736842105263158" height="9.736842105263158" x="572.9093567251463" y="84.02046783625731"></rect><rect width="9.736842105263158" height="9.736842105263158" x="617.3538011695907" y="84.02046783625731"></rect><rect width="9.736842105263158" height="9.736842105263158" x="661.7982456140352" y="84.02046783625731" fill="#09afb4" stroke="none"></rect><rect width="9.736842105263158" height="9.736842105263158" x="706.2426900584796" y="84.02046783625731"></rect><rect width="9.736842105263158" height="9.736842105263158" x="750.6871345029241" y="84.02046783625731" fill="#09afb4" stroke="none"></rect><rect width="9.736842105263158" height="9.736842105263158" x="795.1315789473686" y="84.02046783625731" fill="#09afb4" stroke="none"></rect><rect width="9.736842105263158" height="9.736842105263158" x="-4.868421052631579" y="128.46491228070172" fill="#09afb4" stroke="none"></rect><rect width="9.736842105263158" height="9.736842105263158" x="39.57602339181287" y="128.46491228070172"></rect><rect width="9.736842105263158" height="9.736842105263158" x="84.02046783625731" y="128.46491228070172" fill="#09afb4" stroke="none"></rect><rect width="9.736842105263158" height="9.736842105263158" x="128.46491228070172" y="128.46491228070172" fill="#09afb4" stroke="none"></rect><rect width="9.736842105263158" height="9.736842105263158" x="172.90935672514618" y="128.46491228070172" fill="#09afb4" stroke="none"></rect><rect width="9.736842105263158" height="9.736842105263158" x="217.35380116959064" y="128.46491228070172"></rect><rect width="9.736842105263158" height="9.736842105263158" x="261.7982456140351" y="128.46491228070172" fill="#09afb4" stroke="none"></rect><rect width="9.736842105263158" height="9.736842105263158" x="306.2426900584796" y="128.46491228070172"></rect><rect width="9.736842105263158" height="9.736842105263158" x="350.68713450292404" y="128.46491228070172" fill="#09afb4" stroke="none"></rect><rect width="9.736842105263158" height="9.736842105263158" x="395.1315789473685" y="128.46491228070172" fill="#09afb4" stroke="none"></rect><rect width="9.736842105263158" height="9.736842105263158" x="439.57602339181295" y="128.46491228070172" fill="#09afb4" stroke="none"></rect><rect width="9.736842105263158" height="9.736842105263158" x="484.0204678362574" y="128.46491228070172" fill="#09afb4" stroke="none"></rect><rect width="9.736842105263158" height="9.736842105263158" x="528.4649122807018" y="128.46491228070172" fill="#09afb4" stroke="none"></rect><rect width="9.736842105263158" height="9.736842105263158" x="572.9093567251463" y="128.46491228070172" fill="#09afb4" stroke="none"></rect><rect width="9.736842105263158" height="9.736842105263158" x="617.3538011695907" y="128.46491228070172"></rect><rect width="9.736842105263158" height="9.736842105263158" x="661.7982456140352" y="128.46491228070172" fill="#09afb4" stroke="none"></rect><rect width="9.736842105263158" height="9.736842105263158" x="706.2426900584796" y="128.46491228070172"></rect><rect width="9.736842105263158" height="9.736842105263158" x="750.6871345029241" y="128.46491228070172" fill="#09afb4" stroke="none"></rect><rect width="9.736842105263158" height="9.736842105263158" x="795.1315789473686" y="128.46491228070172" fill="#09afb4" stroke="none"></rect><rect width="9.736842105263158" height="9.736842105263158" x="-4.868421052631579" y="172.90935672514618" fill="#09afb4" stroke="none"></rect><rect width="9.736842105263158" height="9.736842105263158" x="39.57602339181287" y="172.90935672514618" fill="#09afb4" stroke="none"></rect><rect width="9.736842105263158" height="9.736842105263158" x="84.02046783625731" y="172.90935672514618" fill="#09afb4" stroke="none"></rect><rect width="9.736842105263158" height="9.736842105263158" x="128.46491228070172" y="172.90935672514618" fill="#09afb4" stroke="none"></rect><rect width="9.736842105263158" height="9.736842105263158" x="172.90935672514618" y="172.90935672514618" fill="#09afb4" stroke="none"></rect><rect width="9.736842105263158" height="9.736842105263158" x="217.35380116959064" y="172.90935672514618" fill="#09afb4" stroke="none"></rect><rect width="9.736842105263158" height="9.736842105263158" x="261.7982456140351" y="172.90935672514618"></rect><rect width="9.736842105263158" height="9.736842105263158" x="306.2426900584796" y="172.90935672514618" fill="#09afb4" stroke="none"></rect><rect width="9.736842105263158" height="9.736842105263158" x="350.68713450292404" y="172.90935672514618"></rect><rect width="9.736842105263158" height="9.736842105263158" x="395.1315789473685" y="172.90935672514618" fill="#09afb4" stroke="none"></rect><rect width="9.736842105263158" height="9.736842105263158" x="439.57602339181295" y="172.90935672514618" fill="#09afb4" stroke="none"></rect><rect width="9.736842105263158" height="9.736842105263158" x="484.0204678362574" y="172.90935672514618" fill="#09afb4" stroke="none"></rect><rect width="9.736842105263158" height="9.736842105263158" x="528.4649122807018" y="172.90935672514618" fill="#09afb4" stroke="none"></rect><rect width="9.736842105263158" height="9.736842105263158" x="572.9093567251463" y="172.90935672514618" fill="#09afb4" stroke="none"></rect><rect width="9.736842105263158" height="9.736842105263158" x="617.3538011695907" y="172.90935672514618" fill="#09afb4" stroke="none"></rect><rect width="9.736842105263158" height="9.736842105263158" x="661.7982456140352" y="172.90935672514618" fill="#09afb4" stroke="none"></rect><rect width="9.736842105263158" height="9.736842105263158" x="706.2426900584796" y="172.90935672514618"></rect><rect width="9.736842105263158" height="9.736842105263158" x="750.6871345029241" y="172.90935672514618"></rect><rect width="9.736842105263158" height="9.736842105263158" x="795.1315789473686" y="172.90935672514618" fill="#09afb4" stroke="none"></rect><rect width="9.736842105263158" height="9.736842105263158" x="-4.868421052631579" y="217.35380116959064" fill="#09afb4" stroke="none"></rect><rect width="9.736842105263158" height="9.736842105263158" x="39.57602339181287" y="217.35380116959064" fill="#09afb4" stroke="none"></rect><rect width="9.736842105263158" height="9.736842105263158" x="84.02046783625731" y="217.35380116959064"></rect><rect width="9.736842105263158" height="9.736842105263158" x="128.46491228070172" y="217.35380116959064" fill="#09afb4" stroke="none"></rect><rect width="9.736842105263158" height="9.736842105263158" x="172.90935672514618" y="217.35380116959064"></rect><rect width="9.736842105263158" height="9.736842105263158" x="217.35380116959064" y="217.35380116959064"></rect><rect width="9.736842105263158" height="9.736842105263158" x="261.7982456140351" y="217.35380116959064"></rect><rect width="9.736842105263158" height="9.736842105263158" x="306.2426900584796" y="217.35380116959064" fill="#09afb4" stroke="none"></rect><rect width="9.736842105263158" height="9.736842105263158" x="350.68713450292404" y="217.35380116959064"></rect><rect width="9.736842105263158" height="9.736842105263158" x="395.1315789473685" y="217.35380116959064" fill="#09afb4" stroke="none"></rect><rect width="9.736842105263158" height="9.736842105263158" x="439.57602339181295" y="217.35380116959064" fill="#09afb4" stroke="none"></rect><rect width="9.736842105263158" height="9.736842105263158" x="484.0204678362574" y="217.35380116959064" fill="#09afb4" stroke="none"></rect><rect width="9.736842105263158" height="9.736842105263158" x="528.4649122807018" y="217.35380116959064" fill="#09afb4" stroke="none"></rect><rect width="9.736842105263158" height="9.736842105263158" x="572.9093567251463" y="217.35380116959064" fill="#09afb4" stroke="none"></rect><rect width="9.736842105263158" height="9.736842105263158" x="617.3538011695907" y="217.35380116959064"></rect><rect width="9.736842105263158" height="9.736842105263158" x="661.7982456140352" y="217.35380116959064" fill="#09afb4" stroke="none"></rect><rect width="9.736842105263158" height="9.736842105263158" x="706.2426900584796" y="217.35380116959064" fill="#09afb4" stroke="none"></rect><rect width="9.736842105263158" height="9.736842105263158" x="750.6871345029241" y="217.35380116959064" fill="#09afb4" stroke="none"></rect><rect width="9.736842105263158" height="9.736842105263158" x="795.1315789473686" y="217.35380116959064" fill="#09afb4" stroke="none"></rect><rect width="9.736842105263158" height="9.736842105263158" x="-4.868421052631579" y="261.7982456140351" fill="#09afb4" stroke="none"></rect><rect width="9.736842105263158" height="9.736842105263158" x="39.57602339181287" y="261.7982456140351" fill="#09afb4" stroke="none"></rect><rect width="9.736842105263158" height="9.736842105263158" x="84.02046783625731" y="261.7982456140351" fill="#09afb4" stroke="none"></rect><rect width="9.736842105263158" height="9.736842105263158" x="128.46491228070172" y="261.7982456140351"></rect><rect width="9.736842105263158" height="9.736842105263158" x="172.90935672514618" y="261.7982456140351"></rect><rect width="9.736842105263158" height="9.736842105263158" x="217.35380116959064" y="261.7982456140351"></rect><rect width="9.736842105263158" height="9.736842105263158" x="261.7982456140351" y="261.7982456140351" fill="#09afb4" stroke="none"></rect><rect width="9.736842105263158" height="9.736842105263158" x="306.2426900584796" y="261.7982456140351" fill="#09afb4" stroke="none"></rect><rect width="9.736842105263158" height="9.736842105263158" x="350.68713450292404" y="261.7982456140351" fill="#09afb4" stroke="none"></rect><rect width="9.736842105263158" height="9.736842105263158" x="395.1315789473685" y="261.7982456140351"></rect><rect width="9.736842105263158" height="9.736842105263158" x="439.57602339181295" y="261.7982456140351" fill="#09afb4" stroke="none"></rect><rect width="9.736842105263158" height="9.736842105263158" x="484.0204678362574" y="261.7982456140351"></rect><rect width="9.736842105263158" height="9.736842105263158" x="528.4649122807018" y="261.7982456140351"></rect><rect width="9.736842105263158" height="9.736842105263158" x="572.9093567251463" y="261.7982456140351" fill="#09afb4" stroke="none"></rect><rect width="9.736842105263158" height="9.736842105263158" x="617.3538011695907" y="261.7982456140351" fill="#09afb4" stroke="none"></rect><rect width="9.736842105263158" height="9.736842105263158" x="661.7982456140352" y="261.7982456140351" fill="#09afb4" stroke="none"></rect><rect width="9.736842105263158" height="9.736842105263158" x="706.2426900584796" y="261.7982456140351" fill="#09afb4" stroke="none"></rect><rect width="9.736842105263158" height="9.736842105263158" x="750.6871345029241" y="261.7982456140351" fill="#09afb4" stroke="none"></rect><rect width="9.736842105263158" height="9.736842105263158" x="795.1315789473686" y="261.7982456140351" fill="#09afb4" stroke="none"></rect><rect width="9.736842105263158" height="9.736842105263158" x="-4.868421052631579" y="306.2426900584796" fill="#09afb4" stroke="none"></rect><rect width="9.736842105263158" height="9.736842105263158" x="39.57602339181287" y="306.2426900584796" fill="#09afb4" stroke="none"></rect><rect width="9.736842105263158" height="9.736842105263158" x="84.02046783625731" y="306.2426900584796" fill="#09afb4" stroke="none"></rect><rect width="9.736842105263158" height="9.736842105263158" x="128.46491228070172" y="306.2426900584796" fill="#09afb4" stroke="none"></rect><rect width="9.736842105263158" height="9.736842105263158" x="172.90935672514618" y="306.2426900584796"></rect><rect width="9.736842105263158" height="9.736842105263158" x="217.35380116959064" y="306.2426900584796"></rect><rect width="9.736842105263158" height="9.736842105263158" x="261.7982456140351" y="306.2426900584796" fill="#09afb4" stroke="none"></rect><rect width="9.736842105263158" height="9.736842105263158" x="306.2426900584796" y="306.2426900584796" fill="#09afb4" stroke="none"></rect><rect width="9.736842105263158" height="9.736842105263158" x="350.68713450292404" y="306.2426900584796" fill="#09afb4" stroke="none"></rect><rect width="9.736842105263158" height="9.736842105263158" x="395.1315789473685" y="306.2426900584796" fill="#09afb4" stroke="none"></rect><rect width="9.736842105263158" height="9.736842105263158" x="439.57602339181295" y="306.2426900584796" fill="#09afb4" stroke="none"></rect><rect width="9.736842105263158" height="9.736842105263158" x="484.0204678362574" y="306.2426900584796" fill="#09afb4" stroke="none"></rect><rect width="9.736842105263158" height="9.736842105263158" x="528.4649122807018" y="306.2426900584796" fill="#09afb4" stroke="none"></rect><rect width="9.736842105263158" height="9.736842105263158" x="572.9093567251463" y="306.2426900584796" fill="#09afb4" stroke="none"></rect><rect width="9.736842105263158" height="9.736842105263158" x="617.3538011695907" y="306.2426900584796"></rect><rect width="9.736842105263158" height="9.736842105263158" x="661.7982456140352" y="306.2426900584796"></rect><rect width="9.736842105263158" height="9.736842105263158" x="706.2426900584796" y="306.2426900584796" fill="#09afb4" stroke="none"></rect><rect width="9.736842105263158" height="9.736842105263158" x="750.6871345029241" y="306.2426900584796"></rect><rect width="9.736842105263158" height="9.736842105263158" x="795.1315789473686" y="306.2426900584796" fill="#09afb4" stroke="none"></rect><rect width="9.736842105263158" height="9.736842105263158" x="-4.868421052631579" y="350.68713450292404" fill="#09afb4" stroke="none"></rect><rect width="9.736842105263158" height="9.736842105263158" x="39.57602339181287" y="350.68713450292404"></rect><rect width="9.736842105263158" height="9.736842105263158" x="84.02046783625731" y="350.68713450292404"></rect><rect width="9.736842105263158" height="9.736842105263158" x="128.46491228070172" y="350.68713450292404" fill="#09afb4" stroke="none"></rect><rect width="9.736842105263158" height="9.736842105263158" x="172.90935672514618" y="350.68713450292404" fill="#09afb4" stroke="none"></rect><rect width="9.736842105263158" height="9.736842105263158" x="217.35380116959064" y="350.68713450292404" fill="#09afb4" stroke="none"></rect><rect width="9.736842105263158" height="9.736842105263158" x="261.7982456140351" y="350.68713450292404" fill="#09afb4" stroke="none"></rect><rect width="9.736842105263158" height="9.736842105263158" x="306.2426900584796" y="350.68713450292404" fill="#09afb4" stroke="none"></rect><rect width="9.736842105263158" height="9.736842105263158" x="350.68713450292404" y="350.68713450292404" fill="#09afb4" stroke="none"></rect><rect width="9.736842105263158" height="9.736842105263158" x="395.1315789473685" y="350.68713450292404" fill="#09afb4" stroke="none"></rect><rect width="9.736842105263158" height="9.736842105263158" x="439.57602339181295" y="350.68713450292404"></rect><rect width="9.736842105263158" height="9.736842105263158" x="484.0204678362574" y="350.68713450292404"></rect><rect width="9.736842105263158" height="9.736842105263158" x="528.4649122807018" y="350.68713450292404" fill="#09afb4" stroke="none"></rect><rect width="9.736842105263158" height="9.736842105263158" x="572.9093567251463" y="350.68713450292404"></rect><rect width="9.736842105263158" height="9.736842105263158" x="617.3538011695907" y="350.68713450292404"></rect><rect width="9.736842105263158" height="9.736842105263158" x="661.7982456140352" y="350.68713450292404" fill="#09afb4" stroke="none"></rect><rect width="9.736842105263158" height="9.736842105263158" x="706.2426900584796" y="350.68713450292404" fill="#09afb4" stroke="none"></rect><rect width="9.736842105263158" height="9.736842105263158" x="750.6871345029241" y="350.68713450292404" fill="#09afb4" stroke="none"></rect><rect width="9.736842105263158" height="9.736842105263158" x="795.1315789473686" y="350.68713450292404" fill="#09afb4" stroke="none"></rect><rect width="9.736842105263158" height="9.736842105263158" x="-4.868421052631579" y="395.1315789473685" fill="#09afb4" stroke="none"></rect><rect width="9.736842105263158" height="9.736842105263158" x="39.57602339181287" y="395.1315789473685" fill="#09afb4" stroke="none"></rect><rect width="9.736842105263158" height="9.736842105263158" x="84.02046783625731" y="395.1315789473685" fill="#09afb4" stroke="none"></rect><rect width="9.736842105263158" height="9.736842105263158" x="128.46491228070172" y="395.1315789473685" fill="#09afb4" stroke="none"></rect><rect width="9.736842105263158" height="9.736842105263158" x="172.90935672514618" y="395.1315789473685" fill="#09afb4" stroke="none"></rect><rect width="9.736842105263158" height="9.736842105263158" x="217.35380116959064" y="395.1315789473685" fill="#09afb4" stroke="none"></rect><rect width="9.736842105263158" height="9.736842105263158" x="261.7982456140351" y="395.1315789473685" fill="#09afb4" stroke="none"></rect><rect width="9.736842105263158" height="9.736842105263158" x="306.2426900584796" y="395.1315789473685" fill="#09afb4" stroke="none"></rect><rect width="9.736842105263158" height="9.736842105263158" x="350.68713450292404" y="395.1315789473685"></rect><rect width="9.736842105263158" height="9.736842105263158" x="395.1315789473685" y="395.1315789473685" fill="#09afb4" stroke="none"></rect><rect width="9.736842105263158" height="9.736842105263158" x="439.57602339181295" y="395.1315789473685" fill="#09afb4" stroke="none"></rect><rect width="9.736842105263158" height="9.736842105263158" x="484.0204678362574" y="395.1315789473685" fill="#09afb4" stroke="none"></rect><rect width="9.736842105263158" height="9.736842105263158" x="528.4649122807018" y="395.1315789473685"></rect><rect width="9.736842105263158" height="9.736842105263158" x="572.9093567251463" y="395.1315789473685" fill="#09afb4" stroke="none"></rect><rect width="9.736842105263158" height="9.736842105263158" x="617.3538011695907" y="395.1315789473685" fill="#09afb4" stroke="none"></rect><rect width="9.736842105263158" height="9.736842105263158" x="661.7982456140352" y="395.1315789473685"></rect><rect width="9.736842105263158" height="9.736842105263158" x="706.2426900584796" y="395.1315789473685" fill="#09afb4" stroke="none"></rect><rect width="9.736842105263158" height="9.736842105263158" x="750.6871345029241" y="395.1315789473685" fill="#09afb4" stroke="none"></rect><rect width="9.736842105263158" height="9.736842105263158" x="795.1315789473686" y="395.1315789473685" fill="#09afb4" stroke="none"></rect><rect width="9.736842105263158" height="9.736842105263158" x="-4.868421052631579" y="439.57602339181295" fill="#09afb4" stroke="none"></rect><rect width="9.736842105263158" height="9.736842105263158" x="39.57602339181287" y="439.57602339181295" fill="#09afb4" stroke="none"></rect><rect width="9.736842105263158" height="9.736842105263158" x="84.02046783625731" y="439.57602339181295" fill="#09afb4" stroke="none"></rect><rect width="9.736842105263158" height="9.736842105263158" x="128.46491228070172" y="439.57602339181295"></rect><rect width="9.736842105263158" height="9.736842105263158" x="172.90935672514618" y="439.57602339181295" fill="#09afb4" stroke="none"></rect><rect width="9.736842105263158" height="9.736842105263158" x="217.35380116959064" y="439.57602339181295"></rect><rect width="9.736842105263158" height="9.736842105263158" x="261.7982456140351" y="439.57602339181295" fill="#09afb4" stroke="none"></rect><rect width="9.736842105263158" height="9.736842105263158" x="306.2426900584796" y="439.57602339181295" fill="#09afb4" stroke="none"></rect><rect width="9.736842105263158" height="9.736842105263158" x="350.68713450292404" y="439.57602339181295" fill="#09afb4" stroke="none"></rect><rect width="9.736842105263158" height="9.736842105263158" x="395.1315789473685" y="439.57602339181295" fill="#09afb4" stroke="none"></rect><rect width="9.736842105263158" height="9.736842105263158" x="439.57602339181295" y="439.57602339181295" fill="#09afb4" stroke="none"></rect><rect width="9.736842105263158" height="9.736842105263158" x="484.0204678362574" y="439.57602339181295" fill="#09afb4" stroke="none"></rect><rect width="9.736842105263158" height="9.736842105263158" x="528.4649122807018" y="439.57602339181295" fill="#09afb4" stroke="none"></rect><rect width="9.736842105263158" height="9.736842105263158" x="572.9093567251463" y="439.57602339181295" fill="#09afb4" stroke="none"></rect><rect width="9.736842105263158" height="9.736842105263158" x="617.3538011695907" y="439.57602339181295" fill="#09afb4" stroke="none"></rect><rect width="9.736842105263158" height="9.736842105263158" x="661.7982456140352" y="439.57602339181295" fill="#09afb4" stroke="none"></rect><rect width="9.736842105263158" height="9.736842105263158" x="706.2426900584796" y="439.57602339181295"></rect><rect width="9.736842105263158" height="9.736842105263158" x="750.6871345029241" y="439.57602339181295"></rect><rect width="9.736842105263158" height="9.736842105263158" x="795.1315789473686" y="439.57602339181295" fill="#09afb4" stroke="none"></rect><rect width="9.736842105263158" height="9.736842105263158" x="-4.868421052631579" y="484.0204678362574" fill="#09afb4" stroke="none"></rect><rect width="9.736842105263158" height="9.736842105263158" x="39.57602339181287" y="484.0204678362574"></rect><rect width="9.736842105263158" height="9.736842105263158" x="84.02046783625731" y="484.0204678362574" fill="#09afb4" stroke="none"></rect><rect width="9.736842105263158" height="9.736842105263158" x="128.46491228070172" y="484.0204678362574" fill="#09afb4" stroke="none"></rect><rect width="9.736842105263158" height="9.736842105263158" x="172.90935672514618" y="484.0204678362574" fill="#09afb4" stroke="none"></rect><rect width="9.736842105263158" height="9.736842105263158" x="217.35380116959064" y="484.0204678362574" fill="#09afb4" stroke="none"></rect><rect width="9.736842105263158" height="9.736842105263158" x="261.7982456140351" y="484.0204678362574" fill="#09afb4" stroke="none"></rect><rect width="9.736842105263158" height="9.736842105263158" x="306.2426900584796" y="484.0204678362574" fill="#09afb4" stroke="none"></rect><rect width="9.736842105263158" height="9.736842105263158" x="350.68713450292404" y="484.0204678362574" fill="#09afb4" stroke="none"></rect><rect width="9.736842105263158" height="9.736842105263158" x="395.1315789473685" y="484.0204678362574" fill="#09afb4" stroke="none"></rect><rect width="9.736842105263158" height="9.736842105263158" x="439.57602339181295" y="484.0204678362574" fill="#09afb4" stroke="none"></rect><rect width="9.736842105263158" height="9.736842105263158" x="484.0204678362574" y="484.0204678362574" fill="#09afb4" stroke="none"></rect><rect width="9.736842105263158" height="9.736842105263158" x="528.4649122807018" y="484.0204678362574" fill="#09afb4" stroke="none"></rect><rect width="9.736842105263158" height="9.736842105263158" x="572.9093567251463" y="484.0204678362574" fill="#09afb4" stroke="none"></rect><rect width="9.736842105263158" height="9.736842105263158" x="617.3538011695907" y="484.0204678362574" fill="#09afb4" stroke="none"></rect><rect width="9.736842105263158" height="9.736842105263158" x="661.7982456140352" y="484.0204678362574"></rect><rect width="9.736842105263158" height="9.736842105263158" x="706.2426900584796" y="484.0204678362574" fill="#09afb4" stroke="none"></rect><rect width="9.736842105263158" height="9.736842105263158" x="750.6871345029241" y="484.0204678362574" fill="#09afb4" stroke="none"></rect><rect width="9.736842105263158" height="9.736842105263158" x="795.1315789473686" y="484.0204678362574" fill="#09afb4" stroke="none"></rect><rect width="9.736842105263158" height="9.736842105263158" x="-4.868421052631579" y="528.4649122807018" fill="#09afb4" stroke="none"></rect><rect width="9.736842105263158" height="9.736842105263158" x="39.57602339181287" y="528.4649122807018" fill="#09afb4" stroke="none"></rect><rect width="9.736842105263158" height="9.736842105263158" x="84.02046783625731" y="528.4649122807018" fill="#09afb4" stroke="none"></rect><rect width="9.736842105263158" height="9.736842105263158" x="128.46491228070172" y="528.4649122807018" fill="#09afb4" stroke="none"></rect><rect width="9.736842105263158" height="9.736842105263158" x="172.90935672514618" y="528.4649122807018" fill="#09afb4" stroke="none"></rect><rect width="9.736842105263158" height="9.736842105263158" x="217.35380116959064" y="528.4649122807018" fill="#09afb4" stroke="none"></rect><rect width="9.736842105263158" height="9.736842105263158" x="261.7982456140351" y="528.4649122807018"></rect><rect width="9.736842105263158" height="9.736842105263158" x="306.2426900584796" y="528.4649122807018" fill="#09afb4" stroke="none"></rect><rect width="9.736842105263158" height="9.736842105263158" x="350.68713450292404" y="528.4649122807018" fill="#09afb4" stroke="none"></rect><rect width="9.736842105263158" height="9.736842105263158" x="395.1315789473685" y="528.4649122807018" fill="#09afb4" stroke="none"></rect><rect width="9.736842105263158" height="9.736842105263158" x="439.57602339181295" y="528.4649122807018" fill="#09afb4" stroke="none"></rect><rect width="9.736842105263158" height="9.736842105263158" x="484.0204678362574" y="528.4649122807018" fill="#09afb4" stroke="none"></rect><rect width="9.736842105263158" height="9.736842105263158" x="528.4649122807018" y="528.4649122807018" fill="#09afb4" stroke="none"></rect><rect width="9.736842105263158" height="9.736842105263158" x="572.9093567251463" y="528.4649122807018" fill="#09afb4" stroke="none"></rect><rect width="9.736842105263158" height="9.736842105263158" x="617.3538011695907" y="528.4649122807018" fill="#09afb4" stroke="none"></rect><rect width="9.736842105263158" height="9.736842105263158" x="661.7982456140352" y="528.4649122807018" fill="#09afb4" stroke="none"></rect><rect width="9.736842105263158" height="9.736842105263158" x="706.2426900584796" y="528.4649122807018"></rect><rect width="9.736842105263158" height="9.736842105263158" x="750.6871345029241" y="528.4649122807018"></rect><rect width="9.736842105263158" height="9.736842105263158" x="795.1315789473686" y="528.4649122807018" fill="#09afb4" stroke="none"></rect><rect width="9.736842105263158" height="9.736842105263158" x="-4.868421052631579" y="572.9093567251463" fill="#09afb4" stroke="none"></rect><rect width="9.736842105263158" height="9.736842105263158" x="39.57602339181287" y="572.9093567251463" fill="#09afb4" stroke="none"></rect><rect width="9.736842105263158" height="9.736842105263158" x="84.02046783625731" y="572.9093567251463" fill="#09afb4" stroke="none"></rect><rect width="9.736842105263158" height="9.736842105263158" x="128.46491228070172" y="572.9093567251463" fill="#09afb4" stroke="none"></rect><rect width="9.736842105263158" height="9.736842105263158" x="172.90935672514618" y="572.9093567251463" fill="#09afb4" stroke="none"></rect><rect width="9.736842105263158" height="9.736842105263158" x="217.35380116959064" y="572.9093567251463" fill="#09afb4" stroke="none"></rect><rect width="9.736842105263158" height="9.736842105263158" x="261.7982456140351" y="572.9093567251463" fill="#09afb4" stroke="none"></rect><rect width="9.736842105263158" height="9.736842105263158" x="306.2426900584796" y="572.9093567251463" fill="#09afb4" stroke="none"></rect><rect width="9.736842105263158" height="9.736842105263158" x="350.68713450292404" y="572.9093567251463" fill="#09afb4" stroke="none"></rect><rect width="9.736842105263158" height="9.736842105263158" x="395.1315789473685" y="572.9093567251463" fill="#09afb4" stroke="none"></rect><rect width="9.736842105263158" height="9.736842105263158" x="439.57602339181295" y="572.9093567251463" fill="#09afb4" stroke="none"></rect><rect width="9.736842105263158" height="9.736842105263158" x="484.0204678362574" y="572.9093567251463" fill="#09afb4" stroke="none"></rect><rect width="9.736842105263158" height="9.736842105263158" x="528.4649122807018" y="572.9093567251463" fill="#09afb4" stroke="none"></rect><rect width="9.736842105263158" height="9.736842105263158" x="572.9093567251463" y="572.9093567251463" fill="#09afb4" stroke="none"></rect><rect width="9.736842105263158" height="9.736842105263158" x="617.3538011695907" y="572.9093567251463" fill="#09afb4" stroke="none"></rect><rect width="9.736842105263158" height="9.736842105263158" x="661.7982456140352" y="572.9093567251463" fill="#09afb4" stroke="none"></rect><rect width="9.736842105263158" height="9.736842105263158" x="706.2426900584796" y="572.9093567251463" fill="#09afb4" stroke="none"></rect><rect width="9.736842105263158" height="9.736842105263158" x="750.6871345029241" y="572.9093567251463" fill="#09afb4" stroke="none"></rect><rect width="9.736842105263158" height="9.736842105263158" x="795.1315789473686" y="572.9093567251463" fill="#09afb4" stroke="none"></rect><rect width="9.736842105263158" height="9.736842105263158" x="-4.868421052631579" y="617.3538011695907" fill="#09afb4" stroke="none"></rect><rect width="9.736842105263158" height="9.736842105263158" x="39.57602339181287" y="617.3538011695907" fill="#09afb4" stroke="none"></rect><rect width="9.736842105263158" height="9.736842105263158" x="84.02046783625731" y="617.3538011695907"></rect><rect width="9.736842105263158" height="9.736842105263158" x="128.46491228070172" y="617.3538011695907" fill="#09afb4" stroke="none"></rect><rect width="9.736842105263158" height="9.736842105263158" x="172.90935672514618" y="617.3538011695907"></rect><rect width="9.736842105263158" height="9.736842105263158" x="217.35380116959064" y="617.3538011695907" fill="#09afb4" stroke="none"></rect><rect width="9.736842105263158" height="9.736842105263158" x="261.7982456140351" y="617.3538011695907" fill="#09afb4" stroke="none"></rect><rect width="9.736842105263158" height="9.736842105263158" x="306.2426900584796" y="617.3538011695907" fill="#09afb4" stroke="none"></rect><rect width="9.736842105263158" height="9.736842105263158" x="350.68713450292404" y="617.3538011695907"></rect><rect width="9.736842105263158" height="9.736842105263158" x="395.1315789473685" y="617.3538011695907"></rect><rect width="9.736842105263158" height="9.736842105263158" x="439.57602339181295" y="617.3538011695907"></rect><rect width="9.736842105263158" height="9.736842105263158" x="484.0204678362574" y="617.3538011695907" fill="#09afb4" stroke="none"></rect><rect width="9.736842105263158" height="9.736842105263158" x="528.4649122807018" y="617.3538011695907" fill="#09afb4" stroke="none"></rect><rect width="9.736842105263158" height="9.736842105263158" x="572.9093567251463" y="617.3538011695907" fill="#09afb4" stroke="none"></rect><rect width="9.736842105263158" height="9.736842105263158" x="617.3538011695907" y="617.3538011695907" fill="#09afb4" stroke="none"></rect><rect width="9.736842105263158" height="9.736842105263158" x="661.7982456140352" y="617.3538011695907" fill="#09afb4" stroke="none"></rect><rect width="9.736842105263158" height="9.736842105263158" x="706.2426900584796" y="617.3538011695907" fill="#09afb4" stroke="none"></rect><rect width="9.736842105263158" height="9.736842105263158" x="750.6871345029241" y="617.3538011695907" fill="#09afb4" stroke="none"></rect><rect width="9.736842105263158" height="9.736842105263158" x="795.1315789473686" y="617.3538011695907" fill="#09afb4" stroke="none"></rect><rect width="9.736842105263158" height="9.736842105263158" x="-4.868421052631579" y="661.7982456140352" fill="#09afb4" stroke="none"></rect><rect width="9.736842105263158" height="9.736842105263158" x="39.57602339181287" y="661.7982456140352"></rect><rect width="9.736842105263158" height="9.736842105263158" x="84.02046783625731" y="661.7982456140352"></rect><rect width="9.736842105263158" height="9.736842105263158" x="128.46491228070172" y="661.7982456140352" fill="#09afb4" stroke="none"></rect><rect width="9.736842105263158" height="9.736842105263158" x="172.90935672514618" y="661.7982456140352" fill="#09afb4" stroke="none"></rect><rect width="9.736842105263158" height="9.736842105263158" x="217.35380116959064" y="661.7982456140352" fill="#09afb4" stroke="none"></rect><rect width="9.736842105263158" height="9.736842105263158" x="261.7982456140351" y="661.7982456140352" fill="#09afb4" stroke="none"></rect><rect width="9.736842105263158" height="9.736842105263158" x="306.2426900584796" y="661.7982456140352" fill="#09afb4" stroke="none"></rect><rect width="9.736842105263158" height="9.736842105263158" x="350.68713450292404" y="661.7982456140352" fill="#09afb4" stroke="none"></rect><rect width="9.736842105263158" height="9.736842105263158" x="395.1315789473685" y="661.7982456140352"></rect><rect width="9.736842105263158" height="9.736842105263158" x="439.57602339181295" y="661.7982456140352" fill="#09afb4" stroke="none"></rect><rect width="9.736842105263158" height="9.736842105263158" x="484.0204678362574" y="661.7982456140352" fill="#09afb4" stroke="none"></rect><rect width="9.736842105263158" height="9.736842105263158" x="528.4649122807018" y="661.7982456140352"></rect><rect width="9.736842105263158" height="9.736842105263158" x="572.9093567251463" y="661.7982456140352" fill="#09afb4" stroke="none"></rect><rect width="9.736842105263158" height="9.736842105263158" x="617.3538011695907" y="661.7982456140352" fill="#09afb4" stroke="none"></rect><rect width="9.736842105263158" height="9.736842105263158" x="661.7982456140352" y="661.7982456140352"></rect><rect width="9.736842105263158" height="9.736842105263158" x="706.2426900584796" y="661.7982456140352" fill="#09afb4" stroke="none"></rect><rect width="9.736842105263158" height="9.736842105263158" x="750.6871345029241" y="661.7982456140352" fill="#09afb4" stroke="none"></rect><rect width="9.736842105263158" height="9.736842105263158" x="795.1315789473686" y="661.7982456140352" fill="#09afb4" stroke="none"></rect><rect width="9.736842105263158" height="9.736842105263158" x="-4.868421052631579" y="706.2426900584796" fill="#09afb4" stroke="none"></rect><rect width="9.736842105263158" height="9.736842105263158" x="39.57602339181287" y="706.2426900584796" fill="#09afb4" stroke="none"></rect><rect width="9.736842105263158" height="9.736842105263158" x="84.02046783625731" y="706.2426900584796" fill="#09afb4" stroke="none"></rect><rect width="9.736842105263158" height="9.736842105263158" x="128.46491228070172" y="706.2426900584796" fill="#09afb4" stroke="none"></rect><rect width="9.736842105263158" height="9.736842105263158" x="172.90935672514618" y="706.2426900584796"></rect><rect width="9.736842105263158" height="9.736842105263158" x="217.35380116959064" y="706.2426900584796" fill="#09afb4" stroke="none"></rect><rect width="9.736842105263158" height="9.736842105263158" x="261.7982456140351" y="706.2426900584796" fill="#09afb4" stroke="none"></rect><rect width="9.736842105263158" height="9.736842105263158" x="306.2426900584796" y="706.2426900584796"></rect><rect width="9.736842105263158" height="9.736842105263158" x="350.68713450292404" y="706.2426900584796" fill="#09afb4" stroke="none"></rect><rect width="9.736842105263158" height="9.736842105263158" x="395.1315789473685" y="706.2426900584796" fill="#09afb4" stroke="none"></rect><rect width="9.736842105263158" height="9.736842105263158" x="439.57602339181295" y="706.2426900584796"></rect><rect width="9.736842105263158" height="9.736842105263158" x="484.0204678362574" y="706.2426900584796" fill="#09afb4" stroke="none"></rect><rect width="9.736842105263158" height="9.736842105263158" x="528.4649122807018" y="706.2426900584796" fill="#09afb4" stroke="none"></rect><rect width="9.736842105263158" height="9.736842105263158" x="572.9093567251463" y="706.2426900584796" fill="#09afb4" stroke="none"></rect><rect width="9.736842105263158" height="9.736842105263158" x="617.3538011695907" y="706.2426900584796"></rect><rect width="9.736842105263158" height="9.736842105263158" x="661.7982456140352" y="706.2426900584796" fill="#09afb4" stroke="none"></rect><rect width="9.736842105263158" height="9.736842105263158" x="706.2426900584796" y="706.2426900584796" fill="#09afb4" stroke="none"></rect><rect width="9.736842105263158" height="9.736842105263158" x="750.6871345029241" y="706.2426900584796" fill="#09afb4" stroke="none"></rect><rect width="9.736842105263158" height="9.736842105263158" x="795.1315789473686" y="706.2426900584796" fill="#09afb4" stroke="none"></rect><rect width="9.736842105263158" height="9.736842105263158" x="-4.868421052631579" y="750.6871345029241" fill="#09afb4" stroke="none"></rect><rect width="9.736842105263158" height="9.736842105263158" x="39.57602339181287" y="750.6871345029241"></rect><rect width="9.736842105263158" height="9.736842105263158" x="84.02046783625731" y="750.6871345029241" fill="#09afb4" stroke="none"></rect><rect width="9.736842105263158" height="9.736842105263158" x="128.46491228070172" y="750.6871345029241"></rect><rect width="9.736842105263158" height="9.736842105263158" x="172.90935672514618" y="750.6871345029241" fill="#09afb4" stroke="none"></rect><rect width="9.736842105263158" height="9.736842105263158" x="217.35380116959064" y="750.6871345029241" fill="#09afb4" stroke="none"></rect><rect width="9.736842105263158" height="9.736842105263158" x="261.7982456140351" y="750.6871345029241" fill="#09afb4" stroke="none"></rect><rect width="9.736842105263158" height="9.736842105263158" x="306.2426900584796" y="750.6871345029241" fill="#09afb4" stroke="none"></rect><rect width="9.736842105263158" height="9.736842105263158" x="350.68713450292404" y="750.6871345029241"></rect><rect width="9.736842105263158" height="9.736842105263158" x="395.1315789473685" y="750.6871345029241" fill="#09afb4" stroke="none"></rect><rect width="9.736842105263158" height="9.736842105263158" x="439.57602339181295" y="750.6871345029241" fill="#09afb4" stroke="none"></rect><rect width="9.736842105263158" height="9.736842105263158" x="484.0204678362574" y="750.6871345029241" fill="#09afb4" stroke="none"></rect><rect width="9.736842105263158" height="9.736842105263158" x="528.4649122807018" y="750.6871345029241" fill="#09afb4" stroke="none"></rect><rect width="9.736842105263158" height="9.736842105263158" x="572.9093567251463" y="750.6871345029241"></rect><rect width="9.736842105263158" height="9.736842105263158" x="617.3538011695907" y="750.6871345029241" fill="#09afb4" stroke="none"></rect><rect width="9.736842105263158" height="9.736842105263158" x="661.7982456140352" y="750.6871345029241" fill="#09afb4" stroke="none"></rect><rect width="9.736842105263158" height="9.736842105263158" x="706.2426900584796" y="750.6871345029241" fill="#09afb4" stroke="none"></rect><rect width="9.736842105263158" height="9.736842105263158" x="750.6871345029241" y="750.6871345029241" fill="#09afb4" stroke="none"></rect><rect width="9.736842105263158" height="9.736842105263158" x="795.1315789473686" y="750.6871345029241" fill="#09afb4" stroke="none"></rect><rect width="9.736842105263158" height="9.736842105263158" x="-4.868421052631579" y="795.1315789473686" fill="#09afb4" stroke="none"></rect><rect width="9.736842105263158" height="9.736842105263158" x="39.57602339181287" y="795.1315789473686" fill="#09afb4" stroke="none"></rect><rect width="9.736842105263158" height="9.736842105263158" x="84.02046783625731" y="795.1315789473686" fill="#09afb4" stroke="none"></rect><rect width="9.736842105263158" height="9.736842105263158" x="128.46491228070172" y="795.1315789473686" fill="#09afb4" stroke="none"></rect><rect width="9.736842105263158" height="9.736842105263158" x="172.90935672514618" y="795.1315789473686" fill="#09afb4" stroke="none"></rect><rect width="9.736842105263158" height="9.736842105263158" x="217.35380116959064" y="795.1315789473686" fill="#09afb4" stroke="none"></rect><rect width="9.736842105263158" height="9.736842105263158" x="261.7982456140351" y="795.1315789473686" fill="#09afb4" stroke="none"></rect><rect width="9.736842105263158" height="9.736842105263158" x="306.2426900584796" y="795.1315789473686" fill="#09afb4" stroke="none"></rect><rect width="9.736842105263158" height="9.736842105263158" x="350.68713450292404" y="795.1315789473686" fill="#09afb4" stroke="none"></rect><rect width="9.736842105263158" height="9.736842105263158" x="395.1315789473685" y="795.1315789473686" fill="#09afb4" stroke="none"></rect><rect width="9.736842105263158" height="9.736842105263158" x="439.57602339181295" y="795.1315789473686" fill="#09afb4" stroke="none"></rect><rect width="9.736842105263158" height="9.736842105263158" x="484.0204678362574" y="795.1315789473686" fill="#09afb4" stroke="none"></rect><rect width="9.736842105263158" height="9.736842105263158" x="528.4649122807018" y="795.1315789473686" fill="#09afb4" stroke="none"></rect><rect width="9.736842105263158" height="9.736842105263158" x="572.9093567251463" y="795.1315789473686" fill="#09afb4" stroke="none"></rect><rect width="9.736842105263158" height="9.736842105263158" x="617.3538011695907" y="795.1315789473686" fill="#09afb4" stroke="none"></rect><rect width="9.736842105263158" height="9.736842105263158" x="661.7982456140352" y="795.1315789473686" fill="#09afb4" stroke="none"></rect><rect width="9.736842105263158" height="9.736842105263158" x="706.2426900584796" y="795.1315789473686" fill="#09afb4" stroke="none"></rect><rect width="9.736842105263158" height="9.736842105263158" x="750.6871345029241" y="795.1315789473686" fill="#09afb4" stroke="none"></rect><rect width="9.736842105263158" height="9.736842105263158" x="795.1315789473686" y="795.1315789473686" fill="#09afb4" stroke="none"></rect></g></svg>