<svg xmlns="http://www.w3.org/2000/svg" xmlns:svgjs="http://svgjs.dev/svgjs" xmlns:xlink="http://www.w3.org/1999/xlink" width="800" height="800" opacity="1" version="1.1" viewBox="0 0 800 800"><g fill="none" stroke="#09afb4" stroke-width="2"><rect width="9.737" height="9.737" x="-4.868" y="-4.868" fill="#09afb4" stroke="none"/><rect width="9.737" height="9.737" x="39.576" y="-4.868" fill="#09afb4" stroke="none"/><rect width="9.737" height="9.737" x="84.02" y="-4.868" fill="#09afb4" stroke="none"/><rect width="9.737" height="9.737" x="128.465" y="-4.868" fill="#09afb4" stroke="none"/><rect width="9.737" height="9.737" x="172.909" y="-4.868" fill="#09afb4" stroke="none"/><rect width="9.737" height="9.737" x="217.354" y="-4.868" fill="#09afb4" stroke="none"/><rect width="9.737" height="9.737" x="261.798" y="-4.868" fill="#09afb4" stroke="none"/><rect width="9.737" height="9.737" x="306.243" y="-4.868" fill="#09afb4" stroke="none"/><rect width="9.737" height="9.737" x="350.687" y="-4.868" fill="#09afb4" stroke="none"/><rect width="9.737" height="9.737" x="395.132" y="-4.868" fill="#09afb4" stroke="none"/><rect width="9.737" height="9.737" x="439.576" y="-4.868" fill="#09afb4" stroke="none"/><rect width="9.737" height="9.737" x="484.02" y="-4.868" fill="#09afb4" stroke="none"/><rect width="9.737" height="9.737" x="528.465" y="-4.868" fill="#09afb4" stroke="none"/><rect width="9.737" height="9.737" x="572.909" y="-4.868" fill="#09afb4" stroke="none"/><rect width="9.737" height="9.737" x="617.354" y="-4.868" fill="#09afb4" stroke="none"/><rect width="9.737" height="9.737" x="661.798" y="-4.868" fill="#09afb4" stroke="none"/><rect width="9.737" height="9.737" x="706.243" y="-4.868" fill="#09afb4" stroke="none"/><rect width="9.737" height="9.737" x="750.687" y="-4.868" fill="#09afb4" stroke="none"/><rect width="9.737" height="9.737" x="795.132" y="-4.868" fill="#09afb4" stroke="none"/><rect width="9.737" height="9.737" x="-4.868" y="39.576" fill="#09afb4" stroke="none"/><rect width="9.737" height="9.737" x="39.576" y="39.576" fill="#09afb4" stroke="none"/><rect width="9.737" height="9.737" x="84.02" y="39.576" fill="#09afb4" stroke="none"/><rect width="9.737" height="9.737" x="128.465" y="39.576" fill="#09afb4" stroke="none"/><rect width="9.737" height="9.737" x="172.909" y="39.576" fill="#09afb4" stroke="none"/><rect width="9.737" height="9.737" x="217.354" y="39.576" fill="#09afb4" stroke="none"/><rect width="9.737" height="9.737" x="261.798" y="39.576" fill="#09afb4" stroke="none"/><rect width="9.737" height="9.737" x="306.243" y="39.576" fill="#09afb4" stroke="none"/><rect width="9.737" height="9.737" x="350.687" y="39.576" fill="#09afb4" stroke="none"/><rect width="9.737" height="9.737" x="395.132" y="39.576"/><rect width="9.737" height="9.737" x="439.576" y="39.576" fill="#09afb4" stroke="none"/><rect width="9.737" height="9.737" x="484.02" y="39.576" fill="#09afb4" stroke="none"/><rect width="9.737" height="9.737" x="528.465" y="39.576" fill="#09afb4" stroke="none"/><rect width="9.737" height="9.737" x="572.909" y="39.576" fill="#09afb4" stroke="none"/><rect width="9.737" height="9.737" x="617.354" y="39.576"/><rect width="9.737" height="9.737" x="661.798" y="39.576" fill="#09afb4" stroke="none"/><rect width="9.737" height="9.737" x="706.243" y="39.576"/><rect width="9.737" height="9.737" x="750.687" y="39.576"/><rect width="9.737" height="9.737" x="795.132" y="39.576" fill="#09afb4" stroke="none"/><rect width="9.737" height="9.737" x="-4.868" y="84.02" fill="#09afb4" stroke="none"/><rect width="9.737" height="9.737" x="39.576" y="84.02" fill="#09afb4" stroke="none"/><rect width="9.737" height="9.737" x="84.02" y="84.02"/><rect width="9.737" height="9.737" x="128.465" y="84.02" fill="#09afb4" stroke="none"/><rect width="9.737" height="9.737" x="172.909" y="84.02" fill="#09afb4" stroke="none"/><rect width="9.737" height="9.737" x="217.354" y="84.02"/><rect width="9.737" height="9.737" x="261.798" y="84.02"/><rect width="9.737" height="9.737" x="306.243" y="84.02" fill="#09afb4" stroke="none"/><rect width="9.737" height="9.737" x="350.687" y="84.02" fill="#09afb4" stroke="none"/><rect width="9.737" height="9.737" x="395.132" y="84.02" fill="#09afb4" stroke="none"/><rect width="9.737" height="9.737" x="439.576" y="84.02" fill="#09afb4" stroke="none"/><rect width="9.737" height="9.737" x="484.02" y="84.02" fill="#09afb4" stroke="none"/><rect width="9.737" height="9.737" x="528.465" y="84.02" fill="#09afb4" stroke="none"/><rect width="9.737" height="9.737" x="572.909" y="84.02"/><rect width="9.737" height="9.737" x="617.354" y="84.02"/><rect width="9.737" height="9.737" x="661.798" y="84.02" fill="#09afb4" stroke="none"/><rect width="9.737" height="9.737" x="706.243" y="84.02"/><rect width="9.737" height="9.737" x="750.687" y="84.02" fill="#09afb4" stroke="none"/><rect width="9.737" height="9.737" x="795.132" y="84.02" fill="#09afb4" stroke="none"/><rect width="9.737" height="9.737" x="-4.868" y="128.465" fill="#09afb4" stroke="none"/><rect width="9.737" height="9.737" x="39.576" y="128.465"/><rect width="9.737" height="9.737" x="84.02" y="128.465" fill="#09afb4" stroke="none"/><rect width="9.737" height="9.737" x="128.465" y="128.465" fill="#09afb4" stroke="none"/><rect width="9.737" height="9.737" x="172.909" y="128.465" fill="#09afb4" stroke="none"/><rect width="9.737" height="9.737" x="217.354" y="128.465"/><rect width="9.737" height="9.737" x="261.798" y="128.465" fill="#09afb4" stroke="none"/><rect width="9.737" height="9.737" x="306.243" y="128.465"/><rect width="9.737" height="9.737" x="350.687" y="128.465" fill="#09afb4" stroke="none"/><rect width="9.737" height="9.737" x="395.132" y="128.465" fill="#09afb4" stroke="none"/><rect width="9.737" height="9.737" x="439.576" y="128.465" fill="#09afb4" stroke="none"/><rect width="9.737" height="9.737" x="484.02" y="128.465" fill="#09afb4" stroke="none"/><rect width="9.737" height="9.737" x="528.465" y="128.465" fill="#09afb4" stroke="none"/><rect width="9.737" height="9.737" x="572.909" y="128.465" fill="#09afb4" stroke="none"/><rect width="9.737" height="9.737" x="617.354" y="128.465"/><rect width="9.737" height="9.737" x="661.798" y="128.465" fill="#09afb4" stroke="none"/><rect width="9.737" height="9.737" x="706.243" y="128.465"/><rect width="9.737" height="9.737" x="750.687" y="128.465" fill="#09afb4" stroke="none"/><rect width="9.737" height="9.737" x="795.132" y="128.465" fill="#09afb4" stroke="none"/><rect width="9.737" height="9.737" x="-4.868" y="172.909" fill="#09afb4" stroke="none"/><rect width="9.737" height="9.737" x="39.576" y="172.909" fill="#09afb4" stroke="none"/><rect width="9.737" height="9.737" x="84.02" y="172.909" fill="#09afb4" stroke="none"/><rect width="9.737" height="9.737" x="128.465" y="172.909" fill="#09afb4" stroke="none"/><rect width="9.737" height="9.737" x="172.909" y="172.909" fill="#09afb4" stroke="none"/><rect width="9.737" height="9.737" x="217.354" y="172.909" fill="#09afb4" stroke="none"/><rect width="9.737" height="9.737" x="261.798" y="172.909"/><rect width="9.737" height="9.737" x="306.243" y="172.909" fill="#09afb4" stroke="none"/><rect width="9.737" height="9.737" x="350.687" y="172.909"/><rect width="9.737" height="9.737" x="395.132" y="172.909" fill="#09afb4" stroke="none"/><rect width="9.737" height="9.737" x="439.576" y="172.909" fill="#09afb4" stroke="none"/><rect width="9.737" height="9.737" x="484.02" y="172.909" fill="#09afb4" stroke="none"/><rect width="9.737" height="9.737" x="528.465" y="172.909" fill="#09afb4" stroke="none"/><rect width="9.737" height="9.737" x="572.909" y="172.909" fill="#09afb4" stroke="none"/><rect width="9.737" height="9.737" x="617.354" y="172.909" fill="#09afb4" stroke="none"/><rect width="9.737" height="9.737" x="661.798" y="172.909" fill="#09afb4" stroke="none"/><rect width="9.737" height="9.737" x="706.243" y="172.909"/><rect width="9.737" height="9.737" x="750.687" y="172.909"/><rect width="9.737" height="9.737" x="795.132" y="172.909" fill="#09afb4" stroke="none"/><rect width="9.737" height="9.737" x="-4.868" y="217.354" fill="#09afb4" stroke="none"/><rect width="9.737" height="9.737" x="39.576" y="217.354" fill="#09afb4" stroke="none"/><rect width="9.737" height="9.737" x="84.02" y="217.354"/><rect width="9.737" height="9.737" x="128.465" y="217.354" fill="#09afb4" stroke="none"/><rect width="9.737" height="9.737" x="172.909" y="217.354"/><rect width="9.737" height="9.737" x="217.354" y="217.354"/><rect width="9.737" height="9.737" x="261.798" y="217.354"/><rect width="9.737" height="9.737" x="306.243" y="217.354" fill="#09afb4" stroke="none"/><rect width="9.737" height="9.737" x="350.687" y="217.354"/><rect width="9.737" height="9.737" x="395.132" y="217.354" fill="#09afb4" stroke="none"/><rect width="9.737" height="9.737" x="439.576" y="217.354" fill="#09afb4" stroke="none"/><rect width="9.737" height="9.737" x="484.02" y="217.354" fill="#09afb4" stroke="none"/><rect width="9.737" height="9.737" x="528.465" y="217.354" fill="#09afb4" stroke="none"/><rect width="9.737" height="9.737" x="572.909" y="217.354" fill="#09afb4" stroke="none"/><rect width="9.737" height="9.737" x="617.354" y="217.354"/><rect width="9.737" height="9.737" x="661.798" y="217.354" fill="#09afb4" stroke="none"/><rect width="9.737" height="9.737" x="706.243" y="217.354" fill="#09afb4" stroke="none"/><rect width="9.737" height="9.737" x="750.687" y="217.354" fill="#09afb4" stroke="none"/><rect width="9.737" height="9.737" x="795.132" y="217.354" fill="#09afb4" stroke="none"/><rect width="9.737" height="9.737" x="-4.868" y="261.798" fill="#09afb4" stroke="none"/><rect width="9.737" height="9.737" x="39.576" y="261.798" fill="#09afb4" stroke="none"/><rect width="9.737" height="9.737" x="84.02" y="261.798" fill="#09afb4" stroke="none"/><rect width="9.737" height="9.737" x="128.465" y="261.798"/><rect width="9.737" height="9.737" x="172.909" y="261.798"/><rect width="9.737" height="9.737" x="217.354" y="261.798"/><rect width="9.737" height="9.737" x="261.798" y="261.798" fill="#09afb4" stroke="none"/><rect width="9.737" height="9.737" x="306.243" y="261.798" fill="#09afb4" stroke="none"/><rect width="9.737" height="9.737" x="350.687" y="261.798" fill="#09afb4" stroke="none"/><rect width="9.737" height="9.737" x="395.132" y="261.798"/><rect width="9.737" height="9.737" x="439.576" y="261.798" fill="#09afb4" stroke="none"/><rect width="9.737" height="9.737" x="484.02" y="261.798"/><rect width="9.737" height="9.737" x="528.465" y="261.798"/><rect width="9.737" height="9.737" x="572.909" y="261.798" fill="#09afb4" stroke="none"/><rect width="9.737" height="9.737" x="617.354" y="261.798" fill="#09afb4" stroke="none"/><rect width="9.737" height="9.737" x="661.798" y="261.798" fill="#09afb4" stroke="none"/><rect width="9.737" height="9.737" x="706.243" y="261.798" fill="#09afb4" stroke="none"/><rect width="9.737" height="9.737" x="750.687" y="261.798" fill="#09afb4" stroke="none"/><rect width="9.737" height="9.737" x="795.132" y="261.798" fill="#09afb4" stroke="none"/><rect width="9.737" height="9.737" x="-4.868" y="306.243" fill="#09afb4" stroke="none"/><rect width="9.737" height="9.737" x="39.576" y="306.243" fill="#09afb4" stroke="none"/><rect width="9.737" height="9.737" x="84.02" y="306.243" fill="#09afb4" stroke="none"/><rect width="9.737" height="9.737" x="128.465" y="306.243" fill="#09afb4" stroke="none"/><rect width="9.737" height="9.737" x="172.909" y="306.243"/><rect width="9.737" height="9.737" x="217.354" y="306.243"/><rect width="9.737" height="9.737" x="261.798" y="306.243" fill="#09afb4" stroke="none"/><rect width="9.737" height="9.737" x="306.243" y="306.243" fill="#09afb4" stroke="none"/><rect width="9.737" height="9.737" x="350.687" y="306.243" fill="#09afb4" stroke="none"/><rect width="9.737" height="9.737" x="395.132" y="306.243" fill="#09afb4" stroke="none"/><rect width="9.737" height="9.737" x="439.576" y="306.243" fill="#09afb4" stroke="none"/><rect width="9.737" height="9.737" x="484.02" y="306.243" fill="#09afb4" stroke="none"/><rect width="9.737" height="9.737" x="528.465" y="306.243" fill="#09afb4" stroke="none"/><rect width="9.737" height="9.737" x="572.909" y="306.243" fill="#09afb4" stroke="none"/><rect width="9.737" height="9.737" x="617.354" y="306.243"/><rect width="9.737" height="9.737" x="661.798" y="306.243"/><rect width="9.737" height="9.737" x="706.243" y="306.243" fill="#09afb4" stroke="none"/><rect width="9.737" height="9.737" x="750.687" y="306.243"/><rect width="9.737" height="9.737" x="795.132" y="306.243" fill="#09afb4" stroke="none"/><rect width="9.737" height="9.737" x="-4.868" y="350.687" fill="#09afb4" stroke="none"/><rect width="9.737" height="9.737" x="39.576" y="350.687"/><rect width="9.737" height="9.737" x="84.02" y="350.687"/><rect width="9.737" height="9.737" x="128.465" y="350.687" fill="#09afb4" stroke="none"/><rect width="9.737" height="9.737" x="172.909" y="350.687" fill="#09afb4" stroke="none"/><rect width="9.737" height="9.737" x="217.354" y="350.687" fill="#09afb4" stroke="none"/><rect width="9.737" height="9.737" x="261.798" y="350.687" fill="#09afb4" stroke="none"/><rect width="9.737" height="9.737" x="306.243" y="350.687" fill="#09afb4" stroke="none"/><rect width="9.737" height="9.737" x="350.687" y="350.687" fill="#09afb4" stroke="none"/><rect width="9.737" height="9.737" x="395.132" y="350.687" fill="#09afb4" stroke="none"/><rect width="9.737" height="9.737" x="439.576" y="350.687"/><rect width="9.737" height="9.737" x="484.02" y="350.687"/><rect width="9.737" height="9.737" x="528.465" y="350.687" fill="#09afb4" stroke="none"/><rect width="9.737" height="9.737" x="572.909" y="350.687"/><rect width="9.737" height="9.737" x="617.354" y="350.687"/><rect width="9.737" height="9.737" x="661.798" y="350.687" fill="#09afb4" stroke="none"/><rect width="9.737" height="9.737" x="706.243" y="350.687" fill="#09afb4" stroke="none"/><rect width="9.737" height="9.737" x="750.687" y="350.687" fill="#09afb4" stroke="none"/><rect width="9.737" height="9.737" x="795.132" y="350.687" fill="#09afb4" stroke="none"/><rect width="9.737" height="9.737" x="-4.868" y="395.132" fill="#09afb4" stroke="none"/><rect width="9.737" height="9.737" x="39.576" y="395.132" fill="#09afb4" stroke="none"/><rect width="9.737" height="9.737" x="84.02" y="395.132" fill="#09afb4" stroke="none"/><rect width="9.737" height="9.737" x="128.465" y="395.132" fill="#09afb4" stroke="none"/><rect width="9.737" height="9.737" x="172.909" y="395.132" fill="#09afb4" stroke="none"/><rect width="9.737" height="9.737" x="217.354" y="395.132" fill="#09afb4" stroke="none"/><rect width="9.737" height="9.737" x="261.798" y="395.132" fill="#09afb4" stroke="none"/><rect width="9.737" height="9.737" x="306.243" y="395.132" fill="#09afb4" stroke="none"/><rect width="9.737" height="9.737" x="350.687" y="395.132"/><rect width="9.737" height="9.737" x="395.132" y="395.132" fill="#09afb4" stroke="none"/><rect width="9.737" height="9.737" x="439.576" y="395.132" fill="#09afb4" stroke="none"/><rect width="9.737" height="9.737" x="484.02" y="395.132" fill="#09afb4" stroke="none"/><rect width="9.737" height="9.737" x="528.465" y="395.132"/><rect width="9.737" height="9.737" x="572.909" y="395.132" fill="#09afb4" stroke="none"/><rect width="9.737" height="9.737" x="617.354" y="395.132" fill="#09afb4" stroke="none"/><rect width="9.737" height="9.737" x="661.798" y="395.132"/><rect width="9.737" height="9.737" x="706.243" y="395.132" fill="#09afb4" stroke="none"/><rect width="9.737" height="9.737" x="750.687" y="395.132" fill="#09afb4" stroke="none"/><rect width="9.737" height="9.737" x="795.132" y="395.132" fill="#09afb4" stroke="none"/><rect width="9.737" height="9.737" x="-4.868" y="439.576" fill="#09afb4" stroke="none"/><rect width="9.737" height="9.737" x="39.576" y="439.576" fill="#09afb4" stroke="none"/><rect width="9.737" height="9.737" x="84.02" y="439.576" fill="#09afb4" stroke="none"/><rect width="9.737" height="9.737" x="128.465" y="439.576"/><rect width="9.737" height="9.737" x="172.909" y="439.576" fill="#09afb4" stroke="none"/><rect width="9.737" height="9.737" x="217.354" y="439.576"/><rect width="9.737" height="9.737" x="261.798" y="439.576" fill="#09afb4" stroke="none"/><rect width="9.737" height="9.737" x="306.243" y="439.576" fill="#09afb4" stroke="none"/><rect width="9.737" height="9.737" x="350.687" y="439.576" fill="#09afb4" stroke="none"/><rect width="9.737" height="9.737" x="395.132" y="439.576" fill="#09afb4" stroke="none"/><rect width="9.737" height="9.737" x="439.576" y="439.576" fill="#09afb4" stroke="none"/><rect width="9.737" height="9.737" x="484.02" y="439.576" fill="#09afb4" stroke="none"/><rect width="9.737" height="9.737" x="528.465" y="439.576" fill="#09afb4" stroke="none"/><rect width="9.737" height="9.737" x="572.909" y="439.576" fill="#09afb4" stroke="none"/><rect width="9.737" height="9.737" x="617.354" y="439.576" fill="#09afb4" stroke="none"/><rect width="9.737" height="9.737" x="661.798" y="439.576" fill="#09afb4" stroke="none"/><rect width="9.737" height="9.737" x="706.243" y="439.576"/><rect width="9.737" height="9.737" x="750.687" y="439.576"/><rect width="9.737" height="9.737" x="795.132" y="439.576" fill="#09afb4" stroke="none"/><rect width="9.737" height="9.737" x="-4.868" y="484.02" fill="#09afb4" stroke="none"/><rect width="9.737" height="9.737" x="39.576" y="484.02"/><rect width="9.737" height="9.737" x="84.02" y="484.02" fill="#09afb4" stroke="none"/><rect width="9.737" height="9.737" x="128.465" y="484.02" fill="#09afb4" stroke="none"/><rect width="9.737" height="9.737" x="172.909" y="484.02" fill="#09afb4" stroke="none"/><rect width="9.737" height="9.737" x="217.354" y="484.02" fill="#09afb4" stroke="none"/><rect width="9.737" height="9.737" x="261.798" y="484.02" fill="#09afb4" stroke="none"/><rect width="9.737" height="9.737" x="306.243" y="484.02" fill="#09afb4" stroke="none"/><rect width="9.737" height="9.737" x="350.687" y="484.02" fill="#09afb4" stroke="none"/><rect width="9.737" height="9.737" x="395.132" y="484.02" fill="#09afb4" stroke="none"/><rect width="9.737" height="9.737" x="439.576" y="484.02" fill="#09afb4" stroke="none"/><rect width="9.737" height="9.737" x="484.02" y="484.02" fill="#09afb4" stroke="none"/><rect width="9.737" height="9.737" x="528.465" y="484.02" fill="#09afb4" stroke="none"/><rect width="9.737" height="9.737" x="572.909" y="484.02" fill="#09afb4" stroke="none"/><rect width="9.737" height="9.737" x="617.354" y="484.02" fill="#09afb4" stroke="none"/><rect width="9.737" height="9.737" x="661.798" y="484.02"/><rect width="9.737" height="9.737" x="706.243" y="484.02" fill="#09afb4" stroke="none"/><rect width="9.737" height="9.737" x="750.687" y="484.02" fill="#09afb4" stroke="none"/><rect width="9.737" height="9.737" x="795.132" y="484.02" fill="#09afb4" stroke="none"/><rect width="9.737" height="9.737" x="-4.868" y="528.465" fill="#09afb4" stroke="none"/><rect width="9.737" height="9.737" x="39.576" y="528.465" fill="#09afb4" stroke="none"/><rect width="9.737" height="9.737" x="84.02" y="528.465" fill="#09afb4" stroke="none"/><rect width="9.737" height="9.737" x="128.465" y="528.465" fill="#09afb4" stroke="none"/><rect width="9.737" height="9.737" x="172.909" y="528.465" fill="#09afb4" stroke="none"/><rect width="9.737" height="9.737" x="217.354" y="528.465" fill="#09afb4" stroke="none"/><rect width="9.737" height="9.737" x="261.798" y="528.465"/><rect width="9.737" height="9.737" x="306.243" y="528.465" fill="#09afb4" stroke="none"/><rect width="9.737" height="9.737" x="350.687" y="528.465" fill="#09afb4" stroke="none"/><rect width="9.737" height="9.737" x="395.132" y="528.465" fill="#09afb4" stroke="none"/><rect width="9.737" height="9.737" x="439.576" y="528.465" fill="#09afb4" stroke="none"/><rect width="9.737" height="9.737" x="484.02" y="528.465" fill="#09afb4" stroke="none"/><rect width="9.737" height="9.737" x="528.465" y="528.465" fill="#09afb4" stroke="none"/><rect width="9.737" height="9.737" x="572.909" y="528.465" fill="#09afb4" stroke="none"/><rect width="9.737" height="9.737" x="617.354" y="528.465" fill="#09afb4" stroke="none"/><rect width="9.737" height="9.737" x="661.798" y="528.465" fill="#09afb4" stroke="none"/><rect width="9.737" height="9.737" x="706.243" y="528.465"/><rect width="9.737" height="9.737" x="750.687" y="528.465"/><rect width="9.737" height="9.737" x="795.132" y="528.465" fill="#09afb4" stroke="none"/><rect width="9.737" height="9.737" x="-4.868" y="572.909" fill="#09afb4" stroke="none"/><rect width="9.737" height="9.737" x="39.576" y="572.909" fill="#09afb4" stroke="none"/><rect width="9.737" height="9.737" x="84.02" y="572.909" fill="#09afb4" stroke="none"/><rect width="9.737" height="9.737" x="128.465" y="572.909" fill="#09afb4" stroke="none"/><rect width="9.737" height="9.737" x="172.909" y="572.909" fill="#09afb4" stroke="none"/><rect width="9.737" height="9.737" x="217.354" y="572.909" fill="#09afb4" stroke="none"/><rect width="9.737" height="9.737" x="261.798" y="572.909" fill="#09afb4" stroke="none"/><rect width="9.737" height="9.737" x="306.243" y="572.909" fill="#09afb4" stroke="none"/><rect width="9.737" height="9.737" x="350.687" y="572.909" fill="#09afb4" stroke="none"/><rect width="9.737" height="9.737" x="395.132" y="572.909" fill="#09afb4" stroke="none"/><rect width="9.737" height="9.737" x="439.576" y="572.909" fill="#09afb4" stroke="none"/><rect width="9.737" height="9.737" x="484.02" y="572.909" fill="#09afb4" stroke="none"/><rect width="9.737" height="9.737" x="528.465" y="572.909" fill="#09afb4" stroke="none"/><rect width="9.737" height="9.737" x="572.909" y="572.909" fill="#09afb4" stroke="none"/><rect width="9.737" height="9.737" x="617.354" y="572.909" fill="#09afb4" stroke="none"/><rect width="9.737" height="9.737" x="661.798" y="572.909" fill="#09afb4" stroke="none"/><rect width="9.737" height="9.737" x="706.243" y="572.909" fill="#09afb4" stroke="none"/><rect width="9.737" height="9.737" x="750.687" y="572.909" fill="#09afb4" stroke="none"/><rect width="9.737" height="9.737" x="795.132" y="572.909" fill="#09afb4" stroke="none"/><rect width="9.737" height="9.737" x="-4.868" y="617.354" fill="#09afb4" stroke="none"/><rect width="9.737" height="9.737" x="39.576" y="617.354" fill="#09afb4" stroke="none"/><rect width="9.737" height="9.737" x="84.02" y="617.354"/><rect width="9.737" height="9.737" x="128.465" y="617.354" fill="#09afb4" stroke="none"/><rect width="9.737" height="9.737" x="172.909" y="617.354"/><rect width="9.737" height="9.737" x="217.354" y="617.354" fill="#09afb4" stroke="none"/><rect width="9.737" height="9.737" x="261.798" y="617.354" fill="#09afb4" stroke="none"/><rect width="9.737" height="9.737" x="306.243" y="617.354" fill="#09afb4" stroke="none"/><rect width="9.737" height="9.737" x="350.687" y="617.354"/><rect width="9.737" height="9.737" x="395.132" y="617.354"/><rect width="9.737" height="9.737" x="439.576" y="617.354"/><rect width="9.737" height="9.737" x="484.02" y="617.354" fill="#09afb4" stroke="none"/><rect width="9.737" height="9.737" x="528.465" y="617.354" fill="#09afb4" stroke="none"/><rect width="9.737" height="9.737" x="572.909" y="617.354" fill="#09afb4" stroke="none"/><rect width="9.737" height="9.737" x="617.354" y="617.354" fill="#09afb4" stroke="none"/><rect width="9.737" height="9.737" x="661.798" y="617.354" fill="#09afb4" stroke="none"/><rect width="9.737" height="9.737" x="706.243" y="617.354" fill="#09afb4" stroke="none"/><rect width="9.737" height="9.737" x="750.687" y="617.354" fill="#09afb4" stroke="none"/><rect width="9.737" height="9.737" x="795.132" y="617.354" fill="#09afb4" stroke="none"/><rect width="9.737" height="9.737" x="-4.868" y="661.798" fill="#09afb4" stroke="none"/><rect width="9.737" height="9.737" x="39.576" y="661.798"/><rect width="9.737" height="9.737" x="84.02" y="661.798"/><rect width="9.737" height="9.737" x="128.465" y="661.798" fill="#09afb4" stroke="none"/><rect width="9.737" height="9.737" x="172.909" y="661.798" fill="#09afb4" stroke="none"/><rect width="9.737" height="9.737" x="217.354" y="661.798" fill="#09afb4" stroke="none"/><rect width="9.737" height="9.737" x="261.798" y="661.798" fill="#09afb4" stroke="none"/><rect width="9.737" height="9.737" x="306.243" y="661.798" fill="#09afb4" stroke="none"/><rect width="9.737" height="9.737" x="350.687" y="661.798" fill="#09afb4" stroke="none"/><rect width="9.737" height="9.737" x="395.132" y="661.798"/><rect width="9.737" height="9.737" x="439.576" y="661.798" fill="#09afb4" stroke="none"/><rect width="9.737" height="9.737" x="484.02" y="661.798" fill="#09afb4" stroke="none"/><rect width="9.737" height="9.737" x="528.465" y="661.798"/><rect width="9.737" height="9.737" x="572.909" y="661.798" fill="#09afb4" stroke="none"/><rect width="9.737" height="9.737" x="617.354" y="661.798" fill="#09afb4" stroke="none"/><rect width="9.737" height="9.737" x="661.798" y="661.798"/><rect width="9.737" height="9.737" x="706.243" y="661.798" fill="#09afb4" stroke="none"/><rect width="9.737" height="9.737" x="750.687" y="661.798" fill="#09afb4" stroke="none"/><rect width="9.737" height="9.737" x="795.132" y="661.798" fill="#09afb4" stroke="none"/><rect width="9.737" height="9.737" x="-4.868" y="706.243" fill="#09afb4" stroke="none"/><rect width="9.737" height="9.737" x="39.576" y="706.243" fill="#09afb4" stroke="none"/><rect width="9.737" height="9.737" x="84.02" y="706.243" fill="#09afb4" stroke="none"/><rect width="9.737" height="9.737" x="128.465" y="706.243" fill="#09afb4" stroke="none"/><rect width="9.737" height="9.737" x="172.909" y="706.243"/><rect width="9.737" height="9.737" x="217.354" y="706.243" fill="#09afb4" stroke="none"/><rect width="9.737" height="9.737" x="261.798" y="706.243" fill="#09afb4" stroke="none"/><rect width="9.737" height="9.737" x="306.243" y="706.243"/><rect width="9.737" height="9.737" x="350.687" y="706.243" fill="#09afb4" stroke="none"/><rect width="9.737" height="9.737" x="395.132" y="706.243" fill="#09afb4" stroke="none"/><rect width="9.737" height="9.737" x="439.576" y="706.243"/><rect width="9.737" height="9.737" x="484.02" y="706.243" fill="#09afb4" stroke="none"/><rect width="9.737" height="9.737" x="528.465" y="706.243" fill="#09afb4" stroke="none"/><rect width="9.737" height="9.737" x="572.909" y="706.243" fill="#09afb4" stroke="none"/><rect width="9.737" height="9.737" x="617.354" y="706.243"/><rect width="9.737" height="9.737" x="661.798" y="706.243" fill="#09afb4" stroke="none"/><rect width="9.737" height="9.737" x="706.243" y="706.243" fill="#09afb4" stroke="none"/><rect width="9.737" height="9.737" x="750.687" y="706.243" fill="#09afb4" stroke="none"/><rect width="9.737" height="9.737" x="795.132" y="706.243" fill="#09afb4" stroke="none"/><rect width="9.737" height="9.737" x="-4.868" y="750.687" fill="#09afb4" stroke="none"/><rect width="9.737" height="9.737" x="39.576" y="750.687"/><rect width="9.737" height="9.737" x="84.02" y="750.687" fill="#09afb4" stroke="none"/><rect width="9.737" height="9.737" x="128.465" y="750.687"/><rect width="9.737" height="9.737" x="172.909" y="750.687" fill="#09afb4" stroke="none"/><rect width="9.737" height="9.737" x="217.354" y="750.687" fill="#09afb4" stroke="none"/><rect width="9.737" height="9.737" x="261.798" y="750.687" fill="#09afb4" stroke="none"/><rect width="9.737" height="9.737" x="306.243" y="750.687" fill="#09afb4" stroke="none"/><rect width="9.737" height="9.737" x="350.687" y="750.687"/><rect width="9.737" height="9.737" x="395.132" y="750.687" fill="#09afb4" stroke="none"/><rect width="9.737" height="9.737" x="439.576" y="750.687" fill="#09afb4" stroke="none"/><rect width="9.737" height="9.737" x="484.02" y="750.687" fill="#09afb4" stroke="none"/><rect width="9.737" height="9.737" x="528.465" y="750.687" fill="#09afb4" stroke="none"/><rect width="9.737" height="9.737" x="572.909" y="750.687"/><rect width="9.737" height="9.737" x="617.354" y="750.687" fill="#09afb4" stroke="none"/><rect width="9.737" height="9.737" x="661.798" y="750.687" fill="#09afb4" stroke="none"/><rect width="9.737" height="9.737" x="706.243" y="750.687" fill="#09afb4" stroke="none"/><rect width="9.737" height="9.737" x="750.687" y="750.687" fill="#09afb4" stroke="none"/><rect width="9.737" height="9.737" x="795.132" y="750.687" fill="#09afb4" stroke="none"/><rect width="9.737" height="9.737" x="-4.868" y="795.132" fill="#09afb4" stroke="none"/><rect width="9.737" height="9.737" x="39.576" y="795.132" fill="#09afb4" stroke="none"/><rect width="9.737" height="9.737" x="84.02" y="795.132" fill="#09afb4" stroke="none"/><rect width="9.737" height="9.737" x="128.465" y="795.132" fill="#09afb4" stroke="none"/><rect width="9.737" height="9.737" x="172.909" y="795.132" fill="#09afb4" stroke="none"/><rect width="9.737" height="9.737" x="217.354" y="795.132" fill="#09afb4" stroke="none"/><rect width="9.737" height="9.737" x="261.798" y="795.132" fill="#09afb4" stroke="none"/><rect width="9.737" height="9.737" x="306.243" y="795.132" fill="#09afb4" stroke="none"/><rect width="9.737" height="9.737" x="350.687" y="795.132" fill="#09afb4" stroke="none"/><rect width="9.737" height="9.737" x="395.132" y="795.132" fill="#09afb4" stroke="none"/><rect width="9.737" height="9.737" x="439.576" y="795.132" fill="#09afb4" stroke="none"/><rect width="9.737" height="9.737" x="484.02" y="795.132" fill="#09afb4" stroke="none"/><rect width="9.737" height="9.737" x="528.465" y="795.132" fill="#09afb4" stroke="none"/><rect width="9.737" height="9.737" x="572.909" y="795.132" fill="#09afb4" stroke="none"/><rect width="9.737" height="9.737" x="617.354" y="795.132" fill="#09afb4" stroke="none"/><rect width="9.737" height="9.737" x="661.798" y="795.132" fill="#09afb4" stroke="none"/><rect width="9.737" height="9.737" x="706.243" y="795.132" fill="#09afb4" stroke="none"/><rect width="9.737" height="9.737" x="750.687" y="795.132" fill="#09afb4" stroke="none"/><rect width="9.737" height="9.737" x="795.132" y="795.132" fill="#09afb4" stroke="none"/></g></svg>