<svg xmlns="http://www.w3.org/2000/svg" xmlns:svgjs="http://svgjs.dev/svgjs" xmlns:xlink="http://www.w3.org/1999/xlink" width="800" height="800" opacity="1" version="1.1" viewBox="0 0 800 800"><g fill="none" stroke="#09afb4" stroke-width="2"><rect width="44.444" height="44.444" x="0" y="0"/><rect width="44.444" height="44.444" x="44.444" y="0"/><rect width="44.444" height="44.444" x="88.889" y="0"/><rect width="44.444" height="44.444" x="133.333" y="0"/><rect width="44.444" height="44.444" x="177.778" y="0"/><rect width="44.444" height="44.444" x="222.222" y="0"/><rect width="44.444" height="44.444" x="266.667" y="0"/><rect width="44.444" height="44.444" x="311.111" y="0"/><rect width="44.444" height="44.444" x="355.556" y="0"/><rect width="44.444" height="44.444" x="400" y="0"/><rect width="44.444" height="44.444" x="444.444" y="0"/><rect width="44.444" height="44.444" x="488.889" y="0"/><rect width="44.444" height="44.444" x="533.333" y="0"/><rect width="44.444" height="44.444" x="577.778" y="0"/><rect width="44.444" height="44.444" x="622.222" y="0"/><rect width="44.444" height="44.444" x="666.667" y="0"/><rect width="44.444" height="44.444" x="711.111" y="0"/><rect width="44.444" height="44.444" x="755.556" y="0"/><rect width="44.444" height="44.444" x="800" y="0"/><rect width="44.444" height="44.444" x="0" y="44.444"/><rect width="44.444" height="44.444" x="44.444" y="44.444"/><rect width="44.444" height="44.444" x="88.889" y="44.444"/><rect width="44.444" height="44.444" x="133.333" y="44.444"/><rect width="44.444" height="44.444" x="177.778" y="44.444"/><rect width="44.444" height="44.444" x="222.222" y="44.444"/><rect width="44.444" height="44.444" x="266.667" y="44.444"/><rect width="44.444" height="44.444" x="311.111" y="44.444"/><rect width="44.444" height="44.444" x="355.556" y="44.444"/><rect width="44.444" height="44.444" x="400" y="44.444"/><rect width="44.444" height="44.444" x="444.444" y="44.444"/><rect width="44.444" height="44.444" x="488.889" y="44.444"/><rect width="44.444" height="44.444" x="533.333" y="44.444"/><rect width="44.444" height="44.444" x="577.778" y="44.444"/><rect width="44.444" height="44.444" x="622.222" y="44.444"/><rect width="44.444" height="44.444" x="666.667" y="44.444"/><rect width="44.444" height="44.444" x="711.111" y="44.444"/><rect width="44.444" height="44.444" x="755.556" y="44.444"/><rect width="44.444" height="44.444" x="800" y="44.444"/><rect width="44.444" height="44.444" x="0" y="88.889"/><rect width="44.444" height="44.444" x="44.444" y="88.889"/><rect width="44.444" height="44.444" x="88.889" y="88.889"/><rect width="44.444" height="44.444" x="133.333" y="88.889"/><rect width="44.444" height="44.444" x="177.778" y="88.889"/><rect width="44.444" height="44.444" x="222.222" y="88.889"/><rect width="44.444" height="44.444" x="266.667" y="88.889"/><rect width="44.444" height="44.444" x="311.111" y="88.889"/><rect width="44.444" height="44.444" x="355.556" y="88.889"/><rect width="44.444" height="44.444" x="400" y="88.889"/><rect width="44.444" height="44.444" x="444.444" y="88.889"/><rect width="44.444" height="44.444" x="488.889" y="88.889"/><rect width="44.444" height="44.444" x="533.333" y="88.889"/><rect width="44.444" height="44.444" x="577.778" y="88.889"/><rect width="44.444" height="44.444" x="622.222" y="88.889"/><rect width="44.444" height="44.444" x="666.667" y="88.889"/><rect width="44.444" height="44.444" x="711.111" y="88.889"/><rect width="44.444" height="44.444" x="755.556" y="88.889"/><rect width="44.444" height="44.444" x="800" y="88.889"/><rect width="44.444" height="44.444" x="0" y="133.333"/><rect width="44.444" height="44.444" x="44.444" y="133.333"/><rect width="44.444" height="44.444" x="88.889" y="133.333"/><rect width="44.444" height="44.444" x="133.333" y="133.333"/><rect width="44.444" height="44.444" x="177.778" y="133.333"/><rect width="44.444" height="44.444" x="222.222" y="133.333"/><rect width="44.444" height="44.444" x="266.667" y="133.333"/><rect width="44.444" height="44.444" x="311.111" y="133.333"/><rect width="44.444" height="44.444" x="355.556" y="133.333"/><rect width="44.444" height="44.444" x="400" y="133.333"/><rect width="44.444" height="44.444" x="444.444" y="133.333"/><rect width="44.444" height="44.444" x="488.889" y="133.333"/><rect width="44.444" height="44.444" x="533.333" y="133.333"/><rect width="44.444" height="44.444" x="577.778" y="133.333"/><rect width="44.444" height="44.444" x="622.222" y="133.333"/><rect width="44.444" height="44.444" x="666.667" y="133.333"/><rect width="44.444" height="44.444" x="711.111" y="133.333"/><rect width="44.444" height="44.444" x="755.556" y="133.333"/><rect width="44.444" height="44.444" x="800" y="133.333"/><rect width="44.444" height="44.444" x="0" y="177.778"/><rect width="44.444" height="44.444" x="44.444" y="177.778"/><rect width="44.444" height="44.444" x="88.889" y="177.778"/><rect width="44.444" height="44.444" x="133.333" y="177.778"/><rect width="44.444" height="44.444" x="177.778" y="177.778"/><rect width="44.444" height="44.444" x="222.222" y="177.778"/><rect width="44.444" height="44.444" x="266.667" y="177.778"/><rect width="44.444" height="44.444" x="311.111" y="177.778"/><rect width="44.444" height="44.444" x="355.556" y="177.778"/><rect width="44.444" height="44.444" x="400" y="177.778"/><rect width="44.444" height="44.444" x="444.444" y="177.778"/><rect width="44.444" height="44.444" x="488.889" y="177.778"/><rect width="44.444" height="44.444" x="533.333" y="177.778"/><rect width="44.444" height="44.444" x="577.778" y="177.778"/><rect width="44.444" height="44.444" x="622.222" y="177.778"/><rect width="44.444" height="44.444" x="666.667" y="177.778"/><rect width="44.444" height="44.444" x="711.111" y="177.778"/><rect width="44.444" height="44.444" x="755.556" y="177.778"/><rect width="44.444" height="44.444" x="800" y="177.778"/><rect width="44.444" height="44.444" x="0" y="222.222"/><rect width="44.444" height="44.444" x="44.444" y="222.222"/><rect width="44.444" height="44.444" x="88.889" y="222.222"/><rect width="44.444" height="44.444" x="133.333" y="222.222"/><rect width="44.444" height="44.444" x="177.778" y="222.222"/><rect width="44.444" height="44.444" x="222.222" y="222.222"/><rect width="44.444" height="44.444" x="266.667" y="222.222"/><rect width="44.444" height="44.444" x="311.111" y="222.222"/><rect width="44.444" height="44.444" x="355.556" y="222.222"/><rect width="44.444" height="44.444" x="400" y="222.222"/><rect width="44.444" height="44.444" x="444.444" y="222.222"/><rect width="44.444" height="44.444" x="488.889" y="222.222"/><rect width="44.444" height="44.444" x="533.333" y="222.222"/><rect width="44.444" height="44.444" x="577.778" y="222.222"/><rect width="44.444" height="44.444" x="622.222" y="222.222"/><rect width="44.444" height="44.444" x="666.667" y="222.222"/><rect width="44.444" height="44.444" x="711.111" y="222.222"/><rect width="44.444" height="44.444" x="755.556" y="222.222"/><rect width="44.444" height="44.444" x="800" y="222.222"/><rect width="44.444" height="44.444" x="0" y="266.667"/><rect width="44.444" height="44.444" x="44.444" y="266.667"/><rect width="44.444" height="44.444" x="88.889" y="266.667"/><rect width="44.444" height="44.444" x="133.333" y="266.667"/><rect width="44.444" height="44.444" x="177.778" y="266.667"/><rect width="44.444" height="44.444" x="222.222" y="266.667"/><rect width="44.444" height="44.444" x="266.667" y="266.667"/><rect width="44.444" height="44.444" x="311.111" y="266.667"/><rect width="44.444" height="44.444" x="355.556" y="266.667"/><rect width="44.444" height="44.444" x="400" y="266.667"/><rect width="44.444" height="44.444" x="444.444" y="266.667"/><rect width="44.444" height="44.444" x="488.889" y="266.667"/><rect width="44.444" height="44.444" x="533.333" y="266.667"/><rect width="44.444" height="44.444" x="577.778" y="266.667"/><rect width="44.444" height="44.444" x="622.222" y="266.667"/><rect width="44.444" height="44.444" x="666.667" y="266.667"/><rect width="44.444" height="44.444" x="711.111" y="266.667"/><rect width="44.444" height="44.444" x="755.556" y="266.667"/><rect width="44.444" height="44.444" x="800" y="266.667"/><rect width="44.444" height="44.444" x="0" y="311.111"/><rect width="44.444" height="44.444" x="44.444" y="311.111"/><rect width="44.444" height="44.444" x="88.889" y="311.111"/><rect width="44.444" height="44.444" x="133.333" y="311.111"/><rect width="44.444" height="44.444" x="177.778" y="311.111"/><rect width="44.444" height="44.444" x="222.222" y="311.111"/><rect width="44.444" height="44.444" x="266.667" y="311.111"/><rect width="44.444" height="44.444" x="311.111" y="311.111"/><rect width="44.444" height="44.444" x="355.556" y="311.111"/><rect width="44.444" height="44.444" x="400" y="311.111"/><rect width="44.444" height="44.444" x="444.444" y="311.111"/><rect width="44.444" height="44.444" x="488.889" y="311.111"/><rect width="44.444" height="44.444" x="533.333" y="311.111"/><rect width="44.444" height="44.444" x="577.778" y="311.111"/><rect width="44.444" height="44.444" x="622.222" y="311.111"/><rect width="44.444" height="44.444" x="666.667" y="311.111"/><rect width="44.444" height="44.444" x="711.111" y="311.111"/><rect width="44.444" height="44.444" x="755.556" y="311.111"/><rect width="44.444" height="44.444" x="800" y="311.111"/><rect width="44.444" height="44.444" x="0" y="355.556"/><rect width="44.444" height="44.444" x="44.444" y="355.556"/><rect width="44.444" height="44.444" x="88.889" y="355.556"/><rect width="44.444" height="44.444" x="133.333" y="355.556"/><rect width="44.444" height="44.444" x="177.778" y="355.556"/><rect width="44.444" height="44.444" x="222.222" y="355.556"/><rect width="44.444" height="44.444" x="266.667" y="355.556"/><rect width="44.444" height="44.444" x="311.111" y="355.556"/><rect width="44.444" height="44.444" x="355.556" y="355.556"/><rect width="44.444" height="44.444" x="400" y="355.556"/><rect width="44.444" height="44.444" x="444.444" y="355.556"/><rect width="44.444" height="44.444" x="488.889" y="355.556"/><rect width="44.444" height="44.444" x="533.333" y="355.556"/><rect width="44.444" height="44.444" x="577.778" y="355.556"/><rect width="44.444" height="44.444" x="622.222" y="355.556"/><rect width="44.444" height="44.444" x="666.667" y="355.556"/><rect width="44.444" height="44.444" x="711.111" y="355.556"/><rect width="44.444" height="44.444" x="755.556" y="355.556"/><rect width="44.444" height="44.444" x="800" y="355.556"/><rect width="44.444" height="44.444" x="0" y="400"/><rect width="44.444" height="44.444" x="44.444" y="400"/><rect width="44.444" height="44.444" x="88.889" y="400"/><rect width="44.444" height="44.444" x="133.333" y="400"/><rect width="44.444" height="44.444" x="177.778" y="400"/><rect width="44.444" height="44.444" x="222.222" y="400"/><rect width="44.444" height="44.444" x="266.667" y="400"/><rect width="44.444" height="44.444" x="311.111" y="400"/><rect width="44.444" height="44.444" x="355.556" y="400"/><rect width="44.444" height="44.444" x="400" y="400"/><rect width="44.444" height="44.444" x="444.444" y="400"/><rect width="44.444" height="44.444" x="488.889" y="400"/><rect width="44.444" height="44.444" x="533.333" y="400"/><rect width="44.444" height="44.444" x="577.778" y="400"/><rect width="44.444" height="44.444" x="622.222" y="400"/><rect width="44.444" height="44.444" x="666.667" y="400"/><rect width="44.444" height="44.444" x="711.111" y="400"/><rect width="44.444" height="44.444" x="755.556" y="400"/><rect width="44.444" height="44.444" x="800" y="400"/><rect width="44.444" height="44.444" x="0" y="444.444"/><rect width="44.444" height="44.444" x="44.444" y="444.444"/><rect width="44.444" height="44.444" x="88.889" y="444.444"/><rect width="44.444" height="44.444" x="133.333" y="444.444"/><rect width="44.444" height="44.444" x="177.778" y="444.444"/><rect width="44.444" height="44.444" x="222.222" y="444.444"/><rect width="44.444" height="44.444" x="266.667" y="444.444"/><rect width="44.444" height="44.444" x="311.111" y="444.444"/><rect width="44.444" height="44.444" x="355.556" y="444.444"/><rect width="44.444" height="44.444" x="400" y="444.444"/><rect width="44.444" height="44.444" x="444.444" y="444.444"/><rect width="44.444" height="44.444" x="488.889" y="444.444"/><rect width="44.444" height="44.444" x="533.333" y="444.444"/><rect width="44.444" height="44.444" x="577.778" y="444.444"/><rect width="44.444" height="44.444" x="622.222" y="444.444"/><rect width="44.444" height="44.444" x="666.667" y="444.444"/><rect width="44.444" height="44.444" x="711.111" y="444.444"/><rect width="44.444" height="44.444" x="755.556" y="444.444"/><rect width="44.444" height="44.444" x="800" y="444.444"/><rect width="44.444" height="44.444" x="0" y="488.889"/><rect width="44.444" height="44.444" x="44.444" y="488.889"/><rect width="44.444" height="44.444" x="88.889" y="488.889"/><rect width="44.444" height="44.444" x="133.333" y="488.889"/><rect width="44.444" height="44.444" x="177.778" y="488.889"/><rect width="44.444" height="44.444" x="222.222" y="488.889"/><rect width="44.444" height="44.444" x="266.667" y="488.889"/><rect width="44.444" height="44.444" x="311.111" y="488.889"/><rect width="44.444" height="44.444" x="355.556" y="488.889"/><rect width="44.444" height="44.444" x="400" y="488.889"/><rect width="44.444" height="44.444" x="444.444" y="488.889"/><rect width="44.444" height="44.444" x="488.889" y="488.889"/><rect width="44.444" height="44.444" x="533.333" y="488.889"/><rect width="44.444" height="44.444" x="577.778" y="488.889"/><rect width="44.444" height="44.444" x="622.222" y="488.889"/><rect width="44.444" height="44.444" x="666.667" y="488.889"/><rect width="44.444" height="44.444" x="711.111" y="488.889"/><rect width="44.444" height="44.444" x="755.556" y="488.889"/><rect width="44.444" height="44.444" x="800" y="488.889"/><rect width="44.444" height="44.444" x="0" y="533.333"/><rect width="44.444" height="44.444" x="44.444" y="533.333"/><rect width="44.444" height="44.444" x="88.889" y="533.333"/><rect width="44.444" height="44.444" x="133.333" y="533.333"/><rect width="44.444" height="44.444" x="177.778" y="533.333"/><rect width="44.444" height="44.444" x="222.222" y="533.333"/><rect width="44.444" height="44.444" x="266.667" y="533.333"/><rect width="44.444" height="44.444" x="311.111" y="533.333"/><rect width="44.444" height="44.444" x="355.556" y="533.333"/><rect width="44.444" height="44.444" x="400" y="533.333"/><rect width="44.444" height="44.444" x="444.444" y="533.333"/><rect width="44.444" height="44.444" x="488.889" y="533.333"/><rect width="44.444" height="44.444" x="533.333" y="533.333"/><rect width="44.444" height="44.444" x="577.778" y="533.333"/><rect width="44.444" height="44.444" x="622.222" y="533.333"/><rect width="44.444" height="44.444" x="666.667" y="533.333"/><rect width="44.444" height="44.444" x="711.111" y="533.333"/><rect width="44.444" height="44.444" x="755.556" y="533.333"/><rect width="44.444" height="44.444" x="800" y="533.333"/><rect width="44.444" height="44.444" x="0" y="577.778"/><rect width="44.444" height="44.444" x="44.444" y="577.778"/><rect width="44.444" height="44.444" x="88.889" y="577.778"/><rect width="44.444" height="44.444" x="133.333" y="577.778"/><rect width="44.444" height="44.444" x="177.778" y="577.778"/><rect width="44.444" height="44.444" x="222.222" y="577.778"/><rect width="44.444" height="44.444" x="266.667" y="577.778"/><rect width="44.444" height="44.444" x="311.111" y="577.778"/><rect width="44.444" height="44.444" x="355.556" y="577.778"/><rect width="44.444" height="44.444" x="400" y="577.778"/><rect width="44.444" height="44.444" x="444.444" y="577.778"/><rect width="44.444" height="44.444" x="488.889" y="577.778"/><rect width="44.444" height="44.444" x="533.333" y="577.778"/><rect width="44.444" height="44.444" x="577.778" y="577.778"/><rect width="44.444" height="44.444" x="622.222" y="577.778"/><rect width="44.444" height="44.444" x="666.667" y="577.778"/><rect width="44.444" height="44.444" x="711.111" y="577.778"/><rect width="44.444" height="44.444" x="755.556" y="577.778"/><rect width="44.444" height="44.444" x="800" y="577.778"/><rect width="44.444" height="44.444" x="0" y="622.222"/><rect width="44.444" height="44.444" x="44.444" y="622.222"/><rect width="44.444" height="44.444" x="88.889" y="622.222"/><rect width="44.444" height="44.444" x="133.333" y="622.222"/><rect width="44.444" height="44.444" x="177.778" y="622.222"/><rect width="44.444" height="44.444" x="222.222" y="622.222"/><rect width="44.444" height="44.444" x="266.667" y="622.222"/><rect width="44.444" height="44.444" x="311.111" y="622.222"/><rect width="44.444" height="44.444" x="355.556" y="622.222"/><rect width="44.444" height="44.444" x="400" y="622.222"/><rect width="44.444" height="44.444" x="444.444" y="622.222"/><rect width="44.444" height="44.444" x="488.889" y="622.222"/><rect width="44.444" height="44.444" x="533.333" y="622.222"/><rect width="44.444" height="44.444" x="577.778" y="622.222"/><rect width="44.444" height="44.444" x="622.222" y="622.222"/><rect width="44.444" height="44.444" x="666.667" y="622.222"/><rect width="44.444" height="44.444" x="711.111" y="622.222"/><rect width="44.444" height="44.444" x="755.556" y="622.222"/><rect width="44.444" height="44.444" x="800" y="622.222"/><rect width="44.444" height="44.444" x="0" y="666.667"/><rect width="44.444" height="44.444" x="44.444" y="666.667"/><rect width="44.444" height="44.444" x="88.889" y="666.667"/><rect width="44.444" height="44.444" x="133.333" y="666.667"/><rect width="44.444" height="44.444" x="177.778" y="666.667"/><rect width="44.444" height="44.444" x="222.222" y="666.667"/><rect width="44.444" height="44.444" x="266.667" y="666.667"/><rect width="44.444" height="44.444" x="311.111" y="666.667"/><rect width="44.444" height="44.444" x="355.556" y="666.667"/><rect width="44.444" height="44.444" x="400" y="666.667"/><rect width="44.444" height="44.444" x="444.444" y="666.667"/><rect width="44.444" height="44.444" x="488.889" y="666.667"/><rect width="44.444" height="44.444" x="533.333" y="666.667"/><rect width="44.444" height="44.444" x="577.778" y="666.667"/><rect width="44.444" height="44.444" x="622.222" y="666.667"/><rect width="44.444" height="44.444" x="666.667" y="666.667"/><rect width="44.444" height="44.444" x="711.111" y="666.667"/><rect width="44.444" height="44.444" x="755.556" y="666.667"/><rect width="44.444" height="44.444" x="800" y="666.667"/><rect width="44.444" height="44.444" x="0" y="711.111"/><rect width="44.444" height="44.444" x="44.444" y="711.111"/><rect width="44.444" height="44.444" x="88.889" y="711.111"/><rect width="44.444" height="44.444" x="133.333" y="711.111"/><rect width="44.444" height="44.444" x="177.778" y="711.111"/><rect width="44.444" height="44.444" x="222.222" y="711.111"/><rect width="44.444" height="44.444" x="266.667" y="711.111"/><rect width="44.444" height="44.444" x="311.111" y="711.111"/><rect width="44.444" height="44.444" x="355.556" y="711.111"/><rect width="44.444" height="44.444" x="400" y="711.111"/><rect width="44.444" height="44.444" x="444.444" y="711.111"/><rect width="44.444" height="44.444" x="488.889" y="711.111"/><rect width="44.444" height="44.444" x="533.333" y="711.111"/><rect width="44.444" height="44.444" x="577.778" y="711.111"/><rect width="44.444" height="44.444" x="622.222" y="711.111"/><rect width="44.444" height="44.444" x="666.667" y="711.111"/><rect width="44.444" height="44.444" x="711.111" y="711.111"/><rect width="44.444" height="44.444" x="755.556" y="711.111"/><rect width="44.444" height="44.444" x="800" y="711.111"/><rect width="44.444" height="44.444" x="0" y="755.556"/><rect width="44.444" height="44.444" x="44.444" y="755.556"/><rect width="44.444" height="44.444" x="88.889" y="755.556"/><rect width="44.444" height="44.444" x="133.333" y="755.556"/><rect width="44.444" height="44.444" x="177.778" y="755.556"/><rect width="44.444" height="44.444" x="222.222" y="755.556"/><rect width="44.444" height="44.444" x="266.667" y="755.556"/><rect width="44.444" height="44.444" x="311.111" y="755.556"/><rect width="44.444" height="44.444" x="355.556" y="755.556"/><rect width="44.444" height="44.444" x="400" y="755.556"/><rect width="44.444" height="44.444" x="444.444" y="755.556"/><rect width="44.444" height="44.444" x="488.889" y="755.556"/><rect width="44.444" height="44.444" x="533.333" y="755.556"/><rect width="44.444" height="44.444" x="577.778" y="755.556"/><rect width="44.444" height="44.444" x="622.222" y="755.556"/><rect width="44.444" height="44.444" x="666.667" y="755.556"/><rect width="44.444" height="44.444" x="711.111" y="755.556"/><rect width="44.444" height="44.444" x="755.556" y="755.556"/><rect width="44.444" height="44.444" x="800" y="755.556"/><rect width="44.444" height="44.444" x="0" y="800"/><rect width="44.444" height="44.444" x="44.444" y="800"/><rect width="44.444" height="44.444" x="88.889" y="800"/><rect width="44.444" height="44.444" x="133.333" y="800"/><rect width="44.444" height="44.444" x="177.778" y="800"/><rect width="44.444" height="44.444" x="222.222" y="800"/><rect width="44.444" height="44.444" x="266.667" y="800"/><rect width="44.444" height="44.444" x="311.111" y="800"/><rect width="44.444" height="44.444" x="355.556" y="800"/><rect width="44.444" height="44.444" x="400" y="800"/><rect width="44.444" height="44.444" x="444.444" y="800"/><rect width="44.444" height="44.444" x="488.889" y="800"/><rect width="44.444" height="44.444" x="533.333" y="800"/><rect width="44.444" height="44.444" x="577.778" y="800"/><rect width="44.444" height="44.444" x="622.222" y="800"/><rect width="44.444" height="44.444" x="666.667" y="800"/><rect width="44.444" height="44.444" x="711.111" y="800"/><rect width="44.444" height="44.444" x="755.556" y="800"/><rect width="44.444" height="44.444" x="800" y="800"/></g></svg>