<svg width="352" height="8" viewBox="0 0 352 8" fill="none" xmlns="http://www.w3.org/2000/svg">
<path fill-rule="evenodd" clip-rule="evenodd" d="M10.3429 8L14.509 0H20.6857L16.5196 8H10.3429Z" fill="#338EDA"/>
<path fill-rule="evenodd" clip-rule="evenodd" d="M0 8L4.16616 0H10.3429L6.1767 8H0Z" fill="#EC3750"/>
<path fill-rule="evenodd" clip-rule="evenodd" d="M31.0286 8L35.1947 0H41.3714L37.2053 8H31.0286Z" fill="#338EDA"/>
<path fill-rule="evenodd" clip-rule="evenodd" d="M41.3714 8L45.5376 0H51.7143L47.5481 8H41.3714Z" fill="#EC3750"/>
<path fill-rule="evenodd" clip-rule="evenodd" d="M51.7143 8L55.8805 0H62.0572L57.891 8H51.7143Z" fill="#338EDA"/>
<path fill-rule="evenodd" clip-rule="evenodd" d="M20.6857 8L24.8519 0H31.0286L26.8624 8H20.6857Z" fill="#EC3750"/>
<path fill-rule="evenodd" clip-rule="evenodd" d="M62.0571 8L66.2233 0H72.4L68.2338 8H62.0571Z" fill="#EC3750"/>
<path fill-rule="evenodd" clip-rule="evenodd" d="M72.4 8L76.5662 0H82.7429L78.5767 8H72.4Z" fill="#338EDA"/>
<path fill-rule="evenodd" clip-rule="evenodd" d="M82.7429 8L86.909 0H93.0857L88.9196 8H82.7429Z" fill="#EC3750"/>
<path fill-rule="evenodd" clip-rule="evenodd" d="M93.0857 8L97.2519 0H103.429L99.2624 8H93.0857Z" fill="#338EDA"/>
<path fill-rule="evenodd" clip-rule="evenodd" d="M103.429 8L107.595 0H113.771L109.605 8H103.429Z" fill="#EC3750"/>
<path fill-rule="evenodd" clip-rule="evenodd" d="M113.771 8L117.938 0H124.114L119.948 8H113.771Z" fill="#338EDA"/>
<path fill-rule="evenodd" clip-rule="evenodd" d="M124.114 8L128.28 0H134.457L130.291 8H124.114Z" fill="#EC3750"/>
<path fill-rule="evenodd" clip-rule="evenodd" d="M134.457 8L138.623 0H144.8L140.634 8H134.457Z" fill="#338EDA"/>
<path fill-rule="evenodd" clip-rule="evenodd" d="M144.8 8L148.966 0H155.143L150.977 8H144.8Z" fill="#EC3750"/>
<path fill-rule="evenodd" clip-rule="evenodd" d="M155.143 8L159.309 0H165.486L161.32 8H155.143Z" fill="#338EDA"/>
<path fill-rule="evenodd" clip-rule="evenodd" d="M165.486 8L169.652 0H175.829L171.662 8H165.486Z" fill="#EC3750"/>
<path fill-rule="evenodd" clip-rule="evenodd" d="M175.829 8L179.995 0H186.171L182.005 8H175.829Z" fill="#338EDA"/>
<path fill-rule="evenodd" clip-rule="evenodd" d="M186.171 8L190.338 0H196.514L192.348 8H186.171Z" fill="#EC3750"/>
<path fill-rule="evenodd" clip-rule="evenodd" d="M196.514 8L200.68 0H206.857L202.691 8H196.514Z" fill="#338EDA"/>
<path fill-rule="evenodd" clip-rule="evenodd" d="M206.857 8L211.023 0H217.2L213.034 8H206.857Z" fill="#EC3750"/>
<path fill-rule="evenodd" clip-rule="evenodd" d="M217.2 8L221.366 0H227.543L223.377 8H217.2Z" fill="#338EDA"/>
<path fill-rule="evenodd" clip-rule="evenodd" d="M227.543 8L231.709 0H237.886L233.72 8H227.543Z" fill="#EC3750"/>
<path fill-rule="evenodd" clip-rule="evenodd" d="M237.886 8L242.052 0H248.229L244.062 8H237.886Z" fill="#338EDA"/>
<path fill-rule="evenodd" clip-rule="evenodd" d="M248.229 8L252.395 0H258.571L254.405 8H248.229Z" fill="#EC3750"/>
<path fill-rule="evenodd" clip-rule="evenodd" d="M258.571 8L262.738 0H268.914L264.748 8H258.571Z" fill="#338EDA"/>
<path fill-rule="evenodd" clip-rule="evenodd" d="M268.914 8L273.08 0H279.257L275.091 8H268.914Z" fill="#EC3750"/>
<path fill-rule="evenodd" clip-rule="evenodd" d="M279.257 8L283.423 0H289.6L285.434 8H279.257Z" fill="#338EDA"/>
<path fill-rule="evenodd" clip-rule="evenodd" d="M289.6 8L293.766 0H299.943L295.777 8H289.6Z" fill="#EC3750"/>
<path fill-rule="evenodd" clip-rule="evenodd" d="M299.943 8L304.109 0H310.286L306.12 8H299.943Z" fill="#338EDA"/>
<path fill-rule="evenodd" clip-rule="evenodd" d="M310.286 8L314.452 0H320.629L316.462 8H310.286Z" fill="#EC3750"/>
<path fill-rule="evenodd" clip-rule="evenodd" d="M320.629 8L324.795 0H330.971L326.805 8H320.629Z" fill="#338EDA"/>
<path fill-rule="evenodd" clip-rule="evenodd" d="M330.971 8L335.138 0H341.314L337.148 8H330.971Z" fill="#EC3750"/>
<path fill-rule="evenodd" clip-rule="evenodd" d="M341.314 8L345.48 0H351.657L347.491 8H341.314Z" fill="#338EDA"/>
</svg>
