<svg width="400" height="400" viewBox="0 0 400 400" xmlns="http://www.w3.org/2000/svg" style="opacity: 0.5;"><g fill="none" fill-rule="evenodd"><path d="M106 21l14 7" stroke="#EBECED" stroke-width="2" stroke-linecap="square"/><circle fill="#EBECED" cx="56" cy="58" r="3"/><circle fill="#EBECED" cx="361" cy="207" r="3"/><path stroke="#EBECED" stroke-width="2" d="M103 362h6v6h-6zM207 157h6v6h-6z"/><circle fill="#EBECED" cx="183" cy="285" r="3"/><circle fill="#EBECED" cx="263" cy="100" r="3"/><path stroke="#EBECED" stroke-width="2" d="M272 325h6v6h-6zM109 151h16l4-15-12-9-12 9zM189 57.604L194 66l-5 7.604h-9l-5-8 5-8zM350 379v-12h12v-12h12M246 224s0-24 24-24M81 283l5 3-3 5 5 3-3 5"/><path d="M41 228l7.884-22.668" stroke="#EBECED" stroke-width="2" stroke-linecap="square"/><path stroke="#EBECED" stroke-width="2" d="M119 224l-2-7 8 3zM331 122h14v14h-14z"/><circle stroke="#EBECED" stroke-width="2" cx="374" cy="33" r="12"/><path d="M23 120s10 7 4 19M26 372l3-12 9 14zM184 382s15-14 33 2M284 36l-3-11 13 4zM308.382 269.38s.908-.91.908-1.82-.489-1.178-.908-1.446c-.457-.294-1.105-.353-1.732-.098-.693.281-1.269.902-1.537 1.733-.287.909-.17 1.961.38 2.89.594 1 1.634 1.745 2.89 2.014 1.346.287 2.818-.007 4.047-.857 1.308-.909 2.223-2.36 2.491-4.047.281-1.785-.183-3.668-1.34-5.198-1.21-1.622-3.08-2.707-5.199-2.975-2.216-.282-4.518.36-6.355 1.817-1.922 1.524-3.184 3.806-3.452 6.356-.281 2.654.53 5.368 2.295 7.512 1.83 2.23 4.53 3.662 7.512 3.93 3.087.281 6.212-.706 8.67-2.772 2.531-2.138 4.133-5.257 4.408-8.67.28-3.518-.877-7.062-3.25-9.828-2.446-2.837-5.976-4.61-9.828-4.884-3.955-.281-7.911 1.046-10.978 3.734-3.151 2.746-5.093 6.695-5.368 10.978-.28 4.387 1.223 8.761 4.211 12.135 3.06 3.452 7.421 5.57 12.135 5.846 4.82.28 9.612-1.393 13.293-4.689 3.76-3.367 6.048-8.14 6.323-13.292" stroke="#EBECED" stroke-width="2"/></g></svg>