<svg width="293" height="6" viewBox="0 0 293 6" fill="none" xmlns="http://www.w3.org/2000/svg">
<path fill-rule="evenodd" clip-rule="evenodd" d="M8 6L10.9823 0H15.4038L12.4215 6H8Z" fill="#338EDA"/>
<path fill-rule="evenodd" clip-rule="evenodd" d="M0.421509 6L3.40379 0H7.82527L4.843 6H0.421509Z" fill="#EC3750"/>
<path fill-rule="evenodd" clip-rule="evenodd" d="M24 6L26.9823 0H31.4038L28.4215 6H24Z" fill="#338EDA"/>
<path fill-rule="evenodd" clip-rule="evenodd" d="M32.4215 6L35.4038 0H39.8253L36.843 6H32.4215Z" fill="#EC3750"/>
<path fill-rule="evenodd" clip-rule="evenodd" d="M40.843 6L43.8253 0H48.2468L45.2645 6H40.843Z" fill="#338EDA"/>
<path fill-rule="evenodd" clip-rule="evenodd" d="M15.5785 6L18.5608 0H22.9823L20 6H15.5785Z" fill="#EC3750"/>
<path fill-rule="evenodd" clip-rule="evenodd" d="M49.2645 6L52.2468 0H56.6683L53.686 6H49.2645Z" fill="#EC3750"/>
<path fill-rule="evenodd" clip-rule="evenodd" d="M57.686 6L60.6683 0H65.0898L62.1075 6H57.686Z" fill="#338EDA"/>
<path fill-rule="evenodd" clip-rule="evenodd" d="M66.1075 6L69.0898 0H73.5113L70.529 6H66.1075Z" fill="#EC3750"/>
<path fill-rule="evenodd" clip-rule="evenodd" d="M74.5291 6L77.5113 0H81.9328L78.9505 6H74.5291Z" fill="#338EDA"/>
<path fill-rule="evenodd" clip-rule="evenodd" d="M82.9506 6L85.9328 0H90.3543L87.372 6H82.9506Z" fill="#EC3750"/>
<path fill-rule="evenodd" clip-rule="evenodd" d="M91.3721 6L94.3543 0H98.7758L95.7936 6H91.3721Z" fill="#338EDA"/>
<path fill-rule="evenodd" clip-rule="evenodd" d="M99.7936 6L102.776 0H107.197L104.215 6H99.7936Z" fill="#EC3750"/>
<path fill-rule="evenodd" clip-rule="evenodd" d="M108.215 6L111.197 0H115.619L112.637 6H108.215Z" fill="#338EDA"/>
<path fill-rule="evenodd" clip-rule="evenodd" d="M116.637 6L119.619 0H124.04L121.058 6H116.637Z" fill="#EC3750"/>
<path fill-rule="evenodd" clip-rule="evenodd" d="M125.058 6L128.04 0H132.462L129.48 6H125.058Z" fill="#338EDA"/>
<path fill-rule="evenodd" clip-rule="evenodd" d="M133.48 6L136.462 0H140.883L137.901 6H133.48Z" fill="#EC3750"/>
<path fill-rule="evenodd" clip-rule="evenodd" d="M141.901 6L144.883 0H149.305L146.323 6H141.901Z" fill="#338EDA"/>
<path fill-rule="evenodd" clip-rule="evenodd" d="M150.323 6L153.305 0H157.726L154.744 6H150.323Z" fill="#EC3750"/>
<path fill-rule="evenodd" clip-rule="evenodd" d="M158.744 6L161.726 0H166.148L163.166 6H158.744Z" fill="#338EDA"/>
<path fill-rule="evenodd" clip-rule="evenodd" d="M167.166 6L170.148 0H174.569L171.587 6H167.166Z" fill="#EC3750"/>
<path fill-rule="evenodd" clip-rule="evenodd" d="M175.587 6L178.569 0H182.991L180.009 6H175.587Z" fill="#338EDA"/>
<path fill-rule="evenodd" clip-rule="evenodd" d="M184.009 6L186.991 0H191.412L188.43 6H184.009Z" fill="#EC3750"/>
<path fill-rule="evenodd" clip-rule="evenodd" d="M192.43 6L195.412 0H199.834L196.852 6H192.43Z" fill="#338EDA"/>
<path fill-rule="evenodd" clip-rule="evenodd" d="M200.852 6L203.834 0H208.255L205.273 6H200.852Z" fill="#EC3750"/>
<path fill-rule="evenodd" clip-rule="evenodd" d="M209.273 6L212.255 0H216.677L213.695 6H209.273Z" fill="#338EDA"/>
<path fill-rule="evenodd" clip-rule="evenodd" d="M217.695 6L220.677 0H225.098L222.116 6H217.695Z" fill="#EC3750"/>
<path fill-rule="evenodd" clip-rule="evenodd" d="M226.116 6L229.098 0H233.52L230.538 6H226.116Z" fill="#338EDA"/>
<path fill-rule="evenodd" clip-rule="evenodd" d="M234.538 6L237.52 0H241.941L238.959 6H234.538Z" fill="#EC3750"/>
<path fill-rule="evenodd" clip-rule="evenodd" d="M242.959 6L245.942 0H250.363L247.381 6H242.959Z" fill="#338EDA"/>
<path fill-rule="evenodd" clip-rule="evenodd" d="M251.381 6L254.363 0H258.785L255.802 6H251.381Z" fill="#EC3750"/>
<path fill-rule="evenodd" clip-rule="evenodd" d="M259.802 6L262.785 0H267.206L264.224 6H259.802Z" fill="#338EDA"/>
<path fill-rule="evenodd" clip-rule="evenodd" d="M268.224 6L271.206 0H275.628L272.645 6H268.224Z" fill="#EC3750"/>
<path fill-rule="evenodd" clip-rule="evenodd" d="M276.645 6L279.628 0H284.049L281.067 6H276.645Z" fill="#338EDA"/>
<path fill-rule="evenodd" clip-rule="evenodd" d="M285.067 6L288.049 0H292.471L289.488 6H285.067Z" fill="#EC3750"/>
</svg>
