<?xml version="1.0" encoding="utf-8"?>

<!DOCTYPE svg PUBLIC "-//W3C//DTD SVG 1.1//EN" "http://www.w3.org/Graphics/SVG/1.1/DTD/svg11.dtd">
<!-- Uploaded to: SVG Repo, www.svgrepo.com, Generator: SVG Repo Mixer Tools -->
<svg height="800px" width="800px" version="1.1" id="_x32_" xmlns="http://www.w3.org/2000/svg" xmlns:xlink="http://www.w3.org/1999/xlink" 
	 viewBox="0 0 512 512"  xml:space="preserve">
<style type="text/css">
	.st0{fill:#000000;}
</style>
<g>
	<path class="st0" d="M322.415,350.191L163.017,190.797l-25.17-8.091c-28.028-9.017-59.533-1.726-82.132,18.999l-8.308,7.62
		l128.24,128.24l128.244,128.24l7.616-8.308c20.725-22.608,28.013-54.106,18.999-82.136L322.415,350.191z"/>
	<polygon class="st0" points="20.022,454.547 0,510.788 56.249,490.773 180.813,366.201 144.59,329.975 	"/>
	<polygon class="st0" points="446.792,114.713 398.489,66.42 333.286,1.212 303.099,31.395 481.816,210.117 512,179.927 	"/>
	<polygon class="st0" points="173.884,179.927 333.286,339.321 446.792,194.421 318.792,66.42 	"/>
</g>
</svg>