<svg width="1714" height="1483" viewBox="0 0 1714 1483" fill="none" xmlns="http://www.w3.org/2000/svg">
<g filter="url(#filter0_df_3_2)">
<path d="M389.903 62.951C409.493 70.0155 430.975 62.0926 442.076 44.9077C446.6 37.9055 449.965 29.4907 447.087 21.1345C443.043 9.38982 428.102 4.8433 418.523 12.8746C416.994 14.1567 415.451 15.844 414.519 17.6191C410.791 24.7268 411.173 33.9656 418.501 38.6995C420.365 39.9043 422.56 40.6264 424.708 41.1015C425.688 41.3184 427.045 41.4768 427.396 42.6016C427.723 43.6453 427.044 44.7856 426.513 45.6342C425.225 47.693 423.361 49.4591 421.545 51.0497C416.323 55.6238 409.913 58.0428 403.033 58.6403C398.144 59.0647 391.711 56.8117 389.903 62.951Z" fill="white" fill-opacity="0.2"/>
<path d="M463.821 110.701C483.411 117.766 504.893 109.843 515.995 92.6581C520.518 85.656 523.883 77.2411 521.005 68.885C516.961 57.1403 502.02 52.5938 492.441 60.6251C490.912 61.9072 489.369 63.5944 488.437 65.3696C484.709 72.4773 485.091 81.7161 492.419 86.45C494.283 87.6548 496.478 88.3768 498.626 88.852C499.606 89.0689 500.963 89.2273 501.314 90.3521C501.641 91.3958 500.962 92.5361 500.431 93.3847C499.143 95.4435 497.279 97.2096 495.463 98.8002C490.241 103.374 483.831 105.793 476.951 106.391C472.062 106.815 465.629 104.562 463.821 110.701Z" fill="white" fill-opacity="0.2"/>
<path d="M537.74 158.452C557.329 165.516 578.811 157.594 589.913 140.409C594.436 133.407 597.801 124.992 594.923 116.636C590.879 104.891 575.938 100.344 566.359 108.376C564.83 109.658 563.287 111.345 562.356 113.12C558.627 120.228 559.009 129.467 566.337 134.2C568.201 135.405 570.396 136.127 572.544 136.602C573.524 136.819 574.881 136.978 575.232 138.103C575.559 139.146 574.88 140.287 574.349 141.135C573.062 143.194 571.197 144.96 569.382 146.551C564.16 151.125 557.749 153.544 550.869 154.141C545.98 154.566 539.547 152.313 537.74 158.452Z" fill="white" fill-opacity="0.2"/>
<path d="M611.658 206.202C631.248 213.267 652.729 205.344 663.831 188.159C668.354 181.157 671.719 172.742 668.841 164.386C664.797 152.641 649.856 148.095 640.277 156.126C638.748 157.408 637.205 159.095 636.274 160.871C632.545 167.978 632.928 177.217 640.255 181.951C642.119 183.156 644.315 183.878 646.462 184.353C647.442 184.57 648.799 184.728 649.151 185.853C649.477 186.897 648.798 188.037 648.267 188.886C646.98 190.945 645.116 192.711 643.3 194.301C638.078 198.875 631.667 201.294 624.787 201.892C619.898 202.316 613.465 200.063 611.658 206.202Z" fill="white" fill-opacity="0.2"/>
<path d="M685.576 253.953C705.166 261.017 726.648 253.095 737.749 235.91C742.272 228.908 745.637 220.493 742.76 212.136C738.716 200.392 723.774 195.845 714.195 203.877C712.666 205.159 711.123 206.846 710.192 208.621C706.463 215.729 706.846 224.968 714.173 229.701C716.038 230.906 718.233 231.628 720.38 232.103C721.361 232.32 722.717 232.479 723.069 233.604C723.395 234.647 722.716 235.788 722.185 236.636C720.898 238.695 719.034 240.461 717.218 242.052C711.996 246.626 705.585 249.045 698.705 249.642C693.816 250.067 687.384 247.814 685.576 253.953Z" fill="white" fill-opacity="0.2"/>
<path d="M759.494 301.703C779.084 308.768 800.566 300.845 811.667 283.66C816.19 276.658 819.555 268.243 816.678 259.887C812.634 248.142 797.692 243.596 788.114 251.627C786.584 252.909 785.041 254.596 784.11 256.372C780.382 263.479 780.764 272.718 788.091 277.452C789.956 278.657 792.151 279.379 794.298 279.854C795.279 280.071 796.635 280.229 796.987 281.354C797.314 282.398 796.634 283.538 796.103 284.387C794.816 286.445 792.952 288.212 791.136 289.802C785.914 294.376 779.503 296.795 772.623 297.393C767.735 297.817 761.302 295.564 759.494 301.703Z" fill="white" fill-opacity="0.2"/>
<path d="M833.412 349.454C853.002 356.518 874.484 348.596 885.585 331.411C890.109 324.408 893.473 315.994 890.596 307.637C886.552 295.893 871.61 291.346 862.032 299.378C860.502 300.66 858.959 302.347 858.028 304.122C854.3 311.23 854.682 320.469 862.009 325.202C863.874 326.407 866.069 327.129 868.216 327.604C869.197 327.821 870.554 327.98 870.905 329.105C871.232 330.148 870.552 331.289 870.021 332.137C868.734 334.196 866.87 335.962 865.054 337.553C859.832 342.127 853.422 344.546 846.542 345.143C841.653 345.568 835.22 343.315 833.412 349.454Z" fill="white" fill-opacity="0.2"/>
<path d="M907.33 397.204C926.92 404.269 948.402 396.346 959.503 379.161C964.027 372.159 967.391 363.744 964.514 355.388C960.47 343.643 945.528 339.097 935.95 347.128C934.421 348.41 932.878 350.097 931.946 351.873C928.218 358.98 928.6 368.219 935.928 372.953C937.792 374.158 939.987 374.88 942.134 375.355C943.115 375.572 944.472 375.73 944.823 376.855C945.15 377.899 944.47 379.039 943.94 379.888C942.652 381.946 940.788 383.713 938.972 385.303C933.75 389.877 927.34 392.296 920.46 392.894C915.571 393.318 909.138 391.065 907.33 397.204Z" fill="white" fill-opacity="0.2"/>
<path d="M981.248 444.955C1000.84 452.019 1022.32 444.097 1033.42 426.912C1037.94 419.909 1041.31 411.495 1038.43 403.138C1034.39 391.394 1019.45 386.847 1009.87 394.878C1008.34 396.161 1006.8 397.848 1005.86 399.623C1002.14 406.731 1002.52 415.97 1009.85 420.703C1011.71 421.908 1013.91 422.63 1016.05 423.105C1017.03 423.322 1018.39 423.481 1018.74 424.606C1019.07 425.649 1018.39 426.79 1017.86 427.638C1016.57 429.697 1014.71 431.463 1012.89 433.054C1007.67 437.628 1001.26 440.047 994.378 440.644C989.489 441.069 983.056 438.816 981.248 444.955Z" fill="white" fill-opacity="0.2"/>
<path d="M1055.17 492.705C1074.76 499.77 1096.24 491.847 1107.34 474.662C1111.86 467.66 1115.23 459.245 1112.35 450.889C1108.31 439.144 1093.36 434.598 1083.79 442.629C1082.26 443.911 1080.71 445.598 1079.78 447.374C1076.05 454.481 1076.44 463.72 1083.76 468.454C1085.63 469.659 1087.82 470.381 1089.97 470.856C1090.95 471.073 1092.31 471.231 1092.66 472.356C1092.99 473.4 1092.31 474.54 1091.78 475.389C1090.49 477.447 1088.62 479.213 1086.81 480.804C1081.59 485.378 1075.18 487.797 1068.3 488.395C1063.41 488.819 1056.97 486.566 1055.17 492.705Z" fill="white" fill-opacity="0.2"/>
<path d="M1129.08 540.456C1148.67 547.52 1170.16 539.597 1181.26 522.413C1185.78 515.41 1189.15 506.996 1186.27 498.639C1182.22 486.895 1167.28 482.348 1157.7 490.379C1156.18 491.662 1154.63 493.349 1153.7 495.124C1149.97 502.232 1150.35 511.471 1157.68 516.204C1159.55 517.409 1161.74 518.131 1163.89 518.606C1164.87 518.823 1166.23 518.982 1166.58 520.107C1166.9 521.15 1166.22 522.291 1165.69 523.139C1164.41 525.198 1162.54 526.964 1160.73 528.555C1155.5 533.129 1149.09 535.548 1142.21 536.145C1137.33 536.57 1130.89 534.317 1129.08 540.456Z" fill="white" fill-opacity="0.2"/>
<path d="M1203 588.206C1222.59 595.271 1244.07 587.348 1255.18 570.163C1259.7 563.161 1263.06 554.746 1260.19 546.39C1256.14 534.645 1241.2 530.099 1231.62 538.13C1230.09 539.412 1228.55 541.099 1227.62 542.874C1223.89 549.982 1224.27 559.221 1231.6 563.955C1233.46 565.16 1235.66 565.882 1237.81 566.357C1238.79 566.574 1240.14 566.732 1240.5 567.857C1240.82 568.901 1240.14 570.041 1239.61 570.89C1238.32 572.948 1236.46 574.714 1234.64 576.305C1229.42 580.879 1223.01 583.298 1216.13 583.896C1211.24 584.32 1204.81 582.067 1203 588.206Z" fill="white" fill-opacity="0.2"/>
<path d="M1276.92 635.957C1296.51 643.021 1317.99 635.098 1329.09 617.913C1333.62 610.911 1336.98 602.496 1334.1 594.14C1330.06 582.396 1315.12 577.849 1305.54 585.88C1304.01 587.163 1302.47 588.85 1301.54 590.625C1297.81 597.733 1298.19 606.971 1305.52 611.705C1307.38 612.91 1309.58 613.632 1311.73 614.107C1312.71 614.324 1314.06 614.483 1314.41 615.607C1314.74 616.651 1314.06 617.791 1313.53 618.64C1312.24 620.699 1310.38 622.465 1308.56 624.056C1303.34 628.63 1296.93 631.049 1290.05 631.646C1285.16 632.071 1278.73 629.817 1276.92 635.957Z" fill="white" fill-opacity="0.2"/>
<path d="M1350.84 683.707C1370.43 690.772 1391.91 682.849 1403.01 665.664C1407.54 658.662 1410.9 650.247 1408.02 641.891C1403.98 630.146 1389.04 625.6 1379.46 633.631C1377.93 634.913 1376.39 636.6 1375.46 638.375C1371.73 645.483 1372.11 654.722 1379.44 659.456C1381.3 660.661 1383.5 661.383 1385.64 661.858C1386.62 662.075 1387.98 662.233 1388.33 663.358C1388.66 664.402 1387.98 665.542 1387.45 666.39C1386.16 668.449 1384.3 670.215 1382.48 671.806C1377.26 676.38 1370.85 678.799 1363.97 679.397C1359.08 679.821 1352.65 677.568 1350.84 683.707Z" fill="white" fill-opacity="0.2"/>
<path d="M1424.76 731.458C1444.35 738.522 1465.83 730.599 1476.93 713.414C1481.45 706.412 1484.82 697.997 1481.94 689.641C1477.9 677.897 1462.96 673.35 1453.38 681.381C1451.85 682.664 1450.3 684.351 1449.37 686.126C1445.64 693.234 1446.03 702.472 1453.35 707.206C1455.22 708.411 1457.41 709.133 1459.56 709.608C1460.54 709.825 1461.9 709.984 1462.25 711.108C1462.58 712.152 1461.9 713.292 1461.37 714.141C1460.08 716.2 1458.22 717.966 1456.4 719.557C1451.18 724.131 1444.77 726.55 1437.89 727.147C1433 727.572 1426.56 725.318 1424.76 731.458Z" fill="white" fill-opacity="0.2"/>
<path d="M1498.68 779.208C1518.27 786.273 1539.75 778.35 1550.85 761.165C1555.37 754.163 1558.74 745.748 1555.86 737.392C1551.82 725.647 1536.87 721.101 1527.29 729.132C1525.77 730.414 1524.22 732.101 1523.29 733.876C1519.56 740.984 1519.95 750.223 1527.27 754.957C1529.14 756.162 1531.33 756.884 1533.48 757.359C1534.46 757.576 1535.82 757.734 1536.17 758.859C1536.49 759.903 1535.82 761.043 1535.28 761.891C1534 763.95 1532.13 765.716 1530.32 767.307C1525.1 771.881 1518.68 774.3 1511.8 774.898C1506.92 775.322 1500.48 773.069 1498.68 779.208Z" fill="white" fill-opacity="0.2"/>
<path d="M1572.59 826.959C1592.18 834.023 1613.67 826.1 1624.77 808.915C1629.29 801.913 1632.65 793.498 1629.78 785.142C1625.73 773.398 1610.79 768.851 1601.21 776.882C1599.68 778.165 1598.14 779.852 1597.21 781.627C1593.48 788.735 1593.86 797.973 1601.19 802.707C1603.06 803.912 1605.25 804.634 1607.4 805.109C1608.38 805.326 1609.73 805.485 1610.09 806.609C1610.41 807.653 1609.73 808.793 1609.2 809.642C1607.92 811.701 1606.05 813.467 1604.24 815.058C1599.01 819.632 1592.6 822.051 1585.72 822.648C1580.83 823.073 1574.4 820.819 1572.59 826.959Z" fill="white" fill-opacity="0.2"/>
<path d="M1646.51 874.709C1666.1 881.774 1687.58 873.851 1698.68 856.666C1703.21 849.664 1706.57 841.249 1703.7 832.893C1699.65 821.148 1684.71 816.602 1675.13 824.633C1673.6 825.915 1672.06 827.602 1671.13 829.377C1667.4 836.485 1667.78 845.724 1675.11 850.458C1676.97 851.663 1679.17 852.385 1681.32 852.86C1682.3 853.077 1683.65 853.235 1684 854.36C1684.33 855.404 1683.65 856.544 1683.12 857.392C1681.83 859.451 1679.97 861.217 1678.15 862.808C1672.93 867.382 1666.52 869.801 1659.64 870.399C1654.75 870.823 1648.32 868.57 1646.51 874.709Z" fill="white" fill-opacity="0.2"/>
<path d="M324.789 163.748C344.379 170.813 365.861 162.89 376.962 145.705C381.485 138.703 384.85 130.288 381.973 121.932C377.929 110.187 362.987 105.641 353.409 113.672C351.879 114.954 350.336 116.641 349.405 118.417C345.677 125.524 346.059 134.763 353.386 139.497C355.251 140.702 357.446 141.424 359.593 141.899C360.574 142.116 361.93 142.274 362.282 143.399C362.609 144.443 361.929 145.583 361.398 146.432C360.111 148.49 358.247 150.257 356.431 151.847C351.209 156.421 344.798 158.84 337.918 159.438C333.03 159.862 326.597 157.609 324.789 163.748Z" fill="white" fill-opacity="0.18"/>
<path d="M398.707 211.499C418.297 218.563 439.779 210.641 450.88 193.456C455.404 186.453 458.768 178.039 455.891 169.682C451.847 157.938 436.905 153.391 427.327 161.422C425.798 162.705 424.254 164.392 423.323 166.167C419.595 173.275 419.977 182.514 427.304 187.247C429.169 188.452 431.364 189.174 433.511 189.649C434.492 189.866 435.849 190.025 436.2 191.15C436.527 192.193 435.847 193.334 435.316 194.182C434.029 196.241 432.165 198.007 430.349 199.598C425.127 204.172 418.717 206.591 411.837 207.188C406.948 207.613 400.515 205.36 398.707 211.499Z" fill="white" fill-opacity="0.18"/>
<path d="M472.625 259.249C492.215 266.314 513.697 258.391 524.798 241.206C529.322 234.204 532.686 225.789 529.809 217.433C525.765 205.688 510.823 201.142 501.245 209.173C499.716 210.455 498.173 212.142 497.241 213.918C493.513 221.025 493.895 230.264 501.223 234.998C503.087 236.203 505.282 236.925 507.429 237.4C508.41 237.617 509.767 237.775 510.118 238.9C510.445 239.944 509.766 241.084 509.235 241.933C507.947 243.991 506.083 245.757 504.267 247.348C499.045 251.922 492.635 254.341 485.755 254.939C480.866 255.363 474.433 253.11 472.625 259.249Z" fill="white" fill-opacity="0.18"/>
<path d="M546.543 307C566.133 314.064 587.615 306.141 598.716 288.957C603.24 281.954 606.605 273.54 603.727 265.183C599.683 253.439 584.742 248.892 575.163 256.923C573.634 258.206 572.091 259.893 571.159 261.668C567.431 268.776 567.813 278.015 575.141 282.748C577.005 283.953 579.2 284.675 581.348 285.15C582.328 285.367 583.685 285.526 584.036 286.651C584.363 287.694 583.684 288.835 583.153 289.683C581.865 291.742 580.001 293.508 578.185 295.099C572.963 299.673 566.553 302.092 559.673 302.689C554.784 303.114 548.351 300.861 546.543 307Z" fill="white" fill-opacity="0.18"/>
<path d="M620.461 354.75C640.051 361.815 661.533 353.892 672.635 336.707C677.158 329.705 680.523 321.29 677.645 312.934C673.601 301.189 658.66 296.643 649.081 304.674C647.552 305.956 646.009 307.643 645.078 309.418C641.349 316.526 641.731 325.765 649.059 330.499C650.923 331.704 653.118 332.426 655.266 332.901C656.246 333.118 657.603 333.276 657.954 334.401C658.281 335.445 657.602 336.585 657.071 337.434C655.784 339.492 653.919 341.258 652.104 342.849C646.881 347.423 640.471 349.842 633.591 350.44C628.702 350.864 622.269 348.611 620.461 354.75Z" fill="white" fill-opacity="0.18"/>
<path d="M694.38 402.501C713.97 409.565 735.451 401.642 746.553 384.458C751.076 377.455 754.441 369.041 751.563 360.684C747.519 348.94 732.578 344.393 722.999 352.424C721.47 353.707 719.927 355.394 718.996 357.169C715.267 364.277 715.65 373.516 722.977 378.249C724.841 379.454 727.037 380.176 729.184 380.651C730.164 380.868 731.521 381.027 731.873 382.152C732.199 383.195 731.52 384.336 730.989 385.184C729.702 387.243 727.838 389.009 726.022 390.6C720.8 395.174 714.389 397.593 707.509 398.19C702.62 398.615 696.187 396.362 694.38 402.501Z" fill="white" fill-opacity="0.18"/>
<path d="M768.298 450.251C787.888 457.316 809.37 449.393 820.471 432.208C824.994 425.206 828.359 416.791 825.482 408.435C821.437 396.69 806.496 392.144 796.917 400.175C795.388 401.457 793.845 403.144 792.914 404.919C789.185 412.027 789.568 421.266 796.895 426C798.759 427.205 800.955 427.927 803.102 428.402C804.083 428.619 805.439 428.777 805.791 429.902C806.117 430.946 805.438 432.086 804.907 432.935C803.62 434.993 801.756 436.759 799.94 438.35C794.718 442.924 788.307 445.343 781.427 445.941C776.538 446.365 770.105 444.112 768.298 450.251Z" fill="white" fill-opacity="0.18"/>
<path d="M842.216 498.002C861.806 505.066 883.288 497.143 894.389 479.958C898.912 472.956 902.277 464.542 899.4 456.185C895.356 444.441 880.414 439.894 870.835 447.925C869.306 449.208 867.763 450.895 866.832 452.67C863.103 459.778 863.486 469.016 870.813 473.75C872.678 474.955 874.873 475.677 877.02 476.152C878.001 476.369 879.357 476.528 879.709 477.652C880.035 478.696 879.356 479.836 878.825 480.685C877.538 482.744 875.674 484.51 873.858 486.101C868.636 490.675 862.225 493.094 855.345 493.691C850.457 494.116 844.024 491.863 842.216 498.002Z" fill="white" fill-opacity="0.18"/>
<path d="M916.134 545.752C935.724 552.817 957.206 544.894 968.307 527.709C972.83 520.707 976.195 512.292 973.318 503.936C969.274 492.191 954.332 487.645 944.754 495.676C943.224 496.958 941.681 498.645 940.75 500.42C937.022 507.528 937.404 516.767 944.731 521.501C946.596 522.706 948.791 523.428 950.938 523.903C951.919 524.12 953.276 524.278 953.627 525.403C953.954 526.447 953.274 527.587 952.743 528.435C951.456 530.494 949.592 532.26 947.776 533.851C942.554 538.425 936.143 540.844 929.264 541.442C924.375 541.866 917.942 539.613 916.134 545.752Z" fill="white" fill-opacity="0.18"/>
<path d="M990.052 593.503C1009.64 600.567 1031.12 592.644 1042.23 575.459C1046.75 568.457 1050.11 560.042 1047.24 551.686C1043.19 539.942 1028.25 535.395 1018.67 543.426C1017.14 544.709 1015.6 546.396 1014.67 548.171C1010.94 555.279 1011.32 564.517 1018.65 569.251C1020.51 570.456 1022.71 571.178 1024.86 571.653C1025.84 571.87 1027.19 572.029 1027.55 573.153C1027.87 574.197 1027.19 575.337 1026.66 576.186C1025.37 578.245 1023.51 580.011 1021.69 581.602C1016.47 586.176 1010.06 588.595 1003.18 589.192C998.293 589.617 991.86 587.363 990.052 593.503Z" fill="white" fill-opacity="0.18"/>
<path d="M1063.97 641.253C1083.56 648.318 1105.04 640.395 1116.14 623.21C1120.67 616.208 1124.03 607.793 1121.15 599.437C1117.11 587.692 1102.17 583.146 1092.59 591.177C1091.06 592.459 1089.52 594.146 1088.59 595.921C1084.86 603.029 1085.24 612.268 1092.57 617.002C1094.43 618.207 1096.63 618.929 1098.77 619.404C1099.76 619.621 1101.11 619.779 1101.46 620.904C1101.79 621.948 1101.11 623.088 1100.58 623.936C1099.29 625.995 1097.43 627.761 1095.61 629.352C1090.39 633.926 1083.98 636.345 1077.1 636.943C1072.21 637.367 1065.78 635.114 1063.97 641.253Z" fill="white" fill-opacity="0.18"/>
<path d="M1137.89 689.004C1157.48 696.068 1178.96 688.145 1190.06 670.96C1194.58 663.958 1197.95 655.543 1195.07 647.187C1191.03 635.443 1176.09 630.896 1166.51 638.927C1164.98 640.21 1163.44 641.897 1162.5 643.672C1158.78 650.78 1159.16 660.018 1166.49 664.752C1168.35 665.957 1170.55 666.679 1172.69 667.154C1173.67 667.371 1175.03 667.53 1175.38 668.654C1175.71 669.698 1175.03 670.838 1174.5 671.687C1173.21 673.746 1171.35 675.512 1169.53 677.102C1164.31 681.677 1157.9 684.096 1151.02 684.693C1146.13 685.117 1139.7 682.864 1137.89 689.004Z" fill="white" fill-opacity="0.18"/>
<path d="M1211.81 736.754C1231.4 743.819 1252.88 735.896 1263.98 718.711C1268.5 711.709 1271.87 703.294 1268.99 694.938C1264.95 683.193 1250 678.647 1240.43 686.678C1238.9 687.96 1237.35 689.647 1236.42 691.422C1232.69 698.53 1233.08 707.769 1240.4 712.503C1242.27 713.708 1244.46 714.43 1246.61 714.905C1247.59 715.122 1248.95 715.28 1249.3 716.405C1249.63 717.449 1248.95 718.589 1248.42 719.437C1247.13 721.496 1245.26 723.262 1243.45 724.853C1238.23 729.427 1231.82 731.846 1224.94 732.444C1220.05 732.868 1213.61 730.615 1211.81 736.754Z" fill="white" fill-opacity="0.18"/>
<path d="M1285.72 784.505C1305.31 791.569 1326.8 783.646 1337.9 766.461C1342.42 759.459 1345.79 751.044 1342.91 742.688C1338.86 730.944 1323.92 726.397 1314.34 734.428C1312.82 735.71 1311.27 737.398 1310.34 739.173C1306.61 746.281 1306.99 755.519 1314.32 760.253C1316.19 761.458 1318.38 762.18 1320.53 762.655C1321.51 762.872 1322.87 763.031 1323.22 764.155C1323.54 765.199 1322.86 766.339 1322.33 767.188C1321.05 769.247 1319.18 771.013 1317.37 772.603C1312.14 777.178 1305.73 779.597 1298.85 780.194C1293.97 780.618 1287.53 778.365 1285.72 784.505Z" fill="white" fill-opacity="0.18"/>
<path d="M1359.64 832.255C1379.23 839.32 1400.71 831.397 1411.82 814.212C1416.34 807.21 1419.7 798.795 1416.83 790.439C1412.78 778.694 1397.84 774.148 1388.26 782.179C1386.73 783.461 1385.19 785.148 1384.26 786.923C1380.53 794.031 1380.91 803.27 1388.24 808.004C1390.1 809.209 1392.3 809.931 1394.45 810.406C1395.43 810.623 1396.78 810.781 1397.14 811.906C1397.46 812.95 1396.78 814.09 1396.25 814.938C1394.96 816.997 1393.1 818.763 1391.28 820.354C1386.06 824.928 1379.65 827.347 1372.77 827.945C1367.88 828.369 1361.45 826.116 1359.64 832.255Z" fill="white" fill-opacity="0.18"/>
<path d="M1433.56 880.006C1453.15 887.07 1474.63 879.147 1485.73 861.962C1490.26 854.96 1493.62 846.545 1490.74 838.189C1486.7 826.445 1471.76 821.898 1462.18 829.929C1460.65 831.211 1459.11 832.899 1458.18 834.674C1454.45 841.782 1454.83 851.02 1462.16 855.754C1464.02 856.959 1466.22 857.681 1468.37 858.156C1469.35 858.373 1470.7 858.532 1471.05 859.656C1471.38 860.7 1470.7 861.84 1470.17 862.689C1468.88 864.748 1467.02 866.514 1465.2 868.104C1459.98 872.679 1453.57 875.098 1446.69 875.695C1441.8 876.119 1435.37 873.866 1433.56 880.006Z" fill="white" fill-opacity="0.18"/>
<path d="M1507.48 927.756C1527.07 934.821 1548.55 926.898 1559.65 909.713C1564.18 902.711 1567.54 894.296 1564.66 885.94C1560.62 874.195 1545.68 869.649 1536.1 877.68C1534.57 878.962 1533.03 880.649 1532.1 882.424C1528.37 889.532 1528.75 898.771 1536.08 903.505C1537.94 904.709 1540.14 905.432 1542.28 905.907C1543.26 906.124 1544.62 906.282 1544.97 907.407C1545.3 908.451 1544.62 909.591 1544.09 910.439C1542.8 912.498 1540.94 914.264 1539.12 915.855C1533.9 920.429 1527.49 922.848 1520.61 923.446C1515.72 923.87 1509.29 921.617 1507.48 927.756Z" fill="white" fill-opacity="0.18"/>
<path d="M1581.4 975.507C1600.99 982.571 1622.47 974.648 1633.57 957.463C1638.09 950.461 1641.46 942.046 1638.58 933.69C1634.54 921.946 1619.6 917.399 1610.02 925.43C1608.49 926.712 1606.94 928.4 1606.01 930.175C1602.28 937.282 1602.67 946.521 1609.99 951.255C1611.86 952.46 1614.05 953.182 1616.2 953.657C1617.18 953.874 1618.54 954.033 1618.89 955.157C1619.22 956.201 1618.54 957.341 1618.01 958.19C1616.72 960.249 1614.86 962.015 1613.04 963.605C1607.82 968.179 1601.41 970.599 1594.53 971.196C1589.64 971.62 1583.2 969.367 1581.4 975.507Z" fill="white" fill-opacity="0.18"/>
<path d="M259.675 264.546C279.264 271.61 300.746 263.688 311.848 246.503C316.371 239.5 319.736 231.086 316.858 222.729C312.814 210.985 297.873 206.438 288.294 214.469C286.765 215.752 285.222 217.439 284.291 219.214C280.562 226.322 280.945 235.561 288.272 240.294C290.136 241.499 292.332 242.221 294.479 242.696C295.459 242.913 296.816 243.072 297.168 244.197C297.494 245.24 296.815 246.381 296.284 247.229C294.997 249.288 293.133 251.054 291.317 252.645C286.095 257.219 279.684 259.638 272.804 260.235C267.915 260.66 261.482 258.407 259.675 264.546Z" fill="white" fill-opacity="0.16"/>
<path d="M333.593 312.296C353.183 319.361 374.665 311.438 385.766 294.253C390.289 287.251 393.654 278.836 390.777 270.48C386.733 258.735 371.791 254.189 362.212 262.22C360.683 263.502 359.14 265.189 358.209 266.965C354.48 274.072 354.863 283.311 362.19 288.045C364.054 289.25 366.25 289.972 368.397 290.447C369.378 290.664 370.734 290.822 371.086 291.947C371.412 292.991 370.733 294.131 370.202 294.98C368.915 297.038 367.051 298.804 365.235 300.395C360.013 304.969 353.602 307.388 346.722 307.986C341.833 308.41 335.401 306.157 333.593 312.296Z" fill="white" fill-opacity="0.16"/>
<path d="M407.511 360.047C427.101 367.111 448.583 359.188 459.684 342.004C464.207 335.001 467.572 326.587 464.695 318.23C460.651 306.486 445.709 301.939 436.13 309.97C434.601 311.253 433.058 312.94 432.127 314.715C428.398 321.823 428.781 331.062 436.108 335.795C437.973 337 440.168 337.722 442.315 338.197C443.296 338.414 444.652 338.573 445.004 339.698C445.33 340.741 444.651 341.882 444.12 342.73C442.833 344.789 440.969 346.555 439.153 348.146C433.931 352.72 427.52 355.139 420.64 355.736C415.752 356.161 409.319 353.908 407.511 360.047Z" fill="white" fill-opacity="0.16"/>
<path d="M481.429 407.797C501.019 414.862 522.501 406.939 533.602 389.754C538.125 382.752 541.49 374.337 538.613 365.981C534.569 354.236 519.627 349.69 510.049 357.721C508.519 359.003 506.976 360.69 506.045 362.465C502.317 369.573 502.699 378.812 510.026 383.546C511.891 384.751 514.086 385.473 516.233 385.948C517.214 386.165 518.571 386.323 518.922 387.448C519.249 388.492 518.569 389.632 518.038 390.481C516.751 392.539 514.887 394.305 513.071 395.896C507.849 400.47 501.438 402.889 494.559 403.487C489.67 403.911 483.237 401.658 481.429 407.797Z" fill="white" fill-opacity="0.16"/>
<path d="M555.347 455.548C574.937 462.612 596.419 454.689 607.52 437.505C612.044 430.502 615.408 422.088 612.531 413.731C608.487 401.987 593.545 397.44 583.967 405.471C582.438 406.754 580.894 408.441 579.963 410.216C576.235 417.324 576.617 426.562 583.944 431.296C585.809 432.501 588.004 433.223 590.151 433.698C591.132 433.915 592.489 434.074 592.84 435.198C593.167 436.242 592.487 437.383 591.957 438.231C590.669 440.29 588.805 442.056 586.989 443.647C581.767 448.221 575.357 450.64 568.477 451.237C563.588 451.662 557.155 449.409 555.347 455.548Z" fill="white" fill-opacity="0.16"/>
<path d="M629.265 503.298C648.855 510.363 670.337 502.44 681.438 485.255C685.962 478.253 689.327 469.838 686.449 461.482C682.405 449.737 667.464 445.191 657.885 453.222C656.356 454.504 654.813 456.191 653.881 457.966C650.153 465.074 650.535 474.313 657.863 479.047C659.727 480.252 661.922 480.974 664.07 481.449C665.05 481.666 666.407 481.824 666.758 482.949C667.085 483.993 666.406 485.133 665.875 485.982C664.587 488.04 662.723 489.806 660.907 491.397C655.685 495.971 649.275 498.39 642.395 498.988C637.506 499.412 631.073 497.159 629.265 503.298Z" fill="white" fill-opacity="0.16"/>
<path d="M703.183 551.049C722.773 558.113 744.255 550.19 755.357 533.005C759.88 526.003 763.245 517.588 760.367 509.232C756.323 497.488 741.382 492.941 731.803 500.972C730.274 502.255 728.731 503.942 727.8 505.717C724.071 512.825 724.453 522.063 731.781 526.797C733.645 528.002 735.84 528.724 737.988 529.199C738.968 529.416 740.325 529.575 740.676 530.699C741.003 531.743 740.324 532.883 739.793 533.732C738.505 535.791 736.641 537.557 734.825 539.148C729.603 543.722 723.193 546.141 716.313 546.738C711.424 547.163 704.991 544.91 703.183 551.049Z" fill="white" fill-opacity="0.16"/>
<path d="M777.102 598.799C796.691 605.864 818.173 597.941 829.275 580.756C833.798 573.754 837.163 565.339 834.285 556.983C830.241 545.238 815.3 540.692 805.721 548.723C804.192 550.005 802.649 551.692 801.718 553.467C797.989 560.575 798.372 569.814 805.699 574.548C807.563 575.753 809.758 576.475 811.906 576.95C812.886 577.167 814.243 577.325 814.595 578.45C814.921 579.494 814.242 580.634 813.711 581.482C812.424 583.541 810.56 585.307 808.744 586.898C803.522 591.472 797.111 593.891 790.231 594.489C785.342 594.913 778.909 592.66 777.102 598.799Z" fill="white" fill-opacity="0.16"/>
<path d="M851.02 646.55C870.61 653.614 892.092 645.691 903.193 628.506C907.716 621.504 911.081 613.089 908.204 604.733C904.159 592.989 889.218 588.442 879.639 596.473C878.11 597.756 876.567 599.443 875.636 601.218C871.907 608.326 872.29 617.564 879.617 622.298C881.481 623.503 883.677 624.225 885.824 624.7C886.805 624.917 888.161 625.076 888.513 626.2C888.839 627.244 888.16 628.384 887.629 629.233C886.342 631.292 884.478 633.058 882.662 634.649C877.44 639.223 871.029 641.642 864.149 642.239C859.26 642.664 852.827 640.41 851.02 646.55Z" fill="white" fill-opacity="0.16"/>
<path d="M924.938 694.3C944.528 701.365 966.01 693.442 977.111 676.257C981.634 669.255 984.999 660.84 982.122 652.484C978.078 640.739 963.136 636.193 953.557 644.224C952.028 645.506 950.485 647.193 949.554 648.968C945.825 656.076 946.208 665.315 953.535 670.049C955.4 671.254 957.595 671.976 959.742 672.451C960.723 672.668 962.079 672.826 962.431 673.951C962.757 674.995 962.078 676.135 961.547 676.983C960.26 679.042 958.396 680.808 956.58 682.399C951.358 686.973 944.947 689.392 938.067 689.99C933.178 690.414 926.746 688.161 924.938 694.3Z" fill="white" fill-opacity="0.16"/>
<path d="M998.856 742.051C1018.45 749.115 1039.93 741.192 1051.03 724.007C1055.55 717.005 1058.92 708.59 1056.04 700.234C1052 688.49 1037.05 683.943 1027.48 691.974C1025.95 693.257 1024.4 694.944 1023.47 696.719C1019.74 703.827 1020.13 713.065 1027.45 717.799C1029.32 719.004 1031.51 719.726 1033.66 720.201C1034.64 720.418 1036 720.577 1036.35 721.701C1036.68 722.745 1036 723.885 1035.47 724.734C1034.18 726.793 1032.31 728.559 1030.5 730.15C1025.28 734.724 1018.87 737.143 1011.99 737.74C1007.1 738.165 1000.66 735.911 998.856 742.051Z" fill="white" fill-opacity="0.16"/>
<path d="M1072.77 789.801C1092.36 796.866 1113.85 788.943 1124.95 771.758C1129.47 764.756 1132.84 756.341 1129.96 747.985C1125.91 736.24 1110.97 731.694 1101.39 739.725C1099.86 741.007 1098.32 742.694 1097.39 744.469C1093.66 751.577 1094.04 760.816 1101.37 765.55C1103.24 766.755 1105.43 767.477 1107.58 767.952C1108.56 768.169 1109.92 768.327 1110.27 769.452C1110.59 770.496 1109.91 771.636 1109.38 772.484C1108.1 774.543 1106.23 776.309 1104.42 777.9C1099.19 782.474 1092.78 784.893 1085.9 785.491C1081.01 785.915 1074.58 783.662 1072.77 789.801Z" fill="white" fill-opacity="0.16"/>
<path d="M1146.69 837.552C1166.28 844.616 1187.76 836.693 1198.87 819.508C1203.39 812.506 1206.75 804.091 1203.88 795.735C1199.83 783.991 1184.89 779.444 1175.31 787.475C1173.78 788.757 1172.24 790.445 1171.31 792.22C1167.58 799.328 1167.96 808.566 1175.29 813.3C1177.15 814.505 1179.35 815.227 1181.5 815.702C1182.48 815.919 1183.83 816.078 1184.19 817.202C1184.51 818.246 1183.83 819.386 1183.3 820.235C1182.01 822.294 1180.15 824.06 1178.33 825.65C1173.11 830.225 1166.7 832.644 1159.82 833.241C1154.93 833.665 1148.5 831.412 1146.69 837.552Z" fill="white" fill-opacity="0.16"/>
<path d="M1220.61 885.302C1240.2 892.367 1261.68 884.444 1272.78 867.259C1277.31 860.257 1280.67 851.842 1277.79 843.486C1273.75 831.741 1258.81 827.195 1249.23 835.226C1247.7 836.508 1246.16 838.195 1245.23 839.97C1241.5 847.078 1241.88 856.317 1249.21 861.051C1251.07 862.256 1253.27 862.978 1255.41 863.453C1256.4 863.67 1257.75 863.828 1258.1 864.953C1258.43 865.997 1257.75 867.137 1257.22 867.985C1255.93 870.044 1254.07 871.81 1252.25 873.401C1247.03 877.975 1240.62 880.394 1233.74 880.992C1228.85 881.416 1222.42 879.163 1220.61 885.302Z" fill="white" fill-opacity="0.16"/>
<path d="M1294.53 933.053C1314.12 940.117 1335.6 932.194 1346.7 915.009C1351.22 908.007 1354.59 899.592 1351.71 891.236C1347.67 879.492 1332.73 874.945 1323.15 882.976C1321.62 884.258 1320.08 885.946 1319.14 887.721C1315.42 894.829 1315.8 904.067 1323.13 908.801C1324.99 910.006 1327.19 910.728 1329.33 911.203C1330.31 911.42 1331.67 911.579 1332.02 912.703C1332.35 913.747 1331.67 914.887 1331.14 915.736C1329.85 917.795 1327.99 919.561 1326.17 921.151C1320.95 925.725 1314.54 928.145 1307.66 928.742C1302.77 929.166 1296.34 926.913 1294.53 933.053Z" fill="white" fill-opacity="0.16"/>
<path d="M1368.45 980.803C1388.04 987.868 1409.52 979.945 1420.62 962.76C1425.14 955.758 1428.51 947.343 1425.63 938.987C1421.59 927.242 1406.64 922.696 1397.07 930.727C1395.54 932.009 1393.99 933.696 1393.06 935.471C1389.33 942.579 1389.72 951.818 1397.04 956.552C1398.91 957.756 1401.1 958.479 1403.25 958.954C1404.23 959.171 1405.59 959.329 1405.94 960.454C1406.27 961.498 1405.59 962.638 1405.06 963.486C1403.77 965.545 1401.9 967.311 1400.09 968.902C1394.87 973.476 1388.46 975.895 1381.58 976.492C1376.69 976.917 1370.25 974.664 1368.45 980.803Z" fill="white" fill-opacity="0.16"/>
<path d="M1442.36 1028.55C1461.95 1035.62 1483.44 1027.7 1494.54 1010.51C1499.06 1003.51 1502.43 995.093 1499.55 986.737C1495.5 974.993 1480.56 970.446 1470.98 978.477C1469.46 979.759 1467.91 981.447 1466.98 983.222C1463.25 990.329 1463.63 999.568 1470.96 1004.3C1472.83 1005.51 1475.02 1006.23 1477.17 1006.7C1478.15 1006.92 1479.51 1007.08 1479.86 1008.2C1480.18 1009.25 1479.51 1010.39 1478.97 1011.24C1477.69 1013.3 1475.82 1015.06 1474.01 1016.65C1468.78 1021.23 1462.37 1023.65 1455.49 1024.24C1450.61 1024.67 1444.17 1022.41 1442.36 1028.55Z" fill="white" fill-opacity="0.16"/>
<path d="M1516.28 1076.3C1535.87 1083.37 1557.35 1075.45 1568.46 1058.26C1572.98 1051.26 1576.34 1042.84 1573.47 1034.49C1569.42 1022.74 1554.48 1018.2 1544.9 1026.23C1543.37 1027.51 1541.83 1029.2 1540.9 1030.97C1537.17 1038.08 1537.55 1047.32 1544.88 1052.05C1546.74 1053.26 1548.94 1053.98 1551.09 1054.45C1552.07 1054.67 1553.42 1054.83 1553.78 1055.95C1554.1 1057 1553.42 1058.14 1552.89 1058.99C1551.6 1061.05 1549.74 1062.81 1547.92 1064.4C1542.7 1068.98 1536.29 1071.4 1529.41 1071.99C1524.52 1072.42 1518.09 1070.16 1516.28 1076.3Z" fill="white" fill-opacity="0.16"/>
<path d="M194.56 365.343C214.15 372.408 235.632 364.485 246.734 347.3C251.257 340.298 254.622 331.883 251.744 323.527C247.7 311.782 232.759 307.236 223.18 315.267C221.651 316.549 220.108 318.236 219.176 320.011C215.448 327.119 215.83 336.358 223.158 341.092C225.022 342.297 227.217 343.019 229.365 343.494C230.345 343.711 231.702 343.869 232.053 344.994C232.38 346.038 231.701 347.178 231.17 348.026C229.882 350.085 228.018 351.851 226.202 353.442C220.98 358.016 214.57 360.435 207.69 361.033C202.801 361.457 196.368 359.204 194.56 365.343Z" fill="white" fill-opacity="0.14"/>
<path d="M268.479 413.094C288.068 420.158 309.55 412.235 320.652 395.05C325.175 388.048 328.54 379.633 325.662 371.277C321.618 359.533 306.677 354.986 297.098 363.017C295.569 364.3 294.026 365.987 293.095 367.762C289.366 374.87 289.748 384.108 297.076 388.842C298.94 390.047 301.135 390.769 303.283 391.244C304.263 391.461 305.62 391.62 305.971 392.744C306.298 393.788 305.619 394.928 305.088 395.777C303.801 397.836 301.936 399.602 300.121 401.193C294.898 405.767 288.488 408.186 281.608 408.783C276.719 409.208 270.286 406.954 268.479 413.094Z" fill="white" fill-opacity="0.14"/>
<path d="M342.397 460.844C361.986 467.909 383.468 459.986 394.57 442.801C399.093 435.799 402.458 427.384 399.58 419.028C395.536 407.283 380.595 402.737 371.016 410.768C369.487 412.05 367.944 413.737 367.013 415.512C363.284 422.62 363.667 431.859 370.994 436.593C372.858 437.798 375.053 438.52 377.201 438.995C378.181 439.212 379.538 439.37 379.89 440.495C380.216 441.539 379.537 442.679 379.006 443.527C377.719 445.586 375.855 447.352 374.039 448.943C368.817 453.517 362.406 455.936 355.526 456.534C350.637 456.958 344.204 454.705 342.397 460.844Z" fill="white" fill-opacity="0.14"/>
<path d="M416.315 508.595C435.905 515.659 457.387 507.736 468.488 490.551C473.011 483.549 476.376 475.134 473.499 466.778C469.454 455.034 454.513 450.487 444.934 458.518C443.405 459.801 441.862 461.488 440.931 463.263C437.202 470.371 437.585 479.609 444.912 484.343C446.776 485.548 448.972 486.27 451.119 486.745C452.1 486.962 453.456 487.121 453.808 488.245C454.134 489.289 453.455 490.429 452.924 491.278C451.637 493.337 449.773 495.103 447.957 496.694C442.735 501.268 436.324 503.687 429.444 504.284C424.555 504.709 418.122 502.455 416.315 508.595Z" fill="white" fill-opacity="0.14"/>
<path d="M490.233 556.345C509.823 563.41 531.305 555.487 542.406 538.302C546.929 531.3 550.294 522.885 547.417 514.529C543.373 502.784 528.431 498.238 518.853 506.269C517.323 507.551 515.78 509.238 514.849 511.013C511.121 518.121 511.503 527.36 518.83 532.094C520.695 533.299 522.89 534.021 525.037 534.496C526.018 534.713 527.374 534.871 527.726 535.996C528.053 537.04 527.373 538.18 526.842 539.028C525.555 541.087 523.691 542.853 521.875 544.444C516.653 549.018 510.242 551.437 503.362 552.035C498.474 552.459 492.041 550.206 490.233 556.345Z" fill="white" fill-opacity="0.14"/>
<path d="M564.151 604.096C583.741 611.16 605.223 603.237 616.324 586.052C620.847 579.05 624.212 570.635 621.335 562.279C617.291 550.535 602.349 545.988 592.771 554.019C591.241 555.302 589.698 556.989 588.767 558.764C585.039 565.872 585.421 575.11 592.748 579.844C594.613 581.049 596.808 581.771 598.955 582.246C599.936 582.463 601.293 582.622 601.644 583.746C601.971 584.79 601.291 585.93 600.76 586.779C599.473 588.838 597.609 590.604 595.793 592.195C590.571 596.769 584.16 599.188 577.281 599.785C572.392 600.21 565.959 597.956 564.151 604.096Z" fill="white" fill-opacity="0.14"/>
<path d="M638.069 651.846C657.659 658.911 679.141 650.988 690.242 633.803C694.766 626.801 698.13 618.386 695.253 610.03C691.209 598.285 676.267 593.739 666.689 601.77C665.16 603.052 663.616 604.739 662.685 606.514C658.957 613.622 659.339 622.861 666.666 627.595C668.531 628.8 670.726 629.522 672.873 629.997C673.854 630.214 675.211 630.372 675.562 631.497C675.889 632.541 675.209 633.681 674.679 634.529C673.391 636.588 671.527 638.354 669.711 639.945C664.489 644.519 658.079 646.938 651.199 647.536C646.31 647.96 639.877 645.707 638.069 651.846Z" fill="white" fill-opacity="0.14"/>
<path d="M711.987 699.597C731.577 706.661 753.059 698.738 764.16 681.553C768.684 674.551 772.049 666.136 769.171 657.78C765.127 646.036 750.186 641.489 740.607 649.52C739.078 650.802 737.535 652.49 736.603 654.265C732.875 661.373 733.257 670.611 740.585 675.345C742.449 676.55 744.644 677.272 746.792 677.747C747.772 677.964 749.129 678.123 749.48 679.247C749.807 680.291 749.128 681.431 748.597 682.28C747.309 684.339 745.445 686.105 743.629 687.695C738.407 692.27 731.997 694.689 725.117 695.286C720.228 695.71 713.795 693.457 711.987 699.597Z" fill="white" fill-opacity="0.14"/>
<path d="M785.905 747.347C805.495 754.412 826.977 746.489 838.079 729.304C842.602 722.302 845.967 713.887 843.089 705.531C839.045 693.786 824.104 689.24 814.525 697.271C812.996 698.553 811.453 700.24 810.522 702.015C806.793 709.123 807.175 718.362 814.503 723.096C816.367 724.301 818.562 725.023 820.71 725.498C821.69 725.715 823.047 725.873 823.398 726.998C823.725 728.042 823.046 729.182 822.515 730.03C821.228 732.089 819.363 733.855 817.547 735.446C812.325 740.02 805.915 742.439 799.035 743.037C794.146 743.461 787.713 741.208 785.905 747.347Z" fill="white" fill-opacity="0.14"/>
<path d="M859.824 795.098C879.413 802.162 900.895 794.239 911.997 777.054C916.52 770.052 919.885 761.637 917.007 753.281C912.963 741.537 898.022 736.99 888.443 745.021C886.914 746.303 885.371 747.991 884.44 749.766C880.711 756.873 881.094 766.112 888.421 770.846C890.285 772.051 892.48 772.773 894.628 773.248C895.608 773.465 896.965 773.624 897.317 774.748C897.643 775.792 896.964 776.932 896.433 777.781C895.146 779.84 893.282 781.606 891.466 783.196C886.244 787.77 879.833 790.19 872.953 790.787C868.064 791.211 861.631 788.958 859.824 795.098Z" fill="white" fill-opacity="0.14"/>
<path d="M933.742 842.848C953.332 849.913 974.814 841.99 985.915 824.805C990.438 817.803 993.803 809.388 990.926 801.032C986.881 789.287 971.94 784.741 962.361 792.772C960.832 794.054 959.289 795.741 958.358 797.516C954.629 804.624 955.012 813.863 962.339 818.597C964.203 819.801 966.399 820.524 968.546 820.999C969.527 821.216 970.883 821.374 971.235 822.499C971.561 823.543 970.882 824.683 970.351 825.531C969.064 827.59 967.2 829.356 965.384 830.947C960.162 835.521 953.751 837.94 946.871 838.537C941.982 838.962 935.549 836.709 933.742 842.848Z" fill="white" fill-opacity="0.14"/>
<path d="M1007.66 890.599C1027.25 897.663 1048.73 889.74 1059.83 872.555C1064.36 865.553 1067.72 857.138 1064.84 848.782C1060.8 837.038 1045.86 832.491 1036.28 840.522C1034.75 841.804 1033.21 843.492 1032.28 845.267C1028.55 852.374 1028.93 861.613 1036.26 866.347C1038.12 867.552 1040.32 868.274 1042.46 868.749C1043.44 868.966 1044.8 869.125 1045.15 870.249C1045.48 871.293 1044.8 872.433 1044.27 873.282C1042.98 875.341 1041.12 877.107 1039.3 878.697C1034.08 883.271 1027.67 885.691 1020.79 886.288C1015.9 886.712 1009.47 884.459 1007.66 890.599Z" fill="white" fill-opacity="0.14"/>
<path d="M1081.58 938.349C1101.17 945.414 1122.65 937.491 1133.75 920.306C1138.27 913.304 1141.64 904.889 1138.76 896.533C1134.72 884.788 1119.78 880.241 1110.2 888.273C1108.67 889.555 1107.13 891.242 1106.19 893.017C1102.47 900.125 1102.85 909.364 1110.18 914.098C1112.04 915.302 1114.23 916.025 1116.38 916.5C1117.36 916.717 1118.72 916.875 1119.07 918C1119.4 919.044 1118.72 920.184 1118.19 921.032C1116.9 923.091 1115.04 924.857 1113.22 926.448C1108 931.022 1101.59 933.441 1094.71 934.038C1089.82 934.463 1083.39 932.21 1081.58 938.349Z" fill="white" fill-opacity="0.14"/>
<path d="M1155.5 986.1C1175.09 993.164 1196.57 985.241 1207.67 968.056C1212.19 961.054 1215.56 952.639 1212.68 944.283C1208.64 932.538 1193.69 927.992 1184.12 936.023C1182.59 937.305 1181.04 938.993 1180.11 940.768C1176.38 947.875 1176.77 957.114 1184.09 961.848C1185.96 963.053 1188.15 963.775 1190.3 964.25C1191.28 964.467 1192.64 964.625 1192.99 965.75C1193.32 966.794 1192.64 967.934 1192.11 968.783C1190.82 970.842 1188.95 972.608 1187.14 974.198C1181.92 978.772 1175.51 981.191 1168.63 981.789C1163.74 982.213 1157.3 979.96 1155.5 986.1Z" fill="white" fill-opacity="0.14"/>
<path d="M1229.41 1033.85C1249 1040.91 1270.49 1032.99 1281.59 1015.81C1286.11 1008.8 1289.48 1000.39 1286.6 992.034C1282.55 980.289 1267.61 975.742 1258.03 983.774C1256.5 985.056 1254.96 986.743 1254.03 988.518C1250.3 995.626 1250.68 1004.86 1258.01 1009.6C1259.88 1010.8 1262.07 1011.53 1264.22 1012C1265.2 1012.22 1266.56 1012.38 1266.91 1013.5C1267.23 1014.54 1266.55 1015.68 1266.02 1016.53C1264.74 1018.59 1262.87 1020.36 1261.06 1021.95C1255.83 1026.52 1249.42 1028.94 1242.54 1029.54C1237.65 1029.96 1231.22 1027.71 1229.41 1033.85Z" fill="white" fill-opacity="0.14"/>
<path d="M1303.33 1081.6C1322.92 1088.67 1344.4 1080.74 1355.51 1063.56C1360.03 1056.56 1363.39 1048.14 1360.52 1039.78C1356.47 1028.04 1341.53 1023.49 1331.95 1031.52C1330.42 1032.81 1328.88 1034.49 1327.95 1036.27C1324.22 1043.38 1324.6 1052.62 1331.93 1057.35C1333.79 1058.55 1335.99 1059.28 1338.14 1059.75C1339.12 1059.97 1340.47 1060.13 1340.83 1061.25C1341.15 1062.29 1340.47 1063.44 1339.94 1064.28C1338.65 1066.34 1336.79 1068.11 1334.97 1069.7C1329.75 1074.27 1323.34 1076.69 1316.46 1077.29C1311.57 1077.71 1305.14 1075.46 1303.33 1081.6Z" fill="white" fill-opacity="0.14"/>
<path d="M1377.25 1129.35C1396.84 1136.42 1418.32 1128.49 1429.42 1111.31C1433.95 1104.31 1437.31 1095.89 1434.43 1087.53C1430.39 1075.79 1415.45 1071.24 1405.87 1079.27C1404.34 1080.56 1402.8 1082.24 1401.87 1084.02C1398.14 1091.13 1398.52 1100.37 1405.85 1105.1C1407.71 1106.3 1409.91 1107.03 1412.05 1107.5C1413.04 1107.72 1414.39 1107.88 1414.74 1109C1415.07 1110.05 1414.39 1111.19 1413.86 1112.03C1412.57 1114.09 1410.71 1115.86 1408.89 1117.45C1403.67 1122.02 1397.26 1124.44 1390.38 1125.04C1385.49 1125.46 1379.06 1123.21 1377.25 1129.35Z" fill="white" fill-opacity="0.14"/>
<path d="M1451.17 1177.1C1470.76 1184.17 1492.24 1176.24 1503.34 1159.06C1507.87 1152.06 1511.23 1143.64 1508.35 1135.29C1504.31 1123.54 1489.37 1118.99 1479.79 1127.03C1478.26 1128.31 1476.72 1129.99 1475.78 1131.77C1472.06 1138.88 1472.44 1148.12 1479.77 1152.85C1481.63 1154.05 1483.83 1154.78 1485.97 1155.25C1486.95 1155.47 1488.31 1155.63 1488.66 1156.75C1488.99 1157.8 1488.31 1158.94 1487.78 1159.78C1486.49 1161.84 1484.63 1163.61 1482.81 1165.2C1477.59 1169.77 1471.18 1172.19 1464.3 1172.79C1459.41 1173.22 1452.98 1170.96 1451.17 1177.1Z" fill="white" fill-opacity="0.14"/>
<path d="M129.446 466.141C149.036 473.205 170.518 465.282 181.619 448.097C186.143 441.095 189.507 432.68 186.63 424.324C182.586 412.58 167.644 408.033 158.066 416.064C156.537 417.347 154.993 419.034 154.062 420.809C150.334 427.917 150.716 437.155 158.043 441.889C159.908 443.094 162.103 443.816 164.25 444.291C165.231 444.508 166.588 444.667 166.939 445.791C167.266 446.835 166.586 447.975 166.056 448.824C164.768 450.883 162.904 452.649 161.088 454.24C155.866 458.814 149.456 461.233 142.576 461.83C137.687 462.255 131.254 460.001 129.446 466.141Z" fill="white" fill-opacity="0.12"/>
<path d="M203.364 513.891C222.954 520.956 244.436 513.033 255.537 495.848C260.061 488.846 263.426 480.431 260.548 472.075C256.504 460.33 241.563 455.784 231.984 463.815C230.455 465.097 228.912 466.784 227.98 468.559C224.252 475.667 224.634 484.906 231.962 489.64C233.826 490.845 236.021 491.567 238.169 492.042C239.149 492.259 240.506 492.417 240.857 493.542C241.184 494.586 240.505 495.726 239.974 496.574C238.686 498.633 236.822 500.399 235.006 501.99C229.784 506.564 223.374 508.983 216.494 509.581C211.605 510.005 205.172 507.752 203.364 513.891Z" fill="white" fill-opacity="0.12"/>
<path d="M277.282 561.642C296.872 568.706 318.354 560.783 329.455 543.598C333.979 536.596 337.344 528.181 334.466 519.825C330.422 508.081 315.481 503.534 305.902 511.565C304.373 512.848 302.83 514.535 301.898 516.31C298.17 523.418 298.552 532.656 305.88 537.39C307.744 538.595 309.939 539.317 312.087 539.792C313.067 540.009 314.424 540.168 314.775 541.292C315.102 542.336 314.423 543.476 313.892 544.325C312.604 546.384 310.74 548.15 308.924 549.741C303.702 554.315 297.292 556.734 290.412 557.331C285.523 557.756 279.09 555.502 277.282 561.642Z" fill="white" fill-opacity="0.12"/>
<path d="M351.2 609.392C370.79 616.457 392.272 608.534 403.374 591.349C407.897 584.347 411.262 575.932 408.384 567.576C404.34 555.831 389.399 551.285 379.82 559.316C378.291 560.598 376.748 562.285 375.817 564.06C372.088 571.168 372.47 580.407 379.798 585.141C381.662 586.346 383.857 587.068 386.005 587.543C386.985 587.76 388.342 587.918 388.693 589.043C389.02 590.087 388.341 591.227 387.81 592.075C386.523 594.134 384.658 595.9 382.843 597.491C377.62 602.065 371.21 604.484 364.33 605.082C359.441 605.506 353.008 603.253 351.2 609.392Z" fill="white" fill-opacity="0.12"/>
<path d="M425.119 657.143C444.709 664.207 466.19 656.284 477.292 639.099C481.815 632.097 485.18 623.682 482.302 615.326C478.258 603.582 463.317 599.035 453.738 607.066C452.209 608.349 450.666 610.036 449.735 611.811C446.006 618.919 446.389 628.157 453.716 632.891C455.58 634.096 457.776 634.818 459.923 635.293C460.903 635.51 462.26 635.669 462.612 636.793C462.938 637.837 462.259 638.977 461.728 639.826C460.441 641.885 458.577 643.651 456.761 645.242C451.539 649.816 445.128 652.235 438.248 652.832C433.359 653.256 426.926 651.003 425.119 657.143Z" fill="white" fill-opacity="0.12"/>
<path d="M499.037 704.893C518.627 711.958 540.109 704.035 551.21 686.85C555.733 679.848 559.098 671.433 556.221 663.077C552.177 651.332 537.235 646.786 527.656 654.817C526.127 656.099 524.584 657.786 523.653 659.561C519.924 666.669 520.307 675.908 527.634 680.642C529.498 681.847 531.694 682.569 533.841 683.044C534.822 683.261 536.178 683.419 536.53 684.544C536.856 685.588 536.177 686.728 535.646 687.576C534.359 689.635 532.495 691.401 530.679 692.992C525.457 697.566 519.046 699.985 512.166 700.583C507.277 701.007 500.845 698.754 499.037 704.893Z" fill="white" fill-opacity="0.12"/>
<path d="M572.955 752.644C592.545 759.708 614.027 751.785 625.128 734.6C629.651 727.598 633.016 719.183 630.139 710.827C626.095 699.083 611.153 694.536 601.575 702.567C600.045 703.849 598.502 705.537 597.571 707.312C593.843 714.42 594.225 723.658 601.552 728.392C603.417 729.597 605.612 730.319 607.759 730.794C608.74 731.011 610.096 731.17 610.448 732.294C610.775 733.338 610.095 734.478 609.564 735.327C608.277 737.386 606.413 739.152 604.597 740.742C599.375 745.317 592.964 747.736 586.084 748.333C581.196 748.757 574.763 746.504 572.955 752.644Z" fill="white" fill-opacity="0.12"/>
<path d="M646.873 800.394C666.463 807.459 687.945 799.536 699.046 782.351C703.569 775.349 706.934 766.934 704.057 758.578C700.013 746.833 685.071 742.287 675.493 750.318C673.963 751.6 672.42 753.287 671.489 755.062C667.761 762.17 668.143 771.409 675.47 776.143C677.335 777.348 679.53 778.07 681.677 778.545C682.658 778.762 684.015 778.92 684.366 780.045C684.693 781.089 684.013 782.229 683.482 783.077C682.195 785.136 680.331 786.902 678.515 788.493C673.293 793.067 666.882 795.486 660.003 796.084C655.114 796.508 648.681 794.255 646.873 800.394Z" fill="white" fill-opacity="0.12"/>
<path d="M720.791 848.145C740.381 855.209 761.863 847.286 772.964 830.101C777.488 823.099 780.852 814.684 777.975 806.328C773.931 794.584 758.989 790.037 749.411 798.068C747.882 799.35 746.338 801.038 745.407 802.813C741.679 809.92 742.061 819.159 749.389 823.893C751.253 825.098 753.448 825.82 755.595 826.295C756.576 826.512 757.933 826.671 758.284 827.795C758.611 828.839 757.931 829.979 757.401 830.828C756.113 832.887 754.249 834.653 752.433 836.243C747.211 840.817 740.801 843.237 733.921 843.834C729.032 844.258 722.599 842.005 720.791 848.145Z" fill="white" fill-opacity="0.12"/>
<path d="M794.709 895.895C814.299 902.96 835.781 895.037 846.882 877.852C851.406 870.85 854.771 862.435 851.893 854.079C847.849 842.334 832.908 837.788 823.329 845.819C821.8 847.101 820.257 848.788 819.325 850.563C815.597 857.671 815.979 866.91 823.307 871.644C825.171 872.848 827.366 873.571 829.514 874.046C830.494 874.263 831.851 874.421 832.202 875.546C832.529 876.59 831.85 877.73 831.319 878.578C830.031 880.637 828.167 882.403 826.351 883.994C821.129 888.568 814.719 890.987 807.839 891.584C802.95 892.009 796.517 889.756 794.709 895.895Z" fill="white" fill-opacity="0.12"/>
<path d="M868.627 943.646C888.217 950.71 909.699 942.787 920.801 925.602C925.324 918.6 928.689 910.185 925.811 901.829C921.767 890.085 906.826 885.538 897.247 893.569C895.718 894.851 894.175 896.539 893.244 898.314C889.515 905.421 889.897 914.66 897.225 919.394C899.089 920.599 901.284 921.321 903.432 921.796C904.412 922.013 905.769 922.172 906.12 923.296C906.447 924.34 905.768 925.48 905.237 926.329C903.95 928.388 902.085 930.154 900.269 931.744C895.047 936.318 888.637 938.738 881.757 939.335C876.868 939.759 870.435 937.506 868.627 943.646Z" fill="white" fill-opacity="0.12"/>
<path d="M942.546 991.396C962.135 998.461 983.617 990.538 994.719 973.353C999.242 966.351 1002.61 957.936 999.729 949.58C995.685 937.835 980.744 933.288 971.165 941.32C969.636 942.602 968.093 944.289 967.162 946.064C963.433 953.172 963.816 962.411 971.143 967.145C973.007 968.349 975.202 969.072 977.35 969.547C978.33 969.764 979.687 969.922 980.039 971.047C980.365 972.091 979.686 973.231 979.155 974.079C977.868 976.138 976.004 977.904 974.188 979.495C968.966 984.069 962.555 986.488 955.675 987.085C950.786 987.51 944.353 985.257 942.546 991.396Z" fill="white" fill-opacity="0.12"/>
<path d="M1016.46 1039.15C1036.05 1046.21 1057.54 1038.29 1068.64 1021.1C1073.16 1014.1 1076.53 1005.69 1073.65 997.33C1069.6 985.585 1054.66 981.039 1045.08 989.07C1043.55 990.352 1042.01 992.04 1041.08 993.815C1037.35 1000.92 1037.73 1010.16 1045.06 1014.9C1046.93 1016.1 1049.12 1016.82 1051.27 1017.3C1052.25 1017.51 1053.61 1017.67 1053.96 1018.8C1054.28 1019.84 1053.6 1020.98 1053.07 1021.83C1051.79 1023.89 1049.92 1025.65 1048.11 1027.25C1042.88 1031.82 1036.47 1034.24 1029.59 1034.84C1024.7 1035.26 1018.27 1033.01 1016.46 1039.15Z" fill="white" fill-opacity="0.12"/>
<path d="M1090.38 1086.9C1109.97 1093.96 1131.45 1086.04 1142.56 1068.85C1147.08 1061.85 1150.44 1053.44 1147.57 1045.08C1143.52 1033.34 1128.58 1028.79 1119 1036.82C1117.47 1038.1 1115.93 1039.79 1115 1041.57C1111.27 1048.67 1111.65 1057.91 1118.98 1062.65C1120.84 1063.85 1123.04 1064.57 1125.19 1065.05C1126.17 1065.26 1127.52 1065.42 1127.87 1066.55C1128.2 1067.59 1127.52 1068.73 1126.99 1069.58C1125.7 1071.64 1123.84 1073.41 1122.02 1075C1116.8 1079.57 1110.39 1081.99 1103.51 1082.59C1098.62 1083.01 1092.19 1080.76 1090.38 1086.9Z" fill="white" fill-opacity="0.12"/>
<path d="M1164.3 1134.65C1183.89 1141.71 1205.37 1133.79 1216.47 1116.6C1221 1109.6 1224.36 1101.19 1221.48 1092.83C1217.44 1081.09 1202.5 1076.54 1192.92 1084.57C1191.39 1085.85 1189.85 1087.54 1188.92 1089.32C1185.19 1096.42 1185.57 1105.66 1192.9 1110.4C1194.76 1111.6 1196.96 1112.32 1199.1 1112.8C1200.08 1113.02 1201.44 1113.17 1201.79 1114.3C1202.12 1115.34 1201.44 1116.48 1200.91 1117.33C1199.62 1119.39 1197.76 1121.16 1195.94 1122.75C1190.72 1127.32 1184.31 1129.74 1177.43 1130.34C1172.54 1130.76 1166.11 1128.51 1164.3 1134.65Z" fill="white" fill-opacity="0.12"/>
<path d="M1238.22 1182.4C1257.81 1189.46 1279.29 1181.54 1290.39 1164.35C1294.91 1157.35 1298.28 1148.94 1295.4 1140.58C1291.36 1128.84 1276.42 1124.29 1266.84 1132.32C1265.31 1133.6 1263.77 1135.29 1262.83 1137.07C1259.11 1144.17 1259.49 1153.41 1266.82 1158.15C1268.68 1159.35 1270.88 1160.07 1273.02 1160.55C1274 1160.77 1275.36 1160.92 1275.71 1162.05C1276.04 1163.09 1275.36 1164.23 1274.83 1165.08C1273.54 1167.14 1271.68 1168.91 1269.86 1170.5C1264.64 1175.07 1258.23 1177.49 1251.35 1178.09C1246.46 1178.51 1240.03 1176.26 1238.22 1182.4Z" fill="white" fill-opacity="0.12"/>
<path d="M1312.14 1230.15C1331.73 1237.21 1353.21 1229.29 1364.31 1212.11C1368.83 1205.1 1372.2 1196.69 1369.32 1188.33C1365.28 1176.59 1350.33 1172.04 1340.76 1180.07C1339.23 1181.35 1337.68 1183.04 1336.75 1184.82C1333.02 1191.92 1333.41 1201.16 1340.73 1205.9C1342.6 1207.1 1344.79 1207.82 1346.94 1208.3C1347.92 1208.52 1349.28 1208.67 1349.63 1209.8C1349.96 1210.84 1349.28 1211.98 1348.75 1212.83C1347.46 1214.89 1345.59 1216.66 1343.78 1218.25C1338.56 1222.82 1332.15 1225.24 1325.27 1225.84C1320.38 1226.26 1313.94 1224.01 1312.14 1230.15Z" fill="white" fill-opacity="0.12"/>
<path d="M1386.05 1277.9C1405.64 1284.96 1427.13 1277.04 1438.23 1259.86C1442.75 1252.85 1446.12 1244.44 1443.24 1236.08C1439.19 1224.34 1424.25 1219.79 1414.67 1227.82C1413.14 1229.1 1411.6 1230.79 1410.67 1232.57C1406.94 1239.67 1407.32 1248.91 1414.65 1253.65C1416.52 1254.85 1418.71 1255.57 1420.86 1256.05C1421.84 1256.27 1423.2 1256.42 1423.55 1257.55C1423.87 1258.59 1423.19 1259.73 1422.66 1260.58C1421.38 1262.64 1419.51 1264.41 1417.7 1266C1412.47 1270.57 1406.06 1272.99 1399.18 1273.59C1394.3 1274.01 1387.86 1271.76 1386.05 1277.9Z" fill="white" fill-opacity="0.12"/>
<path d="M64.3317 566.938C83.9216 574.003 105.404 566.08 116.505 548.895C121.028 541.893 124.393 533.478 121.516 525.122C117.471 513.377 102.53 508.831 92.9513 516.862C91.4221 518.144 89.879 519.831 88.9478 521.606C85.2193 528.714 85.6017 537.953 92.929 542.687C94.7934 543.892 96.9886 544.614 99.136 545.089C100.117 545.306 101.473 545.464 101.825 546.589C102.151 547.633 101.472 548.773 100.941 549.621C99.6538 551.68 97.7897 553.446 95.9737 555.037C90.7517 559.611 84.3412 562.03 77.4612 562.628C72.5724 563.052 66.1395 560.799 64.3317 566.938Z" fill="white" fill-opacity="0.1"/>
<path d="M138.25 614.689C157.84 621.753 179.322 613.83 190.423 596.645C194.946 589.643 198.311 581.228 195.434 572.872C191.39 561.128 176.448 556.581 166.869 564.612C165.34 565.895 163.797 567.582 162.866 569.357C159.137 576.465 159.52 585.703 166.847 590.437C168.712 591.642 170.907 592.364 173.054 592.839C174.035 593.056 175.391 593.215 175.743 594.339C176.069 595.383 175.39 596.523 174.859 597.372C173.572 599.431 171.708 601.197 169.892 602.787C164.67 607.362 158.259 609.781 151.379 610.378C146.491 610.802 140.058 608.549 138.25 614.689Z" fill="white" fill-opacity="0.1"/>
<path d="M212.168 662.439C231.758 669.504 253.24 661.581 264.341 644.396C268.864 637.394 272.229 628.979 269.352 620.623C265.308 608.878 250.366 604.332 240.788 612.363C239.258 613.645 237.715 615.332 236.784 617.107C233.056 624.215 233.438 633.454 240.765 638.188C242.63 639.393 244.825 640.115 246.972 640.59C247.953 640.807 249.31 640.965 249.661 642.09C249.988 643.134 249.308 644.274 248.777 645.122C247.49 647.181 245.626 648.947 243.81 650.538C238.588 655.112 232.177 657.531 225.297 658.129C220.409 658.553 213.976 656.3 212.168 662.439Z" fill="white" fill-opacity="0.1"/>
<path d="M286.086 710.19C305.676 717.254 327.158 709.331 338.259 692.146C342.783 685.144 346.147 676.729 343.27 668.373C339.226 656.629 324.284 652.082 314.706 660.113C313.177 661.395 311.633 663.083 310.702 664.858C306.974 671.966 307.356 681.204 314.683 685.938C316.548 687.143 318.743 687.865 320.89 688.34C321.871 688.557 323.228 688.716 323.579 689.84C323.906 690.884 323.226 692.024 322.696 692.873C321.408 694.932 319.544 696.698 317.728 698.288C312.506 702.863 306.096 705.282 299.216 705.879C294.327 706.303 287.894 704.05 286.086 710.19Z" fill="white" fill-opacity="0.1"/>
<path d="M360.004 757.94C379.594 765.005 401.076 757.082 412.177 739.897C416.701 732.895 420.066 724.48 417.188 716.124C413.144 704.379 398.203 699.833 388.624 707.864C387.095 709.146 385.552 710.833 384.62 712.608C380.892 719.716 381.274 728.955 388.602 733.689C390.466 734.894 392.661 735.616 394.809 736.091C395.789 736.308 397.146 736.466 397.497 737.591C397.824 738.635 397.145 739.775 396.614 740.623C395.326 742.682 393.462 744.448 391.646 746.039C386.424 750.613 380.014 753.032 373.134 753.63C368.245 754.054 361.812 751.801 360.004 757.94Z" fill="white" fill-opacity="0.1"/>
<path d="M433.922 805.691C453.512 812.755 474.994 804.832 486.096 787.647C490.619 780.645 493.984 772.23 491.106 763.874C487.062 752.13 472.121 747.583 462.542 755.614C461.013 756.896 459.47 758.584 458.538 760.359C454.81 767.466 455.192 776.705 462.52 781.439C464.384 782.644 466.579 783.366 468.727 783.841C469.707 784.058 471.064 784.217 471.415 785.341C471.742 786.385 471.063 787.525 470.532 788.374C469.244 790.433 467.38 792.199 465.564 793.789C460.342 798.363 453.932 800.783 447.052 801.38C442.163 801.804 435.73 799.551 433.922 805.691Z" fill="white" fill-opacity="0.1"/>
<path d="M507.841 853.441C527.43 860.506 548.912 852.583 560.014 835.398C564.537 828.396 567.902 819.981 565.024 811.625C560.98 799.88 546.039 795.333 536.46 803.365C534.931 804.647 533.388 806.334 532.457 808.109C528.728 815.217 529.111 824.456 536.438 829.19C538.302 830.394 540.497 831.117 542.645 831.592C543.625 831.809 544.982 831.967 545.333 833.092C545.66 834.136 544.981 835.276 544.45 836.124C543.163 838.183 541.298 839.949 539.483 841.54C534.261 846.114 527.85 848.533 520.97 849.13C516.081 849.555 509.648 847.302 507.841 853.441Z" fill="white" fill-opacity="0.1"/>
<path d="M581.759 901.192C601.349 908.256 622.83 900.333 633.932 883.148C638.455 876.146 641.82 867.731 638.942 859.375C634.898 847.631 619.957 843.084 610.378 851.115C608.849 852.397 607.306 854.085 606.375 855.86C602.646 862.967 603.029 872.206 610.356 876.94C612.22 878.145 614.416 878.867 616.563 879.342C617.544 879.559 618.9 879.718 619.252 880.842C619.578 881.886 618.899 883.026 618.368 883.875C617.081 885.934 615.217 887.7 613.401 889.29C608.179 893.864 601.768 896.283 594.888 896.881C589.999 897.305 583.566 895.052 581.759 901.192Z" fill="white" fill-opacity="0.1"/>
<path d="M655.677 948.942C675.267 956.007 696.749 948.084 707.85 930.899C712.373 923.897 715.738 915.482 712.861 907.126C708.817 895.381 693.875 890.834 684.296 898.866C682.767 900.148 681.224 901.835 680.293 903.61C676.564 910.718 676.947 919.957 684.274 924.691C686.139 925.895 688.334 926.618 690.481 927.093C691.462 927.31 692.818 927.468 693.17 928.593C693.496 929.636 692.817 930.777 692.286 931.625C690.999 933.684 689.135 935.45 687.319 937.041C682.097 941.615 675.686 944.034 668.806 944.631C663.917 945.056 657.485 942.803 655.677 948.942Z" fill="white" fill-opacity="0.1"/>
<path d="M729.595 996.693C749.185 1003.76 770.667 995.834 781.768 978.649C786.291 971.647 789.656 963.232 786.779 954.876C782.735 943.131 767.793 938.585 758.215 946.616C756.685 947.898 755.142 949.586 754.211 951.361C750.483 958.468 750.865 967.707 758.192 972.441C760.057 973.646 762.252 974.368 764.399 974.843C765.38 975.06 766.736 975.218 767.088 976.343C767.415 977.387 766.735 978.527 766.204 979.376C764.917 981.435 763.053 983.201 761.237 984.791C756.015 989.365 749.604 991.784 742.724 992.382C737.836 992.806 731.403 990.553 729.595 996.693Z" fill="white" fill-opacity="0.1"/>
<path d="M803.513 1044.44C823.103 1051.51 844.585 1043.58 855.686 1026.4C860.21 1019.4 863.574 1010.98 860.697 1002.63C856.653 990.882 841.711 986.335 832.133 994.367C830.603 995.649 829.06 997.336 828.129 999.111C824.401 1006.22 824.783 1015.46 832.11 1020.19C833.975 1021.4 836.17 1022.12 838.317 1022.59C839.298 1022.81 840.655 1022.97 841.006 1024.09C841.333 1025.14 840.653 1026.28 840.122 1027.13C838.835 1029.19 836.971 1030.95 835.155 1032.54C829.933 1037.12 823.523 1039.53 816.643 1040.13C811.754 1040.56 805.321 1038.3 803.513 1044.44Z" fill="white" fill-opacity="0.1"/>
<path d="M877.431 1092.19C897.021 1099.26 918.503 1091.34 929.604 1074.15C934.128 1067.15 937.492 1058.73 934.615 1050.38C930.571 1038.63 915.629 1034.09 906.051 1042.12C904.522 1043.4 902.979 1045.09 902.047 1046.86C898.319 1053.97 898.701 1063.21 906.029 1067.94C907.893 1069.15 910.088 1069.87 912.235 1070.34C913.216 1070.56 914.573 1070.72 914.924 1071.84C915.251 1072.89 914.572 1074.03 914.041 1074.88C912.753 1076.94 910.889 1078.7 909.073 1080.29C903.851 1084.87 897.441 1087.29 890.561 1087.88C885.672 1088.31 879.239 1086.05 877.431 1092.19Z" fill="white" fill-opacity="0.1"/>
<path d="M951.349 1139.94C970.939 1147.01 992.421 1139.09 1003.52 1121.9C1008.05 1114.9 1011.41 1106.48 1008.53 1098.13C1004.49 1086.38 989.548 1081.84 979.969 1089.87C978.44 1091.15 976.897 1092.84 975.965 1094.61C972.237 1101.72 972.619 1110.96 979.947 1115.69C981.811 1116.9 984.006 1117.62 986.154 1118.09C987.134 1118.31 988.491 1118.47 988.842 1119.59C989.169 1120.64 988.49 1121.78 987.959 1122.63C986.671 1124.69 984.807 1126.45 982.991 1128.04C977.769 1132.62 971.359 1135.04 964.479 1135.63C959.59 1136.06 953.157 1133.8 951.349 1139.94Z" fill="white" fill-opacity="0.1"/>
<path d="M1025.27 1187.69C1044.86 1194.76 1066.34 1186.84 1077.44 1169.65C1081.96 1162.65 1085.33 1154.23 1082.45 1145.88C1078.41 1134.13 1063.47 1129.59 1053.89 1137.62C1052.36 1138.9 1050.81 1140.59 1049.88 1142.36C1046.16 1149.47 1046.54 1158.71 1053.86 1163.44C1055.73 1164.65 1057.92 1165.37 1060.07 1165.85C1061.05 1166.06 1062.41 1166.22 1062.76 1167.35C1063.09 1168.39 1062.41 1169.53 1061.88 1170.38C1060.59 1172.44 1058.73 1174.2 1056.91 1175.79C1051.69 1180.37 1045.28 1182.79 1038.4 1183.38C1033.51 1183.81 1027.08 1181.56 1025.27 1187.69Z" fill="white" fill-opacity="0.1"/>
<path d="M1099.19 1235.45C1118.78 1242.51 1140.26 1234.59 1151.36 1217.4C1155.88 1210.4 1159.25 1201.98 1156.37 1193.63C1152.33 1181.88 1137.38 1177.34 1127.81 1185.37C1126.28 1186.65 1124.73 1188.34 1123.8 1190.11C1120.07 1197.22 1120.46 1206.46 1127.78 1211.19C1129.65 1212.4 1131.84 1213.12 1133.99 1213.6C1134.97 1213.81 1136.33 1213.97 1136.68 1215.1C1137.01 1216.14 1136.33 1217.28 1135.8 1218.13C1134.51 1220.19 1132.64 1221.95 1130.83 1223.54C1125.61 1228.12 1119.2 1230.54 1112.32 1231.13C1107.43 1231.56 1100.99 1229.31 1099.19 1235.45Z" fill="white" fill-opacity="0.1"/>
<path d="M1173.1 1283.2C1192.69 1290.26 1214.18 1282.34 1225.28 1265.15C1229.8 1258.15 1233.17 1249.74 1230.29 1241.38C1226.24 1229.63 1211.3 1225.09 1201.72 1233.12C1200.19 1234.4 1198.65 1236.09 1197.72 1237.86C1193.99 1244.97 1194.37 1254.21 1201.7 1258.94C1203.57 1260.15 1205.76 1260.87 1207.91 1261.35C1208.89 1261.56 1210.25 1261.72 1210.6 1262.85C1210.92 1263.89 1210.24 1265.03 1209.71 1265.88C1208.43 1267.94 1206.56 1269.7 1204.75 1271.29C1199.52 1275.87 1193.11 1278.29 1186.23 1278.88C1181.34 1279.31 1174.91 1277.06 1173.1 1283.2Z" fill="white" fill-opacity="0.1"/>
<path d="M1247.02 1330.95C1266.61 1338.01 1288.09 1330.09 1299.2 1312.9C1303.72 1305.9 1307.08 1297.49 1304.21 1289.13C1300.16 1277.38 1285.22 1272.84 1275.64 1280.87C1274.11 1282.15 1272.57 1283.84 1271.64 1285.61C1267.91 1292.72 1268.29 1301.96 1275.62 1306.69C1277.48 1307.9 1279.68 1308.62 1281.83 1309.1C1282.81 1309.31 1284.16 1309.47 1284.51 1310.6C1284.84 1311.64 1284.16 1312.78 1283.63 1313.63C1282.34 1315.69 1280.48 1317.45 1278.66 1319.04C1273.44 1323.62 1267.03 1326.04 1260.15 1326.64C1255.26 1327.06 1248.83 1324.81 1247.02 1330.95Z" fill="white" fill-opacity="0.1"/>
<path d="M1320.94 1378.7C1340.53 1385.76 1362.01 1377.84 1373.11 1360.65C1377.64 1353.65 1381 1345.24 1378.12 1336.88C1374.08 1325.14 1359.14 1320.59 1349.56 1328.62C1348.03 1329.9 1346.49 1331.59 1345.56 1333.36C1341.83 1340.47 1342.21 1349.71 1349.54 1354.45C1351.4 1355.65 1353.6 1356.37 1355.74 1356.85C1356.72 1357.06 1358.08 1357.22 1358.43 1358.35C1358.76 1359.39 1358.08 1360.53 1357.55 1361.38C1356.26 1363.44 1354.4 1365.2 1352.58 1366.8C1347.36 1371.37 1340.95 1373.79 1334.07 1374.39C1329.18 1374.81 1322.75 1372.56 1320.94 1378.7Z" fill="white" fill-opacity="0.1"/>
<path d="M7.3316 650.938C26.9215 658.002 48.4034 650.08 59.5048 632.895C64.0281 625.892 67.3929 617.478 64.5154 609.121C60.4713 597.377 45.5299 592.83 35.9512 600.861C34.422 602.144 32.8789 603.831 31.9477 605.606C28.2192 612.714 28.6016 621.953 35.9289 626.686C37.7933 627.891 39.9885 628.613 42.1359 629.088C43.1164 629.305 44.4731 629.464 44.8246 630.589C45.1512 631.632 44.4719 632.773 43.941 633.621C42.6537 635.68 40.7895 637.446 38.9736 639.037C33.7516 643.611 27.341 646.03 20.4611 646.627C15.5723 647.052 9.13933 644.799 7.3316 650.938Z" fill="white" fill-opacity="0.1"/>
<path d="M81.2498 698.688C100.84 705.753 122.322 697.83 133.423 680.645C137.946 673.643 141.311 665.228 138.434 656.872C134.389 645.127 119.448 640.581 109.869 648.612C108.34 649.894 106.797 651.581 105.866 653.357C102.137 660.464 102.52 669.703 109.847 674.437C111.711 675.642 113.907 676.364 116.054 676.839C117.035 677.056 118.391 677.214 118.743 678.339C119.069 679.383 118.39 680.523 117.859 681.372C116.572 683.43 114.708 685.196 112.892 686.787C107.67 691.361 101.259 693.78 94.3793 694.378C89.4904 694.802 83.0575 692.549 81.2498 698.688Z" fill="white" fill-opacity="0.1"/>
<path d="M155.168 746.439C174.758 753.503 196.24 745.58 207.341 728.396C211.864 721.393 215.229 712.979 212.352 704.622C208.308 692.878 193.366 688.331 183.787 696.362C182.258 697.645 180.715 699.332 179.784 701.107C176.055 708.215 176.438 717.454 183.765 722.187C185.63 723.392 187.825 724.114 189.972 724.589C190.953 724.806 192.309 724.965 192.661 726.09C192.987 727.133 192.308 728.274 191.777 729.122C190.49 731.181 188.626 732.947 186.81 734.538C181.588 739.112 175.177 741.531 168.297 742.128C163.408 742.553 156.976 740.3 155.168 746.439Z" fill="white" fill-opacity="0.1"/>
<path d="M229.086 794.189C248.676 801.254 270.158 793.331 281.259 776.146C285.782 769.144 289.147 760.729 286.27 752.373C282.226 740.628 267.284 736.082 257.706 744.113C256.176 745.395 254.633 747.082 253.702 748.857C249.974 755.965 250.356 765.204 257.683 769.938C259.548 771.143 261.743 771.865 263.89 772.34C264.871 772.557 266.228 772.715 266.579 773.84C266.906 774.884 266.226 776.024 265.695 776.873C264.408 778.931 262.544 780.697 260.728 782.288C255.506 786.862 249.095 789.281 242.216 789.879C237.327 790.303 230.894 788.05 229.086 794.189Z" fill="white" fill-opacity="0.1"/>
<path d="M303.004 841.94C322.594 849.004 344.076 841.081 355.177 823.897C359.701 816.894 363.065 808.48 360.188 800.123C356.144 788.379 341.202 783.832 331.624 791.863C330.095 793.146 328.551 794.833 327.62 796.608C323.892 803.716 324.274 812.954 331.601 817.688C333.466 818.893 335.661 819.615 337.808 820.09C338.789 820.307 340.146 820.466 340.497 821.59C340.824 822.634 340.144 823.775 339.614 824.623C338.326 826.682 336.462 828.448 334.646 830.039C329.424 834.613 323.014 837.032 316.134 837.629C311.245 838.054 304.812 835.801 303.004 841.94Z" fill="white" fill-opacity="0.1"/>
<path d="M376.922 889.69C396.512 896.755 417.994 888.832 429.095 871.647C433.619 864.645 436.984 856.23 434.106 847.874C430.062 836.129 415.121 831.583 405.542 839.614C404.013 840.896 402.47 842.583 401.538 844.358C397.81 851.466 398.192 860.705 405.52 865.439C407.384 866.644 409.579 867.366 411.727 867.841C412.707 868.058 414.064 868.216 414.415 869.341C414.742 870.385 414.063 871.525 413.532 872.374C412.244 874.432 410.38 876.198 408.564 877.789C403.342 882.363 396.932 884.782 390.052 885.38C385.163 885.804 378.73 883.551 376.922 889.69Z" fill="white" fill-opacity="0.1"/>
<path d="M450.84 937.441C470.43 944.505 491.912 936.582 503.014 919.397C507.537 912.395 510.902 903.98 508.024 895.624C503.98 883.88 489.039 879.333 479.46 887.364C477.931 888.647 476.388 890.334 475.457 892.109C471.728 899.217 472.11 908.455 479.438 913.189C481.302 914.394 483.497 915.116 485.645 915.591C486.625 915.808 487.982 915.967 488.333 917.091C488.66 918.135 487.981 919.275 487.45 920.124C486.162 922.183 484.298 923.949 482.482 925.54C477.26 930.114 470.85 932.533 463.97 933.13C459.081 933.555 452.648 931.301 450.84 937.441Z" fill="white" fill-opacity="0.1"/>
<path d="M524.759 985.191C544.348 992.256 565.83 984.333 576.932 967.148C581.455 960.146 584.82 951.731 581.942 943.375C577.898 931.63 562.957 927.084 553.378 935.115C551.849 936.397 550.306 938.084 549.375 939.859C545.646 946.967 546.029 956.206 553.356 960.94C555.22 962.145 557.415 962.867 559.563 963.342C560.543 963.559 561.9 963.717 562.251 964.842C562.578 965.886 561.899 967.026 561.368 967.874C560.081 969.933 558.216 971.699 556.401 973.29C551.179 977.864 544.768 980.283 537.888 980.881C532.999 981.305 526.566 979.052 524.759 985.191Z" fill="white" fill-opacity="0.1"/>
<path d="M598.677 1032.94C618.267 1040.01 639.749 1032.08 650.85 1014.9C655.373 1007.9 658.738 999.481 655.861 991.125C651.816 979.381 636.875 974.834 627.296 982.865C625.767 984.148 624.224 985.835 623.293 987.61C619.564 994.718 619.947 1003.96 627.274 1008.69C629.138 1009.9 631.334 1010.62 633.481 1011.09C634.462 1011.31 635.818 1011.47 636.17 1012.59C636.496 1013.64 635.817 1014.78 635.286 1015.62C633.999 1017.68 632.135 1019.45 630.319 1021.04C625.097 1025.61 618.686 1028.03 611.806 1028.63C606.917 1029.06 600.484 1026.8 598.677 1032.94Z" fill="white" fill-opacity="0.1"/>
<path d="M672.595 1080.69C692.185 1087.76 713.667 1079.83 724.768 1062.65C729.291 1055.65 732.656 1047.23 729.779 1038.88C725.735 1027.13 710.793 1022.58 701.214 1030.62C699.685 1031.9 698.142 1033.59 697.211 1035.36C693.482 1042.47 693.865 1051.71 701.192 1056.44C703.057 1057.65 705.252 1058.37 707.399 1058.84C708.38 1059.06 709.736 1059.22 710.088 1060.34C710.414 1061.39 709.735 1062.53 709.204 1063.38C707.917 1065.43 706.053 1067.2 704.237 1068.79C699.015 1073.37 692.604 1075.78 685.724 1076.38C680.835 1076.81 674.403 1074.55 672.595 1080.69Z" fill="white" fill-opacity="0.1"/>
<path d="M746.513 1128.44C766.103 1135.51 787.585 1127.58 798.686 1110.4C803.209 1103.4 806.574 1094.98 803.697 1086.63C799.653 1074.88 784.711 1070.34 775.133 1078.37C773.603 1079.65 772.06 1081.34 771.129 1083.11C767.401 1090.22 767.783 1099.46 775.11 1104.19C776.975 1105.4 779.17 1106.12 781.317 1106.59C782.298 1106.81 783.655 1106.97 784.006 1108.09C784.333 1109.14 783.653 1110.28 783.122 1111.13C781.835 1113.18 779.971 1114.95 778.155 1116.54C772.933 1121.12 766.522 1123.53 759.642 1124.13C754.754 1124.56 748.321 1122.3 746.513 1128.44Z" fill="white" fill-opacity="0.1"/>
<path d="M820.431 1176.19C840.021 1183.26 861.503 1175.33 872.604 1158.15C877.128 1151.15 880.492 1142.73 877.615 1134.38C873.571 1122.63 858.629 1118.09 849.051 1126.12C847.522 1127.4 845.978 1129.09 845.047 1130.86C841.319 1137.97 841.701 1147.21 849.028 1151.94C850.893 1153.15 853.088 1153.87 855.235 1154.34C856.216 1154.56 857.573 1154.72 857.924 1155.84C858.251 1156.89 857.571 1158.03 857.04 1158.88C855.753 1160.94 853.889 1162.7 852.073 1164.29C846.851 1168.87 840.441 1171.29 833.561 1171.88C828.672 1172.31 822.239 1170.05 820.431 1176.19Z" fill="white" fill-opacity="0.1"/>
<path d="M894.349 1223.94C913.939 1231.01 935.421 1223.09 946.522 1205.9C951.046 1198.9 954.411 1190.48 951.533 1182.13C947.489 1170.38 932.547 1165.84 922.969 1173.87C921.44 1175.15 919.897 1176.84 918.965 1178.61C915.237 1185.72 915.619 1194.96 922.947 1199.69C924.811 1200.9 927.006 1201.62 929.153 1202.09C930.134 1202.31 931.491 1202.47 931.842 1203.59C932.169 1204.64 931.49 1205.78 930.959 1206.63C929.671 1208.69 927.807 1210.45 925.991 1212.04C920.769 1216.62 914.359 1219.04 907.479 1219.63C902.59 1220.06 896.157 1217.8 894.349 1223.94Z" fill="white" fill-opacity="0.1"/>
<path d="M968.267 1271.69C987.857 1278.76 1009.34 1270.84 1020.44 1253.65C1024.96 1246.65 1028.33 1238.23 1025.45 1229.88C1021.41 1218.13 1006.47 1213.59 996.887 1221.62C995.358 1222.9 993.815 1224.59 992.883 1226.36C989.155 1233.47 989.537 1242.71 996.865 1247.44C998.729 1248.65 1000.92 1249.37 1003.07 1249.84C1004.05 1250.06 1005.41 1250.22 1005.76 1251.34C1006.09 1252.39 1005.41 1253.53 1004.88 1254.38C1003.59 1256.44 1001.73 1258.2 999.909 1259.79C994.687 1264.37 988.277 1266.79 981.397 1267.38C976.508 1267.81 970.075 1265.55 968.267 1271.69Z" fill="white" fill-opacity="0.1"/>
<path d="M1042.19 1319.44C1061.78 1326.51 1083.26 1318.59 1094.36 1301.4C1098.88 1294.4 1102.25 1285.98 1099.37 1277.63C1095.33 1265.88 1080.38 1261.34 1070.81 1269.37C1069.28 1270.65 1067.73 1272.34 1066.8 1274.11C1063.07 1281.22 1063.46 1290.46 1070.78 1295.19C1072.65 1296.4 1074.84 1297.12 1076.99 1297.6C1077.97 1297.81 1079.33 1297.97 1079.68 1299.1C1080.01 1300.14 1079.33 1301.28 1078.79 1302.13C1077.51 1304.19 1075.64 1305.95 1073.83 1307.54C1068.61 1312.12 1062.19 1314.54 1055.32 1315.13C1050.43 1315.56 1043.99 1313.31 1042.19 1319.44Z" fill="white" fill-opacity="0.1"/>
<path d="M1116.1 1367.2C1135.69 1374.26 1157.18 1366.34 1168.28 1349.15C1172.8 1342.15 1176.16 1333.73 1173.29 1325.38C1169.24 1313.63 1154.3 1309.09 1144.72 1317.12C1143.19 1318.4 1141.65 1320.09 1140.72 1321.86C1136.99 1328.97 1137.37 1338.21 1144.7 1342.94C1146.57 1344.15 1148.76 1344.87 1150.91 1345.35C1151.89 1345.56 1153.25 1345.72 1153.6 1346.85C1153.92 1347.89 1153.24 1349.03 1152.71 1349.88C1151.43 1351.94 1149.56 1353.7 1147.75 1355.29C1142.52 1359.87 1136.11 1362.29 1129.23 1362.88C1124.34 1363.31 1117.91 1361.06 1116.1 1367.2Z" fill="white" fill-opacity="0.1"/>
<path d="M1190.02 1414.95C1209.61 1422.01 1231.09 1414.09 1242.19 1396.9C1246.72 1389.9 1250.08 1381.49 1247.21 1373.13C1243.16 1361.38 1228.22 1356.84 1218.64 1364.87C1217.11 1366.15 1215.57 1367.84 1214.64 1369.61C1210.91 1376.72 1211.29 1385.96 1218.62 1390.69C1220.48 1391.9 1222.68 1392.62 1224.83 1393.1C1225.81 1393.31 1227.16 1393.47 1227.51 1394.6C1227.84 1395.64 1227.16 1396.78 1226.63 1397.63C1225.34 1399.69 1223.48 1401.45 1221.66 1403.04C1216.44 1407.62 1210.03 1410.04 1203.15 1410.63C1198.26 1411.06 1191.83 1408.81 1190.02 1414.95Z" fill="white" fill-opacity="0.1"/>
<path d="M1263.94 1462.7C1283.53 1469.76 1305.01 1461.84 1316.11 1444.65C1320.64 1437.65 1324 1429.24 1321.12 1420.88C1317.08 1409.14 1302.14 1404.59 1292.56 1412.62C1291.03 1413.9 1289.49 1415.59 1288.56 1417.36C1284.83 1424.47 1285.21 1433.71 1292.54 1438.44C1294.4 1439.65 1296.6 1440.37 1298.74 1440.85C1299.72 1441.06 1301.08 1441.22 1301.43 1442.35C1301.76 1443.39 1301.08 1444.53 1300.55 1445.38C1299.26 1447.44 1297.4 1449.2 1295.58 1450.79C1290.36 1455.37 1283.95 1457.79 1277.07 1458.39C1272.18 1458.81 1265.75 1456.56 1263.94 1462.7Z" fill="white" fill-opacity="0.1"/>
</g>
<defs>
<filter id="filter0_df_3_2" x="0.331604" y="1.83252" width="1711.43" height="1471.44" filterUnits="userSpaceOnUse" color-interpolation-filters="sRGB">
<feFlood flood-opacity="0" result="BackgroundImageFix"/>
<feColorMatrix in="SourceAlpha" type="matrix" values="0 0 0 0 0 0 0 0 0 0 0 0 0 0 0 0 0 0 127 0" result="hardAlpha"/>
<feOffset dy="4"/>
<feGaussianBlur stdDeviation="2"/>
<feComposite in2="hardAlpha" operator="out"/>
<feColorMatrix type="matrix" values="0 0 0 0 0 0 0 0 0 0 0 0 0 0 0 0 0 0 0.25 0"/>
<feBlend mode="normal" in2="BackgroundImageFix" result="effect1_dropShadow_3_2"/>
<feBlend mode="normal" in="SourceGraphic" in2="effect1_dropShadow_3_2" result="shape"/>
<feGaussianBlur stdDeviation="3.5" result="effect2_foregroundBlur_3_2"/>
</filter>
</defs>
</svg>
