<?xml version="1.0" encoding="UTF-8" standalone="no"?>
<svg
   width="248.05359mm"
   height="56.285828mm"
   viewBox="0 0 248.05359 56.285828"
   version="1.1"
   id="svg5"
   xmlns="http://www.w3.org/2000/svg"
   xmlns:svg="http://www.w3.org/2000/svg">
  <defs
     id="defs2">
    <linearGradient
       id="linearGradient10392">
      <stop
         style="stop-color:#000000;stop-opacity:1;"
         offset="0"
         id="stop10390" />
    </linearGradient>
    <linearGradient
       id="linearGradient10386">
      <stop
         style="stop-color:#ffffff;stop-opacity:1;"
         offset="0"
         id="stop10384" />
    </linearGradient>
  </defs>
  <g
     id="layer1"
     transform="translate(-1122.7109,-243.60155)">
    <g
       aria-label="George Hotz"
       id="text1004-3-3"
       style="font-size:44.3233px;fill:#ffffff;stroke:#b6b6da;stroke-width:1.79488">
      <path
         d="m 1147.5523,275.19932 v 5.54041 h 6.8701 c -0.7091,3.67884 -2.881,5.18583 -6.4712,5.18583 -4.5653,0 -7.7122,-2.88101 -7.7122,-8.42143 0,-4.96421 2.8367,-8.42142 7.2247,-8.42142 3.014,0 5.2745,1.50699 6.1166,3.90045 h 7.269 c -2.0389,-7.26902 -7.402,-10.10572 -13.3856,-10.10572 -8.2441,0 -14.0948,5.45177 -14.0948,14.62669 0,9.08628 6.1609,14.62669 14.0061,14.62669 7.2691,0 12.2776,-3.94477 13.8289,-11.56838 v -5.36312 z"
         style="-inkscape-font-specification:'Phantom Sans 0.8 Bold';stroke:none"
         id="path15175" />
      <path
         d="m 1174.2349,292.13082 c 4.8313,0 9.042,-2.43778 9.9728,-7.18037 h -6.7372 c -0.3102,1.24105 -1.2853,2.08319 -3.2356,2.08319 -1.9945,0 -3.4128,-0.88646 -3.8118,-3.72315 h 13.9176 c 0.089,-0.7535 0.1329,-1.41835 0.1329,-2.17185 0,-5.7177 -3.8118,-9.83977 -10.283,-9.83977 -6.1609,0 -10.5046,4.29936 -10.5046,10.41598 0,6.11661 4.388,10.41597 10.5489,10.41597 z m -0.1329,-15.73477 c 2.0832,0 3.5015,1.01944 3.7231,3.10263 h -7.4906 c 0.3546,-2.21616 1.7286,-3.10263 3.7675,-3.10263 z"
         style="-inkscape-font-specification:'Phantom Sans 0.8 Bold';stroke:none"
         id="path15177" />
      <path
         d="m 1197.0171,292.13082 c 5.895,0 10.6819,-4.25503 10.6819,-10.41597 0,-6.16094 -4.8312,-10.41598 -10.6819,-10.41598 -5.8507,0 -10.6819,4.25504 -10.6819,10.41598 0,6.16094 4.7869,10.41597 10.6819,10.41597 z m 0,-5.76203 c -2.4821,0 -3.8561,-1.9059 -3.8561,-4.65394 0,-2.74805 1.4183,-4.65395 3.8561,-4.65395 2.4378,0 3.8561,1.9059 3.8561,4.65395 0,2.74804 -1.374,4.65394 -3.8561,4.65394 z"
         style="-inkscape-font-specification:'Phantom Sans 0.8 Bold';stroke:none"
         id="path15179" />
      <path
         d="m 1210.6687,291.46597 h 6.8258 v -9.08627 c 0,-2.92534 1.1967,-4.52098 5.3188,-4.52098 1.1967,0 2.1275,0.13297 3.1913,0.31026 v -6.69282 c -0.4432,-0.0886 -1.1081,-0.17729 -1.8173,-0.17729 -2.9696,0 -5.3631,1.50699 -6.6928,4.5653 v -3.90045 h -6.8258 z"
         style="-inkscape-font-specification:'Phantom Sans 0.8 Bold';stroke:none"
         id="path15181" />
      <path
         d="m 1227.4673,281.58188 c 0,4.16639 1.9059,7.35766 4.388,9.04195 l -4.7426,2.34914 c 2.2605,4.60962 6.0723,6.91443 10.8592,6.91443 7.0917,0 11.1252,-4.65395 11.1252,-11.83432 v -16.08936 h -6.8258 v 2.57075 c -1.4184,-2.17184 -3.7675,-3.2356 -6.3826,-3.2356 -4.5653,0 -8.4214,3.67884 -8.4214,10.28301 z m 10.8592,-4.7426 c 2.4378,0 4.0334,1.72861 4.0334,4.7426 0,3.01398 -1.6399,4.74259 -4.0334,4.74259 -2.5708,0 -4.0334,-2.03887 -4.0334,-4.74259 0,-2.70372 1.4626,-4.7426 4.0334,-4.7426 z m -2.4821,15.0256 c 3.0583,0 5.3631,-1.37402 6.6485,-3.76748 v 0.57621 c 0,4.07774 -1.64,5.67338 -4.521,5.67338 -1.9502,0 -3.5902,-0.84215 -4.521,-2.92534 0.7979,0.31026 1.5957,0.44323 2.3935,0.44323 z"
         style="-inkscape-font-specification:'Phantom Sans 0.8 Bold';stroke:none"
         id="path15183" />
      <path
         d="m 1262.6157,292.13082 c 4.8312,0 9.0419,-2.43778 9.9727,-7.18037 h -6.7371 c -0.3103,1.24105 -1.2854,2.08319 -3.2356,2.08319 -1.9946,0 -3.4129,-0.88646 -3.8118,-3.72315 h 13.9175 c 0.089,-0.7535 0.133,-1.41835 0.133,-2.17185 0,-5.7177 -3.8118,-9.83977 -10.2831,-9.83977 -6.1609,0 -10.5046,4.29936 -10.5046,10.41598 0,6.11661 4.388,10.41597 10.549,10.41597 z m -0.133,-15.73477 c 2.0832,0 3.5015,1.01944 3.7232,3.10263 h -7.4907 c 0.3546,-2.21616 1.7286,-3.10263 3.7675,-3.10263 z"
         style="-inkscape-font-specification:'Phantom Sans 0.8 Bold';stroke:none"
         id="path15185" />
      <path
         d="m 1283.7136,291.46597 h 6.8701 v -10.99218 h 10.9035 v 10.99218 h 6.8701 v -27.92368 h -6.8701 v 10.94786 h -10.9035 v -10.94786 h -6.8701 z"
         style="-inkscape-font-specification:'Phantom Sans 0.8 Bold';stroke:none"
         id="path15187" />
      <path
         d="m 1322.0089,292.13082 c 5.895,0 10.6819,-4.25503 10.6819,-10.41597 0,-6.16094 -4.8312,-10.41598 -10.6819,-10.41598 -5.8507,0 -10.6819,4.25504 -10.6819,10.41598 0,6.16094 4.7869,10.41597 10.6819,10.41597 z m 0,-5.76203 c -2.4821,0 -3.8561,-1.9059 -3.8561,-4.65394 0,-2.74805 1.4183,-4.65395 3.8561,-4.65395 2.4378,0 3.8561,1.9059 3.8561,4.65395 0,2.74804 -1.374,4.65394 -3.8561,4.65394 z"
         style="-inkscape-font-specification:'Phantom Sans 0.8 Bold';stroke:none"
         id="path15189" />
      <path
         d="m 1333.666,277.28252 h 4.122 v 6.95876 c 0,5.7177 2.7481,7.88954 8.0669,7.88954 1.4183,0 3.0583,-0.13297 4.388,-0.44323 v -5.895 c -0.8865,0.13297 -1.9946,0.35459 -3.014,0.35459 -1.7286,0 -2.6151,-0.48756 -2.6151,-2.39346 v -6.4712 h 5.6291 v -5.3188 h -5.6291 v -7.53496 h -6.8258 v 7.53496 h -4.122 z"
         style="-inkscape-font-specification:'Phantom Sans 0.8 Bold';stroke:none"
         id="path15191" />
      <path
         d="m 1352.6363,291.46597 h 18.1282 v -5.54041 h -8.9533 l 8.3771,-9.39654 v -4.5653 h -17.1531 v 5.54041 h 8.5101 l -8.909,9.70681 z"
         style="-inkscape-font-specification:'Phantom Sans 0.8 Bold';stroke:none"
         id="path15193" />
    </g>
    <g
       aria-label="AMA with"
       id="text1004-7"
       style="font-size:24.9342px;fill:#ffffff;stroke:#b6b6da;stroke-width:1.22707">
      <path
         style="color:#000000;-inkscape-font-specification:'Phantom Sans 0.8 Bold';stroke:none;-inkscape-stroke:none"
         d="m 1128.6797,244.87305 -5.9688,16.93554 h 5.4043 l 0.9727,-3.04101 h 4.9883 l 0.9726,3.04101 h 0.4473 5.0586 l -6.0215,-16.93554 z m 0.8691,1.22656 h 4.1192 l 5.1484,14.48242 h -2.8711 l -0.9726,-3.04297 h -6.7813 l -0.9726,3.04297 h -2.7754 z m 2.0332,0.87109 -2.7851,8.67969 h 0.8398 4.7324 z m 0,4.01563 1.1035,3.4375 h -2.205 z"
         id="path15216" />
      <path
         style="color:#000000;-inkscape-font-specification:'Phantom Sans 0.8 Bold';stroke:none;-inkscape-stroke:none"
         d="m 1140.4434,244.87305 v 16.93554 h 4.8437 v -0.61328 -7.98047 l 2.6738,8.59375 h 4.918 l 2.6758,-8.5957 v 8.5957 h 4.8418 v -16.93554 h -7.1563 l -2.8086,9.50195 -2.832,-9.50195 z m 1.2265,1.22656 h 5.0137 l 3.7519,12.58984 3.7227,-12.58984 h 5.0117 v 14.48242 h -2.3886 v -11.4043 l -1.1993,-0.18359 -3.6054,11.58789 h -3.1114 l -3.6074,-11.58789 -1.1992,0.18359 v 11.4043 h -2.3887 z"
         id="path15218" />
      <path
         style="color:#000000;-inkscape-font-specification:'Phantom Sans 0.8 Bold';stroke:none;-inkscape-stroke:none"
         d="m 1166.2559,244.87305 -5.9688,16.93554 h 5.4043 l 0.9727,-3.04101 h 4.9882 l 0.9727,3.04101 h 0.4473 5.0586 l -6.0215,-16.93554 z m 0.8671,1.22656 h 4.1211 l 5.1485,14.48242 h -2.8731 l -0.9707,-3.04297 h -6.7812 l -0.9727,3.04297 h -2.7754 z m 2.0352,0.87109 -2.7871,8.67969 h 0.8418 4.7305 z m 0,4.01367 1.1035,3.43946 h -2.207 z"
         id="path15220" />
      <path
         style="color:#000000;-inkscape-font-specification:'Phantom Sans 0.8 Bold';stroke:none;-inkscape-stroke:none"
         d="m 1181.3535,249.61133 3.6035,12.19726 h 5.377 l 1.0898,-4.41406 1.0918,4.41406 h 5.252 l 3.6035,-12.19726 h -5.1172 l -1.2559,5.1289 -1.2187,-5.1289 h -4.834 l -0.1113,0.4707 -1.0547,4.38867 -1.1836,-4.85937 z m 1.6406,1.22656 h 2.6368 l 1.5566,6.38867 1.1934,-0.002 1.5312,-6.38672 h 2.8984 l 1.5821,6.66016 1.1933,0.004 1.6309,-6.66406 h 2.5117 l -2.8789,9.74414 h -3.373 l -1.4571,-5.89258 h -1.1914 l -1.4551,5.89258 h -3.5 z"
         id="path15222" />
      <path
         style="color:#000000;-inkscape-font-specification:'Phantom Sans 0.8 Bold';stroke:none;-inkscape-stroke:none"
         d="m 1203.7676,243.60156 c -1.619,0 -2.959,1.31137 -2.959,2.95703 0,1.62697 1.3321,2.95703 2.959,2.95703 1.6269,0 2.957,-1.33009 2.957,-2.95703 0,-1.64563 -1.3379,-2.95703 -2.957,-2.95703 z m 0,1.22656 c 0.9741,0 1.7285,0.73307 1.7285,1.73047 0,0.96623 -0.7623,1.73047 -1.7285,1.73047 -0.9661,0 -1.7305,-0.76427 -1.7305,-1.73047 0,-0.99737 0.7565,-1.73046 1.7305,-1.73047 z m -2.5352,4.78321 v 12.19726 h 0.6153 4.4531 v -12.19726 z m 1.2285,1.22656 h 2.6133 v 9.74414 h -2.6133 z"
         id="path15224" />
      <path
         style="color:#000000;-inkscape-font-specification:'Phantom Sans 0.8 Bold';stroke:none;-inkscape-stroke:none"
         d="m 1208.5137,245.37109 v 4.24024 h -2.3184 v 4.21875 h 0.6133 1.7051 v 3.30078 c 0,1.70654 0.4249,3.0202 1.3437,3.875 0.9188,0.8548 2.2291,1.17773 3.8086,1.17773 0.8363,0 1.7885,-0.0745 2.6074,-0.26562 l 0.4746,-0.11133 v -4.51562 l -0.705,0.10546 c -0.5235,0.0785 -1.1191,0.19336 -1.6035,0.19336 -0.4286,0 -0.6438,-0.0756 -0.711,-0.13086 -0.067,-0.0553 -0.1484,-0.1606 -0.1484,-0.60156 v -3.02734 h 3.1679 v -4.21875 h -3.1679 v -4.24024 z m 1.2285,1.22852 h 2.6113 v 4.23828 h 3.168 v 1.76563 h -3.168 v 4.2539 c 0,0.63121 0.1705,1.19895 0.5957,1.54883 0.4253,0.34988 0.9463,0.41016 1.4903,0.41016 0.4014,0 0.726,-0.0701 1.082,-0.125 v 2.07812 c -0.5979,0.0994 -1.2501,0.18555 -1.8555,0.18555 -1.4125,0 -2.3705,-0.28744 -2.9726,-0.84766 -0.6022,-0.56022 -0.9512,-1.4666 -0.9512,-2.97656 v -4.52734 h -2.3203 v -1.76563 h 2.3203 z"
         id="path15226" />
      <path
         style="color:#000000;-inkscape-font-specification:'Phantom Sans 0.8 Bold';stroke:none;-inkscape-stroke:none"
         d="m 1217.3906,243.62695 v 18.18164 h 0.6133 4.4531 v -6.62304 c 0,-0.6773 0.1565,-1.06397 0.3496,-1.27735 0.1932,-0.21337 0.4632,-0.32812 0.9317,-0.32812 0.3982,0 0.5763,0.0926 0.7363,0.30469 0.16,0.2121 0.2969,0.63115 0.2969,1.30078 v 6.62304 h 5.0664 v -6.99609 c 0,-1.6631 -0.426,-3.05685 -1.2637,-4.04688 -0.8377,-0.99002 -2.0826,-1.52929 -3.5137,-1.52929 -1.0125,0 -1.8627,0.41369 -2.6035,0.99219 v -6.60157 z m 1.2266,1.22657 h 2.6133 v 9.04492 l 1.1406,-1.91407 c 0.6012,-1.00909 1.4831,-1.52148 2.6894,-1.52148 1.1372,0 1.974,0.38397 2.5762,1.0957 0.6023,0.71173 0.9746,1.80023 0.9746,3.25391 v 5.76953 h -2.6133 v -5.39648 c 0,-0.82643 -0.1501,-1.51561 -0.5449,-2.03907 -0.3948,-0.52345 -1.0408,-0.79296 -1.7148,-0.79296 -0.7035,0 -1.3804,0.2227 -1.8418,0.73242 -0.4614,0.50971 -0.666,1.23099 -0.666,2.09961 v 5.39648 h -2.6133 z"
         id="path15228" />
    </g>
  </g>
</svg>
