<?xml version="1.0" encoding="UTF-8" standalone="no"?>
<svg
   width="77.755249mm"
   height="47.180817mm"
   viewBox="0 0 77.755249 47.180817"
   version="1.1"
   id="svg5"
   xmlns="http://www.w3.org/2000/svg"
   xmlns:svg="http://www.w3.org/2000/svg">
  <defs
     id="defs2">
    <linearGradient
       id="linearGradient10392">
      <stop
         style="stop-color:#000000;stop-opacity:1;"
         offset="0"
         id="stop10390" />
    </linearGradient>
    <linearGradient
       id="linearGradient10386">
      <stop
         style="stop-color:#ffffff;stop-opacity:1;"
         offset="0"
         id="stop10384" />
    </linearGradient>
  </defs>
  <g
     id="layer1"
     transform="translate(-1313.0956,-316.07805)">
    <g
       aria-label="Founder of comma.ai"
       id="text1004-7-1-9"
       style="font-weight:600;font-size:8.61818px;line-height:1.25;font-family:'Phantom Sans 0.8';-inkscape-font-specification:'Phantom Sans 0.8 Semi-Bold';fill:#ffffff;stroke:#b6b6da;stroke-width:0.424121">
      <path
         d="m 1313.3078,362.91751 h 1.1376 v -2.18902 h 2.3355 v -0.97385 h -2.3355 v -1.28411 h 2.4907 v -0.98247 h -3.6283 z"
         style="stroke:#ffffff"
         id="path16321" />
      <path
         d="m 1319.3319,363.04678 c 1.1204,0 2.0339,-0.81011 2.0339,-1.9908 0,-1.17207 -0.9221,-1.98218 -2.0339,-1.98218 -1.1031,0 -2.0253,0.81011 -2.0253,1.98218 0,1.18069 0.905,1.9908 2.0253,1.9908 z m 0,-0.97385 c -0.5515,0 -0.8877,-0.39644 -0.8877,-1.01695 0,-0.61189 0.3534,-1.00832 0.8877,-1.00832 0.543,0 0.8877,0.39643 0.8877,1.00832 0,0.62051 -0.3361,1.01695 -0.8877,1.01695 z"
         style="stroke:#ffffff"
         id="path16323" />
      <path
         d="m 1323.1498,359.20308 h -1.1376 v 2.36999 c 0,0.948 0.5257,1.47371 1.3013,1.47371 0.4482,0 0.8704,-0.22407 1.1204,-0.68945 v 0.56018 h 1.1376 v -3.71443 h -1.1376 v 1.84429 c 0,0.69807 -0.293,1.02556 -0.6809,1.02556 -0.3878,0 -0.6032,-0.27578 -0.6032,-0.81011 z"
         style="stroke:#ffffff"
         id="path16325" />
      <path
         d="m 1326.5022,362.91751 h 1.1376 v -1.95633 c 0,-0.64636 0.3103,-0.93938 0.7757,-0.93938 0.4395,0 0.655,0.29302 0.655,0.86182 v 2.03389 h 1.1376 v -2.17178 c 0,-1.05142 -0.543,-1.67193 -1.3962,-1.67193 -0.5085,0 -0.9221,0.24131 -1.1721,0.70669 v -0.57741 h -1.1376 z"
         style="stroke:#ffffff"
         id="path16327" />
      <path
         d="m 1330.8803,361.05598 c 0,1.28411 0.7842,1.9908 1.646,1.9908 0.5085,0 0.9825,-0.22407 1.2669,-0.68945 v 0.56018 h 1.1376 v -5.86036 h -1.1376 v 2.70611 c -0.2844,-0.46538 -0.7584,-0.68946 -1.2669,-0.68946 -0.8618,0 -1.646,0.70669 -1.646,1.98218 z m 2.0252,-1.03418 c 0.5258,0 0.905,0.38782 0.905,1.03418 0,0.65499 -0.3792,1.0428 -0.905,1.0428 -0.5601,0 -0.8876,-0.44814 -0.8876,-1.0428 0,-0.58603 0.3275,-1.03418 0.8876,-1.03418 z"
         style="stroke:#ffffff"
         id="path16329" />
      <path
         d="m 1337.6283,363.04678 c 0.9135,0 1.6719,-0.474 1.8615,-1.33581 h -1.1289 c -0.078,0.27578 -0.3189,0.46538 -0.7326,0.46538 -0.4654,0 -0.7756,-0.24993 -0.8532,-0.84458 h 2.7492 c 0.01,-0.12928 0.017,-0.24131 0.017,-0.3792 0,-1.10313 -0.7326,-1.87877 -1.9219,-1.87877 -1.1462,0 -1.9736,0.81873 -1.9736,1.98218 0,1.16346 0.8015,1.9908 1.9822,1.9908 z m -0.017,-3.09392 c 0.4567,0 0.767,0.23269 0.8101,0.68945 h -1.6461 c 0.078,-0.48262 0.3878,-0.68945 0.836,-0.68945 z"
         style="stroke:#ffffff"
         id="path16331" />
      <path
         d="m 1340.2569,362.91751 h 1.1376 v -1.68916 c 0,-0.69807 0.2413,-1.03418 1.0169,-1.03418 0.2155,0 0.3964,0.0258 0.6033,0.0603 v -1.14621 c -0.086,-0.0172 -0.1982,-0.0345 -0.3275,-0.0345 -0.5688,0 -1.0428,0.29302 -1.2927,0.88768 v -0.7584 h -1.1376 z"
         style="stroke:#ffffff"
         id="path16333" />
      <path
         d="m 1346.867,363.04678 c 1.1204,0 2.0339,-0.81011 2.0339,-1.9908 0,-1.17207 -0.9222,-1.98218 -2.0339,-1.98218 -1.1031,0 -2.0253,0.81011 -2.0253,1.98218 0,1.18069 0.9049,1.9908 2.0253,1.9908 z m 0,-0.97385 c -0.5516,0 -0.8877,-0.39644 -0.8877,-1.01695 0,-0.61189 0.3534,-1.00832 0.8877,-1.00832 0.5429,0 0.8877,0.39643 0.8877,1.00832 0,0.62051 -0.3361,1.01695 -0.8877,1.01695 z"
         style="stroke:#ffffff"
         id="path16335" />
      <path
         d="m 1349.3146,360.10798 h 0.8618 v 2.80953 h 1.129 v -2.80953 h 1.1376 v -0.9049 h -1.1376 v -0.54295 c 0,-0.54295 0.1637,-0.74978 0.6291,-0.74978 0.1551,0 0.362,0.0258 0.5516,0.0689 v -0.95661 c -0.1552,-0.0517 -0.3706,-0.0948 -0.6378,-0.0948 -1.0859,0 -1.6719,0.60327 -1.6719,1.67192 v 0.60328 h -0.8618 z"
         style="stroke:#ffffff"
         id="path16337" />
      <path
         d="m 1355.5283,361.05598 c 0,-0.70669 0.3619,-1.06865 0.8273,-1.06865 0.362,0 0.655,0.21545 0.7326,0.6636 h 1.172 c -0.1896,-1.1376 -1.06,-1.57713 -1.896,-1.57713 -1.0255,0 -1.9735,0.67222 -1.9735,1.98218 0,1.31859 0.948,1.9908 1.9735,1.9908 0.836,0 1.7064,-0.43091 1.8874,-1.56851 h -1.1634 c -0.086,0.43953 -0.3792,0.65499 -0.7326,0.65499 -0.4654,0 -0.8273,-0.36197 -0.8273,-1.07728 z"
         style="stroke:#ffffff"
         id="path16339" />
      <path
         d="m 1360.7337,363.04678 c 1.1203,0 2.0339,-0.81011 2.0339,-1.9908 0,-1.17207 -0.9222,-1.98218 -2.0339,-1.98218 -1.1032,0 -2.0253,0.81011 -2.0253,1.98218 0,1.18069 0.9049,1.9908 2.0253,1.9908 z m 0,-0.97385 c -0.5516,0 -0.8877,-0.39644 -0.8877,-1.01695 0,-0.61189 0.3533,-1.00832 0.8877,-1.00832 0.5429,0 0.8876,0.39643 0.8876,1.00832 0,0.62051 -0.3361,1.01695 -0.8876,1.01695 z"
         style="stroke:#ffffff"
         id="path16341" />
      <path
         d="m 1363.4742,362.91751 h 1.1376 v -1.92185 c 0,-0.71531 0.3017,-0.97386 0.724,-0.97386 0.4223,0 0.6463,0.29302 0.6463,0.86182 v 2.03389 h 1.1376 v -1.92185 c 0,-0.71531 0.3017,-0.97386 0.724,-0.97386 0.4222,0 0.6549,0.29302 0.6549,0.86182 v 2.03389 h 1.129 v -2.17178 c 0,-1.06865 -0.5515,-1.67193 -1.3875,-1.67193 -0.5774,0 -1.0428,0.29302 -1.2669,0.82735 -0.2241,-0.53433 -0.6636,-0.82735 -1.241,-0.82735 -0.4654,0 -0.8704,0.22408 -1.1204,0.67222 v -0.54294 h -1.1376 z"
         style="stroke:#ffffff"
         id="path16343" />
      <path
         d="m 1370.4981,362.91751 h 1.1376 v -1.92185 c 0,-0.71531 0.3016,-0.97386 0.7239,-0.97386 0.4223,0 0.6464,0.29302 0.6464,0.86182 v 2.03389 h 1.1376 v -1.92185 c 0,-0.71531 0.3016,-0.97386 0.7239,-0.97386 0.4223,0 0.655,0.29302 0.655,0.86182 v 2.03389 h 1.1289 v -2.17178 c 0,-1.06865 -0.5515,-1.67193 -1.3875,-1.67193 -0.5774,0 -1.0428,0.29302 -1.2669,0.82735 -0.224,-0.53433 -0.6636,-0.82735 -1.241,-0.82735 -0.4654,0 -0.8704,0.22408 -1.1203,0.67222 v -0.54294 h -1.1376 z"
         style="stroke:#ffffff"
         id="path16345" />
      <path
         d="m 1377.3237,361.05598 c 0,1.28411 0.7928,1.9908 1.6547,1.9908 0.4998,0 0.9738,-0.22407 1.2582,-0.68083 v 0.55156 h 1.1376 v -3.71443 h -1.1376 v 0.55156 c -0.2844,-0.45676 -0.7584,-0.68084 -1.2582,-0.68084 -0.8619,0 -1.6547,0.70669 -1.6547,1.98218 z m 2.0252,-1.03418 c 0.5344,0 0.9049,0.3792 0.9049,1.03418 0,0.6636 -0.3792,1.0428 -0.9049,1.0428 -0.5601,0 -0.8876,-0.44814 -0.8876,-1.0428 0,-0.58603 0.3275,-1.03418 0.8876,-1.03418 z"
         style="stroke:#ffffff"
         id="path16347" />
      <path
         d="m 1382.96,363.03817 c 0.405,0 0.7411,-0.33611 0.7411,-0.74117 0,-0.41367 -0.3361,-0.74116 -0.7411,-0.74116 -0.4051,0 -0.7412,0.32749 -0.7412,0.74116 0,0.40506 0.3361,0.74117 0.7412,0.74117 z"
         style="stroke:#ffffff"
         id="path16349" />
      <path
         d="m 1384.3475,361.05598 c 0,1.28411 0.7929,1.9908 1.6547,1.9908 0.4998,0 0.9738,-0.22407 1.2582,-0.68083 v 0.55156 h 1.1376 v -3.71443 h -1.1376 v 0.55156 c -0.2844,-0.45676 -0.7584,-0.68084 -1.2582,-0.68084 -0.8618,0 -1.6547,0.70669 -1.6547,1.98218 z m 2.0253,-1.03418 c 0.5343,0 0.9049,0.3792 0.9049,1.03418 0,0.6636 -0.3792,1.0428 -0.9049,1.0428 -0.5602,0 -0.8877,-0.44814 -0.8877,-1.0428 0,-0.58603 0.3275,-1.03418 0.8877,-1.03418 z"
         style="stroke:#ffffff"
         id="path16351" />
      <path
         d="m 1389.8976,358.71184 c 0.4051,0 0.7412,-0.33611 0.7412,-0.74116 0,-0.41368 -0.3361,-0.74117 -0.7412,-0.74117 -0.4051,0 -0.7412,0.32749 -0.7412,0.74117 0,0.40505 0.3361,0.74116 0.7412,0.74116 z m -0.5688,4.20567 h 1.1376 v -3.71443 h -1.1376 z"
         style="stroke:#ffffff"
         id="path16353" />
    </g>
    <g
       aria-label="George 
Hotz"
       id="text1004-3-3-2-7"
       style="font-size:24.354px;line-height:0.85;fill:#ffffff;stroke:#b6b6da;stroke-width:0.98622">
      <path
         d="m 1320.8891,322.84846 v 3.04425 h 3.7748 c -0.3896,2.02138 -1.583,2.84942 -3.5557,2.84942 -2.5084,0 -4.2375,-1.58301 -4.2375,-4.62726 0,-2.72765 1.5586,-4.62726 3.9697,-4.62726 1.656,0 2.8981,0.82803 3.3608,2.14315 h 3.9941 c -1.1203,-3.99406 -4.0672,-5.55271 -7.3549,-5.55271 -4.5299,0 -7.7446,2.99554 -7.7446,8.03682 0,4.99257 3.3852,8.03682 7.6958,8.03682 3.9941,0 6.7461,-2.16751 7.5985,-6.3564 v -2.94683 z"
         style="font-weight:bold;font-family:'Phantom Sans 0.8';-inkscape-font-specification:'Phantom Sans 0.8 Bold';stroke:none"
         id="path16300" />
      <path
         d="m 1335.5502,332.15169 c 2.6546,0 4.9682,-1.33947 5.4796,-3.94535 h -3.7018 c -0.1705,0.68191 -0.7063,1.14464 -1.7778,1.14464 -1.096,0 -1.8753,-0.48708 -2.0945,-2.04574 h 7.6472 c 0.049,-0.41402 0.073,-0.77933 0.073,-1.19335 0,-3.14166 -2.0944,-5.40658 -5.6501,-5.40658 -3.3852,0 -5.7719,2.36233 -5.7719,5.72319 0,3.36085 2.4111,5.72319 5.7963,5.72319 z m -0.073,-8.64567 c 1.1446,0 1.924,0.56014 2.0457,1.70478 h -4.1158 c 0.1948,-1.2177 0.9498,-1.70478 2.0701,-1.70478 z"
         style="font-weight:bold;font-family:'Phantom Sans 0.8';-inkscape-font-specification:'Phantom Sans 0.8 Bold';stroke:none"
         id="path16302" />
      <path
         d="m 1348.0681,332.15169 c 3.2391,0 5.8693,-2.33799 5.8693,-5.72319 0,-3.38521 -2.6546,-5.72319 -5.8693,-5.72319 -3.2147,0 -5.8693,2.33798 -5.8693,5.72319 0,3.3852 2.6302,5.72319 5.8693,5.72319 z m 0,-3.16602 c -1.3638,0 -2.1188,-1.04723 -2.1188,-2.55717 0,-1.50995 0.7793,-2.55717 2.1188,-2.55717 1.3395,0 2.1188,1.04722 2.1188,2.55717 0,1.50994 -0.755,2.55717 -2.1188,2.55717 z"
         style="font-weight:bold;font-family:'Phantom Sans 0.8';-inkscape-font-specification:'Phantom Sans 0.8 Bold';stroke:none"
         id="path16304" />
      <path
         d="m 1355.5692,331.78638 h 3.7505 v -4.99257 c 0,-1.60737 0.6575,-2.48411 2.9225,-2.48411 0.6575,0 1.169,0.0731 1.7535,0.17048 v -3.67746 c -0.2436,-0.0487 -0.6089,-0.0974 -0.9986,-0.0974 -1.6317,0 -2.9468,0.82803 -3.6774,2.50846 v -2.14315 h -3.7505 z"
         style="font-weight:bold;font-family:'Phantom Sans 0.8';-inkscape-font-specification:'Phantom Sans 0.8 Bold';stroke:none"
         id="path16306" />
      <path
         d="m 1364.7993,326.35543 c 0,2.28928 1.0473,4.04277 2.4111,4.96822 l -2.6059,1.29076 c 1.2421,2.53282 3.3365,3.79923 5.9667,3.79923 3.8967,0 6.1129,-2.55717 6.1129,-6.50252 v -8.8405 h -3.7505 v 1.41253 c -0.7793,-1.19335 -2.0701,-1.77784 -3.507,-1.77784 -2.5085,0 -4.6273,2.02138 -4.6273,5.65012 z m 5.9668,-2.60587 c 1.3394,0 2.2162,0.9498 2.2162,2.60587 0,1.65608 -0.9011,2.60588 -2.2162,2.60588 -1.4126,0 -2.2162,-1.12028 -2.2162,-2.60588 0,-1.48559 0.8036,-2.60587 2.2162,-2.60587 z m -1.3638,8.256 c 1.6804,0 2.9468,-0.75497 3.6531,-2.07009 v 0.3166 c 0,2.24057 -0.9011,3.11732 -2.4842,3.11732 -1.0715,0 -1.9726,-0.46273 -2.4841,-1.60737 0.4384,0.17048 0.8768,0.24354 1.3152,0.24354 z"
         style="font-weight:bold;font-family:'Phantom Sans 0.8';-inkscape-font-specification:'Phantom Sans 0.8 Bold';stroke:none"
         id="path16308" />
      <path
         d="m 1384.1121,332.15169 c 2.6546,0 4.9682,-1.33947 5.4796,-3.94535 h -3.7018 c -0.1705,0.68191 -0.7062,1.14464 -1.7778,1.14464 -1.096,0 -1.8753,-0.48708 -2.0945,-2.04574 h 7.6472 c 0.049,-0.41402 0.073,-0.77933 0.073,-1.19335 0,-3.14166 -2.0945,-5.40658 -5.6502,-5.40658 -3.3852,0 -5.7719,2.36233 -5.7719,5.72319 0,3.36085 2.4111,5.72319 5.7963,5.72319 z m -0.073,-8.64567 c 1.1447,0 1.924,0.56014 2.0458,1.70478 h -4.1159 c 0.1949,-1.2177 0.9498,-1.70478 2.0701,-1.70478 z"
         style="font-weight:bold;font-family:'Phantom Sans 0.8';-inkscape-font-specification:'Phantom Sans 0.8 Bold';stroke:none"
         id="path16310" />
      <path
         d="m 1313.729,353.33663 h 3.7749 v -6.03979 h 5.991 v 6.03979 h 3.7749 v -15.34302 h -3.7749 v 6.01544 h -5.991 v -6.01544 h -3.7749 z"
         style="font-weight:bold;font-family:'Phantom Sans 0.8';-inkscape-font-specification:'Phantom Sans 0.8 Bold';stroke:none"
         id="path16312" />
      <path
         d="m 1334.7708,353.70194 c 3.2391,0 5.8694,-2.33799 5.8694,-5.72319 0,-3.38521 -2.6546,-5.72319 -5.8694,-5.72319 -3.2147,0 -5.8693,2.33798 -5.8693,5.72319 0,3.3852 2.6303,5.72319 5.8693,5.72319 z m 0,-3.16602 c -1.3638,0 -2.1188,-1.04722 -2.1188,-2.55717 0,-1.50995 0.7794,-2.55717 2.1188,-2.55717 1.3395,0 2.1188,1.04722 2.1188,2.55717 0,1.50995 -0.7549,2.55717 -2.1188,2.55717 z"
         style="font-weight:bold;font-family:'Phantom Sans 0.8';-inkscape-font-specification:'Phantom Sans 0.8 Bold';stroke:none"
         id="path16314" />
      <path
         d="m 1341.176,345.54335 h 2.2649 v 3.82358 c 0,3.14166 1.5099,4.33501 4.4324,4.33501 0.7793,0 1.6804,-0.0731 2.4111,-0.24354 v -3.23908 c -0.4871,0.0731 -1.096,0.19483 -1.6561,0.19483 -0.9498,0 -1.4369,-0.2679 -1.4369,-1.31512 v -3.55568 h 3.093 v -2.92248 h -3.093 v -4.14018 h -3.7505 v 4.14018 h -2.2649 z"
         style="font-weight:bold;font-family:'Phantom Sans 0.8';-inkscape-font-specification:'Phantom Sans 0.8 Bold';stroke:none"
         id="path16316" />
      <path
         d="m 1351.5995,353.33663 h 9.9607 v -3.04425 h -4.9195 l 4.6029,-5.16305 v -2.50846 h -9.425 v 3.04425 h 4.676 l -4.8951,5.33352 z"
         style="font-weight:bold;font-family:'Phantom Sans 0.8';-inkscape-font-specification:'Phantom Sans 0.8 Bold';stroke:none"
         id="path16318" />
    </g>
  </g>
</svg>
