<svg width="305" height="147" viewBox="0 0 305 147" fill="none" xmlns="http://www.w3.org/2000/svg">
<path fill-rule="evenodd" clip-rule="evenodd" d="M5.61893 -1C5.61893 -1 5.29487 1.88383 4.87476 6.61639C3.37803 23.4765 0.661919 63.8004 7.03447 80.7854C15.1957 102.538 28.2327 103.498 28.2327 103.498C28.2327 103.498 92.8871 59.7792 92.5691 61.1654C92.2512 62.5516 91.5092 55.8339 84.0898 43.3582C76.6704 30.8824 76.6082 5.07792 76.6082 -1" fill="white"/>
<path d="M5.47395 -1C5.47395 -1 -1.0743 59.0328 7.1362 80.7854C15.3466 102.538 32.4748 105.162 32.4748 105.162C32.4748 105.162 95.431 69.8466 94.3216 63.6554C93.2121 57.464 90.0518 51.6081 82.5877 39.1324C75.1236 26.6566 77.1827 5.07792 77.1827 -1" stroke="#17171D" stroke-width="5" stroke-linecap="round" stroke-linejoin="round"/>
<path fill-rule="evenodd" clip-rule="evenodd" d="M93.7345 62.7293C90.5268 59.0247 84.0312 50.7867 52.7886 69.1271C21.5461 87.4675 25.1715 101.223 28.7969 103.675C32.4223 106.128 40.6329 109.647 72.6217 96.6376C104.611 83.6288 96.9422 66.4339 93.7345 62.7293Z" fill="white" stroke="#17171D" stroke-width="5" stroke-linecap="round" stroke-linejoin="round"/>
<path fill-rule="evenodd" clip-rule="evenodd" d="M130.04 32.2366C131.857 31.919 157.815 28.5089 195.355 73.0337C230.816 115.092 287.851 110.254 298.331 108.872C298.679 108.825 298.94 109.464 298.666 109.681L283.207 122.005C282.964 122.199 283.006 122.58 283.289 122.711C285.417 123.706 292.849 127.157 301.262 130.813C301.61 130.964 301.63 131.448 301.27 131.573C293.265 134.343 237.25 152.822 206.122 138.803C172.545 123.679 157.894 107.646 139.094 92.0432C120.58 76.68 109.673 68.8973 95.7693 65.2185C95.7693 65.2185 122.416 39.9654 128.658 33.6287C129.53 32.7432 130.031 32.2382 130.04 32.2366Z" fill="#86FF4E" stroke="#17171D" stroke-width="5"/>
<path fill-rule="evenodd" clip-rule="evenodd" d="M135.32 46.5774C133.513 49.2288 130.305 53.7374 125.368 59.2067C116.505 67.4833 124.536 69.0996 128.53 65.8009C130.82 64.0178 133.235 62.051 133.235 62.051L138.649 67.5074C138.649 67.5074 136.78 70.2503 135.131 72.4728C130.195 77.9426 136.533 79.8743 140.32 75.8962C142.152 73.799 150.158 65.2028 153.522 60.2653C156.497 57.4761 153.018 52.1384 148.306 56.6885C146.203 58.1976 142.268 61.8047 142.268 61.8047C142.268 61.8047 137.764 57.3755 137.797 57.1302C137.833 56.4848 139.135 55.3644 139.761 54.0502C143.568 44.7211 137.75 43.0116 135.32 46.5774Z" fill="black"/>
<path fill-rule="evenodd" clip-rule="evenodd" d="M160.384 67.1444C163.543 64.5785 165.706 64.8838 167.06 65.6755C167.652 66.0028 167.924 67.6261 168.022 69.1123C166.554 77.9468 156.272 90.7785 155.17 91.4557C151.236 94.1098 147.552 91.613 150.86 88.3215C152.658 86.2255 154.406 84.3723 154.406 84.3723L149.491 81.4638C141.868 87.5316 139.702 82.5776 143.346 80.1143C147.399 77.1314 156.144 70.5421 160.384 67.1444ZM154.101 76.5268L158.81 79.6951C158.81 79.6951 164.272 71.3509 162.253 71.5811L154.101 76.5268Z" fill="black"/>
<path fill-rule="evenodd" clip-rule="evenodd" d="M184.115 85.4169C185.647 83.8183 186.181 78.8844 180.954 77.393C173.828 74.2451 165.764 85.5831 165.764 85.5831C165.764 85.5831 161.869 91.079 161.882 96.0258C161.791 100.749 165.892 102.612 166.645 103.072C171.938 103.77 171.741 99.9442 170.988 99.4852C169.997 98.9761 168.545 98.5227 167.842 97.115C166.641 94.7461 168.715 91.0408 170.059 89.1511C172.593 86.0962 177.836 80.1243 180.457 83.3436C181.318 86.8533 183.281 86.3031 184.115 85.4169Z" fill="black"/>
<path fill-rule="evenodd" clip-rule="evenodd" d="M188.77 87.2535C185.803 90.5047 185.558 95.2269 179.167 101.081C177.622 102.518 174.331 104.949 173.907 105.312C170.701 107.811 173.345 111.324 179.793 107.341C181.321 106.454 183.864 103.566 183.864 103.566L185.632 104.135C185.632 104.135 184.187 111.27 183.277 114.195C182.433 117.033 186.488 120.691 188.921 115.47C189.563 113.594 190.033 110.878 190.246 107.255C190.246 107.255 190.494 104.644 189.881 104.014C189.881 104.014 197.538 101.136 198.962 99.3219C200.453 97.4218 200.159 95.5016 194.451 97.1273C188.746 98.7539 187.762 99.6542 187.762 99.6542C187.762 99.6542 190.727 95.699 192.13 92.3236C194.076 88.9607 191.261 84.6068 188.77 87.2535Z" fill="black"/>
<path fill-rule="evenodd" clip-rule="evenodd" d="M212.453 105.946C209.886 106.905 207.282 109.705 205.156 114.757C202.044 122.326 203.205 128.004 208.864 129.526C214.525 131.049 214.997 126.682 214.568 126.339C214.225 126.062 214.327 125.57 211.799 125.409C209.268 125.248 208.067 123.564 208.193 119.639C208.302 116.995 209.773 112.424 212.495 110.726C213.306 110.225 213.855 110.236 214.165 110.197C215.405 110.041 216.143 111.066 216.248 111.291C218.083 114.49 219.6 112.546 219.502 110.165C218.803 106.584 216.499 104.879 212.453 105.946Z" fill="black"/>
<path fill-rule="evenodd" clip-rule="evenodd" d="M224.115 112.016C225.364 109.174 229.269 108.308 227.445 115.101C226.872 119.764 222.987 127.527 223.266 128.534C223.546 129.54 228.539 130.561 229.953 130.699C231.365 130.84 233.381 132.4 232.318 133.399C231.338 134.468 230.114 134.059 229.805 134.097C229.496 134.134 217.883 132.556 218.412 130.362C218.943 128.17 219.338 127.228 220.505 123.613C221.674 119.996 222.865 114.859 224.115 112.016Z" fill="black"/>
<path fill-rule="evenodd" clip-rule="evenodd" d="M237.445 114.786C238.144 112.638 240.794 112.328 241.034 115.079C241.2 117.203 238.953 125.09 239.077 128.888C239.344 130.522 240.961 131.525 242.292 130.733C244.036 129.418 245.311 124.742 246.297 120.972C246.634 119.107 246.728 117.607 247.175 116.681C248.962 113.693 251.155 115.58 250.88 119.344C250.242 123.39 248.646 129.67 247.2 131.508C245.822 133.257 244.187 135.514 241.36 134.972C240.63 134.819 234.748 133.127 235.528 126.207C236.513 119.023 236.746 116.932 237.445 114.786Z" fill="black"/>
<path fill-rule="evenodd" clip-rule="evenodd" d="M257.454 116.502C261.777 115.98 264.642 116.424 266.31 118.039C267.153 119.279 267.02 121.588 265.943 123.14C264.915 124.451 263.767 125.378 263.767 125.378C265.693 126.49 266.262 129.166 265.459 131.971C264.657 134.777 261.061 136.136 255.759 135.594C254.008 135.331 252.36 134.583 252.529 134.008C252.957 132.929 254.713 118.573 254.713 118.573C254.935 117.755 254.898 116.734 257.454 116.502ZM257.854 119.378L257.76 124.13C257.76 124.13 262.634 124.33 263.144 121.899C263.653 119.466 260.463 119.616 257.854 119.378ZM256.961 127.466C256.961 127.466 255.924 132.886 255.975 132.643C256.095 132.313 262.678 133.831 262.807 130.1C262.936 126.371 256.961 127.466 256.961 127.466Z" fill="black"/>
<path d="M95.7724 61.4797L50.1544 104.666L55.4593 106.866L100.256 63.6197L95.7724 61.4797Z" fill="#17171D"/>
<path fill-rule="evenodd" clip-rule="evenodd" d="M79.7745 76.4763C79.9724 76.9569 80.6275 77.8272 81.4099 78.8666C83.5786 81.748 86.7258 85.9292 83.8264 86.7128C79.8812 87.779 81.2674 96.8426 89.0514 94.8167C96.8353 92.7907 99.2877 82.5542 91.8237 78.289C84.3596 74.0238 79.7745 76.4763 79.7745 76.4763ZM67.5477 88.4634L67.5477 88.4635L67.5477 88.4635C69.7165 91.3448 72.8637 95.526 69.9643 96.3097C66.019 97.3759 67.4052 106.44 75.1892 104.414C82.9732 102.388 85.4256 92.151 77.9615 87.8858C70.4974 83.6206 65.9124 86.0732 65.9124 86.0732C66.1103 86.5537 66.7653 87.424 67.5477 88.4634ZM53.6857 98.0602C52.9033 97.0207 52.2483 96.1505 52.0504 95.6699C52.0504 95.6699 56.6355 93.2174 64.0995 97.4825C71.5637 101.748 69.1112 111.985 61.3273 114.01C53.5433 116.036 52.1572 106.973 56.1023 105.907C59.0017 105.123 55.8545 100.942 53.6857 98.0602Z" fill="white"/>
<path d="M81.4099 78.8666L83.4073 77.3632V77.3632L81.4099 78.8666ZM79.7745 76.4763L78.5954 74.2719C77.4636 74.8773 76.9741 76.2414 77.4629 77.4283L79.7745 76.4763ZM83.8264 86.7128L84.4786 89.1263L84.4787 89.1262L83.8264 86.7128ZM89.0514 94.8167L89.681 97.2361L89.6811 97.2361L89.0514 94.8167ZM91.8237 78.289L93.064 76.1184L93.064 76.1184L91.8237 78.289ZM67.5477 88.4635L69.4683 86.863C69.4199 86.8049 69.3689 86.7491 69.3155 86.6957L67.5477 88.4635ZM67.5477 88.4634L65.5503 89.9669C65.6206 90.0603 65.6973 90.1486 65.78 90.2312L67.5477 88.4634ZM67.5477 88.4635L69.5452 86.96C69.5203 86.9271 69.4947 86.8947 69.4683 86.863L67.5477 88.4635ZM69.9643 96.3097L70.6165 98.7231L70.6166 98.7231L69.9643 96.3097ZM75.1892 104.414L74.5595 101.994L74.5594 101.994L75.1892 104.414ZM77.9615 87.8858L79.2019 85.7152L79.2019 85.7152L77.9615 87.8858ZM65.9124 86.0732L64.7333 83.8687C63.6015 84.4741 63.112 85.8382 63.6007 87.0251L65.9124 86.0732ZM52.0504 95.6699L50.8713 93.4655C49.7395 94.0708 49.25 95.435 49.7387 96.6218L52.0504 95.6699ZM53.6857 98.0602L51.6883 99.5636H51.6883L53.6857 98.0602ZM64.0995 97.4825L65.3399 95.3119L65.3399 95.3119L64.0995 97.4825ZM61.3273 114.01L61.957 116.43L61.9571 116.43L61.3273 114.01ZM56.1023 105.907L56.7546 108.32L56.7546 108.32L56.1023 105.907ZM83.4073 77.3632C83.0082 76.833 82.6764 76.3917 82.4187 76.0249C82.2915 75.8437 82.1987 75.7038 82.1345 75.5992C82.0625 75.4818 82.0624 75.4666 82.0862 75.5244L77.4629 77.4283C77.6808 77.9576 78.0491 78.5029 78.3273 78.8989C78.6422 79.3472 79.0292 79.8609 79.4125 80.3701L83.4073 77.3632ZM84.4787 89.1262C85.1612 88.9418 85.8702 88.6014 86.4473 88.0004C87.0418 87.3812 87.3475 86.6398 87.4515 85.9178C87.6379 84.6232 87.1821 83.3795 86.7877 82.5268C85.9565 80.7299 84.438 78.7326 83.4073 77.3632L79.4125 80.3701C80.5505 81.882 81.69 83.416 82.2497 84.626C82.5507 85.2767 82.4737 85.4054 82.5025 85.2052C82.5277 85.0303 82.6205 84.7667 82.8407 84.5374C83.0434 84.3263 83.2164 84.288 83.1741 84.2994L84.4787 89.1262ZM88.4217 92.3973C86.945 92.7817 86.0375 92.5806 85.5143 92.319C84.9767 92.0502 84.5913 91.5918 84.3734 91.0259C84.1445 90.4315 84.1499 89.8429 84.2695 89.4611C84.3258 89.2813 84.3921 89.1928 84.4223 89.1606C84.4429 89.1387 84.4524 89.1333 84.4786 89.1263L83.1742 84.2994C81.1824 84.8377 79.995 86.3801 79.4981 87.9665C79.0113 89.5206 79.1099 91.2712 79.7074 92.8227C80.3159 94.4028 81.49 95.897 83.2782 96.7912C85.081 97.6925 87.2658 97.8647 89.681 97.2361L88.4217 92.3973ZM90.5833 80.4596C93.3285 82.0283 94.1623 84.555 93.7018 86.9136C93.2253 89.3546 91.345 91.6364 88.4216 92.3973L89.6811 97.2361C94.5417 95.971 97.7796 92.1216 98.6092 87.8716C99.455 83.5391 97.7829 78.8149 93.064 76.1184L90.5833 80.4596ZM79.7745 76.4763C80.9537 78.6808 80.9522 78.6816 80.9507 78.6824C80.9503 78.6826 80.9488 78.6834 80.9479 78.6839C80.946 78.6849 80.9442 78.6859 80.9424 78.6868C80.9389 78.6886 80.9356 78.6903 80.9326 78.6919C80.9266 78.695 80.9217 78.6976 80.9177 78.6996C80.9098 78.7036 80.9059 78.7055 80.9059 78.7054C80.9061 78.7054 80.9221 78.6977 80.9535 78.6845C81.0165 78.6581 81.1408 78.6097 81.3233 78.5551C81.6875 78.4463 82.2857 78.3126 83.0962 78.2814C84.6922 78.22 87.2433 78.551 90.5833 80.4596L93.064 76.1184C88.9399 73.7618 85.4665 73.1865 82.904 73.2851C81.6352 73.3339 80.6206 73.5467 79.8919 73.7644C79.5279 73.8732 79.2357 73.983 79.0187 74.074C78.9102 74.1196 78.8204 74.1605 78.7498 74.1942C78.7144 74.2111 78.6839 74.2262 78.6581 74.2393C78.6453 74.2458 78.6336 74.2518 78.6231 74.2572C78.6179 74.26 78.613 74.2626 78.6084 74.265C78.606 74.2662 78.6038 74.2674 78.6016 74.2686C78.6006 74.2691 78.599 74.27 78.5985 74.2702C78.5969 74.2711 78.5954 74.2719 79.7745 76.4763ZM69.3155 86.6957L69.3155 86.6957L65.78 90.2312L65.78 90.2312L69.3155 86.6957ZM69.4683 86.863L69.4683 86.863L65.6272 90.0639L65.6272 90.0639L69.4683 86.863ZM70.6166 98.7231C71.2991 98.5386 72.0081 98.1982 72.5852 97.5972C73.1797 96.978 73.4854 96.2366 73.5893 95.5146C73.7757 94.22 73.32 92.9763 72.9256 92.1236C72.0943 90.3267 70.5759 88.3294 69.5452 86.96L65.5503 89.9669C66.6883 91.4788 67.8279 93.0128 68.3876 94.2228C68.6886 94.8735 68.6116 95.0022 68.6404 94.802C68.6656 94.6272 68.7584 94.3635 68.9785 94.1342C69.1812 93.9231 69.3543 93.8848 69.312 93.8962L70.6166 98.7231ZM74.5594 101.994C73.0827 102.379 72.1753 102.178 71.6522 101.916C71.1146 101.647 70.7292 101.189 70.5113 100.623C70.2824 100.028 70.2877 99.4398 70.4074 99.0579C70.4637 98.8782 70.53 98.7896 70.5602 98.7574C70.5808 98.7355 70.5903 98.7302 70.6165 98.7231L69.3121 93.8962C67.3202 94.4345 66.1328 95.977 65.636 97.5633C65.1491 99.1175 65.2478 100.868 65.8453 102.42C66.4538 104 67.6279 105.494 69.4161 106.388C71.2189 107.289 73.4037 107.462 75.819 106.833L74.5594 101.994ZM76.7212 90.0564C79.4663 91.6251 80.3001 94.1518 79.8397 96.5104C79.3632 98.9514 77.4829 101.233 74.5595 101.994L75.8189 106.833C80.6796 105.568 83.9174 101.718 84.7471 97.4684C85.5928 93.1359 83.9208 88.4117 79.2019 85.7152L76.7212 90.0564ZM65.9124 86.0732C67.0916 88.2776 67.0901 88.2784 67.0886 88.2792C67.0881 88.2794 67.0867 88.2802 67.0857 88.2807C67.0838 88.2817 67.082 88.2827 67.0803 88.2836C67.0768 88.2855 67.0735 88.2872 67.0705 88.2887C67.0645 88.2918 67.0595 88.2944 67.0556 88.2964C67.0476 88.3004 67.0437 88.3023 67.0438 88.3023C67.0439 88.3022 67.0599 88.2945 67.0914 88.2813C67.1543 88.2549 67.2786 88.2065 67.4612 88.152C67.8254 88.0431 68.4235 87.9094 69.234 87.8782C70.8301 87.8168 73.3812 88.1478 76.7212 90.0564L79.2019 85.7152C75.0778 83.3586 71.6044 82.7833 69.0418 82.8819C67.7731 82.9307 66.7584 83.1435 66.0297 83.3612C65.6658 83.47 65.3736 83.5798 65.1566 83.6709C65.0481 83.7164 64.9583 83.7573 64.8876 83.791C64.8523 83.8079 64.8218 83.8231 64.796 83.8361C64.7831 83.8426 64.7715 83.8486 64.761 83.8541C64.7558 83.8568 64.7508 83.8594 64.7462 83.8618C64.7439 83.863 64.7417 83.8642 64.7395 83.8654C64.7384 83.8659 64.7369 83.8668 64.7363 83.8671C64.7348 83.8679 64.7333 83.8687 65.9124 86.0732ZM69.5452 86.96C69.146 86.4298 68.8143 85.9885 68.5566 85.6217C68.4294 85.4406 68.3366 85.3006 68.2724 85.196C68.2004 85.0786 68.2003 85.0634 68.2241 85.1212L63.6007 87.0251C63.8187 87.5544 64.187 88.0997 64.4652 88.4957C64.7801 88.9441 65.167 89.4577 65.5503 89.9669L69.5452 86.96ZM49.7387 96.6218C49.9567 97.1511 50.325 97.6965 50.6032 98.0925C50.9181 98.5408 51.305 99.0544 51.6883 99.5636L55.6832 96.5567C55.284 96.0265 54.9523 95.5852 54.6946 95.2184C54.5674 95.0373 54.4746 94.8974 54.4104 94.7927C54.3384 94.6754 54.3383 94.6602 54.3621 94.718L49.7387 96.6218ZM65.3399 95.3119C61.2158 92.9553 57.7424 92.3801 55.1798 92.4786C53.9111 92.5274 52.8964 92.7402 52.1677 92.958C51.8038 93.0667 51.5116 93.1766 51.2946 93.2676C51.1861 93.3131 51.0963 93.354 51.0257 93.3878C50.9903 93.4047 50.9598 93.4198 50.934 93.4328C50.9211 93.4394 50.9095 93.4454 50.899 93.4508C50.8938 93.4535 50.8889 93.4561 50.8842 93.4586C50.8819 93.4598 50.8797 93.461 50.8775 93.4621C50.8764 93.4627 50.8749 93.4635 50.8743 93.4638C50.8728 93.4646 50.8713 93.4655 52.0504 95.6699C53.2296 97.8744 53.2281 97.8751 53.2266 97.8759C53.2261 97.8762 53.2247 97.877 53.2237 97.8775C53.2218 97.8785 53.22 97.8794 53.2183 97.8804C53.2148 97.8822 53.2115 97.8839 53.2085 97.8855C53.2025 97.8886 53.1975 97.8911 53.1936 97.8932C53.1856 97.8972 53.1817 97.899 53.1818 97.899C53.182 97.8989 53.198 97.8913 53.2294 97.8781C53.2924 97.8517 53.4166 97.8032 53.5992 97.7487C53.9634 97.6399 54.5615 97.5061 55.372 97.4749C56.9681 97.4135 59.5192 97.7446 62.8592 99.6531L65.3399 95.3119ZM61.9571 116.43C66.8177 115.165 70.0555 111.315 70.8852 107.065C71.7309 102.733 70.0589 98.0085 65.3399 95.3119L62.8592 99.6531C65.6044 101.222 66.4382 103.749 65.9778 106.107C65.5013 108.548 63.6209 110.83 60.6976 111.591L61.9571 116.43ZM55.45 103.493C53.4582 104.031 52.2709 105.574 51.774 107.16C51.2872 108.714 51.3859 110.465 51.9834 112.017C52.5918 113.597 53.7659 115.091 55.5542 115.985C57.3569 116.886 59.5418 117.059 61.957 116.43L60.6976 111.591C59.2209 111.975 58.3134 111.774 57.7903 111.513C57.2526 111.244 56.8673 110.786 56.6493 110.22C56.4205 109.625 56.4258 109.037 56.5454 108.655C56.6017 108.475 56.6681 108.386 56.6983 108.354C56.7189 108.332 56.7284 108.327 56.7546 108.32L55.45 103.493ZM51.6883 99.5636C52.8263 101.076 53.9659 102.61 54.5256 103.82C54.8266 104.47 54.7496 104.599 54.7784 104.399C54.8036 104.224 54.8964 103.96 55.1165 103.731C55.3192 103.52 55.4923 103.482 55.45 103.493L56.7546 108.32C57.4372 108.135 58.1461 107.795 58.7232 107.194C59.3177 106.575 59.6234 105.833 59.7274 105.111C59.9138 103.817 59.458 102.573 59.0636 101.72C58.2323 99.9234 56.7139 97.9262 55.6831 96.5567L51.6883 99.5636Z" fill="#252429"/>
</svg>
