<svg width="284" height="140" viewBox="0 0 284 140" fill="none" xmlns="http://www.w3.org/2000/svg">
<path fill-rule="evenodd" clip-rule="evenodd" d="M4.45606 2C4.45606 2 4.15216 4.70449 3.75817 9.14273C2.35452 24.9543 -0.192677 62.7705 5.78357 78.6992C13.4373 99.099 25.6635 99.999 25.6635 99.999C25.6635 99.999 86.2971 58.9994 85.9989 60.2994C85.7007 61.5994 85.0049 55.2994 78.0469 43.5996C71.0889 31.8997 71.0306 7.69994 71.0306 2" fill="white"/>
<path d="M4.3201 2C4.3201 2 -1.82092 58.2994 5.87897 78.6992C13.5788 99.099 29.6418 101.56 29.6418 101.56C29.6418 101.56 88.6828 68.4407 87.6424 62.6345C86.6019 56.8282 83.6381 51.3364 76.6382 39.6366C69.6383 27.9367 71.5693 7.69994 71.5693 2" stroke="#17171D" stroke-width="3" stroke-linecap="round" stroke-linejoin="round"/>
<path fill-rule="evenodd" clip-rule="evenodd" d="M87.0918 61.7661C84.0836 58.2919 77.9919 50.5662 48.6923 67.766C19.3927 84.9658 22.7927 97.8657 26.1926 100.166C29.5926 102.466 37.2925 105.766 67.292 93.5656C97.2916 81.3658 90.1 65.2403 87.0918 61.7661Z" fill="white" stroke="#17171D" stroke-width="3" stroke-linecap="round" stroke-linejoin="round"/>
<path fill-rule="evenodd" clip-rule="evenodd" d="M121.139 33.1697C122.843 32.8719 147.187 29.6738 182.393 71.4297C215.648 110.872 269.136 106.335 278.965 105.039C279.291 104.995 279.536 105.594 279.279 105.798L264.781 117.355C264.553 117.537 264.593 117.895 264.858 118.018C266.854 118.951 273.823 122.187 281.713 125.616C282.04 125.757 282.058 126.211 281.721 126.328C274.214 128.926 221.682 146.256 192.49 133.109C161.001 118.925 147.261 103.889 129.63 89.257C112.268 74.8492 102.039 67.5505 89 64.1005C89 64.1005 113.99 40.4179 119.843 34.4752C120.661 33.6448 121.131 33.1712 121.139 33.1697Z" fill="#B989FF" stroke="#17171D" stroke-width="3"/>
<path fill-rule="evenodd" clip-rule="evenodd" d="M126.091 46.6187C124.396 49.1052 121.388 53.3334 116.758 58.4626C108.446 66.2245 115.978 67.7403 119.723 64.6467C121.871 62.9745 124.136 61.13 124.136 61.13L129.213 66.2471C129.213 66.2471 127.46 68.8194 125.914 70.9037C121.285 76.0333 127.229 77.8449 130.78 74.1142C132.498 72.1474 140.006 64.0858 143.161 59.4554C145.951 56.8396 142.688 51.8339 138.269 56.101C136.297 57.5163 132.607 60.899 132.607 60.899C132.607 60.899 128.383 56.7453 128.414 56.5152C128.448 55.91 129.669 54.8593 130.256 53.6268C133.826 44.8779 128.37 43.2747 126.091 46.6187Z" fill="white"/>
<path fill-rule="evenodd" clip-rule="evenodd" d="M149.596 65.9066C152.559 63.5003 154.587 63.7866 155.857 64.5291C156.412 64.836 156.667 66.3584 156.759 67.7521C155.383 76.0372 145.74 88.0709 144.707 88.706C141.017 91.1951 137.562 88.8535 140.665 85.7667C142.351 83.8011 143.99 82.0631 143.99 82.0631L139.381 79.3355C132.232 85.026 130.201 80.38 133.618 78.0699C137.419 75.2725 145.62 69.093 149.596 65.9066ZM143.704 74.7055L148.12 77.6768C148.12 77.6768 153.243 69.8515 151.349 70.0674L143.704 74.7055Z" fill="white"/>
<path fill-rule="evenodd" clip-rule="evenodd" d="M171.852 83.0428C173.288 81.5436 173.789 76.9165 168.887 75.5179C162.204 72.5657 154.642 83.1986 154.642 83.1986C154.642 83.1986 150.989 88.3527 151.001 92.9919C150.916 97.4218 154.762 99.1683 155.468 99.5995C160.432 100.254 160.247 96.6666 159.541 96.2362C158.612 95.7587 157.25 95.3335 156.591 94.0134C155.464 91.7918 157.409 88.3169 158.67 86.5447C161.046 83.6798 165.963 78.0793 168.421 81.0984C169.229 84.3898 171.069 83.8738 171.852 83.0428Z" fill="white"/>
<path fill-rule="evenodd" clip-rule="evenodd" d="M176.217 84.765C173.434 87.814 173.205 92.2426 167.211 97.7326C165.762 99.0805 162.676 101.36 162.278 101.701C159.272 104.044 161.751 107.339 167.798 103.603C169.231 102.771 171.616 100.063 171.616 100.063L173.274 100.597C173.274 100.597 171.919 107.288 171.066 110.031C170.274 112.693 174.077 116.123 176.359 111.227C176.961 109.467 177.401 106.92 177.601 103.523C177.601 103.523 177.834 101.074 177.259 100.483C177.259 100.483 184.44 97.7844 185.775 96.0829C187.173 94.301 186.898 92.5002 181.545 94.0248C176.194 95.5502 175.272 96.3945 175.272 96.3945C175.272 96.3945 178.052 92.6853 179.368 89.5198C181.193 86.3661 178.553 82.2829 176.217 84.765Z" fill="white"/>
<path fill-rule="evenodd" clip-rule="evenodd" d="M198.427 102.295C196.02 103.195 193.578 105.82 191.584 110.558C188.666 117.657 189.754 122.981 195.061 124.409C200.37 125.837 200.813 121.742 200.411 121.42C200.089 121.16 200.185 120.699 197.814 120.548C195.44 120.397 194.314 118.818 194.432 115.137C194.534 112.657 195.914 108.37 198.467 106.778C199.227 106.308 199.742 106.318 200.033 106.282C201.196 106.136 201.888 107.097 201.986 107.308C203.707 110.308 205.13 108.485 205.038 106.252C204.382 102.894 202.222 101.295 198.427 102.295Z" fill="white"/>
<path fill-rule="evenodd" clip-rule="evenodd" d="M209.364 107.988C210.535 105.322 214.198 104.51 212.487 110.881C211.95 115.254 208.306 122.534 208.568 123.478C208.83 124.422 213.513 125.379 214.839 125.509C216.163 125.641 218.054 127.104 217.057 128.041C216.138 129.043 214.99 128.66 214.7 128.695C214.41 128.73 203.52 127.25 204.016 125.193C204.514 123.137 204.884 122.254 205.979 118.863C207.075 115.471 208.192 110.654 209.364 107.988Z" fill="white"/>
<path fill-rule="evenodd" clip-rule="evenodd" d="M221.865 110.585C222.52 108.571 225.006 108.28 225.231 110.86C225.386 112.852 223.279 120.249 223.395 123.81C223.646 125.343 225.162 126.283 226.41 125.541C228.046 124.307 229.242 119.922 230.166 116.387C230.482 114.638 230.571 113.231 230.99 112.363C232.666 109.56 234.722 111.33 234.464 114.86C233.866 118.654 232.369 124.544 231.013 126.267C229.721 127.908 228.188 130.024 225.536 129.516C224.852 129.373 219.336 127.786 220.067 121.296C220.991 114.559 221.209 112.598 221.865 110.585Z" fill="white"/>
<path fill-rule="evenodd" clip-rule="evenodd" d="M240.63 112.195C244.684 111.705 247.371 112.121 248.935 113.636C249.725 114.799 249.601 116.964 248.591 118.42C247.627 119.649 246.55 120.519 246.55 120.519C248.356 121.561 248.89 124.071 248.137 126.702C247.385 129.333 244.012 130.608 239.04 130.099C237.398 129.853 235.852 129.151 236.011 128.612C236.412 127.6 238.059 114.137 238.059 114.137C238.267 113.37 238.233 112.412 240.63 112.195ZM241.005 114.892L240.917 119.348C240.917 119.348 245.487 119.536 245.966 117.256C246.443 114.974 243.451 115.115 241.005 114.892ZM240.167 122.477C240.167 122.477 239.195 127.56 239.243 127.332C239.355 127.022 245.529 128.446 245.65 124.947C245.771 121.45 240.167 122.477 240.167 122.477Z" fill="white"/>
<path d="M89 62L47 102.362L50.3788 103.867L91.5 64L89 62Z" fill="#17171D"/>
<path fill-rule="evenodd" clip-rule="evenodd" d="M74 74.658C74.1856 75.1087 74.7999 75.9249 75.5336 76.8997C77.5675 79.6018 80.519 83.5231 77.7999 84.2579C74.1 85.2578 75.4 93.7578 82.6999 91.8579C89.9998 89.9579 92.2997 80.358 85.2998 76.358C78.2999 72.358 74 74.658 74 74.658ZM61 83.658C61.1856 84.1087 61.7999 84.9249 62.5336 85.8997C64.5675 88.6018 67.519 92.5231 64.7999 93.2579C61.1 94.2578 62.4 102.758 69.6999 100.858C76.9998 98.9579 79.2997 89.358 72.2998 85.358C65.2999 81.358 61 83.658 61 83.658ZM49.5336 94.8997C48.7999 93.9249 48.1856 93.1087 48 92.658C48 92.658 52.2999 90.3581 59.2998 94.358C66.2998 98.358 63.9998 107.958 56.7 109.858C49.4 111.758 48.1001 103.258 51.7999 102.258C54.519 101.523 51.5675 97.6018 49.5336 94.8997Z" fill="white"/>
<path d="M75.5336 76.8997L76.7321 75.9976L76.7321 75.9976L75.5336 76.8997ZM74 74.658L73.2925 73.3354C72.6134 73.6986 72.3198 74.5171 72.613 75.2292L74 74.658ZM77.7999 84.2579L78.1912 85.706L78.1913 85.706L77.7999 84.2579ZM82.6999 91.8579L83.0777 93.3095L83.0777 93.3095L82.6999 91.8579ZM85.2998 76.358L86.044 75.0556L86.044 75.0556L85.2998 76.358ZM62.5336 85.8997L63.7321 84.9976L63.7321 84.9976L62.5336 85.8997ZM61 83.658L60.2925 82.3354C59.6134 82.6986 59.3198 83.5171 59.613 84.2292L61 83.658ZM64.7999 93.2579L65.1912 94.706L65.1913 94.706L64.7999 93.2579ZM69.6999 100.858L69.3221 99.4062L69.322 99.4062L69.6999 100.858ZM72.2998 85.358L73.044 84.0556L73.044 84.0556L72.2998 85.358ZM48 92.658L47.2925 91.3354C46.6134 91.6986 46.3198 92.5171 46.613 93.2292L48 92.658ZM49.5336 94.8997L48.3352 95.8017L48.3352 95.8017L49.5336 94.8997ZM59.2998 94.358L60.044 93.0556L60.044 93.0556L59.2998 94.358ZM56.7 109.858L57.0778 111.31L57.0778 111.31L56.7 109.858ZM51.7999 102.258L52.1913 103.706L52.1913 103.706L51.7999 102.258ZM76.7321 75.9976C76.3605 75.5039 76.04 75.0779 75.7887 74.7201C75.664 74.5426 75.5661 74.3957 75.4934 74.277C75.4574 74.2184 75.4309 74.172 75.412 74.1368C75.3926 74.1004 75.3862 74.0849 75.387 74.0869L72.613 75.2292C72.7772 75.628 73.0702 76.0692 73.3338 76.4445C73.6195 76.8512 73.9731 77.3207 74.3352 77.8018L76.7321 75.9976ZM78.1913 85.706C78.7232 85.5622 79.2391 85.307 79.6486 84.8805C80.0685 84.4431 80.2879 83.9176 80.3636 83.392C80.5021 82.4303 80.1647 81.4523 79.8105 80.6868C79.0769 79.1008 77.7168 77.306 76.7321 75.9976L74.3352 77.8018C75.3843 79.1956 76.517 80.7124 77.0877 81.9463C77.3858 82.5907 77.4036 82.8997 77.3942 82.9644C77.3942 82.9644 77.3977 82.9416 77.4143 82.9058C77.4317 82.8684 77.4564 82.8321 77.4846 82.8027C77.543 82.7419 77.5563 82.77 77.4085 82.8099L78.1913 85.706ZM82.3221 90.4062C80.7787 90.8079 79.7119 90.6242 79.0052 90.2709C78.2897 89.9131 77.7951 89.3083 77.5248 88.6063C77.2478 87.8872 77.2353 87.1389 77.4095 86.5828C77.5776 86.046 77.8696 85.7929 78.1912 85.706L77.4086 82.8099C75.8803 83.2229 74.9472 84.4073 74.5467 85.6861C74.1521 86.9456 74.2271 88.391 74.7252 89.6844C75.2298 90.9948 76.1977 92.2212 77.6635 92.9541C79.138 93.6914 80.9712 93.8577 83.0777 93.3095L82.3221 90.4062ZM84.5556 77.6603C87.4634 79.322 88.3869 82.0627 87.8901 84.608C87.3835 87.2028 85.3908 89.6075 82.3221 90.4062L83.0777 93.3095C87.3089 92.2082 90.1161 88.863 90.8345 85.1828C91.5626 81.4531 90.1361 77.3939 86.044 75.0556L84.5556 77.6603ZM74 74.658C74.7075 75.9807 74.7066 75.9812 74.7057 75.9817C74.7055 75.9818 74.7046 75.9823 74.7041 75.9825C74.703 75.9831 74.702 75.9837 74.701 75.9842C74.6991 75.9852 74.6974 75.9861 74.696 75.9868C74.6931 75.9883 74.6913 75.9892 74.6904 75.9897C74.6887 75.9906 74.6908 75.9894 74.6968 75.9866C74.7089 75.9808 74.7364 75.968 74.7789 75.9502C74.8639 75.9145 75.0088 75.8587 75.2107 75.7984C75.6138 75.6779 76.2451 75.5391 77.0826 75.5069C78.7426 75.4431 81.2909 75.7948 84.5556 77.6603L86.044 75.0556C82.3088 72.9212 79.2072 72.423 76.9673 72.5091C75.8548 72.5519 74.9736 72.7382 74.3518 72.924C74.0411 73.0168 73.7954 73.1094 73.618 73.1839C73.5293 73.2211 73.4575 73.2539 73.4032 73.2798C73.376 73.2928 73.3531 73.3041 73.3347 73.3135C73.3255 73.3181 73.3173 73.3223 73.3103 73.326C73.3068 73.3278 73.3035 73.3295 73.3006 73.3311C73.2991 73.3319 73.2977 73.3326 73.2963 73.3333C73.2957 73.3337 73.2947 73.3342 73.2944 73.3344C73.2934 73.3349 73.2925 73.3354 74 74.658ZM63.7321 84.9976C63.3605 84.5039 63.04 84.0779 62.7887 83.7201C62.664 83.5426 62.5661 83.3957 62.4934 83.277C62.4574 83.2184 62.4309 83.172 62.412 83.1368C62.3926 83.1004 62.3862 83.0849 62.387 83.0869L59.613 84.2292C59.7772 84.628 60.0702 85.0692 60.3338 85.4445C60.6195 85.8512 60.9731 86.3207 61.3352 86.8018L63.7321 84.9976ZM65.1913 94.706C65.7232 94.5622 66.2391 94.307 66.6486 93.8805C67.0685 93.4431 67.2879 92.9176 67.3636 92.392C67.5021 91.4303 67.1647 90.4523 66.8105 89.6868C66.0769 88.1008 64.7168 86.306 63.7321 84.9976L61.3352 86.8018C62.3843 88.1956 63.517 89.7124 64.0877 90.9463C64.3858 91.5907 64.4036 91.8997 64.3942 91.9644C64.3942 91.9644 64.3977 91.9416 64.4143 91.9058C64.4317 91.8684 64.4564 91.8321 64.4846 91.8027C64.543 91.7419 64.5563 91.77 64.4085 91.8099L65.1913 94.706ZM69.322 99.4062C67.7786 99.808 66.7119 99.6243 66.0051 99.271C65.2897 98.9133 64.7951 98.3084 64.5248 97.6064C64.2478 96.8873 64.2353 96.139 64.4095 95.5829C64.5777 95.046 64.8696 94.7929 65.1912 94.706L64.4086 91.8099C62.8803 92.2229 61.9472 93.4073 61.5467 94.6861C61.1521 95.9456 61.2271 97.3911 61.7252 98.6845C62.2298 99.995 63.1977 101.221 64.6635 101.954C66.138 102.692 67.9712 102.858 70.0778 102.309L69.322 99.4062ZM71.5556 86.6603C74.4634 88.322 75.3869 91.0627 74.8901 93.608C74.3835 96.2028 72.3908 98.6075 69.3221 99.4062L70.0777 102.309C74.3089 101.208 77.1161 97.863 77.8345 94.1828C78.5626 90.4531 77.1361 86.3939 73.044 84.0556L71.5556 86.6603ZM61 83.658C61.7075 84.9807 61.7066 84.9812 61.7057 84.9817C61.7055 84.9818 61.7046 84.9823 61.7041 84.9825C61.703 84.9831 61.702 84.9837 61.701 84.9842C61.6991 84.9852 61.6974 84.9861 61.696 84.9868C61.6931 84.9883 61.6913 84.9892 61.6904 84.9897C61.6887 84.9906 61.6908 84.9894 61.6968 84.9866C61.7089 84.9808 61.7364 84.968 61.7789 84.9502C61.8639 84.9145 62.0088 84.8587 62.2107 84.7984C62.6138 84.6779 63.2451 84.5391 64.0826 84.5069C65.7426 84.4431 68.2909 84.7948 71.5556 86.6603L73.044 84.0556C69.3088 81.9212 66.2072 81.423 63.9673 81.5091C62.8548 81.5519 61.9736 81.7382 61.3518 81.924C61.0411 82.0168 60.7954 82.1094 60.618 82.1839C60.5293 82.2211 60.4575 82.2539 60.4032 82.2798C60.376 82.2928 60.3531 82.3041 60.3347 82.3135C60.3255 82.3181 60.3173 82.3223 60.3103 82.326C60.3068 82.3278 60.3035 82.3295 60.3006 82.3311C60.2991 82.3319 60.2977 82.3326 60.2963 82.3333C60.2957 82.3337 60.2947 82.3342 60.2944 82.3344C60.2934 82.3349 60.2925 82.3354 61 83.658ZM46.613 93.2292C46.7772 93.6279 47.0702 94.0692 47.3338 94.4445C47.6195 94.8512 47.9731 95.3206 48.3352 95.8017L50.7321 93.9976C50.3605 93.5039 50.04 93.0779 49.7887 92.7201C49.664 92.5426 49.5661 92.3957 49.4933 92.277C49.4574 92.2184 49.4309 92.172 49.412 92.1368C49.3926 92.1004 49.3862 92.0849 49.387 92.0869L46.613 93.2292ZM60.044 93.0556C56.3088 90.9212 53.2072 90.423 50.9673 90.5091C49.8548 90.5519 48.9736 90.7382 48.3518 90.924C48.0411 91.0168 47.7954 91.1094 47.618 91.1839C47.5293 91.2211 47.4575 91.2539 47.4032 91.2798C47.376 91.2928 47.3531 91.3041 47.3347 91.3135C47.3255 91.3181 47.3173 91.3223 47.3103 91.326C47.3068 91.3278 47.3035 91.3295 47.3006 91.3311C47.2991 91.3319 47.2977 91.3326 47.2963 91.3333C47.2957 91.3337 47.2947 91.3342 47.2944 91.3344C47.2934 91.3349 47.2925 91.3354 48 92.658C48.7075 93.9807 48.7066 93.9812 48.7057 93.9817C48.7055 93.9818 48.7046 93.9823 48.7041 93.9825C48.703 93.9831 48.702 93.9837 48.701 93.9842C48.6991 93.9852 48.6974 93.9861 48.696 93.9868C48.6931 93.9883 48.6913 93.9892 48.6904 93.9897C48.6887 93.9906 48.6908 93.9894 48.6968 93.9866C48.7089 93.9808 48.7364 93.968 48.7789 93.9502C48.8639 93.9145 49.0088 93.8587 49.2107 93.7984C49.6138 93.6779 50.2451 93.5391 51.0826 93.5069C52.7426 93.4431 55.2909 93.7948 58.5556 95.6603L60.044 93.0556ZM57.0778 111.31C61.3089 110.208 64.1161 106.863 64.8345 103.183C65.5626 99.4532 64.1361 95.3939 60.044 93.0556L58.5556 95.6603C61.4635 97.322 62.387 100.063 61.8901 102.608C61.3836 105.203 59.3909 107.608 56.3222 108.406L57.0778 111.31ZM51.4085 100.81C49.8803 101.223 48.9473 102.407 48.5467 103.686C48.1522 104.946 48.2271 106.391 48.7252 107.685C49.2299 108.995 50.1978 110.221 51.6636 110.954C53.1381 111.692 54.9713 111.858 57.0778 111.31L56.3222 108.406C54.7787 108.808 53.7119 108.624 53.0052 108.271C52.2898 107.913 51.7952 107.309 51.5248 106.606C51.2479 105.887 51.2354 105.139 51.4095 104.583C51.5777 104.046 51.8696 103.793 52.1913 103.706L51.4085 100.81ZM48.3352 95.8017C49.3843 97.1956 50.517 98.7124 51.0877 99.9463C51.3858 100.591 51.4036 100.9 51.3942 100.964C51.3942 100.964 51.3976 100.942 51.4143 100.906C51.4316 100.868 51.4564 100.832 51.4846 100.803C51.543 100.742 51.5563 100.77 51.4085 100.81L52.1913 103.706C52.7233 103.562 53.2392 103.307 53.6486 102.881C54.0686 102.443 54.2879 101.918 54.3636 101.392C54.5021 100.43 54.1647 99.4524 53.8105 98.6868C53.0768 97.1008 51.7168 95.3059 50.7321 93.9976L48.3352 95.8017Z" fill="#252429"/>
</svg>
