<svg width="291" height="184" viewBox="0 0 291 184" fill="none" xmlns="http://www.w3.org/2000/svg">
<path d="M12.12 172.168C11.736 174.304 10.32 175.456 8.088 175.456C5.496 175.456 3.744 173.392 3.744 170.44C3.744 167.488 5.472 165.424 8.088 165.424C10.296 165.424 11.712 166.6 12.096 168.712H15.36C14.568 164.152 11.352 162.52 8.136 162.52C3.6 162.52 0.552 165.832 0.552 170.44C0.552 175.024 3.72 178.36 8.136 178.36C11.352 178.36 14.544 176.848 15.36 172.168H12.12ZM22.2735 178.36C25.3935 178.36 27.9375 176.104 27.9375 172.816C27.9375 169.552 25.3695 167.296 22.2735 167.296C19.2015 167.296 16.6335 169.552 16.6335 172.816C16.6335 176.104 19.1535 178.36 22.2735 178.36ZM22.2735 175.648C20.7375 175.648 19.8015 174.544 19.8015 172.816C19.8015 171.112 20.7855 170.008 22.2735 170.008C23.7855 170.008 24.7455 171.112 24.7455 172.816C24.7455 174.544 23.8095 175.648 22.2735 175.648ZM29.8172 173.968H37.0172V171.184H29.8172V173.968ZM42.1146 172.816C42.1146 170.848 43.1226 169.84 44.4186 169.84C45.4266 169.84 46.2426 170.44 46.4586 171.688H49.7226C49.1946 168.52 46.7706 167.296 44.4426 167.296C41.5866 167.296 38.9466 169.168 38.9466 172.816C38.9466 176.488 41.5866 178.36 44.4426 178.36C46.7706 178.36 49.1946 177.16 49.6986 173.992H46.4586C46.2186 175.216 45.4026 175.816 44.4186 175.816C43.1226 175.816 42.1146 174.808 42.1146 172.816ZM51.5694 178H54.7374V173.296C54.7374 171.352 55.4094 170.416 57.5694 170.416C58.1694 170.416 58.6734 170.488 59.2494 170.584V167.392C59.0094 167.344 58.6974 167.296 58.3374 167.296C56.7534 167.296 55.4334 168.112 54.7374 169.768V167.656H51.5694V178ZM65.7473 178.36C68.2913 178.36 70.4033 177.04 70.9313 174.64H67.7873C67.5713 175.408 66.8993 175.936 65.7473 175.936C64.4513 175.936 63.5873 175.24 63.3713 173.584H71.0273C71.0513 173.224 71.0753 172.912 71.0753 172.528C71.0753 169.456 69.0353 167.296 65.7233 167.296C62.5312 167.296 60.2273 169.576 60.2273 172.816C60.2273 176.056 62.4593 178.36 65.7473 178.36ZM65.6992 169.744C66.9713 169.744 67.8353 170.392 67.9553 171.664H63.3713C63.5873 170.32 64.4513 169.744 65.6992 169.744ZM72.5096 172.816C72.5096 176.392 74.7176 178.36 77.1176 178.36C78.5096 178.36 79.8296 177.736 80.6216 176.464V178H83.7896V167.656H80.6216V169.192C79.8296 167.92 78.5096 167.296 77.1176 167.296C74.7176 167.296 72.5096 169.264 72.5096 172.816ZM78.1496 169.936C79.6376 169.936 80.6696 170.992 80.6696 172.816C80.6696 174.664 79.6136 175.72 78.1496 175.72C76.5896 175.72 75.6776 174.472 75.6776 172.816C75.6776 171.184 76.5896 169.936 78.1496 169.936ZM85.2221 170.176H87.5981V174.256C87.5981 177.184 88.9901 178.36 91.7741 178.36C92.4701 178.36 93.2861 178.288 93.9821 178.144V175.36C93.4781 175.432 92.9021 175.552 92.3501 175.552C91.2701 175.552 90.7421 175.168 90.7421 173.992V170.176H93.9821V167.656H90.7421V163.576H87.5981V167.656H85.2221V170.176ZM101.094 178.36C104.214 178.36 106.758 176.104 106.758 172.816C106.758 169.552 104.19 167.296 101.094 167.296C98.0218 167.296 95.4538 169.552 95.4538 172.816C95.4538 176.104 97.9738 178.36 101.094 178.36ZM101.094 175.648C99.5578 175.648 98.6218 174.544 98.6218 172.816C98.6218 171.112 99.6058 170.008 101.094 170.008C102.606 170.008 103.566 171.112 103.566 172.816C103.566 174.544 102.63 175.648 101.094 175.648ZM108.734 178H111.902V173.296C111.902 171.352 112.574 170.416 114.734 170.416C115.334 170.416 115.838 170.488 116.414 170.584V167.392C116.174 167.344 115.862 167.296 115.502 167.296C113.918 167.296 112.598 168.112 111.902 169.768V167.656H108.734V178ZM127.133 178.36C130.253 178.36 132.797 176.104 132.797 172.816C132.797 169.552 130.229 167.296 127.133 167.296C124.061 167.296 121.493 169.552 121.493 172.816C121.493 176.104 124.013 178.36 127.133 178.36ZM127.133 175.648C125.597 175.648 124.661 174.544 124.661 172.816C124.661 171.112 125.645 170.008 127.133 170.008C128.645 170.008 129.605 171.112 129.605 172.816C129.605 174.544 128.669 175.648 127.133 175.648ZM133.957 170.176H136.357V178H139.501V170.176H142.669V167.656H139.501V166.144C139.501 164.632 139.957 164.056 141.253 164.056C141.685 164.056 142.261 164.128 142.789 164.248V161.584C142.357 161.44 141.757 161.32 141.013 161.32C137.989 161.32 136.357 163 136.357 165.976V167.656H133.957V170.176ZM148.719 178H158.775V175.264H151.887V171.712H158.319V168.976H151.887V165.616H158.775V162.88H148.719V178ZM159.753 170.176H162.129V174.256C162.129 177.184 163.521 178.36 166.305 178.36C167.001 178.36 167.817 178.288 168.513 178.144V175.36C168.009 175.432 167.433 175.552 166.881 175.552C165.801 175.552 165.273 175.168 165.273 173.992V170.176H168.513V167.656H165.273V163.576H162.129V167.656H159.753V170.176ZM170.585 178H173.753V172.552C173.753 170.752 174.617 169.936 175.913 169.936C177.137 169.936 177.737 170.752 177.737 172.336V178H180.905V171.952C180.905 169.024 179.393 167.296 177.017 167.296C175.601 167.296 174.449 167.968 173.753 169.264V161.68H170.585V178ZM188.255 178.36C190.799 178.36 192.911 177.04 193.439 174.64H190.295C190.079 175.408 189.407 175.936 188.255 175.936C186.959 175.936 186.095 175.24 185.879 173.584H193.535C193.559 173.224 193.583 172.912 193.583 172.528C193.583 169.456 191.543 167.296 188.231 167.296C185.039 167.296 182.735 169.576 182.735 172.816C182.735 176.056 184.967 178.36 188.255 178.36ZM188.207 169.744C189.479 169.744 190.343 170.392 190.463 171.664H185.879C186.095 170.32 186.959 169.744 188.207 169.744ZM195.569 178H198.737V173.296C198.737 171.352 199.409 170.416 201.569 170.416C202.169 170.416 202.673 170.488 203.249 170.584V167.392C203.009 167.344 202.697 167.296 202.337 167.296C200.753 167.296 199.433 168.112 198.737 169.768V167.656H195.569V178ZM209.747 178.36C212.291 178.36 214.403 177.04 214.931 174.64H211.787C211.571 175.408 210.899 175.936 209.747 175.936C208.451 175.936 207.587 175.24 207.371 173.584H215.027C215.051 173.224 215.075 172.912 215.075 172.528C215.075 169.456 213.035 167.296 209.723 167.296C206.531 167.296 204.227 169.576 204.227 172.816C204.227 176.056 206.459 178.36 209.747 178.36ZM209.699 169.744C210.971 169.744 211.835 170.392 211.955 171.664H207.371C207.587 170.32 208.451 169.744 209.699 169.744ZM220.062 167.656H216.894V174.256C216.894 176.896 218.358 178.36 220.518 178.36C221.766 178.36 222.942 177.736 223.638 176.44V178H226.806V167.656H223.638V172.792C223.638 174.736 222.822 175.648 221.742 175.648C220.662 175.648 220.062 174.88 220.062 173.392V167.656ZM229.39 178H232.558V172.648C232.558 170.656 233.398 169.936 234.574 169.936C235.75 169.936 236.374 170.752 236.374 172.336V178H239.542V172.648C239.542 170.656 240.382 169.936 241.558 169.936C242.734 169.936 243.382 170.752 243.382 172.336V178H246.526V171.952C246.526 168.976 244.99 167.296 242.662 167.296C241.054 167.296 239.758 168.112 239.134 169.6C238.51 168.112 237.286 167.296 235.678 167.296C234.382 167.296 233.254 167.92 232.558 169.168V167.656H229.39V178Z" fill="url(#paint0_linear_50_5)"/>
<path fill-rule="evenodd" clip-rule="evenodd" d="M62.5732 11.2013L69.3243 15.1898L76.0725 11.2013L69.3243 0L62.5732 11.2013ZM175.102 67.4403H189.552V3.63615H175.102V67.4403ZM0 8.32762H15.951L28.9933 52.709L41.9418 8.32762H57.3299L37.9072 67.4403H19.5166L0 8.32762ZM76.4799 67.4403H62.0302V26.1552H76.4799V67.4403ZM80.7154 37.4148H89.4416V52.146C89.4416 64.2501 95.259 68.8477 106.519 68.8477C109.521 68.8477 112.993 68.5662 115.808 67.9094V55.4301C115.427 55.4872 115.027 55.552 114.613 55.619C112.987 55.8826 111.148 56.1807 109.427 56.1807C105.768 56.1807 103.891 55.1486 103.891 51.1139V37.4148H115.808V26.1552H103.891V10.2042H89.4416V26.1552H80.7154V37.4148ZM138.73 68.8477C129.066 68.8477 120.902 60.966 120.902 46.7978C120.902 32.6295 129.066 24.7478 138.73 24.7478C144.266 24.7478 149.239 26.9997 152.241 31.5974V26.1552H166.691V67.4403H152.241V61.9981C149.239 66.5958 144.266 68.8477 138.73 68.8477ZM152.429 46.7978C152.429 40.2297 149.051 36.4765 143.891 36.4765C138.448 36.4765 135.352 40.8865 135.352 46.7978C135.352 52.709 138.448 57.119 143.891 57.119C148.957 57.119 152.429 53.3658 152.429 46.7978ZM212.459 67.4403H198.01V26.1552H212.459V67.4403ZM220.917 67.4403H235.367V49.6126L248.785 67.4403H266.425L248.972 45.6718L265.111 26.1552H249.348L235.367 42.3878V3.63615H220.917V67.4403ZM0 144.507H25.4278C39.6899 144.507 46.5395 137.094 46.5395 126.773C46.5395 122.081 44.569 116.358 35.1861 113.543C41.848 110.822 44.1937 105.849 44.1937 101.064C44.1937 92.525 38.5639 85.394 23.645 85.394H0V144.507ZM22.1438 96.1844C26.8352 96.1844 29.5563 98.061 29.5563 102.471C29.5563 107.35 27.2106 109.321 21.5808 109.321H14.5436V96.1844H22.1438ZM23.7389 119.642C28.8995 119.642 31.9021 121.988 31.9021 126.773C31.9021 131.37 28.8057 133.716 23.5512 133.716H14.5436V119.642H23.7389ZM66.9386 103.222H52.4888V129.494C52.4888 140.003 58.4001 145.914 67.2201 145.914C71.7239 145.914 76.1339 143.662 78.8549 139.158V144.507H93.3047V103.222H78.8549V124.146C78.8549 130.807 76.2277 133.716 72.8498 133.716C69.2843 133.716 66.9386 130.995 66.9386 125.365V103.222ZM106.214 114.481H97.4874V103.222H106.214V87.2706H120.663V103.222H132.58V114.481H120.663V128.18C120.663 132.215 122.54 133.247 126.199 133.247C127.92 133.247 129.759 132.949 131.385 132.685C131.799 132.618 132.199 132.554 132.58 132.496V144.976C129.765 145.633 126.293 145.914 123.291 145.914C112.031 145.914 106.214 141.316 106.214 129.212V114.481ZM159.818 145.914C170.046 145.914 178.959 140.753 180.93 130.714H166.668C166.011 133.341 163.947 135.124 159.818 135.124C155.596 135.124 152.593 133.247 151.749 127.242H181.211C181.399 125.647 181.493 124.239 181.493 122.644C181.493 110.54 173.423 101.814 159.724 101.814C146.682 101.814 137.487 110.916 137.487 123.864C137.487 136.813 146.776 145.914 159.818 145.914ZM159.537 112.605C163.947 112.605 166.949 114.763 167.418 119.173H151.561C152.312 114.481 155.22 112.605 159.537 112.605ZM202.017 144.507H187.568V103.222H202.017V111.479C204.832 105.004 209.899 101.814 216.186 101.814C217.687 101.814 219.094 102.002 220.033 102.189V116.358C217.781 115.982 215.81 115.701 213.277 115.701C204.551 115.701 202.017 119.079 202.017 125.272V144.507ZM225.869 144.507H240.319V103.222H225.869V144.507ZM263.226 144.507H248.777V103.222H263.226V108.664C265.854 104.254 270.076 101.814 275.33 101.814C284.995 101.814 291 108.758 291 120.486V144.507H276.55V121.894C276.55 116.264 274.392 113.543 270.357 113.543C265.947 113.543 263.226 116.076 263.226 121.894V144.507ZM205.67 15.1898L198.919 11.2013L205.67 0V15.1898ZM226.738 87.4155L233.489 91.4041L240.237 87.4155L233.489 76.2142L226.738 87.4155ZM205.67 15.1898L212.418 11.2013L205.67 0V15.1898ZM62.5732 12.4807L69.3243 21.9916L76.0779 12.4807L69.3243 16.4692L62.5732 12.4807ZM205.67 21.9916L198.919 12.4807L205.67 16.4692V21.9916ZM226.738 88.6949L233.489 98.2058L240.242 88.6949L233.489 92.6834L226.738 88.6949ZM212.424 12.4806L205.67 16.4691V21.9915L212.424 12.4806Z" fill="url(#paint1_linear_50_5)"/>
<defs>
<linearGradient id="paint0_linear_50_5" x1="3.07121" y1="155.075" x2="281.899" y2="187.153" gradientUnits="userSpaceOnUse">
<stop stop-color="#CFC3FB"/>
<stop offset="1" stop-color="#82A9F9"/>
</linearGradient>
<linearGradient id="paint1_linear_50_5" x1="268.93" y1="23.5558" x2="-27.8395" y2="17.5949" gradientUnits="userSpaceOnUse">
<stop stop-color="#82A9F9"/>
<stop offset="1" stop-color="#CDAEFB"/>
</linearGradient>
</defs>
</svg>
