<svg width="937" height="171" viewBox="0 0 937 171" fill="none" xmlns="http://www.w3.org/2000/svg">
<path d="M47.328 82L45.9092 82.4867L46.2568 83.5H47.328V82ZM61.152 82V83.5H63.3093L62.5581 81.4777L61.152 82ZM38.688 21.52L40.0941 20.9977L39.731 20.02H38.688V21.52ZM23.328 21.52V20.02H22.2803L21.9197 21.0036L23.328 21.52ZM1.152 82L-0.256314 81.4836L-0.995655 83.5H1.152V82ZM14.592 82V83.5H15.6632L16.0108 82.4867L14.592 82ZM19.104 68.848V67.348H18.0328L17.6852 68.3612L19.104 68.848ZM42.816 68.848L44.2348 68.3612L43.8872 67.348H42.816V68.848ZM22.752 58.288L21.3318 57.8051L20.6577 59.788H22.752V58.288ZM30.912 34.288L32.3304 33.8001L30.9037 29.6526L29.4918 33.8051L30.912 34.288ZM39.168 58.288V59.788H41.2703L40.5864 57.8001L39.168 58.288ZM47.328 83.5H61.152V80.5H47.328V83.5ZM62.5581 81.4777L40.0941 20.9977L37.2819 22.0423L59.7459 82.5223L62.5581 81.4777ZM38.688 20.02H23.328V23.02H38.688V20.02ZM21.9197 21.0036L-0.256314 81.4836L2.56031 82.5164L24.7363 22.0364L21.9197 21.0036ZM1.152 83.5H14.592V80.5H1.152V83.5ZM16.0108 82.4867L20.5228 69.3347L17.6852 68.3612L13.1732 81.5133L16.0108 82.4867ZM19.104 70.348H42.816V67.348H19.104V70.348ZM41.3972 69.3347L45.9092 82.4867L48.7468 81.5133L44.2348 68.3612L41.3972 69.3347ZM24.1722 58.7709L32.3322 34.7709L29.4918 33.8051L21.3318 57.8051L24.1722 58.7709ZM29.4936 34.7759L37.7496 58.7759L40.5864 57.8001L32.3304 33.8001L29.4936 34.7759ZM39.168 56.788H22.752V59.788H39.168V56.788ZM79.7197 82V83.5H81.2197V82H79.7197ZM79.7197 33.424L81.1475 32.9641L78.2197 33.424H79.7197ZM95.3678 82L93.94 82.4599L94.275 83.5H95.3678V82ZM109.384 82V83.5H110.474L110.811 82.4625L109.384 82ZM125.128 33.424H126.628L123.701 32.9615L125.128 33.424ZM125.128 82H123.628V83.5H125.128V82ZM137.128 82V83.5H138.628V82H137.128ZM137.128 21.52H138.628V20.02H137.128V21.52ZM116.68 21.52V20.02H115.575L115.247 21.0755L116.68 21.52ZM102.472 67.312L101.04 67.7592L102.477 72.3583L103.904 67.7565L102.472 67.312ZM88.1678 21.52L89.5995 21.0728L89.2707 20.02H88.1678V21.52ZM67.7197 21.52V20.02H66.2197V21.52H67.7197ZM67.7197 82H66.2197V83.5H67.7197V82ZM81.2197 82V33.424H78.2197V82H81.2197ZM78.292 33.8839L93.94 82.4599L96.7955 81.5401L81.1475 32.9641L78.292 33.8839ZM95.3678 83.5H109.384V80.5H95.3678V83.5ZM110.811 82.4625L126.555 33.8865L123.701 32.9615L107.957 81.5375L110.811 82.4625ZM123.628 33.424V82H126.628V33.424H123.628ZM125.128 83.5H137.128V80.5H125.128V83.5ZM138.628 82V21.52H135.628V82H138.628ZM137.128 20.02H116.68V23.02H137.128V20.02ZM115.247 21.0755L101.039 66.8675L103.904 67.7565L118.112 21.9645L115.247 21.0755ZM103.904 66.8648L89.5995 21.0728L86.736 21.9672L101.04 67.7592L103.904 66.8648ZM88.1678 20.02H67.7197V23.02H88.1678V20.02ZM66.2197 21.52V82H69.2197V21.52H66.2197ZM67.7197 83.5H79.7197V80.5H67.7197V83.5ZM189.828 82L188.409 82.4867L188.757 83.5H189.828V82ZM203.652 82V83.5H205.809L205.058 81.4777L203.652 82ZM181.188 21.52L182.594 20.9977L182.231 20.02H181.188V21.52ZM165.828 21.52V20.02H164.78L164.42 21.0036L165.828 21.52ZM143.652 82L142.244 81.4836L141.504 83.5H143.652V82ZM157.092 82V83.5H158.163L158.511 82.4867L157.092 82ZM161.604 68.848V67.348H160.533L160.185 68.3612L161.604 68.848ZM185.316 68.848L186.735 68.3612L186.387 67.348H185.316V68.848ZM165.252 58.288L163.832 57.8051L163.158 59.788H165.252V58.288ZM173.412 34.288L174.83 33.8001L173.404 29.6526L171.992 33.8051L173.412 34.288ZM181.668 58.288V59.788H183.77L183.086 57.8001L181.668 58.288ZM189.828 83.5H203.652V80.5H189.828V83.5ZM205.058 81.4777L182.594 20.9977L179.782 22.0423L202.246 82.5223L205.058 81.4777ZM181.188 20.02H165.828V23.02H181.188V20.02ZM164.42 21.0036L142.244 81.4836L145.06 82.5164L167.236 22.0364L164.42 21.0036ZM143.652 83.5H157.092V80.5H143.652V83.5ZM158.511 82.4867L163.023 69.3347L160.185 68.3612L155.673 81.5133L158.511 82.4867ZM161.604 70.348H185.316V67.348H161.604V70.348ZM183.897 69.3347L188.409 82.4867L191.247 81.5133L186.735 68.3612L183.897 69.3347ZM166.672 58.7709L174.832 34.7709L171.992 33.8051L163.832 57.8051L166.672 58.7709ZM171.994 34.7759L180.25 58.7759L183.086 57.8001L174.83 33.8001L171.994 34.7759ZM181.668 56.788H165.252V59.788H181.668V56.788ZM250.318 40.624V39.124H249.157L248.866 40.247L250.318 40.624ZM243.214 67.984L241.759 68.3514L244.666 68.361L243.214 67.984ZM236.302 40.624L237.756 40.2566L237.47 39.124H236.302V40.624ZM223.246 40.624V39.124H221.24L221.807 41.048L223.246 40.624ZM235.438 82L233.999 82.424L234.316 83.5H235.438V82ZM249.934 82V83.5H251.089L251.384 82.3825L249.934 82ZM256.846 55.792L258.296 55.4095L256.846 49.91L255.395 55.4095L256.846 55.792ZM263.758 82L262.307 82.3825L262.602 83.5H263.758V82ZM277.87 82V83.5H278.992L279.309 82.424L277.87 82ZM290.062 40.624L291.501 41.048L292.068 39.124H290.062V40.624ZM277.39 40.624V39.124H276.223L275.936 40.2543L277.39 40.624ZM270.286 68.56L268.833 68.9344L271.739 68.9297L270.286 68.56ZM263.086 40.624L264.538 40.2496L264.248 39.124H263.086V40.624ZM248.866 40.247L241.762 67.607L244.666 68.361L251.77 41.001L248.866 40.247ZM244.668 67.6166L237.756 40.2566L234.847 40.9914L241.759 68.3514L244.668 67.6166ZM236.302 39.124H223.246V42.124H236.302V39.124ZM221.807 41.048L233.999 82.424L236.877 81.576L224.685 40.2L221.807 41.048ZM235.438 83.5H249.934V80.5H235.438V83.5ZM251.384 82.3825L258.296 56.1745L255.395 55.4095L248.483 81.6175L251.384 82.3825ZM255.395 56.1745L262.307 82.3825L265.208 81.6175L258.296 55.4095L255.395 56.1745ZM263.758 83.5H277.87V80.5H263.758V83.5ZM279.309 82.424L291.501 41.048L288.623 40.2L276.431 81.576L279.309 82.424ZM290.062 39.124H277.39V42.124H290.062V39.124ZM275.936 40.2543L268.832 68.1903L271.739 68.9297L278.843 40.9937L275.936 40.2543ZM271.738 68.1856L264.538 40.2496L261.633 40.9984L268.833 68.9344L271.738 68.1856ZM263.086 39.124H250.318V42.124H263.086V39.124ZM296.371 82H294.871V83.5H296.371V82ZM309.043 82V83.5H310.543V82H309.043ZM309.043 40.624H310.543V39.124H309.043V40.624ZM296.371 40.624V39.124H294.871V40.624H296.371ZM302.707 36.652C308.048 36.652 312.464 32.2364 312.464 26.896H309.464C309.464 30.5796 306.391 33.652 302.707 33.652V36.652ZM312.464 26.896C312.464 21.4482 308.037 17.14 302.707 17.14V20.14C306.402 20.14 309.464 23.1278 309.464 26.896H312.464ZM302.707 17.14C297.378 17.14 292.952 21.4482 292.952 26.896H295.952C295.952 23.1278 299.013 20.14 302.707 20.14V17.14ZM292.952 26.896C292.952 32.2364 297.367 36.652 302.707 36.652V33.652C299.024 33.652 295.952 30.5796 295.952 26.896H292.952ZM296.371 83.5H309.043V80.5H296.371V83.5ZM310.543 82V40.624H307.543V82H310.543ZM309.043 39.124H296.371V42.124H309.043V39.124ZM294.871 40.624V82H297.871V40.624H294.871ZM314.826 50.704H313.326V52.204H314.826V50.704ZM324.33 50.704H325.83V49.204H324.33V50.704ZM349.866 82.576L350.17 84.0449L351.366 83.7974V82.576H349.866ZM349.866 71.44H351.366V69.7105L349.654 69.9551L349.866 71.44ZM336.906 50.704V49.204H335.406V50.704H336.906ZM349.866 50.704V52.204H351.366V50.704H349.866ZM349.866 40.624H351.366V39.124H349.866V40.624ZM336.906 40.624H335.406V42.124H336.906V40.624ZM336.906 24.304H338.406V22.804H336.906V24.304ZM324.33 24.304V22.804H322.83V24.304H324.33ZM324.33 40.624V42.124H325.83V40.624H324.33ZM314.826 40.624V39.124H313.326V40.624H314.826ZM314.826 52.204H324.33V49.204H314.826V52.204ZM322.83 50.704V67.024H325.83V50.704H322.83ZM322.83 67.024C322.83 73.0906 324.271 77.6755 327.474 80.7124C330.66 83.7337 335.295 84.94 341.034 84.94V81.94C335.637 81.94 331.92 80.7943 329.538 78.5356C327.173 76.2925 325.83 72.6694 325.83 67.024H322.83ZM341.034 84.94C343.905 84.94 347.273 84.6443 350.17 84.0449L349.562 81.1071C346.891 81.6596 343.731 81.94 341.034 81.94V84.94ZM351.366 82.576V71.44H348.366V82.576H351.366ZM349.654 69.9551C347.503 70.2623 345.404 70.708 343.338 70.708V73.708C345.688 73.708 348.197 73.1937 350.078 72.9249L349.654 69.9551ZM343.338 70.708C341.295 70.708 340.159 70.3321 339.512 69.7427C338.896 69.1827 338.406 68.1349 338.406 65.968H335.406C335.406 68.5051 335.972 70.5773 337.492 71.9613C338.981 73.3159 341.061 73.708 343.338 73.708V70.708ZM338.406 65.968V50.704H335.406V65.968H338.406ZM336.906 52.204H349.866V49.204H336.906V52.204ZM351.366 50.704V40.624H348.366V50.704H351.366ZM349.866 39.124H336.906V42.124H349.866V39.124ZM338.406 40.624V24.304H335.406V40.624H338.406ZM336.906 22.804H324.33V25.804H336.906V22.804ZM322.83 24.304V40.624H325.83V24.304H322.83ZM324.33 39.124H314.826V42.124H324.33V39.124ZM313.326 40.624V50.704H316.326V40.624H313.326ZM358.153 82H356.653V83.5H358.153V82ZM370.825 82V83.5H372.325V82H370.825ZM386.761 82H385.261V83.5H386.761V82ZM399.433 82V83.5H400.933V82H399.433ZM370.825 47.056H369.325L372.146 47.7657L370.825 47.056ZM370.825 16.72H372.325V15.22H370.825V16.72ZM358.153 16.72V15.22H356.653V16.72H358.153ZM358.153 83.5H370.825V80.5H358.153V83.5ZM372.325 82V60.208H369.325V82H372.325ZM372.325 60.208C372.325 56.827 373.137 54.617 374.326 53.2677C375.49 51.9466 377.198 51.244 379.465 51.244V48.244C376.548 48.244 373.935 49.1734 372.075 51.2843C370.24 53.367 369.325 56.389 369.325 60.208H372.325ZM379.465 51.244C381.547 51.244 382.88 51.9158 383.751 53.0709C384.681 54.3051 385.261 56.3229 385.261 59.344H388.261C388.261 56.029 387.64 53.2469 386.147 51.2651C384.593 49.2042 382.278 48.244 379.465 48.244V51.244ZM385.261 59.344V82H388.261V59.344H385.261ZM386.761 83.5H399.433V80.5H386.761V83.5ZM400.933 82V57.808H397.933V82H400.933ZM400.933 57.808C400.933 51.7082 399.358 46.6722 396.366 43.1353C393.349 39.569 389.023 37.684 383.881 37.684V40.684C388.243 40.684 391.692 42.255 394.076 45.0727C396.484 47.9198 397.933 52.1958 397.933 57.808H400.933ZM383.881 37.684C377.665 37.684 372.549 40.6753 369.503 46.3463L372.146 47.7657C374.669 43.0687 378.769 40.684 383.881 40.684V37.684ZM372.325 47.056V16.72H369.325V47.056H372.325ZM370.825 15.22H358.153V18.22H370.825V15.22ZM356.653 16.72V82H359.653V16.72H356.653Z" fill="#8AAAF9"/>
<path d="M57.8896 75.6779H33L63.4531 168.783H92.1493L122.456 75.6779H98.4449L78.2405 145.581L57.8896 75.6779Z" fill="url(#paint0_linear_41_3)"/>
<path d="M129.79 168.783H152.337V103.757H129.79V168.783Z" fill="url(#paint1_linear_41_3)"/>
<path d="M158.946 121.492H172.562V144.694C172.562 163.759 181.64 171 199.209 171C203.894 171 209.311 170.557 213.703 169.522V149.867C210.775 150.31 207.115 151.049 203.747 151.049C198.038 151.049 195.109 149.423 195.109 143.068V121.492H213.703V103.757H195.109V78.6336H172.562V103.757H158.946V121.492Z" fill="url(#paint2_linear_41_3)"/>
<path d="M221.653 136.27C221.653 158.586 234.39 171 249.471 171C258.109 171 265.868 167.453 270.554 160.212V168.783H293.101V103.757H270.554V112.329C265.868 105.087 258.109 101.541 249.471 101.541C234.39 101.541 221.653 113.955 221.653 136.27ZM257.523 120.014C265.576 120.014 270.846 125.925 270.846 136.27C270.846 146.615 265.429 152.527 257.523 152.527C249.031 152.527 244.2 145.581 244.2 136.27C244.2 126.96 249.031 120.014 257.523 120.014Z" fill="url(#paint3_linear_41_3)"/>
<path d="M306.225 168.783H328.772V68.2886H306.225V168.783Z" fill="url(#paint4_linear_41_3)"/>
<path d="M341.969 168.783H364.516V103.757H341.969V168.783Z" fill="url(#paint5_linear_41_3)"/>
<path d="M377.714 168.783H400.261V140.704L421.197 168.783H448.722L421.49 134.497L446.672 103.757H422.076L400.261 129.324V68.2886H377.714V168.783Z" fill="url(#paint6_linear_41_3)"/>
<path d="M482.373 168.783H522.05C544.305 168.783 554.992 157.108 554.992 140.852C554.992 133.462 551.918 124.447 537.277 120.014C547.672 115.728 551.332 107.895 551.332 100.358C551.332 86.9097 542.548 75.6779 519.269 75.6779H482.373V168.783ZM516.926 92.6733C524.246 92.6733 528.492 95.6291 528.492 102.575C528.492 110.26 524.832 113.363 516.048 113.363H505.067V92.6733H516.926ZM519.415 129.62C527.467 129.62 532.153 133.315 532.153 140.852C532.153 148.093 527.321 151.788 519.122 151.788H505.067V129.62H519.415Z" fill="url(#paint7_linear_41_3)"/>
<path d="M586.823 103.757H564.276V145.137C564.276 161.69 573.499 171 587.262 171C594.29 171 601.171 167.453 605.417 160.36V168.783H627.964V103.757H605.417V136.714C605.417 147.207 601.317 151.788 596.046 151.788C590.483 151.788 586.823 147.502 586.823 138.635V103.757Z" fill="url(#paint8_linear_41_3)"/>
<path d="M634.49 121.492H648.106V144.694C648.106 163.759 657.184 171 674.753 171C679.438 171 684.855 170.557 689.247 169.522V149.867C686.319 150.31 682.659 151.049 679.292 151.049C673.582 151.049 670.653 149.423 670.653 143.068V121.492H689.247V103.757H670.653V78.6336H648.106V103.757H634.49V121.492Z" fill="url(#paint9_linear_41_3)"/>
<path d="M731.75 171C747.708 171 761.617 162.872 764.692 147.059H742.437C741.413 151.197 738.192 154.005 731.75 154.005C725.161 154.005 720.476 151.049 719.158 141.591H765.131C765.424 139.078 765.57 136.861 765.57 134.349C765.57 115.285 752.979 101.541 731.603 101.541C711.252 101.541 696.904 115.876 696.904 136.27C696.904 156.665 711.399 171 731.75 171ZM731.31 118.536C738.192 118.536 742.877 121.935 743.609 128.881H718.865C720.037 121.492 724.575 118.536 731.31 118.536Z" fill="url(#paint10_linear_41_3)"/>
<path d="M775.049 168.783H797.596V138.487C797.596 128.733 801.549 123.413 815.165 123.413C819.118 123.413 822.193 123.856 825.707 124.447V102.132C824.242 101.836 822.046 101.541 819.704 101.541C809.894 101.541 801.988 106.565 797.596 116.763V103.757H775.049V168.783Z" fill="url(#paint11_linear_41_3)"/>
<path d="M834.814 168.783H857.361V103.757H834.814V168.783Z" fill="url(#paint12_linear_41_3)"/>
<path d="M870.558 168.783H893.105V133.167C893.105 124.004 897.351 120.014 904.232 120.014C910.528 120.014 913.895 124.3 913.895 133.167V168.783H936.442V130.95C936.442 112.477 927.072 101.541 911.992 101.541C903.793 101.541 897.205 105.383 893.105 112.329V103.757H870.558V168.783Z" fill="url(#paint13_linear_41_3)"/>
<path d="M131.52 80.1114L141.172 85.814V64.0962L131.52 80.1114Z" fill="#CDAEFB"/>
<path d="M343.23 80.1114L352.883 85.814V64.0962L343.23 80.1114Z" fill="#CDAEFB"/>
<path d="M835.827 78.0152L845.479 83.7178V62L835.827 78.0152Z" fill="#90AAF9"/>
<path d="M141.171 64.0962V85.814L150.819 80.1114L141.171 64.0962Z" fill="#CDAEFB"/>
<path d="M352.883 64.0962V85.814L362.531 80.1114L352.883 64.0962Z" fill="#CDAEFB"/>
<path d="M845.479 62V83.7178L855.127 78.0152L845.479 62Z" fill="#90AAF9"/>
<path d="M131.52 81.9404L141.172 95.5387V87.6431L131.52 81.9404Z" fill="#CDAEFB"/>
<path d="M343.23 81.9404L352.883 95.5387V87.6431L343.23 81.9404Z" fill="#CDAEFB"/>
<path d="M835.827 79.8442L845.479 93.4426V85.5469L835.827 79.8442Z" fill="#90AAF9"/>
<path d="M141.171 87.6431V95.5387L150.827 81.9404L141.171 87.6431Z" fill="#CDAEFB"/>
<path d="M352.883 87.6431V95.5387L362.539 81.9404L352.883 87.6431Z" fill="#CDAEFB"/>
<path d="M845.479 85.5469V93.4426L855.135 79.8442L845.479 85.5469Z" fill="#90AAF9"/>
<defs>
<linearGradient id="paint0_linear_41_3" x1="80.3086" y1="67.1802" x2="1023.07" y2="180.527" gradientUnits="userSpaceOnUse">
<stop stop-color="#CDAEFB"/>
<stop offset="1" stop-color="#82A9F9"/>
</linearGradient>
<linearGradient id="paint1_linear_41_3" x1="80.3086" y1="67.1802" x2="1023.07" y2="180.527" gradientUnits="userSpaceOnUse">
<stop stop-color="#CDAEFB"/>
<stop offset="1" stop-color="#82A9F9"/>
</linearGradient>
<linearGradient id="paint2_linear_41_3" x1="80.3086" y1="67.1802" x2="1023.07" y2="180.527" gradientUnits="userSpaceOnUse">
<stop stop-color="#CDAEFB"/>
<stop offset="1" stop-color="#82A9F9"/>
</linearGradient>
<linearGradient id="paint3_linear_41_3" x1="80.3086" y1="67.1802" x2="1023.07" y2="180.527" gradientUnits="userSpaceOnUse">
<stop stop-color="#CDAEFB"/>
<stop offset="1" stop-color="#82A9F9"/>
</linearGradient>
<linearGradient id="paint4_linear_41_3" x1="80.3086" y1="67.1802" x2="1023.07" y2="180.527" gradientUnits="userSpaceOnUse">
<stop stop-color="#CDAEFB"/>
<stop offset="1" stop-color="#82A9F9"/>
</linearGradient>
<linearGradient id="paint5_linear_41_3" x1="80.3086" y1="67.1802" x2="1023.07" y2="180.527" gradientUnits="userSpaceOnUse">
<stop stop-color="#CDAEFB"/>
<stop offset="1" stop-color="#82A9F9"/>
</linearGradient>
<linearGradient id="paint6_linear_41_3" x1="80.3086" y1="67.1802" x2="1023.07" y2="180.527" gradientUnits="userSpaceOnUse">
<stop stop-color="#CDAEFB"/>
<stop offset="1" stop-color="#82A9F9"/>
</linearGradient>
<linearGradient id="paint7_linear_41_3" x1="80.3086" y1="67.1802" x2="1023.07" y2="180.527" gradientUnits="userSpaceOnUse">
<stop stop-color="#CDAEFB"/>
<stop offset="1" stop-color="#82A9F9"/>
</linearGradient>
<linearGradient id="paint8_linear_41_3" x1="80.3086" y1="67.1802" x2="1023.07" y2="180.527" gradientUnits="userSpaceOnUse">
<stop stop-color="#CDAEFB"/>
<stop offset="1" stop-color="#82A9F9"/>
</linearGradient>
<linearGradient id="paint9_linear_41_3" x1="80.3086" y1="67.1802" x2="1023.07" y2="180.527" gradientUnits="userSpaceOnUse">
<stop stop-color="#CDAEFB"/>
<stop offset="1" stop-color="#82A9F9"/>
</linearGradient>
<linearGradient id="paint10_linear_41_3" x1="80.3086" y1="67.1802" x2="1023.07" y2="180.527" gradientUnits="userSpaceOnUse">
<stop stop-color="#CDAEFB"/>
<stop offset="1" stop-color="#82A9F9"/>
</linearGradient>
<linearGradient id="paint11_linear_41_3" x1="80.3086" y1="67.1802" x2="1023.07" y2="180.527" gradientUnits="userSpaceOnUse">
<stop stop-color="#CDAEFB"/>
<stop offset="1" stop-color="#82A9F9"/>
</linearGradient>
<linearGradient id="paint12_linear_41_3" x1="80.3086" y1="67.1802" x2="1023.07" y2="180.527" gradientUnits="userSpaceOnUse">
<stop stop-color="#CDAEFB"/>
<stop offset="1" stop-color="#82A9F9"/>
</linearGradient>
<linearGradient id="paint13_linear_41_3" x1="80.3086" y1="67.1802" x2="1023.07" y2="180.527" gradientUnits="userSpaceOnUse">
<stop stop-color="#CDAEFB"/>
<stop offset="1" stop-color="#82A9F9"/>
</linearGradient>
</defs>
</svg>
