<svg width="945" height="616" viewBox="0 0 945 616" fill="none" xmlns="http://www.w3.org/2000/svg">
<g clip-path="url(#clip0_1_3)">
<path d="M436.5 617V580.5L473 617" stroke="#151212" stroke-width="3"/>
<path d="M946.5 284H791L753.5 321.5L832 400H946.5" stroke="#151212" stroke-width="3"/>
<path d="M717 618V529L665.5 477.5" stroke="#151212" stroke-width="3"/>
<path d="M79 618L143.5 553.5" stroke="#151212" stroke-width="3"/>
<path d="M351.5 209V133L287.5 69V0.5" stroke="#151212" stroke-width="3"/>
<path d="M384 208V111L324.5 51.5V15.5H384V-9" stroke="#151212" stroke-width="3"/>
<path d="M412.5 209V138.5L435 116L367.5 48.5" stroke="#151212" stroke-width="3"/>
<path d="M443.5 207V145" stroke="#151212" stroke-width="3"/>
<circle cx="364" cy="42" r="10" fill="#151212"/>
<circle cx="295" cy="209" r="9.5" stroke="black"/>
<circle cx="658" cy="76" r="9.5" stroke="black"/>
<circle cx="885" cy="530" r="9.5" stroke="black"/>
<circle cx="895" cy="351" r="9.5" stroke="black"/>
<circle cx="18" cy="216" r="9.5" stroke="black"/>
<circle cx="179" cy="512" r="9.5" stroke="black"/>
<circle cx="444" cy="36" r="10" fill="#151212"/>
<circle cx="443" cy="143" r="10" fill="#151212"/>
<circle cx="873" cy="215" r="10" fill="#151212"/>
<circle cx="709" cy="371" r="10" fill="#151212"/>
<circle cx="562" cy="492" r="10" fill="#151212"/>
<circle cx="663" cy="477" r="10" fill="#151212"/>
<circle cx="412" cy="452" r="10" fill="#151212"/>
<circle cx="361" cy="567" r="10" fill="#151212"/>
<circle cx="146" cy="551" r="10" fill="#151212"/>
<path d="M381.5 408V473.5L361.5 493.5V567" stroke="#151212" stroke-width="3"/>
<path d="M350.5 407.5V457L236.5 571V620.5" stroke="#151212" stroke-width="3"/>
<path d="M532 407V616" stroke="#151212" stroke-width="3"/>
<path d="M502 407V469L441 530V557L506 622" stroke="#151212" stroke-width="3"/>
<circle cx="912" cy="445" r="10" fill="#151212"/>
<path d="M473 207V109L409 45V16H478.5V74L441 36.5" stroke="#151212" stroke-width="3"/>
<path d="M504 207V2" stroke="#151212" stroke-width="3"/>
<path d="M534.5 207V113.5L605.5 42.5V-0.5" stroke="#151212" stroke-width="3"/>
<path d="M565.5 207.5V125L643.5 47H774V-1.5" stroke="#151212" stroke-width="3"/>
<path d="M595 208V144.5H799V31.5H876V-15.5" stroke="#151212" stroke-width="3"/>
<path d="M628 250.5H652.5L726 177H831.5V58.5H948.5" stroke="#151212" stroke-width="3"/>
<path d="M627.5 279.5H679L743.5 215H866" stroke="#151212" stroke-width="3"/>
<path d="M943.5 84H903V258H761.5L710 309.5H627" stroke="#151212" stroke-width="3"/>
<path d="M627 339H724L829.5 444.5H907" stroke="#151212" stroke-width="3"/>
<path d="M627 369L709 369" stroke="#151212" stroke-width="3"/>
<path d="M595 405.5V500.5L641.5 547V623.5" stroke="#151212" stroke-width="3"/>
<path d="M562 409.5V487" stroke="#151212" stroke-width="3"/>
<path d="M473 405.5V460.5L416 517.5V625" stroke="#151212" stroke-width="3"/>
<path d="M442.5 408V455L388 509.5V592H277V649" stroke="#151212" stroke-width="3"/>
<path d="M412 407V447.5" stroke="#151212" stroke-width="3"/>
<path d="M670.5 614V528L627 484.5V424H662L760 522V641" stroke="#151212" stroke-width="3"/>
<path d="M318 246.5H258V137L220.5 99.5V-3" stroke="#151212" stroke-width="3"/>
<path d="M317 278.5H227.5V146H183.5V306.5H-5.5" stroke="#151212" stroke-width="3"/>
<path d="M319 310H222.5L181 351.5H0" stroke="#151212" stroke-width="3"/>
<path d="M321.5 338H237V367.5H317.5" stroke="#151212" stroke-width="3"/>
<path d="M3 383H157L260 486L128 618" stroke="#151212" stroke-width="3"/>
<path d="M0.5 421H147.5L181 454.5H0.5" stroke="#151212" stroke-width="3"/>
<path d="M554.5 614.5V527.5H585L612 554.5V617" stroke="#151212" stroke-width="3"/>
<path d="M236.5 0.5V88.5L275 127V228.5H315V192.5H334.5V143L269 77.5V0.5" stroke="#151212"/>
<path d="M208.031 -3V105.826L222 125H185V-3" stroke="#151212"/>
<path d="M0.5 7.5H170V95L-5 270" stroke="#151212"/>
<path d="M-2 19H153V87.5L25.8328 210" stroke="#151212"/>
<path d="M-18.4038 35H92V76.8495H48.1262L-22 174" stroke="#151212"/>
<path d="M-7 474H199.937L226 499L176.481 546.5L141.036 512.5L23.7539 625" stroke="#151212"/>
<path d="M253 0.5V82L294 123V199.5" stroke="#151212"/>
<path d="M-7 493H179V502" stroke="#151212"/>
<path d="M1 507.5H121L9.5 619" stroke="#151212"/>
<path d="M784.5 614.5V521L834.5 471H900.5L931 501.5H956.5" stroke="#151212"/>
<path d="M622 0.5V30.5H754V0.5" stroke="#151212"/>
<path d="M944.5 591.5L890.5 537.5" stroke="#151212"/>
<path d="M787.5 -1V76H668" stroke="#151212"/>
<path d="M808 624V532.5L846 494.5H891L964 567.5" stroke="#151212"/>
<rect x="332" y="223" width="281" height="170" fill="#4D4D4D" stroke="black" stroke-width="3"/>
<rect x="342" y="209" width="19" height="14" fill="#3A3232" stroke="black" stroke-width="3"/>
<rect x="342" y="393" width="19" height="13" fill="#3A3232" stroke="black" stroke-width="3"/>
<rect x="373" y="209" width="18" height="14" fill="#3A3232" stroke="black" stroke-width="3"/>
<rect x="373" y="393" width="18" height="13" fill="#3A3232" stroke="black" stroke-width="3"/>
<rect x="403" y="209" width="18" height="14" fill="#3A3232" stroke="black" stroke-width="3"/>
<rect x="403" y="393" width="18" height="13" fill="#3A3232" stroke="black" stroke-width="3"/>
<rect x="433" y="209" width="18" height="14" fill="#3A3232" stroke="black" stroke-width="3"/>
<rect x="433" y="393" width="18" height="13" fill="#3A3232" stroke="black" stroke-width="3"/>
<rect x="613" y="378" width="17" height="13" transform="rotate(-90 613 378)" fill="#3A3232" stroke="black" stroke-width="3"/>
<rect x="319" y="378" width="17" height="13" transform="rotate(-90 319 378)" fill="#3A3232" stroke="black" stroke-width="3"/>
<rect x="465" y="209" width="16" height="14" fill="#3A3232" stroke="black" stroke-width="3"/>
<rect x="465" y="393" width="16" height="13" fill="#3A3232" stroke="black" stroke-width="3"/>
<rect x="613" y="347" width="17" height="13" transform="rotate(-90 613 347)" fill="#3A3232" stroke="black" stroke-width="3"/>
<rect x="319" y="347" width="17" height="13" transform="rotate(-90 319 347)" fill="#3A3232" stroke="black" stroke-width="3"/>
<rect x="494" y="209" width="17" height="14" fill="#3A3232" stroke="black" stroke-width="3"/>
<rect x="494" y="393" width="17" height="13" fill="#3A3232" stroke="black" stroke-width="3"/>
<rect x="613" y="318" width="18" height="13" transform="rotate(-90 613 318)" fill="#3A3232" stroke="black" stroke-width="3"/>
<rect x="319" y="318" width="18" height="13" transform="rotate(-90 319 318)" fill="#3A3232" stroke="black" stroke-width="3"/>
<rect x="525" y="209" width="17" height="14" fill="#3A3232" stroke="black" stroke-width="3"/>
<rect x="525" y="393" width="17" height="13" fill="#3A3232" stroke="black" stroke-width="3"/>
<rect x="613" y="287" width="18" height="13" transform="rotate(-90 613 287)" fill="#3A3232" stroke="black" stroke-width="3"/>
<rect x="319" y="287" width="18" height="13" transform="rotate(-90 319 287)" fill="#3A3232" stroke="black" stroke-width="3"/>
<rect x="554" y="209" width="17" height="14" fill="#3A3232" stroke="black" stroke-width="3"/>
<rect x="554" y="393" width="17" height="13" fill="#3A3232" stroke="black" stroke-width="3"/>
<rect x="613" y="258" width="18" height="13" transform="rotate(-90 613 258)" fill="#3A3232" stroke="black" stroke-width="3"/>
<rect x="319" y="258" width="18" height="13" transform="rotate(-90 319 258)" fill="#3A3232" stroke="black" stroke-width="3"/>
<rect x="585" y="209" width="18" height="14" fill="#3A3232" stroke="black" stroke-width="3"/>
<rect x="585" y="393" width="18" height="13" fill="#3A3232" stroke="black" stroke-width="3"/>
<path d="M957 309H856V375H957" stroke="#151212"/>
<path d="M830.5 614.5V550.5H862.5L935.5 623.5" stroke="#151212"/>
</g>
<defs>
<clipPath id="clip0_1_3">
<rect width="945" height="616" fill="white"/>
</clipPath>
</defs>
</svg>
