<svg version="1.1" id="Layer_1" xmlns="http://www.w3.org/2000/svg" xmlns:xlink="http://www.w3.org/1999/xlink" x="0px" y="0px"
	 width="100%" viewBox="0 0 2225 863" enable-background="new 0 0 2225 863" xml:space="preserve">
<path fill="#000000" opacity="1.000000" stroke="none" 
	d="
M0.999999,158.000000 
	C1.000000,105.673241 1.000000,53.346485 1.000000,1.014795 
	C742.566895,1.009863 1484.133789,1.009863 2226.000000,1.009863 
	C2226.000000,287.364197 2226.000000,573.728455 2225.556396,860.546387 
	C1483.741821,861.000000 742.370911,861.000000 1.000000,861.000000 
	C1.000000,633.969116 1.000000,406.938171 1.426529,179.312027 
	C2.235078,179.893158 2.930303,181.063614 2.952602,182.246750 
	C3.350293,203.347504 3.659380,224.449921 4.001976,245.551743 
	C4.325637,265.487213 4.673434,285.422302 4.997092,305.357758 
	C5.339686,326.459564 5.659334,347.561798 6.001966,368.663605 
	C6.325660,388.599060 6.696882,408.533813 6.991518,428.469696 
	C7.357570,453.237793 7.691205,478.006409 7.985454,502.775482 
	C8.078498,510.607574 7.983241,518.441833 8.017644,526.274902 
	C8.023161,527.530945 8.257824,528.785889 8.433426,530.498474 
	C16.280624,529.670410 23.756115,529.151245 31.146362,528.056580 
	C69.812775,522.329285 108.677330,517.622559 147.064301,510.391479 
	C227.976593,495.149811 308.505219,477.863800 389.446228,462.785217 
	C437.342438,453.862579 485.628601,446.838440 533.919556,440.289154 
	C574.641235,434.766449 615.555054,430.348175 656.508057,426.929779 
	C698.786499,423.400726 741.186401,420.856110 783.585388,419.371674 
	C828.869568,417.786163 874.142517,419.788727 919.313721,423.781067 
	C961.469543,427.506866 1003.304871,433.415985 1044.648804,442.368896 
	C1132.476929,461.387756 1217.886963,488.346344 1301.148438,522.073975 
	C1333.568726,535.206787 1365.285767,549.924438 1394.545288,569.308533 
	C1405.014160,576.243958 1414.796143,584.216125 1424.907837,591.727112 
	C1424.969482,591.066284 1425.104004,590.106995 1425.142578,589.143921 
	C1426.302856,560.207031 1427.785156,531.278259 1428.524902,502.330536 
	C1429.520386,463.374542 1430.067993,424.405426 1430.550415,385.438782 
	C1430.754395,368.954834 1430.511475,352.457550 1430.098877,335.975677 
	C1429.540649,313.674408 1428.482910,291.385712 1427.911499,269.084656 
	C1427.540161,254.594101 1423.181641,242.030289 1412.065918,232.228790 
	C1405.573975,226.504303 1399.477661,220.295593 1392.713257,214.921539 
	C1359.312866,188.386337 1322.639038,166.985458 1284.629517,147.954956 
	C1184.700439,97.922737 1078.353882,67.778175 968.821655,48.197197 
	C932.651550,41.731098 896.141846,36.979477 859.654297,32.537926 
	C834.231323,29.443243 808.614014,27.194420 783.025635,26.376213 
	C738.893921,24.965071 694.741272,26.560917 650.803711,30.987780 
	C606.102905,35.491535 561.400391,40.291035 516.906616,46.461021 
	C455.589294,54.963947 394.838745,66.911743 334.401337,80.294167 
	C229.929550,103.426994 126.613724,130.901718 24.745790,163.724777 
	C18.785624,165.645187 12.814889,167.532822 7.307256,169.289566 
	C4.986522,165.135605 2.993260,161.567810 0.999999,158.000000 
M2103.616943,576.907471 
	C2090.262939,568.436035 2077.046387,559.738464 2063.529297,551.535645 
	C2023.566406,527.284180 1983.699951,503.108215 1939.680908,486.212677 
	C1873.851196,460.945587 1806.297363,447.893768 1735.684326,450.755157 
	C1692.230713,452.516022 1649.643311,459.344299 1607.677979,470.411987 
	C1555.818481,484.089111 1506.737793,506.004730 1455.654663,522.003967 
	C1454.480103,522.371826 1453.251343,524.487000 1453.112061,525.892700 
	C1452.620972,530.850830 1452.616089,535.856079 1452.387451,540.841553 
	C1450.923584,572.764038 1449.515381,604.689148 1447.954224,636.606873 
	C1446.960327,656.928162 1440.381592,674.166077 1420.578491,683.501343 
	C1415.325317,685.977722 1409.925659,688.278992 1404.385254,689.986023 
	C1382.301514,696.789978 1360.110596,703.246094 1338.008911,709.993286 
	C1323.676392,714.368652 1309.363281,718.962036 1296.779785,727.397461 
	C1291.694702,730.806213 1286.861816,734.748352 1282.492065,739.036682 
	C1270.264160,751.036987 1265.559326,764.001404 1272.420288,781.673706 
	C1286.753418,818.592285 1308.886597,834.979065 1348.281250,835.213623 
	C1370.492188,835.345886 1392.112305,831.640259 1413.154907,825.173706 
	C1457.017822,811.694214 1500.653198,797.475525 1544.409668,783.647583 
	C1594.938110,767.679565 1646.049316,754.385864 1699.064575,749.637512 
	C1742.463989,745.750427 1785.709717,746.795227 1828.160278,756.745850 
	C1856.109375,763.297180 1883.510864,772.278748 1910.994507,780.703735 
	C1988.195557,804.369629 2065.736328,826.491333 2146.511963,834.375122 
	C2157.162354,835.414612 2167.912598,835.426575 2178.616699,835.914368 
	C2177.636719,833.349487 2176.380371,832.053833 2175.144043,830.739197 
	C2159.063477,813.637878 2142.551025,796.917542 2127.018311,779.332275 
	C2108.139648,757.959351 2090.932373,735.251648 2078.244629,709.507141 
	C2076.689209,706.351013 2075.786621,702.554077 2075.727051,699.034607 
	C2075.460938,683.374268 2075.604492,667.706909 2075.626465,652.042053 
	C2075.628174,650.852844 2075.840088,649.663879 2075.954102,648.474792 
	C2076.241699,648.448730 2076.529053,648.422729 2076.816406,648.396667 
	C2082.775879,660.927063 2088.735352,673.457458 2094.627686,685.846863 
	C2095.387451,685.846863 2095.739746,685.928528 2096.035156,685.833557 
	C2097.935547,685.222717 2099.838379,684.613892 2101.713135,683.930359 
	C2128.987061,673.986816 2155.729736,662.961243 2178.931641,644.979736 
	C2182.789062,641.990112 2186.187744,638.408447 2190.446289,634.506653 
	C2161.096191,615.020996 2132.667969,596.147400 2103.616943,576.907471 
M1313.108765,554.410522 
	C1295.526001,547.083130 1277.943237,539.755798 1258.716064,531.743103 
	C1259.332764,596.651978 1259.934326,659.951843 1260.548462,724.579956 
	C1262.614746,722.917969 1263.410156,722.402649 1264.055298,721.740723 
	C1275.881836,709.607605 1289.807007,700.366638 1305.681519,694.888306 
	C1329.557861,686.648560 1353.859009,679.646179 1377.919678,671.931274 
	C1388.511841,668.534973 1399.231934,665.309448 1409.395630,660.866455 
	C1420.812988,655.875488 1425.614624,642.186829 1421.155518,630.515625 
	C1416.236694,617.641357 1406.189941,609.043030 1395.796387,600.943481 
	C1370.789917,581.456482 1342.501709,567.704712 1313.108765,554.410522 
z"/>
<path fill="#E42D40" opacity="1.000000" stroke="none" 
	d="
M0.999999,158.468536 
	C2.993260,161.567810 4.986522,165.135605 7.307256,169.289566 
	C12.814889,167.532822 18.785624,165.645187 24.745790,163.724777 
	C126.613724,130.901718 229.929550,103.426994 334.401337,80.294167 
	C394.838745,66.911743 455.589294,54.963947 516.906616,46.461021 
	C561.400391,40.291035 606.102905,35.491535 650.803711,30.987780 
	C694.741272,26.560917 738.893921,24.965071 783.025635,26.376213 
	C808.614014,27.194420 834.231323,29.443243 859.654297,32.537926 
	C896.141846,36.979477 932.651550,41.731098 968.821655,48.197197 
	C1078.353882,67.778175 1184.700439,97.922737 1284.629517,147.954956 
	C1322.639038,166.985458 1359.312866,188.386337 1392.713257,214.921539 
	C1399.477661,220.295593 1405.573975,226.504303 1412.065918,232.228790 
	C1423.181641,242.030289 1427.540161,254.594101 1427.911499,269.084656 
	C1428.482910,291.385712 1429.540649,313.674408 1430.098877,335.975677 
	C1430.511475,352.457550 1430.754395,368.954834 1430.550415,385.438782 
	C1430.067993,424.405426 1429.520386,463.374542 1428.524902,502.330536 
	C1427.785156,531.278259 1426.302856,560.207031 1425.142578,589.143921 
	C1425.104004,590.106995 1424.969482,591.066284 1424.907837,591.727112 
	C1414.796143,584.216125 1405.014160,576.243958 1394.545288,569.308533 
	C1365.285767,549.924438 1333.568726,535.206787 1301.148438,522.073975 
	C1217.886963,488.346344 1132.476929,461.387756 1044.648804,442.368896 
	C1003.304871,433.415985 961.469543,427.506866 919.313721,423.781067 
	C874.142517,419.788727 828.869568,417.786163 783.585388,419.371674 
	C741.186401,420.856110 698.786499,423.400726 656.508057,426.929779 
	C615.555054,430.348175 574.641235,434.766449 533.919556,440.289154 
	C485.628601,446.838440 437.342438,453.862579 389.446228,462.785217 
	C308.505219,477.863800 227.976593,495.149811 147.064301,510.391479 
	C108.677330,517.622559 69.812775,522.329285 31.146362,528.056580 
	C23.756115,529.151245 16.280624,529.670410 8.433426,530.498474 
	C8.257824,528.785889 8.023161,527.530945 8.017644,526.274902 
	C7.983241,518.441833 8.078498,510.607574 7.985454,502.775482 
	C7.691205,478.006409 7.357570,453.237793 6.991518,428.469696 
	C6.696882,408.533813 6.325660,388.599060 6.001966,368.663605 
	C5.659334,347.561798 5.339686,326.459564 4.997092,305.357758 
	C4.673434,285.422302 4.325637,265.487213 4.001976,245.551743 
	C3.659380,224.449921 3.350293,203.347504 2.952602,182.246750 
	C2.930303,181.063614 2.235078,179.893158 1.426529,178.858398 
	C1.000000,172.312363 1.000000,165.624710 0.999999,158.468536 
M140.873291,310.446777 
	C141.566528,295.487854 142.688858,280.533264 142.840485,265.568878 
	C143.015793,248.266449 142.685226,230.939484 141.896545,213.654083 
	C141.426895,203.360809 135.121780,196.953888 125.451485,195.000854 
	C116.434921,193.179855 109.098946,196.276810 104.743004,205.800034 
	C101.494339,212.902496 99.038902,220.834579 98.423492,228.571655 
	C97.343254,242.152618 97.892738,255.867065 97.851418,269.525879 
	C97.789925,289.851288 98.032104,310.180084 97.740379,330.501648 
	C97.298386,361.290771 96.490463,392.074524 95.887444,422.861511 
	C95.802773,427.184814 95.745979,431.535217 96.114487,435.835510 
	C96.977943,445.911530 102.525131,453.337128 110.143311,455.083588 
	C121.409279,457.666260 131.894318,448.815552 132.822342,435.779663 
	C133.909454,420.509155 135.618332,405.227631 135.598816,389.952728 
	C135.585464,379.512146 139.092087,373.859314 149.040985,370.339600 
	C158.615295,366.952362 167.457870,361.496796 177.038651,356.743286 
	C177.038651,358.434662 177.039566,359.716705 177.038513,360.998718 
	C177.025833,376.303650 176.723221,391.616211 177.126434,406.910187 
	C177.318054,414.177795 178.812454,421.415710 179.800156,428.655731 
	C180.326096,432.511078 182.888565,434.206665 186.530746,434.936005 
	C204.065170,438.447296 217.491165,428.826996 218.984863,410.889313 
	C220.903931,387.843292 222.442932,364.760742 223.794861,341.673370 
	C226.265366,299.483246 228.799606,257.291595 230.579636,215.069901 
	C231.042496,204.090897 230.223358,192.634949 227.489883,182.044128 
	C223.482620,166.517944 206.887482,163.103317 195.188019,174.153580 
	C186.784317,182.090973 185.517715,192.490601 185.094620,203.018280 
	C184.633621,214.489456 185.202057,226.000778 184.787827,237.475327 
	C184.289871,251.269394 183.189529,265.040955 182.424774,278.826385 
	C181.871780,288.794586 181.605499,298.782349 180.832367,308.731934 
	C180.652847,311.042297 179.491394,314.569458 177.830139,315.265564 
	C165.343903,320.497406 152.619385,325.160553 139.734848,330.091339 
	C140.084396,324.245422 140.468384,317.823761 140.873291,310.446777 
M725.335632,92.863739 
	C714.200195,114.628120 703.303650,136.519073 691.862061,158.121323 
	C680.398071,179.765823 668.327332,201.096756 651.197876,218.967194 
	C646.690613,223.669449 641.711243,227.919189 636.583313,232.718674 
	C637.800720,208.611572 639.167236,185.691360 640.049744,162.752518 
	C640.743713,144.713074 639.135071,126.866592 634.344849,109.336899 
	C632.013062,100.803452 626.918335,96.176308 618.290283,94.466675 
	C605.922363,92.016006 597.422546,98.129677 597.051025,110.781143 
	C596.283691,136.909668 595.605103,163.043076 595.202637,189.179306 
	C594.874207,210.503693 595.541748,231.853989 594.796570,253.158844 
	C593.703125,284.421936 591.713684,315.653259 590.172668,346.901398 
	C589.762817,355.211060 594.333557,360.639526 602.477722,361.235321 
	C606.589417,361.536102 610.832397,361.432526 614.891113,360.759064 
	C621.940979,359.589233 627.411255,355.758331 629.374939,348.635681 
	C631.040710,342.593506 632.286133,336.353821 632.905762,330.120850 
	C634.485657,314.226837 635.542908,298.281403 637.019226,282.376007 
	C637.177917,280.666718 638.315674,278.530457 639.684814,277.538605 
	C646.648010,272.494141 653.837097,267.761444 661.201416,262.746399 
	C662.030518,264.389252 663.155762,266.406921 664.091797,268.508881 
	C669.368652,280.357849 674.107483,292.478241 679.990356,304.016235 
	C685.488220,314.799072 691.734497,325.273529 698.493774,335.316742 
	C703.910767,343.365601 711.558899,349.062164 721.695312,350.348053 
	C731.520203,351.594421 738.218872,344.679565 736.528259,334.895782 
	C736.050476,332.130951 735.198303,329.402191 734.253540,326.751068 
	C724.056458,298.135925 709.754700,271.428406 695.837708,244.550644 
	C694.369751,241.715652 694.468994,239.658737 695.978027,236.832352 
	C709.919189,210.719925 724.030334,184.687210 737.339233,158.252289 
	C745.935547,141.177826 753.284119,123.478783 757.455566,104.659134 
	C759.080627,97.327774 757.319824,90.541321 753.069275,84.827950 
	C751.195801,82.309723 747.177185,80.333214 743.968567,80.063927 
	C735.038696,79.314438 729.491882,84.690849 725.335632,92.863739 
M291.107086,386.628571 
	C295.439392,366.819061 299.736267,347.001587 304.163422,327.213287 
	C304.569672,325.397369 305.360535,322.885529 306.731232,322.188751 
	C319.946625,315.470612 333.340210,309.049103 348.327728,307.337769 
	C352.584229,306.851715 356.281952,308.212555 357.678864,312.929535 
	C359.141113,317.867096 360.716003,322.776764 361.997009,327.761505 
	C366.427612,345.001678 370.602417,362.337494 379.228271,378.117737 
	C383.619293,386.150696 390.927612,389.730713 399.819122,390.012848 
	C408.136871,390.276703 414.160614,384.972626 415.096771,376.726257 
	C416.571655,363.734741 413.447052,351.239899 410.478271,338.788849 
	C398.690063,289.349213 381.656769,241.514984 365.022461,193.605225 
	C360.228088,179.796585 352.431610,166.880951 344.911835,154.208435 
	C336.847595,140.618454 318.312225,138.229279 307.408844,151.999496 
	C301.982178,158.852951 297.109558,166.365479 293.262115,174.205948 
	C283.383087,194.337799 278.179108,216.080460 272.959290,237.758377 
	C263.051361,278.905823 256.229492,320.600708 251.230331,362.599884 
	C249.795212,374.656586 248.467102,386.765900 248.012695,398.885681 
	C247.700409,407.214996 252.838501,413.360199 259.847748,417.233856 
	C266.878571,421.119415 272.930054,417.572052 278.604828,413.251160 
	C287.147919,406.746246 289.675110,397.417999 291.107086,386.628571 
M1164.849609,251.500015 
	C1164.849609,234.502197 1165.004517,217.502441 1164.791992,200.507278 
	C1164.663086,190.196411 1164.207764,179.874542 1163.438354,169.592087 
	C1162.930420,162.803528 1158.847534,158.147278 1152.395142,156.165894 
	C1145.644287,154.092865 1139.964478,156.426895 1135.453857,161.703781 
	C1130.285400,167.750305 1127.726562,175.037827 1127.093018,182.717972 
	C1125.574707,201.121750 1124.052979,219.555206 1123.531250,238.004944 
	C1122.481201,275.130920 1122.226562,312.264862 1125.958008,349.311218 
	C1127.742920,367.031189 1131.423706,384.039154 1144.342651,397.263428 
	C1151.166382,404.248383 1158.294189,411.332550 1166.452026,416.544861 
	C1192.904053,433.445831 1230.576172,434.426300 1248.549072,393.595734 
	C1249.820068,390.708160 1250.931030,387.740448 1251.950317,384.753296 
	C1259.210815,363.476746 1262.141113,341.367859 1263.917358,319.121246 
	C1265.890869,294.404022 1267.604614,269.652374 1268.670532,244.882965 
	C1269.109863,234.675629 1268.208618,224.283020 1266.640015,214.172852 
	C1265.899902,209.402328 1262.886597,204.451721 1259.609741,200.717789 
	C1252.680908,192.822235 1242.407227,194.905579 1238.413452,204.663483 
	C1237.116821,207.831772 1236.443237,211.407471 1236.230469,214.843018 
	C1234.388916,244.577209 1233.519409,274.398041 1230.706299,304.036102 
	C1228.907104,322.991180 1224.747437,341.773315 1220.785889,360.450531 
	C1218.788208,369.868591 1214.747803,378.843475 1207.553223,385.805939 
	C1198.262085,394.797333 1187.016968,393.546295 1180.080322,382.748657 
	C1178.473389,380.247284 1177.121704,377.526886 1176.031250,374.758148 
	C1170.292480,360.186676 1167.942627,344.820099 1167.166382,329.374634 
	C1165.879883,303.775604 1165.570557,278.127472 1164.849609,251.500015 
M846.604614,146.117432 
	C846.053223,148.033249 845.479675,149.943008 844.953857,151.865799 
	C839.145264,173.106308 838.858643,194.947678 837.936584,216.715836 
	C836.668884,246.645920 835.245483,276.570496 838.892151,306.460541 
	C841.830933,330.548676 858.172302,349.849945 881.588745,356.421234 
	C893.269958,359.699341 905.098267,360.457397 917.184143,359.029907 
	C941.975403,356.101776 961.034241,340.673309 966.527893,318.193878 
	C967.940002,312.415955 968.371094,306.373810 968.951782,300.423645 
	C969.603455,293.745026 966.853760,288.030090 962.912170,282.924438 
	C959.083740,277.965363 953.699890,276.778687 947.702271,278.745392 
	C939.373535,281.476532 936.105530,288.050140 934.001770,295.773102 
	C932.213196,302.338898 930.459778,308.950928 928.052124,315.300293 
	C925.967346,320.797974 921.840393,324.279266 915.461182,324.137878 
	C904.759827,323.900635 894.258545,316.843811 891.080627,306.568939 
	C888.738525,298.996246 887.002258,291.097015 886.173157,283.219421 
	C882.412659,247.490616 883.255615,211.749054 887.069397,176.069168 
	C888.422852,163.407013 891.923157,151.318802 897.684875,139.886490 
	C900.570984,134.159943 905.244690,132.301147 911.207703,132.612381 
	C917.056152,132.917664 919.339661,137.083298 921.049194,141.828323 
	C922.796509,146.678207 924.752197,151.467331 926.214905,156.402161 
	C928.434509,163.891190 933.801514,167.155411 940.961914,168.776855 
	C952.016968,171.280212 960.590881,167.521255 967.254272,158.849655 
	C972.303894,152.278320 970.508301,145.094513 967.821777,138.404480 
	C962.101868,124.160774 953.694824,111.564194 942.014038,101.506546 
	C921.555298,83.890869 890.411682,85.217598 871.078430,104.042267 
	C859.183655,115.624153 851.805969,129.752670 846.604614,146.117432 
M473.641937,110.041000 
	C457.852539,116.124474 446.155518,126.093048 442.236420,143.343399 
	C439.108002,157.113541 435.417847,170.797241 433.128876,184.708832 
	C427.325378,219.980133 426.213989,255.606506 426.911652,291.274658 
	C427.329315,312.627686 431.017426,333.378845 442.007721,352.132111 
	C451.938873,369.078156 466.768799,378.493591 486.600006,376.710419 
	C498.721130,375.620514 511.033203,373.098145 522.506592,369.072968 
	C549.430847,359.627106 559.922302,337.696930 562.727783,311.169220 
	C563.716553,301.819672 558.801941,294.394562 551.598328,291.877991 
	C544.288269,289.324249 535.290527,292.287598 530.139587,299.678131 
	C527.322571,303.719971 525.267700,308.359711 523.308167,312.918549 
	C519.298584,322.246857 514.199402,330.726624 505.807434,336.758453 
	C494.105286,345.169495 479.671387,340.212830 475.732239,326.325623 
	C469.497009,304.343628 468.221985,281.812103 468.558746,259.097748 
	C468.925201,234.378891 471.680023,209.943115 477.045807,185.828003 
	C479.540436,174.616608 482.467163,163.455856 489.218903,153.856049 
	C494.625275,146.169128 501.268097,145.717880 507.298920,152.913757 
	C510.359314,156.565353 512.190002,161.229187 515.127625,165.006897 
	C518.629150,169.509766 522.094482,174.468903 526.683899,177.611771 
	C537.364380,184.925842 550.122070,178.639740 552.022034,165.821289 
	C553.197937,157.887802 551.384216,150.561630 547.266541,143.865906 
	C538.201355,129.125153 525.621338,118.205170 509.887177,111.128723 
	C498.342621,105.936546 486.406006,105.429573 473.641937,110.041000 
M1293.461426,249.980865 
	C1293.024536,256.789673 1292.384155,263.592468 1292.183350,270.408203 
	C1290.752686,318.978973 1289.449463,367.553467 1288.016846,416.124176 
	C1287.644043,428.761383 1286.786865,441.386292 1286.561768,454.024139 
	C1286.518677,456.438141 1287.745239,460.263214 1289.497192,461.094177 
	C1300.410034,466.270020 1311.287231,472.062012 1322.839844,475.229919 
	C1343.920776,481.010559 1358.696411,472.492889 1365.791016,451.938171 
	C1369.148560,442.210785 1372.448120,432.357941 1374.476807,422.300323 
	C1378.165039,404.015137 1380.950073,385.521332 1364.008911,371.166321 
	C1370.488525,365.784760 1374.180908,358.764038 1375.829712,351.101471 
	C1378.304810,339.600037 1380.263794,327.927338 1381.461182,316.227081 
	C1382.808228,303.063751 1382.457031,289.683136 1376.302734,277.607635 
	C1361.663696,248.883850 1338.247314,230.697021 1307.250977,222.243668 
	C1301.949219,220.797806 1298.529907,222.851822 1297.211792,228.475586 
	C1295.623535,235.252335 1294.795532,242.207306 1293.461426,249.980865 
M997.617432,343.862732 
	C997.017090,355.483917 1001.828613,364.348816 1011.958557,369.795929 
	C1017.016479,372.515717 1022.630493,374.629272 1028.246704,375.806152 
	C1048.253174,379.998535 1068.335327,383.864410 1088.477661,387.338745 
	C1091.609253,387.878906 1095.947876,386.664307 1098.455566,384.664856 
	C1108.992310,376.263428 1107.173584,360.799011 1094.955811,354.378326 
	C1090.303223,351.933228 1085.011841,350.684692 1079.979980,348.984253 
	C1072.122681,346.329010 1064.213257,343.826050 1056.377441,341.109833 
	C1053.023193,339.947113 1051.770386,337.611328 1052.005737,333.794128 
	C1053.050293,316.853973 1053.809814,299.895416 1054.577637,282.939209 
	C1055.624146,259.827728 1056.473877,236.706879 1057.615479,213.600296 
	C1058.592651,193.826752 1060.202148,174.079651 1060.901123,154.298569 
	C1061.531006,136.472153 1054.358887,126.764091 1037.566895,120.864777 
	C1026.522339,116.984634 1021.443481,118.695107 1018.177673,129.963394 
	C1014.820068,141.548508 1012.173828,153.583603 1011.246216,165.578751 
	C1009.271484,191.116547 1008.753845,216.763718 1007.370300,242.351517 
	C1006.166138,264.619812 1004.944153,286.898376 1003.036377,309.112762 
	C1002.059631,320.485687 999.563721,331.728149 997.617432,343.862732 
z"/>
<path fill="#FFFFFF" opacity="1.000000" stroke="none" 
	d="
M1.000000,861.499878 
	C742.370911,861.000000 1483.741821,861.000000 2225.556396,861.000000 
	C2226.000000,861.999756 2226.000000,862.999573 2226.000000,863.999634 
	C1485.832764,864.000000 745.665527,864.001709 5.498323,863.858948 
	C4.210093,863.858704 0.871377,866.327820 1.000000,861.499878 
z"/>
<path fill="#E32D40" opacity="1.000000" stroke="none" 
	d="
M2103.928223,577.090637 
	C2132.667969,596.147400 2161.096191,615.020996 2190.446289,634.506653 
	C2186.187744,638.408447 2182.789062,641.990112 2178.931641,644.979736 
	C2155.729736,662.961243 2128.987061,673.986816 2101.713135,683.930359 
	C2099.838379,684.613892 2097.935547,685.222717 2096.035156,685.833557 
	C2095.739746,685.928528 2095.387451,685.846863 2094.627686,685.846863 
	C2088.735352,673.457458 2082.775879,660.927063 2076.816406,648.396667 
	C2076.529053,648.422729 2076.241699,648.448730 2075.954102,648.474792 
	C2075.840088,649.663879 2075.628174,650.852844 2075.626465,652.042053 
	C2075.604492,667.706909 2075.460938,683.374268 2075.727051,699.034607 
	C2075.786621,702.554077 2076.689209,706.351013 2078.244629,709.507141 
	C2090.932373,735.251648 2108.139648,757.959351 2127.018311,779.332275 
	C2142.551025,796.917542 2159.063477,813.637878 2175.144043,830.739197 
	C2176.380371,832.053833 2177.636719,833.349487 2178.616699,835.914368 
	C2167.912598,835.426575 2157.162354,835.414612 2146.511963,834.375122 
	C2065.736328,826.491333 1988.195557,804.369629 1910.994507,780.703735 
	C1883.510864,772.278748 1856.109375,763.297180 1828.160278,756.745850 
	C1785.709717,746.795227 1742.463989,745.750427 1699.064575,749.637512 
	C1646.049316,754.385864 1594.938110,767.679565 1544.409668,783.647583 
	C1500.653198,797.475525 1457.017822,811.694214 1413.154907,825.173706 
	C1392.112305,831.640259 1370.492188,835.345886 1348.281250,835.213623 
	C1308.886597,834.979065 1286.753418,818.592285 1272.420288,781.673706 
	C1265.559326,764.001404 1270.264160,751.036987 1282.492065,739.036682 
	C1286.861816,734.748352 1291.694702,730.806213 1296.779785,727.397461 
	C1309.363281,718.962036 1323.676392,714.368652 1338.008911,709.993286 
	C1360.110596,703.246094 1382.301514,696.789978 1404.385254,689.986023 
	C1409.925659,688.278992 1415.325317,685.977722 1420.578491,683.501343 
	C1440.381592,674.166077 1446.960327,656.928162 1447.954224,636.606873 
	C1449.515381,604.689148 1450.923584,572.764038 1452.387451,540.841553 
	C1452.616089,535.856079 1452.620972,530.850830 1453.112061,525.892700 
	C1453.251343,524.487000 1454.480103,522.371826 1455.654663,522.003967 
	C1506.737793,506.004730 1555.818481,484.089111 1607.677979,470.411987 
	C1649.643311,459.344299 1692.230713,452.516022 1735.684326,450.755157 
	C1806.297363,447.893768 1873.851196,460.945587 1939.680908,486.212677 
	C1983.699951,503.108215 2023.566406,527.284180 2063.529297,551.535645 
	C2077.046387,559.738464 2090.262939,568.436035 2103.928223,577.090637 
M1653.972412,700.642761 
	C1664.175049,705.286926 1674.948242,706.856018 1686.060181,706.584839 
	C1714.129639,705.899780 1733.963013,690.234436 1739.848877,664.229553 
	C1749.910645,619.774231 1745.457642,576.292175 1730.947510,533.547974 
	C1727.130493,522.303650 1720.865479,512.434692 1710.654541,505.875214 
	C1690.877930,493.170746 1670.695068,495.351959 1651.024170,505.845154 
	C1631.096680,516.475220 1622.710083,535.014343 1619.058838,556.186218 
	C1614.652100,581.737732 1615.947144,607.271301 1620.351318,632.661743 
	C1623.340698,649.894714 1627.713135,666.783081 1635.868530,682.451660 
	C1639.884521,690.167542 1645.120605,696.663208 1653.972412,700.642761 
M1606.019897,687.256348 
	C1596.561768,684.102600 1586.720215,683.731323 1577.480835,686.702393 
	C1564.255737,690.955139 1551.501099,696.668396 1538.536255,701.734192 
	C1536.094116,702.688477 1533.608765,703.532043 1531.143311,704.426697 
	C1530.785889,703.970276 1530.428589,703.513916 1530.071167,703.057495 
	C1531.530151,699.965149 1532.747681,696.729309 1534.486572,693.803406 
	C1547.581787,671.771484 1560.477173,649.633362 1569.278931,625.434448 
	C1575.585693,608.095215 1580.268799,590.384338 1576.937866,571.732849 
	C1574.835693,559.962158 1571.504517,548.497559 1559.782593,542.239563 
	C1546.517456,535.157715 1532.725342,534.965271 1519.433594,541.431580 
	C1499.620728,551.070190 1485.735474,566.720825 1477.786133,587.203186 
	C1475.890503,592.087830 1475.366577,598.072083 1476.116577,603.276001 
	C1477.106079,610.142517 1481.422485,615.405823 1488.798706,617.095154 
	C1495.883301,618.717712 1498.925537,613.398132 1502.224487,608.904236 
	C1504.378418,605.969849 1505.683838,602.404480 1507.885254,599.514893 
	C1511.994873,594.120422 1515.918701,588.376099 1520.946167,583.940613 
	C1527.704102,577.978455 1536.892700,581.517334 1538.978027,590.359131 
	C1539.648193,593.200806 1540.084229,596.462708 1539.363281,599.199280 
	C1537.171143,607.521423 1535.608521,616.363159 1531.554321,623.773682 
	C1520.153687,644.612732 1507.443848,664.730774 1495.631958,685.351868 
	C1490.450073,694.398315 1485.394897,703.673096 1481.718384,713.387756 
	C1476.835449,726.290344 1477.934937,739.268860 1485.517456,751.215698 
	C1488.850464,756.467468 1492.778442,758.128113 1498.750244,756.450806 
	C1503.370117,755.153198 1507.943726,753.494141 1512.297119,751.476379 
	C1542.598022,737.431946 1574.049805,726.915222 1606.833008,720.509644 
	C1611.657349,719.567017 1614.505859,716.803955 1616.433350,712.714478 
	C1621.299072,702.391479 1617.531250,692.741577 1606.019897,687.256348 
M1849.995728,636.488647 
	C1859.151367,618.224487 1869.099121,600.304871 1877.235718,581.597595 
	C1885.081909,563.557739 1888.644653,544.363037 1884.975586,524.518433 
	C1881.248291,504.358948 1870.398315,494.281158 1850.455200,492.559906 
	C1841.808716,491.813721 1833.421753,493.491516 1825.880615,497.772675 
	C1805.725464,509.214722 1790.944946,525.284058 1784.596191,548.049438 
	C1782.322266,556.203064 1784.256592,563.582520 1790.790527,569.356506 
	C1796.286133,574.212708 1802.066650,574.169250 1806.946289,568.736450 
	C1809.912354,565.434326 1812.035889,561.387512 1814.661865,557.765137 
	C1818.650146,552.263489 1822.469360,546.602173 1826.886719,541.460754 
	C1830.215820,537.585876 1834.565308,534.762390 1840.121948,537.125061 
	C1845.886475,539.576111 1848.650513,544.471008 1847.959106,550.346008 
	C1847.132446,557.371704 1845.883789,564.546204 1843.440552,571.146484 
	C1835.708374,592.034058 1823.818604,610.765991 1811.541504,629.192993 
	C1802.293457,643.073608 1793.313232,657.078491 1787.601440,672.829346 
	C1785.236328,679.351074 1783.094360,686.130188 1782.205200,692.968384 
	C1780.944702,702.662231 1785.156860,705.774658 1794.832764,704.822876 
	C1801.909058,704.126770 1809.147583,703.977173 1816.224609,704.598694 
	C1836.602661,706.388306 1856.005371,712.351440 1874.952637,719.771729 
	C1879.781982,721.663025 1883.758057,720.997192 1887.434204,717.830200 
	C1893.018555,713.018921 1896.760132,707.011658 1898.111206,699.689087 
	C1899.563232,691.819214 1897.305298,687.488098 1889.731812,685.067505 
	C1881.351196,682.388855 1872.730591,680.468262 1864.308960,677.907349 
	C1855.897461,675.349426 1847.441772,672.803894 1839.311401,669.500000 
	C1833.551636,667.159363 1833.230103,664.708313 1836.358276,659.431396 
	C1840.770752,651.987976 1845.204956,644.557312 1849.995728,636.488647 
M2041.203979,608.655518 
	C2043.417114,601.732483 2046.766846,594.946167 2047.619263,587.859436 
	C2049.735596,570.266296 2045.243896,554.161194 2024.773438,546.031555 
	C2006.209595,538.659058 1987.754150,540.860107 1969.821411,548.194519 
	C1946.805176,557.608154 1929.714355,584.034973 1930.727417,608.321045 
	C1939.768555,607.838989 1948.803589,607.357239 1957.731567,606.881226 
	C1958.138184,604.208069 1958.466919,602.071655 1958.787598,599.934021 
	C1961.780396,579.993347 1976.723999,568.256409 1996.727417,570.136963 
	C2006.064331,571.014709 2012.155884,576.257507 2014.263428,585.229736 
	C2018.024780,601.243835 2008.612183,617.232422 1992.543579,620.779053 
	C1985.147949,622.411438 1977.359863,622.213135 1969.781860,623.115051 
	C1968.178589,623.305969 1965.482056,624.552124 1965.385376,625.521118 
	C1964.698975,632.407532 1964.557129,639.348206 1964.212158,646.926208 
	C1973.552002,646.926208 1982.354736,646.469666 1991.093140,647.026001 
	C2006.861816,648.029846 2015.620605,658.046936 2015.107056,673.639648 
	C2014.527466,691.234436 2002.859497,702.685242 1984.420654,702.838379 
	C1967.209229,702.981323 1954.442505,695.376221 1951.778198,676.126038 
	C1951.466431,673.873413 1951.026489,671.638611 1950.684570,669.623413 
	C1941.744507,669.623413 1933.144043,669.623413 1924.582397,669.623413 
	C1923.184937,695.267090 1937.625488,717.947266 1962.538208,724.990356 
	C1973.415283,728.065308 1984.478882,728.392883 1995.700928,727.094666 
	C2020.182739,724.262634 2039.165649,708.550781 2045.415649,685.614868 
	C2052.182617,660.782471 2040.878906,641.013855 2016.061523,634.260681 
	C2014.762329,633.907166 2013.487915,633.463196 2010.824463,632.630798 
	C2024.242188,627.632202 2034.471924,620.832153 2041.203979,608.655518 
z"/>
<path fill="#E32D40" opacity="1.000000" stroke="none" 
	d="
M1313.441162,554.594238 
	C1342.501709,567.704712 1370.789917,581.456482 1395.796387,600.943481 
	C1406.189941,609.043030 1416.236694,617.641357 1421.155518,630.515625 
	C1425.614624,642.186829 1420.812988,655.875488 1409.395630,660.866455 
	C1399.231934,665.309448 1388.511841,668.534973 1377.919678,671.931274 
	C1353.859009,679.646179 1329.557861,686.648560 1305.681519,694.888306 
	C1289.807007,700.366638 1275.881836,709.607605 1264.055298,721.740723 
	C1263.410156,722.402649 1262.614746,722.917969 1260.548462,724.579956 
	C1259.934326,659.951843 1259.332764,596.651978 1258.716064,531.743103 
	C1277.943237,539.755798 1295.526001,547.083130 1313.441162,554.594238 
z"/>
<path fill="#F1F1F1" opacity="1.000000" stroke="none" 
	d="
M140.862823,310.924438 
	C140.468384,317.823761 140.084396,324.245422 139.734848,330.091339 
	C152.619385,325.160553 165.343903,320.497406 177.830139,315.265564 
	C179.491394,314.569458 180.652847,311.042297 180.832367,308.731934 
	C181.605499,298.782349 181.871780,288.794586 182.424774,278.826385 
	C183.189529,265.040955 184.289871,251.269394 184.787827,237.475327 
	C185.202057,226.000778 184.633621,214.489456 185.094620,203.018280 
	C185.517715,192.490601 186.784317,182.090973 195.188019,174.153580 
	C206.887482,163.103317 223.482620,166.517944 227.489883,182.044128 
	C230.223358,192.634949 231.042496,204.090897 230.579636,215.069901 
	C228.799606,257.291595 226.265366,299.483246 223.794861,341.673370 
	C222.442932,364.760742 220.903931,387.843292 218.984863,410.889313 
	C217.491165,428.826996 204.065170,438.447296 186.530746,434.936005 
	C182.888565,434.206665 180.326096,432.511078 179.800156,428.655731 
	C178.812454,421.415710 177.318054,414.177795 177.126434,406.910187 
	C176.723221,391.616211 177.025833,376.303650 177.038513,360.998718 
	C177.039566,359.716705 177.038651,358.434662 177.038651,356.743286 
	C167.457870,361.496796 158.615295,366.952362 149.040985,370.339600 
	C139.092087,373.859314 135.585464,379.512146 135.598816,389.952728 
	C135.618332,405.227631 133.909454,420.509155 132.822342,435.779663 
	C131.894318,448.815552 121.409279,457.666260 110.143311,455.083588 
	C102.525131,453.337128 96.977943,445.911530 96.114487,435.835510 
	C95.745979,431.535217 95.802773,427.184814 95.887444,422.861511 
	C96.490463,392.074524 97.298386,361.290771 97.740379,330.501648 
	C98.032104,310.180084 97.789925,289.851288 97.851418,269.525879 
	C97.892738,255.867065 97.343254,242.152618 98.423492,228.571655 
	C99.038902,220.834579 101.494339,212.902496 104.743004,205.800034 
	C109.098946,196.276810 116.434921,193.179855 125.451485,195.000854 
	C135.121780,196.953888 141.426895,203.360809 141.896545,213.654083 
	C142.685226,230.939484 143.015793,248.266449 142.840485,265.568878 
	C142.688858,280.533264 141.566528,295.487854 140.862823,310.924438 
z"/>
<path fill="#F1F1F1" opacity="1.000000" stroke="none" 
	d="
M725.537598,92.558495 
	C729.491882,84.690849 735.038696,79.314438 743.968567,80.063927 
	C747.177185,80.333214 751.195801,82.309723 753.069275,84.827950 
	C757.319824,90.541321 759.080627,97.327774 757.455566,104.659134 
	C753.284119,123.478783 745.935547,141.177826 737.339233,158.252289 
	C724.030334,184.687210 709.919189,210.719925 695.978027,236.832352 
	C694.468994,239.658737 694.369751,241.715652 695.837708,244.550644 
	C709.754700,271.428406 724.056458,298.135925 734.253540,326.751068 
	C735.198303,329.402191 736.050476,332.130951 736.528259,334.895782 
	C738.218872,344.679565 731.520203,351.594421 721.695312,350.348053 
	C711.558899,349.062164 703.910767,343.365601 698.493774,335.316742 
	C691.734497,325.273529 685.488220,314.799072 679.990356,304.016235 
	C674.107483,292.478241 669.368652,280.357849 664.091797,268.508881 
	C663.155762,266.406921 662.030518,264.389252 661.201416,262.746399 
	C653.837097,267.761444 646.648010,272.494141 639.684814,277.538605 
	C638.315674,278.530457 637.177917,280.666718 637.019226,282.376007 
	C635.542908,298.281403 634.485657,314.226837 632.905762,330.120850 
	C632.286133,336.353821 631.040710,342.593506 629.374939,348.635681 
	C627.411255,355.758331 621.940979,359.589233 614.891113,360.759064 
	C610.832397,361.432526 606.589417,361.536102 602.477722,361.235321 
	C594.333557,360.639526 589.762817,355.211060 590.172668,346.901398 
	C591.713684,315.653259 593.703125,284.421936 594.796570,253.158844 
	C595.541748,231.853989 594.874207,210.503693 595.202637,189.179306 
	C595.605103,163.043076 596.283691,136.909668 597.051025,110.781143 
	C597.422546,98.129677 605.922363,92.016006 618.290283,94.466675 
	C626.918335,96.176308 632.013062,100.803452 634.344849,109.336899 
	C639.135071,126.866592 640.743713,144.713074 640.049744,162.752518 
	C639.167236,185.691360 637.800720,208.611572 636.583313,232.718674 
	C641.711243,227.919189 646.690613,223.669449 651.197876,218.967194 
	C668.327332,201.096756 680.398071,179.765823 691.862061,158.121323 
	C703.303650,136.519073 714.200195,114.628120 725.537598,92.558495 
z"/>
<path fill="#F1F1F1" opacity="1.000000" stroke="none" 
	d="
M291.055969,387.054321 
	C289.675110,397.417999 287.147919,406.746246 278.604828,413.251160 
	C272.930054,417.572052 266.878571,421.119415 259.847748,417.233856 
	C252.838501,413.360199 247.700409,407.214996 248.012695,398.885681 
	C248.467102,386.765900 249.795212,374.656586 251.230331,362.599884 
	C256.229492,320.600708 263.051361,278.905823 272.959290,237.758377 
	C278.179108,216.080460 283.383087,194.337799 293.262115,174.205948 
	C297.109558,166.365479 301.982178,158.852951 307.408844,151.999496 
	C318.312225,138.229279 336.847595,140.618454 344.911835,154.208435 
	C352.431610,166.880951 360.228088,179.796585 365.022461,193.605225 
	C381.656769,241.514984 398.690063,289.349213 410.478271,338.788849 
	C413.447052,351.239899 416.571655,363.734741 415.096771,376.726257 
	C414.160614,384.972626 408.136871,390.276703 399.819122,390.012848 
	C390.927612,389.730713 383.619293,386.150696 379.228271,378.117737 
	C370.602417,362.337494 366.427612,345.001678 361.997009,327.761505 
	C360.716003,322.776764 359.141113,317.867096 357.678864,312.929535 
	C356.281952,308.212555 352.584229,306.851715 348.327728,307.337769 
	C333.340210,309.049103 319.946625,315.470612 306.731232,322.188751 
	C305.360535,322.885529 304.569672,325.397369 304.163422,327.213287 
	C299.736267,347.001587 295.439392,366.819061 291.055969,387.054321 
M334.940735,206.586075 
	C333.094757,202.322327 331.505737,197.921783 329.329407,193.833908 
	C327.220642,189.872971 324.645142,189.705353 322.250488,193.564590 
	C319.734039,197.620102 317.180939,201.980545 316.117340,206.550659 
	C312.394653,222.546844 309.042053,238.642487 306.092407,254.799576 
	C304.643921,262.733795 304.390106,270.886078 303.444611,280.470428 
	C315.987366,276.761505 327.361176,273.744812 338.488525,269.996582 
	C347.152863,267.078003 348.473083,265.169617 346.631836,256.279358 
	C343.234985,239.878204 339.005707,223.649490 334.940735,206.586075 
z"/>
<path fill="#F1F0F0" opacity="1.000000" stroke="none" 
	d="
M1164.849609,252.000031 
	C1165.570557,278.127472 1165.879883,303.775604 1167.166382,329.374634 
	C1167.942627,344.820099 1170.292480,360.186676 1176.031250,374.758148 
	C1177.121704,377.526886 1178.473389,380.247284 1180.080322,382.748657 
	C1187.016968,393.546295 1198.262085,394.797333 1207.553223,385.805939 
	C1214.747803,378.843475 1218.788208,369.868591 1220.785889,360.450531 
	C1224.747437,341.773315 1228.907104,322.991180 1230.706299,304.036102 
	C1233.519409,274.398041 1234.388916,244.577209 1236.230469,214.843018 
	C1236.443237,211.407471 1237.116821,207.831772 1238.413452,204.663483 
	C1242.407227,194.905579 1252.680908,192.822235 1259.609741,200.717789 
	C1262.886597,204.451721 1265.899902,209.402328 1266.640015,214.172852 
	C1268.208618,224.283020 1269.109863,234.675629 1268.670532,244.882965 
	C1267.604614,269.652374 1265.890869,294.404022 1263.917358,319.121246 
	C1262.141113,341.367859 1259.210815,363.476746 1251.950317,384.753296 
	C1250.931030,387.740448 1249.820068,390.708160 1248.549072,393.595734 
	C1230.576172,434.426300 1192.904053,433.445831 1166.452026,416.544861 
	C1158.294189,411.332550 1151.166382,404.248383 1144.342651,397.263428 
	C1131.423706,384.039154 1127.742920,367.031189 1125.958008,349.311218 
	C1122.226562,312.264862 1122.481201,275.130920 1123.531250,238.004944 
	C1124.052979,219.555206 1125.574707,201.121750 1127.093018,182.717972 
	C1127.726562,175.037827 1130.285400,167.750305 1135.453857,161.703781 
	C1139.964478,156.426895 1145.644287,154.092865 1152.395142,156.165894 
	C1158.847534,158.147278 1162.930420,162.803528 1163.438354,169.592087 
	C1164.207764,179.874542 1164.663086,190.196411 1164.791992,200.507278 
	C1165.004517,217.502441 1164.849609,234.502197 1164.849609,252.000031 
z"/>
<path fill="#F1F1F1" opacity="1.000000" stroke="none" 
	d="
M846.741150,145.740829 
	C851.805969,129.752670 859.183655,115.624153 871.078430,104.042267 
	C890.411682,85.217598 921.555298,83.890869 942.014038,101.506546 
	C953.694824,111.564194 962.101868,124.160774 967.821777,138.404480 
	C970.508301,145.094513 972.303894,152.278320 967.254272,158.849655 
	C960.590881,167.521255 952.016968,171.280212 940.961914,168.776855 
	C933.801514,167.155411 928.434509,163.891190 926.214905,156.402161 
	C924.752197,151.467331 922.796509,146.678207 921.049194,141.828323 
	C919.339661,137.083298 917.056152,132.917664 911.207703,132.612381 
	C905.244690,132.301147 900.570984,134.159943 897.684875,139.886490 
	C891.923157,151.318802 888.422852,163.407013 887.069397,176.069168 
	C883.255615,211.749054 882.412659,247.490616 886.173157,283.219421 
	C887.002258,291.097015 888.738525,298.996246 891.080627,306.568939 
	C894.258545,316.843811 904.759827,323.900635 915.461182,324.137878 
	C921.840393,324.279266 925.967346,320.797974 928.052124,315.300293 
	C930.459778,308.950928 932.213196,302.338898 934.001770,295.773102 
	C936.105530,288.050140 939.373535,281.476532 947.702271,278.745392 
	C953.699890,276.778687 959.083740,277.965363 962.912170,282.924438 
	C966.853760,288.030090 969.603455,293.745026 968.951782,300.423645 
	C968.371094,306.373810 967.940002,312.415955 966.527893,318.193878 
	C961.034241,340.673309 941.975403,356.101776 917.184143,359.029907 
	C905.098267,360.457397 893.269958,359.699341 881.588745,356.421234 
	C858.172302,349.849945 841.830933,330.548676 838.892151,306.460541 
	C835.245483,276.570496 836.668884,246.645920 837.936584,216.715836 
	C838.858643,194.947678 839.145264,173.106308 844.953857,151.865799 
	C845.479675,149.943008 846.053223,148.033249 846.741150,145.740829 
z"/>
<path fill="#F1F1F1" opacity="1.000000" stroke="none" 
	d="
M474.020599,109.933044 
	C486.406006,105.429573 498.342621,105.936546 509.887177,111.128723 
	C525.621338,118.205170 538.201355,129.125153 547.266541,143.865906 
	C551.384216,150.561630 553.197937,157.887802 552.022034,165.821289 
	C550.122070,178.639740 537.364380,184.925842 526.683899,177.611771 
	C522.094482,174.468903 518.629150,169.509766 515.127625,165.006897 
	C512.190002,161.229187 510.359314,156.565353 507.298920,152.913757 
	C501.268097,145.717880 494.625275,146.169128 489.218903,153.856049 
	C482.467163,163.455856 479.540436,174.616608 477.045807,185.828003 
	C471.680023,209.943115 468.925201,234.378891 468.558746,259.097748 
	C468.221985,281.812103 469.497009,304.343628 475.732239,326.325623 
	C479.671387,340.212830 494.105286,345.169495 505.807434,336.758453 
	C514.199402,330.726624 519.298584,322.246857 523.308167,312.918549 
	C525.267700,308.359711 527.322571,303.719971 530.139587,299.678131 
	C535.290527,292.287598 544.288269,289.324249 551.598328,291.877991 
	C558.801941,294.394562 563.716553,301.819672 562.727783,311.169220 
	C559.922302,337.696930 549.430847,359.627106 522.506592,369.072968 
	C511.033203,373.098145 498.721130,375.620514 486.600006,376.710419 
	C466.768799,378.493591 451.938873,369.078156 442.007721,352.132111 
	C431.017426,333.378845 427.329315,312.627686 426.911652,291.274658 
	C426.213989,255.606506 427.325378,219.980133 433.128876,184.708832 
	C435.417847,170.797241 439.108002,157.113541 442.236420,143.343399 
	C446.155518,126.093048 457.852539,116.124474 474.020599,109.933044 
z"/>
<path fill="#F1F0F0" opacity="1.000000" stroke="none" 
	d="
M1293.550049,249.533005 
	C1294.795532,242.207306 1295.623535,235.252335 1297.211792,228.475586 
	C1298.529907,222.851822 1301.949219,220.797806 1307.250977,222.243668 
	C1338.247314,230.697021 1361.663696,248.883850 1376.302734,277.607635 
	C1382.457031,289.683136 1382.808228,303.063751 1381.461182,316.227081 
	C1380.263794,327.927338 1378.304810,339.600037 1375.829712,351.101471 
	C1374.180908,358.764038 1370.488525,365.784760 1364.008911,371.166321 
	C1380.950073,385.521332 1378.165039,404.015137 1374.476807,422.300323 
	C1372.448120,432.357941 1369.148560,442.210785 1365.791016,451.938171 
	C1358.696411,472.492889 1343.920776,481.010559 1322.839844,475.229919 
	C1311.287231,472.062012 1300.410034,466.270020 1289.497192,461.094177 
	C1287.745239,460.263214 1286.518677,456.438141 1286.561768,454.024139 
	C1286.786865,441.386292 1287.644043,428.761383 1288.016846,416.124176 
	C1289.449463,367.553467 1290.752686,318.978973 1292.183350,270.408203 
	C1292.384155,263.592468 1293.024536,256.789673 1293.550049,249.533005 
M1325.193604,321.911469 
	C1325.180908,329.893066 1325.271484,337.876862 1325.101807,345.855103 
	C1325.039062,348.807983 1325.992798,349.903046 1329.010376,350.137177 
	C1340.451416,351.024933 1349.791016,345.358063 1352.568481,333.765839 
	C1357.507568,313.152405 1354.838501,293.160248 1344.615845,274.479858 
	C1341.809570,269.351685 1337.446899,265.467865 1330.871094,263.883850 
	C1330.211792,267.216156 1329.309937,270.248535 1329.051636,273.334778 
	C1327.722778,289.211060 1326.559326,305.101196 1325.193604,321.911469 
M1320.999512,408.501617 
	C1321.061401,416.985565 1320.976196,425.473999 1321.236816,433.951843 
	C1321.410278,439.597504 1323.628296,441.628906 1330.097412,443.347839 
	C1335.073364,444.670044 1338.612671,442.652405 1340.947510,438.501160 
	C1342.309448,436.079773 1343.568726,433.355194 1343.905640,430.646545 
	C1345.155151,420.603546 1346.544922,410.527863 1346.868164,400.431976 
	C1347.308838,386.671143 1338.028931,376.393738 1323.589355,373.952606 
	C1320.946777,384.996094 1321.146118,396.265778 1320.999512,408.501617 
z"/>
<path fill="#F1F1F1" opacity="1.000000" stroke="none" 
	d="
M997.685974,343.446167 
	C999.563721,331.728149 1002.059631,320.485687 1003.036377,309.112762 
	C1004.944153,286.898376 1006.166138,264.619812 1007.370300,242.351517 
	C1008.753845,216.763718 1009.271484,191.116547 1011.246216,165.578751 
	C1012.173828,153.583603 1014.820068,141.548508 1018.177673,129.963394 
	C1021.443481,118.695107 1026.522339,116.984634 1037.566895,120.864777 
	C1054.358887,126.764091 1061.531006,136.472153 1060.901123,154.298569 
	C1060.202148,174.079651 1058.592651,193.826752 1057.615479,213.600296 
	C1056.473877,236.706879 1055.624146,259.827728 1054.577637,282.939209 
	C1053.809814,299.895416 1053.050293,316.853973 1052.005737,333.794128 
	C1051.770386,337.611328 1053.023193,339.947113 1056.377441,341.109833 
	C1064.213257,343.826050 1072.122681,346.329010 1079.979980,348.984253 
	C1085.011841,350.684692 1090.303223,351.933228 1094.955811,354.378326 
	C1107.173584,360.799011 1108.992310,376.263428 1098.455566,384.664856 
	C1095.947876,386.664307 1091.609253,387.878906 1088.477661,387.338745 
	C1068.335327,383.864410 1048.253174,379.998535 1028.246704,375.806152 
	C1022.630493,374.629272 1017.016479,372.515717 1011.958557,369.795929 
	C1001.828613,364.348816 997.017090,355.483917 997.685974,343.446167 
z"/>
<path fill="#F1F0F1" opacity="1.000000" stroke="none" 
	d="
M1653.651978,700.447632 
	C1645.120605,696.663208 1639.884521,690.167542 1635.868530,682.451660 
	C1627.713135,666.783081 1623.340698,649.894714 1620.351318,632.661743 
	C1615.947144,607.271301 1614.652100,581.737732 1619.058838,556.186218 
	C1622.710083,535.014343 1631.096680,516.475220 1651.024170,505.845154 
	C1670.695068,495.351959 1690.877930,493.170746 1710.654541,505.875214 
	C1720.865479,512.434692 1727.130493,522.303650 1730.947510,533.547974 
	C1745.457642,576.292175 1749.910645,619.774231 1739.848877,664.229553 
	C1733.963013,690.234436 1714.129639,705.899780 1686.060181,706.584839 
	C1674.948242,706.856018 1664.175049,705.286926 1653.651978,700.447632 
M1671.040527,662.337769 
	C1672.364990,664.641174 1673.506470,667.075745 1675.046997,669.224243 
	C1680.574585,676.933655 1687.966919,677.696594 1695.142212,671.654053 
	C1700.800171,666.889343 1703.593018,660.610596 1704.983032,653.633789 
	C1710.582520,625.526550 1710.129150,597.374451 1704.107544,569.463684 
	C1702.284668,561.014343 1698.994629,552.487854 1694.559204,545.085754 
	C1687.469360,533.253357 1673.718750,532.467468 1664.847656,543.101624 
	C1661.177002,547.501953 1658.004639,553.457947 1657.372925,559.020691 
	C1655.976562,571.317383 1655.218872,583.903992 1656.219727,596.208069 
	C1658.040405,618.590393 1662.130371,640.672485 1671.040527,662.337769 
z"/>
<path fill="#F1F0F1" opacity="1.000000" stroke="none" 
	d="
M1606.368530,687.426514 
	C1617.531250,692.741577 1621.299072,702.391479 1616.433350,712.714478 
	C1614.505859,716.803955 1611.657349,719.567017 1606.833008,720.509644 
	C1574.049805,726.915222 1542.598022,737.431946 1512.297119,751.476379 
	C1507.943726,753.494141 1503.370117,755.153198 1498.750244,756.450806 
	C1492.778442,758.128113 1488.850464,756.467468 1485.517456,751.215698 
	C1477.934937,739.268860 1476.835449,726.290344 1481.718384,713.387756 
	C1485.394897,703.673096 1490.450073,694.398315 1495.631958,685.351868 
	C1507.443848,664.730774 1520.153687,644.612732 1531.554321,623.773682 
	C1535.608521,616.363159 1537.171143,607.521423 1539.363281,599.199280 
	C1540.084229,596.462708 1539.648193,593.200806 1538.978027,590.359131 
	C1536.892700,581.517334 1527.704102,577.978455 1520.946167,583.940613 
	C1515.918701,588.376099 1511.994873,594.120422 1507.885254,599.514893 
	C1505.683838,602.404480 1504.378418,605.969849 1502.224487,608.904236 
	C1498.925537,613.398132 1495.883301,618.717712 1488.798706,617.095154 
	C1481.422485,615.405823 1477.106079,610.142517 1476.116577,603.276001 
	C1475.366577,598.072083 1475.890503,592.087830 1477.786133,587.203186 
	C1485.735474,566.720825 1499.620728,551.070190 1519.433594,541.431580 
	C1532.725342,534.965271 1546.517456,535.157715 1559.782593,542.239563 
	C1571.504517,548.497559 1574.835693,559.962158 1576.937866,571.732849 
	C1580.268799,590.384338 1575.585693,608.095215 1569.278931,625.434448 
	C1560.477173,649.633362 1547.581787,671.771484 1534.486572,693.803406 
	C1532.747681,696.729309 1531.530151,699.965149 1530.071167,703.057495 
	C1530.428589,703.513916 1530.785889,703.970276 1531.143311,704.426697 
	C1533.608765,703.532043 1536.094116,702.688477 1538.536255,701.734192 
	C1551.501099,696.668396 1564.255737,690.955139 1577.480835,686.702393 
	C1586.720215,683.731323 1596.561768,684.102600 1606.368530,687.426514 
z"/>
<path fill="#F1F0F1" opacity="1.000000" stroke="none" 
	d="
M1849.812744,636.804932 
	C1845.204956,644.557312 1840.770752,651.987976 1836.358276,659.431396 
	C1833.230103,664.708313 1833.551636,667.159363 1839.311401,669.500000 
	C1847.441772,672.803894 1855.897461,675.349426 1864.308960,677.907349 
	C1872.730591,680.468262 1881.351196,682.388855 1889.731812,685.067505 
	C1897.305298,687.488098 1899.563232,691.819214 1898.111206,699.689087 
	C1896.760132,707.011658 1893.018555,713.018921 1887.434204,717.830200 
	C1883.758057,720.997192 1879.781982,721.663025 1874.952637,719.771729 
	C1856.005371,712.351440 1836.602661,706.388306 1816.224609,704.598694 
	C1809.147583,703.977173 1801.909058,704.126770 1794.832764,704.822876 
	C1785.156860,705.774658 1780.944702,702.662231 1782.205200,692.968384 
	C1783.094360,686.130188 1785.236328,679.351074 1787.601440,672.829346 
	C1793.313232,657.078491 1802.293457,643.073608 1811.541504,629.192993 
	C1823.818604,610.765991 1835.708374,592.034058 1843.440552,571.146484 
	C1845.883789,564.546204 1847.132446,557.371704 1847.959106,550.346008 
	C1848.650513,544.471008 1845.886475,539.576111 1840.121948,537.125061 
	C1834.565308,534.762390 1830.215820,537.585876 1826.886719,541.460754 
	C1822.469360,546.602173 1818.650146,552.263489 1814.661865,557.765137 
	C1812.035889,561.387512 1809.912354,565.434326 1806.946289,568.736450 
	C1802.066650,574.169250 1796.286133,574.212708 1790.790527,569.356506 
	C1784.256592,563.582520 1782.322266,556.203064 1784.596191,548.049438 
	C1790.944946,525.284058 1805.725464,509.214722 1825.880615,497.772675 
	C1833.421753,493.491516 1841.808716,491.813721 1850.455200,492.559906 
	C1870.398315,494.281158 1881.248291,504.358948 1884.975586,524.518433 
	C1888.644653,544.363037 1885.081909,563.557739 1877.235718,581.597595 
	C1869.099121,600.304871 1859.151367,618.224487 1849.812744,636.804932 
z"/>
<path fill="#F1EFF0" opacity="1.000000" stroke="none" 
	d="
M2041.024292,608.975769 
	C2034.471924,620.832153 2024.242188,627.632202 2010.824463,632.630798 
	C2013.487915,633.463196 2014.762329,633.907166 2016.061523,634.260681 
	C2040.878906,641.013855 2052.182617,660.782471 2045.415649,685.614868 
	C2039.165649,708.550781 2020.182739,724.262634 1995.700928,727.094666 
	C1984.478882,728.392883 1973.415283,728.065308 1962.538208,724.990356 
	C1937.625488,717.947266 1923.184937,695.267090 1924.582397,669.623413 
	C1933.144043,669.623413 1941.744507,669.623413 1950.684570,669.623413 
	C1951.026489,671.638611 1951.466431,673.873413 1951.778198,676.126038 
	C1954.442505,695.376221 1967.209229,702.981323 1984.420654,702.838379 
	C2002.859497,702.685242 2014.527466,691.234436 2015.107056,673.639648 
	C2015.620605,658.046936 2006.861816,648.029846 1991.093140,647.026001 
	C1982.354736,646.469666 1973.552002,646.926208 1964.212158,646.926208 
	C1964.557129,639.348206 1964.698975,632.407532 1965.385376,625.521118 
	C1965.482056,624.552124 1968.178589,623.305969 1969.781860,623.115051 
	C1977.359863,622.213135 1985.147949,622.411438 1992.543579,620.779053 
	C2008.612183,617.232422 2018.024780,601.243835 2014.263428,585.229736 
	C2012.155884,576.257507 2006.064331,571.014709 1996.727417,570.136963 
	C1976.723999,568.256409 1961.780396,579.993347 1958.787598,599.934021 
	C1958.466919,602.071655 1958.138184,604.208069 1957.731567,606.881226 
	C1948.803589,607.357239 1939.768555,607.838989 1930.727417,608.321045 
	C1929.714355,584.034973 1946.805176,557.608154 1969.821411,548.194519 
	C1987.754150,540.860107 2006.209595,538.659058 2024.773438,546.031555 
	C2045.243896,554.161194 2049.735596,570.266296 2047.619263,587.859436 
	C2046.766846,594.946167 2043.417114,601.732483 2041.024292,608.975769 
z"/>
<path fill="#E42F42" opacity="1.000000" stroke="none" 
	d="
M335.031982,206.967499 
	C339.005707,223.649490 343.234985,239.878204 346.631836,256.279358 
	C348.473083,265.169617 347.152863,267.078003 338.488525,269.996582 
	C327.361176,273.744812 315.987366,276.761505 303.444611,280.470428 
	C304.390106,270.886078 304.643921,262.733795 306.092407,254.799576 
	C309.042053,238.642487 312.394653,222.546844 316.117340,206.550659 
	C317.180939,201.980545 319.734039,197.620102 322.250488,193.564590 
	C324.645142,189.705353 327.220642,189.872971 329.329407,193.833908 
	C331.505737,197.921783 333.094757,202.322327 335.031982,206.967499 
z"/>
<path fill="#E42F42" opacity="1.000000" stroke="none" 
	d="
M1325.265747,321.448975 
	C1326.559326,305.101196 1327.722778,289.211060 1329.051636,273.334778 
	C1329.309937,270.248535 1330.211792,267.216156 1330.871094,263.883850 
	C1337.446899,265.467865 1341.809570,269.351685 1344.615845,274.479858 
	C1354.838501,293.160248 1357.507568,313.152405 1352.568481,333.765839 
	C1349.791016,345.358063 1340.451416,351.024933 1329.010376,350.137177 
	C1325.992798,349.903046 1325.039062,348.807983 1325.101807,345.855103 
	C1325.271484,337.876862 1325.180908,329.893066 1325.265747,321.448975 
z"/>
<path fill="#E42F42" opacity="1.000000" stroke="none" 
	d="
M1320.999512,408.002136 
	C1321.146118,396.265778 1320.946777,384.996094 1323.589355,373.952606 
	C1338.028931,376.393738 1347.308838,386.671143 1346.868164,400.431976 
	C1346.544922,410.527863 1345.155151,420.603546 1343.905640,430.646545 
	C1343.568726,433.355194 1342.309448,436.079773 1340.947510,438.501160 
	C1338.612671,442.652405 1335.073364,444.670044 1330.097412,443.347839 
	C1323.628296,441.628906 1321.410278,439.597504 1321.236816,433.951843 
	C1320.976196,425.473999 1321.061401,416.985565 1320.999512,408.002136 
z"/>
<path fill="#E42E41" opacity="1.000000" stroke="none" 
	d="
M1670.897705,661.989624 
	C1662.130371,640.672485 1658.040405,618.590393 1656.219727,596.208069 
	C1655.218872,583.903992 1655.976562,571.317383 1657.372925,559.020691 
	C1658.004639,553.457947 1661.177002,547.501953 1664.847656,543.101624 
	C1673.718750,532.467468 1687.469360,533.253357 1694.559204,545.085754 
	C1698.994629,552.487854 1702.284668,561.014343 1704.107544,569.463684 
	C1710.129150,597.374451 1710.582520,625.526550 1704.983032,653.633789 
	C1703.593018,660.610596 1700.800171,666.889343 1695.142212,671.654053 
	C1687.966919,677.696594 1680.574585,676.933655 1675.046997,669.224243 
	C1673.506470,667.075745 1672.364990,664.641174 1670.897705,661.989624 
z"/>
</svg>