<svg version="1.1" id="Layer_1" xmlns="http://www.w3.org/2000/svg" xmlns:xlink="http://www.w3.org/1999/xlink" x="0px" y="0px"
	 width="100%" viewBox="0 0 2225 863" enable-background="new 0 0 2225 863" xml:space="preserve">
<path fill="#000000" opacity="1.000000" stroke="none" 
	d="
M0.999999,158.000000 
	C1.000000,105.673241 1.000000,53.346485 1.000000,1.014795 
	C742.566895,1.009863 1484.133789,1.009863 2226.000000,1.009863 
	C2226.000000,287.364197 2226.000000,573.728455 2225.556396,860.546387 
	C1483.741821,861.000000 742.370911,861.000000 1.000000,861.000000 
	C1.000000,633.969116 1.000000,406.938171 1.426529,179.312027 
	C2.235078,179.893158 2.930303,181.063614 2.952602,182.246750 
	C3.350293,203.347504 3.659380,224.449921 4.001976,245.551743 
	C4.325637,265.487213 4.673434,285.422302 4.997092,305.357758 
	C5.339686,326.459564 5.659334,347.561798 6.001966,368.663605 
	C6.325660,388.599060 6.696882,408.533813 6.991518,428.469696 
	C7.357570,453.237793 7.691205,478.006409 7.985454,502.775482 
	C8.078498,510.607574 7.983241,518.441833 8.017644,526.274902 
	C8.023161,527.530945 8.257824,528.785889 8.433426,530.498474 
	C16.280624,529.670410 23.756115,529.151245 31.146362,528.056580 
	C69.812775,522.329285 108.677330,517.622559 147.064301,510.391479 
	C227.976593,495.149811 308.505219,477.863800 389.446228,462.785217 
	C437.342438,453.862579 485.628601,446.838440 533.919556,440.289154 
	C574.641235,434.766449 615.555054,430.348175 656.508057,426.929779 
	C698.786499,423.400726 741.186401,420.856110 783.585388,419.371674 
	C828.869568,417.786163 874.142517,419.788727 919.313721,423.781067 
	C961.469543,427.506866 1003.304871,433.415985 1044.648804,442.368896 
	C1132.476929,461.387756 1217.886963,488.346344 1301.148438,522.073975 
	C1333.568726,535.206787 1365.285767,549.924438 1394.545288,569.308533 
	C1405.014160,576.243958 1414.796143,584.216125 1424.907837,591.727112 
	C1424.969482,591.066284 1425.104004,590.106995 1425.142578,589.143921 
	C1426.302856,560.207031 1427.785156,531.278259 1428.524902,502.330536 
	C1429.520386,463.374542 1430.067993,424.405426 1430.550415,385.438782 
	C1430.754395,368.954834 1430.511475,352.457550 1430.098877,335.975677 
	C1429.540649,313.674408 1428.482910,291.385712 1427.911499,269.084656 
	C1427.540161,254.594101 1423.181641,242.030289 1412.065918,232.228790 
	C1405.573975,226.504303 1399.477661,220.295593 1392.713257,214.921539 
	C1359.312866,188.386337 1322.639038,166.985458 1284.629517,147.954956 
	C1184.700439,97.922737 1078.353882,67.778175 968.821655,48.197197 
	C932.651550,41.731098 896.141846,36.979477 859.654297,32.537926 
	C834.231323,29.443243 808.614014,27.194420 783.025635,26.376213 
	C738.893921,24.965071 694.741272,26.560917 650.803711,30.987780 
	C606.102905,35.491535 561.400391,40.291035 516.906616,46.461021 
	C455.589294,54.963947 394.838745,66.911743 334.401337,80.294167 
	C229.929550,103.426994 126.613724,130.901718 24.745790,163.724777 
	C18.785624,165.645187 12.814889,167.532822 7.307256,169.289566 
	C4.986522,165.135605 2.993260,161.567810 0.999999,158.000000 
M2159.257324,835.149902 
	C2165.678467,835.149902 2172.099609,835.149902 2178.520752,835.149902 
	C2178.901367,834.747620 2179.281982,834.345337 2179.662842,833.943054 
	C2178.206055,832.924866 2176.523193,832.120483 2175.326904,830.856079 
	C2159.191650,813.802734 2142.694824,797.065186 2127.150635,779.486084 
	C2108.369629,758.246277 2091.225830,735.688965 2078.573975,710.117126 
	C2076.804932,706.541260 2075.829102,702.226379 2075.742188,698.226318 
	C2075.416260,683.233521 2075.604736,668.229431 2075.621338,653.229553 
	C2075.623047,651.672729 2075.766602,650.116089 2075.843994,648.559326 
	C2076.151611,648.484131 2076.459229,648.408997 2076.766846,648.333801 
	C2082.778809,660.943115 2088.790527,673.552368 2094.949707,686.470642 
	C2129.316406,673.651489 2163.184082,661.288391 2190.105225,634.927917 
	C2188.034912,633.425415 2186.739990,632.400818 2185.364502,631.499573 
	C2142.326416,603.305176 2099.654541,574.528625 2056.122803,547.117737 
	C2018.113770,523.184204 1979.072510,501.246399 1936.766846,485.054840 
	C1863.647949,457.070221 1788.528931,445.497070 1710.586182,452.179382 
	C1661.615967,456.377747 1613.893677,466.750305 1567.409058,482.558868 
	C1533.412842,494.120361 1499.676270,506.445709 1465.824341,518.431396 
	C1461.762329,519.869568 1456.243042,520.200073 1454.054443,523.069336 
	C1451.896118,525.898926 1453.112915,531.301270 1452.843750,535.574463 
	C1452.697632,537.896729 1452.504272,540.216614 1452.394165,542.540466 
	C1450.890991,574.298157 1449.532227,606.063538 1447.822021,637.809998 
	C1447.311401,647.291443 1445.671387,656.678162 1440.857422,665.161377 
	C1434.010376,677.226807 1422.826782,683.753723 1410.291138,687.866699 
	C1391.652466,693.982056 1372.647217,698.980042 1354.012451,705.106506 
	C1337.299438,710.601135 1320.527344,716.178223 1304.428345,723.201965 
	C1289.980347,729.505310 1278.446533,739.964111 1271.334106,754.533691 
	C1268.387085,760.570251 1267.160645,766.684570 1269.912720,773.275146 
	C1272.536377,779.558472 1274.406494,786.163757 1277.150635,792.388184 
	C1287.470581,815.796204 1305.079712,830.040100 1330.615601,833.851013 
	C1347.752441,836.408447 1365.021606,836.159485 1381.779541,832.200439 
	C1406.509277,826.358093 1431.120972,819.832886 1455.434326,812.450867 
	C1499.979370,798.926086 1544.040039,783.774292 1588.726074,770.753967 
	C1641.356812,755.418701 1695.114746,746.679810 1750.230225,747.784424 
	C1791.469604,748.610840 1831.778198,754.945312 1870.939575,767.715149 
	C1928.367798,786.441467 1986.048584,804.221436 2045.024170,817.480774 
	C2082.385254,825.880493 2119.942627,833.133850 2159.257324,835.149902 
M1260.330078,693.421143 
	C1260.663208,703.406372 1260.996338,713.391602 1261.307007,722.703857 
	C1270.470459,716.076599 1279.124023,709.026428 1288.530273,703.188721 
	C1305.382446,692.729797 1324.588989,687.944031 1343.300903,682.107971 
	C1363.130859,675.923218 1383.068237,670.083130 1402.913940,663.948120 
	C1414.929932,660.233704 1422.048584,652.483276 1422.620605,639.389893 
	C1422.955078,631.732605 1419.611938,625.562622 1415.217407,619.857788 
	C1405.312378,606.999207 1392.394043,597.586487 1378.891113,588.938538 
	C1349.633057,570.200256 1318.082642,556.057800 1286.035767,542.940491 
	C1277.480103,539.438477 1268.843750,536.134338 1260.179688,532.713806 
	C1260.179688,586.361694 1260.179688,639.405457 1260.330078,693.421143 
z"/>
<path fill="#E42D40" opacity="1.000000" stroke="none" 
	d="
M0.999999,158.468536 
	C2.993260,161.567810 4.986522,165.135605 7.307256,169.289566 
	C12.814889,167.532822 18.785624,165.645187 24.745790,163.724777 
	C126.613724,130.901718 229.929550,103.426994 334.401337,80.294167 
	C394.838745,66.911743 455.589294,54.963947 516.906616,46.461021 
	C561.400391,40.291035 606.102905,35.491535 650.803711,30.987780 
	C694.741272,26.560917 738.893921,24.965071 783.025635,26.376213 
	C808.614014,27.194420 834.231323,29.443243 859.654297,32.537926 
	C896.141846,36.979477 932.651550,41.731098 968.821655,48.197197 
	C1078.353882,67.778175 1184.700439,97.922737 1284.629517,147.954956 
	C1322.639038,166.985458 1359.312866,188.386337 1392.713257,214.921539 
	C1399.477661,220.295593 1405.573975,226.504303 1412.065918,232.228790 
	C1423.181641,242.030289 1427.540161,254.594101 1427.911499,269.084656 
	C1428.482910,291.385712 1429.540649,313.674408 1430.098877,335.975677 
	C1430.511475,352.457550 1430.754395,368.954834 1430.550415,385.438782 
	C1430.067993,424.405426 1429.520386,463.374542 1428.524902,502.330536 
	C1427.785156,531.278259 1426.302856,560.207031 1425.142578,589.143921 
	C1425.104004,590.106995 1424.969482,591.066284 1424.907837,591.727112 
	C1414.796143,584.216125 1405.014160,576.243958 1394.545288,569.308533 
	C1365.285767,549.924438 1333.568726,535.206787 1301.148438,522.073975 
	C1217.886963,488.346344 1132.476929,461.387756 1044.648804,442.368896 
	C1003.304871,433.415985 961.469543,427.506866 919.313721,423.781067 
	C874.142517,419.788727 828.869568,417.786163 783.585388,419.371674 
	C741.186401,420.856110 698.786499,423.400726 656.508057,426.929779 
	C615.555054,430.348175 574.641235,434.766449 533.919556,440.289154 
	C485.628601,446.838440 437.342438,453.862579 389.446228,462.785217 
	C308.505219,477.863800 227.976593,495.149811 147.064301,510.391479 
	C108.677330,517.622559 69.812775,522.329285 31.146362,528.056580 
	C23.756115,529.151245 16.280624,529.670410 8.433426,530.498474 
	C8.257824,528.785889 8.023161,527.530945 8.017644,526.274902 
	C7.983241,518.441833 8.078498,510.607574 7.985454,502.775482 
	C7.691205,478.006409 7.357570,453.237793 6.991518,428.469696 
	C6.696882,408.533813 6.325660,388.599060 6.001966,368.663605 
	C5.659334,347.561798 5.339686,326.459564 4.997092,305.357758 
	C4.673434,285.422302 4.325637,265.487213 4.001976,245.551743 
	C3.659380,224.449921 3.350293,203.347504 2.952602,182.246750 
	C2.930303,181.063614 2.235078,179.893158 1.426529,178.858398 
	C1.000000,172.312363 1.000000,165.624710 0.999999,158.468536 
M139.841232,329.821381 
	C140.865707,308.544647 142.326874,287.277161 142.778412,265.988281 
	C143.148773,248.527390 142.673233,231.024948 141.884796,213.572006 
	C141.421265,203.311691 135.053955,196.909958 125.366798,194.988892 
	C116.358284,193.202377 109.003815,196.314407 104.702705,205.875763 
	C101.433647,213.142868 99.166512,221.246704 98.407608,229.165527 
	C97.299332,240.729813 98.005768,252.462936 97.827080,264.122406 
	C97.385704,292.921875 96.760796,321.719025 96.436058,350.519653 
	C96.124359,378.163971 95.884293,405.813507 96.144234,433.455750 
	C96.190308,438.355316 98.098816,443.627838 100.458191,448.024719 
	C104.097153,454.806274 112.358635,457.158508 119.607903,454.597412 
	C127.427177,451.834930 132.276062,444.431213 132.883224,434.662628 
	C133.915710,418.051544 135.258621,401.456573 136.033554,384.834412 
	C136.327469,378.530151 138.046051,374.226685 144.697662,372.543732 
	C147.860641,371.743469 150.759644,369.853241 153.736404,368.372681 
	C161.397583,364.562073 169.035416,360.704529 177.059326,356.676636 
	C177.059326,358.345001 177.060577,359.488068 177.059143,360.631134 
	C177.039886,376.104156 176.784912,391.582123 177.109268,407.047913 
	C177.251541,413.832886 178.488403,420.604706 179.392166,427.360535 
	C180.024155,432.084808 182.789688,434.416412 187.655380,435.129700 
	C205.124832,437.690674 217.464890,428.440033 219.015533,410.745880 
	C220.555405,393.174683 221.771317,375.569397 222.793396,357.959595 
	C225.560562,310.282898 228.444702,262.609070 230.586807,214.902893 
	C231.079422,203.932129 230.203323,192.463470 227.431442,181.885803 
	C223.370972,166.390839 206.757706,163.120300 195.065277,174.278229 
	C186.706970,182.254440 185.505692,192.670151 185.090820,203.196198 
	C184.638641,214.669266 185.189346,226.180939 184.774231,237.656662 
	C184.281250,251.285797 183.181946,264.892181 182.426743,278.512939 
	C181.864792,288.648468 181.447571,298.791931 180.934586,308.930298 
	C180.735474,312.865601 179.399963,315.334259 174.914627,316.547668 
	C167.724731,318.492767 160.788010,321.442627 153.853333,324.238373 
	C149.153244,326.133209 144.639999,328.491486 139.841232,329.821381 
M702.950623,340.556213 
	C706.016907,342.823090 708.858093,345.520477 712.196838,347.266296 
	C718.925232,350.784637 726.235718,352.952942 732.720825,347.251282 
	C739.042053,341.693726 737.172119,334.447418 734.668823,327.758759 
	C731.173096,318.418152 727.662048,309.038300 723.375854,300.047882 
	C714.430603,281.285156 704.934692,262.785492 695.796265,244.113480 
	C695.032654,242.553070 694.451660,240.086426 695.147766,238.750717 
	C706.062500,217.809280 717.174438,196.970230 728.295776,176.136917 
	C740.465637,153.339432 751.313110,130.009827 757.417297,104.741051 
	C759.182739,97.432617 757.335876,90.630562 753.123596,84.895233 
	C751.264099,82.363403 747.261963,80.357353 744.054749,80.065117 
	C735.381348,79.274826 729.758179,84.348953 726.003479,91.728523 
	C717.028809,109.367447 708.343933,127.159523 699.063599,144.635651 
	C687.049805,167.259048 675.515076,190.218567 658.960999,210.071106 
	C652.274414,218.090042 645.546265,226.083511 636.126526,232.254089 
	C636.126526,230.709656 636.078125,229.779037 636.133667,228.854630 
	C637.460205,206.759872 639.097351,184.678543 640.040222,162.567581 
	C640.816406,144.367035 639.132568,126.339668 634.144287,108.681099 
	C631.841858,100.530396 626.784302,96.250648 618.592285,94.556244 
	C605.933044,91.937859 597.414429,98.025955 597.047058,110.966988 
	C596.286377,137.762817 595.618835,164.563187 595.199707,191.366196 
	C594.876526,212.024216 595.520508,232.707901 594.787354,253.346527 
	C593.671021,284.776245 591.692200,316.174774 590.179382,347.591370 
	C589.810364,355.255127 594.532227,360.637573 602.171021,361.191986 
	C606.285034,361.490601 610.516296,361.423431 614.586060,360.805756 
	C621.870239,359.700287 627.440369,355.767944 629.453552,348.463196 
	C631.118652,342.421692 632.294983,336.167450 632.912964,329.930664 
	C634.471313,314.201477 635.528992,298.423096 636.978210,282.682037 
	C637.139221,280.932800 638.089050,278.686249 639.429993,277.710968 
	C646.481140,272.582428 653.775696,267.788422 661.475220,262.544952 
	C665.564819,271.946747 669.646912,281.566132 673.918762,291.100433 
	C681.682129,308.427582 689.479431,325.750153 702.950623,340.556213 
M387.241028,386.407104 
	C390.009613,387.510895 392.692352,388.985046 395.562592,389.650085 
	C404.734009,391.775116 413.450836,386.763611 414.854462,378.509338 
	C415.461029,374.942352 415.896820,371.109711 415.256927,367.608521 
	C412.542542,352.756805 410.532928,337.641266 406.193207,323.246948 
	C393.142792,279.960449 379.676636,236.778488 365.161591,193.966324 
	C360.473633,180.139099 352.622101,167.238571 345.156433,154.537994 
	C336.875244,140.450012 318.376007,138.326691 306.522522,152.656113 
	C298.771088,162.026657 293.277863,172.591766 288.990112,183.815079 
	C275.869324,218.158966 268.294006,253.987045 262.208466,290.054840 
	C256.676727,322.840576 252.750122,355.899017 248.249023,388.855438 
	C247.078003,397.429535 247.376801,405.699738 253.923111,412.677551 
	C260.092712,419.253906 266.725708,420.711578 274.437317,416.101776 
	C283.211029,410.857147 288.104675,403.161041 290.104950,392.976044 
	C294.426636,370.970978 299.369141,349.087067 304.171783,327.178619 
	C304.568634,325.368225 305.386627,322.873322 306.760620,322.174561 
	C319.969666,315.457428 333.359741,309.044159 348.340210,307.336304 
	C352.591095,306.851715 356.258820,308.226288 357.692841,312.932739 
	C358.757996,316.428589 359.891205,319.903717 360.987488,323.390167 
	C366.212769,340.008179 371.040405,356.768372 376.903931,373.157990 
	C378.631958,377.988068 383.287720,381.770752 387.241028,386.407104 
M1230.986694,304.373596 
	C1227.661377,323.018616 1224.771118,341.756195 1220.831665,360.270569 
	C1218.791016,369.860626 1214.720581,379.001465 1207.325684,386.025879 
	C1198.132935,394.758087 1186.918945,393.559113 1180.228882,382.869293 
	C1177.614136,378.691254 1175.545044,374.007843 1174.103882,369.287018 
	C1166.980469,345.952118 1165.805054,321.770264 1165.301514,297.655579 
	C1164.630005,265.505463 1165.022461,233.334106 1164.807861,201.172867 
	C1164.743408,191.522476 1164.316162,181.868073 1163.802246,172.228989 
	C1163.338135,163.526047 1158.724243,157.601685 1151.594482,155.940231 
	C1144.433472,154.271500 1137.120850,157.247467 1133.267822,164.814514 
	C1130.377197,170.491806 1127.808228,176.823105 1127.184082,183.071823 
	C1125.365845,201.274185 1124.046997,219.565796 1123.530518,237.850601 
	C1122.477051,275.146729 1122.219482,312.451508 1125.986816,349.664276 
	C1127.763306,367.212646 1131.469360,384.054962 1144.255249,397.153168 
	C1151.076904,404.141388 1158.193848,411.228210 1166.337524,416.467834 
	C1192.701172,433.430298 1230.523926,434.475922 1248.486694,393.710724 
	C1249.759033,390.823181 1250.894897,387.864990 1251.915161,384.878479 
	C1259.183228,363.603058 1262.128052,341.493042 1263.912231,319.245758 
	C1265.894775,294.527405 1267.597900,269.773010 1268.666992,245.001694 
	C1269.107788,234.792557 1268.356812,224.364487 1266.624268,214.298264 
	C1265.730713,209.106857 1262.309082,203.724701 1258.591797,199.785950 
	C1252.383911,193.208344 1243.102417,195.049225 1239.190430,203.254562 
	C1237.387939,207.035400 1236.521606,211.507950 1236.247803,215.732758 
	C1234.352417,244.965057 1232.725220,274.214722 1230.986694,304.373596 
M836.840149,278.568542 
	C837.575500,288.353668 837.647095,298.243866 839.176880,307.903198 
	C843.005249,332.076111 856.711426,348.387665 880.126221,355.958191 
	C892.148010,359.845184 904.552979,360.708221 917.134033,358.997864 
	C941.178894,355.728973 961.458435,341.480499 966.530334,318.256775 
	C967.802246,312.432922 968.362000,306.433990 968.952026,300.486023 
	C969.614319,293.810333 966.883301,288.091156 962.952393,282.976471 
	C959.122314,277.993042 953.750732,276.770233 947.765808,278.718628 
	C939.440857,281.428864 936.123596,287.973694 934.015808,295.701447 
	C932.225342,302.265747 930.482239,308.878448 928.085693,315.231140 
	C926.013550,320.723724 921.923889,324.249023 915.541199,324.138184 
	C904.873901,323.952911 894.260132,316.890411 891.106812,306.650757 
	C888.726074,298.920197 886.993530,290.852173 886.147522,282.810730 
	C882.424438,247.422150 883.266602,212.020508 887.011169,176.675934 
	C888.406616,163.504501 891.894470,150.908768 898.145386,139.131516 
	C901.090393,133.583084 905.923401,132.295898 911.585022,132.656296 
	C916.953552,132.998032 919.206726,136.889603 920.860962,141.236877 
	C922.811523,146.363022 924.789673,151.494217 926.385742,156.735931 
	C928.535339,163.795410 933.537170,166.950912 940.354736,168.612778 
	C951.570618,171.346786 960.314941,167.813812 967.170044,158.953537 
	C972.397949,152.196457 970.867249,144.629623 967.599976,138.127029 
	C962.778076,128.530319 957.496216,118.867302 950.745117,110.590668 
	C926.337280,80.667389 886.417480,81.927376 863.182678,112.833847 
	C848.273315,132.666046 841.673645,155.680542 840.219666,179.866638 
	C838.264343,212.392838 837.891602,245.014175 836.840149,278.568542 
M531.536621,365.072906 
	C552.802246,353.205811 560.402832,333.330139 562.711121,310.733948 
	C563.642456,301.616913 558.701294,294.385803 551.661011,291.894379 
	C544.511658,289.364288 535.687988,292.115265 530.496338,299.245209 
	C527.699097,303.086823 525.659668,307.561798 523.762207,311.959747 
	C520.026306,320.618439 515.332092,328.476044 508.259918,334.924133 
	C494.145874,347.792664 477.776581,337.605042 474.803772,324.045074 
	C469.955536,301.930420 468.045013,279.694031 468.585358,257.153656 
	C469.225677,230.442673 471.957703,203.957535 479.143616,178.183182 
	C481.563477,169.503540 485.439575,161.010025 489.981781,153.206589 
	C494.151672,146.042862 501.062561,145.891068 506.554596,152.177094 
	C510.003174,156.124207 512.780884,160.813141 515.119263,165.535812 
	C518.166199,171.689453 522.803711,175.998337 528.734436,178.910751 
	C538.022522,183.471863 547.940674,179.120651 551.123535,169.232666 
	C553.966736,160.400192 552.094482,152.035812 547.530273,144.340469 
	C538.967590,129.903702 526.518188,119.721260 511.805084,111.847504 
	C488.758179,99.513832 450.506287,111.849937 443.099976,140.666550 
	C442.190613,144.204819 440.929779,147.651657 439.976624,151.179962 
	C433.570679,174.894058 430.493805,199.130219 428.730896,223.566803 
	C426.716278,251.492126 425.412598,279.455536 428.122528,307.379639 
	C429.658356,323.205444 433.774872,338.486389 442.068756,352.312805 
	C450.962616,367.139374 463.662292,376.503754 481.318237,376.849945 
	C498.660889,377.190002 515.381470,373.645142 531.536621,365.072906 
M1376.512207,410.951813 
	C1377.866333,396.091675 1377.425781,381.793152 1363.920166,371.391693 
	C1370.826172,365.460632 1374.670898,357.642883 1376.439575,349.138611 
	C1378.734863,338.101807 1380.466797,326.889893 1381.515747,315.666870 
	C1382.763916,302.312531 1382.312744,288.778900 1375.890015,276.631805 
	C1361.029419,248.526550 1337.864258,230.490707 1307.186401,222.227997 
	C1301.903564,220.805145 1298.357300,222.866821 1297.217529,228.541428 
	C1295.388916,237.646103 1293.519531,246.879868 1293.162964,256.116760 
	C1292.168457,281.890839 1292.128906,307.700073 1291.358643,333.484894 
	C1290.608398,358.596954 1289.447266,383.697052 1288.414673,408.800262 
	C1287.799316,423.761932 1286.947510,438.715790 1286.547729,453.682373 
	C1286.481934,456.145325 1287.455200,459.829285 1289.218994,460.951965 
	C1299.776123,467.670959 1311.048096,473.041718 1323.402954,475.656219 
	C1343.086548,479.821564 1357.642944,473.407654 1364.024292,455.900055 
	C1369.231201,441.614594 1372.312988,426.554504 1376.512207,410.951813 
M1056.848511,232.427383 
	C1057.566040,214.136902 1058.182251,195.841644 1059.045654,177.558044 
	C1059.453491,168.922607 1060.603882,160.319977 1060.938965,151.683884 
	C1061.462036,138.201233 1054.814819,128.986420 1042.997681,123.091553 
	C1027.545776,115.383598 1020.389709,117.975998 1016.479797,134.751068 
	C1013.285889,148.454437 1011.110535,162.569809 1010.257202,176.610306 
	C1007.986328,213.976166 1007.110657,251.427567 1004.778259,288.788635 
	C1003.747131,305.305939 1000.980103,321.763184 998.181091,338.107300 
	C995.690857,352.648529 1000.648438,364.450562 1013.893860,370.848846 
	C1018.631653,373.137512 1023.785583,374.874603 1028.940552,375.934418 
	C1047.982178,379.849182 1067.113159,383.326385 1086.190918,387.068024 
	C1096.046509,389.000916 1104.372070,382.752991 1105.112671,372.667480 
	C1105.814697,363.104584 1100.786377,355.773407 1090.269653,352.216034 
	C1081.143921,349.129089 1071.704712,346.970032 1062.574707,343.894135 
	C1051.710327,340.233856 1051.463257,339.482117 1052.497559,328.154449 
	C1052.573120,327.326813 1052.556030,326.490997 1052.594360,325.659546 
	C1054.010498,294.906830 1055.427979,264.154114 1056.848511,232.427383 
z"/>
<path fill="#FFFFFF" opacity="1.000000" stroke="none" 
	d="
M1.000000,861.499878 
	C742.370911,861.000000 1483.741821,861.000000 2225.556396,861.000000 
	C2226.000000,861.999756 2226.000000,862.999573 2226.000000,863.999634 
	C1485.832764,864.000000 745.665527,864.001709 5.498323,863.858948 
	C4.210093,863.858704 0.871377,866.327820 1.000000,861.499878 
z"/>
<path fill="#E32D40" opacity="1.000000" stroke="none" 
	d="
M2158.782715,835.147217 
	C2119.942627,833.133850 2082.385254,825.880493 2045.024170,817.480774 
	C1986.048584,804.221436 1928.367798,786.441467 1870.939575,767.715149 
	C1831.778198,754.945312 1791.469604,748.610840 1750.230225,747.784424 
	C1695.114746,746.679810 1641.356812,755.418701 1588.726074,770.753967 
	C1544.040039,783.774292 1499.979370,798.926086 1455.434326,812.450867 
	C1431.120972,819.832886 1406.509277,826.358093 1381.779541,832.200439 
	C1365.021606,836.159485 1347.752441,836.408447 1330.615601,833.851013 
	C1305.079712,830.040100 1287.470581,815.796204 1277.150635,792.388184 
	C1274.406494,786.163757 1272.536377,779.558472 1269.912720,773.275146 
	C1267.160645,766.684570 1268.387085,760.570251 1271.334106,754.533691 
	C1278.446533,739.964111 1289.980347,729.505310 1304.428345,723.201965 
	C1320.527344,716.178223 1337.299438,710.601135 1354.012451,705.106506 
	C1372.647217,698.980042 1391.652466,693.982056 1410.291138,687.866699 
	C1422.826782,683.753723 1434.010376,677.226807 1440.857422,665.161377 
	C1445.671387,656.678162 1447.311401,647.291443 1447.822021,637.809998 
	C1449.532227,606.063538 1450.890991,574.298157 1452.394165,542.540466 
	C1452.504272,540.216614 1452.697632,537.896729 1452.843750,535.574463 
	C1453.112915,531.301270 1451.896118,525.898926 1454.054443,523.069336 
	C1456.243042,520.200073 1461.762329,519.869568 1465.824341,518.431396 
	C1499.676270,506.445709 1533.412842,494.120361 1567.409058,482.558868 
	C1613.893677,466.750305 1661.615967,456.377747 1710.586182,452.179382 
	C1788.528931,445.497070 1863.647949,457.070221 1936.766846,485.054840 
	C1979.072510,501.246399 2018.113770,523.184204 2056.122803,547.117737 
	C2099.654541,574.528625 2142.326416,603.305176 2185.364502,631.499573 
	C2186.739990,632.400818 2188.034912,633.425415 2190.105225,634.927917 
	C2163.184082,661.288391 2129.316406,673.651489 2094.949707,686.470642 
	C2088.790527,673.552368 2082.778809,660.943115 2076.766846,648.333801 
	C2076.459229,648.408997 2076.151611,648.484131 2075.843994,648.559326 
	C2075.766602,650.116089 2075.623047,651.672729 2075.621338,653.229553 
	C2075.604736,668.229431 2075.416260,683.233521 2075.742188,698.226318 
	C2075.829102,702.226379 2076.804932,706.541260 2078.573975,710.117126 
	C2091.225830,735.688965 2108.369629,758.246277 2127.150635,779.486084 
	C2142.694824,797.065186 2159.191650,813.802734 2175.326904,830.856079 
	C2176.523193,832.120483 2178.206055,832.924866 2179.662842,833.943054 
	C2179.281982,834.345337 2178.901367,834.747620 2178.520752,835.149902 
	C2172.099609,835.149902 2165.678467,835.149902 2158.782715,835.147217 
M1640.513306,689.964478 
	C1645.032349,693.538818 1649.111328,697.994812 1654.157349,700.513611 
	C1666.723877,706.786377 1680.337524,707.621765 1694.122192,705.878906 
	C1717.468750,702.926941 1734.018799,688.352722 1739.449829,665.561035 
	C1750.230835,620.317749 1745.569702,576.013306 1730.546753,532.505615 
	C1726.787109,521.617676 1720.511230,512.097656 1710.552612,505.808197 
	C1689.753174,492.671967 1668.839478,495.464355 1648.767334,507.165649 
	C1630.221558,517.977173 1622.469360,536.058044 1619.041626,556.312500 
	C1614.429321,583.565857 1616.037964,610.727112 1621.313721,637.683105 
	C1624.866943,655.838440 1629.663452,673.664856 1640.513306,689.964478 
M1487.113525,753.455200 
	C1490.605957,757.161865 1494.861816,757.830750 1499.483643,756.273132 
	C1503.884766,754.789856 1508.316895,753.300720 1512.525513,751.359436 
	C1542.696045,737.443054 1573.968140,726.898132 1606.605835,720.583618 
	C1611.835815,719.571777 1614.845825,716.517517 1616.758667,712.027344 
	C1621.301147,701.364807 1616.603760,690.893250 1605.545288,687.142517 
	C1596.274048,683.997925 1586.559814,683.773987 1577.492432,686.697388 
	C1564.269409,690.960571 1551.510986,696.663147 1538.545654,701.729431 
	C1536.100342,702.684998 1533.613281,703.533997 1531.145508,704.432190 
	C1530.787964,703.974792 1530.430542,703.517395 1530.073120,703.060059 
	C1531.529663,699.969421 1532.743652,696.734619 1534.481445,693.811218 
	C1547.578003,671.778748 1560.474365,649.639954 1569.276733,625.439941 
	C1575.583618,608.100159 1580.269531,590.389160 1576.938599,571.736511 
	C1574.836548,559.965149 1571.506470,548.499695 1559.784546,542.240540 
	C1546.519287,535.157349 1532.726440,534.964600 1519.434082,541.431091 
	C1499.620483,551.070068 1485.734131,566.721252 1477.785278,587.204956 
	C1475.889526,592.089722 1475.365845,598.074585 1476.116821,603.278442 
	C1477.107788,610.144714 1481.423950,615.408569 1488.801880,617.095825 
	C1495.887207,618.716064 1498.927612,613.395142 1502.226440,608.901123 
	C1504.380493,605.966675 1505.685913,602.401062 1507.887573,599.511475 
	C1511.997559,594.117004 1515.921875,588.372253 1520.950439,583.937805 
	C1527.711060,577.975830 1536.895142,581.518799 1538.978882,590.365662 
	C1539.648193,593.207581 1540.083130,596.469421 1539.361816,599.206177 
	C1537.168701,607.528564 1535.605713,616.370605 1531.551270,623.781372 
	C1520.149536,644.621033 1507.437988,664.739380 1495.625488,685.361267 
	C1490.443237,694.408081 1485.336548,703.669983 1481.721436,713.401123 
	C1476.648315,727.056824 1478.016846,740.587524 1487.113525,753.455200 
M1829.947266,706.412292 
	C1845.072632,710.879822 1860.258423,715.156860 1875.286133,719.931396 
	C1879.765991,721.354675 1883.457275,721.071777 1886.925415,718.218140 
	C1893.497437,712.810120 1897.503662,705.867310 1898.481201,697.366516 
	C1899.104004,691.949158 1896.786133,687.943237 1891.707153,685.873779 
	C1887.874268,684.312073 1883.881226,683.105713 1879.895630,681.964417 
	C1868.076050,678.579956 1856.068970,675.770447 1844.430420,671.857849 
	C1832.880615,667.975098 1832.552246,665.981323 1838.596069,655.719055 
	C1852.770386,631.651245 1867.687256,607.960205 1877.487183,581.604614 
	C1884.353394,563.138611 1888.786255,544.244141 1884.912842,524.444397 
	C1882.111694,510.126312 1875.668823,498.398621 1860.202637,494.219879 
	C1851.991577,492.001373 1843.593628,491.280670 1835.581421,494.098999 
	C1809.208740,503.375671 1792.496704,522.115906 1784.498657,548.606079 
	C1782.184448,556.270996 1784.324707,563.451904 1790.465332,569.055054 
	C1796.104614,574.200928 1801.959717,574.285828 1806.983276,568.699280 
	C1809.950195,565.399902 1812.061890,561.344116 1814.687744,557.722412 
	C1818.675903,552.222107 1822.499512,546.565186 1826.919556,541.427856 
	C1830.254272,537.552063 1834.617432,534.758728 1840.163330,537.139832 
	C1845.689819,539.512573 1848.585815,544.181641 1847.928711,549.889038 
	C1847.101196,557.076172 1845.902466,564.429932 1843.415039,571.177795 
	C1835.712646,592.072144 1823.829712,610.811096 1811.518677,629.210022 
	C1801.680786,643.912659 1792.312988,658.843201 1786.544800,675.646118 
	C1784.357056,682.019226 1782.812256,688.778442 1782.181641,695.475281 
	C1781.527344,702.422485 1785.389893,705.862854 1792.337036,704.885681 
	C1804.724854,703.142944 1816.906250,704.235291 1829.947266,706.412292 
M1949.450439,682.972107 
	C1965.240601,685.082153 1981.030762,687.192200 1997.042358,689.331848 
	C1995.025879,704.672913 1993.060547,719.625854 1991.027954,735.089722 
	C2000.184570,736.286804 2008.964966,737.434753 2017.980835,738.613464 
	C2020.073486,723.068787 2022.087280,708.110840 2024.132324,692.920593 
	C2034.384399,694.248169 2044.209351,695.520447 2054.424805,696.843323 
	C2055.509521,688.444214 2056.539307,680.470032 2057.589355,672.338867 
	C2047.228149,670.886230 2037.449951,669.515381 2027.378174,668.103333 
	C2032.578491,628.750000 2037.672363,590.202454 2042.834961,551.134644 
	C2035.055664,550.082642 2027.493896,549.196289 2019.985474,547.980530 
	C2016.786499,547.462585 2014.781250,548.593445 2012.648315,550.823181 
	C1979.720459,585.243530 1946.710327,619.585144 1913.743408,653.968079 
	C1912.735352,655.019287 1911.423462,656.229614 1911.215210,657.520874 
	C1910.163818,664.041138 1909.431519,670.612915 1908.539795,677.535583 
	C1922.250854,679.377197 1935.404297,681.143860 1949.450439,682.972107 
z"/>
<path fill="#E32D40" opacity="1.000000" stroke="none" 
	d="
M1260.254883,692.935181 
	C1260.179688,639.405457 1260.179688,586.361694 1260.179688,532.713806 
	C1268.843750,536.134338 1277.480103,539.438477 1286.035767,542.940491 
	C1318.082642,556.057800 1349.633057,570.200256 1378.891113,588.938538 
	C1392.394043,597.586487 1405.312378,606.999207 1415.217407,619.857788 
	C1419.611938,625.562622 1422.955078,631.732605 1422.620605,639.389893 
	C1422.048584,652.483276 1414.929932,660.233704 1402.913940,663.948120 
	C1383.068237,670.083130 1363.130859,675.923218 1343.300903,682.107971 
	C1324.588989,687.944031 1305.382446,692.729797 1288.530273,703.188721 
	C1279.124023,709.026428 1270.470459,716.076599 1261.307007,722.703857 
	C1260.996338,713.391602 1260.663208,703.406372 1260.254883,692.935181 
z"/>
<path fill="#F1F1F1" opacity="1.000000" stroke="none" 
	d="
M139.942200,330.231934 
	C144.639999,328.491486 149.153244,326.133209 153.853333,324.238373 
	C160.788010,321.442627 167.724731,318.492767 174.914627,316.547668 
	C179.399963,315.334259 180.735474,312.865601 180.934586,308.930298 
	C181.447571,298.791931 181.864792,288.648468 182.426743,278.512939 
	C183.181946,264.892181 184.281250,251.285797 184.774231,237.656662 
	C185.189346,226.180939 184.638641,214.669266 185.090820,203.196198 
	C185.505692,192.670151 186.706970,182.254440 195.065277,174.278229 
	C206.757706,163.120300 223.370972,166.390839 227.431442,181.885803 
	C230.203323,192.463470 231.079422,203.932129 230.586807,214.902893 
	C228.444702,262.609070 225.560562,310.282898 222.793396,357.959595 
	C221.771317,375.569397 220.555405,393.174683 219.015533,410.745880 
	C217.464890,428.440033 205.124832,437.690674 187.655380,435.129700 
	C182.789688,434.416412 180.024155,432.084808 179.392166,427.360535 
	C178.488403,420.604706 177.251541,413.832886 177.109268,407.047913 
	C176.784912,391.582123 177.039886,376.104156 177.059143,360.631134 
	C177.060577,359.488068 177.059326,358.345001 177.059326,356.676636 
	C169.035416,360.704529 161.397583,364.562073 153.736404,368.372681 
	C150.759644,369.853241 147.860641,371.743469 144.697662,372.543732 
	C138.046051,374.226685 136.327469,378.530151 136.033554,384.834412 
	C135.258621,401.456573 133.915710,418.051544 132.883224,434.662628 
	C132.276062,444.431213 127.427177,451.834930 119.607903,454.597412 
	C112.358635,457.158508 104.097153,454.806274 100.458191,448.024719 
	C98.098816,443.627838 96.190308,438.355316 96.144234,433.455750 
	C95.884293,405.813507 96.124359,378.163971 96.436058,350.519653 
	C96.760796,321.719025 97.385704,292.921875 97.827080,264.122406 
	C98.005768,252.462936 97.299332,240.729813 98.407608,229.165527 
	C99.166512,221.246704 101.433647,213.142868 104.702705,205.875763 
	C109.003815,196.314407 116.358284,193.202377 125.366798,194.988892 
	C135.053955,196.909958 141.421265,203.311691 141.884796,213.572006 
	C142.673233,231.024948 143.148773,248.527390 142.778412,265.988281 
	C142.326874,287.277161 140.865707,308.544647 139.942200,330.231934 
z"/>
<path fill="#F1F1F1" opacity="1.000000" stroke="none" 
	d="
M702.698364,340.303772 
	C689.479431,325.750153 681.682129,308.427582 673.918762,291.100433 
	C669.646912,281.566132 665.564819,271.946747 661.475220,262.544952 
	C653.775696,267.788422 646.481140,272.582428 639.429993,277.710968 
	C638.089050,278.686249 637.139221,280.932800 636.978210,282.682037 
	C635.528992,298.423096 634.471313,314.201477 632.912964,329.930664 
	C632.294983,336.167450 631.118652,342.421692 629.453552,348.463196 
	C627.440369,355.767944 621.870239,359.700287 614.586060,360.805756 
	C610.516296,361.423431 606.285034,361.490601 602.171021,361.191986 
	C594.532227,360.637573 589.810364,355.255127 590.179382,347.591370 
	C591.692200,316.174774 593.671021,284.776245 594.787354,253.346527 
	C595.520508,232.707901 594.876526,212.024216 595.199707,191.366196 
	C595.618835,164.563187 596.286377,137.762817 597.047058,110.966988 
	C597.414429,98.025955 605.933044,91.937859 618.592285,94.556244 
	C626.784302,96.250648 631.841858,100.530396 634.144287,108.681099 
	C639.132568,126.339668 640.816406,144.367035 640.040222,162.567581 
	C639.097351,184.678543 637.460205,206.759872 636.133667,228.854630 
	C636.078125,229.779037 636.126526,230.709656 636.126526,232.254089 
	C645.546265,226.083511 652.274414,218.090042 658.960999,210.071106 
	C675.515076,190.218567 687.049805,167.259048 699.063599,144.635651 
	C708.343933,127.159523 717.028809,109.367447 726.003479,91.728523 
	C729.758179,84.348953 735.381348,79.274826 744.054749,80.065117 
	C747.261963,80.357353 751.264099,82.363403 753.123596,84.895233 
	C757.335876,90.630562 759.182739,97.432617 757.417297,104.741051 
	C751.313110,130.009827 740.465637,153.339432 728.295776,176.136917 
	C717.174438,196.970230 706.062500,217.809280 695.147766,238.750717 
	C694.451660,240.086426 695.032654,242.553070 695.796265,244.113480 
	C704.934692,262.785492 714.430603,281.285156 723.375854,300.047882 
	C727.662048,309.038300 731.173096,318.418152 734.668823,327.758759 
	C737.172119,334.447418 739.042053,341.693726 732.720825,347.251282 
	C726.235718,352.952942 718.925232,350.784637 712.196838,347.266296 
	C708.858093,345.520477 706.016907,342.823090 702.698364,340.303772 
z"/>
<path fill="#F1F1F1" opacity="1.000000" stroke="none" 
	d="
M386.921387,386.220276 
	C383.287720,381.770752 378.631958,377.988068 376.903931,373.157990 
	C371.040405,356.768372 366.212769,340.008179 360.987488,323.390167 
	C359.891205,319.903717 358.757996,316.428589 357.692841,312.932739 
	C356.258820,308.226288 352.591095,306.851715 348.340210,307.336304 
	C333.359741,309.044159 319.969666,315.457428 306.760620,322.174561 
	C305.386627,322.873322 304.568634,325.368225 304.171783,327.178619 
	C299.369141,349.087067 294.426636,370.970978 290.104950,392.976044 
	C288.104675,403.161041 283.211029,410.857147 274.437317,416.101776 
	C266.725708,420.711578 260.092712,419.253906 253.923111,412.677551 
	C247.376801,405.699738 247.078003,397.429535 248.249023,388.855438 
	C252.750122,355.899017 256.676727,322.840576 262.208466,290.054840 
	C268.294006,253.987045 275.869324,218.158966 288.990112,183.815079 
	C293.277863,172.591766 298.771088,162.026657 306.522522,152.656113 
	C318.376007,138.326691 336.875244,140.450012 345.156433,154.537994 
	C352.622101,167.238571 360.473633,180.139099 365.161591,193.966324 
	C379.676636,236.778488 393.142792,279.960449 406.193207,323.246948 
	C410.532928,337.641266 412.542542,352.756805 415.256927,367.608521 
	C415.896820,371.109711 415.461029,374.942352 414.854462,378.509338 
	C413.450836,386.763611 404.734009,391.775116 395.562592,389.650085 
	C392.692352,388.985046 390.009613,387.510895 386.921387,386.220276 
M346.998962,260.303772 
	C343.776733,244.886566 340.856934,229.396942 337.190491,214.086121 
	C335.620544,207.530182 332.808441,201.203568 329.985718,195.035934 
	C327.442719,189.479568 324.402618,189.465759 321.289062,194.859879 
	C319.145599,198.573288 316.992706,202.527679 316.059387,206.649567 
	C312.433502,222.662811 309.028931,238.737839 306.085846,254.888977 
	C304.643860,262.802216 304.395081,270.932892 303.421356,280.848083 
	C317.482208,276.327301 330.098633,272.358490 342.643646,268.175537 
	C345.745209,267.141357 347.469574,264.707428 346.998962,260.303772 
z"/>
<path fill="#F1F0F0" opacity="1.000000" stroke="none" 
	d="
M1230.999268,303.916199 
	C1232.725220,274.214722 1234.352417,244.965057 1236.247803,215.732758 
	C1236.521606,211.507950 1237.387939,207.035400 1239.190430,203.254562 
	C1243.102417,195.049225 1252.383911,193.208344 1258.591797,199.785950 
	C1262.309082,203.724701 1265.730713,209.106857 1266.624268,214.298264 
	C1268.356812,224.364487 1269.107788,234.792557 1268.666992,245.001694 
	C1267.597900,269.773010 1265.894775,294.527405 1263.912231,319.245758 
	C1262.128052,341.493042 1259.183228,363.603058 1251.915161,384.878479 
	C1250.894897,387.864990 1249.759033,390.823181 1248.486694,393.710724 
	C1230.523926,434.475922 1192.701172,433.430298 1166.337524,416.467834 
	C1158.193848,411.228210 1151.076904,404.141388 1144.255249,397.153168 
	C1131.469360,384.054962 1127.763306,367.212646 1125.986816,349.664276 
	C1122.219482,312.451508 1122.477051,275.146729 1123.530518,237.850601 
	C1124.046997,219.565796 1125.365845,201.274185 1127.184082,183.071823 
	C1127.808228,176.823105 1130.377197,170.491806 1133.267822,164.814514 
	C1137.120850,157.247467 1144.433472,154.271500 1151.594482,155.940231 
	C1158.724243,157.601685 1163.338135,163.526047 1163.802246,172.228989 
	C1164.316162,181.868073 1164.743408,191.522476 1164.807861,201.172867 
	C1165.022461,233.334106 1164.630005,265.505463 1165.301514,297.655579 
	C1165.805054,321.770264 1166.980469,345.952118 1174.103882,369.287018 
	C1175.545044,374.007843 1177.614136,378.691254 1180.228882,382.869293 
	C1186.918945,393.559113 1198.132935,394.758087 1207.325684,386.025879 
	C1214.720581,379.001465 1218.791016,369.860626 1220.831665,360.270569 
	C1224.771118,341.756195 1227.661377,323.018616 1230.999268,303.916199 
z"/>
<path fill="#F1F1F1" opacity="1.000000" stroke="none" 
	d="
M836.839844,278.081604 
	C837.891602,245.014175 838.264343,212.392838 840.219666,179.866638 
	C841.673645,155.680542 848.273315,132.666046 863.182678,112.833847 
	C886.417480,81.927376 926.337280,80.667389 950.745117,110.590668 
	C957.496216,118.867302 962.778076,128.530319 967.599976,138.127029 
	C970.867249,144.629623 972.397949,152.196457 967.170044,158.953537 
	C960.314941,167.813812 951.570618,171.346786 940.354736,168.612778 
	C933.537170,166.950912 928.535339,163.795410 926.385742,156.735931 
	C924.789673,151.494217 922.811523,146.363022 920.860962,141.236877 
	C919.206726,136.889603 916.953552,132.998032 911.585022,132.656296 
	C905.923401,132.295898 901.090393,133.583084 898.145386,139.131516 
	C891.894470,150.908768 888.406616,163.504501 887.011169,176.675934 
	C883.266602,212.020508 882.424438,247.422150 886.147522,282.810730 
	C886.993530,290.852173 888.726074,298.920197 891.106812,306.650757 
	C894.260132,316.890411 904.873901,323.952911 915.541199,324.138184 
	C921.923889,324.249023 926.013550,320.723724 928.085693,315.231140 
	C930.482239,308.878448 932.225342,302.265747 934.015808,295.701447 
	C936.123596,287.973694 939.440857,281.428864 947.765808,278.718628 
	C953.750732,276.770233 959.122314,277.993042 962.952393,282.976471 
	C966.883301,288.091156 969.614319,293.810333 968.952026,300.486023 
	C968.362000,306.433990 967.802246,312.432922 966.530334,318.256775 
	C961.458435,341.480499 941.178894,355.728973 917.134033,358.997864 
	C904.552979,360.708221 892.148010,359.845184 880.126221,355.958191 
	C856.711426,348.387665 843.005249,332.076111 839.176880,307.903198 
	C837.647095,298.243866 837.575500,288.353668 836.839844,278.081604 
z"/>
<path fill="#F1F1F1" opacity="1.000000" stroke="none" 
	d="
M531.210083,365.244629 
	C515.381470,373.645142 498.660889,377.190002 481.318237,376.849945 
	C463.662292,376.503754 450.962616,367.139374 442.068756,352.312805 
	C433.774872,338.486389 429.658356,323.205444 428.122528,307.379639 
	C425.412598,279.455536 426.716278,251.492126 428.730896,223.566803 
	C430.493805,199.130219 433.570679,174.894058 439.976624,151.179962 
	C440.929779,147.651657 442.190613,144.204819 443.099976,140.666550 
	C450.506287,111.849937 488.758179,99.513832 511.805084,111.847504 
	C526.518188,119.721260 538.967590,129.903702 547.530273,144.340469 
	C552.094482,152.035812 553.966736,160.400192 551.123535,169.232666 
	C547.940674,179.120651 538.022522,183.471863 528.734436,178.910751 
	C522.803711,175.998337 518.166199,171.689453 515.119263,165.535812 
	C512.780884,160.813141 510.003174,156.124207 506.554596,152.177094 
	C501.062561,145.891068 494.151672,146.042862 489.981781,153.206589 
	C485.439575,161.010025 481.563477,169.503540 479.143616,178.183182 
	C471.957703,203.957535 469.225677,230.442673 468.585358,257.153656 
	C468.045013,279.694031 469.955536,301.930420 474.803772,324.045074 
	C477.776581,337.605042 494.145874,347.792664 508.259918,334.924133 
	C515.332092,328.476044 520.026306,320.618439 523.762207,311.959747 
	C525.659668,307.561798 527.699097,303.086823 530.496338,299.245209 
	C535.687988,292.115265 544.511658,289.364288 551.661011,291.894379 
	C558.701294,294.385803 563.642456,301.616913 562.711121,310.733948 
	C560.402832,333.330139 552.802246,353.205811 531.210083,365.244629 
z"/>
<path fill="#F1F0F0" opacity="1.000000" stroke="none" 
	d="
M1376.424683,411.394867 
	C1372.312988,426.554504 1369.231201,441.614594 1364.024292,455.900055 
	C1357.642944,473.407654 1343.086548,479.821564 1323.402954,475.656219 
	C1311.048096,473.041718 1299.776123,467.670959 1289.218994,460.951965 
	C1287.455200,459.829285 1286.481934,456.145325 1286.547729,453.682373 
	C1286.947510,438.715790 1287.799316,423.761932 1288.414673,408.800262 
	C1289.447266,383.697052 1290.608398,358.596954 1291.358643,333.484894 
	C1292.128906,307.700073 1292.168457,281.890839 1293.162964,256.116760 
	C1293.519531,246.879868 1295.388916,237.646103 1297.217529,228.541428 
	C1298.357300,222.866821 1301.903564,220.805145 1307.186401,222.227997 
	C1337.864258,230.490707 1361.029419,248.526550 1375.890015,276.631805 
	C1382.312744,288.778900 1382.763916,302.312531 1381.515747,315.666870 
	C1380.466797,326.889893 1378.734863,338.101807 1376.439575,349.138611 
	C1374.670898,357.642883 1370.826172,365.460632 1363.920166,371.391693 
	C1377.425781,381.793152 1377.866333,396.091675 1376.424683,411.394867 
M1339.826904,348.759369 
	C1346.652954,345.942474 1351.055908,340.669830 1352.619385,333.757538 
	C1357.298950,313.066925 1354.848145,293.110504 1344.583130,274.426910 
	C1341.771606,269.309662 1337.392822,265.472961 1331.098267,263.914917 
	C1330.664673,265.505341 1330.227905,266.747528 1329.991943,268.026703 
	C1325.594849,291.848633 1325.311035,315.950226 1325.165894,340.056915 
	C1325.100708,350.891937 1326.708618,352.053436 1337.607666,349.361633 
	C1338.092041,349.241974 1338.574707,349.115387 1339.826904,348.759369 
M1320.999512,414.499878 
	C1321.061768,420.987000 1320.971924,427.480255 1321.232056,433.959442 
	C1321.458496,439.599457 1323.636597,441.635040 1330.104858,443.349731 
	C1335.081909,444.669128 1338.619019,442.646576 1340.951294,438.494507 
	C1342.312012,436.072357 1343.569946,433.347778 1343.906738,430.639008 
	C1345.155518,420.595947 1346.545044,410.520325 1346.868164,400.424469 
	C1347.308350,386.670746 1337.995483,376.362640 1323.522095,373.948456 
	C1320.696533,387.010101 1321.021973,400.269012 1320.999512,414.499878 
z"/>
<path fill="#F1F1F1" opacity="1.000000" stroke="none" 
	d="
M1056.846924,232.914398 
	C1055.427979,264.154114 1054.010498,294.906830 1052.594360,325.659546 
	C1052.556030,326.490997 1052.573120,327.326813 1052.497559,328.154449 
	C1051.463257,339.482117 1051.710327,340.233856 1062.574707,343.894135 
	C1071.704712,346.970032 1081.143921,349.129089 1090.269653,352.216034 
	C1100.786377,355.773407 1105.814697,363.104584 1105.112671,372.667480 
	C1104.372070,382.752991 1096.046509,389.000916 1086.190918,387.068024 
	C1067.113159,383.326385 1047.982178,379.849182 1028.940552,375.934418 
	C1023.785583,374.874603 1018.631653,373.137512 1013.893860,370.848846 
	C1000.648438,364.450562 995.690857,352.648529 998.181091,338.107300 
	C1000.980103,321.763184 1003.747131,305.305939 1004.778259,288.788635 
	C1007.110657,251.427567 1007.986328,213.976166 1010.257202,176.610306 
	C1011.110535,162.569809 1013.285889,148.454437 1016.479797,134.751068 
	C1020.389709,117.975998 1027.545776,115.383598 1042.997681,123.091553 
	C1054.814819,128.986420 1061.462036,138.201233 1060.938965,151.683884 
	C1060.603882,160.319977 1059.453491,168.922607 1059.045654,177.558044 
	C1058.182251,195.841644 1057.566040,214.136902 1056.846924,232.914398 
z"/>
<path fill="#F1F0F1" opacity="1.000000" stroke="none" 
	d="
M1640.294556,689.676697 
	C1629.663452,673.664856 1624.866943,655.838440 1621.313721,637.683105 
	C1616.037964,610.727112 1614.429321,583.565857 1619.041626,556.312500 
	C1622.469360,536.058044 1630.221558,517.977173 1648.767334,507.165649 
	C1668.839478,495.464355 1689.753174,492.671967 1710.552612,505.808197 
	C1720.511230,512.097656 1726.787109,521.617676 1730.546753,532.505615 
	C1745.569702,576.013306 1750.230835,620.317749 1739.449829,665.561035 
	C1734.018799,688.352722 1717.468750,702.926941 1694.122192,705.878906 
	C1680.337524,707.621765 1666.723877,706.786377 1654.157349,700.513611 
	C1649.111328,697.994812 1645.032349,693.538818 1640.294556,689.676697 
M1661.922974,632.557922 
	C1663.067505,637.235535 1663.787354,642.070801 1665.451660,646.555420 
	C1668.268188,654.144287 1670.973389,661.925293 1675.026123,668.865967 
	C1679.933594,677.270447 1687.932373,677.780762 1695.270630,671.543457 
	C1700.765381,666.872864 1703.521240,660.746582 1704.925049,653.963745 
	C1710.387573,627.569458 1710.059204,601.027222 1705.173828,574.689758 
	C1703.356689,564.894043 1700.042114,554.942078 1695.279297,546.225891 
	C1687.635742,532.237793 1670.925659,532.218689 1662.629883,545.904358 
	C1659.138794,551.663879 1657.087402,558.771545 1656.144165,565.512939 
	C1653.008301,587.927734 1657.247681,609.879028 1661.922974,632.557922 
z"/>
<path fill="#F1F0F1" opacity="1.000000" stroke="none" 
	d="
M1486.888916,753.160156 
	C1478.016846,740.587524 1476.648315,727.056824 1481.721436,713.401123 
	C1485.336548,703.669983 1490.443237,694.408081 1495.625488,685.361267 
	C1507.437988,664.739380 1520.149536,644.621033 1531.551270,623.781372 
	C1535.605713,616.370605 1537.168701,607.528564 1539.361816,599.206177 
	C1540.083130,596.469421 1539.648193,593.207581 1538.978882,590.365662 
	C1536.895142,581.518799 1527.711060,577.975830 1520.950439,583.937805 
	C1515.921875,588.372253 1511.997559,594.117004 1507.887573,599.511475 
	C1505.685913,602.401062 1504.380493,605.966675 1502.226440,608.901123 
	C1498.927612,613.395142 1495.887207,618.716064 1488.801880,617.095825 
	C1481.423950,615.408569 1477.107788,610.144714 1476.116821,603.278442 
	C1475.365845,598.074585 1475.889526,592.089722 1477.785278,587.204956 
	C1485.734131,566.721252 1499.620483,551.070068 1519.434082,541.431091 
	C1532.726440,534.964600 1546.519287,535.157349 1559.784546,542.240540 
	C1571.506470,548.499695 1574.836548,559.965149 1576.938599,571.736511 
	C1580.269531,590.389160 1575.583618,608.100159 1569.276733,625.439941 
	C1560.474365,649.639954 1547.578003,671.778748 1534.481445,693.811218 
	C1532.743652,696.734619 1531.529663,699.969421 1530.073120,703.060059 
	C1530.430542,703.517395 1530.787964,703.974792 1531.145508,704.432190 
	C1533.613281,703.533997 1536.100342,702.684998 1538.545654,701.729431 
	C1551.510986,696.663147 1564.269409,690.960571 1577.492432,686.697388 
	C1586.559814,683.773987 1596.274048,683.997925 1605.545288,687.142517 
	C1616.603760,690.893250 1621.301147,701.364807 1616.758667,712.027344 
	C1614.845825,716.517517 1611.835815,719.571777 1606.605835,720.583618 
	C1573.968140,726.898132 1542.696045,737.443054 1512.525513,751.359436 
	C1508.316895,753.300720 1503.884766,754.789856 1499.483643,756.273132 
	C1494.861816,757.830750 1490.605957,757.161865 1486.888916,753.160156 
z"/>
<path fill="#F1F0F1" opacity="1.000000" stroke="none" 
	d="
M1829.525391,706.320435 
	C1816.906250,704.235291 1804.724854,703.142944 1792.337036,704.885681 
	C1785.389893,705.862854 1781.527344,702.422485 1782.181641,695.475281 
	C1782.812256,688.778442 1784.357056,682.019226 1786.544800,675.646118 
	C1792.312988,658.843201 1801.680786,643.912659 1811.518677,629.210022 
	C1823.829712,610.811096 1835.712646,592.072144 1843.415039,571.177795 
	C1845.902466,564.429932 1847.101196,557.076172 1847.928711,549.889038 
	C1848.585815,544.181641 1845.689819,539.512573 1840.163330,537.139832 
	C1834.617432,534.758728 1830.254272,537.552063 1826.919556,541.427856 
	C1822.499512,546.565186 1818.675903,552.222107 1814.687744,557.722412 
	C1812.061890,561.344116 1809.950195,565.399902 1806.983276,568.699280 
	C1801.959717,574.285828 1796.104614,574.200928 1790.465332,569.055054 
	C1784.324707,563.451904 1782.184448,556.270996 1784.498657,548.606079 
	C1792.496704,522.115906 1809.208740,503.375671 1835.581421,494.098999 
	C1843.593628,491.280670 1851.991577,492.001373 1860.202637,494.219879 
	C1875.668823,498.398621 1882.111694,510.126312 1884.912842,524.444397 
	C1888.786255,544.244141 1884.353394,563.138611 1877.487183,581.604614 
	C1867.687256,607.960205 1852.770386,631.651245 1838.596069,655.719055 
	C1832.552246,665.981323 1832.880615,667.975098 1844.430420,671.857849 
	C1856.068970,675.770447 1868.076050,678.579956 1879.895630,681.964417 
	C1883.881226,683.105713 1887.874268,684.312073 1891.707153,685.873779 
	C1896.786133,687.943237 1899.104004,691.949158 1898.481201,697.366516 
	C1897.503662,705.867310 1893.497437,712.810120 1886.925415,718.218140 
	C1883.457275,721.071777 1879.765991,721.354675 1875.286133,719.931396 
	C1860.258423,715.156860 1845.072632,710.879822 1829.525391,706.320435 
z"/>
<path fill="#FFFDFD" opacity="1.000000" stroke="none" 
	d="
M1949.004150,682.941284 
	C1935.404297,681.143860 1922.250854,679.377197 1908.539795,677.535583 
	C1909.431519,670.612915 1910.163818,664.041138 1911.215210,657.520874 
	C1911.423462,656.229614 1912.735352,655.019287 1913.743408,653.968079 
	C1946.710327,619.585144 1979.720459,585.243530 2012.648315,550.823181 
	C2014.781250,548.593445 2016.786499,547.462585 2019.985474,547.980530 
	C2027.493896,549.196289 2035.055664,550.082642 2042.834961,551.134644 
	C2037.672363,590.202454 2032.578491,628.750000 2027.378174,668.103333 
	C2037.449951,669.515381 2047.228149,670.886230 2057.589355,672.338867 
	C2056.539307,680.470032 2055.509521,688.444214 2054.424805,696.843323 
	C2044.209351,695.520447 2034.384399,694.248169 2024.132324,692.920593 
	C2022.087280,708.110840 2020.073486,723.068787 2017.980835,738.613464 
	C2008.964966,737.434753 2000.184570,736.286804 1991.027954,735.089722 
	C1993.060547,719.625854 1995.025879,704.672913 1997.042358,689.331848 
	C1981.030762,687.192200 1965.240601,685.082153 1949.004150,682.941284 
M1973.725830,627.229675 
	C1964.421875,637.031921 1955.117920,646.834167 1945.094849,657.394165 
	C1964.225342,659.892151 1982.092285,662.225159 2000.347046,664.608765 
	C2003.685425,639.368774 2006.920776,614.906982 2010.156250,590.445129 
	C2009.846436,590.290161 2009.536743,590.135193 2009.227051,589.980225 
	C1997.553955,602.223389 1985.880737,614.466492 1973.725830,627.229675 
z"/>
<path fill="#E42F42" opacity="1.000000" stroke="none" 
	d="
M346.999695,260.741089 
	C347.469574,264.707428 345.745209,267.141357 342.643646,268.175537 
	C330.098633,272.358490 317.482208,276.327301 303.421356,280.848083 
	C304.395081,270.932892 304.643860,262.802216 306.085846,254.888977 
	C309.028931,238.737839 312.433502,222.662811 316.059387,206.649567 
	C316.992706,202.527679 319.145599,198.573288 321.289062,194.859879 
	C324.402618,189.465759 327.442719,189.479568 329.985718,195.035934 
	C332.808441,201.203568 335.620544,207.530182 337.190491,214.086121 
	C340.856934,229.396942 343.776733,244.886566 346.999695,260.741089 
z"/>
<path fill="#E42F42" opacity="1.000000" stroke="none" 
	d="
M1339.442627,348.875702 
	C1338.574707,349.115387 1338.092041,349.241974 1337.607666,349.361633 
	C1326.708618,352.053436 1325.100708,350.891937 1325.165894,340.056915 
	C1325.311035,315.950226 1325.594849,291.848633 1329.991943,268.026703 
	C1330.227905,266.747528 1330.664673,265.505341 1331.098267,263.914917 
	C1337.392822,265.472961 1341.771606,269.309662 1344.583130,274.426910 
	C1354.848145,293.110504 1357.298950,313.066925 1352.619385,333.757538 
	C1351.055908,340.669830 1346.652954,345.942474 1339.442627,348.875702 
z"/>
<path fill="#E42F42" opacity="1.000000" stroke="none" 
	d="
M1320.999512,413.999939 
	C1321.021973,400.269012 1320.696533,387.010101 1323.522095,373.948456 
	C1337.995483,376.362640 1347.308350,386.670746 1346.868164,400.424469 
	C1346.545044,410.520325 1345.155518,420.595947 1343.906738,430.639008 
	C1343.569946,433.347778 1342.312012,436.072357 1340.951294,438.494507 
	C1338.619019,442.646576 1335.081909,444.669128 1330.104858,443.349731 
	C1323.636597,441.635040 1321.458496,439.599457 1321.232056,433.959442 
	C1320.971924,427.480255 1321.061768,420.987000 1320.999512,413.999939 
z"/>
<path fill="#E42E41" opacity="1.000000" stroke="none" 
	d="
M1661.839233,632.147461 
	C1657.247681,609.879028 1653.008301,587.927734 1656.144165,565.512939 
	C1657.087402,558.771545 1659.138794,551.663879 1662.629883,545.904358 
	C1670.925659,532.218689 1687.635742,532.237793 1695.279297,546.225891 
	C1700.042114,554.942078 1703.356689,564.894043 1705.173828,574.689758 
	C1710.059204,601.027222 1710.387573,627.569458 1704.925049,653.963745 
	C1703.521240,660.746582 1700.765381,666.872864 1695.270630,671.543457 
	C1687.932373,677.780762 1679.933594,677.270447 1675.026123,668.865967 
	C1670.973389,661.925293 1668.268188,654.144287 1665.451660,646.555420 
	C1663.787354,642.070801 1663.067505,637.235535 1661.839233,632.147461 
z"/>
<path fill="#E42F42" opacity="1.000000" stroke="none" 
	d="
M1973.966797,626.969666 
	C1985.880737,614.466492 1997.553955,602.223389 2009.227051,589.980225 
	C2009.536743,590.135193 2009.846436,590.290161 2010.156250,590.445129 
	C2006.920776,614.906982 2003.685425,639.368774 2000.347046,664.608765 
	C1982.092285,662.225159 1964.225342,659.892151 1945.094849,657.394165 
	C1955.117920,646.834167 1964.421875,637.031921 1973.966797,626.969666 
z"/>
</svg>