<svg xmlns="http://www.w3.org/2000/svg" width="845" height="227" fill="none" viewBox="0 0 845 227"><mask id="path-1-outside-1_21_8" width="817" height="145" x="25" y="41" fill="#000" maskUnits="userSpaceOnUse"><rect width="817" height="145" x="25" y="41" fill="#fff"/><path d="M41.22 183C37.86 183 35.28 182.16 33.48 180.48C31.68 178.8 30.72 175.92 30.6 171.84L28.08 54.84C28.08 51.36 29.1 48.72 31.14 46.92C33.18 45 35.7 44.04 38.7 44.04C41.94 44.04 44.58 45.06 46.62 47.1C48.66 49.02 49.68 51.54 49.68 54.66L50.94 156.72L39.78 153.84L85.5 52.32C86.7 49.56 88.32 47.52 90.36 46.2C92.4 44.76 94.74 44.04 97.38 44.04C100.98 44.04 103.62 45.06 105.3 47.1C107.1 49.02 108 51.54 108 54.66L109.44 154.2L99.18 152.04L144.18 52.32C145.5 49.56 147.18 47.52 149.22 46.2C151.26 44.76 153.48 44.04 155.88 44.04C159.96 44.04 162.96 45.54 164.88 48.54C166.8 51.42 166.86 54.78 165.06 58.62L111.6 174.72C110.28 177.72 108.6 179.88 106.56 181.2C104.52 182.4 102.3 183 99.9 183C96.54 183 93.84 182.16 91.8 180.48C89.88 178.68 88.92 175.74 88.92 171.66L87.66 74.1L98.1 74.28L53.1 174.72C51.66 177.72 49.92 179.88 47.88 181.2C45.84 182.4 43.62 183 41.22 183ZM166.056 183C156.936 183 150.576 179.52 146.976 172.56C143.496 165.48 143.256 155.82 146.256 143.58C148.176 135.9 151.056 129.3 154.896 123.78C158.856 118.14 163.536 113.82 168.936 110.82C174.336 107.82 180.216 106.32 186.576 106.32C195.696 106.32 201.996 109.74 205.476 116.58C209.076 123.3 209.436 132.6 206.556 144.48C204.636 152.4 201.696 159.24 197.736 165C193.776 170.76 189.096 175.2 183.696 178.32C178.296 181.44 172.416 183 166.056 183ZM169.296 163.74C172.776 163.74 176.076 161.64 179.196 157.44C182.316 153.24 184.776 147.48 186.576 140.16C187.776 135.6 188.076 132 187.476 129.36C186.876 126.72 185.496 125.4 183.336 125.4C179.736 125.4 176.376 127.44 173.256 131.52C170.136 135.48 167.736 140.94 166.056 147.9C164.856 152.82 164.496 156.72 164.976 159.6C165.576 162.36 167.016 163.74 169.296 163.74ZM264.016 183C259.936 183 257.296 181.8 256.096 179.4C254.896 176.88 254.776 173.76 255.736 170.04L262.936 139.98C263.296 138.66 263.656 136.92 264.016 134.76C264.376 132.6 264.496 130.62 264.376 128.82C264.256 127.02 263.536 126.12 262.216 126.12C261.016 126.12 259.516 126.96 257.716 128.64C256.036 130.2 254.176 132.42 252.136 135.3C250.096 138.06 248.056 141.3 246.016 145.02C244.096 148.62 242.236 152.52 240.436 156.72C238.636 160.92 237.076 165.12 235.756 169.32L235.576 136.56C238.936 130.92 242.716 125.82 246.916 121.26C251.236 116.7 255.616 113.1 260.056 110.46C264.616 107.7 268.876 106.32 272.836 106.32C275.116 106.32 277.276 106.68 279.316 107.4C281.356 108.12 282.916 109.68 283.996 112.08C285.196 114.48 285.676 118.2 285.436 123.24C285.316 128.16 284.176 134.94 282.016 143.58L274.636 173.1C273.916 176.1 272.896 178.5 271.576 180.3C270.256 182.1 267.736 183 264.016 183ZM223.516 183C219.796 183 217.216 181.74 215.776 179.22C214.336 176.7 214.156 173.4 215.236 169.32L228.556 115.86C229.396 112.38 230.776 109.98 232.696 108.66C234.616 107.34 237.256 106.68 240.616 106.68C244.096 106.68 246.496 107.76 247.816 109.92C249.136 112.08 249.316 115.14 248.356 119.1L234.856 173.1C234.136 176.1 232.996 178.5 231.436 180.3C229.996 182.1 227.356 183 223.516 183ZM348.556 183C344.836 183 341.536 182.1 338.656 180.3C335.776 178.38 333.856 175.08 332.896 170.4C332.056 165.72 332.716 159.18 334.876 150.78L359.536 52.32C360.256 49.32 361.516 47.22 363.316 46.02C365.116 44.7 367.636 44.04 370.876 44.04C374.356 44.04 376.816 45 378.256 46.92C379.696 48.84 379.936 51.72 378.976 55.56L354.136 155.28C353.656 156.84 353.296 158.76 353.056 161.04C352.816 163.32 353.116 164.46 353.956 164.46C354.556 164.46 355.816 163.2 357.736 160.68C359.776 158.16 361.516 155.52 362.956 152.76C364.276 150 365.776 147.9 367.456 146.46C369.136 145.02 371.116 144.3 373.396 144.3C375.676 144.3 377.476 145.08 378.796 146.64C380.116 148.2 380.776 150.12 380.776 152.4C380.776 154.2 380.476 156.12 379.876 158.16C379.276 160.08 378.016 162.24 376.096 164.64C371.416 170.76 366.676 175.38 361.876 178.5C357.196 181.5 352.756 183 348.556 183ZM315.616 183C307.096 183 301.096 179.52 297.616 172.56C294.256 165.48 294.076 155.82 297.076 143.58C298.996 135.9 301.816 129.3 305.536 123.78C309.376 118.14 313.816 113.82 318.856 110.82C323.896 107.82 329.176 106.32 334.696 106.32C339.616 106.32 342.916 107.94 344.596 111.18C346.396 114.3 346.996 118.74 346.396 124.5C345.796 130.14 344.476 136.8 342.436 144.48C340.396 151.92 338.176 158.58 335.776 164.46C333.496 170.22 330.736 174.78 327.496 178.14C324.376 181.38 320.416 183 315.616 183ZM320.116 163.74C323.596 163.74 326.896 161.64 330.016 157.44C333.136 153.24 335.596 147.48 337.396 140.16C338.596 135.6 338.896 132 338.296 129.36C337.696 126.72 336.316 125.4 334.156 125.4C330.556 125.4 327.196 127.44 324.076 131.52C320.956 135.48 318.556 140.94 316.876 147.9C315.676 152.82 315.316 156.72 315.796 159.6C316.396 162.36 317.836 163.74 320.116 163.74ZM412.999 183C408.199 183 403.939 181.68 400.219 179.04C396.619 176.28 394.159 172.08 392.839 166.44C391.639 160.8 392.119 153.54 394.279 144.66C396.199 136.98 399.019 130.26 402.739 124.5C406.459 118.74 410.779 114.3 415.699 111.18C420.619 107.94 425.839 106.32 431.359 106.32C436.879 106.32 441.379 107.94 444.859 111.18C448.339 114.42 450.079 118.2 450.079 122.52C450.079 126.72 448.159 131.1 444.319 135.66C440.479 140.22 435.079 144.54 428.119 148.62C421.279 152.58 413.119 156 403.639 158.88L405.979 143.94C409.459 143.1 412.999 141.72 416.599 139.8C420.319 137.88 423.439 135.78 425.959 133.5C428.599 131.1 429.919 128.88 429.919 126.84C429.919 126.36 429.799 126 429.559 125.76C429.439 125.52 429.139 125.4 428.659 125.4C426.499 125.4 424.459 126.6 422.539 129C420.739 131.28 419.119 134.22 417.679 137.82C416.239 141.42 415.039 145.14 414.079 148.98C412.879 153.3 412.399 156.84 412.639 159.6C412.999 162.36 414.259 163.74 416.419 163.74C419.179 163.74 422.479 162.36 426.319 159.6C430.159 156.84 434.419 152.76 439.099 147.36C440.779 145.32 442.999 144.12 445.759 143.76C448.639 143.4 451.279 144.12 453.679 145.92C455.599 147.48 456.739 149.58 457.099 152.22C457.459 154.86 456.619 157.5 454.579 160.14C447.979 167.7 441.199 173.4 434.239 177.24C427.279 181.08 420.199 183 412.999 183ZM472.963 183C468.643 183 465.883 181.74 464.683 179.22C463.603 176.7 463.483 173.46 464.323 169.5L477.643 115.14C478.363 112.02 479.743 109.86 481.783 108.66C483.823 107.34 486.343 106.68 489.343 106.68C492.823 106.68 495.343 107.76 496.903 109.92C498.583 112.08 499.003 114.9 498.163 118.38L484.303 172.74C483.463 175.98 482.383 178.5 481.063 180.3C479.743 182.1 477.043 183 472.963 183ZM484.303 172.02L486.643 135.48C490.003 129.6 493.483 124.5 497.083 120.18C500.683 115.86 504.283 112.5 507.883 110.1C511.603 107.58 515.263 106.32 518.863 106.32C527.143 106.32 532.723 111.84 535.603 122.88C536.203 125.28 535.843 127.5 534.523 129.54C533.323 131.46 531.103 132.9 527.863 133.86C524.623 134.58 521.863 134.34 519.583 133.14C517.303 131.82 515.803 129.72 515.083 126.84C514.483 125.16 513.703 124.32 512.743 124.32C511.423 124.32 509.803 125.28 507.883 127.2C505.963 129 503.863 131.52 501.583 134.76C499.423 138 497.263 141.66 495.103 145.74C492.943 149.82 490.903 154.14 488.983 158.7C487.063 163.14 485.503 167.58 484.303 172.02ZM556.381 183C552.661 183 549.361 182.1 546.481 180.3C543.601 178.38 541.681 175.08 540.721 170.4C539.881 165.72 540.541 159.18 542.701 150.78L567.361 52.32C568.081 49.32 569.341 47.22 571.141 46.02C572.941 44.7 575.461 44.04 578.701 44.04C582.181 44.04 584.701 45 586.261 46.92C587.821 48.84 588.121 51.72 587.161 55.56L562.321 155.28C561.961 156.84 561.601 158.76 561.241 161.04C561.001 163.32 561.181 164.46 561.781 164.46C562.381 164.46 563.641 163.2 565.561 160.68C567.601 158.16 569.341 155.52 570.781 152.76C572.101 150 573.601 147.9 575.281 146.46C576.961 145.02 578.941 144.3 581.221 144.3C583.501 144.3 585.301 145.08 586.621 146.64C587.941 148.2 588.601 150.12 588.601 152.4C588.601 154.2 588.301 156.12 587.701 158.16C587.101 160.08 585.841 162.24 583.921 164.64C579.241 170.76 574.501 175.38 569.701 178.5C565.021 181.5 560.581 183 556.381 183ZM620.772 183C615.132 183 610.572 181.44 607.092 178.32C603.612 175.08 601.452 170.52 600.612 164.64C599.772 158.76 600.312 151.74 602.232 143.58C604.152 135.9 606.972 129.3 610.692 123.78C614.532 118.14 618.972 113.82 624.012 110.82C629.052 107.82 634.332 106.32 639.852 106.32C644.772 106.32 648.072 107.94 649.752 111.18C651.552 114.3 652.152 118.74 651.552 124.5C650.952 130.14 649.632 136.8 647.592 144.48C645.552 151.92 643.332 158.58 640.932 164.46C638.652 170.22 635.892 174.78 632.652 178.14C629.532 181.38 625.572 183 620.772 183ZM625.272 163.74C627.672 163.74 629.952 162.78 632.112 160.86C634.272 158.94 636.252 156.24 638.052 152.76C639.852 149.16 641.352 144.96 642.552 140.16C643.752 135.6 644.052 132 643.452 129.36C642.852 126.72 641.472 125.4 639.312 125.4C636.912 125.4 634.572 126.3 632.292 128.1C630.132 129.9 628.152 132.48 626.352 135.84C624.672 139.2 623.232 143.22 622.032 147.9C620.832 152.82 620.472 156.72 620.952 159.6C621.552 162.36 622.992 163.74 625.272 163.74ZM643.812 183C639.852 183 637.152 181.86 635.712 179.58C634.392 177.18 634.272 173.88 635.352 169.68L649.032 114.78C650.352 109.14 654.192 106.32 660.552 106.32C664.032 106.32 666.492 107.34 667.932 109.38C669.372 111.3 669.612 114.24 668.652 118.2L654.972 173.1C654.252 176.22 653.172 178.68 651.732 180.48C650.412 182.16 647.772 183 643.812 183ZM722.102 183C718.022 183 715.382 181.8 714.182 179.4C712.982 176.88 712.862 173.76 713.822 170.04L721.022 139.98C721.382 138.66 721.742 136.92 722.102 134.76C722.462 132.6 722.582 130.62 722.462 128.82C722.342 127.02 721.622 126.12 720.302 126.12C719.102 126.12 717.602 126.96 715.802 128.64C714.122 130.2 712.262 132.42 710.222 135.3C708.182 138.06 706.142 141.3 704.102 145.02C702.182 148.62 700.322 152.52 698.522 156.72C696.722 160.92 695.162 165.12 693.842 169.32L693.662 136.56C697.022 130.92 700.802 125.82 705.002 121.26C709.322 116.7 713.702 113.1 718.142 110.46C722.702 107.7 726.962 106.32 730.922 106.32C733.202 106.32 735.362 106.68 737.402 107.4C739.442 108.12 741.002 109.68 742.082 112.08C743.282 114.48 743.762 118.2 743.522 123.24C743.402 128.16 742.262 134.94 740.102 143.58L732.722 173.1C732.002 176.1 730.982 178.5 729.662 180.3C728.342 182.1 725.822 183 722.102 183ZM681.602 183C677.882 183 675.302 181.74 673.862 179.22C672.422 176.7 672.242 173.4 673.322 169.32L686.642 115.86C687.482 112.38 688.862 109.98 690.782 108.66C692.702 107.34 695.342 106.68 698.702 106.68C702.182 106.68 704.582 107.76 705.902 109.92C707.222 112.08 707.402 115.14 706.442 119.1L692.942 173.1C692.222 176.1 691.082 178.5 689.522 180.3C688.082 182.1 685.442 183 681.602 183ZM806.642 183C802.922 183 799.622 182.1 796.742 180.3C793.862 178.38 791.942 175.08 790.982 170.4C790.142 165.72 790.802 159.18 792.962 150.78L817.622 52.32C818.342 49.32 819.602 47.22 821.402 46.02C823.202 44.7 825.722 44.04 828.962 44.04C832.442 44.04 834.902 45 836.342 46.92C837.782 48.84 838.022 51.72 837.062 55.56L812.222 155.28C811.742 156.84 811.382 158.76 811.142 161.04C810.902 163.32 811.202 164.46 812.042 164.46C812.642 164.46 813.902 163.2 815.822 160.68C817.862 158.16 819.602 155.52 821.042 152.76C822.362 150 823.862 147.9 825.542 146.46C827.222 145.02 829.202 144.3 831.482 144.3C833.762 144.3 835.562 145.08 836.882 146.64C838.202 148.2 838.862 150.12 838.862 152.4C838.862 154.2 838.562 156.12 837.962 158.16C837.362 160.08 836.102 162.24 834.182 164.64C829.502 170.76 824.762 175.38 819.962 178.5C815.282 181.5 810.842 183 806.642 183ZM773.702 183C765.182 183 759.182 179.52 755.702 172.56C752.342 165.48 752.162 155.82 755.162 143.58C757.082 135.9 759.902 129.3 763.622 123.78C767.462 118.14 771.902 113.82 776.942 110.82C781.982 107.82 787.262 106.32 792.782 106.32C797.702 106.32 801.002 107.94 802.682 111.18C804.482 114.3 805.082 118.74 804.482 124.5C803.882 130.14 802.562 136.8 800.522 144.48C798.482 151.92 796.262 158.58 793.862 164.46C791.582 170.22 788.822 174.78 785.582 178.14C782.462 181.38 778.502 183 773.702 183ZM778.202 163.74C781.682 163.74 784.982 161.64 788.102 157.44C791.222 153.24 793.682 147.48 795.482 140.16C796.682 135.6 796.982 132 796.382 129.36C795.782 126.72 794.402 125.4 792.242 125.4C788.642 125.4 785.282 127.44 782.162 131.52C779.042 135.48 776.642 140.94 774.962 147.9C773.762 152.82 773.402 156.72 773.882 159.6C774.482 162.36 775.922 163.74 778.202 163.74Z"/></mask><g filter="url(#filter0_i_21_8)"><path fill="url(#paint0_linear_21_8)" d="M41.22 183C37.86 183 35.28 182.16 33.48 180.48C31.68 178.8 30.72 175.92 30.6 171.84L28.08 54.84C28.08 51.36 29.1 48.72 31.14 46.92C33.18 45 35.7 44.04 38.7 44.04C41.94 44.04 44.58 45.06 46.62 47.1C48.66 49.02 49.68 51.54 49.68 54.66L50.94 156.72L39.78 153.84L85.5 52.32C86.7 49.56 88.32 47.52 90.36 46.2C92.4 44.76 94.74 44.04 97.38 44.04C100.98 44.04 103.62 45.06 105.3 47.1C107.1 49.02 108 51.54 108 54.66L109.44 154.2L99.18 152.04L144.18 52.32C145.5 49.56 147.18 47.52 149.22 46.2C151.26 44.76 153.48 44.04 155.88 44.04C159.96 44.04 162.96 45.54 164.88 48.54C166.8 51.42 166.86 54.78 165.06 58.62L111.6 174.72C110.28 177.72 108.6 179.88 106.56 181.2C104.52 182.4 102.3 183 99.9 183C96.54 183 93.84 182.16 91.8 180.48C89.88 178.68 88.92 175.74 88.92 171.66L87.66 74.1L98.1 74.28L53.1 174.72C51.66 177.72 49.92 179.88 47.88 181.2C45.84 182.4 43.62 183 41.22 183ZM166.056 183C156.936 183 150.576 179.52 146.976 172.56C143.496 165.48 143.256 155.82 146.256 143.58C148.176 135.9 151.056 129.3 154.896 123.78C158.856 118.14 163.536 113.82 168.936 110.82C174.336 107.82 180.216 106.32 186.576 106.32C195.696 106.32 201.996 109.74 205.476 116.58C209.076 123.3 209.436 132.6 206.556 144.48C204.636 152.4 201.696 159.24 197.736 165C193.776 170.76 189.096 175.2 183.696 178.32C178.296 181.44 172.416 183 166.056 183ZM169.296 163.74C172.776 163.74 176.076 161.64 179.196 157.44C182.316 153.24 184.776 147.48 186.576 140.16C187.776 135.6 188.076 132 187.476 129.36C186.876 126.72 185.496 125.4 183.336 125.4C179.736 125.4 176.376 127.44 173.256 131.52C170.136 135.48 167.736 140.94 166.056 147.9C164.856 152.82 164.496 156.72 164.976 159.6C165.576 162.36 167.016 163.74 169.296 163.74ZM264.016 183C259.936 183 257.296 181.8 256.096 179.4C254.896 176.88 254.776 173.76 255.736 170.04L262.936 139.98C263.296 138.66 263.656 136.92 264.016 134.76C264.376 132.6 264.496 130.62 264.376 128.82C264.256 127.02 263.536 126.12 262.216 126.12C261.016 126.12 259.516 126.96 257.716 128.64C256.036 130.2 254.176 132.42 252.136 135.3C250.096 138.06 248.056 141.3 246.016 145.02C244.096 148.62 242.236 152.52 240.436 156.72C238.636 160.92 237.076 165.12 235.756 169.32L235.576 136.56C238.936 130.92 242.716 125.82 246.916 121.26C251.236 116.7 255.616 113.1 260.056 110.46C264.616 107.7 268.876 106.32 272.836 106.32C275.116 106.32 277.276 106.68 279.316 107.4C281.356 108.12 282.916 109.68 283.996 112.08C285.196 114.48 285.676 118.2 285.436 123.24C285.316 128.16 284.176 134.94 282.016 143.58L274.636 173.1C273.916 176.1 272.896 178.5 271.576 180.3C270.256 182.1 267.736 183 264.016 183ZM223.516 183C219.796 183 217.216 181.74 215.776 179.22C214.336 176.7 214.156 173.4 215.236 169.32L228.556 115.86C229.396 112.38 230.776 109.98 232.696 108.66C234.616 107.34 237.256 106.68 240.616 106.68C244.096 106.68 246.496 107.76 247.816 109.92C249.136 112.08 249.316 115.14 248.356 119.1L234.856 173.1C234.136 176.1 232.996 178.5 231.436 180.3C229.996 182.1 227.356 183 223.516 183ZM348.556 183C344.836 183 341.536 182.1 338.656 180.3C335.776 178.38 333.856 175.08 332.896 170.4C332.056 165.72 332.716 159.18 334.876 150.78L359.536 52.32C360.256 49.32 361.516 47.22 363.316 46.02C365.116 44.7 367.636 44.04 370.876 44.04C374.356 44.04 376.816 45 378.256 46.92C379.696 48.84 379.936 51.72 378.976 55.56L354.136 155.28C353.656 156.84 353.296 158.76 353.056 161.04C352.816 163.32 353.116 164.46 353.956 164.46C354.556 164.46 355.816 163.2 357.736 160.68C359.776 158.16 361.516 155.52 362.956 152.76C364.276 150 365.776 147.9 367.456 146.46C369.136 145.02 371.116 144.3 373.396 144.3C375.676 144.3 377.476 145.08 378.796 146.64C380.116 148.2 380.776 150.12 380.776 152.4C380.776 154.2 380.476 156.12 379.876 158.16C379.276 160.08 378.016 162.24 376.096 164.64C371.416 170.76 366.676 175.38 361.876 178.5C357.196 181.5 352.756 183 348.556 183ZM315.616 183C307.096 183 301.096 179.52 297.616 172.56C294.256 165.48 294.076 155.82 297.076 143.58C298.996 135.9 301.816 129.3 305.536 123.78C309.376 118.14 313.816 113.82 318.856 110.82C323.896 107.82 329.176 106.32 334.696 106.32C339.616 106.32 342.916 107.94 344.596 111.18C346.396 114.3 346.996 118.74 346.396 124.5C345.796 130.14 344.476 136.8 342.436 144.48C340.396 151.92 338.176 158.58 335.776 164.46C333.496 170.22 330.736 174.78 327.496 178.14C324.376 181.38 320.416 183 315.616 183ZM320.116 163.74C323.596 163.74 326.896 161.64 330.016 157.44C333.136 153.24 335.596 147.48 337.396 140.16C338.596 135.6 338.896 132 338.296 129.36C337.696 126.72 336.316 125.4 334.156 125.4C330.556 125.4 327.196 127.44 324.076 131.52C320.956 135.48 318.556 140.94 316.876 147.9C315.676 152.82 315.316 156.72 315.796 159.6C316.396 162.36 317.836 163.74 320.116 163.74ZM412.999 183C408.199 183 403.939 181.68 400.219 179.04C396.619 176.28 394.159 172.08 392.839 166.44C391.639 160.8 392.119 153.54 394.279 144.66C396.199 136.98 399.019 130.26 402.739 124.5C406.459 118.74 410.779 114.3 415.699 111.18C420.619 107.94 425.839 106.32 431.359 106.32C436.879 106.32 441.379 107.94 444.859 111.18C448.339 114.42 450.079 118.2 450.079 122.52C450.079 126.72 448.159 131.1 444.319 135.66C440.479 140.22 435.079 144.54 428.119 148.62C421.279 152.58 413.119 156 403.639 158.88L405.979 143.94C409.459 143.1 412.999 141.72 416.599 139.8C420.319 137.88 423.439 135.78 425.959 133.5C428.599 131.1 429.919 128.88 429.919 126.84C429.919 126.36 429.799 126 429.559 125.76C429.439 125.52 429.139 125.4 428.659 125.4C426.499 125.4 424.459 126.6 422.539 129C420.739 131.28 419.119 134.22 417.679 137.82C416.239 141.42 415.039 145.14 414.079 148.98C412.879 153.3 412.399 156.84 412.639 159.6C412.999 162.36 414.259 163.74 416.419 163.74C419.179 163.74 422.479 162.36 426.319 159.6C430.159 156.84 434.419 152.76 439.099 147.36C440.779 145.32 442.999 144.12 445.759 143.76C448.639 143.4 451.279 144.12 453.679 145.92C455.599 147.48 456.739 149.58 457.099 152.22C457.459 154.86 456.619 157.5 454.579 160.14C447.979 167.7 441.199 173.4 434.239 177.24C427.279 181.08 420.199 183 412.999 183ZM472.963 183C468.643 183 465.883 181.74 464.683 179.22C463.603 176.7 463.483 173.46 464.323 169.5L477.643 115.14C478.363 112.02 479.743 109.86 481.783 108.66C483.823 107.34 486.343 106.68 489.343 106.68C492.823 106.68 495.343 107.76 496.903 109.92C498.583 112.08 499.003 114.9 498.163 118.38L484.303 172.74C483.463 175.98 482.383 178.5 481.063 180.3C479.743 182.1 477.043 183 472.963 183ZM484.303 172.02L486.643 135.48C490.003 129.6 493.483 124.5 497.083 120.18C500.683 115.86 504.283 112.5 507.883 110.1C511.603 107.58 515.263 106.32 518.863 106.32C527.143 106.32 532.723 111.84 535.603 122.88C536.203 125.28 535.843 127.5 534.523 129.54C533.323 131.46 531.103 132.9 527.863 133.86C524.623 134.58 521.863 134.34 519.583 133.14C517.303 131.82 515.803 129.72 515.083 126.84C514.483 125.16 513.703 124.32 512.743 124.32C511.423 124.32 509.803 125.28 507.883 127.2C505.963 129 503.863 131.52 501.583 134.76C499.423 138 497.263 141.66 495.103 145.74C492.943 149.82 490.903 154.14 488.983 158.7C487.063 163.14 485.503 167.58 484.303 172.02ZM556.381 183C552.661 183 549.361 182.1 546.481 180.3C543.601 178.38 541.681 175.08 540.721 170.4C539.881 165.72 540.541 159.18 542.701 150.78L567.361 52.32C568.081 49.32 569.341 47.22 571.141 46.02C572.941 44.7 575.461 44.04 578.701 44.04C582.181 44.04 584.701 45 586.261 46.92C587.821 48.84 588.121 51.72 587.161 55.56L562.321 155.28C561.961 156.84 561.601 158.76 561.241 161.04C561.001 163.32 561.181 164.46 561.781 164.46C562.381 164.46 563.641 163.2 565.561 160.68C567.601 158.16 569.341 155.52 570.781 152.76C572.101 150 573.601 147.9 575.281 146.46C576.961 145.02 578.941 144.3 581.221 144.3C583.501 144.3 585.301 145.08 586.621 146.64C587.941 148.2 588.601 150.12 588.601 152.4C588.601 154.2 588.301 156.12 587.701 158.16C587.101 160.08 585.841 162.24 583.921 164.64C579.241 170.76 574.501 175.38 569.701 178.5C565.021 181.5 560.581 183 556.381 183ZM620.772 183C615.132 183 610.572 181.44 607.092 178.32C603.612 175.08 601.452 170.52 600.612 164.64C599.772 158.76 600.312 151.74 602.232 143.58C604.152 135.9 606.972 129.3 610.692 123.78C614.532 118.14 618.972 113.82 624.012 110.82C629.052 107.82 634.332 106.32 639.852 106.32C644.772 106.32 648.072 107.94 649.752 111.18C651.552 114.3 652.152 118.74 651.552 124.5C650.952 130.14 649.632 136.8 647.592 144.48C645.552 151.92 643.332 158.58 640.932 164.46C638.652 170.22 635.892 174.78 632.652 178.14C629.532 181.38 625.572 183 620.772 183ZM625.272 163.74C627.672 163.74 629.952 162.78 632.112 160.86C634.272 158.94 636.252 156.24 638.052 152.76C639.852 149.16 641.352 144.96 642.552 140.16C643.752 135.6 644.052 132 643.452 129.36C642.852 126.72 641.472 125.4 639.312 125.4C636.912 125.4 634.572 126.3 632.292 128.1C630.132 129.9 628.152 132.48 626.352 135.84C624.672 139.2 623.232 143.22 622.032 147.9C620.832 152.82 620.472 156.72 620.952 159.6C621.552 162.36 622.992 163.74 625.272 163.74ZM643.812 183C639.852 183 637.152 181.86 635.712 179.58C634.392 177.18 634.272 173.88 635.352 169.68L649.032 114.78C650.352 109.14 654.192 106.32 660.552 106.32C664.032 106.32 666.492 107.34 667.932 109.38C669.372 111.3 669.612 114.24 668.652 118.2L654.972 173.1C654.252 176.22 653.172 178.68 651.732 180.48C650.412 182.16 647.772 183 643.812 183ZM722.102 183C718.022 183 715.382 181.8 714.182 179.4C712.982 176.88 712.862 173.76 713.822 170.04L721.022 139.98C721.382 138.66 721.742 136.92 722.102 134.76C722.462 132.6 722.582 130.62 722.462 128.82C722.342 127.02 721.622 126.12 720.302 126.12C719.102 126.12 717.602 126.96 715.802 128.64C714.122 130.2 712.262 132.42 710.222 135.3C708.182 138.06 706.142 141.3 704.102 145.02C702.182 148.62 700.322 152.52 698.522 156.72C696.722 160.92 695.162 165.12 693.842 169.32L693.662 136.56C697.022 130.92 700.802 125.82 705.002 121.26C709.322 116.7 713.702 113.1 718.142 110.46C722.702 107.7 726.962 106.32 730.922 106.32C733.202 106.32 735.362 106.68 737.402 107.4C739.442 108.12 741.002 109.68 742.082 112.08C743.282 114.48 743.762 118.2 743.522 123.24C743.402 128.16 742.262 134.94 740.102 143.58L732.722 173.1C732.002 176.1 730.982 178.5 729.662 180.3C728.342 182.1 725.822 183 722.102 183ZM681.602 183C677.882 183 675.302 181.74 673.862 179.22C672.422 176.7 672.242 173.4 673.322 169.32L686.642 115.86C687.482 112.38 688.862 109.98 690.782 108.66C692.702 107.34 695.342 106.68 698.702 106.68C702.182 106.68 704.582 107.76 705.902 109.92C707.222 112.08 707.402 115.14 706.442 119.1L692.942 173.1C692.222 176.1 691.082 178.5 689.522 180.3C688.082 182.1 685.442 183 681.602 183ZM806.642 183C802.922 183 799.622 182.1 796.742 180.3C793.862 178.38 791.942 175.08 790.982 170.4C790.142 165.72 790.802 159.18 792.962 150.78L817.622 52.32C818.342 49.32 819.602 47.22 821.402 46.02C823.202 44.7 825.722 44.04 828.962 44.04C832.442 44.04 834.902 45 836.342 46.92C837.782 48.84 838.022 51.72 837.062 55.56L812.222 155.28C811.742 156.84 811.382 158.76 811.142 161.04C810.902 163.32 811.202 164.46 812.042 164.46C812.642 164.46 813.902 163.2 815.822 160.68C817.862 158.16 819.602 155.52 821.042 152.76C822.362 150 823.862 147.9 825.542 146.46C827.222 145.02 829.202 144.3 831.482 144.3C833.762 144.3 835.562 145.08 836.882 146.64C838.202 148.2 838.862 150.12 838.862 152.4C838.862 154.2 838.562 156.12 837.962 158.16C837.362 160.08 836.102 162.24 834.182 164.64C829.502 170.76 824.762 175.38 819.962 178.5C815.282 181.5 810.842 183 806.642 183ZM773.702 183C765.182 183 759.182 179.52 755.702 172.56C752.342 165.48 752.162 155.82 755.162 143.58C757.082 135.9 759.902 129.3 763.622 123.78C767.462 118.14 771.902 113.82 776.942 110.82C781.982 107.82 787.262 106.32 792.782 106.32C797.702 106.32 801.002 107.94 802.682 111.18C804.482 114.3 805.082 118.74 804.482 124.5C803.882 130.14 802.562 136.8 800.522 144.48C798.482 151.92 796.262 158.58 793.862 164.46C791.582 170.22 788.822 174.78 785.582 178.14C782.462 181.38 778.502 183 773.702 183ZM778.202 163.74C781.682 163.74 784.982 161.64 788.102 157.44C791.222 153.24 793.682 147.48 795.482 140.16C796.682 135.6 796.982 132 796.382 129.36C795.782 126.72 794.402 125.4 792.242 125.4C788.642 125.4 785.282 127.44 782.162 131.52C779.042 135.48 776.642 140.94 774.962 147.9C773.762 152.82 773.402 156.72 773.882 159.6C774.482 162.36 775.922 163.74 778.202 163.74Z"/></g><path fill="#000" d="M30.6 171.84L27.6007 171.905L27.601 171.916L27.6013 171.928L30.6 171.84ZM28.08 54.84H25.08V54.8723L25.0807 54.9046L28.08 54.84ZM31.14 46.92L33.1249 49.1695L33.161 49.1376L33.1961 49.1046L31.14 46.92ZM46.62 47.1L44.4987 49.2213L44.5308 49.2534L44.5639 49.2846L46.62 47.1ZM49.68 54.66H46.68V54.6785L46.6802 54.697L49.68 54.66ZM50.94 156.72L50.1904 159.625L53.9882 160.605L53.9398 156.683L50.94 156.72ZM39.78 153.84L37.0446 152.608L35.5823 155.855L39.0304 156.745L39.78 153.84ZM85.5 52.32L88.2354 53.5519L88.2434 53.5341L88.2512 53.5162L85.5 52.32ZM90.36 46.2L91.9898 48.7187L92.0406 48.6858L92.0901 48.6509L90.36 46.2ZM105.3 47.1L102.984 49.0071L103.045 49.0815L103.111 49.1518L105.3 47.1ZM108 54.66H105V54.6817L105 54.7034L108 54.66ZM109.44 154.2L108.822 157.136L112.494 157.909L112.44 154.157L109.44 154.2ZM99.18 152.04L96.4455 150.806L94.9108 154.207L98.562 154.976L99.18 152.04ZM144.18 52.32L141.474 51.0256L141.459 51.0557L141.446 51.086L144.18 52.32ZM149.22 46.2L150.85 48.7187L150.901 48.6858L150.95 48.6509L149.22 46.2ZM164.88 48.54L162.353 50.1572L162.368 50.1808L162.384 50.2041L164.88 48.54ZM165.06 58.62L162.344 57.3467L162.339 57.3559L162.335 57.3652L165.06 58.62ZM111.6 174.72L108.875 173.465L108.864 173.488L108.854 173.512L111.6 174.72ZM106.56 181.2L108.081 183.786L108.136 183.753L108.19 183.719L106.56 181.2ZM91.8 180.48L89.7482 182.669L89.8185 182.735L89.8929 182.796L91.8 180.48ZM88.92 171.66H91.92V171.641L91.9198 171.621L88.92 171.66ZM87.66 74.1L87.7117 71.1004L84.6203 71.0471L84.6603 74.1387L87.66 74.1ZM98.1 74.28L100.838 75.5066L102.696 71.3588L98.1517 71.2804L98.1 74.28ZM53.1 174.72L55.8046 176.018L55.8216 175.983L55.8378 175.947L53.1 174.72ZM47.88 181.2L49.4011 183.786L49.4561 183.753L49.5098 183.719L47.88 181.2ZM41.22 180C38.3389 180 36.5954 179.284 35.527 178.287L31.433 182.673C33.9646 185.036 37.3811 186 41.22 186V180ZM35.527 178.287C34.5977 177.42 33.7099 175.531 33.5987 171.752L27.6013 171.928C27.7301 176.309 28.7623 180.18 31.433 182.673L35.527 178.287ZM33.5993 171.775L31.0793 54.7754L25.0807 54.9046L27.6007 171.905L33.5993 171.775ZM31.08 54.84C31.08 51.9637 31.9008 50.2496 33.1249 49.1695L29.1551 44.6705C26.2992 47.1904 25.08 50.7562 25.08 54.84H31.08ZM33.1961 49.1046C34.6378 47.7477 36.4048 47.04 38.7 47.04V41.04C34.9952 41.04 31.7222 42.2523 29.0839 44.7354L33.1961 49.1046ZM38.7 47.04C41.2513 47.04 43.0926 47.8153 44.4987 49.2213L48.7413 44.9787C46.0674 42.3047 42.6287 41.04 38.7 41.04V47.04ZM44.5639 49.2846C45.9298 50.5701 46.68 52.2632 46.68 54.66H52.68C52.68 50.8168 51.3902 47.4699 48.6761 44.9154L44.5639 49.2846ZM46.6802 54.697L47.9402 156.757L53.9398 156.683L52.6798 54.623L46.6802 54.697ZM51.6896 153.815L40.5296 150.935L39.0304 156.745L50.1904 159.625L51.6896 153.815ZM42.5154 155.072L88.2354 53.5519L82.7646 51.0881L37.0446 152.608L42.5154 155.072ZM88.2512 53.5162C89.2722 51.168 90.5524 49.6488 91.9898 48.7187L88.7302 43.6813C86.0876 45.3912 84.1278 47.952 82.7488 51.1238L88.2512 53.5162ZM92.0901 48.6509C93.594 47.5893 95.322 47.04 97.38 47.04V41.04C94.158 41.04 91.206 41.9307 88.63 43.7491L92.0901 48.6509ZM97.38 47.04C100.427 47.04 102.062 47.8867 102.984 49.0071L107.616 45.1929C105.179 42.2333 101.533 41.04 97.38 41.04V47.04ZM103.111 49.1518C104.296 50.415 105 52.1518 105 54.66H111C111 50.9282 109.904 47.625 107.489 45.0482L103.111 49.1518ZM105 54.7034L106.44 154.243L112.44 154.157L111 54.6166L105 54.7034ZM110.058 151.264L99.798 149.104L98.562 154.976L108.822 157.136L110.058 151.264ZM101.914 153.274L146.914 53.554L141.446 51.086L96.4455 150.806L101.914 153.274ZM146.886 53.6144C148.029 51.2257 149.381 49.6689 150.85 48.7187L147.59 43.6813C144.979 45.3711 142.971 47.8943 141.474 51.0256L146.886 53.6144ZM150.95 48.6509C152.506 47.5528 154.126 47.04 155.88 47.04V41.04C152.834 41.04 150.014 41.9672 147.49 43.7491L150.95 48.6509ZM155.88 47.04C159.112 47.04 161.073 48.1564 162.353 50.1572L167.407 46.9228C164.847 42.9236 160.808 41.04 155.88 41.04V47.04ZM162.384 50.2041C163.584 52.0043 163.815 54.2082 162.344 57.3467L167.776 59.8933C169.905 55.3518 170.016 50.8357 167.376 46.8759L162.384 50.2041ZM162.335 57.3652L108.875 173.465L114.325 175.975L167.785 59.8748L162.335 57.3652ZM108.854 173.512C107.69 176.158 106.334 177.773 104.93 178.681L108.19 183.719C110.866 181.987 112.87 179.282 114.346 175.928L108.854 173.512ZM105.039 178.614C103.467 179.539 101.773 180 99.9 180V186C102.827 186 105.573 185.261 108.081 183.786L105.039 178.614ZM99.9 180C97.0429 180 95.0779 179.293 93.7071 178.164L89.8929 182.796C92.6021 185.027 96.0371 186 99.9 186V180ZM93.8518 178.291C92.8009 177.306 91.92 175.36 91.92 171.66H85.92C85.92 176.12 86.9591 180.054 89.7482 182.669L93.8518 178.291ZM91.9198 171.621L90.6598 74.0613L84.6603 74.1387L85.9203 171.699L91.9198 171.621ZM87.6083 77.0996L98.0483 77.2795L98.1517 71.2804L87.7117 71.1004L87.6083 77.0996ZM95.3622 73.0534L50.3622 173.493L55.8378 175.947L100.838 75.5066L95.3622 73.0534ZM50.3954 173.422C49.1095 176.101 47.6853 177.753 46.2502 178.681L49.5098 183.719C52.1547 182.007 54.2106 179.339 55.8046 176.018L50.3954 173.422ZM46.3589 178.614C44.7867 179.539 43.093 180 41.22 180V186C44.147 186 46.8933 185.261 49.4011 183.786L46.3589 178.614ZM146.976 172.56L144.283 173.883L144.297 173.911L144.311 173.938L146.976 172.56ZM146.256 143.58L143.345 142.852L143.342 142.866L146.256 143.58ZM154.896 123.78L152.44 122.056L152.433 122.067L154.896 123.78ZM168.936 110.82L170.393 113.442L170.393 113.442L168.936 110.82ZM205.476 116.58L202.802 117.94L202.816 117.969L202.831 117.997L205.476 116.58ZM206.556 144.48L209.471 145.187L209.471 145.187L206.556 144.48ZM197.736 165L200.208 166.7L200.208 166.7L197.736 165ZM183.696 178.32L185.196 180.918L185.196 180.918L183.696 178.32ZM179.196 157.44L181.604 159.229L181.604 159.229L179.196 157.44ZM186.576 140.16L183.674 139.397L183.668 139.42L183.662 139.444L186.576 140.16ZM187.476 129.36L184.55 130.025L184.55 130.025L187.476 129.36ZM173.256 131.52L175.612 133.377L175.626 133.36L175.639 133.342L173.256 131.52ZM166.056 147.9L168.97 148.611L168.972 148.604L166.056 147.9ZM164.976 159.6L162.016 160.093L162.029 160.166L162.044 160.237L164.976 159.6ZM166.056 180C161.871 180 158.524 179.202 155.886 177.758C153.272 176.328 151.189 174.176 149.64 171.182L144.311 173.938C146.362 177.904 149.259 180.972 153.006 183.022C156.727 185.058 161.12 186 166.056 186V180ZM149.668 171.237C146.637 165.07 146.243 156.234 149.169 144.294L143.342 142.866C140.268 155.406 140.354 165.89 144.283 173.883L149.668 171.237ZM149.166 144.308C151.013 136.919 153.759 130.667 157.358 125.493L152.433 122.067C148.352 127.933 145.338 134.881 143.345 142.852L149.166 144.308ZM157.351 125.504C161.081 120.192 165.433 116.198 170.393 113.442L167.479 108.198C161.639 111.442 156.631 116.088 152.44 122.056L157.351 125.504ZM170.393 113.442C175.333 110.698 180.71 109.32 186.576 109.32V103.32C179.722 103.32 173.338 104.942 167.479 108.198L170.393 113.442ZM186.576 109.32C190.769 109.32 194.102 110.106 196.709 111.522C199.287 112.921 201.317 115.022 202.802 117.94L208.149 115.22C206.154 111.298 203.294 108.269 199.572 106.248C195.879 104.244 191.503 103.32 186.576 103.32V109.32ZM202.831 117.997C205.925 123.772 206.445 132.201 203.64 143.773L209.471 145.187C212.426 132.999 212.226 122.828 208.12 115.163L202.831 117.997ZM203.64 143.773C201.792 151.396 198.985 157.887 195.264 163.3L200.208 166.7C204.406 160.593 207.479 153.404 209.471 145.187L203.64 143.773ZM195.264 163.3C191.526 168.737 187.164 172.851 182.195 175.722L185.196 180.918C191.027 177.549 196.026 172.783 200.208 166.7L195.264 163.3ZM182.195 175.722C177.26 178.573 171.9 180 166.056 180V186C172.932 186 179.331 184.307 185.196 180.918L182.195 175.722ZM169.296 166.74C174.13 166.74 178.213 163.793 181.604 159.229L176.787 155.651C173.938 159.487 171.421 160.74 169.296 160.74V166.74ZM181.604 159.229C185.042 154.6 187.632 148.427 189.489 140.876L183.662 139.444C181.919 146.533 179.589 151.88 176.787 155.651L181.604 159.229ZM189.477 140.923C190.721 136.195 191.16 132.036 190.401 128.695L184.55 130.025C184.991 131.964 184.83 135.005 183.674 139.397L189.477 140.923ZM190.401 128.695C190.023 127.031 189.323 125.426 188.064 124.222C186.742 122.957 185.079 122.4 183.336 122.4V128.4C183.753 128.4 183.86 128.503 183.917 128.558C184.039 128.674 184.328 129.049 184.55 130.025L190.401 128.695ZM183.336 122.4C178.449 122.4 174.305 125.209 170.873 129.698L175.639 133.342C178.446 129.671 181.022 128.4 183.336 128.4V122.4ZM170.899 129.663C167.424 134.074 164.881 139.98 163.139 147.196L168.972 148.604C170.59 141.9 172.847 136.886 175.612 133.377L170.899 129.663ZM163.141 147.189C161.905 152.256 161.438 156.621 162.016 160.093L167.935 159.107C167.553 156.819 167.806 153.384 168.97 148.611L163.141 147.189ZM162.044 160.237C162.42 161.968 163.134 163.629 164.43 164.871C165.789 166.174 167.502 166.74 169.296 166.74V160.74C168.81 160.74 168.662 160.616 168.581 160.539C168.437 160.401 168.131 159.992 167.907 158.963L162.044 160.237ZM256.096 179.4L253.388 180.69L253.4 180.716L253.413 180.742L256.096 179.4ZM255.736 170.04L258.641 170.79L258.648 170.764L258.654 170.739L255.736 170.04ZM262.936 139.98L260.042 139.191L260.03 139.236L260.019 139.281L262.936 139.98ZM264.016 134.76L266.976 135.253L266.976 135.253L264.016 134.76ZM264.376 128.82L267.37 128.62L267.37 128.62L264.376 128.82ZM257.716 128.64L259.758 130.838L259.763 130.833L257.716 128.64ZM252.136 135.3L254.549 137.083L254.567 137.059L254.584 137.034L252.136 135.3ZM246.016 145.02L243.386 143.578L243.378 143.593L243.369 143.608L246.016 145.02ZM240.436 156.72L237.679 155.538L237.679 155.538L240.436 156.72ZM235.756 169.32L232.756 169.336L238.618 170.219L235.756 169.32ZM235.576 136.56L232.999 135.025L232.572 135.742L232.576 136.576L235.576 136.56ZM246.916 121.26L244.739 119.197L244.724 119.212L244.71 119.228L246.916 121.26ZM260.056 110.46L261.59 113.039L261.6 113.033L261.61 113.026L260.056 110.46ZM279.316 107.4L278.318 110.229L278.318 110.229L279.316 107.4ZM283.996 112.08L281.261 113.311L281.286 113.367L281.313 113.422L283.996 112.08ZM285.436 123.24L282.44 123.097L282.438 123.132L282.437 123.167L285.436 123.24ZM282.016 143.58L279.106 142.852L279.106 142.852L282.016 143.58ZM274.636 173.1L271.726 172.372L271.723 172.386L271.719 172.4L274.636 173.1ZM215.776 179.22L218.381 177.732L218.381 177.732L215.776 179.22ZM215.236 169.32L218.137 170.088L218.142 170.067L218.147 170.045L215.236 169.32ZM228.556 115.86L231.467 116.585L231.47 116.575L231.473 116.564L228.556 115.86ZM232.696 108.66L234.396 111.132L234.396 111.132L232.696 108.66ZM247.816 109.92L245.257 111.484L245.257 111.484L247.816 109.92ZM248.356 119.1L251.267 119.828L251.269 119.817L251.272 119.807L248.356 119.1ZM234.856 173.1L231.946 172.372L231.943 172.386L231.939 172.4L234.856 173.1ZM231.436 180.3L229.169 178.335L229.131 178.38L229.094 178.426L231.436 180.3ZM264.016 180C260.416 180 259.233 178.964 258.78 178.058L253.413 180.742C255.36 184.636 259.457 186 264.016 186V180ZM258.805 178.11C258.005 176.429 257.791 174.083 258.641 170.79L252.832 169.29C251.762 173.437 251.788 177.331 253.388 180.69L258.805 178.11ZM258.654 170.739L265.854 140.679L260.019 139.281L252.819 169.341L258.654 170.739ZM265.831 140.769C266.228 139.312 266.608 137.461 266.976 135.253L261.057 134.267C260.705 136.379 260.365 138.008 260.042 139.191L265.831 140.769ZM266.976 135.253C267.366 132.911 267.508 130.695 267.37 128.62L261.383 129.02C261.485 130.545 261.387 132.289 261.057 134.267L266.976 135.253ZM267.37 128.62C267.29 127.429 266.993 126.05 266.089 124.921C265.073 123.65 263.639 123.12 262.216 123.12V129.12C262.205 129.12 262.073 129.117 261.883 129.034C261.681 128.944 261.515 128.808 261.404 128.669C261.304 128.544 261.291 128.471 261.309 128.53C261.328 128.591 261.365 128.743 261.383 129.02L267.37 128.62ZM262.216 123.12C259.777 123.12 257.529 124.711 255.669 126.447L259.763 130.833C260.556 130.093 261.186 129.631 261.657 129.368C262.141 129.096 262.304 129.12 262.216 129.12V123.12ZM255.675 126.442C253.786 128.196 251.791 130.597 249.688 133.566L254.584 137.034C256.562 134.243 258.287 132.204 259.758 130.838L255.675 126.442ZM249.724 133.517C247.588 136.407 245.476 139.766 243.386 143.578L248.647 146.462C250.636 142.834 252.605 139.713 254.549 137.083L249.724 133.517ZM243.369 143.608C241.405 147.292 239.509 151.269 237.679 155.538L243.194 157.902C244.964 153.771 246.788 149.948 248.663 146.432L243.369 143.608ZM237.679 155.538C235.841 159.827 234.246 164.121 232.894 168.421L238.618 170.219C239.907 166.119 241.432 162.013 243.194 157.902L237.679 155.538ZM238.756 169.304L238.576 136.544L232.576 136.576L232.756 169.336L238.756 169.304ZM238.154 138.095C241.414 132.623 245.071 127.691 249.123 123.292L244.71 119.228C240.361 123.949 236.459 129.217 232.999 135.025L238.154 138.095ZM249.094 123.323C253.264 118.922 257.432 115.511 261.59 113.039L258.523 107.881C253.801 110.689 249.209 114.478 244.739 119.197L249.094 123.323ZM261.61 113.026C265.858 110.455 269.582 109.32 272.836 109.32V103.32C268.171 103.32 263.375 104.945 258.503 107.893L261.61 113.026ZM272.836 109.32C274.795 109.32 276.616 109.628 278.318 110.229L280.315 104.571C277.937 103.732 275.438 103.32 272.836 103.32V109.32ZM278.318 110.229C279.422 110.619 280.439 111.485 281.261 113.311L286.732 110.849C285.394 107.875 283.291 105.621 280.315 104.571L278.318 110.229ZM281.313 113.422C282.158 115.112 282.673 118.192 282.44 123.097L288.433 123.383C288.679 118.208 288.234 113.848 286.68 110.738L281.313 113.422ZM282.437 123.167C282.325 127.756 281.248 134.284 279.106 142.852L284.927 144.308C287.105 135.596 288.307 128.564 288.436 123.313L282.437 123.167ZM279.106 142.852L271.726 172.372L277.547 173.828L284.927 144.308L279.106 142.852ZM271.719 172.4C271.059 175.151 270.17 177.145 269.157 178.526L273.996 182.074C275.623 179.855 276.774 177.049 277.554 173.8L271.719 172.4ZM269.157 178.526C268.694 179.157 267.414 180 264.016 180V186C268.058 186 271.819 185.043 273.996 182.074L269.157 178.526ZM223.516 180C220.522 180 219.133 179.048 218.381 177.732L213.172 180.708C215.3 184.432 219.071 186 223.516 186V180ZM218.381 177.732C217.479 176.153 217.167 173.751 218.137 170.088L212.336 168.552C211.146 173.049 211.194 177.247 213.172 180.708L218.381 177.732ZM218.147 170.045L231.467 116.585L225.645 115.135L212.325 168.595L218.147 170.045ZM231.473 116.564C232.229 113.431 233.341 111.858 234.396 111.132L230.997 106.188C228.212 108.102 226.564 111.329 225.64 115.156L231.473 116.564ZM234.396 111.132C235.64 110.277 237.607 109.68 240.616 109.68V103.68C236.906 103.68 233.593 104.403 230.997 106.188L234.396 111.132ZM240.616 109.68C243.487 109.68 244.676 110.534 245.257 111.484L250.376 108.356C248.317 104.986 244.705 103.68 240.616 103.68V109.68ZM245.257 111.484C245.969 112.65 246.323 114.754 245.441 118.393L251.272 119.807C252.31 115.526 252.304 111.51 250.376 108.356L245.257 111.484ZM245.446 118.372L231.946 172.372L237.767 173.828L251.267 119.828L245.446 118.372ZM231.939 172.4C231.299 175.066 230.335 176.99 229.169 178.335L233.703 182.265C235.658 180.01 236.973 177.134 237.774 173.8L231.939 172.4ZM229.094 178.426C228.512 179.153 227.04 180 223.516 180V186C227.673 186 231.48 185.047 233.779 182.174L229.094 178.426ZM338.656 180.3L336.992 182.796L337.029 182.821L337.066 182.844L338.656 180.3ZM332.896 170.4L329.943 170.93L329.95 170.966L329.957 171.003L332.896 170.4ZM334.876 150.78L337.781 151.527L337.784 151.518L337.786 151.509L334.876 150.78ZM359.536 52.32L362.446 53.0489L362.45 53.0345L362.453 53.0201L359.536 52.32ZM363.316 46.02L364.98 48.5161L365.036 48.4789L365.09 48.4392L363.316 46.02ZM378.256 46.92L380.656 45.12L380.656 45.12L378.256 46.92ZM378.976 55.56L376.066 54.8324L376.065 54.8349L378.976 55.56ZM354.136 155.28L357.003 156.162L357.027 156.084L357.047 156.005L354.136 155.28ZM353.056 161.04L350.072 160.726L350.072 160.726L353.056 161.04ZM357.736 160.68L355.404 158.792L355.376 158.827L355.35 158.862L357.736 160.68ZM362.956 152.76L365.616 154.148L365.64 154.101L365.662 154.054L362.956 152.76ZM378.796 146.64L376.506 148.578L376.506 148.578L378.796 146.64ZM379.876 158.16L382.739 159.055L382.747 159.031L382.754 159.006L379.876 158.16ZM376.096 164.64L373.753 162.766L373.733 162.792L373.713 162.818L376.096 164.64ZM361.876 178.5L363.495 181.026L363.503 181.021L363.511 181.015L361.876 178.5ZM297.616 172.56L294.906 173.846L294.919 173.874L294.933 173.902L297.616 172.56ZM297.076 143.58L294.165 142.852L294.162 142.866L297.076 143.58ZM305.536 123.78L303.056 122.092L303.052 122.098L303.048 122.103L305.536 123.78ZM318.856 110.82L317.321 108.242L317.321 108.242L318.856 110.82ZM344.596 111.18L341.933 112.561L341.964 112.621L341.997 112.679L344.596 111.18ZM346.396 124.5L349.379 124.817L349.38 124.811L346.396 124.5ZM342.436 144.48L345.329 145.273L345.332 145.262L345.335 145.25L342.436 144.48ZM335.776 164.46L332.998 163.326L332.992 163.341L332.987 163.356L335.776 164.46ZM327.496 178.14L325.336 176.058L325.335 176.059L327.496 178.14ZM330.016 157.44L332.424 159.229L332.424 159.229L330.016 157.44ZM337.396 140.16L334.495 139.397L334.489 139.42L334.483 139.444L337.396 140.16ZM338.296 129.36L335.371 130.025L335.371 130.025L338.296 129.36ZM324.076 131.52L326.432 133.377L326.446 133.36L326.459 133.342L324.076 131.52ZM316.876 147.9L319.791 148.611L319.792 148.604L316.876 147.9ZM315.796 159.6L312.837 160.093L312.849 160.166L312.864 160.237L315.796 159.6ZM348.556 180C345.343 180 342.604 179.23 340.246 177.756L337.066 182.844C340.468 184.97 344.329 186 348.556 186V180ZM340.32 177.804C338.315 176.467 336.697 174.003 335.835 169.797L329.957 171.003C331.014 176.157 333.237 180.293 336.992 182.796L340.32 177.804ZM335.849 169.87C335.124 165.833 335.655 159.798 337.781 151.527L331.97 150.033C329.777 158.562 328.988 165.607 329.943 170.93L335.849 169.87ZM337.786 151.509L362.446 53.0489L356.626 51.5911L331.966 150.051L337.786 151.509ZM362.453 53.0201C363.072 50.4431 364.033 49.1474 364.98 48.5161L361.652 43.5238C358.999 45.2926 357.44 48.1969 356.619 51.6199L362.453 53.0201ZM365.09 48.4392C366.19 47.6326 367.997 47.04 370.876 47.04V41.04C367.274 41.04 364.042 41.7674 361.542 43.6008L365.09 48.4392ZM370.876 47.04C373.858 47.04 375.205 47.8526 375.856 48.72L380.656 45.12C378.426 42.1474 374.854 41.04 370.876 41.04V47.04ZM375.856 48.72C376.484 49.5568 376.946 51.3101 376.066 54.8324L381.886 56.2876C382.926 52.1299 382.908 48.1232 380.656 45.12L375.856 48.72ZM376.065 54.8349L351.225 154.555L357.047 156.005L381.887 56.2851L376.065 54.8349ZM351.269 154.398C350.714 156.2 350.325 158.324 350.072 160.726L356.039 161.354C356.267 159.196 356.598 157.48 357.003 156.162L351.269 154.398ZM350.072 160.726C349.943 161.952 349.906 163.254 350.2 164.368C350.351 164.945 350.653 165.715 351.306 166.368C352.037 167.099 352.988 167.46 353.956 167.46V161.46C354.196 161.46 354.486 161.502 354.791 161.625C355.098 161.749 355.352 161.929 355.549 162.125C355.916 162.493 356 162.835 356.002 162.842C356.009 162.867 355.982 162.769 355.977 162.484C355.972 162.212 355.988 161.84 356.039 161.354L350.072 160.726ZM353.956 167.46C355.035 167.46 355.853 166.951 356.212 166.708C356.666 166.4 357.091 166.017 357.472 165.636C358.243 164.865 359.133 163.797 360.122 162.498L355.35 158.862C354.419 160.083 353.719 160.905 353.23 161.394C353.113 161.511 353.02 161.597 352.949 161.657C352.877 161.72 352.844 161.742 352.847 161.74C352.85 161.738 352.869 161.726 352.902 161.707C352.935 161.688 352.992 161.659 353.07 161.627C353.208 161.57 353.521 161.46 353.956 161.46V167.46ZM360.068 162.568C362.228 159.899 364.08 157.092 365.616 154.148L360.296 151.372C358.952 153.948 357.324 156.421 355.404 158.792L360.068 162.568ZM365.662 154.054C366.867 151.536 368.142 149.823 369.408 148.738L365.504 144.182C363.41 145.977 361.685 148.464 360.25 151.466L365.662 154.054ZM369.408 148.738C370.527 147.779 371.808 147.3 373.396 147.3V141.3C370.424 141.3 367.745 142.261 365.504 144.182L369.408 148.738ZM373.396 147.3C374.908 147.3 375.826 147.775 376.506 148.578L381.086 144.702C379.126 142.385 376.444 141.3 373.396 141.3V147.3ZM376.506 148.578C377.314 149.533 377.776 150.742 377.776 152.4H383.776C383.776 149.498 382.918 146.867 381.086 144.702L376.506 148.578ZM377.776 152.4C377.776 153.867 377.531 155.5 376.998 157.313L382.754 159.006C383.421 156.74 383.776 154.533 383.776 152.4H377.776ZM377.013 157.265C376.566 158.693 375.551 160.519 373.753 162.766L378.439 166.514C380.481 163.961 381.985 161.467 382.739 159.055L377.013 157.265ZM373.713 162.818C369.174 168.754 364.674 173.103 360.241 175.985L363.511 181.015C368.678 177.657 373.658 172.766 378.479 166.462L373.713 162.818ZM360.257 175.974C355.907 178.763 352.024 180 348.556 180V186C353.488 186 358.485 184.237 363.495 181.026L360.257 175.974ZM315.616 180C311.765 180 308.68 179.215 306.231 177.795C303.798 176.384 301.81 174.241 300.299 171.218L294.933 173.902C296.902 177.839 299.654 180.916 303.221 182.985C306.772 185.045 310.947 186 315.616 186V180ZM300.326 171.274C297.395 165.097 297.061 156.244 299.99 144.294L294.162 142.866C291.091 155.396 291.117 165.863 294.906 173.846L300.326 171.274ZM299.986 144.308C301.837 136.904 304.532 130.638 308.024 125.457L303.048 122.103C299.1 127.962 296.155 134.896 294.166 142.852L299.986 144.308ZM308.016 125.468C311.649 120.132 315.783 116.14 320.39 113.398L317.321 108.242C311.849 111.5 307.103 116.148 303.056 122.092L308.016 125.468ZM320.39 113.398C324.996 110.656 329.75 109.32 334.696 109.32V103.32C328.602 103.32 322.795 104.984 317.321 108.242L320.39 113.398ZM334.696 109.32C338.947 109.32 340.948 110.661 341.933 112.561L347.259 109.799C344.884 105.219 340.285 103.32 334.696 103.32V109.32ZM341.997 112.679C343.342 115.009 343.983 118.706 343.412 124.189L349.38 124.811C350.009 118.774 349.45 113.591 347.194 109.681L341.997 112.679ZM343.413 124.183C342.834 129.623 341.551 136.124 339.536 143.71L345.335 145.25C347.401 137.476 348.758 130.657 349.379 124.817L343.413 124.183ZM339.543 143.687C337.528 151.035 335.345 157.578 332.998 163.326L338.553 165.594C341.007 159.582 343.264 152.805 345.329 145.273L339.543 143.687ZM332.987 163.356C330.806 168.865 328.232 173.055 325.336 176.058L329.655 180.222C333.24 176.505 336.186 171.575 338.565 165.564L332.987 163.356ZM325.335 176.059C322.821 178.669 319.662 180 315.616 180V186C321.17 186 325.93 184.091 329.657 180.221L325.335 176.059ZM320.116 166.74C324.95 166.74 329.034 163.793 332.424 159.229L327.608 155.651C324.758 159.487 322.242 160.74 320.116 160.74V166.74ZM332.424 159.229C335.863 154.6 338.452 148.427 340.309 140.876L334.483 139.444C332.739 146.533 330.409 151.88 327.608 155.651L332.424 159.229ZM340.297 140.923C341.541 136.195 341.981 132.036 341.221 128.695L335.371 130.025C335.811 131.964 335.65 135.005 334.495 139.397L340.297 140.923ZM341.221 128.695C340.843 127.031 340.143 125.426 338.885 124.222C337.562 122.957 335.899 122.4 334.156 122.4V128.4C334.573 128.4 334.68 128.503 334.737 128.558C334.859 128.674 335.149 129.049 335.371 130.025L341.221 128.695ZM334.156 122.4C329.269 122.4 325.125 125.209 321.693 129.698L326.459 133.342C329.267 129.671 331.843 128.4 334.156 128.4V122.4ZM321.719 129.663C318.244 134.074 315.701 139.98 313.96 147.196L319.792 148.604C321.41 141.9 323.668 136.886 326.432 133.377L321.719 129.663ZM313.961 147.189C312.726 152.256 312.258 156.621 312.837 160.093L318.755 159.107C318.374 156.819 318.626 153.384 319.791 148.611L313.961 147.189ZM312.864 160.237C313.241 161.968 313.954 163.629 315.25 164.871C316.609 166.174 318.322 166.74 320.116 166.74V160.74C319.63 160.74 319.482 160.616 319.402 160.539C319.258 160.401 318.951 159.992 318.727 158.963L312.864 160.237ZM400.219 179.04L398.393 181.421L398.437 181.454L398.483 181.487L400.219 179.04ZM392.839 166.44L389.904 167.064L389.911 167.094L389.918 167.124L392.839 166.44ZM394.279 144.66L391.368 143.932L391.366 143.942L391.364 143.951L394.279 144.66ZM402.739 124.5L400.219 122.872L400.219 122.872L402.739 124.5ZM415.699 111.18L417.305 113.714L417.327 113.7L417.349 113.686L415.699 111.18ZM444.319 135.66L446.613 137.592L446.613 137.592L444.319 135.66ZM428.119 148.62L429.622 151.216L429.629 151.212L429.636 151.208L428.119 148.62ZM403.639 158.88L400.675 158.416L399.935 163.141L404.511 161.75L403.639 158.88ZM405.979 143.94L405.275 141.024L403.325 141.494L403.015 143.476L405.979 143.94ZM416.599 139.8L415.223 137.134L415.205 137.143L415.187 137.153L416.599 139.8ZM425.959 133.5L427.971 135.725L427.977 135.72L425.959 133.5ZM429.559 125.76L426.875 127.102L427.093 127.537L427.437 127.881L429.559 125.76ZM422.539 129L420.196 127.126L420.19 127.133L420.184 127.141L422.539 129ZM417.679 137.82L414.893 136.706L414.893 136.706L417.679 137.82ZM414.079 148.98L416.969 149.783L416.98 149.745L416.989 149.708L414.079 148.98ZM412.639 159.6L409.65 159.86L409.656 159.924L409.664 159.988L412.639 159.6ZM426.319 159.6L428.07 162.036L428.07 162.036L426.319 159.6ZM439.099 147.36L441.366 149.325L441.391 149.296L441.415 149.267L439.099 147.36ZM445.759 143.76L445.387 140.783L445.379 140.784L445.371 140.785L445.759 143.76ZM453.679 145.92L455.571 143.592L455.525 143.555L455.479 143.52L453.679 145.92ZM457.099 152.22L460.071 151.815L460.071 151.815L457.099 152.22ZM454.579 160.14L456.839 162.113L456.898 162.045L456.953 161.974L454.579 160.14ZM434.239 177.24L432.79 174.613L432.79 174.613L434.239 177.24ZM412.999 180C408.786 180 405.14 178.854 401.955 176.593L398.483 181.487C402.737 184.506 407.611 186 412.999 186V180ZM402.044 176.659C399.132 174.427 396.966 170.912 395.76 165.756L389.918 167.124C391.351 173.248 394.105 178.133 398.393 181.421L402.044 176.659ZM395.773 165.816C394.706 160.799 395.085 154.04 397.194 145.369L391.364 143.951C389.153 153.04 388.572 160.801 389.904 167.064L395.773 165.816ZM397.189 145.388C399.041 137.979 401.743 131.572 405.259 126.128L400.219 122.872C396.295 128.948 393.356 135.981 391.368 143.932L397.189 145.388ZM405.259 126.128C408.785 120.668 412.811 116.564 417.305 113.714L414.092 108.646C408.746 112.036 404.133 116.812 400.219 122.872L405.259 126.128ZM417.349 113.686C421.813 110.745 426.465 109.32 431.359 109.32V103.32C425.212 103.32 419.424 105.135 414.049 108.674L417.349 113.686ZM431.359 109.32C436.251 109.32 439.978 110.735 442.814 113.376L446.903 108.984C442.779 105.145 437.507 103.32 431.359 103.32V109.32ZM442.814 113.376C445.753 116.112 447.079 119.122 447.079 122.52H453.079C453.079 117.278 450.924 112.728 446.903 108.984L442.814 113.376ZM447.079 122.52C447.079 125.767 445.597 129.485 442.024 133.728L446.613 137.592C450.721 132.715 453.079 127.673 453.079 122.52H447.079ZM442.024 133.728C438.466 137.952 433.364 142.068 426.602 146.032L429.636 151.208C436.793 147.012 442.491 142.488 446.613 137.592L442.024 133.728ZM426.616 146.024C420.018 149.844 412.079 153.18 402.767 156.01L404.511 161.75C414.158 158.82 422.54 155.316 429.622 151.216L426.616 146.024ZM406.603 159.344L408.943 144.404L403.015 143.476L400.675 158.416L406.603 159.344ZM406.683 146.856C410.441 145.949 414.217 144.47 418.011 142.447L415.187 137.153C411.78 138.97 408.477 140.251 405.275 141.024L406.683 146.856ZM417.975 142.466C421.874 140.453 425.221 138.213 427.971 135.725L423.946 131.275C421.657 133.347 418.763 135.307 415.223 137.134L417.975 142.466ZM427.977 135.72C430.802 133.151 432.919 130.178 432.919 126.84H426.919C426.919 127.582 426.395 129.049 423.941 131.28L427.977 135.72ZM432.919 126.84C432.919 125.898 432.681 124.64 431.68 123.639L427.437 127.881C427.191 127.635 427.052 127.368 426.983 127.159C426.918 126.964 426.919 126.841 426.919 126.84H432.919ZM432.242 124.418C431.303 122.539 429.352 122.4 428.659 122.4V128.4C428.657 128.4 428.61 128.4 428.529 128.388C428.448 128.375 428.307 128.346 428.13 128.275C427.744 128.121 427.208 127.767 426.875 127.102L432.242 124.418ZM428.659 122.4C425.249 122.4 422.433 124.329 420.196 127.126L424.881 130.874C426.484 128.871 427.749 128.4 428.659 128.4V122.4ZM420.184 127.141C418.157 129.708 416.407 132.922 414.893 136.706L420.464 138.934C421.831 135.518 423.32 132.851 424.893 130.859L420.184 127.141ZM414.893 136.706C413.402 140.434 412.161 144.284 411.168 148.252L416.989 149.708C417.917 145.996 419.076 142.406 420.464 138.934L414.893 136.706ZM411.188 148.177C409.944 152.656 409.366 156.59 409.65 159.86L415.627 159.34C415.432 157.09 415.813 153.944 416.969 149.783L411.188 148.177ZM409.664 159.988C409.887 161.696 410.436 163.411 411.638 164.728C412.927 166.14 414.64 166.74 416.419 166.74V160.74C416.199 160.74 416.105 160.705 416.09 160.699C416.085 160.697 416.086 160.7 416.069 160.682C416.012 160.619 415.751 160.264 415.614 159.212L409.664 159.988ZM416.419 166.74C420.115 166.74 424.045 164.929 428.07 162.036L424.568 157.164C420.912 159.791 418.242 160.74 416.419 160.74V166.74ZM428.07 162.036C432.17 159.089 436.602 154.821 441.366 149.325L436.832 145.395C432.235 150.699 428.148 154.591 424.568 157.164L428.07 162.036ZM441.415 149.267C442.583 147.848 444.097 147.002 446.147 146.735L445.371 140.785C441.9 141.238 438.974 142.792 436.783 145.453L441.415 149.267ZM446.131 146.737C448.211 146.477 450.077 146.969 451.879 148.32L455.479 143.52C452.48 141.271 449.066 140.323 445.387 140.783L446.131 146.737ZM451.787 148.248C453.068 149.289 453.861 150.677 454.126 152.625L460.071 151.815C459.617 148.483 458.13 145.671 455.571 143.592L451.787 148.248ZM454.126 152.625C454.352 154.279 453.885 156.132 452.205 158.306L456.953 161.974C459.353 158.868 460.566 155.441 460.071 151.815L454.126 152.625ZM452.319 158.167C445.891 165.53 439.375 170.98 432.79 174.613L435.688 179.867C443.023 175.82 450.066 169.87 456.839 162.113L452.319 158.167ZM432.79 174.613C426.226 178.234 419.641 180 412.999 180V186C420.757 186 428.331 183.926 435.688 179.867L432.79 174.613ZM464.683 179.22L461.925 180.402L461.949 180.456L461.974 180.51L464.683 179.22ZM464.323 169.5L461.409 168.786L461.398 168.832L461.388 168.877L464.323 169.5ZM477.643 115.14L480.556 115.854L480.561 115.834L480.566 115.815L477.643 115.14ZM481.783 108.66L483.304 111.246L483.359 111.213L483.412 111.179L481.783 108.66ZM496.903 109.92L494.471 111.676L494.502 111.72L494.535 111.762L496.903 109.92ZM498.163 118.38L501.07 119.121L501.074 119.103L501.079 119.084L498.163 118.38ZM484.303 172.74L487.207 173.493L487.21 173.481L484.303 172.74ZM481.063 180.3L478.643 178.526L481.063 180.3ZM484.303 172.02L481.309 171.828L487.199 172.803L484.303 172.02ZM486.643 135.48L484.038 133.992L483.693 134.595L483.649 135.288L486.643 135.48ZM497.083 120.18L499.387 122.101L499.387 122.101L497.083 120.18ZM507.883 110.1L509.547 112.596L509.556 112.59L509.565 112.584L507.883 110.1ZM535.603 122.88L538.513 122.152L538.509 122.138L538.506 122.123L535.603 122.88ZM534.523 129.54L532.004 127.91L531.991 127.93L531.979 127.95L534.523 129.54ZM527.863 133.86L528.513 136.789L528.615 136.766L528.715 136.736L527.863 133.86ZM519.583 133.14L518.08 135.736L518.132 135.767L518.185 135.795L519.583 133.14ZM515.083 126.84L517.993 126.112L517.957 125.97L517.908 125.831L515.083 126.84ZM507.883 127.2L509.934 129.389L509.97 129.356L510.004 129.321L507.883 127.2ZM501.583 134.76L499.129 133.034L499.107 133.064L499.087 133.096L501.583 134.76ZM495.103 145.74L497.754 147.144L497.754 147.144L495.103 145.74ZM488.983 158.7L491.736 159.891L491.742 159.877L491.748 159.864L488.983 158.7ZM472.963 180C469.095 180 467.849 178.892 467.391 177.93L461.974 180.51C463.916 184.588 468.19 186 472.963 186V180ZM467.44 178.038C466.695 176.299 466.488 173.751 467.257 170.123L461.388 168.877C460.478 173.169 460.511 177.101 461.925 180.402L467.44 178.038ZM467.236 170.214L480.556 115.854L474.729 114.426L461.409 168.786L467.236 170.214ZM480.566 115.815C481.168 113.204 482.197 111.897 483.304 111.246L480.262 106.074C477.288 107.823 475.557 110.836 474.719 114.465L480.566 115.815ZM483.412 111.179C484.864 110.239 486.785 109.68 489.343 109.68V103.68C485.9 103.68 482.781 104.441 480.153 106.141L483.412 111.179ZM489.343 109.68C492.184 109.68 493.641 110.528 494.471 111.676L499.335 108.164C497.044 104.992 493.462 103.68 489.343 103.68V109.68ZM494.535 111.762C495.491 112.991 495.943 114.788 495.246 117.676L501.079 119.084C502.062 115.012 501.675 111.169 499.271 108.078L494.535 111.762ZM495.256 117.639L481.396 171.999L487.21 173.481L501.07 119.121L495.256 117.639ZM481.399 171.987C480.611 175.025 479.656 177.146 478.643 178.526L483.482 182.074C485.11 179.854 486.314 176.935 487.207 173.493L481.399 171.987ZM478.643 178.526C478.221 179.102 476.841 180 472.963 180V186C477.244 186 481.264 185.098 483.482 182.074L478.643 178.526ZM487.297 172.212L489.637 135.672L483.649 135.288L481.309 171.828L487.297 172.212ZM489.247 136.968C492.537 131.211 495.92 126.262 499.387 122.101L494.778 118.259C491.046 122.738 487.468 127.989 484.038 133.992L489.247 136.968ZM499.387 122.101C502.855 117.94 506.246 114.796 509.547 112.596L506.219 107.604C502.319 110.204 498.511 113.78 494.778 118.259L499.387 122.101ZM509.565 112.584C512.912 110.316 515.996 109.32 518.863 109.32V103.32C514.529 103.32 510.293 104.844 506.2 107.616L509.565 112.584ZM518.863 109.32C522.261 109.32 524.953 110.421 527.148 112.593C529.419 114.84 531.338 118.417 532.7 123.637L538.506 122.123C536.987 116.303 534.676 111.6 531.367 108.327C527.983 104.979 523.745 103.32 518.863 103.32V109.32ZM532.692 123.608C533.095 125.218 532.863 126.582 532.004 127.91L537.041 131.17C538.822 128.418 539.31 125.342 538.513 122.152L532.692 123.608ZM531.979 127.95C531.319 129.005 529.885 130.132 527.01 130.984L528.715 136.736C532.321 135.668 535.326 133.915 537.067 131.13L531.979 127.95ZM527.212 130.931C524.461 131.543 522.468 131.269 520.98 130.485L518.185 135.795C521.257 137.411 524.784 137.617 528.513 136.789L527.212 130.931ZM521.086 130.544C519.6 129.684 518.544 128.314 517.993 126.112L512.172 127.568C513.062 131.126 515.005 133.956 518.08 135.736L521.086 130.544ZM517.908 125.831C517.273 124.053 515.833 121.32 512.743 121.32V127.32C512.528 127.32 512.311 127.269 512.125 127.179C511.949 127.094 511.862 127.005 511.849 126.991C511.84 126.981 511.886 127.029 511.968 127.178C512.049 127.326 512.148 127.544 512.257 127.849L517.908 125.831ZM512.743 121.32C511.362 121.32 510.094 121.815 509.008 122.459C507.911 123.11 506.828 124.012 505.761 125.079L510.004 129.321C510.857 128.468 511.545 127.93 512.067 127.621C512.601 127.305 512.803 127.32 512.743 127.32V121.32ZM505.831 125.011C503.707 127.002 501.474 129.701 499.129 133.034L504.036 136.486C506.251 133.339 508.218 130.998 509.934 129.389L505.831 125.011ZM499.087 133.096C496.861 136.434 494.65 140.183 492.451 144.336L497.754 147.144C499.875 143.137 501.984 139.566 504.079 136.424L499.087 133.096ZM492.451 144.336C490.247 148.5 488.17 152.9 486.218 157.536L491.748 159.864C493.636 155.38 495.638 151.14 497.754 147.144L492.451 144.336ZM486.229 157.509C484.255 162.075 482.646 166.651 481.407 171.237L487.199 172.803C488.359 168.509 489.871 164.205 491.736 159.891L486.229 157.509ZM546.481 180.3L544.817 182.796L544.854 182.821L544.891 182.844L546.481 180.3ZM540.721 170.4L537.769 170.93L537.775 170.966L537.783 171.003L540.721 170.4ZM542.701 150.78L545.607 151.527L545.609 151.518L545.612 151.509L542.701 150.78ZM567.361 52.32L570.272 53.0489L570.275 53.0345L570.279 53.0201L567.361 52.32ZM571.141 46.02L572.806 48.5161L572.861 48.4789L572.915 48.4392L571.141 46.02ZM586.261 46.92L588.59 45.0282L588.59 45.0282L586.261 46.92ZM587.161 55.56L584.251 54.8324L584.25 54.8349L587.161 55.56ZM562.321 155.28L559.41 154.555L559.404 154.58L559.398 154.605L562.321 155.28ZM561.241 161.04L558.278 160.572L558.266 160.649L558.258 160.726L561.241 161.04ZM565.561 160.68L563.23 158.792L563.202 158.827L563.175 158.862L565.561 160.68ZM570.781 152.76L573.441 154.148L573.465 154.101L573.488 154.054L570.781 152.76ZM586.621 146.64L588.912 144.702L588.912 144.702L586.621 146.64ZM587.701 158.16L590.565 159.055L590.572 159.031L590.58 159.006L587.701 158.16ZM583.921 164.64L581.579 162.766L581.558 162.792L581.538 162.818L583.921 164.64ZM569.701 178.5L571.32 181.026L571.328 181.021L571.336 181.015L569.701 178.5ZM556.381 180C553.168 180 550.43 179.23 548.071 177.756L544.891 182.844C548.293 184.97 552.155 186 556.381 186V180ZM548.146 177.804C546.14 176.467 544.523 174.003 543.66 169.797L537.783 171.003C538.84 176.157 541.062 180.293 544.817 182.796L548.146 177.804ZM543.674 169.87C542.95 165.833 543.48 159.798 545.607 151.527L539.796 150.033C537.603 158.562 536.813 165.607 537.769 170.93L543.674 169.87ZM545.612 151.509L570.272 53.0489L564.451 51.5911L539.791 150.051L545.612 151.509ZM570.279 53.0201C570.897 50.4431 571.859 49.1474 572.806 48.5161L569.477 43.5238C566.824 45.2926 565.266 48.1969 564.444 51.6199L570.279 53.0201ZM572.915 48.4392C574.015 47.6326 575.823 47.04 578.701 47.04V41.04C575.1 41.04 571.867 41.7674 569.367 43.6008L572.915 48.4392ZM578.701 47.04C581.663 47.04 583.148 47.8453 583.933 48.8118L588.59 45.0282C586.255 42.1547 582.7 41.04 578.701 41.04V47.04ZM583.933 48.8118C584.612 49.6468 585.121 51.354 584.251 54.8324L590.072 56.2876C591.122 52.086 591.031 48.0332 588.59 45.0282L583.933 48.8118ZM584.25 54.8349L559.41 154.555L565.232 156.005L590.072 56.2851L584.25 54.8349ZM559.398 154.605C559.017 156.256 558.645 158.25 558.278 160.572L564.205 161.508C564.558 159.27 564.906 157.424 565.245 155.955L559.398 154.605ZM558.258 160.726C558.132 161.924 558.079 163.1 558.233 164.073C558.307 164.54 558.471 165.263 558.934 165.94C559.493 166.757 560.48 167.46 561.781 167.46V161.46C562.204 161.46 562.656 161.567 563.073 161.807C563.474 162.038 563.733 162.328 563.886 162.552C564.155 162.945 564.176 163.24 564.16 163.137C564.133 162.97 564.111 162.436 564.225 161.354L558.258 160.726ZM561.781 167.46C562.861 167.46 563.679 166.951 564.038 166.708C564.491 166.4 564.917 166.017 565.298 165.636C566.069 164.865 566.958 163.797 567.948 162.498L563.175 158.862C562.244 160.083 561.544 160.905 561.055 161.394C560.938 161.511 560.845 161.597 560.775 161.657C560.703 161.72 560.669 161.742 560.673 161.74C560.675 161.738 560.694 161.726 560.728 161.707C560.761 161.688 560.817 161.659 560.895 161.627C561.034 161.57 561.346 161.46 561.781 161.46V167.46ZM567.893 162.568C570.054 159.899 571.905 157.092 573.441 154.148L568.122 151.372C566.778 153.948 565.149 156.421 563.23 158.792L567.893 162.568ZM573.488 154.054C574.692 151.536 575.968 149.823 577.234 148.738L573.329 144.182C571.235 145.977 569.511 148.464 568.075 151.466L573.488 154.054ZM577.234 148.738C578.352 147.779 579.634 147.3 581.221 147.3V141.3C578.249 141.3 575.571 142.261 573.329 144.182L577.234 148.738ZM581.221 147.3C582.734 147.3 583.652 147.775 584.331 148.578L588.912 144.702C586.951 142.385 584.269 141.3 581.221 141.3V147.3ZM584.331 148.578C585.139 149.533 585.601 150.742 585.601 152.4H591.601C591.601 149.498 590.744 146.867 588.912 144.702L584.331 148.578ZM585.601 152.4C585.601 153.867 585.357 155.5 584.823 157.313L590.58 159.006C591.246 156.74 591.601 154.533 591.601 152.4H585.601ZM584.838 157.265C584.392 158.693 583.376 160.519 581.579 162.766L586.264 166.514C588.307 163.961 589.811 161.467 590.565 159.055L584.838 157.265ZM581.538 162.818C576.999 168.754 572.499 173.103 568.066 175.985L571.336 181.015C576.504 177.657 581.484 172.766 586.304 166.462L581.538 162.818ZM568.082 175.974C563.733 178.763 559.849 180 556.381 180V186C561.313 186 566.31 184.237 571.32 181.026L568.082 175.974ZM607.092 178.32L605.048 180.516L605.069 180.535L605.09 180.554L607.092 178.32ZM600.612 164.64L603.582 164.216L603.582 164.216L600.612 164.64ZM602.232 143.58L599.322 142.852L599.317 142.873L599.312 142.893L602.232 143.58ZM610.692 123.78L608.212 122.092L608.208 122.098L608.204 122.103L610.692 123.78ZM624.012 110.82L622.478 108.242L622.478 108.242L624.012 110.82ZM649.752 111.18L647.089 112.561L647.12 112.621L647.154 112.679L649.752 111.18ZM651.552 124.5L654.535 124.817L654.536 124.811L651.552 124.5ZM647.592 144.48L650.485 145.273L650.489 145.262L650.492 145.25L647.592 144.48ZM640.932 164.46L638.155 163.326L638.149 163.341L638.143 163.356L640.932 164.46ZM632.652 178.14L630.493 176.058L630.491 176.059L632.652 178.14ZM632.112 160.86L634.105 163.102L634.105 163.102L632.112 160.86ZM638.052 152.76L640.717 154.138L640.726 154.12L640.735 154.102L638.052 152.76ZM642.552 140.16L639.651 139.397L639.646 139.414L639.642 139.432L642.552 140.16ZM643.452 129.36L640.527 130.025L640.527 130.025L643.452 129.36ZM632.292 128.1L630.433 125.745L630.402 125.77L630.372 125.795L632.292 128.1ZM626.352 135.84L623.708 134.423L623.688 134.461L623.669 134.498L626.352 135.84ZM622.032 147.9L619.126 147.155L619.122 147.172L619.118 147.189L622.032 147.9ZM620.952 159.6L617.993 160.093L618.005 160.166L618.021 160.237L620.952 159.6ZM635.712 179.58L633.084 181.026L633.127 181.105L633.176 181.182L635.712 179.58ZM635.352 169.68L638.258 170.427L638.26 170.416L638.263 170.405L635.352 169.68ZM649.032 114.78L651.943 115.505L651.948 115.485L651.953 115.464L649.032 114.78ZM667.932 109.38L665.481 111.11L665.506 111.145L665.532 111.18L667.932 109.38ZM668.652 118.2L671.563 118.925L671.565 118.916L671.568 118.907L668.652 118.2ZM654.972 173.1L652.061 172.375L652.055 172.4L652.049 172.425L654.972 173.1ZM651.732 180.48L649.39 178.606L649.381 178.616L649.373 178.627L651.732 180.48ZM620.772 180C615.711 180 611.916 178.615 609.095 176.086L605.09 180.554C609.229 184.265 614.554 186 620.772 186V180ZM609.136 176.124C606.273 173.458 604.35 169.59 603.582 164.216L597.642 165.064C598.555 171.45 600.951 176.702 605.048 180.516L609.136 176.124ZM603.582 164.216C602.812 158.825 603.286 152.201 605.152 144.267L599.312 142.893C597.339 151.279 596.732 158.695 597.642 165.064L603.582 164.216ZM605.143 144.308C606.994 136.904 609.688 130.638 613.18 125.457L608.204 122.103C604.256 127.962 601.311 134.896 599.322 142.852L605.143 144.308ZM613.172 125.468C616.806 120.132 620.94 116.14 625.547 113.398L622.478 108.242C617.005 111.5 612.259 116.148 608.212 122.092L613.172 125.468ZM625.547 113.398C630.153 110.656 634.906 109.32 639.852 109.32V103.32C633.758 103.32 627.952 104.984 622.478 108.242L625.547 113.398ZM639.852 109.32C644.103 109.32 646.104 110.661 647.089 112.561L652.415 109.799C650.041 105.219 645.441 103.32 639.852 103.32V109.32ZM647.154 112.679C648.498 115.009 649.139 118.706 648.568 124.189L654.536 124.811C655.165 118.774 654.607 113.591 652.351 109.681L647.154 112.679ZM648.569 124.183C647.99 129.623 646.708 136.124 644.693 143.71L650.492 145.25C652.557 137.476 653.914 130.657 654.535 124.817L648.569 124.183ZM644.699 143.687C642.684 151.035 640.501 157.578 638.155 163.326L643.71 165.594C646.163 159.582 648.42 152.805 650.485 145.273L644.699 143.687ZM638.143 163.356C635.962 168.865 633.388 173.055 630.493 176.058L634.812 180.222C638.397 176.505 641.342 171.575 643.722 165.564L638.143 163.356ZM630.491 176.059C627.978 178.669 624.818 180 620.772 180V186C626.326 186 631.087 184.091 634.813 180.221L630.491 176.059ZM625.272 166.74C628.551 166.74 631.514 165.406 634.105 163.102L630.119 158.618C628.39 160.154 626.794 160.74 625.272 160.74V166.74ZM634.105 163.102C636.619 160.868 638.804 157.836 640.717 154.138L635.388 151.382C633.7 154.644 631.925 157.012 630.119 158.618L634.105 163.102ZM640.735 154.102C642.653 150.267 644.221 145.854 645.463 140.888L639.642 139.432C638.483 144.066 637.052 148.053 635.369 151.418L640.735 154.102ZM645.453 140.923C646.698 136.195 647.137 132.036 646.378 128.695L640.527 130.025C640.967 131.964 640.807 135.005 639.651 139.397L645.453 140.923ZM646.378 128.695C645.999 127.031 645.299 125.426 644.041 124.222C642.718 122.957 641.055 122.4 639.312 122.4V128.4C639.729 128.4 639.836 128.503 639.894 128.558C640.015 128.674 640.305 129.049 640.527 130.025L646.378 128.695ZM639.312 122.4C636.104 122.4 633.128 123.618 630.433 125.745L634.151 130.455C636.017 128.982 637.72 128.4 639.312 128.4V122.4ZM630.372 125.795C627.831 127.913 625.629 130.837 623.708 134.423L628.997 137.257C630.675 134.123 632.434 131.887 634.213 130.405L630.372 125.795ZM623.669 134.498C621.871 138.094 620.365 142.324 619.126 147.155L624.938 148.645C626.099 144.116 627.473 140.306 629.035 137.182L623.669 134.498ZM619.118 147.189C617.882 152.256 617.414 156.621 617.993 160.093L623.911 159.107C623.53 156.819 623.783 153.384 624.947 148.611L619.118 147.189ZM618.021 160.237C618.397 161.968 619.111 163.629 620.406 164.871C621.766 166.174 623.478 166.74 625.272 166.74V160.74C624.786 160.74 624.639 160.616 624.558 160.539C624.414 160.401 624.108 159.992 623.884 158.963L618.021 160.237ZM643.812 180C640.361 180 638.909 179.024 638.249 177.978L633.176 181.182C635.395 184.696 639.343 186 643.812 186V180ZM638.341 178.134C637.553 176.701 637.262 174.301 638.258 170.427L632.447 168.933C631.283 173.459 631.232 177.659 633.084 181.026L638.341 178.134ZM638.263 170.405L651.943 115.505L646.121 114.055L632.441 168.955L638.263 170.405ZM651.953 115.464C652.487 113.183 653.452 111.754 654.678 110.853C655.935 109.93 657.799 109.32 660.552 109.32V103.32C656.945 103.32 653.709 104.12 651.126 106.017C648.513 107.936 646.897 110.737 646.111 114.096L651.953 115.464ZM660.552 109.32C663.471 109.32 664.806 110.153 665.481 111.11L670.383 107.65C668.178 104.527 664.593 103.32 660.552 103.32V109.32ZM665.532 111.18C666.155 112.01 666.628 113.816 665.737 117.493L671.568 118.907C672.596 114.664 672.59 110.59 670.332 107.58L665.532 111.18ZM665.741 117.475L652.061 172.375L657.883 173.825L671.563 118.925L665.741 117.475ZM652.049 172.425C651.393 175.267 650.461 177.266 649.39 178.606L654.075 182.354C655.883 180.094 657.111 177.173 657.895 173.775L652.049 172.425ZM649.373 178.627C648.958 179.154 647.587 180 643.812 180V186C647.958 186 651.866 185.166 654.091 182.333L649.373 178.627ZM714.182 179.4L711.474 180.69L711.486 180.716L711.499 180.742L714.182 179.4ZM713.822 170.04L716.727 170.79L716.734 170.764L716.74 170.739L713.822 170.04ZM721.022 139.98L718.128 139.191L718.116 139.236L718.105 139.281L721.022 139.98ZM722.102 134.76L725.062 135.253L725.062 135.253L722.102 134.76ZM722.462 128.82L725.456 128.62L725.456 128.62L722.462 128.82ZM715.802 128.64L717.844 130.838L717.849 130.833L715.802 128.64ZM710.222 135.3L712.635 137.083L712.653 137.059L712.67 137.034L710.222 135.3ZM704.102 145.02L701.472 143.578L701.464 143.593L701.455 143.608L704.102 145.02ZM698.522 156.72L695.765 155.538L695.765 155.538L698.522 156.72ZM693.842 169.32L690.842 169.336L696.704 170.219L693.842 169.32ZM693.662 136.56L691.085 135.025L690.658 135.742L690.662 136.576L693.662 136.56ZM705.002 121.26L702.824 119.197L702.81 119.212L702.796 119.228L705.002 121.26ZM718.142 110.46L719.676 113.039L719.686 113.033L719.696 113.026L718.142 110.46ZM737.402 107.4L736.404 110.229L736.404 110.229L737.402 107.4ZM742.082 112.08L739.347 113.311L739.372 113.367L739.399 113.422L742.082 112.08ZM743.522 123.24L740.526 123.097L740.524 123.132L740.523 123.167L743.522 123.24ZM740.102 143.58L737.192 142.852L737.192 142.852L740.102 143.58ZM732.722 173.1L729.812 172.372L729.808 172.386L729.805 172.4L732.722 173.1ZM673.862 179.22L676.467 177.732L676.467 177.732L673.862 179.22ZM673.322 169.32L676.222 170.088L676.228 170.067L676.233 170.045L673.322 169.32ZM686.642 115.86L689.553 116.585L689.556 116.575L689.559 116.564L686.642 115.86ZM690.782 108.66L692.482 111.132L692.482 111.132L690.782 108.66ZM705.902 109.92L703.342 111.484L703.342 111.484L705.902 109.92ZM706.442 119.1L709.353 119.828L709.355 119.817L709.358 119.807L706.442 119.1ZM692.942 173.1L690.032 172.372L690.028 172.386L690.025 172.4L692.942 173.1ZM689.522 180.3L687.255 178.335L687.217 178.38L687.18 178.426L689.522 180.3ZM722.102 180C718.502 180 717.319 178.964 716.866 178.058L711.499 180.742C713.446 184.636 717.543 186 722.102 186V180ZM716.891 178.11C716.09 176.429 715.877 174.083 716.727 170.79L710.918 169.29C709.848 173.437 709.874 177.331 711.474 180.69L716.891 178.11ZM716.74 170.739L723.94 140.679L718.105 139.281L710.905 169.341L716.74 170.739ZM723.917 140.769C724.314 139.312 724.693 137.461 725.062 135.253L719.143 134.267C718.791 136.379 718.451 138.008 718.128 139.191L723.917 140.769ZM725.062 135.253C725.452 132.911 725.594 130.695 725.456 128.62L719.469 129.02C719.571 130.545 719.473 132.289 719.143 134.267L725.062 135.253ZM725.456 128.62C725.376 127.429 725.079 126.05 724.175 124.921C723.158 123.65 721.724 123.12 720.302 123.12V129.12C720.291 129.12 720.159 129.117 719.969 129.034C719.767 128.944 719.601 128.808 719.49 128.669C719.39 128.544 719.377 128.471 719.395 128.53C719.414 128.591 719.451 128.743 719.469 129.02L725.456 128.62ZM720.302 123.12C717.863 123.12 715.615 124.711 713.755 126.447L717.849 130.833C718.642 130.093 719.272 129.631 719.743 129.368C720.227 129.096 720.39 129.12 720.302 129.12V123.12ZM713.761 126.442C711.872 128.196 709.877 130.597 707.774 133.566L712.67 137.034C714.648 134.243 716.373 132.204 717.844 130.838L713.761 126.442ZM707.81 133.517C705.673 136.407 703.562 139.766 701.472 143.578L706.733 146.462C708.722 142.834 710.691 139.713 712.635 137.083L707.81 133.517ZM701.455 143.608C699.491 147.292 697.595 151.269 695.765 155.538L701.28 157.902C703.05 153.771 704.874 149.948 706.749 146.432L701.455 143.608ZM695.765 155.538C693.927 159.827 692.332 164.121 690.98 168.421L696.704 170.219C697.993 166.119 699.518 162.013 701.28 157.902L695.765 155.538ZM696.842 169.304L696.662 136.544L690.662 136.576L690.842 169.336L696.842 169.304ZM696.24 138.095C699.5 132.623 703.157 127.691 707.209 123.292L702.796 119.228C698.447 123.949 694.545 129.217 691.085 135.025L696.24 138.095ZM707.18 123.323C711.35 118.922 715.518 115.511 719.676 113.039L716.609 107.881C711.887 110.689 707.295 114.478 702.824 119.197L707.18 123.323ZM719.696 113.026C723.944 110.455 727.668 109.32 730.922 109.32V103.32C726.256 103.32 721.461 104.945 716.589 107.893L719.696 113.026ZM730.922 109.32C732.881 109.32 734.702 109.628 736.404 110.229L738.401 104.571C736.023 103.732 733.524 103.32 730.922 103.32V109.32ZM736.404 110.229C737.508 110.619 738.525 111.485 739.347 113.311L744.818 110.849C743.48 107.875 741.377 105.621 738.401 104.571L736.404 110.229ZM739.399 113.422C740.244 115.112 740.759 118.192 740.526 123.097L746.519 123.383C746.765 118.208 746.32 113.848 744.766 110.738L739.399 113.422ZM740.523 123.167C740.411 127.756 739.334 134.284 737.192 142.852L743.013 144.308C745.191 135.596 746.393 128.564 746.521 123.313L740.523 123.167ZM737.192 142.852L729.812 172.372L735.633 173.828L743.013 144.308L737.192 142.852ZM729.805 172.4C729.145 175.151 728.256 177.145 727.243 178.526L732.082 182.074C733.709 179.855 734.86 177.049 735.64 173.8L729.805 172.4ZM727.243 178.526C726.78 179.157 725.5 180 722.102 180V186C726.144 186 729.905 185.043 732.082 182.074L727.243 178.526ZM681.602 180C678.608 180 677.219 179.048 676.467 177.732L671.258 180.708C673.386 184.432 677.157 186 681.602 186V180ZM676.467 177.732C675.565 176.153 675.253 173.751 676.222 170.088L670.422 168.552C669.232 173.049 669.28 177.247 671.258 180.708L676.467 177.732ZM676.233 170.045L689.553 116.585L683.731 115.135L670.411 168.595L676.233 170.045ZM689.559 116.564C690.315 113.431 691.427 111.858 692.482 111.132L689.083 106.188C686.298 108.102 684.65 111.329 683.726 115.156L689.559 116.564ZM692.482 111.132C693.726 110.277 695.693 109.68 698.702 109.68V103.68C694.992 103.68 691.679 104.403 689.083 106.188L692.482 111.132ZM698.702 109.68C701.573 109.68 702.762 110.534 703.342 111.484L708.462 108.356C706.403 104.986 702.791 103.68 698.702 103.68V109.68ZM703.342 111.484C704.055 112.65 704.409 114.754 703.527 118.393L709.358 119.807C710.396 115.526 710.39 111.51 708.462 108.356L703.342 111.484ZM703.532 118.372L690.032 172.372L695.853 173.828L709.353 119.828L703.532 118.372ZM690.025 172.4C689.385 175.066 688.421 176.99 687.255 178.335L691.789 182.265C693.743 180.01 695.059 177.134 695.86 173.8L690.025 172.4ZM687.18 178.426C686.598 179.153 685.126 180 681.602 180V186C685.759 186 689.566 185.047 691.865 182.174L687.18 178.426ZM796.742 180.3L795.078 182.796L795.114 182.821L795.152 182.844L796.742 180.3ZM790.982 170.4L788.029 170.93L788.036 170.966L788.043 171.003L790.982 170.4ZM792.962 150.78L795.867 151.527L795.87 151.518L795.872 151.509L792.962 150.78ZM817.622 52.32L820.532 53.0489L820.536 53.0345L820.539 53.0201L817.622 52.32ZM821.402 46.02L823.066 48.5161L823.122 48.4789L823.176 48.4392L821.402 46.02ZM836.342 46.92L838.742 45.12L838.742 45.12L836.342 46.92ZM837.062 55.56L834.151 54.8324L834.151 54.8349L837.062 55.56ZM812.222 155.28L815.089 156.162L815.113 156.084L815.133 156.005L812.222 155.28ZM811.142 161.04L808.158 160.726L808.158 160.726L811.142 161.04ZM815.822 160.68L813.49 158.792L813.462 158.827L813.436 158.862L815.822 160.68ZM821.042 152.76L823.702 154.148L823.726 154.101L823.748 154.054L821.042 152.76ZM836.882 146.64L834.592 148.578L834.592 148.578L836.882 146.64ZM837.962 158.16L840.825 159.055L840.833 159.031L840.84 159.006L837.962 158.16ZM834.182 164.64L831.839 162.766L831.819 162.792L831.799 162.818L834.182 164.64ZM819.962 178.5L821.581 181.026L821.589 181.021L821.597 181.015L819.962 178.5ZM755.702 172.56L752.992 173.846L753.005 173.874L753.019 173.902L755.702 172.56ZM755.162 143.58L752.251 142.852L752.248 142.866L755.162 143.58ZM763.622 123.78L761.142 122.092L761.138 122.098L761.134 122.103L763.622 123.78ZM776.942 110.82L775.407 108.242L775.407 108.242L776.942 110.82ZM802.682 111.18L800.019 112.561L800.05 112.621L800.083 112.679L802.682 111.18ZM804.482 124.5L807.465 124.817L807.466 124.811L804.482 124.5ZM800.522 144.48L803.415 145.273L803.418 145.262L803.421 145.25L800.522 144.48ZM793.862 164.46L791.084 163.326L791.078 163.341L791.072 163.356L793.862 164.46ZM785.582 178.14L783.422 176.058L783.421 176.059L785.582 178.14ZM788.102 157.44L790.51 159.229L790.51 159.229L788.102 157.44ZM795.482 140.16L792.581 139.397L792.574 139.42L792.569 139.444L795.482 140.16ZM796.382 129.36L793.456 130.025L793.456 130.025L796.382 129.36ZM782.162 131.52L784.518 133.377L784.532 133.36L784.545 133.342L782.162 131.52ZM774.962 147.9L777.876 148.611L777.878 148.604L774.962 147.9ZM773.882 159.6L770.923 160.093L770.935 160.166L770.95 160.237L773.882 159.6ZM806.642 180C803.429 180 800.69 179.23 798.332 177.756L795.152 182.844C798.554 184.97 802.415 186 806.642 186V180ZM798.406 177.804C796.401 176.467 794.783 174.003 793.921 169.797L788.043 171.003C789.1 176.157 791.323 180.293 795.078 182.796L798.406 177.804ZM793.935 169.87C793.21 165.833 793.741 159.798 795.867 151.527L790.056 150.033C787.863 158.562 787.074 165.607 788.029 170.93L793.935 169.87ZM795.872 151.509L820.532 53.0489L814.712 51.5911L790.052 150.051L795.872 151.509ZM820.539 53.0201C821.158 50.4431 822.119 49.1474 823.066 48.5161L819.738 43.5238C817.085 45.2926 815.526 48.1969 814.705 51.6199L820.539 53.0201ZM823.176 48.4392C824.276 47.6326 826.083 47.04 828.962 47.04V41.04C825.36 41.04 822.128 41.7674 819.628 43.6008L823.176 48.4392ZM828.962 47.04C831.944 47.04 833.291 47.8526 833.942 48.72L838.742 45.12C836.512 42.1474 832.94 41.04 828.962 41.04V47.04ZM833.942 48.72C834.57 49.5568 835.032 51.3101 834.151 54.8324L839.972 56.2876C841.012 52.1299 840.994 48.1232 838.742 45.12L833.942 48.72ZM834.151 54.8349L809.311 154.555L815.133 156.005L839.973 56.2851L834.151 54.8349ZM809.355 154.398C808.8 156.2 808.411 158.324 808.158 160.726L814.125 161.354C814.353 159.196 814.684 157.48 815.089 156.162L809.355 154.398ZM808.158 160.726C808.029 161.952 807.992 163.254 808.286 164.368C808.437 164.945 808.739 165.715 809.392 166.368C810.123 167.099 811.074 167.46 812.042 167.46V161.46C812.282 161.46 812.572 161.502 812.877 161.625C813.184 161.749 813.438 161.929 813.634 162.125C814.002 162.493 814.086 162.835 814.088 162.842C814.095 162.867 814.068 162.769 814.063 162.484C814.058 162.212 814.074 161.84 814.125 161.354L808.158 160.726ZM812.042 167.46C813.121 167.46 813.939 166.951 814.298 166.708C814.752 166.4 815.177 166.017 815.558 165.636C816.329 164.865 817.219 163.797 818.208 162.498L813.436 158.862C812.505 160.083 811.805 160.905 811.316 161.394C811.199 161.511 811.106 161.597 811.035 161.657C810.963 161.72 810.93 161.742 810.933 161.74C810.936 161.738 810.955 161.726 810.988 161.707C811.021 161.688 811.078 161.659 811.156 161.627C811.294 161.57 811.607 161.46 812.042 161.46V167.46ZM818.154 162.568C820.314 159.899 822.165 157.092 823.702 154.148L818.382 151.372C817.038 153.948 815.41 156.421 813.49 158.792L818.154 162.568ZM823.748 154.054C824.953 151.536 826.228 149.823 827.494 148.738L823.59 144.182C821.496 145.977 819.771 148.464 818.335 151.466L823.748 154.054ZM827.494 148.738C828.613 147.779 829.894 147.3 831.482 147.3V141.3C828.51 141.3 825.831 142.261 823.59 144.182L827.494 148.738ZM831.482 147.3C832.994 147.3 833.912 147.775 834.592 148.578L839.172 144.702C837.212 142.385 834.529 141.3 831.482 141.3V147.3ZM834.592 148.578C835.4 149.533 835.862 150.742 835.862 152.4H841.862C841.862 149.498 841.004 146.867 839.172 144.702L834.592 148.578ZM835.862 152.4C835.862 153.867 835.617 155.5 835.084 157.313L840.84 159.006C841.507 156.74 841.862 154.533 841.862 152.4H835.862ZM835.098 157.265C834.652 158.693 833.637 160.519 831.839 162.766L836.524 166.514C838.567 163.961 840.071 161.467 840.825 159.055L835.098 157.265ZM831.799 162.818C827.26 168.754 822.76 173.103 818.327 175.985L821.597 181.015C826.764 177.657 831.744 172.766 836.565 166.462L831.799 162.818ZM818.343 175.974C813.993 178.763 810.11 180 806.642 180V186C811.574 186 816.571 184.237 821.581 181.026L818.343 175.974ZM773.702 180C769.851 180 766.766 179.215 764.317 177.795C761.884 176.384 759.896 174.241 758.385 171.218L753.019 173.902C754.988 177.839 757.74 180.916 761.307 182.985C764.858 185.045 769.033 186 773.702 186V180ZM758.412 171.274C755.481 165.097 755.147 156.244 758.076 144.294L752.248 142.866C749.177 155.396 749.203 165.863 752.992 173.846L758.412 171.274ZM758.072 144.308C759.923 136.904 762.618 130.638 766.11 125.457L761.134 122.103C757.186 127.962 754.24 134.896 752.251 142.852L758.072 144.308ZM766.102 125.468C769.735 120.132 773.869 116.14 778.476 113.398L775.407 108.242C769.935 111.5 765.188 116.148 761.142 122.092L766.102 125.468ZM778.476 113.398C783.082 110.656 787.836 109.32 792.782 109.32V103.32C786.688 103.32 780.881 104.984 775.407 108.242L778.476 113.398ZM792.782 109.32C797.033 109.32 799.033 110.661 800.019 112.561L805.345 109.799C802.97 105.219 798.371 103.32 792.782 103.32V109.32ZM800.083 112.679C801.427 115.009 802.069 118.706 801.498 124.189L807.466 124.811C808.095 118.774 807.536 113.591 805.28 109.681L800.083 112.679ZM801.499 124.183C800.92 129.623 799.637 136.124 797.622 143.71L803.421 145.25C805.486 137.476 806.844 130.657 807.465 124.817L801.499 124.183ZM797.629 143.687C795.614 151.035 793.431 157.578 791.084 163.326L796.639 165.594C799.093 159.582 801.35 152.805 803.415 145.273L797.629 143.687ZM791.072 163.356C788.892 168.865 786.317 173.055 783.422 176.058L787.741 180.222C791.326 176.505 794.272 171.575 796.651 165.564L791.072 163.356ZM783.421 176.059C780.907 178.669 777.748 180 773.702 180V186C779.256 186 784.016 184.091 787.743 180.221L783.421 176.059ZM778.202 166.74C783.036 166.74 787.12 163.793 790.51 159.229L785.694 155.651C782.844 159.487 780.327 160.74 778.202 160.74V166.74ZM790.51 159.229C793.949 154.6 796.538 148.427 798.395 140.876L792.569 139.444C790.825 146.533 788.495 151.88 785.694 155.651L790.51 159.229ZM798.383 140.923C799.627 136.195 800.067 132.036 799.307 128.695L793.456 130.025C793.897 131.964 793.736 135.005 792.581 139.397L798.383 140.923ZM799.307 128.695C798.929 127.031 798.229 125.426 796.971 124.222C795.648 122.957 793.985 122.4 792.242 122.4V128.4C792.659 128.4 792.766 128.503 792.823 128.558C792.945 128.674 793.235 129.049 793.456 130.025L799.307 128.695ZM792.242 122.4C787.355 122.4 783.211 125.209 779.779 129.698L784.545 133.342C787.353 129.671 789.929 128.4 792.242 128.4V122.4ZM779.805 129.663C776.33 134.074 773.787 139.98 772.046 147.196L777.878 148.604C779.496 141.9 781.754 136.886 784.518 133.377L779.805 129.663ZM772.047 147.189C770.811 152.256 770.344 156.621 770.923 160.093L776.841 159.107C776.46 156.819 776.712 153.384 777.876 148.611L772.047 147.189ZM770.95 160.237C771.326 161.968 772.04 163.629 773.336 164.871C774.695 166.174 776.408 166.74 778.202 166.74V160.74C777.716 160.74 777.568 160.616 777.488 160.539C777.344 160.401 777.037 159.992 776.813 158.963L770.95 160.237Z" mask="url(#path-1-outside-1_21_8)"/><defs><filter id="filter0_i_21_8" width="810.782" height="142.96" x="28.08" y="44.04" color-interpolation-filters="sRGB" filterUnits="userSpaceOnUse"><feFlood flood-opacity="0" result="BackgroundImageFix"/><feBlend in="SourceGraphic" in2="BackgroundImageFix" mode="normal" result="shape"/><feColorMatrix in="SourceAlpha" result="hardAlpha" type="matrix" values="0 0 0 0 0 0 0 0 0 0 0 0 0 0 0 0 0 0 127 0"/><feOffset dy="4"/><feGaussianBlur stdDeviation="4"/><feComposite in2="hardAlpha" k2="-1" k3="1" operator="arithmetic"/><feColorMatrix type="matrix" values="0 0 0 0 0 0 0 0 0 0 0 0 0 0 0 0 0 0 0.5 0"/><feBlend in2="shape" mode="normal" result="effect1_innerShadow_21_8"/></filter><linearGradient id="paint0_linear_21_8" x1="396.5" x2="378" y1="51.5" y2="227" gradientUnits="userSpaceOnUse"><stop stop-color="#91C2F4"/><stop offset=".479" stop-color="#FFB6E6"/><stop offset="1" stop-color="#F3E4C6"/></linearGradient></defs></svg>