<svg width="64" height="64" viewBox="0 0 64 64" fill="none" xmlns="http://www.w3.org/2000/svg">
<path d="M62.5 32C62.5 39.3388 62.331 44.8938 61.6443 49.1353C60.9591 53.3673 59.7873 56.0914 57.9393 57.9393C56.0914 59.7873 53.3673 60.9591 49.1353 61.6443C44.8938 62.331 39.3388 62.5 32 62.5C24.6612 62.5 19.1062 62.331 14.8647 61.6443C10.6327 60.9591 7.90865 59.7873 6.06066 57.9393C4.21267 56.0914 3.0409 53.3673 2.35572 49.1353C1.66901 44.8938 1.5 39.3388 1.5 32C1.5 24.6612 1.66901 19.1062 2.35572 14.8647C3.0409 10.6327 4.21267 7.90865 6.06066 6.06066C7.90865 4.21267 10.6327 3.0409 14.8647 2.35572C19.1062 1.66901 24.6612 1.5 32 1.5C39.3388 1.5 44.8938 1.66901 49.1353 2.35572C53.3673 3.0409 56.0914 4.21267 57.9393 6.06066C59.7873 7.90865 60.9591 10.6327 61.6443 14.8647C62.331 19.1062 62.5 24.6612 62.5 32Z" fill="#17171D" stroke="#8492A6" stroke-width="3"/>
<path fill-rule="evenodd" clip-rule="evenodd" d="M20.0683 19.9519V27.7557L30.8901 29.9623C31.8535 30.1587 32.372 30.9439 32.4073 31.6804C32.4073 31.6937 32.4088 31.7129 32.4088 31.7306C32.4088 31.7365 32.4088 31.7424 32.4088 31.7483C32.4088 31.7557 32.4088 31.7616 32.4088 31.7675C32.4088 31.7852 32.4073 31.8044 32.4073 31.8177C32.372 32.5528 31.8535 33.3395 30.8901 33.5358L20.0683 35.7425V44.0481C20.099 44.0496 20.1434 44.0451 20.2063 44.023C26.9351 41.7735 43.8474 32.4982 43.8474 31.7601C43.8474 31.0221 26.8568 22.2058 20.2063 19.9755C20.1434 19.9549 20.099 19.9504 20.0683 19.9519ZM47 31.7483V31.7321V31.7277C46.9831 30.6974 46.4017 29.8251 45.5809 29.2406C40.0105 25.273 27.92 19.4368 21.2158 17.1888C20.2585 16.867 19.2214 16.9556 18.3884 17.4619C17.5385 17.977 17 18.8759 17 19.9224V28.3535C17 29.3985 17.7609 30.3018 18.8241 30.5188L24.8548 31.7483L18.8241 32.9793C17.7609 33.1948 17 34.0982 17 35.1447V44.0776C17 45.1241 17.5385 46.0215 18.3884 46.5381C19.2214 47.0444 20.2585 47.133 21.2158 46.8112C27.9215 44.5573 40.0703 38.1764 45.5794 34.2576C46.4017 33.6716 46.9831 32.8007 46.9985 31.7705V31.766L47 31.7483Z" fill="white"/>
</svg>
