<svg xmlns="http://www.w3.org/2000/svg" width="76" height="76" fill="none" viewBox="0 0 76 76"><path fill="#0907EA" stroke="#000" stroke-width="2" d="M8.99763 27.7058L9.84963 27.1822L8.99764 27.7058L12.1331 32.8083L7.28366 36.3225C6.18177 37.121 6.18177 38.7629 7.28366 39.5614L12.1331 43.0757L8.99764 48.1782C8.28519 49.3376 8.91354 50.8545 10.2371 51.1706L16.0623 52.5615L15.1181 58.4755C14.9036 59.8193 16.0646 60.9803 17.4084 60.7658L23.3224 59.8216L24.7133 65.6468C25.0294 66.9703 26.5463 67.5987 27.7057 66.8862L32.8082 63.7508L36.3225 68.6002C37.121 69.7021 38.7629 69.7021 39.5614 68.6002L43.0756 63.7508L48.1781 66.8862C49.3375 67.5987 50.8545 66.9703 51.1705 65.6468L52.5615 59.8216L58.4755 60.7658C59.8192 60.9803 60.9803 59.8193 60.7657 58.4755L59.8216 52.5615L65.6467 51.1706C66.9703 50.8545 67.5987 49.3376 66.8862 48.1782L63.7508 43.0757L68.6002 39.5614C69.7021 38.7629 69.7021 37.121 68.6002 36.3225L63.7508 32.8083L66.8862 27.7058C67.5987 26.5464 66.9703 25.0294 65.6467 24.7133L59.8216 23.3224L60.7657 17.4084C60.9803 16.0646 59.8192 14.9036 58.4755 15.1181L52.5615 16.0623L51.1705 10.2372C50.8545 8.91357 49.3375 8.28522 48.1781 8.99767L43.0756 12.1331L39.5614 7.28369C38.7629 6.1818 37.121 6.1818 36.3225 7.28369L32.8082 12.1331L27.7057 8.99767C26.5463 8.28522 25.0294 8.91357 24.7133 10.2372L23.3224 16.0623L17.4084 15.1181C16.0646 14.9036 14.9036 16.0646 15.1181 17.4084L16.0623 23.3224L10.2371 24.7133C8.91354 25.0294 8.28519 26.5464 8.99763 27.7058Z"/><path fill="#EFCA45" d="M36.0872 47.4421L34.6857 24.8632L34.6631 16.5552H40.6931L40.7157 24.8632L39.4372 47.4421H36.0872ZM37.8618 59.435C35.4498 59.435 33.4349 57.626 33.4278 55.013C33.4203 52.2661 35.4257 50.5911 37.8377 50.5911C40.2497 50.5911 42.2643 52.2661 42.2718 55.013C42.2789 57.626 40.2738 59.435 37.8618 59.435Z"/></svg>