<svg width="65" height="64" viewBox="0 0 65 64" fill="none" xmlns="http://www.w3.org/2000/svg">
<path d="M62.8333 32C62.8333 39.3388 62.6642 44.8938 61.9775 49.1353C61.2924 53.3673 60.1206 56.0914 58.2726 57.9393C56.4246 59.7873 53.7005 60.9591 49.4685 61.6443C45.2271 62.331 39.672 62.5 32.3333 62.5C24.9945 62.5 19.4394 62.331 15.198 61.6443C10.966 60.9591 8.2419 59.7873 6.39391 57.9393C4.54593 56.0914 3.37415 53.3673 2.68897 49.1353C2.00226 44.8938 1.83325 39.3388 1.83325 32C1.83325 24.6612 2.00226 19.1062 2.68897 14.8647C3.37415 10.6327 4.54593 7.90865 6.39391 6.06066C8.2419 4.21267 10.966 3.0409 15.198 2.35572C19.4394 1.66901 24.9945 1.5 32.3333 1.5C39.672 1.5 45.2271 1.66901 49.4685 2.35572C53.7005 3.0409 56.4246 4.21267 58.2726 6.06066C60.1206 7.90865 61.2924 10.6327 61.9775 14.8647C62.6642 19.1062 62.8333 24.6612 62.8333 32Z" fill="#17171D" stroke="#8492A6" stroke-width="3"/>
<path fill-rule="evenodd" clip-rule="evenodd" d="M44.954 32.0669C43.2604 33.0422 42.1883 33.6596 40.89 32.849L36.6569 35.2875C33.726 36.9761 32.0907 37.5273 30.8506 37.072L28.3597 38.5081C23.6704 41.2099 21.4516 38.8944 20.3767 36.868C19.3005 34.8417 18.2554 31.8494 22.9448 29.1475L25.4356 27.7128C25.6604 26.4132 26.9573 25.2757 29.8881 23.5871L34.2919 21.05C34.3189 19.4749 35.4195 18.8399 36.8315 18.0267C39.3955 16.5501 40.9347 15.6626 44.9959 22.6833C49.0572 29.7027 48.0311 30.2931 44.954 32.0669ZM41.4708 29.6744C40.8332 28.8746 40.1157 27.7588 39.1342 26.0606C37.2227 22.7549 36.9939 21.4837 36.9967 21.1257C37.1808 20.942 37.4502 20.788 37.9186 20.5205L37.9348 20.511C38.012 20.4664 38.0959 20.4192 38.1852 20.3665C38.2814 20.3124 38.3694 20.2611 38.4519 20.2125C38.9176 19.9423 39.1857 19.7869 39.4375 19.7194C39.7502 19.8964 40.7398 20.7285 42.6513 24.0342C43.6341 25.731 44.2446 26.909 44.6196 27.8601C44.8132 28.3288 44.8795 28.7139 44.9107 28.926C44.6941 29.0989 44.38 29.2799 43.8913 29.5595L43.8899 29.5609C43.7992 29.6122 43.7031 29.6676 43.6002 29.727C43.4974 29.7851 43.4012 29.8419 43.3119 29.8932C42.8232 30.1769 42.5091 30.3579 42.2505 30.4579C42.0827 30.3269 41.7808 30.0756 41.4708 29.6744ZM38.8202 30.9213L38.9596 30.8402C38.3355 29.9837 37.6275 28.8584 36.7895 27.4116C35.9516 25.9634 35.3518 24.7759 34.9511 23.7911L34.7589 23.9005L31.2419 25.9269C29.8529 26.7253 29.0393 27.263 28.4775 27.7871C28.2636 27.9668 28.1729 28.0951 28.135 28.1654V28.1667C28.1404 28.2397 28.1553 28.4437 28.3191 28.8084C28.5912 29.4515 29.0339 30.2174 29.6593 31.2982L29.8502 31.6292C30.477 32.7112 30.9183 33.4759 31.3407 34.0325C31.5762 34.3567 31.7455 34.4715 31.8064 34.5134H31.8077C31.8876 34.5161 32.0433 34.5012 32.3073 34.4067C33.0437 34.1838 33.9169 33.7474 35.3031 32.9477L38.8202 30.9213ZM26.099 30.4498L26.057 30.4741L24.2985 31.4887C22.406 32.5775 22.2151 33.3867 22.1785 33.6407C22.1176 34.077 22.2746 34.6714 22.7688 35.6036C23.183 36.3844 23.6081 36.7924 23.9926 36.9424C24.2579 37.045 25.1067 37.2612 27.006 36.1683L28.7645 35.1551L28.8065 35.1294C28.3828 34.4958 27.936 33.7217 27.4121 32.818L27.4108 32.8153C26.8869 31.9088 26.4388 31.1347 26.099 30.4498Z" fill="white"/>
<path fill-rule="evenodd" clip-rule="evenodd" d="M19.3844 40.5588C18.7373 40.9316 17.9102 40.7101 17.5352 40.0643L16.1814 37.7245C15.8078 37.0774 16.0298 36.252 16.6769 35.8778C17.3253 35.505 18.1525 35.7265 18.5275 36.3736L19.8812 38.7134C20.2549 39.3592 20.0328 40.1846 19.3844 40.5588Z" fill="white"/>
<path fill-rule="evenodd" clip-rule="evenodd" d="M36.2968 37.892C35.5739 38.0852 35.1461 38.8269 35.3397 39.5469L37.0711 45.9976C37.2295 46.5893 37.7656 47 38.3788 47C39.2696 47 39.9167 46.157 39.6866 45.2992L37.9538 38.8485C37.7615 38.1271 37.0183 37.6989 36.2968 37.892Z" fill="white"/>
<path fill-rule="evenodd" clip-rule="evenodd" d="M32.2816 45.6491C32.2816 46.3948 31.6751 47 30.9278 47C30.1792 47 29.5741 46.3948 29.5741 45.6491V41.5963C29.5741 40.8492 30.1792 40.2454 30.9278 40.2454C31.6751 40.2454 32.2816 40.8492 32.2816 41.5963V45.6491Z" fill="white"/>
<path fill-rule="evenodd" clip-rule="evenodd" d="M25.8756 45.9976C25.7172 46.5893 25.1798 47 24.5679 47C23.6771 47 23.03 46.157 23.2602 45.2992L23.9032 42.9013C24.0968 42.1799 24.84 41.7516 25.5615 41.9448C26.2844 42.138 26.7122 42.8797 26.5186 43.5997L25.8756 45.9976Z" fill="white"/>
</svg>
