<svg width="65" height="64" viewBox="0 0 65 64" fill="none" xmlns="http://www.w3.org/2000/svg">
<path d="M63.1665 32C63.1665 39.3388 62.9975 44.8938 62.3108 49.1353C61.6256 53.3673 60.4538 56.0914 58.6058 57.9393C56.7579 59.7873 54.0338 60.9591 49.8018 61.6443C45.5604 62.331 40.0053 62.5 32.6665 62.5C25.3278 62.5 19.7727 62.331 15.5312 61.6443C11.2992 60.9591 8.57515 59.7873 6.72716 57.9393C4.87918 56.0914 3.70741 53.3673 3.02222 49.1353C2.33552 44.8938 2.1665 39.3388 2.1665 32C2.1665 24.6612 2.33552 19.1062 3.02222 14.8647C3.70741 10.6327 4.87918 7.90865 6.72716 6.06066C8.57515 4.21267 11.2992 3.0409 15.5312 2.35572C19.7727 1.66901 25.3278 1.5 32.6665 1.5C40.0053 1.5 45.5604 1.66901 49.8018 2.35572C54.0338 3.0409 56.7579 4.21267 58.6058 6.06066C60.4538 7.90865 61.6256 10.6327 62.3108 14.8647C62.9975 19.1062 63.1665 24.6612 63.1665 32Z" fill="#17171D" stroke="#8492A6" stroke-width="3"/>
<path fill-rule="evenodd" clip-rule="evenodd" d="M43.1196 22.6893C43.4497 23.2656 43.1882 23.9851 42.5847 24.262L42.4628 24.3176C41.9457 24.5554 41.3351 24.333 41.0499 23.8395C39.6311 21.3806 37.5851 19.5097 35.2315 18.3098C34.6481 18.0128 34.3547 17.3229 34.6055 16.7171C34.854 16.1148 35.5451 15.8237 36.1296 16.1124C38.9519 17.5075 41.4073 19.7251 43.0994 22.6562L43.1196 22.6893ZM40.1151 24.3791C40.3695 24.8181 40.1695 25.3696 39.7092 25.5814L39.0371 25.889C38.6809 26.0523 38.262 25.9021 38.0656 25.5624C37.042 23.7886 35.5877 22.4195 33.9109 21.5095C33.3346 21.196 33.04 20.5084 33.2908 19.9026C33.5393 19.3003 34.2304 19.008 34.809 19.3062C36.9544 20.4161 38.8182 22.132 40.1151 24.3791ZM43.9313 30.8448C43.7775 31.1856 43.6189 31.5382 43.5337 31.898C43.2024 33.2931 43.5337 35.0125 43.5337 35.0125C43.5337 35.0125 44.1408 38.3672 43.5337 40.0878C42.522 42.955 40.6097 45.1205 37.4834 45.1205C35.9663 45.1205 34.2115 43.6922 32.8021 42.5444L32.7998 42.5432C32.3406 42.1693 31.9194 41.8261 31.5537 41.5717C30.5988 40.9055 28.5883 39.747 27.1624 38.9246C26.3696 38.4678 25.7578 38.1152 25.6099 38.0099C24.8632 37.4797 24.7448 36.4644 25.1602 35.8006C25.5755 35.1367 26.6334 34.7238 27.4428 35.3628C28.2522 36.0018 30.9289 37.6596 30.9289 37.6596C30.9289 37.6596 26.6216 33.3073 25.8607 32.6648C25.0987 32.021 25.0004 30.8898 25.6099 30.2816C26.2181 29.6733 27.1766 29.6449 27.7387 30.1029C28.3007 30.5608 32.9027 35.0125 32.9027 35.0125C32.9027 35.0125 28.1848 29.0604 27.7387 28.5101C27.2937 27.9599 27.1671 26.9943 27.7387 26.4227C28.3114 25.85 29.3066 25.8476 29.8994 26.4227C30.4911 26.9978 35.08 32.5453 35.08 32.5453C35.08 32.5453 31.9217 27.2463 31.5537 26.4227C31.1869 25.5991 31.5182 24.5329 32.2838 24.2454C33.0506 23.959 33.9216 24.1815 34.4162 24.8726C34.5523 25.0607 34.9286 25.753 35.422 26.6606C36.7379 29.0793 38.8868 33.0292 39.508 33.0292C40.0725 33.0292 40.1127 32.7074 40.1908 32.0767C40.2311 31.7524 40.2819 31.3454 40.4192 30.8602C40.7825 29.5751 42.8722 27.4061 44.0532 28.7835C44.581 29.4 44.2674 30.0958 43.9313 30.8448ZM44.8804 45.7488C42.2534 48.6149 40.8902 48.1687 39.9944 47.5096C38.0774 46.1003 38.3306 46.0068 39.3944 45.6104C40.1612 45.3264 41.3469 44.8862 42.4462 43.6863C43.4438 42.5976 43.8982 41.5906 44.2047 40.9102C44.7064 39.7991 44.8153 39.5588 46.2566 41.2569C46.9772 42.1042 47.5085 42.8828 44.8804 45.7488ZM20.1914 35.4196C19.6317 35.5154 19.2554 36.0526 19.4021 36.6017C20.1441 39.3707 21.6516 41.7291 23.6361 43.5112C24.1201 43.9466 24.8644 43.8437 25.2608 43.3254C25.6584 42.8059 25.5531 42.0639 25.0726 41.6178C23.4905 40.1481 22.2894 38.23 21.6883 35.9899C21.5712 35.5521 21.1487 35.2574 20.7014 35.3332L20.1914 35.4196ZM16.9858 35.9639C17.6082 35.8586 18.1963 36.2716 18.3596 36.881C19.1655 39.8854 20.8079 42.4414 22.971 44.3643C23.4609 44.7998 23.5639 45.5417 23.1663 46.0612C22.7699 46.5795 22.0267 46.6825 21.5345 46.2541C18.9702 44.0212 17.0201 41.0262 16.0734 37.4939C16.0604 37.4454 16.0486 37.3969 16.0356 37.3472C15.8687 36.7058 16.3077 36.0799 16.9621 35.9686L16.9858 35.9639Z" fill="white"/>
</svg>
