<svg width="570" height="366" viewBox="0 0 570 366" fill="none" xmlns="http://www.w3.org/2000/svg">
<g clip-path="url(#clip0)">
<path d="M75.6456 270.57C75.6456 270.57 74.8915 278.321 80.1282 284.203C85.3624 290.085 179.293 361.795 189.202 365.048C199.111 368.309 199.91 361.925 199.91 361.925L75.6456 270.57Z" fill="#99938F"/>
<path d="M545.817 308.571C545.817 308.571 550.527 306.11 547.368 316.505C544.391 326.29 247.378 363.182 201.808 365.568C200.08 365.655 195.433 366.29 192.139 365.84C190.076 365.563 191.313 355.988 191.313 355.988L545.817 308.571Z" fill="#A39D98"/>
<path d="M34.4338 69.5069C34.5412 69.4194 76.7095 271.932 76.7095 271.932C76.7095 271.932 72.0696 273.743 68.4911 268.131C60.7646 239.98 28.9049 82.7678 29.307 78.0426C29.7365 72.9202 33.4874 70.2365 34.4338 69.5069Z" fill="#99938F"/>
<path d="M33.0728 75.2391C38.8988 110.002 75.6231 273.796 75.6231 273.796C75.6231 273.796 186.475 357.959 190.723 359.296C194.971 360.628 199.256 359.438 201.329 359.251C203.402 359.064 534.038 313.574 537.936 312.719C542.608 311.695 546.364 310.338 547.778 306.952C549.89 301.902 440.821 232.984 440.449 231.964C435.05 216.941 414.183 60.7938 411.868 49.7192C409.546 38.6472 406.626 38.7472 398.198 38.0225C389.77 37.2979 75.9952 60.5764 37.0334 67.5929C34.0692 68.1351 32.461 71.5934 33.0728 75.2391Z" fill="#B2AAA3"/>
<path d="M61.339 91.8684C65.387 113.54 89.2531 233.126 91.0835 238.134C92.914 243.141 98.5902 241.369 102.309 240.847C106.027 240.33 403.158 210.037 406.921 208.938C410.684 207.839 413.976 207.734 413.581 204.663C413.184 201.592 393.998 67.488 393.603 64.7318C393.206 61.9757 388.454 60.6014 384.89 60.9887C381.577 61.3535 103.832 80.4915 65.1023 86.8409C62.1506 87.3256 60.9419 89.752 61.339 91.8684Z" fill="#44403C"/>
<path d="M95.239 269.201C95.239 269.201 423.53 232.839 428.507 231.612C433.479 230.382 435.4 233.846 435.4 233.846L98.3955 272.067L95.239 269.201Z" fill="#7F7B75"/>
<path d="M135.347 282.522C135.979 280.478 160.319 279.033 162.817 279.616C165.314 280.198 174.054 287.756 171.557 288.339C169.06 288.918 145.953 292.524 142.215 290.665C138.476 288.808 134.715 284.566 135.347 282.522Z" fill="#99938F"/>
<path d="M180.777 276.49C178.637 277.811 186.848 285.495 190.539 284.268C194.229 283.059 219.247 283.374 219.119 280.792C218.992 278.216 217.491 273.126 211.256 273.434C205.02 273.741 182.597 275.365 180.777 276.49Z" fill="#99938F"/>
<path d="M230.422 270.815C227.363 272.139 234.375 278.756 238.088 278.643C241.802 278.536 265.291 276.602 264.599 274.138C263.91 271.684 261.994 269.878 253.309 269.513C244.623 269.148 230.422 270.815 230.422 270.815Z" fill="#99938F"/>
<path d="M272.86 265.625C268.45 266.352 279.967 275.255 284.374 274.528C288.78 273.803 313.36 271.437 308.882 268.263C304.41 265.088 304.455 264.016 299.782 263.441C295.115 262.869 272.86 265.625 272.86 265.625Z" fill="#99938F"/>
<path d="M317.021 261.287C317.021 261.287 322.705 270.048 325.869 269.423C329.028 268.798 353.044 267.546 351.148 265.043C349.248 262.539 346.091 258.159 340.4 258.783C334.714 259.408 317.021 261.287 317.021 261.287Z" fill="#99938F"/>
<path d="M361.764 256.767C361.764 256.767 364.81 264.186 370.294 263.506C375.781 262.831 396.5 263.506 395.891 260.135C395.282 256.759 391.014 252.714 384.921 253.388C378.827 254.068 361.764 256.767 361.764 256.767Z" fill="#99938F"/>
<path d="M403.061 250.852C400.743 251.472 406.719 257.616 410.63 258.591C414.101 258.181 437.85 257.217 436.354 254.948C434.855 252.684 432.548 248.111 427.044 248.403C421.553 248.691 403.061 250.852 403.061 250.852Z" fill="#99938F"/>
<path d="M155.325 296.285C154.076 299.408 163.441 306.28 166.562 306.28C169.684 306.28 202.772 303.156 202.772 303.156C202.772 303.156 200.899 296.285 192.783 295.035C184.667 293.786 155.325 296.285 155.325 296.285Z" fill="#99938F"/>
<path d="M208.391 291.287C206.518 291.912 214.01 301.907 219.005 301.282C223.999 300.658 247.93 300.028 248.971 297.534C250.013 295.04 245.85 286.914 237.109 288.164C228.369 289.413 208.391 291.287 208.391 291.287Z" fill="#99938F"/>
<path d="M255.214 284.416C255.214 284.416 260.209 294.411 264.579 293.786C268.949 293.161 292.048 293.161 292.048 291.287C292.048 289.413 287.678 281.292 283.308 281.917C278.938 282.541 255.214 284.416 255.214 284.416Z" fill="#99938F"/>
<path d="M300.165 281.457C300.165 281.457 306.408 290.665 309.529 290.665C312.651 290.665 333.877 288.693 333.877 288.693C333.877 288.693 330.756 277.514 324.513 278.174C318.269 278.828 300.165 281.457 300.165 281.457Z" fill="#99938F"/>
<path d="M340.745 276.402C338.872 277.062 345.739 287.601 350.109 286.285C354.479 284.968 368.839 285.625 370.711 282.991C372.584 280.357 370.087 275.085 365.093 274.425C360.098 273.766 340.745 276.402 340.745 276.402Z" fill="#99938F"/>
<path d="M378.827 271.185C375.081 271.779 385.695 282.514 390.065 281.917C394.435 281.322 410.667 278.941 413.164 277.744C415.662 276.547 410.043 268.798 406.921 268.798C403.8 268.798 378.827 271.185 378.827 271.185Z" fill="#99938F"/>
<path d="M418.783 265.947C417.534 268.251 425.026 276.874 430.021 276.3C435.015 275.725 458.739 272.849 461.86 271.127C464.982 269.406 450.623 261.352 446.877 261.927C443.131 262.501 418.783 265.947 418.783 265.947Z" fill="#99938F"/>
<path d="M447.501 282.322C447.501 282.322 454.993 289.925 458.739 289.418C462.485 288.916 473.722 287.391 476.22 285.87C478.717 284.353 471.225 279.281 468.104 278.773C464.982 278.269 445.628 280.295 447.501 282.322Z" fill="#99938F"/>
<path d="M420.151 286.762C418.85 288.309 424.589 293.516 428.21 293.736C431.829 293.951 443.89 294.673 445.861 292.089C447.831 289.506 439.108 283.573 435.455 283.896C431.806 284.216 420.151 286.762 420.151 286.762Z" fill="#99938F"/>
<path d="M387.151 290.697C387.151 290.697 390.322 298.159 394.76 298.159C399.197 298.159 412.508 297.587 413.776 295.862C415.047 294.138 414.413 290.123 409.975 288.973C405.538 287.829 387.151 290.697 387.151 290.697Z" fill="#99938F"/>
<path d="M299.54 301.577C299.54 301.577 301.413 311.745 310.778 310.053C320.142 308.356 379.901 300.972 382.326 300.348C384.251 299.853 376.63 292.841 373.516 292.222C370.399 291.602 299.54 301.577 299.54 301.577Z" fill="#99938F"/>
<path d="M270 305.6C266.896 307.044 273.639 313.579 276.81 312.642C279.982 311.715 293.911 312.252 294.798 309.308C295.684 306.365 292.063 303.324 286.754 302.941C281.448 302.567 270 305.6 270 305.6Z" fill="#99938F"/>
<path d="M240.024 307.737C240.024 307.737 241.07 317.107 245.777 317.107C250.484 317.107 263.56 315.233 265.131 314.608C266.701 313.983 265.653 307.112 260.945 305.862C256.238 304.613 240.024 307.737 240.024 307.737Z" fill="#99938F"/>
<path d="M177.423 314.463C177.423 314.463 180.237 321.762 186.433 322.144C192.629 322.529 204.373 322.652 207.357 320.485C210.347 318.321 205.714 311.782 200.75 311.335C195.79 310.897 177.423 314.463 177.423 314.463Z" fill="#99938F"/>
<path d="M210.134 311.732C208.514 312.552 215.029 321.225 219.993 320.155C224.955 319.086 232.53 319.238 235.821 318.296C239.112 317.349 233.384 307.921 229.256 308.926C225.128 309.928 210.134 311.732 210.134 311.732Z" fill="#99938F"/>
<path d="M307.656 318.149C306.258 320.943 320.767 336.265 327.01 335.016C333.253 333.766 402.551 326.895 405.673 324.396C408.794 321.897 388.816 308.154 385.695 308.154C382.573 308.154 309.529 314.401 307.656 318.149Z" fill="#99938F"/>
<path d="M319.735 44.0027L293.344 46.4797L281.651 51.1181C281.651 51.1181 291.24 49.518 302.907 49.5522C314.573 49.5863 327.863 55.5127 335.41 58.4242C358.811 67.4485 398.694 85.3952 401.861 86.1477C425.628 91.7918 494.08 120.699 496.376 121.088C502.649 122.152 541.382 138.582 564.314 148.188C571.905 149.926 572.433 139.62 562.613 135.505C551.14 130.874 549.727 130.295 544.268 128.65C535.639 126.051 503.934 112.389 503.934 112.389L497.192 99.7177L491.604 95.3591L494.984 109.346L440.041 90.673L379.421 67.1056L319.735 44.0027Z" fill="#7A402D"/>
<path d="M309.149 66.1611C309.149 66.1611 301.406 78.0476 324.95 88.1755C348.494 98.3035 361.521 111.896 375.14 89.5185C388.759 67.1407 399.539 55.03 384.624 47.5012C369.708 39.9724 360.849 36.6723 350.825 32.2C340.801 27.7276 333.795 27.704 324.879 40.754C315.964 53.804 309.149 66.1611 309.149 66.1611Z" fill="#E6CDB1"/>
<path d="M315.412 78.799C317.66 79.2805 335.97 76.5035 338.738 69.788C341.512 63.0655 350.209 84.379 361.242 75.6899C372.275 67.0029 381.129 67.4954 381.129 67.4954C381.129 67.4954 375.861 91.2638 367.581 99.2974C359.303 107.328 311.577 77.9797 315.412 78.799Z" fill="#E0B890"/>
<path d="M383.975 99.8269C381.377 108.46 384.634 111.276 399.089 117.401C413.544 123.525 437.516 144.399 447.399 122.474C457.282 100.548 469.026 79.5659 456.445 72.0466C443.865 64.5273 415.462 42.001 407.245 54.8228C399.029 67.6447 386.571 91.1912 383.975 99.8269Z" fill="#E6CDB1"/>
<path d="M391.25 88.8716C391.25 88.8716 386.773 101.238 384.66 104.268C382.547 107.298 383.235 111.738 390.229 114.098C397.224 116.459 425.415 133.612 434.06 131.538C442.705 129.465 447.637 120.839 449.765 113.137C451.893 105.436 446.301 102.612 444.923 96.0666C443.544 89.521 440.283 86.7064 425.336 88.5237C410.39 90.341 391.705 92.6114 391.25 88.8716Z" fill="#E0B890"/>
<path d="M191.576 86.8151C192.755 86.9668 194.129 87.4899 194.908 88.9771C196.465 91.9514 195.492 112.441 196.076 111.755C196.66 111.069 201.733 110.089 201.768 109.351C202.008 104.366 203.276 84.9435 208.533 83.7436C214.566 82.3664 218.459 86.2965 219.043 97.2958C219.627 108.295 209.116 113.829 209.116 113.829C209.116 113.829 209.116 114.998 208.533 127.954C207.949 140.91 210.674 139.785 213.982 138.364C217.291 136.943 217.291 138.695 213.593 142.197C209.895 145.699 204.445 142.495 201.526 137.746C198.606 132.996 200.747 117.951 200.747 117.951L195.881 120.488C195.881 120.488 195.881 125.941 193.74 133.975C191.599 142.009 185.954 146.759 180.31 144.888C174.665 143.016 171.94 135.376 171.94 126.807C171.94 118.238 186.538 113.743 186.538 113.743C186.538 113.743 186.483 110.71 186.902 97.7928C187.321 84.8753 190.398 86.6634 191.576 86.8151ZM182.256 130.98C181.088 137.026 183.035 139.673 184.592 140.31C186.149 140.948 186.344 123.645 186.344 123.645C186.344 123.645 183.424 124.933 182.256 130.98ZM210.284 107.588C210.284 107.588 217.875 101.979 214.372 90.9048C214.372 90.9048 210.868 95.0216 210.284 107.588Z" fill="#E6E6E6"/>
<path d="M227.807 112.516C226.51 113.738 225.342 116.669 223.785 121.095C222.228 125.522 222.357 132.294 224.823 133.206C227.289 134.117 228.197 132.963 230.013 129.097C231.83 125.231 230.531 113.08 230.661 111.932C230.791 110.784 232.089 110.082 234.165 110.412C236.241 110.742 237.279 113.115 237.279 113.115C237.279 116.62 236.89 128.504 238.317 130.159C239.745 131.814 243.507 123.064 243.507 123.064C243.637 121.916 243.248 117.051 245.454 111.818C247.66 106.586 252.331 105.382 255.186 105.706C258.041 106.03 260.636 107.741 260.636 110.078C260.636 112.415 261.284 115.635 258.04 115.508C254.796 115.382 255.445 111.33 255.445 111.33C254.926 110.338 253.758 109.244 252.98 118.858C252.201 128.472 254.018 129.54 255.834 130.348C257.651 131.156 260.765 127.367 263.62 122.498C266.474 117.629 269.848 106.48 269.848 106.48C269.848 106.48 268.939 88.4173 269.329 83.026C269.718 77.6347 272.443 77.2891 274.908 77.8111C277.374 78.333 280.488 83.7623 281.526 88.7314C282.564 93.7005 277.374 104.56 277.374 104.56C278.023 107.26 278.93 118.96 278.93 118.96C280.876 117.322 284.442 111.985 284.769 108.463C284.769 108.463 283.663 108.095 282.823 106.725C281.785 104.353 284.51 99.4631 287.753 99.7193C289.762 99.7171 292.617 101.08 293.333 105.151C294.174 111.455 285.937 119.556 285.937 119.556C285.937 119.556 285.028 119.021 290.349 120.907C295.669 122.792 300.462 126.531 305.66 128.536C310.859 130.54 314.873 130.391 319.674 128.947C324.475 127.503 327.07 131.032 326.552 133.807C326.033 136.581 323.05 139.773 317.469 140.282C311.887 140.791 303.755 137.803 300.76 135.574C297.766 133.345 294.167 129.407 290.57 126.544C286.973 123.681 282.301 122.353 282.301 122.354C281.652 122.77 279.057 124.435 279.057 124.435C279.057 124.435 279.252 127.129 278.927 128.828C279.057 130.926 277.953 131.723 275.164 133.683C270.298 135.702 270.602 130.988 270.501 130.143C270.179 127.449 270.103 122.621 270.103 122.621C270.103 122.621 265.562 129.429 264.783 130.474C264.005 131.519 261.021 134.81 255.7 134.872C250.38 134.934 246.228 130.769 246.228 130.769C246.228 130.769 244.152 135.242 240.778 136.004C237.405 136.766 231.955 131.874 231.955 131.874C230.917 136.123 228.062 138.785 222.352 137.228C216.643 135.671 215.216 130.51 215.345 125.337C215.475 120.164 218.2 114.884 222.093 110.7C225.986 106.515 229.619 109.56 229.619 109.56C230.406 110.054 229.105 111.295 227.807 112.516ZM276.981 92.8142C276.981 92.8142 278.798 86.6112 277.5 85.3663C276.202 84.1213 276.981 92.8142 276.981 92.8142Z" fill="#E6E6E6"/>
<path d="M199.644 152.443C199.644 152.443 199.385 159.932 204.056 159.117C208.727 158.302 208.468 152.288 207.17 149.485C205.873 146.682 197.827 143.844 194.713 145.945C191.599 148.047 184.073 153.861 183.035 166.42C181.997 178.979 184.332 187.92 190.561 194.364C196.789 200.808 202.758 198.381 205.353 196.198C207.949 194.014 213.917 181.72 214.696 179.766C215.475 177.813 215.215 171.539 210.544 179.625C205.872 187.711 201.979 196.959 198.606 189.671C195.232 182.383 193.675 176.422 193.934 167.375C194.194 158.328 195.491 152.302 197.308 151.552C199.125 150.802 199.644 152.443 199.644 152.443Z" fill="#E6E6E6"/>
<path d="M228.191 165.553C227.102 166.107 224.731 168.925 223.704 175.143C222.678 181.36 223.975 185.072 225.905 186.31C228.906 187.544 232.084 182.532 232.084 182.532C232.084 182.532 231.046 178.732 230.527 173.196C230.008 167.66 231.305 165.01 232.344 163.098C233.382 161.185 235.198 162.773 236.496 164.018C237.794 165.263 237.793 170.457 238.313 178.07C238.832 185.683 241.427 184.538 241.946 182.543C242.465 180.548 243.956 176.696 244.8 171.052C245.255 168.332 246.553 164.384 247.396 162.636C250.25 157.637 254.922 162.275 254.922 162.275C259.852 151.633 266.6 159.458 266.6 159.458C269.779 152.109 274.84 153.044 278.538 156.943C281.652 160.035 281.652 174.317 282.69 173.703C283.729 173.089 287.621 158.907 287.621 158.907C287.88 157.13 285.805 153.165 287.362 151.855C288.919 150.544 293.849 151.848 293.849 151.848C295.666 145.904 301.116 147.291 304.23 148.565C312.923 151.895 313.442 165.351 311.497 169.976C308.771 177.981 297.223 181.468 297.223 181.468C297.483 182.548 297.223 212.629 297.483 218.903C297.743 225.176 295.666 222.509 292.552 220.715C289.438 218.922 289.697 203.123 289.697 195.592C289.697 188.061 288.4 169.417 288.4 169.417C288.4 169.417 287.881 171.672 285.026 177.45C282.755 181.569 278.733 182.097 276.981 181.624C275.229 181.15 274.645 177.097 274.386 173.161C274.126 169.224 273.607 164.467 272.05 161.363C270.493 158.259 268.444 161.666 268.488 162.291C268.662 164.792 269.878 174.458 269.699 177.155C269.6 178.646 269.113 180.38 268.264 181.707C267.721 182.58 266.748 183.597 265.8 184.183C264.985 184.576 264.547 183.709 264.218 182.071C263.89 180.432 263.671 178.022 263.296 175.33C262.545 169.946 262.416 167.458 260.631 164.221C258.847 160.984 257.087 163.73 256.785 166.117C257.053 168.992 258.281 176.785 257.882 180.9C257.387 185.876 254.867 187.513 253.597 187.071C252.326 186.628 252.229 185.444 252.194 184.776C252.326 180.688 251.441 175.268 251.154 174.064C250.867 172.861 250.447 173.933 250.19 175.034C249.212 179.219 246.876 185.08 242.206 188.816C238.897 190.432 233.641 185.637 233.641 185.637C230.268 194.968 222.287 191.296 220.666 189.285C219.044 187.274 216.318 182.427 217.292 175.245C218.265 168.064 221.444 164.156 224.039 162.296C226.634 160.437 230.268 163.027 230.268 163.027C230.268 163.027 229.748 164.762 228.191 165.553ZM297.223 175.236C297.223 175.236 302.933 175.106 303.452 168.437C303.971 161.768 303.386 152.391 300.078 152.059C298.066 152.064 295.667 154.214 295.926 160.747C296.185 167.281 297.223 175.236 297.223 175.236Z" fill="#E6E6E6"/>
<path d="M241.151 321.025C241.151 321.025 236.733 312.242 238.75 301.104C240.769 289.964 245.65 279.418 243.742 272.986C243.742 272.986 252.061 287.823 249.463 292.277C246.866 296.731 253.01 300.096 253.01 300.096C253.01 300.096 257.556 298.665 254.094 284.037C250.634 269.413 246.404 254.365 248.982 242.556C251.561 230.746 257.167 224.02 256.235 219.103C256.235 219.103 264.948 228.772 261.084 237.43C261.084 237.43 263.724 229.568 262.237 207.21C257.231 191.418 266.71 176.36 266.71 176.36C266.71 176.36 265.95 190.554 273.457 200.362C280.964 210.17 278.189 227.514 274.161 233.816C266.107 246.419 269.346 259.216 276.183 266.263C283.019 273.31 315.445 288.245 312.574 305.771C309.704 323.298 307.729 331.03 311.63 337.083C315.532 343.134 247.829 334.476 241.151 321.025Z" fill="#FF721C"/>
<path d="M271.388 198.908C271.388 198.908 276.308 234.673 286.358 240.04C296.409 245.405 300.889 263.739 301.614 272.86C302.339 281.98 309.725 299.761 318.324 297.467C326.923 295.173 319.052 285.421 314.085 285.704C314.085 285.704 322.078 280.217 326.68 283.314C331.281 286.408 344.604 287.851 336.13 264.324C327.655 240.8 341.096 242.875 335.648 235.313C330.2 227.749 325.355 223.377 321.117 211.615C316.882 199.853 309.13 196.032 316.641 172.119C320.661 157.578 325.007 160.028 318.515 144.94C318.515 144.94 331.415 160.054 328.51 171.188C325.602 182.322 332.862 199.463 336.741 198.727C340.615 197.992 335.289 191.066 337.953 183.947C340.618 176.826 345.826 167.24 344.616 160.855C344.616 160.855 352.827 180.227 356.303 153.663C368.837 175.653 360.114 184.368 366.29 185.181C372.466 185.992 378.16 200.125 379.855 203.771C381.55 207.417 372.463 217.743 384.088 231.409C395.712 245.078 400.803 245.433 399.588 260.214C398.375 274.995 388.681 282.126 400.433 285.848C412.179 289.571 412.783 287.469 407.696 297.697C402.609 307.922 365.064 321.662 373.541 329.313C382.016 336.964 331.881 331.93 317.954 327.298C304.027 322.665 305.241 313.177 290.344 308.727C275.448 304.278 266.005 291.521 266.853 280.113C267.702 268.709 270.78 257.745 266.008 249.188C258.997 236.61 269.481 219.076 271.388 198.908Z" fill="#FF8B30"/>
<path d="M394.097 251.116C394.097 251.116 419.695 261.299 413.105 281.765C406.514 302.231 407.193 303.589 414.705 311.173C422.213 318.76 388.896 304.318 392.167 288.415C395.433 272.507 402.077 263.389 394.097 251.116Z" fill="#FF5B2B"/>
<path d="M309.265 275.076C313.632 268.964 315.795 266.153 322.799 273.389C329.802 280.624 322.799 273.389 330.103 266.464C337.412 259.538 340.045 268.327 340.869 269.841C340.869 269.841 338.059 252.242 349.607 251.422C349.607 251.422 352.286 242.769 343.206 237.373C334.125 231.975 325.795 224.73 327.306 218.458C328.821 212.185 319.521 201.163 319.521 201.163C319.521 201.163 318.605 213.017 315.275 218.208C311.945 223.4 310.173 232.591 318.043 240.855C325.91 249.117 317.74 255.016 317.74 255.016C317.74 255.016 316.443 248.097 312.941 244.479C312.941 244.479 313.33 250.859 305.979 258.27C293.46 270.887 297.252 269.771 300.704 274.597C303.254 278.163 304.9 281.186 309.265 275.076Z" fill="#FFA923"/>
<path d="M365.135 212.022C365.135 212.022 358.92 219.488 357.026 227.393C355.13 235.3 365.384 244.673 357.854 263.079C350.322 281.486 339.452 282.293 339.12 276.068C338.787 269.843 348.634 259.17 340.963 245.534C333.291 231.898 322.321 227.69 323.497 224.953C323.497 224.953 328.135 236.019 328.586 242.852C329.032 249.685 323.38 264.59 317.88 266.893C312.381 269.195 300.666 271.084 301 277.31C301.333 283.534 302.943 299.913 319.657 298.626C336.37 297.342 331.778 308.904 340.783 307.195C349.784 305.487 355.08 293.162 362.432 296.167C369.784 299.172 382.971 306.105 396.396 309.845C409.821 313.583 431.562 311.973 431.574 307.569C431.586 303.165 424.068 303.53 424.485 294.45C425.207 278.751 415.986 269.563 405.527 264.723C405.527 264.723 413.228 279.299 405.54 286.516C399.907 291.803 402.394 296.758 409.146 305.539C409.146 305.539 399.093 306.185 394.21 298.312C389.328 290.435 384.571 278.76 385.761 271.618C385.761 271.618 379.286 286.681 376.884 269.531C374.481 252.379 377.537 246.141 373.241 236.894C368.942 227.648 361.36 223.429 365.135 212.022Z" fill="#FF743F"/>
<path d="M383.617 308.962C383.617 308.962 366.084 298.97 369.125 285.891C372.166 272.81 375.224 284.074 372.768 275.986C372.768 275.986 373.638 290.296 379.09 289.921C379.09 289.921 378.154 294.702 377.689 277.684C377.223 260.668 385.715 247.212 377.212 236.325C377.212 236.325 391.496 238.877 392.066 271.007C392.066 271.007 388.665 282.183 397.135 283.205C405.612 284.226 400.599 291.757 406.724 299.806C412.854 307.854 425.962 313.919 430.404 313.076C430.404 313.074 386.992 319.972 383.617 308.962Z" fill="#FFAE49"/>
<path d="M274.43 207.765C274.43 207.765 265.86 224.956 277.707 236.408C289.556 247.86 289.784 249.061 289.189 257.267C288.595 265.474 299.251 242.282 290.972 232.646C282.694 223.009 275.556 219.382 274.43 207.765Z" fill="#FF5B2B"/>
<path d="M287.83 324.25C287.83 324.25 266.667 324.116 270.949 314.397C272.904 309.963 265.636 305.009 271.233 298.335C271.233 298.335 274.65 314.126 280.175 313.562C280.175 313.562 278.984 317.185 279.39 304.483C279.797 291.783 289.069 281.283 281.042 273.581C281.042 273.581 295.339 274.75 294.259 298.749C294.259 298.749 290.246 307.28 298.751 307.609C307.26 307.937 301.807 313.824 307.579 319.527C313.356 325.23 326.283 329.089 330.815 328.229C330.813 328.228 305.984 335.854 287.83 324.25Z" fill="#FFB642"/>
<path d="M254.129 0.000121948L232.379 15.5886L223.263 19.7984C223.263 19.7984 191.663 39.6918 187.469 41.7462C183.275 43.8006 156.212 58.6087 148.653 63.3486C141.094 68.0885 108.467 85.8859 108.467 85.8859L71.8467 107.202C71.8467 107.202 51.6041 117.373 47.5083 120.159C43.4124 122.945 32.5919 131.107 21.8666 139.999C14.9944 145.697 13.1692 147.371 5.01692 151.281C-2.33429 156.535 -0.612873 162.079 3.84461 161.57C7.16409 159.945 10.3548 157.858 12.2205 156.945C14.3176 155.919 36.6006 138.767 36.6006 138.767L58.5409 124.637C58.5409 124.637 103.848 101.414 106.48 98.8247C109.112 96.2354 165.142 64.1167 165.142 64.1167L211.617 38.501L241.752 18.804L254.129 0.000121948Z" fill="#7A402D"/>
<path d="M76.7461 71.514C76.7461 71.514 70.409 79.8174 78.3248 94.4071C86.2407 108.997 92.2537 126.078 109.226 119.328C126.198 112.577 172.823 93.6471 165.445 77.4961C158.066 61.3451 149.214 34.2093 128.877 43.6474C108.54 53.0854 85.0359 66.6737 76.7461 71.514Z" fill="#E6CDB1"/>
<path d="M155.778 59.4138C155.778 59.4138 168.857 81.1813 166.393 84.4525C163.929 87.7236 112.7 122.535 103.562 119.35C94.4221 116.165 83.9291 102.872 83.9291 102.872C83.9291 102.872 111.09 105.107 117.155 96.207C123.22 87.3073 131.583 84.7134 142.219 77.4049C152.855 70.0987 155.778 59.4138 155.778 59.4138Z" fill="#E0B890"/>
<path d="M163.615 47.1818C173.778 67.4334 180.623 85.1476 201.396 73.4149C222.17 61.6822 250.555 51.164 241.711 35.2073C232.868 19.2506 229.334 -7.10753 207.195 5.55533C185.055 18.2182 153.452 26.9324 163.615 47.1818Z" fill="#E6CDB1"/>
<path d="M176.347 61.8921C176.347 61.8921 184.393 79.284 195.488 74.7649C206.578 70.2485 240.105 49.7984 239.227 45.5427C238.345 41.2851 235.555 27.7917 235.555 27.7917C235.555 27.7917 223.224 37.7561 213.021 37.6476C202.821 37.5409 201.53 43.7292 194.279 48.9309C187.028 54.1326 173.52 59.8902 173.52 59.8902L176.347 61.8921Z" fill="#E0B890"/>
</g>
<defs>
<clipPath id="clip0">
<rect width="570" height="366" fill="white"/>
</clipPath>
</defs>
</svg>
