<svg width="570" height="366" fill="none" xmlns="http://www.w3.org/2000/svg"><g clip-path="url(#a)"><path d="M75.646 270.57s-.755 7.751 4.482 13.633c5.234 5.882 99.165 77.592 109.074 80.845 9.909 3.261 10.708-3.123 10.708-3.123L75.646 270.57Z" fill="#99938F"/><path d="M545.817 308.571s4.71-2.461 1.551 7.934c-2.977 9.785-299.99 46.677-345.56 49.063-1.728.087-6.375.722-9.669.272-2.063-.277-.826-9.852-.826-9.852l354.504-47.417Z" fill="#A39D98"/><path d="M34.434 69.507c.107-.088 42.276 202.425 42.276 202.425s-4.64 1.811-8.219-3.801C60.765 239.98 28.905 82.768 29.307 78.043c.43-5.123 4.18-7.806 5.127-8.536Z" fill="#99938F"/><path d="M33.073 75.24c5.826 34.762 42.55 198.556 42.55 198.556s110.852 84.163 115.1 85.5c4.248 1.332 8.533.142 10.606-.045 2.073-.187 332.709-45.677 336.607-46.532 4.672-1.024 8.428-2.381 9.842-5.767 2.112-5.05-106.957-73.968-107.329-74.988-5.399-15.023-26.266-171.17-28.581-182.245-2.322-11.072-5.242-10.972-13.67-11.697-8.428-.724-322.203 22.554-361.165 29.57-2.964.543-4.572 4.001-3.96 7.647Z" fill="#B2AAA3"/><path d="M61.339 91.868c4.048 21.672 27.914 141.258 29.745 146.266 1.83 5.007 7.506 3.235 11.225 2.713 3.718-.517 300.849-30.81 304.612-31.909 3.763-1.099 7.055-1.204 6.66-4.275-.397-3.071-19.583-137.175-19.978-139.931-.397-2.756-5.149-4.13-8.713-3.743-3.313.364-281.058 19.503-319.788 25.852-2.951.485-4.16 2.911-3.763 5.027Z" fill="#44403C"/><path d="M95.239 269.201s328.291-36.362 333.268-37.589c4.972-1.23 6.893 2.234 6.893 2.234L98.395 272.067l-3.156-2.866Z" fill="#7F7B75"/><path d="M135.347 282.522c.632-2.044 24.972-3.489 27.47-2.906 2.497.582 11.237 8.14 8.74 8.723-2.497.579-25.604 4.185-29.342 2.326-3.739-1.857-7.5-6.099-6.868-8.143ZM180.777 276.49c-2.14 1.321 6.071 9.005 9.762 7.778 3.69-1.209 28.708-.894 28.58-3.476-.127-2.576-1.628-7.666-7.863-7.358-6.236.307-28.659 1.931-30.479 3.056ZM230.422 270.815c-3.059 1.324 3.953 7.941 7.666 7.828 3.714-.107 27.203-2.041 26.511-4.505-.689-2.454-2.605-4.26-11.29-4.625-8.686-.365-22.887 1.302-22.887 1.302ZM272.86 265.625c-4.41.727 7.107 9.63 11.514 8.903 4.406-.725 28.986-3.091 24.508-6.265-4.472-3.175-4.427-4.247-9.1-4.822-4.667-.572-26.922 2.184-26.922 2.184ZM317.021 261.287s5.684 8.761 8.848 8.136c3.159-.625 27.175-1.877 25.279-4.38-1.9-2.504-5.057-6.884-10.748-6.26-5.686.625-23.379 2.504-23.379 2.504ZM361.764 256.767s3.046 7.419 8.53 6.739c5.487-.675 26.206 0 25.597-3.371-.609-3.376-4.877-7.421-10.97-6.747-6.094.68-23.157 3.379-23.157 3.379ZM403.061 250.852c-2.318.62 3.658 6.764 7.569 7.739 3.471-.41 27.22-1.374 25.724-3.643-1.499-2.264-3.806-6.837-9.31-6.545-5.491.288-23.983 2.449-23.983 2.449ZM155.325 296.285c-1.249 3.123 8.116 9.995 11.237 9.995 3.122 0 36.21-3.124 36.21-3.124s-1.873-6.871-9.989-8.121c-8.116-1.249-37.458 1.25-37.458 1.25ZM208.391 291.287c-1.873.625 5.619 10.62 10.614 9.995 4.994-.624 28.925-1.254 29.966-3.748 1.042-2.494-3.121-10.62-11.862-9.37-8.74 1.249-28.718 3.123-28.718 3.123ZM255.214 284.416s4.995 9.995 9.365 9.37 27.469-.625 27.469-2.499-4.37-9.995-8.74-9.37c-4.37.624-28.094 2.499-28.094 2.499ZM300.165 281.457s6.243 9.208 9.364 9.208c3.122 0 24.348-1.972 24.348-1.972s-3.121-11.179-9.364-10.519c-6.244.654-24.348 3.283-24.348 3.283ZM340.745 276.402c-1.873.66 4.994 11.199 9.364 9.883 4.37-1.317 18.73-.66 20.602-3.294 1.873-2.634-.624-7.906-5.618-8.566-4.995-.659-24.348 1.977-24.348 1.977ZM378.827 271.185c-3.746.594 6.868 11.329 11.238 10.732 4.37-.595 20.602-2.976 23.099-4.173 2.498-1.197-3.121-8.946-6.243-8.946-3.121 0-28.094 2.387-28.094 2.387ZM418.783 265.947c-1.249 2.304 6.243 10.927 11.238 10.353 4.994-.575 28.718-3.451 31.839-5.173 3.122-1.721-11.237-9.775-14.983-9.2-3.746.574-28.094 4.02-28.094 4.02ZM447.501 282.322s7.492 7.603 11.238 7.096c3.746-.502 14.983-2.027 17.481-3.548 2.497-1.517-4.995-6.589-8.116-7.097-3.122-.504-22.476 1.522-20.603 3.549ZM420.151 286.762c-1.301 1.547 4.438 6.754 8.059 6.974 3.619.215 15.68.937 17.651-1.647 1.97-2.583-6.753-8.516-10.406-8.193-3.649.32-15.304 2.866-15.304 2.866ZM387.151 290.697s3.171 7.462 7.609 7.462c4.437 0 17.748-.572 19.016-2.297 1.271-1.724.637-5.739-3.801-6.889-4.437-1.144-22.824 1.724-22.824 1.724ZM299.54 301.577s1.873 10.168 11.238 8.476c9.364-1.697 69.123-9.081 71.548-9.705 1.925-.495-5.696-7.507-8.81-8.126-3.117-.62-73.976 9.355-73.976 9.355ZM270 305.6c-3.104 1.444 3.639 7.979 6.81 7.042 3.172-.927 17.101-.39 17.988-3.334.886-2.943-2.735-5.984-8.044-6.367C281.448 302.567 270 305.6 270 305.6ZM240.024 307.737s1.046 9.37 5.753 9.37 17.783-1.874 19.354-2.499c1.57-.625.522-7.496-4.186-8.746-4.707-1.249-20.921 1.875-20.921 1.875ZM177.423 314.463s2.814 7.299 9.01 7.681c6.196.385 17.94.508 20.924-1.659 2.99-2.164-1.643-8.703-6.607-9.15-4.96-.438-23.327 3.128-23.327 3.128ZM210.134 311.732c-1.62.82 4.895 9.493 9.859 8.423 4.962-1.069 12.537-.917 15.828-1.859 3.291-.947-2.437-10.375-6.565-9.37-4.128 1.002-19.122 2.806-19.122 2.806ZM307.656 318.149c-1.398 2.794 13.111 18.116 19.354 16.867 6.243-1.25 75.541-8.121 78.663-10.62 3.121-2.499-16.857-16.242-19.978-16.242-3.122 0-76.166 6.247-78.039 9.995Z" fill="#99938F"/><path d="m319.735 44.003-26.391 2.477-11.693 4.638s9.589-1.6 21.256-1.566c11.666.034 24.956 5.96 32.503 8.872 23.401 9.024 63.284 26.971 66.451 27.724 23.767 5.644 92.219 34.551 94.515 34.94 6.273 1.064 45.006 17.494 67.938 27.1 7.591 1.738 8.119-8.568-1.701-12.683-11.473-4.631-12.886-5.21-18.345-6.855-8.629-2.599-40.334-16.261-40.334-16.261l-6.742-12.671-5.588-4.359 3.38 13.987-54.943-18.673-60.62-23.567-59.686-23.103Z" fill="#7A402D"/><path d="M309.149 66.161s-7.743 11.887 15.801 22.014c23.544 10.129 36.571 23.721 50.19 1.344 13.619-22.378 24.399-34.489 9.484-42.018-14.916-7.529-23.775-10.829-33.799-15.301-10.024-4.472-17.03-4.496-25.946 8.554-8.915 13.05-15.73 25.407-15.73 25.407Z" fill="#E6CDB1"/><path d="M315.412 78.799c2.248.481 20.558-2.296 23.326-9.011 2.774-6.722 11.471 14.591 22.504 5.902 11.033-8.687 19.887-8.195 19.887-8.195s-5.268 23.769-13.548 31.802c-8.278 8.031-56.004-21.317-52.169-20.498Z" fill="#E0B890"/><path d="M383.975 99.827c-2.598 8.633.659 11.449 15.114 17.574 14.455 6.124 38.427 26.998 48.31 5.073 9.883-21.926 21.627-42.908 9.046-50.427-12.58-7.52-40.983-30.046-49.2-17.224-8.216 12.822-20.674 36.368-23.27 45.004Z" fill="#E6CDB1"/><path d="M391.25 88.872s-4.477 12.366-6.59 15.396c-2.113 3.03-1.425 7.47 5.569 9.83 6.995 2.361 35.186 19.514 43.831 17.44 8.645-2.073 13.577-10.699 15.705-18.401 2.128-7.701-3.464-10.525-4.842-17.07-1.379-6.546-4.64-9.36-19.587-7.543-14.946 1.817-33.631 4.087-34.086.348Z" fill="#E0B890"/><path d="M191.576 86.815c1.179.152 2.553.675 3.332 2.162 1.557 2.974.584 23.464 1.168 22.778.584-.686 5.657-1.666 5.692-2.404.24-4.985 1.508-24.407 6.765-25.607 6.033-1.378 9.926 2.552 10.51 13.552.584 10.999-9.927 16.533-9.927 16.533s0 1.169-.583 14.125c-.584 12.956 2.141 11.831 5.449 10.41 3.309-1.421 3.309.331-.389 3.833-3.698 3.502-9.148.298-12.067-4.451-2.92-4.75-.779-19.795-.779-19.795l-4.866 2.537s0 5.453-2.141 13.487c-2.141 8.034-7.786 12.784-13.43 10.913-5.645-1.872-8.37-9.512-8.37-18.081 0-8.569 14.598-13.064 14.598-13.064s-.055-3.033.364-15.95c.419-12.918 3.496-11.13 4.674-10.978Zm-9.32 44.165c-1.168 6.046.779 8.693 2.336 9.33 1.557.638 1.752-16.665 1.752-16.665s-2.92 1.288-4.088 7.335Zm28.028-23.392s7.591-5.609 4.088-16.683c0 0-3.504 4.117-4.088 16.683Z" fill="#E6E6E6"/><path d="M227.807 112.516c-1.297 1.222-2.465 4.153-4.022 8.579-1.557 4.427-1.428 11.199 1.038 12.111 2.466.911 3.374-.243 5.19-4.109 1.817-3.866.518-16.017.648-17.165.13-1.148 1.428-1.85 3.504-1.52 2.076.33 3.114 2.703 3.114 2.703 0 3.505-.389 15.389 1.038 17.044 1.428 1.655 5.19-7.095 5.19-7.095.13-1.148-.259-6.013 1.947-11.246 2.206-5.232 6.877-6.436 9.732-6.112 2.855.324 5.45 2.035 5.45 4.372 0 2.337.648 5.557-2.596 5.43-3.244-.126-2.595-4.178-2.595-4.178-.519-.992-1.687-2.086-2.465 7.528-.779 9.614 1.038 10.682 2.854 11.49 1.817.808 4.931-2.981 7.786-7.85 2.854-4.869 6.228-16.018 6.228-16.018s-.909-18.063-.519-23.454c.389-5.391 3.114-5.737 5.579-5.215 2.466.522 5.58 5.951 6.618 10.92 1.038 4.97-4.152 15.829-4.152 15.829.649 2.7 1.556 14.4 1.556 14.4 1.946-1.638 5.512-6.975 5.839-10.497 0 0-1.106-.368-1.946-1.738-1.038-2.372 1.687-7.262 4.93-7.006 2.009-.002 4.864 1.361 5.58 5.432.841 6.304-7.396 14.405-7.396 14.405s-.909-.535 4.412 1.351c5.32 1.885 10.113 5.624 15.311 7.629 5.199 2.004 9.213 1.855 14.014.411s7.396 2.085 6.878 4.86c-.519 2.774-3.502 5.966-9.083 6.475-5.582.509-13.714-2.479-16.709-4.708-2.994-2.229-6.593-6.167-10.19-9.03-3.597-2.863-8.269-4.191-8.269-4.19l-3.244 2.081s.195 2.694-.13 4.393c.13 2.098-.974 2.895-3.763 4.855-4.866 2.019-4.562-2.695-4.663-3.54-.322-2.694-.398-7.522-.398-7.522s-4.541 6.808-5.32 7.853c-.778 1.045-3.762 4.336-9.083 4.398-5.32.062-9.472-4.103-9.472-4.103s-2.076 4.473-5.45 5.235c-3.373.762-8.823-4.13-8.823-4.13-1.038 4.249-3.893 6.911-9.603 5.354-5.709-1.557-7.136-6.718-7.007-11.891.13-5.173 2.855-10.453 6.748-14.637 3.893-4.185 7.526-1.14 7.526-1.14.787.494-.514 1.735-1.812 2.956Zm49.174-19.702s1.817-6.203.519-7.448-.519 7.448-.519 7.448ZM199.644 152.443s-.259 7.489 4.412 6.674c4.671-.815 4.412-6.829 3.114-9.632-1.297-2.803-9.343-5.641-12.457-3.54-3.114 2.102-10.64 7.916-11.678 20.475-1.038 12.559 1.297 21.5 7.526 27.944 6.228 6.444 12.197 4.017 14.792 1.834 2.596-2.184 8.564-14.478 9.343-16.432.779-1.953.519-8.227-4.152-.141-4.672 8.086-8.565 17.334-11.938 10.046-3.374-7.288-4.931-13.249-4.672-22.296.26-9.047 1.557-15.073 3.374-15.823 1.817-.75 2.336.891 2.336.891ZM228.191 165.553c-1.089.554-3.46 3.372-4.487 9.59-1.026 6.217.271 9.929 2.201 11.167 3.001 1.234 6.179-3.778 6.179-3.778s-1.038-3.8-1.557-9.336c-.519-5.536.778-8.186 1.817-10.098 1.038-1.913 2.854-.325 4.152.92s1.297 6.439 1.817 14.052c.519 7.613 3.114 6.468 3.633 4.473.519-1.995 2.01-5.847 2.854-11.491.455-2.72 1.753-6.668 2.596-8.416 2.854-4.999 7.526-.361 7.526-.361 4.93-10.642 11.678-2.817 11.678-2.817 3.179-7.349 8.24-6.414 11.938-2.515 3.114 3.092 3.114 17.374 4.152 16.76 1.039-.614 4.931-14.796 4.931-14.796.259-1.777-1.816-5.742-.259-7.052 1.557-1.311 6.487-.007 6.487-.007 1.817-5.944 7.267-4.557 10.381-3.283 8.693 3.33 9.212 16.786 7.267 21.411-2.726 8.005-14.274 11.492-14.274 11.492.26 1.08 0 31.161.26 37.435.26 6.273-1.817 3.606-4.931 1.812-3.114-1.793-2.855-17.592-2.855-25.123 0-7.531-1.297-26.175-1.297-26.175s-.519 2.255-3.374 8.033c-2.271 4.119-6.293 4.647-8.045 4.174-1.752-.474-2.336-4.527-2.595-8.463-.26-3.937-.779-8.694-2.336-11.798-1.557-3.104-3.606.303-3.562.928.174 2.501 1.39 12.167 1.211 14.864-.099 1.491-.586 3.225-1.435 4.552-.543.873-1.516 1.89-2.464 2.476-.815.393-1.253-.474-1.582-2.112-.328-1.639-.547-4.049-.922-6.741-.751-5.384-.88-7.872-2.665-11.109-1.784-3.237-3.544-.491-3.846 1.896.268 2.875 1.496 10.668 1.097 14.783-.495 4.976-3.015 6.613-4.285 6.171-1.271-.443-1.368-1.627-1.403-2.295.132-4.088-.753-9.508-1.04-10.712-.287-1.203-.707-.131-.964.97-.978 4.185-3.314 10.046-7.984 13.782-3.309 1.616-8.565-3.179-8.565-3.179-3.373 9.331-11.354 5.659-12.975 3.648-1.622-2.011-4.348-6.858-3.374-14.04.973-7.181 4.152-11.089 6.747-12.949 2.595-1.859 6.229.731 6.229.731s-.52 1.735-2.077 2.526Zm69.032 9.683s5.71-.13 6.229-6.799c.519-6.669-.066-16.046-3.374-16.378-2.012.005-4.411 2.155-4.152 8.688.259 6.534 1.297 14.489 1.297 14.489Z" fill="#E6E6E6"/><path d="M241.151 321.025s-4.418-8.783-2.401-19.921c2.019-11.14 6.9-21.686 4.992-28.118 0 0 8.319 14.837 5.721 19.291-2.597 4.454 3.547 7.819 3.547 7.819s4.546-1.431 1.084-16.059c-3.46-14.624-7.69-29.672-5.112-41.481 2.579-11.81 8.185-18.536 7.253-23.453 0 0 8.713 9.669 4.849 18.327 0 0 2.64-7.862 1.153-30.22-5.006-15.792 4.473-30.85 4.473-30.85s-.76 14.194 6.747 24.002c7.507 9.808 4.732 27.152.704 33.454-8.054 12.603-4.815 25.4 2.022 32.447 6.836 7.047 39.262 21.982 36.391 39.508-2.87 17.527-4.845 25.259-.944 31.312 3.902 6.051-63.801-2.607-70.479-16.058Z" fill="#FF721C"/><path d="M271.388 198.908s4.92 35.765 14.97 41.132c10.051 5.365 14.531 23.699 15.256 32.82.725 9.12 8.111 26.901 16.71 24.607 8.599-2.294.728-12.046-4.239-11.763 0 0 7.993-5.487 12.595-2.39 4.601 3.094 17.924 4.537 9.45-18.99-8.475-23.524 4.966-21.449-.482-29.011-5.448-7.564-10.293-11.936-14.531-23.698-4.235-11.762-11.987-15.583-4.476-39.496 4.02-14.541 8.366-12.091 1.874-27.179 0 0 12.9 15.114 9.995 26.248-2.908 11.134 4.352 28.275 8.231 27.539 3.874-.735-1.452-7.661 1.212-14.78 2.665-7.121 7.873-16.707 6.663-23.092 0 0 8.211 19.372 11.687-7.192 12.534 21.99 3.811 30.705 9.987 31.518 6.176.811 11.87 14.944 13.565 18.59 1.695 3.646-7.392 13.972 4.233 27.638 11.624 13.669 16.715 14.024 15.5 28.805-1.213 14.781-10.907 21.912.845 25.634 11.746 3.723 12.35 1.621 7.263 11.849-5.087 10.225-42.632 23.965-34.155 31.616 8.475 7.651-41.66 2.617-55.587-2.015-13.927-4.633-12.713-14.121-27.61-18.571-14.896-4.449-24.339-17.206-23.491-28.614.849-11.404 3.927-22.368-.845-30.925-7.011-12.578 3.473-30.112 5.38-50.28Z" fill="#FF8B30"/><path d="M394.097 251.116s25.598 10.183 19.008 30.649c-6.591 20.466-5.912 21.824 1.6 29.408 7.508 7.587-25.809-6.855-22.538-22.758 3.266-15.908 9.91-25.026 1.93-37.299Z" fill="#FF5B2B"/><path d="M309.265 275.076c4.367-6.112 6.53-8.923 13.534-1.687 7.003 7.235 0 0 7.304-6.925 7.309-6.926 9.942 1.863 10.766 3.377 0 0-2.81-17.599 8.738-18.419 0 0 2.679-8.653-6.401-14.049-9.081-5.398-17.411-12.643-15.9-18.915 1.515-6.273-7.785-17.295-7.785-17.295s-.916 11.854-4.246 17.045c-3.33 5.192-5.102 14.383 2.768 22.647 7.867 8.262-.303 14.161-.303 14.161s-1.297-6.919-4.799-10.537c0 0 .389 6.38-6.962 13.791-12.519 12.617-8.727 11.501-5.275 16.327 2.55 3.566 4.196 6.589 8.561.479Z" fill="#FFA923"/><path d="M365.135 212.022s-6.215 7.466-8.109 15.371c-1.896 7.907 8.358 17.28.828 35.686-7.532 18.407-18.402 19.214-18.734 12.989-.333-6.225 9.514-16.898 1.843-30.534-7.672-13.636-18.642-17.844-17.466-20.581 0 0 4.638 11.066 5.089 17.899.446 6.833-5.206 21.738-10.706 24.041-5.499 2.302-17.214 4.191-16.88 10.417.333 6.224 1.943 22.603 18.657 21.316 16.713-1.284 12.121 10.278 21.126 8.569 9.001-1.708 14.297-14.033 21.649-11.028 7.352 3.005 20.539 9.938 33.964 13.678 13.425 3.738 35.166 2.128 35.178-2.276.012-4.404-7.506-4.039-7.089-13.119.722-15.699-8.499-24.887-18.958-29.727 0 0 7.701 14.576.013 21.793-5.633 5.287-3.146 10.242 3.606 19.023 0 0-10.053.646-14.936-7.227-4.882-7.877-9.639-19.552-8.449-26.694 0 0-6.475 15.063-8.877-2.087-2.403-17.152.653-23.39-3.643-32.637-4.299-9.246-11.881-13.465-8.106-24.872Z" fill="#FF743F"/><path d="M383.617 308.962s-17.533-9.992-14.492-23.071c3.041-13.081 6.099-1.817 3.643-9.905 0 0 .87 14.31 6.322 13.935 0 0-.936 4.781-1.401-12.237-.466-17.016 8.026-30.472-.477-41.359 0 0 14.284 2.552 14.854 34.682 0 0-3.401 11.176 5.069 12.198 8.477 1.021 3.464 8.552 9.589 16.601 6.13 8.048 19.238 14.113 23.68 13.27 0-.002-43.412 6.896-46.787-4.114Z" fill="#FFAE49"/><path d="M274.43 207.765s-8.57 17.191 3.277 28.643c11.849 11.452 12.077 12.653 11.482 20.859-.594 8.207 10.062-14.985 1.783-24.621-8.278-9.637-15.416-13.264-16.542-24.881Z" fill="#FF5B2B"/><path d="M287.83 324.25s-21.163-.134-16.881-9.853c1.955-4.434-5.313-9.388.284-16.062 0 0 3.417 15.791 8.942 15.227 0 0-1.191 3.623-.785-9.079.407-12.7 9.679-23.2 1.652-30.902 0 0 14.297 1.169 13.217 25.168 0 0-4.013 8.531 4.492 8.86 8.509.328 3.056 6.215 8.828 11.918 5.777 5.703 18.704 9.562 23.236 8.702-.002-.001-24.831 7.625-42.985-3.979Z" fill="#FFB642"/><path d="m254.129 0-21.75 15.589-9.116 4.21s-31.6 19.893-35.794 21.947c-4.194 2.055-31.257 16.863-38.816 21.603-7.559 4.74-40.186 22.537-40.186 22.537l-36.62 21.316s-20.243 10.171-24.339 12.957c-4.096 2.786-14.916 10.948-25.641 19.84-6.873 5.698-8.698 7.372-16.85 11.282-7.351 5.254-5.63 10.798-1.172 10.289 3.32-1.625 6.51-3.712 8.375-4.625 2.098-1.026 24.38-18.178 24.38-18.178l21.94-14.13s45.308-23.223 47.94-25.812c2.632-2.59 58.662-34.708 58.662-34.708L211.617 38.5l30.135-19.697L254.129 0Z" fill="#7A402D"/><path d="M76.746 71.514s-6.337 8.303 1.579 22.893c7.916 14.59 13.929 31.671 30.901 24.921 16.972-6.751 63.597-25.68 56.219-41.832-7.379-16.15-16.231-43.287-36.568-33.849-20.337 9.438-43.841 23.027-52.13 27.867Z" fill="#E6CDB1"/><path d="M155.778 59.414s13.079 21.767 10.615 25.038c-2.464 3.272-53.693 38.083-62.831 34.898-9.14-3.185-19.633-16.478-19.633-16.478s27.161 2.235 33.226-6.665c6.065-8.9 14.428-11.494 25.064-18.802 10.636-7.306 13.559-17.991 13.559-17.991Z" fill="#E0B890"/><path d="M163.615 47.182c10.163 20.251 17.008 37.966 37.781 26.233 20.774-11.733 49.159-22.251 40.315-38.208-8.843-15.956-12.377-42.315-34.516-29.652-22.14 12.663-53.743 21.377-43.58 41.627Z" fill="#E6CDB1"/><path d="M176.347 61.892s8.046 17.392 19.141 12.873c11.09-4.516 44.617-24.967 43.739-29.222-.882-4.258-3.672-17.751-3.672-17.751s-12.331 9.964-22.534 9.856c-10.2-.107-11.491 6.081-18.742 11.283-7.251 5.202-20.759 10.96-20.759 10.96l2.827 2.001Z" fill="#E0B890"/></g><defs><clipPath id="a"><path fill="#fff" d="M0 0h570v366H0z"/></clipPath></defs></svg>