<svg width="468" height="471" viewBox="0 0 468 471" fill="none" xmlns="http://www.w3.org/2000/svg">
<g clip-path="url(#clip0_4_2)">
<rect x="30.5" y="31.5" width="421" height="421" rx="6.5" stroke="white"/>
<rect x="12.5" y="12.5" width="445" height="445" rx="54.5" fill="#36090F" stroke="#EC3750" stroke-width="25"/>
<path d="M237.472 334V163.2H207.948V232.252H140.848V163.2H111.812V334H140.848V259.092H207.948V334H237.472ZM324.862 201.996C280.21 201.996 264.594 240.304 264.594 268.852C264.594 300.816 283.382 337.66 325.838 337.66C345.114 337.66 367.318 329.608 378.298 309.356L355.118 296.18C349.506 307.16 337.55 312.528 325.838 312.528C305.342 312.528 293.63 293.74 293.63 268.852C293.874 244.696 304.122 227.128 324.862 227.128C337.55 227.128 349.262 237.132 349.262 253.724H376.59C376.59 233.472 361.462 201.996 324.862 201.996Z" fill="#EC3750"/>
</g>
<defs>
<clipPath id="clip0_4_2">
<rect width="468" height="471" fill="white"/>
</clipPath>
</defs>
</svg>
