<svg width="128" height="128" viewBox="0 0 128 128" fill="none" xmlns="http://www.w3.org/2000/svg">
<g clip-path="url(#clip0_14_2)">
<rect width="128" height="128" rx="12" fill="#C0362C"/>
<g clip-path="url(#clip1_14_2)">
<path d="M39.2716 27.8156C38.5101 27.8156 37.8941 27.1996 37.8941 26.4381C37.8941 24.1608 36.0388 22.3053 33.7613 22.3053C32.2878 22.3053 30.9163 23.0978 30.1796 24.3701C29.7978 25.0295 28.9527 25.2575 28.2995 24.8726C27.6401 24.4939 27.4152 23.6488 27.797 22.9925C29.0239 20.8659 31.3106 19.5503 33.7601 19.5503C37.5606 19.5503 40.6478 22.6386 40.6478 26.438C40.6488 27.2026 40.0328 27.8155 39.2713 27.8155L39.2716 27.8156Z" fill="#FFF8F2"/>
<path d="M39.2716 27.8156C38.5101 27.8156 37.8941 27.1996 37.8941 26.4381C37.8941 22.6376 40.9824 19.5504 44.7817 19.5504C47.2314 19.5504 49.5192 20.8691 50.7449 22.9927C51.1267 23.6489 50.9017 24.494 50.2424 24.8727C49.5892 25.2514 48.7441 25.0296 48.3623 24.3702C47.6255 23.0948 46.2542 22.3055 44.7806 22.3055C42.5032 22.3055 40.6478 24.1608 40.6478 26.4382C40.6488 27.2028 40.0328 27.8158 39.2713 27.8158L39.2716 27.8156Z" fill="#FFF8F2"/>
<path d="M42.0268 27.8156H36.5167C35.7552 27.8156 35.1392 27.1996 35.1392 26.4381C35.1392 25.6766 35.7552 25.0606 36.5167 25.0606H42.0268C42.7883 25.0606 43.4043 25.6766 43.4043 26.4381C43.4053 27.1996 42.7883 27.8156 42.0268 27.8156Z" fill="#FFF8F2"/>
<path d="M1.43906 69.8984C0.0606079 69.8984 -1.93848 69.8984 -1.93848 68.5209C-1.93848 67.1434 -1.43939 67.0221 1.43906 67.1434C37.2643 67.1434 64.7922 61.9936 83.2569 47.8847C83.8606 47.4255 84.7273 47.5369 85.1896 48.1437C85.6519 48.7473 85.5374 49.6141 84.9306 50.0764C65.9741 64.5546 37.8866 69.8983 1.44063 69.8983L1.43906 69.8984Z" fill="#FFF8F2"/>
<path d="M100.622 31.8097C100.388 31.8097 100.154 31.7509 99.9383 31.6312C99.279 31.2525 99.0478 30.4136 99.4235 29.7511C100.595 27.7049 101.618 25.5875 102.459 23.4702C102.743 22.7644 103.534 22.4291 104.249 22.6994C104.955 22.9832 105.297 23.7839 105.02 24.4897C104.127 26.7237 103.051 28.9527 101.818 31.1122C101.562 31.56 101.097 31.8097 100.622 31.8097V31.8097Z" fill="#FFF8F2"/>
<path d="M-0.56385 81.0664C-1.2294 81.0664 -1.81551 80.5824 -1.92281 79.9045C-2.03942 79.1522 -1.52864 78.4465 -0.776419 78.3268C19.0859 75.1899 51.0947 71.8724 82.5191 70.4452C82.5407 70.4421 82.5624 70.4421 82.581 70.4421C83.3115 70.4421 83.9245 71.0189 83.9554 71.7577C83.9895 72.5161 83.4034 73.1631 82.6429 73.1941C51.3189 74.6242 19.4208 77.9295 -0.346188 81.0477C-0.421516 81.0601 1.50832 81.0662 1.43402 81.0662L-0.56385 81.0664Z" fill="#FFF8F2"/>
<path d="M-0.56385 89.2664C-1.2294 89.2664 -1.81551 88.7824 -1.92281 88.1045C-2.03942 87.3523 -1.52864 86.6465 -0.776419 86.5268C19.0859 83.3899 51.0947 80.0724 82.5191 78.6452C82.5407 78.6421 82.5624 78.6421 82.581 78.6421C83.3115 78.6421 83.9245 79.2189 83.9554 79.9577C83.9895 80.7161 83.4034 81.3631 82.6429 81.3941C51.3189 82.8243 19.4208 86.1295 -0.346188 89.2477C-0.421516 89.2601 1.50832 89.2662 1.43402 89.2662L-0.56385 89.2664Z" fill="#FFF8F2"/>
<path d="M89.6018 72.8388C88.865 72.8388 88.2552 72.2569 88.2242 71.5139C88.1964 70.7524 88.7887 70.1147 89.5491 70.0837C114.596 69.153 133.495 69.1406 133.682 69.1406C134.444 69.1406 135.06 69.7566 135.06 70.5182C135.06 71.2797 134.444 71.8957 133.682 71.8957C133.494 71.8957 114.645 71.905 89.6522 72.8388H89.6037L89.6018 72.8388Z" fill="#FFF8F2"/>
<path d="M89.6018 81.1044C88.865 81.1044 88.2552 80.5224 88.2242 79.7795C88.1964 79.0179 88.7887 78.3802 89.5491 78.3493C114.596 77.4185 133.495 77.4061 133.682 77.4061C134.444 77.4061 135.06 78.0222 135.06 78.7837C135.06 79.5452 134.444 80.1612 133.682 80.1612C133.494 80.1612 114.645 80.1705 89.6522 81.1043H89.6037L89.6018 81.1044Z" fill="#FFF8F2"/>
<path d="M111.643 124.244C110.882 124.244 110.266 123.628 110.266 122.867V84.2968V79.6989L113.021 84.2968V122.869C113.021 123.627 112.405 124.244 111.643 124.244ZM106.133 124.244C105.372 124.244 104.756 123.628 104.756 122.867V84.2968V79.6989L106.133 81.9979L107.511 84.2968V122.869C107.511 123.627 106.895 124.244 106.133 124.244ZM89.6026 124.244C88.841 124.244 88.225 123.628 88.225 122.867V66.1279C88.225 63.2346 90.5829 60.8767 93.4762 60.8767H102.26C105.153 60.8767 107.511 63.2346 107.511 66.1279V70.9446C107.511 71.7061 106.895 72.3221 106.133 72.3221C105.372 72.3221 104.756 71.7061 104.756 70.9446V66.1279C104.756 64.7504 103.637 63.6319 102.26 63.6319H93.4763C92.0988 63.6319 90.9802 64.7504 90.9802 66.1279V122.867C90.9802 123.627 90.363 124.244 89.6026 124.244ZM84.0914 124.244C83.3299 124.244 82.7139 123.628 82.7139 122.867V26.4381C82.7139 25.6766 83.3299 25.0606 84.0914 25.0606C84.8529 25.0606 85.469 25.6766 85.469 26.4381V122.867C85.47 123.627 84.8529 124.244 84.0914 124.244ZM111.643 72.1917C110.882 72.1917 110.266 71.5756 110.266 70.8141V16.7989H106.642C105.563 17.6554 102.629 19.5541 97.8676 19.5541C93.1067 19.5541 90.1719 17.6555 89.0936 16.7989H84.092C83.3305 16.7989 82.7145 16.1829 82.7145 15.4214C82.7145 14.6599 83.3305 14.0439 84.092 14.0439H89.6021C89.9684 14.0439 90.3172 14.1883 90.5762 14.4473C90.669 14.5371 93.0599 16.7989 97.8675 16.7989C102.675 16.7989 105.067 14.5371 105.165 14.438C105.421 14.1914 105.772 14.0438 106.13 14.0438H111.64C112.401 14.0438 113.017 14.6599 113.017 15.4214V70.8181C113.02 71.5765 112.405 72.1917 111.643 72.1917ZM102.259 58.1231H93.4762C90.5829 58.1231 88.225 55.7653 88.225 52.8719V46.8438C88.225 43.9504 90.5828 41.5926 93.4762 41.5926H102.259C105.153 41.5926 107.511 43.9504 107.511 46.8438V52.8719C107.511 55.7652 105.153 58.1231 102.259 58.1231ZM93.4762 44.3467C92.0986 44.3467 90.9801 45.4652 90.9801 46.8428V52.8709C90.9801 54.2484 92.0986 55.367 93.4762 55.367H102.259C103.637 55.367 104.756 54.2484 104.756 52.8709V46.8428C104.756 45.4652 103.637 44.3467 102.259 44.3467H93.4762ZM95.1127 38.8366H93.4762C90.5829 38.8366 88.225 36.4788 88.225 33.5854V29.1937C88.225 28.4322 88.841 27.8162 89.6025 27.8162C90.364 27.8162 90.98 28.4322 90.98 29.1937V33.5854C90.98 34.9629 92.0986 36.0815 93.4761 36.0815H95.1127C95.8742 36.0815 96.4902 36.6975 96.4902 37.459C96.4902 38.2205 95.8742 38.8366 95.1127 38.8366ZM105.967 36.0814C105.835 36.0814 105.702 36.0628 105.57 36.0226C104.839 35.8008 104.43 35.033 104.648 34.3056C104.719 34.0744 104.754 33.8309 104.754 33.5843V27.5562C104.754 26.1786 103.635 25.0601 102.257 25.0601L95.1127 25.0611C94.3512 25.0611 93.7352 24.4451 93.7352 23.6836C93.7352 22.9221 94.3512 22.3061 95.1127 22.3061H102.26C105.153 22.3061 107.511 24.6639 107.511 27.5573V33.5854C107.511 34.1034 107.436 34.6152 107.289 35.1012C107.107 35.6997 106.558 36.0814 105.967 36.0814Z" fill="#FFF8F2"/>
<path d="M107.511 79.6989H104.756L106.133 81.9979L107.511 84.2968V79.6989Z" fill="#FFF8F2"/>
<path d="M110.266 79.6989L113.021 84.2968V79.6989H110.266Z" fill="#FFF8F2"/>
<path d="M92.3569 129.754C91.5954 129.754 90.9794 129.138 90.9794 128.377V124.244H82.7141V128.377C82.7141 129.138 82.0981 129.754 81.3366 129.754C80.5751 129.754 79.9591 129.138 79.9591 128.377V122.867C79.9591 122.105 80.5751 121.489 81.3366 121.489H92.357C93.1186 121.489 93.7346 122.105 93.7346 122.867V128.377C93.7346 129.138 93.1175 129.754 92.357 129.754H92.3569Z" fill="#FFF8F2"/>
<path d="M114.398 129.754C113.637 129.754 113.021 129.138 113.021 128.377V124.244H104.756V128.377C104.756 129.138 104.14 129.754 103.378 129.754C102.616 129.754 102 129.138 102 128.377V122.867C102 122.105 102.616 121.489 103.378 121.489H114.398C115.16 121.489 115.776 122.105 115.776 122.867V128.377C115.776 129.138 115.16 129.754 114.398 129.754H114.398Z" fill="#FFF8F2"/>
<path d="M1.43906 60.3881C-0.272189 60.3881 -1.43939 60.5221 -1.43939 59.0221C-1.43939 57.5221 -0.511946 57.633 1.43906 57.633C68.4931 57.633 82.6309 15.5376 82.7656 15.0516C82.9163 14.5119 83.3785 14.1146 83.9399 14.0496C84.4857 13.998 85.0367 14.2715 85.305 14.7647C85.4928 15.1155 104.564 49.8582 133.683 49.8582C134.445 49.8582 135.061 50.4742 135.061 51.2357C135.061 51.9972 134.445 52.6133 133.683 52.6133C107.401 52.6133 89.5422 27.0498 84.3884 18.6609C80.071 29.3768 60.8556 60.3891 1.43729 60.3891L1.43906 60.3881Z" fill="#FFF8F2"/>
<path d="M133.682 47.1019C110.534 47.1019 110.263 15.7356 110.263 15.416C110.263 14.6545 110.879 14.0385 111.64 14.0385C112.402 14.0385 113.018 14.6545 113.018 15.416C113.018 16.5965 113.283 44.3467 133.682 44.3467C134.444 44.3467 135.06 44.9627 135.06 45.7242C135.06 46.4857 134.444 47.1017 133.682 47.1017L133.682 47.1019Z" fill="#FFF8F2"/>
<path d="M78.5811 110.468H1.43879C0.677268 110.468 0.0612488 109.852 0.0612488 109.091C0.0612488 108.329 0.677268 107.713 1.43879 107.713H78.5811C79.3426 107.713 79.9586 108.329 79.9586 109.091C79.9586 109.855 79.3426 110.468 78.5811 110.468Z" fill="#FFF8F2"/>
<path d="M133.682 110.468H117.151C116.39 110.468 115.774 109.852 115.774 109.091C115.774 108.329 116.39 107.713 117.151 107.713H133.682C134.443 107.713 135.059 108.329 135.059 109.091C135.059 109.855 134.443 110.468 133.682 110.468Z" fill="#FFF8F2"/>
<path d="M73.0707 118.734H45.5189C44.7574 118.734 44.1414 118.118 44.1414 117.356C44.1414 116.595 44.7574 115.979 45.5189 115.979H73.0707C73.8322 115.979 74.4482 116.595 74.4482 117.356C74.4482 118.117 73.8322 118.734 73.0707 118.734Z" fill="#FFF8F2"/>
<path d="M34.5009 124.244H20.7256C19.964 124.244 19.348 123.628 19.348 122.867C19.348 122.105 19.964 121.489 20.7256 121.489H34.5009C35.2624 121.489 35.8784 122.105 35.8784 122.867C35.8753 123.627 35.2624 124.244 34.5009 124.244Z" fill="#FFF8F2"/>
<path d="M20.725 47.1019H9.70353C8.94201 47.1019 8.32599 46.4858 8.32599 45.7243C8.32599 44.9628 8.94201 44.3468 9.70353 44.3468H20.724C21.4855 44.3468 22.1015 44.9628 22.1015 45.7243C22.1025 46.4858 21.4855 47.1019 20.725 47.1019H20.725Z" fill="#FFF8F2"/>
<path d="M105.775 113.022H90.3463C89.6356 113.022 89.0606 112.575 89.0606 112.022C89.0606 111.469 89.6356 111.022 90.3463 111.022H105.775C106.486 111.022 107.061 111.469 107.061 112.022C107.061 112.575 106.486 113.022 105.775 113.022Z" fill="#FFF8F2"/>
<path d="M106.003 104.022H89.7177C88.9675 104.022 88.3606 103.575 88.3606 103.022C88.3606 102.469 88.9675 102.022 89.7177 102.022H106.003C106.754 102.022 107.361 102.469 107.361 103.022C107.361 103.575 106.754 104.022 106.003 104.022Z" fill="#FFF8F2"/>
<path d="M105.663 104.878L90.9033 111.761C90.2233 112.078 89.4843 111.929 89.2507 111.428C89.0171 110.927 89.3781 110.266 90.058 109.949L104.818 103.066C105.498 102.749 106.237 102.898 106.471 103.399C106.704 103.9 106.343 104.561 105.663 104.878Z" fill="#FFF8F2"/>
<path d="M90.0581 104.878L104.818 111.761C105.498 112.078 106.237 111.929 106.471 111.428C106.704 110.927 106.343 110.266 105.663 109.949L90.9033 103.066C90.2233 102.749 89.4843 102.898 89.2507 103.399C89.0171 103.9 89.3781 104.561 90.0581 104.878Z" fill="#FFF8F2"/>
<path d="M105.775 104.022H90.3463C89.6356 104.022 89.0606 103.575 89.0606 103.022C89.0606 102.469 89.6356 102.022 90.3463 102.022H105.775C106.486 102.022 107.061 102.469 107.061 103.022C107.061 103.575 106.486 104.022 105.775 104.022Z" fill="#FFF8F2"/>
<path d="M106.003 95.0221H89.7177C88.9675 95.0221 88.3606 94.5749 88.3606 94.0221C88.3606 93.4693 88.9675 93.0221 89.7177 93.0221H106.003C106.754 93.0221 107.361 93.4693 107.361 94.0221C107.361 94.5749 106.754 95.0221 106.003 95.0221Z" fill="#FFF8F2"/>
<path d="M105.663 95.8785L90.9033 102.761C90.2233 103.078 89.4843 102.929 89.2507 102.428C89.0171 101.927 89.3781 101.266 90.058 100.949L104.818 94.0659C105.498 93.7488 106.237 93.8976 106.471 94.3986C106.704 94.8996 106.343 95.5614 105.663 95.8785Z" fill="#FFF8F2"/>
<path d="M90.0581 95.8785L104.818 102.761C105.498 103.078 106.237 102.929 106.471 102.428C106.704 101.927 106.343 101.266 105.663 100.949L90.9033 94.0659C90.2233 93.7488 89.4843 93.8976 89.2507 94.3986C89.0171 94.8996 89.3781 95.5614 90.0581 95.8785Z" fill="#FFF8F2"/>
<path d="M105.775 95.0221H90.3463C89.6356 95.0221 89.0606 94.5749 89.0606 94.0221C89.0606 93.4693 89.6356 93.0221 90.3463 93.0221H105.775C106.486 93.0221 107.061 93.4693 107.061 94.0221C107.061 94.5749 106.486 95.0221 105.775 95.0221Z" fill="#FFF8F2"/>
<path d="M105.663 86.8785L90.9033 93.7611C90.2233 94.0782 89.4843 93.9294 89.2507 93.4284C89.0171 92.9274 89.3781 92.2656 90.058 91.9485L104.818 85.0659C105.498 84.7488 106.237 84.8976 106.471 85.3986C106.704 85.8996 106.343 86.5614 105.663 86.8785Z" fill="#FFF8F2"/>
<path d="M90.0581 86.8785L104.818 93.7611C105.498 94.0782 106.237 93.9294 106.471 93.4284C106.704 92.9274 106.343 92.2656 105.663 91.9485L90.9033 85.0659C90.2233 84.7488 89.4843 84.8976 89.2507 85.3986C89.0171 85.8996 89.3781 86.5614 90.0581 86.8785Z" fill="#FFF8F2"/>
</g>
</g>
<defs>
<clipPath id="clip0_14_2">
<rect width="128" height="128" rx="12" fill="white"/>
</clipPath>
<clipPath id="clip1_14_2">
<rect width="128" height="129" fill="white" transform="translate(0.0606079 3.02206)"/>
</clipPath>
</defs>
</svg>
