<svg width="256" height="256" fill="none" xmlns="http://www.w3.org/2000/svg"><g clip-path="url(#a)"><mask id="b" mask-type="alpha" maskUnits="userSpaceOnUse" x="0" y="0" width="256" height="256"><path fill-rule="evenodd" clip-rule="evenodd" d="M128 256c102.4 0 128-25.6 128-128S230.4 0 128 0 0 25.6 0 128s25.6 128 128 128Z" fill="#000"/></mask><g mask="url(#b)"><path fill="#F3EACF" d="m294.122-45.106 7.509 47.409-378.213 59.903-7.509-47.409z"/><path fill="#D7B191" d="m302.619 2.147 7.508 47.409-379.272 60.07-7.509-47.409z"/><path fill="#AF835A" d="m310.127 49.556 7.508 47.409-379.272 60.07-7.509-47.409z"/><path fill="#8D603C" d="m317.636 96.965 7.509 47.409-379.273 60.07-7.509-47.408z"/><path fill="#603C1D" d="m325.145 144.374 7.509 47.409-379.272 60.07-7.51-47.408z"/><path fill="#36291D" d="m332.654 191.783 7.509 47.409-379.272 60.07-7.51-47.408z"/><path d="M112.84 32 71 39.104V224h41.84v-69.951c0-20.584 10.915-33.335 20.011-33.335 8.186 0 10.551 8.197 10.551 20.584V224h42.022v-88.713c0-28.054-10.551-46.088-38.02-46.088-12.916 0-25.468 3.644-34.564 11.841V32Z" fill="#fff"/></g></g><defs><clipPath id="a"><path fill="#fff" transform="rotate(90 128 128)" d="M0 0h256v256H0z"/></clipPath></defs></svg>