<svg width="1250" height="1248" fill="none" xmlns="http://www.w3.org/2000/svg"><path d="M0 997.53C0 1135.87 112.043 1248 250.266 1248h749.468C1137.96 1248 1250 1135.87 1250 997.53V250.47C1250 112.142 1137.96 0 999.734 0H250.266C112.044 0 0 112.142 0 250.47v747.06Z" fill="#fff"/><path d="M966.466 1183H604.5V64h361.966C1088.82 64 1188 163.21 1188 285.587v675.826C1188 1083.8 1088.82 1183 966.466 1183Z" fill="#fff" stroke="#806E23" stroke-width="10"/><path d="M288.069 1183H629V64H288.069C165.717 64 66.535 163.21 66.535 285.587v675.826C66.535 1083.8 165.717 1183 288.07 1183Z" fill="#FFDD46" stroke="#806E23" stroke-width="10"/><path d="m815.827 660.889.002.003c2.215 4.074.702 9.178-3.376 11.389l-.002.001c-24.191 13.107-42.847 35.577-55.555 55.602l-.002.002c-12.693 19.961-19.298 37.085-19.938 38.797l-.01.027-.011.027-.051.129a8.417 8.417 0 0 1-5.883 5.226l-.011.003-.012.003a8.414 8.414 0 0 1-7.651-1.984l-.004-.003-43.118-39.72-.001-.001c-3.41-3.143-3.623-8.455-.479-11.867a8.392 8.392 0 0 1 11.865-.491l34.351 31.65a262.06 262.06 0 0 1 15.484-28.754l.001-.003c13.55-21.732 34.199-47.726 63.014-63.405l.004-.003c4.082-2.213 9.167-.696 11.383 3.372Z" fill="#6CC67A" stroke="#6CC67A" stroke-width="7"/><path d="m789.296 124.227-.009.007c-7.178 5.841-15.811 16.299-24.481 28.831l-.002.003c-6.501 9.374-12.964 19.771-19.023 30.121l53.398 30.73.051.029.05.031c3.938 2.446 5.16 7.626 2.718 11.571-2.435 3.934-7.581 5.143-11.516 2.75l-53.031-30.51a861.9 861.9 0 0 0-8.161 15.035l-.001.002a904.393 904.393 0 0 0-11.565 22.571l-.002.003a713.086 713.086 0 0 0-3.215 6.571l-.002.006a296.07 296.07 0 0 0-.839 1.744l-.211.442-.053.11-.013.027-.002.005 75.909-120.079Zm0 0a8.403 8.403 0 0 0 1.176-11.822c-2.935-3.588-8.231-4.14-11.825-1.193l-.001.001c-9.244 7.588-18.588 19.212-27.654 32.262l-.002.003c-6.768 9.763-13.389 20.423-19.552 30.941l-44.839-27.828h-.001a8.395 8.395 0 0 0-11.567 2.715l2.976 1.842-2.976-1.842c-2.442 3.945-1.22 9.125 2.718 11.571l.001.001 45.339 28.137a935.313 935.313 0 0 0-17.36 32.781c-4.703 9.318-7.526 15.298-7.516 15.277l-.011.023-.011.022c-1.988 4.206-.177 9.205 4.006 11.191l.005.002a8.392 8.392 0 0 0 11.184-4.002l75.91-120.082Z" fill="#E24751" stroke="#E24751" stroke-width="7"/><path d="M303.859 736.018c-4.021-.005-7.673.836-10.817 2.034-4.723 1.808-8.352 4.412-10.869 6.56-2.511 2.154-3.923 3.876-4.113 4.113a6.533 6.533 0 0 0 .997 9.187 6.528 6.528 0 0 0 9.158-.968s.443-.53 1.25-1.313c1.215-1.181 3.26-2.898 5.765-4.24 2.523-1.347 5.432-2.309 8.629-2.309 3.26.023 6.98.916 11.583 4.083a6.54 6.54 0 0 0 9.094-1.641 6.536 6.536 0 0 0-1.647-9.095c-6.468-4.521-13.092-6.434-19.03-6.411Zm106.522 16.911a6.54 6.54 0 0 0 .184-9.244c-5.639-5.875-11.497-9.982-17.366-12.58-5.863-2.609-11.704-3.686-17.135-3.68-10.754.023-19.757 4.032-26.075 7.874-6.336 3.864-10.086 7.654-10.345 7.908a6.531 6.531 0 0 0 .064 9.238 6.53 6.53 0 0 0 9.221-.046l.127-.121c.679-.662 4.02-3.732 8.922-6.525 4.913-2.811 11.289-5.276 18.086-5.259 3.749.006 7.666.708 11.836 2.551 4.159 1.849 8.605 4.873 13.242 9.694a6.533 6.533 0 0 0 9.239.19ZM539.792 1041.1c-1.595 2.41-4.222 4.65-6.802 6.37-.478-3.93-1.308-7.86-2.575-11.68.478-.2.979-.41 1.509-.61 1.423-.56 3.001-1.1 4.493-1.47 1.492-.38 2.909-.58 3.899-.57.605-.01 1.049.07 1.256.13l.046.02c.058.16.156.52.19 1.18l.012.51c-.012 2.22-.703 4.14-2.028 6.12Zm-10.88-24.9c-1.152 2.21-3.064 4.54-4.873 6.4-1.054-1.6-2.183-3.18-3.427-4.67-1.895-2.28-4.055-4.39-6.388-6.33.127-.06.254-.11.386-.17 1.895-.83 4.009-1.62 6.042-2.18 2.028-.57 3.986-.88 5.466-.88 1.21 0 2.051.2 2.5.41.461.24.622.35.962.88.484.83.616 1.42.634 2.24.011 1.06-.392 2.59-1.302 4.3Zm-12.182 55.67c-2.396 4.84-5.743 8.44-9.994 10.57-6.641 3.31-13.345 4.79-19.854 4.8-21.53.03-41.349-16.54-45.013-40.19-.322-2.1-.472-4.03-.472-5.82.017-4.66.974-8.32 2.46-11.39a6.512 6.512 0 0 0 3.45-5.22c3.352-3.87 7.764-6.61 11.738-8.36 1.337-.6 2.586-1.07 3.721-1.45 1.106.36 2.327.46 3.554.16 5.299-1.26 10.126-1.82 14.497-1.82 6.929.01 12.707 1.38 17.597 3.68 7.309 3.45 12.735 9.02 16.444 15.77 3.698 6.74 5.57 14.63 5.564 22.16.006 6.3-1.308 12.3-3.692 17.11Zm-12.632-78.497c-.086.328-.172.656-.282 1.008-.806 2.597-2.142 5.649-3.266 7.959-.195.39-.362.73-.541 1.07-4.533-1.67-9.498-2.72-14.849-3.1 4.936-2.773 11.209-5.388 18.938-6.937Zm50.756 40.447c-.104-2.08-.507-4.07-1.325-5.92-1.198-2.8-3.502-5.09-5.978-6.28-2.062-1-4.113-1.39-6.054-1.49 1.037-2.46 1.774-5.2 1.78-8.23.017-2.95-.772-6.13-2.488-8.97-1.63-2.75-4.119-4.869-6.763-6.044-2.649-1.198-5.356-1.578-7.908-1.584-3.248.006-6.33.611-9.227 1.429-.063.017-.121.04-.184.057.541-1.987.939-4.02.956-6.255-.006-1.071-.098-2.2-.415-3.415a10.472 10.472 0 0 0-1.181-2.817c-.846-1.423-2.252-2.77-3.864-3.554-.571-.288-1.152-.484-1.734-.656-8.669-8.554-14.521-15.408-18.08-21.807-3.75-6.768-5.322-13.058-5.363-21.887-.023-11.324 2.972-26.662 8.128-49.31 5.483-24.18 7.579-42.11 7.579-59.355-.005-12.314-1.059-24.208-2.603-37.767-1.549-13.576-3.588-28.839-5.627-48.089-1.377-13.103-6.497-24.692-14.072-34.403-11.387-14.584-28.073-25.09-46.568-32.065-18.523-6.964-38.942-10.402-58.243-10.408-19.986.023-38.775 3.634-53.175 11.514-12.124 6.675-23.742 16.749-34.547 28.563-16.179 17.74-30.487 39.478-40.883 60.052-5.195 10.292-9.406 20.297-12.355 29.432-2.943 9.158-4.671 17.401-4.694 24.577 0 1.285.057 2.529.184 3.75.38 3.744 1.4 7.234 2.995 10.345 2.805 5.477 7.309 9.607 12.516 12.562 7.845 4.435 17.366 6.624 27.734 7.908 10.368 1.256 21.622 1.509 32.814 1.515 7.407 0 14.762-.115 21.783-.15 1.336 2.477 3.249 6.319 5.167 11.214 3.392 8.64 6.675 20.373 6.67 32.785-.006 7.321-1.118 14.872-3.963 22.331-6.872 18.017-13.749 30.02-21.951 40.204-8.196 10.177-17.919 18.679-30.619 29.185-7.136 5.932-14.227 14.793-21.19 25.823-10.403 16.53-20.356 37.91-27.786 61.05-7.418 23.13-12.308 47.99-12.32 71.48 0 .8.006 1.59.023 2.39a6.533 6.533 0 0 0 6.624 6.44 6.538 6.538 0 0 0 6.439-6.63c-.011-.73-.017-1.46-.017-2.2-.023-28.9 8.19-61.39 19.532-88.95 5.656-13.78 12.089-26.35 18.558-36.61 6.445-10.27 13.017-18.25 18.466-22.73 12.798-10.593 23.298-19.682 32.462-31.046 9.17-11.353 16.796-24.848 23.99-43.752 3.484-9.147 4.815-18.333 4.815-26.985-.012-14.929-3.905-28.298-7.747-38.014a124.264 124.264 0 0 0-2.972-6.849c6.739-1.1 12.746-3.197 17.953-5.944 11.652-6.146 19.365-15.189 24.209-22.607 4.844-7.436 6.865-13.346 6.992-13.703a6.519 6.519 0 0 0-4.084-8.282 6.52 6.52 0 0 0-8.276 4.066c-.024.104-3.232 9.077-10.731 17.596-3.744 4.274-8.525 8.433-14.48 11.514-5.967 3.076-13.115 5.138-21.98 5.144-8.294 0-16.985.161-25.567.161-16.71.023-33.114-.674-44.754-3.98-5.829-1.624-10.351-3.877-13.271-6.532-1.474-1.33-2.58-2.753-3.41-4.366-.829-1.613-1.388-3.444-1.624-5.714a23.538 23.538 0 0 1-.115-2.419c-.006-3.317.587-7.666 1.803-12.642 2.108-8.727 6.082-19.371 11.456-30.62 8.058-16.887 19.272-35.186 31.967-51.083 12.672-15.915 26.91-29.393 40.48-36.829 11.554-6.399 28.517-9.924 46.879-9.901 23.656-.023 49.604 5.754 69.659 16.934 10.04 5.581 18.593 12.47 24.842 20.505 6.25 8.046 10.259 17.176 11.388 27.751 2.056 19.433 4.112 34.806 5.638 48.186 1.527 13.386 2.517 24.733 2.517 36.293-.005 16.174-1.918 32.894-7.257 56.469-5.143 22.798-8.415 38.66-8.444 52.196-.034 10.483 2.166 19.669 7.021 28.269 3.335 5.938 7.799 11.594 13.45 17.671-9.187 2.73-16.468 6.67-21.773 10.391-4.803 3.363-8.029 6.503-9.82 8.432-3.249.81-9.337 2.68-15.707 6.66-3.761 2.35-7.597 5.56-10.863 9.73h-10.137a6.544 6.544 0 0 0-5.662 3.28c-.023.03-5.322 9.27-13.11 23.69a7.069 7.069 0 0 1-.743-1.11c-.455-.89-.783-1.94-.794-3.56 0-1.5.322-3.54 1.365-6.23 1.555-4.02 4.763-9.45 10.546-16.25 5.777-6.81 14.094-14.98 25.717-24.608a6.531 6.531 0 0 0 .859-9.198 6.534 6.534 0 0 0-9.199-.864c-16.07 13.334-26.449 24.24-32.992 33.45-3.272 4.62-5.581 8.82-7.108 12.74-1.526 3.91-2.252 7.57-2.252 10.96-.011 3.87.991 7.35 2.552 10.11 1.624 2.89 3.709 4.93 5.708 6.43-3.819 7.23-7.966 15.24-12.24 23.73-8.357 16.62-17.164 35.06-24.778 53-6.745 15.89-12.557 31.37-16.318 45.04h13.593c3.542-12 8.726-25.76 14.751-39.94 11.191-26.37 25.159-54.15 36.304-75.28.72-1.35 1.423-2.68 2.114-3.99a6.476 6.476 0 0 0 2.177-3.37c.087-.34.121-.66.156-.99 3.715-6.93 6.963-12.86 9.48-17.4 1.285-2.32 2.379-4.27 3.249-5.81a40.847 40.847 0 0 0-1.175 9.85c0 2.5.201 5.1.628 7.83 4.654 29.83 29.657 51.21 57.92 51.24 3.698 0 7.448-.39 11.192-1.16-4.049 7.88-11.042 19.45-22.936 34.6-14.44 18.38-24.491 34.07-30.596 44.42h15.281c5.938-9.54 14.376-22.09 25.585-36.35 20.516-26.1 27.543-42.71 29.732-49.11 5.881-3.65 10.327-8.98 13.305-15.04 2.316-4.7 3.738-9.87 4.464-15.22a52.721 52.721 0 0 0 9.268-5.44c2.931-2.18 5.984-4.95 8.449-8.58 2.448-3.61 4.268-8.22 4.263-13.44 0-.39-.012-.78-.035-1.16Z" fill="#FF6A3A"/><path d="m426.002 1038.29-13 24 13.5-6-.5-18ZM466.502 985.287l-33.5-14.5-54 65.503 21.5 21.5 10.5-19 12-21.5 43.5-32.003Z" fill="#FFDD46"/><path d="M343.665 462.312c4.879.005 8.755.921 12.107 2.551 2.512 1.233 4.764 2.886 6.883 5.057 3.174 3.255 6.031 7.713 8.559 13.357 2.529 5.639 4.723 12.43 6.682 20.154 1.255 4.948 1.82 9.624 1.82 13.944 0 9.729-2.874 17.614-7.131 22.878-2.131 2.633-4.59 4.631-7.28 5.979-2.69 1.342-5.604 2.062-8.801 2.068-3.398-.006-7.142-.83-11.197-2.805-4.049-1.97-8.392-5.115-12.81-9.711-14.06-14.63-21.265-29.652-25.009-41.58-2.655-8.462-3.531-15.293-3.813-19.25 17.366-8.881 30.579-12.683 39.99-12.642Zm-89.801 107.985c4.303-5.046 7.534-8.744 10.028-11.687 1.866-2.212 3.329-3.997 4.544-5.691.91-1.267 1.694-2.505 2.339-3.819.985-1.964 1.555-4.118 1.762-6.088.219-1.987.202-3.784.208-5.909-.023-.444.207-1.786.881-3.502 1.163-3.036 3.525-7.188 6.411-11.439 4.331-6.417 9.797-13.173 14.157-18.265a265.25 265.25 0 0 1 2.005-2.321c4.504 12.896 12.539 28.356 26.875 43.262 5.322 5.53 10.863 9.648 16.508 12.401 4.026 1.97 8.109 3.203 12.135 3.761l-48.307 45.762c-2.621 2.482-2.736 6.618-.254 9.233a6.534 6.534 0 0 0 9.239.253l68.513-64.901c.824-.784 1.365-1.728 1.694-2.736a40.86 40.86 0 0 0 4.429-6.647c3.721-6.992 5.748-15.379 5.748-24.589 0-5.466-.714-11.22-2.217-17.152-3.727-14.567-8.277-26.87-15.638-36.12-3.687-4.608-8.145-8.409-13.426-10.984-5.271-2.575-11.284-3.882-17.833-3.871-13.604.046-29.542 5.288-49.742 16.024a6.523 6.523 0 0 0-3.455 5.535c0 .069-.012.346-.012.807.006 1.975.19 7.407 1.653 14.969-1.014 1.089-8.282 8.911-15.655 18.357-3.957 5.08-7.954 10.61-11.082 15.978-1.561 2.695-2.914 5.345-3.934 7.983-1.008 2.649-1.739 5.276-1.762 8.202 0 1.682-.006 2.943-.064 3.807-.052.76-.132 1.198-.23 1.561-.167.593-.444 1.273-1.636 2.937-1.762 2.46-5.357 6.544-11.364 13.536-6.019 7.01-14.486 17.009-26.322 31.806-2.258 2.816-1.797 6.923 1.019 9.181a6.533 6.533 0 0 0 9.181-1.02c10.218-12.769 17.861-21.887 23.604-28.614Zm5.374-320.926c-8.674.006-17.838 1.354-24.963 2.673-7.114 1.325-12.136 2.638-12.246 2.667-3.49.91-5.575 4.481-4.665 7.971a6.536 6.536 0 0 0 7.977 4.666l.185-.047c.996-.253 5.944-1.491 12.412-2.643 6.451-1.164 14.451-2.229 21.3-2.224 3.312-.005 6.347.254 8.68.766a6.538 6.538 0 0 0 7.776-4.999c.766-3.519-1.475-7.004-5-7.77-3.646-.783-7.505-1.06-11.456-1.06Zm-105.785 30.723v.006c.058-.058 2.356-1.907 5.725-3.646 3.37-1.757 7.776-3.312 11.871-3.289l.496.006a6.533 6.533 0 1 0 .403-13.058c-.311-.011-.605-.011-.899-.011-7.418.023-13.743 2.58-18.304 4.97-4.562 2.42-7.402 4.775-7.644 4.977a6.532 6.532 0 0 0 8.352 10.045Zm-4.222-43.296a6.537 6.537 0 0 0 8.985-2.155c.214-.351 7.442-11.842 21.917-24.202 14.503-12.384 36.142-25.632 65.506-29.98 9.095-1.348 16.68-2.039 22.993-2.039 9.083.006 15.344 1.405 20.177 3.986 3.634 1.958 6.658 4.63 9.642 8.559 4.458 5.863 8.588 14.607 13.19 26.443 4.619 11.831 9.757 26.691 16.651 44.759 14.169 37.186 17.873 56.614 22.464 76.036 2.292 9.705 4.809 19.416 8.916 30.959 4.107 11.548 9.786 24.899 18.379 42.098 17.078 34.156 31.53 60.139 50.871 90.942 19.341 30.809 43.544 66.428 80.286 120.184a6.53 6.53 0 1 0 10.783-7.366c-36.731-53.751-60.87-89.278-80.004-119.764-19.134-30.487-33.298-55.94-50.249-89.842-8.421-16.836-13.858-29.674-17.752-40.63-5.84-16.415-8.259-28.735-11.969-44.437-3.709-15.678-8.685-34.443-19.52-62.833-6.059-15.88-10.765-29.324-15.079-40.688-3.243-8.524-6.255-15.885-9.509-22.261-2.448-4.787-5.034-9.026-8.012-12.735-4.441-5.564-9.89-9.913-16.456-12.614-6.572-2.725-14.054-3.86-22.809-3.86-7.246 0-15.419.772-24.911 2.178-32.819 4.861-56.976 19.877-72.827 33.62-15.868 13.754-23.569 26.264-23.817 26.662a6.531 6.531 0 0 0 2.154 8.98Zm81.352 189.111c.017-6.727-1.82-13.748-5.795-20.89-3.075-5.553-7.401-11.243-13.178-17.32a176.506 176.506 0 0 0 4.631-2.229c13.063-6.589 21.732-13.109 21.945-13.265a6.531 6.531 0 0 0 1.284-9.147 6.534 6.534 0 0 0-9.146-1.296l-.006.006c-.3.231-8.553 6.348-20.522 12.315-11.952 5.996-27.642 11.704-42.341 11.669-6.773-.006-13.316-1.163-19.422-3.911-6.111-2.759-11.865-7.084-17.124-13.852-6.071-7.816-10.114-14.48-12.585-20.01-2.477-5.541-3.364-9.901-3.358-13.259.017-3.341.801-5.748 2.114-7.931 1.952-3.237 5.501-6.019 9.936-8.283 4.406-2.269 9.521-3.957 14.065-5.391a6.53 6.53 0 0 0 4.239-8.208 6.526 6.526 0 0 0-8.202-4.245c-6.151 1.982-14.394 4.556-21.639 9.521-3.618 2.5-7.022 5.668-9.544 9.792-2.529 4.101-4.055 9.152-4.038 14.745.006 5.656 1.469 11.802 4.498 18.587 3.036 6.791 7.649 14.261 14.187 22.694 6.451 8.323 14.031 14.14 22.089 17.757 8.058 3.623 16.519 5.063 24.784 5.057 10.898-.023 21.484-2.459 31.046-5.794 7.188 7.01 11.963 13.081 14.854 18.322 3.07 5.581 4.147 10.149 4.165 14.566 0 4.724-1.319 9.516-3.704 14.947-2.373 5.426-5.783 11.382-9.498 18.144-7.021 12.786-14.037 24.853-18.892 45.675-4.873 20.828-7.782 50.272-7.787 99.357a6.531 6.531 0 1 0 13.063 0c-.006-48.573 2.932-77.136 7.447-96.373 4.539-19.238 10.46-29.289 17.625-42.381 3.623-6.612 7.212-12.804 10.011-19.175 2.782-6.353 4.798-12.988 4.798-20.194Z" fill="#FF6A3A"/><path d="m207.502 594.5 82.5-123s3.031 9.93 3.5 16.5c.5 7 3.5 16 3.5 16l-11 33.5-60.5 78.5-18-21.5Z" fill="#FFDD46"/><path d="M296.502 472s-15.282 40.568-28 65c-14.245 27.367-47 63.5-47 63.5" stroke="#FF6A3A" stroke-width="13" stroke-linecap="round" stroke-linejoin="round"/><path d="M627.001 59v1129M1193 623.5H62" stroke="#806E23" stroke-width="10"/></svg>