<svg width="586" height="311" fill="none" xmlns="http://www.w3.org/2000/svg"><mask id="a" mask-type="alpha" maskUnits="userSpaceOnUse" x="0" y="0" width="586" height="311"><rect width="586" height="311" rx="25" fill="#C4C4C4"/></mask><g mask="url(#a)"><path fill="#FF2626" d="M0 0h702v311H0z"/><path d="M247.811 38v2.904h-16.939v9.195h15.487v2.903h-15.487v9.679h16.939v3.387H227V38h20.811zm58.559 7.72 6.291 14.034 4.84-14.034h3.871l-5.807 16.454c-.832 2.146-1.732 4.269-2.334 5.551-.6 1.283-.898 1.726-1.158 2.071-.89 1.184-1.433 1.388-2.152 1.669-.309.11-.675.216-1.518.29-.845.075-2.167.117-3.484.098v-2.42c.674.001 1.349-.028 1.845-.075 1.098-.138 1.682-.207 2.415-.908.569-.702.568-1.283.578-1.983-.007-.296-.04-.656-.154-1.27-.237-1.353-.928-3.752-1.779-5.925l-5.808-13.55h4.354v-.002zm-54.606.507a37.468 37.468 0 0 1 3.244-.951c2.032-.467 3.033-.48 4.618-.5.85.002 1.82.043 2.595.114.775.071 1.356.172 1.843.287 1.078.279 1.826.505 2.73 1.368.507.535.71.962.935 1.564.131.364.256.806.348 1.635.092.829.141 2.046.141 3.259v13.066h-3.388V53.971c0-.729-.076-1.459-.222-2.093a5.996 5.996 0 0 0-.62-1.631c-1.586-2.497-3.474-2.229-5.75-1.845-.876.194-2.018.851-2.485 1.993-.313.738-.413 1.227-.512 2.094-.057.55-.091 1.258-.091 1.965v11.615h-3.388V46.227h.002zm22.243 15.947V45.72h3.871v15.485c0 2.015-.033 4.032-.119 5.296-.087 1.264-.208 1.772-.326 2.178-.277.889-.462 1.424-1.258 2.119-.485.38-.9.553-1.456.719-.747.228-1.937.337-3.132.335v-1.936c.433-.164.857-.355 1.128-.5.611-.33.766-.642.923-1.006.058-.146.108-.321.163-.563.054-.242.111-.552.152-1.51.041-.956.054-2.561.054-4.163zm26.173-13.196a8.791 8.791 0 0 0-1.455-2.052 7.962 7.962 0 0 0-1.846-1.437 8.843 8.843 0 0 0-2.284-.895 11.27 11.27 0 0 0-2.726-.307c-2.689.027-5.487 1.055-7.736 3.457a10.805 10.805 0 0 0-1.627 2.311 11.252 11.252 0 0 0-.967 2.597c-.75 3.103-.135 6.675 1.658 9.292a11.073 11.073 0 0 0 2.346 2.522c1.942 1.497 3.989 2.087 5.849 2.083 3.009-.106 5.988-.83 8.597-5.04a11.87 11.87 0 0 0 1.156-2.867c.268-1.033.406-2.127.409-3.306.006-2.297-.494-4.732-1.374-6.358zm-3.387 10.757a6.741 6.741 0 0 1-.928 1.54 5.233 5.233 0 0 1-1.144 1.055c-2.704 1.629-5.578.879-7.735-1.445a7.321 7.321 0 0 1-1.051-1.585c-1.5-3.396-1.066-6.828 1.179-9.553 1.496-1.625 2.887-2.024 4.266-2.055 1.812.056 3.582.716 5.069 2.847.948 1.54 1.219 2.764 1.214 4.603-.019 1.676-.362 3.53-.87 4.593z" fill="#fff"/><path d="M477.855 94.626c-10.356 2.418-24.711 15.751-39.589 36.861-15.207 21.502-26.678 47.187-28.12 62.742-.524 5.686.328 8.757 3.081 11.11 2.36 1.961 6.751 2.222 9.766.654 6.424-3.333 22.417-21.437 21.368-24.182-.327-.98-.59-.915-2.359.131-1.115.653-3.671 3.006-5.703 5.294-3.408 3.856-8.259 7.973-9.373 7.973-1.049 0-2.097-4.052-1.704-6.601.655-4.117 4.195-14.509 5.506-16.012.59-.719 5.571-5.033 10.946-9.542 29.102-24.313 51.912-54.768 49.225-65.618-.787-3.006-6.62-4.313-13.044-2.81zm7.472 6.667c2.229 4.901-10.618 23.462-30.609 44.18-7.997 8.3-19.73 18.757-20.385 18.169-.393-.457 4.391-10.195 8.39-17.123 5.178-9.019 17.042-26.208 22.81-33.07 9.569-11.503 17.828-16.535 19.794-12.156z" fill="#FF2626"/><path d="M477.855 94.626c-10.356 2.418-24.711 15.751-39.589 36.861-15.207 21.502-26.678 47.187-28.12 62.742-.524 5.686.328 8.757 3.081 11.11 2.36 1.961 6.751 2.222 9.766.654 6.424-3.333 22.417-21.437 21.368-24.182-.327-.98-.59-.915-2.359.131-1.115.653-3.671 3.006-5.703 5.294-3.408 3.856-8.259 7.973-9.373 7.973-1.049 0-2.097-4.052-1.704-6.601.655-4.117 4.195-14.509 5.506-16.012.59-.719 5.571-5.033 10.946-9.542 29.102-24.313 51.912-54.768 49.225-65.618-.787-3.006-6.62-4.313-13.044-2.81zm7.472 6.667c2.229 4.901-10.618 23.462-30.609 44.18-7.997 8.3-19.73 18.757-20.385 18.169-.393-.457 4.391-10.195 8.39-17.123 5.178-9.019 17.042-26.208 22.81-33.07 9.569-11.503 17.828-16.535 19.794-12.156z" fill="#fff"/><mask id="b" maskUnits="userSpaceOnUse" x="473.497" y="101.226" width="26.7" height="26" fill="#000"><path fill="#fff" d="M473.497 101.226h26.7v26h-26.7z"/><path fill-rule="evenodd" clip-rule="evenodd" d="M497.94 112.31c-2.96-1.122-6.724-3.31-13.76-7.481-.6-.359-1.186-.708-1.761-1.047-1.781 1.775-3.392 4.054-4.635 6.708-.991 2.117-1.648 4.26-1.987 6.311 8.54 4.781 12.66 7.044 16.184 8.125 1.495-1.65 2.843-3.662 3.916-5.955 1.048-2.237 1.723-4.505 2.043-6.661z"/></mask><path fill-rule="evenodd" clip-rule="evenodd" d="M497.94 112.31c-2.96-1.122-6.724-3.31-13.76-7.481-.6-.359-1.186-.708-1.761-1.047-1.781 1.775-3.392 4.054-4.635 6.708-.991 2.117-1.648 4.26-1.987 6.311 8.54 4.781 12.66 7.044 16.184 8.125 1.495-1.65 2.843-3.662 3.916-5.955 1.048-2.237 1.723-4.505 2.043-6.661z" fill="#C4C4C4"/><path d="m497.94 112.31.709-1.87 1.505.57-.236 1.593-1.978-.293zm-13.76-7.481-1.02 1.721-.004-.002-.004-.003 1.028-1.716zm-1.761-1.047-1.412-1.417 1.096-1.092 1.333.787-1.017 1.722zm-4.635 6.708-1.811-.848 1.811.848zm-1.987 6.311-.977 1.746-1.225-.686.229-1.386 1.973.326zm16.184 8.125 1.482 1.343-.853.941-1.215-.372.586-1.912zm3.916-5.955-1.811-.848 1.811.848zm1.334-4.791c-3.162-1.199-7.104-3.5-14.071-7.63l2.04-3.441c7.105 4.212 10.691 6.285 13.449 7.331l-1.418 3.74zm-14.079-7.635c-.596-.357-1.179-.704-1.75-1.041l2.034-3.444c.578.341 1.169.693 1.772 1.054l-2.056 3.431zm-7.179 3.097c1.336-2.853 3.078-5.327 5.034-7.277l2.824 2.833c-1.606 1.601-3.085 3.684-4.235 6.141l-3.623-1.697zm-2.149 6.833c.369-2.238 1.083-4.556 2.149-6.833l3.623 1.697c-.916 1.956-1.518 3.924-1.826 5.788l-3.946-.652zm2.95-1.419c8.629 4.831 12.524 6.955 15.793 7.958l-1.172 3.824c-3.78-1.159-8.124-3.561-16.575-8.291l1.954-3.491zm20.935 4.763c-1.155 2.465-2.612 4.646-4.246 6.45l-2.964-2.686c1.355-1.496 2.594-3.34 3.587-5.46l3.623 1.696zm2.209-7.216c-.349 2.357-1.083 4.81-2.209 7.216l-3.623-1.696c.969-2.069 1.585-4.15 1.875-6.107l3.957.587z" fill="#FF2626" mask="url(#b)"/><path d="M415.619 93.98c-20.581 4.64-44.506 25.097-60.761 52.024-8.718 14.378-12.716 26.6-12.847 38.821-.066 6.209.131 7.647 1.442 10.653 3.081 6.928 9.373 10.457 19.729 11.045 10.619.654 19.861-2.941 28.578-11.11 10.881-10.13 16.715-21.894 16.911-34.116.066-6.078-.786-8.366-4.129-10.588-1.836-1.241-3.081-1.503-7.276-1.503-6.423 0-10.291 1.307-14.354 4.967-6.489 5.817-10.422 14.313-11.012 23.921-.197 3.267-.131 5.751.197 5.751.327 0 3.015-1.699 5.964-3.856 3.015-2.092 6.293-4.183 7.341-4.64 1.639-.654 2.229-1.569 3.409-5.164 2.097-6.339 3.474-8.823 6.554-11.437 3.343-2.81 5.244-2.941 7.145-.588 1.245 1.568 1.376 2.353 1.049 5.555-.853 8.235-5.179 16.47-12.454 23.79-2.556 2.549-6.293 5.49-8.259 6.535-3.146 1.634-4.326 1.896-9.373 1.896l-4.973-.523-3.024-1.895c-2.294-1.518-3.801-6.732-3.408-13.921.983-16.666 17.304-45.88 36.181-64.768 8.062-8.104 13.765-12.091 19.926-13.986 4.13-1.307 7.997-1.7 8.783-.915.263.261-1.245 1.438-3.342 2.679-10.226 6.144-20.451 20.718-20.451 29.28 0 1.568.459 3.921 1.049 5.098.918 1.895 1.573 2.352 4.588 3.071 9.111 2.222 19.861-4.575 25.825-16.339 2.688-5.359 3.474-8.757 3.54-15.358l.065-5.882 3.147-.196c5.505-.327 15.141 3.659 34.28 14.443 15.993 8.954 16.583 9.15 26.481 9.215 6.816.066 8.979-.196 13.109-1.437 10.487-3.334 22.154-10.915 30.413-19.803 5.113-5.49 7.603-11.045 4.982-11.045-.394 0-4.392 2.81-8.98 6.208-13.568 10.065-21.762 13.268-34.543 13.529-7.865.196-8.718-.131-22.941-8.562-15.272-9.15-22.286-11.764-31.069-11.829-3.867 0-12.06 1.569-15.272 2.876-1.901.784-2.36.719-5.309-.785-3.933-2.026-10.75-2.483-16.911-1.11zm16.386 14.902c0 9.019-6.816 21.11-13.895 24.704-3.081 1.569-7.604 1.503-8.652-.196-1.508-2.484 3.605-12.94 9.635-19.803 2.95-3.398 10.422-8.823 12.06-8.823.59 0 .852 1.242.852 4.118z" fill="#fff"/><mask id="c" maskUnits="userSpaceOnUse" x="452.616" y="91.579" width="30.8" height="30.3" fill="#000"><path fill="#fff" d="M452.616 91.579h30.8v30.3h-30.8z"/><path fill-rule="evenodd" clip-rule="evenodd" d="M455.134 110.622c8.541-8.943 16.381-14.515 22.721-15.996.427-.1.852-.187 1.273-.263 1.24 1.486 1.81 3.499 1.752 5.761-3.744 1.344-9.282 6.035-15.347 13.325-1.232 1.465-2.742 3.402-4.406 5.629-1.34-.215-2.546-.744-3.536-1.608-1.815-1.585-2.608-4.039-2.457-6.848z"/></mask><path d="m477.855 94.626.57 2.434h-.001l-.569-2.434zm-22.721 15.996-2.496-.134.049-.924.639-.669 1.808 1.727zm23.994-16.259-.442-2.46 1.43-.257.931 1.115-1.919 1.602zm1.752 5.761 2.499.064-.044 1.711-1.611.578-.844-2.353zm-15.347 13.325 1.921 1.599-.004.005-.004.004-1.913-1.608zm-4.406 5.629 2.003 1.496-.905 1.213-1.495-.24.397-2.469zm-3.536-1.608-1.644 1.883 1.644-1.883zm20.833-20.41c-5.596 1.307-13.01 6.418-21.482 15.289l-3.616-3.454c8.61-9.016 16.875-15.049 23.961-16.703l1.137 4.869zm1.145-.236c-.378.068-.759.147-1.144.237l-1.139-4.869c.469-.11.937-.206 1.4-.29l.883 4.922zm1.478-4.063c1.725 2.067 2.401 4.726 2.332 7.427l-4.998-.128c.046-1.824-.418-3.19-1.172-4.094l3.838-3.205zm-17.436 19.089c3.097-3.724 6.094-6.824 8.833-9.187 2.7-2.329 5.295-4.068 7.591-4.892l1.689 4.706c-1.447.519-3.494 1.798-6.014 3.972-2.483 2.142-5.288 5.032-8.256 8.599l-3.843-3.198zm-4.487 5.733c1.678-2.246 3.219-4.225 4.495-5.743l3.827 3.217c-1.188 1.414-2.666 3.308-4.316 5.517l-4.006-2.991zm1.606 3.964c-1.749-.282-3.401-.987-4.783-2.194l3.288-3.766c.599.522 1.358.873 2.29 1.023l-.795 4.937zm-4.783-2.194c-2.56-2.235-3.488-5.54-3.309-8.865l4.993.268c-.123 2.292.535 3.897 1.604 4.831l-3.288 3.766z" fill="#FF2626" mask="url(#c)"/><path fill-rule="evenodd" clip-rule="evenodd" d="M455.815 109.915c-5.612 5.783-11.538 13.043-17.549 21.572-.223.314-.444.63-.665.946.404 1.193 1.064 2.228 1.99 3.037 2.33 2.035 5.855 2.206 9.514.827 4.468-6.792 9.762-14.32 13.736-19.48-.188-2.108-.985-3.925-2.432-5.189-1.245-1.086-2.83-1.642-4.594-1.713zm18.591-14.145a21.52 21.52 0 0 1 3.449-1.144c6.424-1.503 12.257-.196 13.044 2.81.013.052.025.103.036.155-1.948 1.467-3.996 2.513-5.97 3.087-1.051-1.364-3.075-1.234-5.749.199a6.76 6.76 0 0 1-2.625-1.407c-1.094-.955-1.816-2.226-2.185-3.7z" fill="#fff"/><path d="M546.525 108.874c-1.835.98-3.408 3.202-8.127 11.568-10.422 18.496-24.777 45.292-30.545 57.056-4.981 10.26-5.637 11.96-5.833 15.75-.459 8.627 4.129 13.072 13.961 13.594 16.059.785 29.168-8.104 37.689-25.619 7.079-14.509 7.865-29.084 1.704-32.351-1.573-.85-7.144-.719-12.716.326l-2.163.393 1.377-2.223c.721-1.241 3.801-7.515 6.816-13.986 3.015-6.405 6.948-14.836 8.784-18.757l3.342-6.993h-6.03c-4.523.065-6.554.327-8.259 1.242zm-1.769 46.599c.917 2.614-1.049 11.502-3.868 17.384-4.653 9.804-14.026 20.391-18.09 20.391-2.294 0-2.425-.915-.656-6.012 2.884-8.431 13.372-29.149 16.321-32.352 2.032-2.222 5.441-1.895 6.293.589z" fill="#fff"/><path d="M468.985 150.113c-2.819.196-5.375.654-5.637.981-.328.392-4.523 9.346-9.308 19.933-9.963 21.895-10.618 24.378-7.8 29.411 2.098 3.659 4.785 5.228 9.177 5.228 4.26 0 8.521-1.895 10.946-4.967.983-1.242 1.966-2.222 2.228-2.222.197 0 .787 1.046 1.18 2.287 1.246 3.791 2.95 4.902 7.341 4.902 4.588 0 6.489-.85 12.454-5.686 7.079-5.621 25.694-25.881 26.743-30.652 1.376-6.013-.721-5.424-6.096 1.699-2.556 3.464-17.501 18.365-19.271 19.542-7.079 4.705-6.095 2.287 9.111-22.94 5.375-8.954 9.963-16.731 10.16-17.32.393-.914-.328-.98-6.424-.588-9.897.654-9.897.654-11.208 3.856-1.376 3.268-8.718 16.143-14.42 25.358-5.047 8.105-11.536 15.424-13.175 14.771-5.702-2.157-.196-19.411 11.93-37.711 2.032-3.071 3.736-5.751 3.867-6.078.262-.522-4.261-.457-11.798.196zM185.638 72.377c-13.502 2.81-34.346 22.418-52.567 49.54l-4.851 7.255-4.26 1.307c-2.36.719-5.047 1.503-6.03 1.699l-1.836.458 2.688-7.712c4.85-14.052 21.418-34.312 29.218-44.116 3.802-4.77-4.966-2.287-9.227-.261-7.407 3.53-37.623 40.194-45.62 55.422-1.049 1.96-2.228 3.268-3.146 3.529-.852.196-4.588-.392-8.193-1.372-5.965-1.504-6.948-1.961-9.046-4.249-7.079-7.777-4.26-22.678 6.227-33.004 7.538-7.45 19.795-13.333 34.936-16.862 3.736-.784 6.751-1.7 6.751-1.895 0-.85-20.647-1.961-23.924-1.308-14.289 2.745-28.184 15.098-33.494 29.803-3.212 8.823-2.687 18.169 1.311 23.397 4.13 5.49 12.978 9.607 20.45 9.607 1.967 0 3.54.131 3.54.327 0 .131-1.442 3.333-3.212 7.059-8.324 17.711-17.042 26.469-28.578 28.626-9.504 1.764-21.761-3.53-20.385-8.823.46-1.961 3.474-3.66 9.439-5.294 5.375-1.503 7.341-3.726 7.341-8.104 0-6.209-4.588-10.131-11.274-9.673-8.39.523-13.961 7.124-13.895 16.404.13 12.418 10.356 19.346 28.643 19.346 15.797 0 26.874-4.379 38.082-15.032 7.669-7.32 13.241-15.62 17.763-26.469l2.163-5.229 5.178-1.438c2.819-.784 5.178-1.372 5.244-1.242.066.066-.852 3.268-2.097 7.19-3.081 9.672-4.326 16.273-4.72 25.881-.393 9.149.656 16.6 3.015 21.698 1.901 3.987 6.62 10.718 11.799 14.901 8.193 6.666 16.321 8.888 30.806 8.3 7.931-.261 9.963-.588 18.419-3.006 30.216-8.627 41.425-10.849 52.043-10.326 11.471.522 18.877 3.398 26.022 10.064l3.146 2.941c1.52-2.159 2.993-3.216 5.493-4.216 2.5-1 8-1.5 13-1.5s13.5.5 19.917 1.5c3.184.496 13.174 3.301 13.306 3.171.327-.392-8.98-8.039-13.306-10.915-7.997-5.294-17.829-9.215-28.513-11.437-8.324-1.765-22.941-1.634-33.1.261-13.437 2.549-38.148 7.908-50.143 10.98-15.731 3.987-21.761 4.706-28.381 3.333-3.343-.653-6.358-1.764-8.456-3.137-3.998-2.549-9.373-8.888-11.405-13.332-2.032-4.445-3.146-13.006-2.622-19.869.918-12.744 7.604-37.449 10.816-40.128.589-.458 2.818-1.569 4.981-2.353 19.467-7.647 40.835-22.809 45.554-32.416 2.098-4.314 2.557-10.392.984-13.66-2.163-4.51-9.242-6.993-15.994-5.62zm7.21 5.164c2.295 1.83 2.163 7.058-.327 12.09-4.195 8.562-18.288 20.391-33.232 27.907-2.95 1.438-5.44 2.484-5.637 2.353-.524-.588 9.504-19.607 13.699-25.946 4.719-7.058 11.405-14.182 15.272-16.208 3.409-1.765 8.194-1.896 10.225-.196z" fill="#fff"/><path d="M293.349 84.141c-2.884 1.569-5.637 6.405-28.251 50.651-8.455 16.535-17.041 33.136-19.073 36.861-2.032 3.725-3.671 6.863-3.54 6.928.393.457 12.716-.915 15.141-1.634 2.491-.719 2.622-.98 8.39-12.94 3.212-6.667 5.965-12.287 6.161-12.418.132-.131 1.049.327 2.032 1.111 1.311 1.046 2.688 1.372 5.637 1.372h3.867l-2.097 3.072c-3.408 4.902-4.719 9.019-4.785 15.032-.065 4.771.131 5.49 1.508 6.993 2.294 2.418 5.44 3.268 11.077 2.81 7.079-.522 11.864-3.071 17.697-9.28 4.523-4.836 7.931-10.261 6.686-10.653-.328-.131-2.425 1.242-4.588 3.072-2.229 1.83-5.244 3.986-6.686 4.705-2.491 1.242-9.701 2.549-9.701 1.699 0-.196.656-1.437 1.442-2.81 1.18-1.961 1.442-3.464 1.442-8.431.066-6.797-.721-9.019-3.67-10.261-.983-.457-1.835-1.045-1.835-1.241 0-.262 3.211-3.726 7.078-7.712 6.031-6.144 7.407-7.255 9.177-7.255 3.146 0 3.081 1.111-.131 2.68-3.277 1.503-5.309 4.182-5.965 7.842-.393 2.026-.197 2.549 1.049 3.464.852.588 2.622 1.046 3.998 1.046 4.719 0 9.898-6.47 9.963-12.548.066-3.595-1.442-6.013-5.244-8.235-2.163-1.242-3.211-1.438-6.685-1.242-6.424.457-10.16 2.68-17.698 10.588-6.03 6.274-6.62 6.731-7.537 5.686-.918-.981-.656-1.634 2.949-6.993 2.098-3.268 5.244-8.366 6.883-11.372 2.818-5.164 17.894-37.58 18.877-40.521.393-1.307.196-1.373-5.375-1.373-4.392.066-6.358.327-8.193 1.307zM180.61 124.27c-4.85 1.765-8.914 4.706-15.666 11.437-13.83 13.856-20.974 27.385-19.336 36.338.328 1.438.622 3.625 2.392 5.455s3.77 2.715 7.768 2.715c4.916 0 8.193-1.503 11.339-5.229l2.295-2.614.852 2.68c1.311 3.79 3.342 5.163 7.8 5.163 5.047 0 9.373-2.549 16.452-9.738C200.732 164.203 206 161.5 217 147.014c.655-2.68 5.549-11.633 4.5-11.307-1.272 1.83-12.878 13.66-15.5 17.058-4.523 5.882-17.394 15.294-18.508 14.117-.721-.653 3.802-9.28 10.422-19.868 5.834-9.346 10.422-18.234 11.274-21.894l.393-1.765h-5.833c-6.424 0-7.931-.638-9.242 1.307-1.311 1.946-.328 1.503-3.278 0-2.949-1.503-7.079-1.634-10.618-.392zm10.618 5.621c.852.523.59 1.438-1.769 6.012-7.079 13.791-20.713 32.548-23.597 32.548-3.146 0-2.032-8.039 2.163-15.686 4.654-8.365 12.323-17.907 17.566-21.698 2.688-1.961 3.999-2.222 5.637-1.176z" fill="#fff"/><path d="M236.783 125.185c-5.506 1.895-9.57 4.64-15.076 10.196-6.292 6.339-11.012 13.136-13.568 19.737-5.375 13.79-4.85 22.156 1.573 25.75 2.229 1.242 3.343 1.373 8.259 1.177 4.916-.131 6.358-.523 10.16-2.353 2.425-1.242 6.161-3.791 8.324-5.817C260.5 153.5 271 143.883 273.776 127.865c0-2.026-2.819-.392-7.276 4.248-3.5 11.27-20.5 33.387-40.5 40.586-.942.544-3.5 1.176-4.948 0-1.552-1.699-.552-4.15-.552-5.199.655-3.451 1.076-4.408 2.715-8.264 4.85-11.242 14.223-24.509 19.205-27.123 2.032-1.046 6.226-1.242 6.751-.327.262.327-.459.784-1.508 1.046-7.472 1.634-10.29 13.398-3.211 13.398 2.818 0 5.899-2.68 8.193-7.124 3.277-6.274 2.622-11.045-1.967-13.79-2.687-1.634-9.307-1.699-13.895-.131zM333.619 131c.881-.5 16.881-1 17.381 0s-7.738 11.5-8.619 12c-.881.5-17.381 0-17.381 0s7.738-11.5 8.619-12zM366 250.899c-142.294 16.313-366-63-366-63v56s225.5 55.5 366 15.5c94.223-26.825 151.155-14.398 249-9.5 33.941 1.699 86.5 9.5 86.5 9.5v-55.5s-52.78-2.023-86.5 0c-99.89 5.995-149.581 35.603-249 47z" fill="#fff"/></g></svg>