<svg width="1461" height="164" fill="none" xmlns="http://www.w3.org/2000/svg"><rect width="1461" height="164" rx="28" fill="#000"/><path d="M627.12 34.762c-2.215.88-3.986 5.99-3.278 9.601.443 2.202-3.543 10.13-9.3 18.586-2.215 3.083-11.161 26.425-13.287 34.353-2.037 7.575-3.277 14.622-3.986 23.078-.531 5.197-.354 6.166 1.24 7.751 4.429 4.404 8.947.705 9.301-7.751.354-7.84 2.923-17.793 5.846-22.285 1.417-2.203 2.569-4.493 2.569-5.021 0-2.907 4.871-2.026 23.118 4.492 21.436 7.663 40.657 7.928 40.657.528 0-2.818-3.543-4.051-18.867-6.958-8.149-1.498-15.944-3.083-17.184-3.612-2.303-.88-2.303-.88-.62-2.554.886-.88 6.909-4.404 13.198-7.928 6.378-3.435 12.224-6.958 13.198-7.927 1.594-1.586 1.594-1.586-1.063-2.995-6.555-3.347-15.766-.176-24.181 8.192-6.998 7.135-18.513 11.45-22.499 8.544-1.771-1.321-1.771-1.321.177-6.87.975-3.084 2.126-6.871 2.392-8.457.266-1.497 3.1-7.487 6.289-13.212 7.086-12.773 7.706-15.063 4.606-18.146-2.392-2.378-4.872-2.73-8.326-1.41ZM1015.68 36.126c-1.35 1.425-2.25 5.628-1.73 8.404.45 2.552-.52 5.328-2.92 7.805-2.03 2.1-3.3 4.277-7.5 12.307-3.753 7.054-4.878 10.43-5.553 16.134-.3 2.701-1.425 6.754-2.474 9.005-2.625 5.703-4.425 12.982-4.5 18.61-.075 7.88 1.275 8.555 20.777 9.981 16.35 1.201 40.2.6 42.74-1.126 2.48-1.576 3.23-4.427 1.65-6.753-1.8-2.777-5.77-3.753-12.37-3.077-3.15.3-7.05.525-8.7.45-1.65-.075-7.05-.225-12-.3-9.45-.225-16.72-.976-18.37-2.026-.83-.526-.83-1.201-.15-3.527.45-1.576 1.2-6.079 1.65-9.98.9-7.43 2.92-13.433 7.27-21.613 1.35-2.627 2.48-5.553 2.48-6.454 0-.9 2.17-6.153 4.87-11.706s4.88-10.806 4.88-11.707c0-.9-.68-2.476-1.58-3.602-1.2-1.5-2.17-1.951-4.42-1.951-1.58 0-3.38.525-4.05 1.126ZM1240.25 37.336c-1.91 1.91-1.57 7.527.79 12.694 1.13 2.472 2.36 8.313 2.81 13.031.68 8.426.68 8.65-3.71 17.076-2.47 4.606-4.83 10.672-5.28 13.368-1.13 8.313-2.59 10.784-7.99 13.368-5.85 2.808-14.73 2.584-18.22-.562-5.4-4.943-8.1-10.447-9.67-20.445-2.14-12.807-2.14-21.12 0-28.084 2.36-7.752 2.25-15.39-.34-17.637-2.59-2.36-6.86-2.472-10.12-.113-2.93 2.022-3.15 7.302-1.46 27.972.67 6.74 1.46 16.401 1.8 21.344 1.46 18.648 11.02 26.624 33.85 28.309 9 .674 9 .674 13.16-3.033 5.62-4.943 9.33-11.458 10.91-19.659.67-3.707 2.25-9.998 3.48-14.042 2.37-8.425 3.94-17.3 4.95-28.983l.79-8.088-4.27-3.932c-4.39-4.044-9-5.055-11.48-2.584ZM107.3 40.1c-2.6 1-2.7 1-5.3 17.8l-2.3 14.3-5.1 2.4c-9.8 4.5-22.2 5.6-26.2 2.3-1.7-1.4-1.7-3.7.5-19.9 1-7.4.3-9-3.9-9-3.8 0-4.6 1.4-5.9 10-2 13.5-5.1 27.6-9.1 41.6-2.2 7.7-4 14.9-4 16.1 0 3.3 2.7 5.3 7.1 5.3 4.9 0 5.2-.7 8-17.4 1.1-6.6 2.4-12.7 2.8-13.5.6-1.1 3.3-1.5 12.2-1.5 9.5-.1 12.2-.5 16.2-2.3 2.6-1.2 4.7-2 4.7-1.7 0 .3-.6 3.3-1.4 6.7-.8 3.4-2.2 10-3.1 14.6-1.6 8.1-1.6 8.6.1 9.8 2.4 1.8 8.9 1.6 10.7-.2 1.9-1.8 2-2.2 5.8-28.5 3.7-25.8 4.8-34.8 4.8-41.6.1-4.6-.1-5.2-2.2-5.6-1.3-.3-3.3-.1-4.4.3ZM1368.5 42.314c-5.28 16.22-8.81 39.561-10.01 66.358l-.49 10.648 1.83.494c1.06.212 2.61.282 3.53 0 .91-.212 6.27-.917 11.84-1.481 11.2-1.269 21.28-3.103 28.26-5.289 8.73-2.679 12.54-9.167 12.54-21.296 0-9.097-1.06-11.213-6.91-14.104-4.37-2.186-5.21-2.327-11.84-2.327-3.94 0-7.47-.212-7.75-.564-.28-.282.14-.494.85-.494 2.61 0 12.54-5.43 15.15-8.18 6.13-6.7 7.54-9.872 7.82-17.347.14-3.809-.14-5.007-1.2-6.206-3.52-3.95-7.75-4.372-18.53-2.045-7.68 1.692-15.22 1.551-17.9-.353-.85-.634-2.61-1.128-3.81-1.128-2.11 0-2.39.282-3.38 3.314Zm34.04 5.43c1.9.987 2.11 1.41 1.76 3.103-1.41 5.783-7.68 12.764-13.53 14.95-3.66 1.41-8.81 1.833-11.98.987-3.81-1.058-2.04-8.462 3.31-13.75 4.94-4.796 10.08-7.194 14.59-6.77 2.04.21 4.65.916 5.85 1.48Zm-14.73 35.048c11.42.917 13.6 1.622 17.27 5.641 2.11 2.327 2.46 3.244 2.46 6.135 0 1.834-.35 4.443-.7 5.924-.64 2.257-1.2 2.75-5.15 4.302-5.21 2.045-6.48 2.397-12.89 3.243-8.18 1.199-18.33-.916-20.02-4.16-.42-.846-.35-4.231.35-9.732 1.48-12.129 2.05-13.187 6-12.623 1.33.212 7.04.776 12.68 1.27ZM449.3 46.4c-13.6 4.5-25.5 19.8-28.3 36.8-1.4 7.9-.8 17 1.3 22.1 4.1 9.6 29.7 13.7 48.9 7.7 5.3-1.6 7.4-2.9 10.4-6.3 6.7-7.7 7.9-14 2.9-15.3-4-1-6.4.5-8.9 5.5-1.4 2.6-3.5 5.2-4.9 5.8-1.4.6-8.7 1.5-16.3 1.8-16 .9-19.9-.1-23.4-5.7-3.9-6.1-1-20.6 6.3-31.5 2.3-3.4 4.8-5.6 9-7.7 5.2-2.7 6.8-3 18.7-3.4 11.3-.4 13.2-.7 14-2.3 1.7-3 .1-4.6-6.1-6.3-8.3-2.4-18.5-2.9-23.6-1.2ZM839.8 47.3c-12.3 5.2-21.4 16.9-25.4 32.7-2 7.8-1.5 21 .8 25.5 3.2 6.1 15.7 10.5 30 10.5 6.7 0 18.6-2.4 23.4-4.6 3.9-1.9 8.7-7.5 11-12.9 1.4-3.4 1.4-3.9-.2-5.6-3.2-3.6-8.5-1.9-10.8 3.4-2.4 5.7-4.6 6.9-15.3 7.9-11.9 1.2-23 .6-26-1.3-1.2-.7-3.2-3.5-4.3-6.2l-2.1-4.8 2-8c2.1-8.5 6.4-16.9 10.3-20.6 4.9-4.6 11.6-6.6 23.3-7 14.9-.5 15.7-.7 15.3-4.1-.3-2.3-1.1-3-5.7-4.5-3-1-8.8-2-13-2.3-6.5-.4-8.4-.1-13.3 1.9ZM267.139 48.557c-1.182 2.18-19.426 53.65-22.382 63.039-2.449 7.88-2.365 11.149.422 11.988 4.477 1.425 5.406-.084 10.051-16.179l3.041-10.647 9.291-1.005c5.152-.503 11.064-1.006 13.175-1.006 3.886-.084 3.886-.084 4.899 3.437 3.716 12.49 4.73 15.34 6.081 16.681 2.027 2.012 4.392 2.012 6.25.168 1.69-1.676 1.352-6.203-1.351-16.179l-1.689-6.287 1.774-3.353c1.942-3.772 1.435-4.61-3.041-5.365-3.041-.503-3.125-.587-7.855-11.485-9.037-20.538-15.794-29.172-18.666-23.807Zm8.7 23.975c2.702 6.371 4.73 11.568 4.645 11.652-.507.503-19.257 1.677-19.257 1.258 0-1.09 8.868-24.31 9.291-24.31.253 0 2.702 5.113 5.321 11.4Z" fill="#fff"/><circle cx="178" cy="79" r="15" fill="#E42D42"/><circle cx="356" cy="79" r="15" fill="#2D9EE4"/><circle cx="548" cy="79" r="15" fill="#E4732D"/><circle cx="936" cy="79" r="15" fill="#E42D42"/><circle cx="1114" cy="79" r="15" fill="#2D9EE4"/><circle cx="1306" cy="79" r="15" fill="#E4732D"/></svg>