<svg width="661" height="376" fill="none" xmlns="http://www.w3.org/2000/svg"><g clip-path="url(#a)"><path d="M472.003 73.922s79.624 4.425 126.809 7.375 65.239 64.896 44.236 115.044c-15.951 38.085-52.75 107.648-69.53 138.908-5.333 9.935-15.523 16.219-26.791 16.644l-192.434 7.264c-11.95.451-21.01-10.661-18.161-22.275l5.687-23.186-302.08 17.47c-12.377.715-21.537-11.67-17.653-23.444 10.383-31.476 26.103-86.803 25.207-130.996-.888-43.796-19.64-96.994-34.137-131.838-6.722-16.156 6.302-34.535 23.696-32.627l396.574 43.507a65.001 65.001 0 0 1 35.301 15.336l3.276 2.818Z" fill="#231F20"/><path fill-rule="evenodd" clip-rule="evenodd" d="m459.705 249.751 1.136-2.39 1.109-2.408 1.095-2.43 1.069-2.447 1.051-2.468 1.025-2.487 1.006-2.508.984-2.526.959-2.55.94-2.568.914-2.59.892-2.61.87-2.632.844-2.652.826-2.676.8-2.697.774-2.719.752-2.741.726-2.764.701-2.786.678-2.81.652-2.833 1.287-5.845h3.218l.085.001.225.002.391.001h.53l.664.002.782.001h.895l1.007.003 1.098.002 1.187.002 1.261.003 1.338.002 1.393.003 1.442.003 1.489.001 1.523.003 1.544.001 1.559.003 1.567.003 1.567.002 1.555.003 1.53.002 1.508.003 1.471.002 1.419.003 1.364.003 1.301.003 1.228.001 1.143.003 1.054.001.951.002.848.001.774.003.763.002.745.005.737.012.719.015.715.021.7.03.697.038.693.052.682.063.682.079.675.096.674.117.675.137.667.16.667.187.667.217.657.244.652.275.649.307.638.341.626.372.612.4.608.438.594.471.582.498.568.532.56.563.55.596.542.625.534.657.564.738.586.87.535.952.442.982.365 1.004.288 1.018.213 1.029.148 1.034.085 1.04.029 1.043-.02 1.041-.067 1.046-.107 1.044-.147 1.046-.18 1.045-.211 1.046-.243 1.047-.265 1.049-.288 1.045-.31 1.043-.331 1.043-.343 1.037-.358 1.036-.372 1.028-.376 1.024-.383 1.019-.391 1.006-.391 1-.391.987-.39.976-.384.961-.376.945-.376.949-.394.968-.413.959-.424.935-.435.91-.453.887-.472.865-.487.841-.505.82-.523.799-.546.776-.564.756-.582.733-.609.714-.626.691-.649.671-.675.651-.693.633-.715.61-.741.592-.759.575-.782.556-.807.54-.826.526-.855.511-.877.497-.896.484-.925.474-.952.465-.051.024.298.216.815.638.8.687.789.736.778.791.744.829.668.795.615.771.583.768.556.76.524.752.494.74.295.462 1.05-1.806 1.077-1.91 1.05-1.925 1.025-1.943 1.003-1.96.98-1.978.955-1.995.933-2.009.907-2.027.888-2.041.859-2.058.84-2.076.819-2.09.796-2.107.774-2.122.752-2.137.73-2.152.711-2.168.69-2.183.667-2.196.645-2.213.631-2.224.604-2.243.586-2.254.568-2.27.545-2.283.531-2.297.509-2.309.49-2.326.472-2.336 1.051-5.438 67.973.122-1.703 5.545-.211.663-.206.661-.21.664-.214.665-.214.659-.218.663-.217.661-.221.663-.225.659-.225.658-.228.66-.229.66-.232.658-.236.658-.232.659-.243.658-.24.655-.243.657-.243.655-.248.657-.25.654-.251.655-.254.656-.259.653-.258.656-.261.649-.262.653-.266.654-.265.65-.273.652-1.224 2.928-29.744.476-.14.537-.203.772-.21.768-.21.766-.221.768-.225.766-.056.189 20.375-.325-2.197 5.7-.192.491-.199.506-.21.522-.221.538-.225.546-.236.56-.247.572-.255.585-.262.593-.273.602-.28.612-.291.622-.302.627-.306.637-.317.639-.232.461-.229.445-.225.442-.225.431-.221.422-.218.41-.217.408-.214.395-.21.388-.21.379-.207.372-.203.36-.202.353-.196.343-.191.334-1.239 2.122-19.715.675-.143.248-.417.704-.424.701-.427.699-.439.697-.442.694 26.943-.922-4.564 6.647-.328.474-.324.472-.332.47-.328.473-.335.47-.332.471-.336.471-.335.469-.343.472-.339.468-.339.469-.343.468-.347.468-.342.47-.351.468-.35.467-.35.466-.354.47-.354.464-.354.466-.357.467-.362.465-.357.466-.365.463-.365.467-.365.464-.365.464-.369.463-.368.463-.373.461-1.411 1.753-44.655 2.869v.001l-42.767 2.748 3.476-6.109.027-.042.048-.088.066-.127.085-.156.099-.197.118-.232.126-.259.132-.288.144-.317.151-.342.155-.361.151-.38.155-.398.147-.412.144-.423.136-.431.126-.438.118-.439.103-.441.088-.438.074-.433.056-.424.04-.407.018-.392.003-.375-.018-.353-.033-.324-.048-.296-.066-.274-.074-.242-.1-.251-.151-.309-.177-.34-.199-.336-.21-.328-.221-.321-.236-.32-.247-.313-.258-.299-.262-.294-.273-.287-.276-.275-.236-.225-.147.021-.576.074-.549.067-.531.064-.497.057-.476.054-.446.05-.214.023-.048.087-.339.638-.343.638-.346.637-.347.639-.35.637-.354.638-.357.638-.358.636-.361.64-.369.638-.365.635-.368.64-.376.637-.377.637-.379.639-.384.639-.387.635-.387.638-.387.637-.394.638-.398.638-.398.637-.406.637-.405.637-.41.639-.412.636-.413.635-.417.637-1.452 2.201-31.986 2.055 4.958-8.397 1.294-2.244 1.276-2.261 1.257-2.28 1.234-2.295 1.217-2.316 1.198-2.335 1.176-2.352 1.154-2.369-.006-.001Zm-303.782 8.029-.003.018-.003.015-.006.039-.041.145-.012.052-.027.102-.046.161-.851 2.552-9.197.405-.125.37-.241.712-.243.711-.243.711-.245.708-.058.164 5.157-.356 4.672-.358-.972 2.774-.918 2.859-.036.105-.039.123-.036.104-.03.097-.034.103-.036.109-.006.015-.001.006-.006.012-.003.017-.009.034h-.002l-.063.194-.036.107-.018.057-.014.042-.049.144v.001l-.002.006-.026.078-.012.04-.012.038-.011.04-.048.137-1.148 3.306-.074.21-.145.398-.069.191-.072.198-.073.203-.074.2-.071.187-.029.081-.006.012-.015.039-.591 1.476-.3.804-1.906.202-8.356.591-.012.027-.307.74-.307.736-.312.739-.314.739-.317.735-.117.272 10.279-.292-2.605 5.848-.16.354-.158.352-.161.354-.161.351-.163.355-.163.353-.163.349-.161.352-.165.351-.167.356-.166.35-.167.352-1.452 3.042-26.962 1.77 3.465-7.03.56-1.159.555-1.17.554-1.19.548-1.2.548-1.216.543-1.226.541-1.241.537-1.252.536-1.264.532-1.276.531-1.29.525-1.297.524-1.311.522-1.321.519-1.332.519-1.34.513-1.349.512-1.361.511-1.37.507-1.376.507-1.385.504-1.395.501-1.401.501-1.41.498-1.416.499-1.422.495-1.43.495-1.437.493-1.441.491-1.446 1.336-3.967 9.994-.235 13.283-.315-.963 4.713-.012.056-.011.052-.009.044-.012.053-.036.172-.015.069-.017.091-.039.189-.032.146-.006.027-.018.106-.002.012-.003.012-.003.012-.003.015-.003.011-.006.039-.003.015-.002.012-.02.069-.002.006-.006.03-.011.053-.012.052-.009.052-.018.082-.006.026-.026.143-.024.077v.006l-.003.018-.02.099-.038.165-.035.155-.036.157-.033.156-.012.059v.089l-.099.357-.002.012-.005.012-.002.012-.023.088-.018.074-.006.036-.02.09-.002.005-.044.186-.049.221-.027.099-.018.084-.076.331-.07.296-.043.176-.006.043-.04.149-.037.161-.021.088-.002.009-.067.272-.017.079-.032.123-.009.053-.015.049-.001.015-.012.039-.006.021-.024.092-.008.039-.003.005-.015.072-.015.049-.012.055-.001.006-.003.009-.006.027-.006.033-.003.006-.003.015-.023.089-.003.012-.012.053-.006.034-.003.006-.001.012-.012.039-.024.022Zm-65.01-.714-.156.594-.154.573-.152.556-.153.533-.15.515-.149.493-.149.48-.943 2.963-8.084.355-.253.914-.348 1.207-.36 1.204-.369 1.204-.382 1.203-.39 1.195-.4 1.195-.412 1.195-.42 1.192-.433 1.187-.439 1.187-.45 1.187-.46 1.182-.47 1.18-.476 1.178-.487 1.177-.494 1.175-.505 1.171-.511 1.171-.52 1.168-.528 1.168-.536 1.164-.545 1.163-.55 1.162-.56 1.16-.566 1.156-.573 1.157-.58 1.155-.587 1.154-1.571 3.04-7.893.519h-8.149l3.45-6.649.57-1.119.566-1.119.557-1.121.551-1.122.544-1.122.535-1.122.528-1.125.521-1.123.512-1.125.504-1.125.495-1.128.487-1.128.478-1.127.47-1.13.461-1.132.453-1.131.442-1.132.433-1.13.423-1.135.415-1.137.405-1.135.393-1.138.384-1.139.378-1.139.364-1.141.353-1.141.234-.78-10.272.452 5.95-16.366 31.348-.741-.752 4.895-.085.489-.096.514-.108.541-.124.571-.137.605-.154.638-.168.665Zm2.406-3.16.376-1.479 1.049-4.332 15.095-.358-1.288 5.413-.159.645-.16.647-.164.644-.166.644-.169.645-.175.642-.175.641-.179.641-.181.643-.186.646-.189.638-.191.64-.195.641-.194.639-.199.638-.202.638-.204.637-.209.64-.21.636-.212.637-.216.638-.219.635-.061.176 4.205-.29.038-.102.218-.596.215-.595.216-.595.214-.598.214-.596.211-.595.209-.596.209-.599.209-.597.206-.597.205-.598.204-.599.204-.601.201-.596.198-.599.199-.601.199-.601.196-.599.194-.599.192-.602.193-.602.19-.602.189-.601.187-.605.187-.603.184-.602.183-.602.97-3.237 15.169-.358-1.73 6.278-.392 1.381-.401 1.382-.41 1.378-.418 1.378-.429 1.376-.438 1.377-.446 1.374-.453 1.374-.466 1.373-.472 1.375-.482 1.372-.489 1.369-.499 1.372-.507 1.371-.516 1.371-.523 1.367-.532 1.368-.54 1.372-.549 1.368-.555 1.368-.565 1.369-.572 1.367-.581 1.368-.586 1.368-.597 1.368-.601 1.37-.612 1.368-.617 1.369-.625 1.371-.632 1.37-1.582 3.391-16.085 1.055 2.79-6.259.236-.535.236-.534.236-.536.236-.534.233-.536.235-.536.233-.537.233-.537.232-.535.232-.536.23-.536.229-.534.229-.537.229-.536.226-.539.229-.537.226-.534.224-.537.223-.538.226-.536.13-.314-4.22.3-.034.078-.24.55-.246.554-.245.552-.244.548-.247.55-.25.55-.251.552-.252.549-.252.548-.257.55-.255.549-.257.546-.257.546-.26.549-.261.549-.264.547-.262.547-.268.546-.265.546-.266.544-.268.545-.27.544-.272.548-.27.544-.272.542-.275.544-.276.546-1.252 2.457-16.044 1.053 3.621-7.174.63-1.263.629-1.268.621-1.275.621-1.283.614-1.285.607-1.293.606-1.301.598-1.308.59-1.313.585-1.319.579-1.329.572-1.333.563-1.341.554-1.348.546-1.359.54-1.362.528-1.372.52-1.378.508-1.387.498-1.393.489-1.403.478-1.41.465-1.42.454-1.428.442-1.435.429-1.444.416-1.453.403-1.463.389-1.47h.001Zm64.352-64.994.822.843.729.928.626 1.007.517 1.078.396 1.136.275 1.186.144 1.225.012 1.255-.118 1.166-.099.656-.088.56-.091.561-.092.557-.091.559-.093.559-.096.56-.097.559-.098.556-.102.56-.103.559-.102.557-.105.558-.106.557-.107.562-.111.554-.109.556-.114.559-.113.558-.115.557-.117.556-.118.558-.12.557-.121.556-.121.556-.125.556-.125.556-.125.557-.129.555-.129.554-.131.558-.133.554-.134.556-.137.561-.137.561-.139.556-.14.559-.144.56-.145.559-.144.555-.146.557-.148.557-.149.557-.151.556-.151.557-.154.556-.154.557-.156.552-.154.553-.158.559-.16.556-.16.552-.159.553-.162.553-.162.556-.164.552-.163.551-.167.555-.166.551-.167.552-.167.552-.168.553-.171.551-.196.633-.399 1.113-.534 1.144-.622 1.083-.702 1.024-.768.963-.84.904-.894.835-.949.769-.995.701-1.044.63-1.086.553-1.122.47-1.159.383-1.195.285-1.224.18-1.15.059h-21.627l-1.15-.06-1.215-.198-1.169-.336-1.112-.472-1.035-.604-.945-.731-.835-.844-.717-.946-.583-1.026-.453-1.088-.315-1.136-.183-1.171-.052-1.19.074-1.201.196-1.204.292-1.124.193-.625.166-.541.165-.542.165-.541.164-.542.163-.543.161-.538.161-.544.162-.543.157-.538.186-.635.285-.987.154-.54.154-.541.151-.54.153-.541.15-.54.148-.537.146-.542.147-.54.144-.539.144-.54.27-1.037.152-.583.137-.538.135-.54.136-.542.132-.537.131-.537.13-.543.129-.538.126-.538.125-.536.124-.537.124-.539.122-.537.12-.537.118-.54.118-.538.113-.537.116-.537.112-.537.114-.54.108-.537.119-.594.203-1.023.104-.537.102-.539.102-.538.099-.538.1-.535.095-.539.095-.539.094-.54.092-.539.09-.535.088-.538.088-.538.085-.538.084-.535.096-.63.221-1.116.345-1.167.44-1.119.529-1.067.615-1.016.691-.955.766-.891.836-.827.904-.756.967-.677 1.025-.595 1.082-.506 1.133-.406 1.178-.301 1.218-.189 1.151-.059h21.641l1.151.061 1.218.191 1.172.318 1.119.432 1.061.544.991.654.909.752h-.002Zm-28.55 27.075-.162.685-.164.687-.168.687-.17.691-.176.687-.174.684-.176.686-.18.687-.181.683-.182.681-.184.683-.186.683-.187.681-.187.681-.19.678-.13.466h9.871l.124-.006.053-.009.076-.018.102-.033.118-.05.125-.065.13-.079.134-.098.128-.107.116-.11.104-.116.088-.115.072-.112.053-.095.036-.083.052-.152.164-.585.187-.665.186-.664.181-.667.183-.666.18-.664.178-.665.176-.666.175-.665.172-.666.17-.664.168-.665.167-.665.166-.664.162-.662.16-.666.16-.664.154-.661.154-.662.152-.665.149-.663.147-.662.147-.663.144-.665.141-.664.14-.664.138-.666.134-.665.137-.664.13-.666.131-.666.017-.088h-10.379l-.112.003-.03.006-.046.011-.057.021-.071.032-.079.046-.085.054-.084.067-.079.075-.076.084-.07.087-.054.083-.043.078-.034.077-.023.065-.033.146-.114.591-.135.69-.136.688-.139.685-.139.688-.145.687-.144.686-.147.684-.147.686-.153.684-.151.685-.156.686-.156.683-.157.684-.162.684.001-.001Zm-14.674-16.738-.045.401-.047.403-.048.405-.047.408-.049.399-.047.403-.052.406-.049.403-.47 3.708h-11.149l-.061.243-.159.627-.16.626-.163.625-.161.624-.163.627-.164.628-.167.626-.167.627-.168.628-.17.628-.171.625-.172.626-.175.628-.177.631-.179.628-.178.628-.181.628-.185.63-.184.625-.186.629-.19.631-.19.628-.193.627-.195.629-.198.631-.2.627-.2.626-.204.633-.21.632-.207.629-.21.631-.212.629-.214.63-.215.629-.217.627-.217.628-.219.629-.222.627-.223.626-.222.624-.226.628-.226.627-.227.621-.227.623-.228.624-.23.625-.233.622-.23.622-.233.622-.233.626-.235.62-.233.62-.236.623-.236.624-.236.619-.236.62-.24.624-.237.62-1.17 3.045H69.98l2.215-5.755.234-.617.237-.615.234-.616.235-.617.233-.613.232-.614.233-.618.23-.614.232-.613.23-.614.228-.615.227-.612.225-.611.225-.613.223-.614.223-.615.222-.609.22-.611.217-.612.218-.612.216-.612.222-.635.414-1.197.21-.611.205-.611.206-.611.205-.61.2-.611.201-.611.198-.61.194-.608.195-.607.188-.603.19-.605.185-.608.184-.608.183-.606.343-1.158.196-.67.174-.608.174-.612.174-.609.17-.609.17-.611.168-.614.169-.612.165-.611.164-.612.164-.613.163-.614.161-.612.16-.612.157-.617.06-.227H68.42l.586-4.65.049-.393.049-.387.046-.394.047-.394.048-.393.044-.389.045-.396.044-.396.045-.391.043-.387.043-.395.042-.393.041-.393.042-.392.04-.393.04-.398.04-.39.038-.389.038-.395.038-.394.038-.392.035-.389.037-.396.034-.396.034-.391.035-.39.033-.393.035-.392.062-.785.302-3.883h45.147l-.35 4.481-.032.407-.034.405-.033.405-.035.403-.034.406-.038.405-.036.403-.037.405-.037.404-.039.404-.039.403-.04.404-.04.404-.041.408-.041.404-.042.399-.042.403-.044.406-.043.403-.046.405-.045.403-.046.404v-.001Zm210.681 69.643.877-2.002.858-2.001.837-2.003.813-2.002.794-1.999.772-2.001.751-2 .729-2.001.708-1.999.687-1.998.665-2.001.644-1.998.624-1.998.602-1.997.58-2 .56-1.996.538-1.998.516-1.996.496-1.996.475-1.998.453-1.995.432-1.996.411-1.995.39-1.996.283-1.533-18.348.317 1.956-5.862.253-.781.251-.781.245-.782.237-.779.235-.782.229-.78.22-.781.219-.782.212-.78.207-.78.202-.779.197-.781.19-.781.186-.781.181-.779.175-.781.171-.779.162-.78.161-.779.155-.78.148-.779.143-.776.138-.782.136-.778.126-.78.123-.779.116-.779.113-.778.106-.779.102-.778.506-4.116 70.196.126-.848 5.163-.132.783-.133.784-.144.785-.144.786-.147.785-.151.786-.159.787-.162.788-.166.788-.173.786-.177.789-.181.79-.188.789-.192.791-.195.791-.206.792-.207.792-.217.791-.222.792-.228.795-.232.792-.24.792-.247.797-.254.794-.262.793-.269.795-.273.795-.284.797-.291.796-.295.797-1.216 3.163-14.661.253-.361 1.386-.564 2.097-.579 2.091-.593 2.089-.612 2.083-.634 2.078-.645 2.074-.664 2.071-.678 2.064-.704 2.062-.715 2.055-.738 2.051-.752 2.046-.774 2.041-.792 2.035-.811 2.03-.833 2.026-.848 2.021-.874 2.013-.888 2.009-.915 2.004-.929 1.999-.951 1.991-.973 1.986-.995 1.981-1.018 1.974-1.035 1.968-1.062 1.963-1.08 1.957-1.106 1.949-2.131 3.673-33.601 2.159 3.879-7.882.963-2.002.944-2.003.921-2.004.9-2.002Zm-153.307-51.634.511-3.367.471-3.392.435-3.42.397-3.445.361-3.472.324-3.495.287-3.522.501-7.088 68.38.122-.584 5.022-.098.816-.102.814-.104.812-.108.814-.111.815-.112.816-.118.812-.118.812-.124.817-.125.814-.13.815-.131.814-.135.814-.139.815-.142.812-.143.816-.149.815-.152.815-.154.815-.157.813-.161.815-.164.816-.167.814-.171.814-.174.815-.177.817-.182.815-.184.814-.189.815-.191.815-.86 3.596-28.267 1.099-.073.508-.079.54-.081.545-.084.547-.085.552-.088.553-.089.553-.091.554-.093.556-.095.554-.095.556-.099.556-.101.558-.103.553-.103.553-.107.552-.107.552-.009.047 27.052-.387-1.974 5.797-.249.725-.255.726-.255.724-.259.726-.264.726-.266.726-.27.725-.27.723-.273.725-.28.725-.282.726-.282.725-.29.724-.29.729-.293.721-.297.723-.301.726-.302.725-.307.726-.309.726-.314.723-.317.729-.321.723-.321.723-.327.724-.33.728-.334.724-.334.723-.341.725-.343.728-1.299 2.708-24.814 1.677-.352.863-.424 1.027-.43 1.025-.435 1.024-.438 1.026-.443 1.021-.447 1.021-.452 1.021-.457 1.022-.459 1.02-.465 1.016-.469 1.019-.473 1.017-.475 1.015-.479 1.014-.483 1.016-.486 1.015-.491 1.011-.493 1.013-.498 1.012-.5 1.011-.504 1.01-.504 1.008-.51 1.01-.511 1.01-.515 1.006-.517 1.007-.52 1.006-.523 1.008-1.509 2.888-38.225 2.456 4.78-8.754 1.43-2.726 1.388-2.757 1.345-2.786 1.306-2.814 1.262-2.843 1.219-2.871 1.18-2.902 1.139-2.928 1.097-2.957 1.055-2.986 1.017-3.014.978-3.041.935-3.07.895-3.098.857-3.124.819-3.155.776-3.177.74-3.206.7-3.236.663-3.259.623-3.289.585-3.314.547-3.341Zm260.785-13.698-.412 1.798-.428 1.795-.453 1.789-.469 1.783-.486 1.779-.502 1.775-.523 1.769-.535 1.766-.552 1.765-.568 1.758-.586 1.755-.601 1.754-.612 1.747-.623 1.749-.641 1.743-.653 1.739-.667 1.737-.675 1.737-.689 1.736-.701 1.732-.711 1.731-.719 1.728-.73 1.729-.741 1.727-.619 1.433-.199.781-.181.903-.114.792-.044.668.006.536.04.383.056.235.011.026.1.031.313.049.487.017.711-.047.634-.075.483-.146.601-.281.704-.449.789-.627.855-.811.896-.987.933-1.16.951-1.32.962-1.473.969-1.618.97-1.753.966-1.877.958-1.996.947-2.104.937-2.205.914-2.298.896-2.384.877-2.461.852-2.531.825-2.592.8-2.648.771-2.696.737-2.737.7-2.768.671-2.796.631-2.813.593-2.824.549-2.826.509-2.825.465-2.814.906-6.053 32.027.058-.475 5.717-.17 1.649-.195 1.642-.225 1.63-.254 1.621-.277 1.61-.302 1.599-.328 1.587-.35 1.579-.369 1.565-.394 1.557-.413 1.543-.431 1.535-.45 1.521-.465 1.513-.482 1.499-.498 1.49-.513 1.479-.523 1.466-.538 1.455-.546 1.444-.56 1.435-.568 1.42-.575 1.41-.586 1.399-.586 1.387-.597 1.376-.601 1.363-.605 1.353-.604 1.341-.609 1.329-.612 1.324-1.511 3.202-1.474 3.026-1.442 2.849-1.408 2.681-1.379 2.518-1.356 2.359-1.331 2.21-1.316 2.063-1.305 1.929-1.294 1.793-1.286 1.668-1.287 1.546-1.294 1.43-1.294 1.316-1.305 1.21-1.319 1.104-1.331 1.003-1.349.905-1.364.811-1.379.717-1.39.63-1.401.547-1.415.471-1.419.401-1.434.338-1.442.282-1.456.235-1.467.194-1.482.164-1.504.136-1.53.118-1.552.104-24.65 1.583-1.206.055h-1.187l-1.142-.054-1.099-.111-1.054-.171-1.018-.236-.976-.301-.929-.371-.889-.447-.837-.526-.774-.602-.7-.674-.623-.736-.538-.791-.446-.83-.354-.854-.277-.868-.195-.879-.125-.881-.067-.883-.005-.877.044-.88.088-.879.129-.877.166-.874.203-.879.236-.88.262-.88.291-.883.32-.886.343-.886.361-.884.963-2.23.929-2.184.914-2.176.899-2.171.878-2.164.866-2.161.848-2.156.829-2.155.811-2.149.793-2.146.774-2.144.755-2.145.738-2.142.715-2.145.697-2.141.678-2.145.652-2.145.634-2.149.612-2.15.59-2.155.568-2.156.545-2.164.524-2.168.498-2.173.475-2.179.45-2.187.427-2.195.406-2.202.376-2.211.35-2.22.328-2.231.745-5.551 33.961.062-.888 6.129-.284 1.832-.31 1.826-.331 1.819-.35 1.817-.373 1.807-.394 1.805-.001-.001ZM245.3 186.184l35.931.065-.882 6.303-.294 2.014-.307 2.013-.318 2.011-.331 2.011-.345 2.008-.356 2.007-.374 2.005-.385 2.004-.402 2.003-.416 2-.433 1.997-.447 1.997-.465 1.996-.483 1.992-.499 1.989-.516 1.989-.537 1.985-.553 1.983-.573 1.981-.592 1.978-.613 1.977-.634 1.972-.652 1.969-.675 1.966-.696 1.965-.72 1.962-.742 1.956-.763 1.954-.788 1.95-.81 1.949-.703 1.635-.216.88-.18.961-.091.819-.021.667.035.508.067.345.068.194.045.081.015.024.026.02.085.051.203.079.354.082.519.058.681.006.874-.061.759-.092.582-.175.687-.33.789-.513.871-.713.931-.913.972-1.109 1.003-1.302 1.018-1.479 1.027-1.65 1.028-1.809 1.025-1.957 1.017-2.097 1.006-2.228.991-2.349.976-2.462.958-2.566.934-2.658.913-2.745.887-2.824.861-2.891.834-2.955.8-3.008.772-3.053.739-3.09.703-3.12.665-3.137.628-3.153.59-3.159.547-3.153.507-3.143.944-6.382 31.891.058-.464 5.868-.167 1.81-.184 1.802-.203 1.793-.224 1.789-.24 1.781-.259 1.773-.275 1.763-.293 1.754-.308 1.749-.325 1.738-.339 1.729-.355 1.719-.369 1.71-.383 1.7-.396 1.685-.408 1.678-.42 1.666-.433 1.655-.445 1.642-.454 1.631-.466 1.619-.474 1.604-.486 1.592-.492 1.579-.503 1.565-.509 1.551-.517 1.537-.524 1.521-.532 1.508-.537 1.493-.54 1.473-1.363 3.653-1.299 3.428-1.24 3.215-1.187 3.007-1.139 2.812-1.1 2.624-1.061 2.444-1.034 2.272-1.009 2.11-.994 1.959-.983 1.813-.984 1.675-.988 1.548-1.004 1.429-1.028 1.315-1.058 1.203-1.094 1.098-1.138.989-1.179.885-1.223.776-1.26.673-1.291.569-1.318.478-1.344.391-1.366.322-1.394.259-1.424.212-1.465.171-1.507.144-1.56.123-1.62.112-1.692.11-37.314 2.398-1.305.063-1.27.012-1.21-.039-1.155-.094-1.104-.15-1.058-.211-1.013-.278-.972-.352-.925-.432-.876-.521-.812-.609-.736-.702-.642-.778-.539-.841-.426-.876-.325-.907-.223-.915-.137-.91-.061-.906.003-.902.061-.893.111-.891.152-.886.192-.89.227-.896.258-.896.284-.902.312-.911.336-.921.355-.926.375-.933.391-.945 1.051-2.457 1.004-2.423.973-2.426.945-2.432.914-2.436.888-2.439.856-2.442.831-2.448.804-2.451.777-2.454.752-2.459.726-2.463.701-2.466.678-2.47.652-2.473.631-2.478.606-2.48.587-2.483.564-2.489.541-2.49.522-2.494.502-2.497.481-2.501.464-2.505.445-2.506.428-2.509.408-2.513.393-2.515.376-2.519.36-2.522.344-2.524.762-5.835h.004Zm265.816-71.581 1.46 1.663 1.445 1.67 1.43 1.671 1.416 1.681 1.401 1.685 1.386 1.689 1.371 1.696 1.36 1.7 1.346 1.707 1.331 1.711 1.316 1.719 1.305 1.721 1.29 1.726 1.275 1.729 1.269 1.737 1.253 1.741 1.238 1.747 1.228 1.752 1.213 1.751 1.205 1.759 1.191 1.766 1.18 1.767 5.098 7.733-30.871-.461.192.295.317.487.317.489.317.489.317.49.313.49.314.489.313.49.31.49.313.488.31.491.309.492.31.493.309.491.306.492.306.492.306.493.303.491.302.491 11.118 18.032-18.859-14.497-2.514-1.917-2.514-1.9-2.515-1.883-2.514-1.862-2.514-1.845-2.514-1.825-2.51-1.807-2.511-1.785-2.514-1.769-2.51-1.748-2.51-1.726-2.507-1.707-2.51-1.685-2.511-1.663-2.507-1.645-2.51-1.618-2.507-1.597-2.506-1.574-2.507-1.553-2.507-1.53-2.503-1.504-2.506-1.479-2.504-1.456-2.503-1.435-2.503-1.408-2.503-1.379-2.499-1.357-2.503-1.331-2.499-1.306-2.5-1.279-5.334-2.674 11.656-39.84 4.877 4.045.458.376.457.38.453.38.454.383.449.376.45.38.453.383.446.384.45.38.446.383.446.383.443.388.442.38.439.383.446.387.438.383.439.388.439.387.435.383.435.387.435.388.431.39.435.388.431.39.428.388.427.39.428.388.723.663 35.377 2.604 2.587 2.599 1.586 1.612 1.566 1.622 1.556 1.626 1.537 1.634 1.519 1.637 1.504 1.644 1.493 1.649 1.474 1.659.002-.001Zm35.413 45.54-2.009-3.584-.951-1.67-.959-1.67-.966-1.667-.98-1.659-.988-1.663-1.003-1.656-1.01-1.652-1.021-1.648-1.032-1.645-1.043-1.644-1.055-1.637-1.065-1.637-1.08-1.63-1.084-1.63-1.102-1.626-1.113-1.619-1.125-1.615-1.135-1.615-1.147-1.608-1.161-1.607-1.172-1.601-1.187-1.6-1.198-1.593-1.209-1.589-1.228-1.589-1.235-1.582-1.249-1.575-1.265-1.578-1.279-1.567-1.29-1.567-7.03-8.422 23.198 1.704 2.451 2.548 1.442 1.53 1.415 1.545 1.397 1.552 1.372 1.564 1.352 1.574 1.328 1.586 1.308 1.593 1.287 1.604 1.268 1.607 1.249 1.623 1.224 1.626 1.209 1.633 1.191 1.641 1.172 1.648 1.158 1.656 1.139 1.659 1.121 1.667 1.102 1.67 1.091 1.678 1.073 1.681 1.058 1.686 1.043 1.688 1.032 1.696 1.014 1.697 1.002 1.699.992 1.7.981 1.708.962 1.703.958 1.707.944 1.711 4.037 7.393-22.199-.332Zm23.659.354-1.633-3.938-.697-1.622-.715-1.615-.734-1.611-.759-1.612-.778-1.607-.796-1.604-.822-1.597-.841-1.597-.862-1.593-.882-1.589-.903-1.582-.921-1.578-.944-1.574-.966-1.567-.98-1.567-1.007-1.556-1.025-1.553-1.043-1.545-1.061-1.541-1.084-1.538-1.106-1.526-1.121-1.523-1.142-1.519-1.162-1.508-1.179-1.501-1.202-1.494-1.217-1.489-1.238-1.479-1.257-1.471-1.276-1.468-7.487-8.436 21.639 1.589 2.396 2.537 1.375 1.493 1.357 1.501 1.334 1.516 1.313 1.519 1.293 1.53 1.276 1.545 1.253 1.549 1.235 1.556 1.217 1.563 1.198 1.575 1.183 1.578 1.161 1.585 1.147 1.593 1.128 1.597 1.113 1.607 1.095 1.612 1.08 1.615 1.065 1.619 1.051 1.626 1.039 1.629 1.021 1.634 1.011 1.637.995 1.641.984 1.644.97 1.645.958 1.652.947 1.648.937 1.656.925 1.652.918 1.655 4.014 7.342-22.789-.34h.001Zm24.278.361-1.619-3.88-.674-1.569-.693-1.563-.715-1.564-.73-1.56-.756-1.556-.774-1.556-.789-1.548-.815-1.545-.829-1.545-.852-1.538-.87-1.534-.892-1.53-.906-1.527-.929-1.519-.944-1.519-.966-1.508-.984-1.508-1.003-1.501-1.021-1.497-1.04-1.486-1.058-1.486-1.076-1.479-1.095-1.474-1.113-1.464-1.132-1.46-1.15-1.453-1.165-1.446-1.187-1.438-1.202-1.434-1.22-1.423-7.302-8.367 19.611 1.442 2.282 2.566 1.253 1.453 1.228 1.46 1.198 1.472 1.168 1.482 1.143 1.49 1.117 1.5 1.095 1.508 1.065 1.516 1.047 1.523 1.021 1.534.999 1.537.977 1.545.959 1.553.936 1.559.918 1.564.896 1.574.884 1.575.863 1.582.848 1.585.829 1.589.815 1.597.804 1.6.788 1.6.778 1.608.763 1.611.752 1.612.745 1.619.73 1.615.722 1.618.719 1.626 3.053 6.996-15.505-.233v-.001Zm21.79.328-1.589-3.842-.645-1.522-.671-1.519-.686-1.515-.704-1.512-.722-1.512-.741-1.508-.763-1.501-.778-1.501-.796-1.5-.815-1.494-.833-1.489-.852-1.483-.87-1.482-.888-1.482-.903-1.472-.926-1.467-.94-1.464-.954-1.46-.977-1.453-.996-1.449-1.01-1.445-1.028-1.438-1.043-1.435-1.066-1.423-1.08-1.423-1.095-1.416-1.113-1.409-1.132-1.401-1.146-1.398-1.165-1.39-7.07-8.289 16.208 1.195 2.29 2.496 1.264 1.416 1.246 1.423 1.22 1.431 1.198 1.442 1.172 1.449 1.154 1.453 1.128 1.464 1.11 1.475 1.084 1.474 1.061 1.49 1.04 1.494 1.017 1.504.996 1.508.973 1.516.955 1.526.928 1.534.911 1.538.885 1.548.866 1.553.844 1.563.826 1.567.8 1.571.785 1.582.759 1.593.741 1.593.723 1.6.7 1.611.679 1.615.66 1.623.637 1.626 2.588 6.82-13.451-.199Zm-312.984-42.649.681 1.548.675 1.542.668 1.53.663 1.512.655 1.489.648 1.464.644 1.435.63 1.397.627 1.357.612 1.316.604 1.261.592 1.21.582 1.15.567 1.088.552 1.018.533.936.514.856.489.763.463.667.42.557.372.439.304.317.205.177.065.044.209.104.422.184.435.173.45.167.466.154.486.148.512.136.532.129.563.122.589.111.619.103.65.096.684.088.717.077.75.074.789.067.828.055.864.052.904.044.945.04.986.03 1.029.029 1.074.018 1.12.021 1.165.011 1.213.012 1.261.012 1.313.003h1.363l1.413.003h2.994l1.537.003 1.494.003 1.449.006 1.405.012 1.36.011 1.312.015 1.268.018 1.224.017 1.18.024 1.128.018 1.084.02 1.036.027.991.027.94.026.896.021.844.029.8.027.748.026h.003l-.092-.343-.283-1.021-.306-1.095-.332-1.165-.358-1.232-.379-1.29-.402-1.346-.424-1.394-.45-1.446-.472-1.489-.494-1.527-.512-1.559-.538-1.59-.557-1.618-.575-1.638-.597-1.651-.616-1.667-.638-1.674-.652-1.678-.671-1.678-.689-1.674-.708-1.659-.723-1.648-.748-1.648-.789-1.682-.822-1.7-.859-1.722-.877-1.733-.906-1.736-.924-1.744-.936-1.737-.949-1.73-.953-1.71-.955-1.697-.953-1.666-.948-1.634-.936-1.604-.921-1.556-.902-1.515-.88-1.46-.852-1.405-.821-1.342-.785-1.276-.745-1.202-.703-1.125-.654-1.04-.603-.955-.546-.855-.487-.764-.423-.656-.354-.55-.283-.434-.203-.314-.125-.192-4.375-6.659 40.91 3.92 1.913 2.375.918 1.154.91 1.165.907 1.176.9 1.184.892 1.194.888 1.21.885 1.213.877 1.232.87 1.235.863 1.25.859 1.26.855 1.27.844 1.279.837 1.294.837 1.305.829 1.313.819 1.328.814 1.338.808 1.35.8 1.36.796 1.372.789 1.383.781 1.397.774 1.409.767 1.419.398.756.207-.616.368-1.139.373-1.147.361-1.147.365-1.15.357-1.158.358-1.158.35-1.161.35-1.165.343-1.17.343-1.172.339-1.176.336-1.18.335-1.18.328-1.187.328-1.191.325-1.191.32-1.195.317-1.202.317-1.198.31-1.206.31-1.21.309-1.209.303-1.213 1.091-4.388 39.092 3.746-1.29 5.635-.328 1.438-.335 1.438-.339 1.438-.34 1.438-.346 1.434-.347 1.43-.346 1.435-.354 1.43-.358 1.428-.361 1.427-.361 1.427-.369 1.427-.372 1.423-.376 1.42-.38 1.423-.383 1.416-.387 1.416-.391 1.416-.398 1.412-.398 1.412-.406 1.409-.409 1.408-.413 1.401-.42 1.405-.424 1.402-.431 1.397-.435 1.398-.439 1.393-.265.834 2.226.962 2.728 1.221 2.721 1.261 2.713 1.305 2.709 1.338 2.699 1.376 2.694 1.416 2.691 1.449 2.68 1.486 2.677 1.523 2.672 1.548 2.665 1.586 2.658 1.619 2.654 1.648 2.651 1.677 2.643 1.711 2.639 1.737 2.632 1.766 2.632 1.789 2.625 1.818 2.617 1.843 2.618 1.871 2.613 1.892 2.607 1.914 2.606 1.939 2.595 1.959 2.599 1.979 2.591 1.999 2.592 2.019 2.584 2.037 11.085 8.811-59.542-.107-2.857-1.852-1.909-1.246-1.902-1.245-1.895-1.238-1.876-1.233-1.873-1.229-1.858-1.218-1.843-1.209-1.832-1.2-1.821-1.187-1.807-1.173-1.791-1.16-1.781-1.143-1.758-1.128-1.751-1.108-1.729-1.089-1.714-1.067-1.699-1.046-1.681-1.021-1.663-.998-1.644-.97-1.622-.944-1.604-.915-1.585-.885-1.563-.851-1.541-.823-1.098-.567.192.637.298 1.014.295 1.014.295 1.022.288 1.029.291 1.03.283 1.034.284 1.041.277 1.046.28 1.049.273 1.053.272 1.057.269 1.066.266 1.066.265 1.071.262 1.078.258 1.083.258 1.086.254 1.089.251 1.097.247 1.102.243 1.103.244 1.11 1.227 5.696-107.027-.193-.058.009-.406.044-.52.048-.633.042-.745.03-.845.009-.937-.015-1.025-.05-1.106-.089-1.183-.14-1.25-.195-1.307-.259-1.364-.33-1.408-.409-1.447-.495-1.476-.588-1.5-.692-1.513-.799-1.519-.916-1.513-1.039-1.501-1.166-1.477-1.304-1.446-1.442-1.402-1.585-1.357-1.738-1.294-1.888-1.233-2.045-1.161-2.208-1.08-2.374-.995-2.545-.888-2.671-.826-2.692-.846-2.699-.872-2.743-.899-2.784-.919-2.81-.94-2.832-.949-2.839-.963-2.839-.968-2.832-.97-2.813-.972-2.784-.967-2.751-.957-2.703-.948-2.647-.931-2.585-.912-2.511-.89-2.423-.862-2.334-.834-2.231-.799-2.12-.761-1.998-.721-1.87-.674-1.725-.626-1.582-.572-1.416-.513-1.243-.448-1.054-.377-.856-.263-.56-.261-.196-.443-.988-.11-.247-.157-.38-.201-.494-.236-.612-.263-.715-.279-.804-.289-.896-.291-.974-.284-1.043-.266-1.106-.243-1.158-.208-1.21-.165-1.246-.108-1.287-.045-1.32.035-1.338.128-1.36.238-1.369.367-1.372.518-1.364.685-1.327.87-1.269 1.063-1.172 1.248-1.044 1.417-.889 1.572-.718 1.709-.543 1.84-.368 1.973-.196 2.114-.03 2.2.137 2.173.21 2.135.203 2.155.207 2.168.21 2.179.206 3.523.34 2.991.283 2.147.207 6.28.6 2.019.196 1.973.188 1.919.184 1.859.177 1.794.174 1.722.162 1.646.159 1.561.15 1.472.14 1.374.134 1.274.121 1.166.11 1.053.104.93.088.802.078.673.063.531.051.387.037 1.918.18 1.024 1.288.059.077.097.122.128.166.158.203.185.24.216.28.24.313.267.354.289.38.308.413.33.446.348.472.366.498.379.523.392.546.404.568.415.59.425.608.429.623.437.642.44.653.442.67.442.68.442.685.439.697.436.704.431.708.423.716.415.715.405.719.387.708.713 1.327.669 1.254.628 1.184.588 1.11.544 1.036.503.958.457.882.414.796.368.712.323.63.275.539.226.446.182.354.129.258.08.158 2.881 5.768-35.731-1.35-.141-.015-.065-.003-.118-.012-.175-.011-.22-.003h-.269l-.302.003-.324.017-.34.027-.354.044-.353.06-.343.07-.325.088-.302.103-.27.11-.228.115-.191.118-.151.114-.116.11-.094.111-.078.122-.072.148-.068.202-.057.277-.035.368.003.483.062.601.135.719.223.845.327.97.438 1.087.579 1.254.69 1.42.708 1.493.706 1.515.699 1.531.702 1.541.692 1.552.69 1.556.684 1.553.002.004Zm-72.016-49.646.931 1.567.976 1.663 1.017 1.755 1.053 1.84 1.089 1.932 1.123 2.017 1.15 2.102 1.178 2.187 1.203 2.264 1.225 2.345 1.242 2.422 1.26 2.496 1.273 2.57 1.285 2.64 1.294 2.711 1.296 2.784 1.304 2.843 1.301 2.916 1.288 2.961 1.255 2.976 1.218 2.987 1.181 2.979 1.147 2.972 1.11 2.957 1.071 2.939 1.036 2.902.997 2.873.961 2.828.921 2.776.882 2.721.844 2.655.803 2.589.766 2.507.723 2.423.682 2.331.644 2.231.602 2.127.559 2.014.517 1.894.475 1.766.43 1.634.389 1.49.346 1.345.299 1.188.257 1.029.21.857.164.68.118.5.075.312 1.092 4.749-37.368-.068-.816-2.725-.074-.246-.066-.217-.086-.287-.104-.339-.121-.4-.14-.461-.156-.516-.298-.979-.275-.905-.223-.734-.24-.787-.256-.838-.273-.89-.288-.939-.302-.989-.317-1.033-.333-1.084-.345-1.127-.736-2.387-.389-1.259-.401-1.299-.843-2.722-.441-1.419-.45-1.46-.622-1.992-21.957-.46.297 1.456.288 1.456.27 1.42.258 1.38.242 1.338.227 1.301.215 1.26.2 1.214.186 1.172.174 1.123.161 1.08.15 1.031.138.983.129.933.115.882.106.829.095.777.086.723.076.665.067.611.059.55.051.491.043.431.036.376.026.309.021.242.015.182.009.125.293 4.107-39.193-.071-.342-3.483-.027-.243-.042-.405-.133-1.26-.093-.839-.106-.974-.124-1.098-.14-1.216-.156-1.327-.17-1.43-.186-1.528-.2-1.618-.215-1.701-.229-1.777-.245-1.848-.258-1.909-.272-1.967-.286-2.013-.299-2.054-.313-2.091-.325-2.116-.338-2.139-.352-2.153-.363-2.161-.374-2.157-.389-2.154-.398-2.138-.41-2.113-.423-2.087-.43-2.054-.444-2.01-.458-1.991-.475-1.991-.491-1.998-.508-1.999-.52-1.995-.536-1.991-.544-1.991-.557-1.984-.566-1.976-.576-1.973-.581-1.962-.589-1.95-.593-1.936-.595-1.928-.6-1.91-.602-1.896-.601-1.88-.6-1.862-.598-1.84-.594-1.822-.592-1.8-.586-1.773-.579-1.751-.571-1.73-.564-1.7-.553-1.67-.54-1.64-.529-1.616-.516-1.578-.501-1.548-.487-1.516-.495-1.56-.442-1.677-.261-1.711-.052-1.663.167-1.612.392-1.534.602-1.427.789-1.283.936-1.132 1.048-.97 1.12-.822 1.177-.686 1.211-.579 1.238-.475 1.251-.391 1.262-.32 1.261-.255 1.259-.203 1.244-.151 1.22-.107 1.192-.07 1.153-.04 1.106-.013 1.05.01.985.026.91.04.825.052.729.051.628.052.509.052.385.044.245.03.031.002 51.379 4.923 1.047 1.52.13.191.208.306.284.424.354.535.426.649.493.76.555.862.618.97.677 1.077.736 1.176.787 1.276.838 1.379.889 1.475.006-.001Zm-31.694 16.7-.69-.027-.728-.02-.763-.018-.807-.018-.846-.018-.889-.014-.926-.012-.97-.006-1.014-.006h-.949l-1.613.092-1.044.206-.615.24-.288.185-.11.121-.07.118-.064.207-.046.339.005.46.069.54.124.56.157.534.166.465.146.35.093.203.024.048.018.033.052.103.06.133.081.173.102.221.122.273.143.32.161.377.186.428.204.49.228.55.251.612.27.678.294.741.318.812.34.88.365.96.388 1.032.412 1.113.436 1.191.462 1.273.487 1.357.513 1.445.535 1.534.565 1.63.587 1.718.618 1.814.642 1.914.67 2.013.695 2.113.668 2.05 20.285.929-.315-.852-.759-2.013-.762-1.991-.764-1.962-.763-1.928-.762-1.899-.755-1.862-.749-1.818-.738-1.777-.726-1.726-.714-1.678-.697-1.618-.678-1.567-.659-1.501-.633-1.438-.611-1.368-.581-1.298-.553-1.22-.522-1.144-.488-1.062-.449-.973-.412-.889-.374-.796-.33-.697-.046-.1-.101-.005-.373-.03-.402-.03-.432-.026-.47-.03-.509-.029-.541-.026-.578-.03-.612-.026-.652-.027v-.003Zm302.559 141.364.634-.097.523-.135.505-.184.487-.236.487-.295.486-.365.494-.441.494-.524.501-.615.494-.707.491-.805.483-.905.468-1.001.453-1.101.439-1.2.394-1.239.081-.336-.017-.009-.218-.088-.284-.088-.342-.085-.391-.073-.424-.062-.454-.046-.482-.033-.491-.018-.494-.006-.501.006-.487.015-.483.026-.42.031-.132.439-.17.572-.17.573-.177.577-.18.574-.177.569-.177.572-.185.575-.184.573-.188.573-.184.572-.192.572-.191.576-.192.573-.195.574-.199.573-.199.574-.203.573-.188.526.232-.017.45-.039.376-.038" fill="#99DEF9"/><path d="M314.11 68.35s6.369 8.016 10.231 15.188c3.862 7.175 6.068 11.59 6.068 11.59l-29.239-1.103s-14.336-1.656-6.894 13.517c7.44 15.177 14.772 35.93 19.858 38.906 5.517 2.758 12.69 2.758 29.239 2.758 16.551 0 25.652.549 25.652.549s-4.965-20.689-12.964-38.625c-8-17.935-23.182-40.985-23.182-40.985l31.472 3.016c9.691 11.933 18.458 25.531 26.033 41.269 4.35-11.969 8.043-24.602 11.269-37.696l31.567 3.023c-3.484 15.299-7.391 30.384-12.232 45 28.75 11.714 56.537 30.664 83.931 52.554l-47.563-.085c-20.474-13.267-39.582-26.607-55.012-33.053 3.388 10.218 6.367 21.177 8.881 32.971l-102.61-.185s-23.175 3.882-31.72-24.171c-8.545-28.053-23.167-67.047-23.997-66.767 0 0-11.288-24.62 11.046-22.481 22.334 2.138 50.163 4.808 50.163 4.808l.003.002Zm-93.019-8.916-49.677-4.76s-25.986-3.485-21.124 11.95c4.86 15.431 12.89 37.419 17.753 58.982 4.861 21.563 7.819 51.118 7.819 51.118l31.703.056s-.876-11.621-4.679-28.54l29.461.619a3216.163 3216.163 0 0 1 8.611 27.982l29.8.053s-8.032-34.796-21.768-65.873c-13.739-31.076-27.899-51.587-27.899-51.587Zm-25.1 63.867c-8.14-25.298-11.464-31.944-11.464-31.944s-5.282-10.147 6.341-10.147c11.626 0 15.852.634 15.852.634s9.971 20.446 17.829 42.761l-28.558-1.305v.001Zm422.819 33.72 5.401.08c-6.341-17.023-15.948-32.955-29.506-47.575l-5.681-.416c12.928 14.992 23.003 31.233 29.786 47.908v.003Zm-21.797-.326 7.155.107c-7.45-17.186-15.951-33.876-29.388-48.744l-8.906-.652c13.559 15.368 24.098 32.091 31.139 49.289Zm-24.275-.364 13.817.207c-9.518-17.508-20.57-34.79-35.298-50.206l-10.889-.801c14.17 15.79 25.133 33.045 32.369 50.8h.001Zm-23.964-.358 13.54.203c-9.814-18.079-21.252-35.917-36.669-51.728l-12.858-.944c14.163 16.84 25.922 34.398 35.984 52.472l.003-.003Zm-103.362-68.58-9.157 31.291c26.958 13.363 53.921 31.331 80.878 52.154a378.332 378.332 0 0 0-10.012-15.484l30.921.461c-12.271-18.739-26.453-36.732-43.416-53.646l-35.285-2.596a318.99 318.99 0 0 0-13.927-12.18h-.002Z" fill="url(#b)"/><path fill-rule="evenodd" clip-rule="evenodd" d="M248.629 189.529c-3.474 27.193-9.418 54.077-20.798 80.28-4.107 9.727-5.235 16.845 8.032 15.993l37.282-2.397c18.397-1.181 21.205-1.363 36.04-41.357 5.718-15.416 10.58-33.463 11.979-52.389l-24.537-.043c-4.77 33.702-17.318 71.852-29.871 72.188-6.231.667-8.372-2.562-6.422-9.686 8.854-20.292 13.63-41.265 16.556-62.539l-28.268-.051.007.001Zm156.265.281c-3.126 24.457-10.852 46.902-21.089 70.469-3.69 8.748-3.624 16.25 8.309 15.482l24.61-1.58c16.544-1.065 25.17-2.994 41.334-37.788 6.443-13.864 12.762-29.442 14.023-46.46l-24.666-.044c-4.287 30.309-16.876 64.619-28.16 64.929-5.607.599-6.882-2.956-5.128-9.363 7.963-18.249 14.425-36.457 17.053-55.592l-26.287-.048.001-.005ZM151.101 291.249c16.271-29.219 25.021-63.454 27.536-101.846l60.615.109a214.59 214.59 0 0 1-4.521 25.611l-28.581 1.11c-.676 5.331-1.69 11.642-2.983 16.894l26.466-.378a202.726 202.726 0 0 1-9.296 22.774l-24.982 1.688c-4.274 10.812-9.434 21.511-15.003 32.157l-29.249 1.879-.002.002Zm172.706-11.098c10.779-21.687 17.884-43.374 21.319-65.059l-17.564.303c2.88-8.57 4.834-17.142 5.866-25.712l62.403.112c-1.328 8.177-3.23 16.354-6.403 24.533l-14.996.259c-5.493 22.183-13.603 43.614-25.547 63.956l-25.068 1.611-.01-.003Zm-195.296-90.852h21.446c4.636 0 8.087 3.842 7.371 8.519a215.65 215.65 0 0 1-3.453 17.53c-1.403 5.859-3.08 11.698-4.881 17.529-1.451 4.693-6.564 8.514-11.192 8.514h-21.437c-4.635 0-7.11-3.822-5.66-8.514 1.801-5.831 3.478-11.668 4.881-17.529 1.392-5.825 2.565-11.674 3.453-17.53.709-4.675 4.837-8.519 9.472-8.519Zm3.672 11.335h11.122c2.139 0 3.595 1.768 3.181 3.917a240.638 240.638 0 0 1-2.321 10.796 277.524 277.524 0 0 1-2.84 10.79c-.612 2.158-2.901 3.918-5.029 3.918h-11.14c-2.121 0-3.327-1.76-2.716-3.918 1.012-3.59 1.987-7.187 2.847-10.79.858-3.592 1.636-7.19 2.323-10.796.409-2.149 2.445-3.917 4.573-3.917Zm-58.161-11.419h37.56a271.95 271.95 0 0 1-1.314 12.745h-10.77c-1.63 6.602-3.384 13.232-5.506 19.806-2.136 6.631-4.609 13.205-7.14 19.807H75.493c2.533-6.602 5.004-13.179 7.142-19.807 2.123-6.577 3.874-13.204 5.506-19.806H72.714c.536-4.248.974-8.494 1.308-12.745Zm13.86 106.168c2.918-5.729 5.654-11.494 8.116-17.296l12.573-.892a474.172 474.172 0 0 1-7.318 17.309l7.599-.498c6.789-14.471 12.35-28.797 16.302-43.292l-7.34.173c-1.954 6.545-4.162 13.001-6.565 19.41l-12.446.858c2.525-6.607 4.648-13.26 6.232-19.96l-7.289.173c-3.873 16.355-10.308 30.991-17.149 44.501l7.291-.479-.005-.007Zm-24.017-43.218 24.257-.575c-.152 1.024-.418 2.358-.864 4.086a71.475 71.475 0 0 1-1.146 3.989l-8.224.362c-3.198 12.605-8.339 24.882-14.613 36.974l-5.637.37h-1.805c6.308-12.106 11.488-24.402 14.724-37.021l-9.823.433 3.131-8.618Zm75.319 39.849-18.218 1.196c6.157-12.4 11.625-27.208 16.872-42.8l7.345-.172 8.539-.202c-.03.137-.058.273-.086.412l-.003.009c-.006.034-.015.07-.024.105-.018.092-.039.184-.057.275-.003.015-.006.026-.006.04-.009.034-.015.071-.024.106-.006.035-.015.07-.021.104a.97.97 0 0 1-.023.107l-.091.419c-.009.034-.014.07-.023.106l-.006.018c-.09.412-.183.824-.276 1.234v.006l-.027.106c-.006.035-.015.07-.024.105-.008.034-.014.07-.023.106-.003.018-.009.036-.012.053-.006.018-.006.033-.012.049-.003.009-.003.015-.006.021l-.184.793-.006.027a1.126 1.126 0 0 1-.024.104c-.011.036-.017.07-.026.106-.006.035-.018.069-.027.105-.008.035-.014.069-.023.104-.002.009-.003.018-.006.026l-.018.078c-.006.035-.015.07-.023.105-.009.035-.015.07-.024.104a7.865 7.865 0 0 1-.027.105l-.001.003c-.049.209-.101.416-.152.625a.705.705 0 0 1-.027.105l-.024.104-.026.104v.001a7.865 7.865 0 0 0-.027.105c-.011.033-.017.069-.026.104-.009.034-.015.069-.027.103-.006.036-.017.071-.026.105l-.027.104-.026.107-.009.037c-.006.023-.009.044-.015.065l-9.198.405a332.006 332.006 0 0 1-3.9 11.211l9.664-.667.22.145c-.089.275-.18.55-.27.823-.012.035-.021.07-.034.104l-.034.103-.035.102-.034.102a28.134 28.134 0 0 0-.138.413l-1.142 3.284c-.183.511-.369 1.024-.558 1.535l-.038.102-.207.096-10.026.71a221.003 221.003 0 0 1-4.998 11.547l10.307-.292a208.283 208.283 0 0 1-2.57 5.535l.003.002-.005.008Zm362.41-79.572a200.56 200.56 0 0 1-6.001 18.005c1.766.08 4.302.102 6.989-.182 4.977-.523 8.641-4.714 11-12.573 2.271-7.57-11.007-5.418-11.988-5.25Zm27.965 46.85c12.43-20.384 20.404-43.744 25.203-69.218l59.736.106a217.842 217.842 0 0 1-7.475 20.684l-30.597.488.324.317a111.763 111.763 0 0 1-3.435 11.845l20.061-.321a97.19 97.19 0 0 1-3.852 8.793 103.965 103.965 0 0 1-3.27 6.044l-19.741.677a96.585 96.585 0 0 1-6.878 10.686l-.439.8 26.851-.921a229.478 229.478 0 0 1-10.982 14.723l-46.536 2.992-32.233 2.071s4.715-8.147 2.356-13.385c-1.198-2.667-3.285-4.723-5.04-6.1-3.35.472-5.946.723-7.007.818a214.401 214.401 0 0 1-11.804 20.048l-22.977 1.477c14.329-23.994 25.355-50.988 32.004-81.97l.173.082-.015-.082s28.547.05 36.925.066c8.383.015 12.84.024 17.809 6.718 4.973 6.693-.523 18.861-4.449 28.816-3.93 9.954-9.168 14.669-20.168 19.123-1.213.491-2.5.945-3.827 1.361 3.104.912 7.248 2.809 10.635 6.76 3.255 3.798 5.183 7.468 6.282 10.126l2.363-3.627.003.003Z" fill="url(#c)"/><path d="M75.404 46.492C90.09 72.415 96.421 98.834 96.421 98.834h23.852c-6.911-25.924-10.366-36.356-18.141-49.75l31.072 3.025c6.911 9.505 31.599 77.824 33.974 126.862H132.8s-2.496-36.211-7.522-54.663l-23.421-.969s4.468 22.849 5.079 54.768l-33.664.432c0-53.142-11.23-103.963-25.484-135.071l27.616 3.024Z" fill="url(#d)" stroke="#99DEF9" stroke-width="3"/><path d="m367.769 338.086 9.177-20.543 11.132-22.626 4.217-.259-25.151 49.42-4.217.258 7.65-19.42 8.566-21.471-10.675 21.601-9.758 19.549-4.216.259 18.826-49.031 4.217-.259-9.024 22.497-9.177 20.543 10.231-20.608 11.132-22.626 4.217-.259-9.024 22.497-8.123 20.478ZM400.201 294.173l-21.989 49.225-4.216.259 21.988-49.225 4.217-.259ZM416.013 293.202l-1.374 3.077-4.217.259-20.614 46.148-4.217.259 20.615-46.148-4.217.259 1.374-3.077 12.65-.777ZM427.082 292.523l4.217-.259-21.989 49.225-4.217.259 10.68-23.908-4.217.259-10.68 23.908-4.216.259 21.989-49.225 4.216-.259-9.877 22.113 4.216-.259 9.878-22.113ZM451.789 291.006l4.216-.259-21.988 49.225-4.217.259 10.679-23.907-4.216.259-10.68 23.907-4.216.259 21.988-49.225 4.217-.259-9.878 22.113 4.217-.259 9.878-22.113ZM449.829 339.002l-4.217.258 4.094-10.599-2.932.18-5.378 10.678-4.217.259 26.205-49.484 4.217-.259-17.772 48.967Zm1.135-13.66 9.948-24.922-12.418 25.074 2.47-.152ZM478.468 309.316l-4.217.259 7.101-15.895c.324-.727.367-1.228.127-1.504-.23-.298-.587-.432-1.07-.402a3.205 3.205 0 0 0-.928.213 4.406 4.406 0 0 0-.944.463 4.8 4.8 0 0 0-.846.675 2.794 2.794 0 0 0-.556.813l-17.866 39.996c-.133.299-.191.572-.174.821.039.247.125.46.259.638.165.156.356.28.572.371.247.067.514.093.799.075.483-.03.983-.216 1.5-.559.516-.344.937-.879 1.261-1.605l8.017-17.947 4.216-.259-8.016 17.947a7.909 7.909 0 0 1-1.577 2.31 11.55 11.55 0 0 1-2.179 1.723 11.19 11.19 0 0 1-2.472 1.087c-.874.282-1.706.448-2.497.496-.79.049-1.511-.011-2.162-.179-.652-.168-1.178-.447-1.58-.838-.393-.412-.622-.928-.687-1.547-.055-.641.112-1.399.504-2.275l17.866-39.996a8.18 8.18 0 0 1 1.543-2.307 10.534 10.534 0 0 1 2.18-1.724 11.19 11.19 0 0 1 2.472-1.087 10.182 10.182 0 0 1 2.496-.496c.791-.048 1.512.011 2.163.179.651.168 1.173.458 1.565.87.403.391.631.907.687 1.548.087.618-.065 1.365-.456 2.241l-7.101 15.895ZM481.453 337.06l-4.216.259 6.916-22.367-10.079 22.561-4.216.259 21.989-49.225 4.216-.259-10.078 22.562 13.241-22.756 4.216-.259-14.651 24.837-7.338 24.388ZM517.933 306.894l-4.217.258 7.101-15.895c.324-.727.367-1.228.127-1.504-.23-.298-.587-.432-1.07-.402a3.264 3.264 0 0 0-.928.213 4.454 4.454 0 0 0-.944.463c-.296.184-.578.41-.846.675a2.799 2.799 0 0 0-.556.814l-17.866 39.995c-.133.299-.191.573-.174.821.039.247.125.46.259.639.165.156.356.279.572.37.247.068.513.093.799.075.483-.029.983-.216 1.499-.559.517-.344.937-.879 1.262-1.605l8.017-17.947 4.216-.258-8.016 17.946a7.896 7.896 0 0 1-1.577 2.31 11.582 11.582 0 0 1-2.179 1.723 11.19 11.19 0 0 1-2.472 1.087c-.874.282-1.706.448-2.497.496-.79.049-1.511-.011-2.163-.179-.651-.167-1.177-.447-1.58-.838-.392-.412-.621-.928-.686-1.547-.055-.641.112-1.399.504-2.275l17.866-39.995a8.185 8.185 0 0 1 1.543-2.308 10.568 10.568 0 0 1 2.18-1.724 11.145 11.145 0 0 1 2.472-1.086 10.14 10.14 0 0 1 2.496-.497c.791-.048 1.511.012 2.163.179.651.168 1.173.458 1.565.871.403.39.631.906.687 1.547.087.618-.065 1.365-.457 2.241l-7.1 15.896ZM535.528 285.865l-20.614 46.149 4.216-.259-1.374 3.076-8.433.518 21.989-49.225 4.216-.259ZM549.232 285.024l4.217-.259-19.928 44.61a8.72 8.72 0 0 1-1.539 2.37 9.975 9.975 0 0 1-2.033 1.683 9.87 9.87 0 0 1-2.279 1.013 9.712 9.712 0 0 1-2.237.418 6.79 6.79 0 0 1-2.012-.157c-.595-.151-1.077-.412-1.444-.784-.358-.394-.559-.901-.602-1.522-.034-.642.15-1.411.551-2.309l19.927-44.61 4.217-.259-19.928 44.61c-.343.77-.417 1.294-.221 1.572.196.279.491.407.886.382.396-.024.825-.196 1.288-.515.463-.319.866-.864 1.21-1.633l19.927-44.61ZM551.804 306.809l3.162-.194c.264-.016.485-.082.665-.197.211-.137.392-.304.544-.501.152-.196.28-.412.385-.647.137-.257.262-.515.377-.771l6.871-15.383c.229-.512.329-.903.299-1.171-.007-.27-.147-.459-.42-.567-.272-.108-.678-.156-1.217-.143-.518.011-1.172.041-1.962.089l-8.704 19.485Zm1.926 4.869c.114-.257.213-.502.296-.735.115-.257.182-.479.202-.667.02-.189-.023-.331-.129-.429-.074-.12-.243-.172-.507-.156l-3.162.195-9.162 20.51c.483-.03.982-.071 1.496-.123a7.84 7.84 0 0 0 1.437-.275 3.946 3.946 0 0 0 1.26-.67c.388-.294.701-.708.939-1.242l7.33-16.408Zm7.423-7.438c-.458 1.026-1.085 1.833-1.883 2.422-.797.589-1.861 1.06-3.193 1.412 1.103.161 1.804.502 2.105 1.024.301.522.223 1.295-.235 2.321l-7.33 16.408c-.573 1.282-1.258 2.29-2.056 3.025a8.495 8.495 0 0 1-2.584 1.624c-.933.369-1.92.616-2.959.742-1.029.105-2.071.19-3.125.254l-4.216.259 21.988-49.225 4.217-.258a57.511 57.511 0 0 1 3.482-.121c1.035-.022 1.843.105 2.425.381.581.276.901.755.96 1.437.09.66-.152 1.631-.724 2.912l-6.872 15.383Z" fill="#fff"/></g><defs><linearGradient id="b" x1="352.124" y1="42.574" x2="357.848" y2="177.312" gradientUnits="userSpaceOnUse"><stop stop-color="#EF381F"/><stop offset="1" stop-color="#E6E83C"/></linearGradient><linearGradient id="c" x1="335.167" y1="297.367" x2="335.167" y2="189.226" gradientUnits="userSpaceOnUse"><stop stop-color="#EF381F"/><stop offset="1" stop-color="#E6E83C"/></linearGradient><linearGradient id="d" x1="125.915" y1="54.108" x2="135.422" y2="178.107" gradientUnits="userSpaceOnUse"><stop stop-color="#EF381F"/><stop offset="1" stop-color="#E6E83C"/></linearGradient><clipPath id="a"><path fill="#fff" transform="translate(.153 .176)" d="M0 0h660v375H0z"/></clipPath></defs></svg>