<svg width="787" height="410" fill="none" xmlns="http://www.w3.org/2000/svg"><g clip-path="url(#a)"><path d="M152.984-1.786c-18.535-.063-27.76 8.667-31.685 23.354l-1.63 6.084h-2.718c-19.796-.006-37.496 19.506-42.663 38.844L.701 341.875c-3.92 14.674 8.83 38.568 32.392 38.517l426.615-.77.067 3.51c-.06 11.95 7.367 27.667 24.859 28.097l136.141-.217c17.493.43 34.522-8.287 38.007-21.33l2.88-10.594 15.744-.054c21.61-.047 33.23-12.295 41.848-44.547l66.774-263.863c5.167-19.337-11.018-42.747-30.815-42.754l-439.576.144 7.059-6.753c9.308-8.276 3.987-22.46-8.978-22.504l-160.734-.543Z" fill="#242424"/><path d="m124.204 78.861-7.423 26.703 32.153.754-28.008 104.469 30.763.014 28.009-104.469 41.204.018 7.9-27.07-104.598-.419Zm124.357.427-7.979 27.07 485.242.207 7.259-27.074-484.522-.203Zm354.51 39.334c-27.162-.012-45.649 20.067-53.112 47.905-7.716 28.778.008 45.185 27.303 45.197 10.784.005 19.907-2.218 25.979-4.502l-.764-15.081c-5.467 2.015-12.13 3.822-18.387 3.819-14.114-.005-14.942-12.619-10.038-30.908 5.119-19.096 13.342-30.671 24.792-30.666 4.66.002 8.669 1.606 11.973 7.66l15.281-12.275c-3.509-5.785-8.781-11.143-23.027-11.149Zm-407.36.97-24.425 91.103 22.055.009 10.459-39.012 31.103.014-10.459 39.012 21.885.008 24.425-91.103-21.885-.009-9.586 35.756-31.103-.014 9.586-35.755-22.055-.009Zm91.556.039-24.425 91.103 59.266.025 4.364-16.279-37.211-.015 6.172-23.019 26.861.012 6.89-15.992-29.463-.012 5.237-19.534 35.344.015 4.364-16.278-57.399-.026Zm103.828.043-24.425 91.104 21.941.009 10.46-39.012 31.216.014-10.46 39.011 21.829.009 24.425-91.103-21.829-.009-9.586 35.756-31.216-.014 9.586-35.756-21.941-.009Zm117.343.05-58.695 91.089 21.885.009 12.852-21.988 29.123.012.778 21.994 22.224.008-8.657-91.117-19.51-.007Zm130.236.055-24.425 91.104 21.942.008 24.425-91.103-21.942-.009Zm48.464.021c-9.452 19.363-17.969 31.97-35.736 39.629l-.413 1.542 17.323 49.935 24.43.01-18.255-47.935c11.606-7.527 22.606-17.757 34.48-43.172l-21.829-.009Zm-175.593 22.718c.231 6.591.792 19.5 1.575 29.991l-19.284-.008c6.371-10.354 13.873-23.126 17.709-29.983Zm-396.234 81.406c-11.487-.005-23.56 7.295-26.671 18.897-2.823 10.53 2.188 15.886 12.131 20.57 5.068 2.343 8.012 4.292 6.757 8.972-1.255 4.68-4.456 7.253-9.862 7.25-5.116-.001-12.363-5.478-13.858-6.746l-8.296 11.535c3.876 2.83 11.053 6.974 21.092 6.979 14.093.005 25.589-9.589 28.804-21.581 2.667-9.945-1.145-14.578-10.297-18.97-7.264-3.514-9.6-5.939-8.739-10.229.758-2.827 3.55-4.911 7.99-4.909 4.923.001 9.939 3.659 12.487 5.317l8.519-10.678c-3.534-3.024-10.79-6.403-20.057-6.407Zm297.74.126c-11.487-.005-23.617 7.295-26.727 18.897-2.823 10.53 2.244 15.886 12.187 20.57 5.068 2.343 8.012 4.292 6.757 8.972-1.254 4.68-4.456 7.253-9.862 7.25-5.116-.001-12.42-5.478-13.914-6.746l-8.296 11.535c3.876 2.83 11.109 6.974 21.148 6.979 14.094.005 25.533-9.589 28.748-21.581 2.667-9.945-1.145-14.578-10.298-18.97-7.264-3.513-9.542-5.939-8.682-10.229.758-2.828 3.493-4.911 7.934-4.909 4.923.001 9.996 3.659 12.544 5.318l8.462-10.679c-3.534-3.024-10.734-6.403-20.001-6.407Zm198.155.084c-19.692-.008-33.039 14.591-38.45 34.773-5.594 20.864.067 32.675 19.855 32.684 7.819.003 14.326-1.536 18.728-3.191l-.525-10.911c-3.963 1.46-8.752 2.738-13.289 2.736-10.232-.004-10.867-9.251-7.312-22.51 3.711-13.845 9.628-22.161 17.93-22.157 3.379.001 6.283 1.213 8.678 5.602l11.113-8.964c-2.544-4.194-6.4-8.057-16.728-8.062Zm-395.999.575c-4.247-.001-17.901.164-20.121.163l-17.688 65.971 15.891.007 7.489-27.93h1.696c6.661.004 6.12 9.703 9.534 27.938l17.078.007c-2.47-15.992-3.31-26.289-9.76-30.68 7.568-3.019 13.36-8.272 15.582-16.559 3.319-12.383-3.291-18.91-19.701-18.917Zm273.367.116c-4.054-.002-17.805.164-20.122.163l-17.687 65.971c2.8.001 15.303.121 18.971.122 18.437.007 29.404-6.307 32.671-18.494 2.013-7.507-1.052-13.225-9.947-16.056 8.84-2.727 14.527-7.987 16.304-14.617 2.824-10.53-3.973-17.082-20.19-17.089Zm-348.343.024-3.154 11.766 15.551.007-14.532 54.205 16.004.007 14.532-54.205 14.986.007 5.19-11.765-48.577-.022Zm112.706.048-17.687 65.971 16.004.007 17.687-65.972-16.004-.006Zm27.936.012-17.687 65.971 15.947.007 17.688-65.971-15.948-.007Zm35.062.015c-6.853 14.039-12.903 23.113-25.784 28.666l-.321 1.199 12.489 36.108 17.757.007-13.268-34.68c8.414-5.457 16.466-12.868 25.074-31.293l-15.947-.007Zm26.522.011-17.687 65.971 42.979.019 3.154-11.767-27.031-.012 4.472-16.679 19.51.009 5.016-11.537-21.433-.009 3.813-14.222 25.674.01 3.155-11.766-41.622-.017Zm200.134.084-42.457 65.961 15.835.007 9.218-15.819 21.15.008.621 15.824 16.117.007-6.347-65.981-14.137-.007Zm94.383.04-17.687 65.972 16.004.007 17.687-65.972-16.004-.007Zm35.118.016c-6.853 14.039-12.903 23.113-25.783 28.666l-.322 1.199 12.49 36.108 17.813.007-13.325-34.68c8.414-5.457 16.353-12.868 24.961-31.294l-15.834-.006ZM208.22 235.161l3.563.002c6.564.003 7.498 4.096 6.191 8.971-1.594 5.947-5.893 8.737-10.43 8.736l-4.071-.002 4.747-17.707Zm275.033.231c.72-.016 1.554.001 2.375.001 5.695.002 7.181 3.38 5.744 8.742-1.752 6.533-6.015 8.509-9.973 8.508l-4.467-.002 4.594-17.135a18.102 18.102 0 0 1 1.727-.114Zm61.585 6.138c.167 4.778.585 14.045 1.152 21.651l-13.912-.005c4.619-7.507 9.979-16.673 12.76-21.645v-.001Zm-66.319 21.222c7.336.004 8.507 4.554 7.2 9.429-1.725 6.435-6.226 8.281-11.438 8.278l-4.807-.001 4.701-17.536c.895-.097 2.606-.17 4.344-.169v-.001ZM61.745 302.304l-7.93 27.447 612.487.259 7.936-27.586-612.493-.12Z" fill="#E8E1CF"/><path d="m167.725 54.361-14.111-.005 4.225-14.93-11.289-.006-4.224 14.93-11.625-.004-.038.136-5.835-.002c-17.253-.276-21.862 7.402-27.666 21.777l-67.488 256.4c-3.441 12.167 3.29 21.798 15.338 21.794l459.349-.215c.02-.001.044.001.063.001a39.193 39.193 0 0 1 2.506-.067l11.625.005 4.6.002-3.61 12.76-10.715-.006c-2.979-.001-5.181.092-6.662.269-1.481.179-2.845.466-4.08.881-1.234.415-2.417 1.141-3.571 2.17-1.154 1.029-2.205 2.816-3.082 5.429-.618 2.534-.584 4.341.009 5.43.594 1.089 1.486 1.816 2.678 2.173a20.21 20.21 0 0 0 3.754.748c1.332.139 3.352.205 6.057.207l10.524.005-3.629 12.827-16.035-.007c-4.605-.002-8.529-.872-11.787-2.516-3.254-1.665-5.47-4.163-6.691-7.47-1.201-3.306-1.143-7.359.212-12.149.873-3.085 2.186-5.811 3.956-8.28l-438.989.224c-18.634.004-29.443-15.402-24.12-34.22l67.49-256.401c9.355-26.547 17.407-34.95 43.458-34.124l3.347.002 8.277-29.25 14.111.005-4.032 14.252 11.288.005 4.033-14.252 14.111.005-10.792 38.142-.941 3.325 14.38.005 4.8-7.464 12.901.005.576 7.466 16.395.007-2.781-41.473-21.435-.008-23.895 38.136-.94 3.326Zm83.698-41.437c-3.395-.002-6.7.376-9.954 1.217a33.13 33.13 0 0 0-9.072 3.797 27.082 27.082 0 0 0-7.248 6.378c-2.019 2.546-3.486 5.43-4.407 8.686-1.311 4.633-1.302 8.544-.029 11.742 1.292 3.199 3.542 5.656 6.882 7.266 3.345 1.59 7.401 2.379 12.095 2.38l16.194.008 3.932-12.352-10.987-.005c-2.756-.001-4.831-.072-6.191-.205a22.484 22.484 0 0 1-3.888-.749c-1.22-.345-2.144-1.051-2.764-2.105-.621-1.053-.594-2.776 0-5.226.855-2.527 1.815-4.298 2.976-5.294 1.16-.994 2.367-1.7 3.619-2.102a21.626 21.626 0 0 1 4.147-.88c1.507-.174 3.808-.201 6.845-.2l10.918.005 3.932-12.351-5.173-.002-11.827-.005v-.003Zm20.965.008L260.655 54.4l14.044.005 3.495-12.351 7.457 12.356 15.792.007h1.276l440.985-.22c12.049-.003 18.78 9.627 15.339 21.794l-67.393 256.4c-4.244 18.792-13.431 21.774-27.667 21.776l-28.171.052-.065.001-24.594-.01-12.136 42.892 22.51.009c3.831.042 7.119-.21 9.955-.743a17.319 17.319 0 0 0 7.632-3.458c2.217-1.741 3.765-4.283 4.723-7.668a7.477 7.477 0 0 0 .182-3.258c-.178-1.109-.582-2.116-1.237-2.987-.631-.891-1.507-1.675-2.641-2.309-1.127-.654-2.462-1.025-3.954-1.225l.039-.136c3.452-1.048 6.088-2.379 7.92-4.001 1.373-1.217 2.441-2.775 3.139-4.682l13.187-.059c28.474.001 36.344-6.816 43.477-34.191l67.394-256.4c5.322-18.818-5.506-34.157-24.14-34.152l-440.986.221h-1.277l-11.691-.006-4.809-8.418 21.983-20.693-14.043-.005-13.767 13.501 3.822-13.505-5.443-.002-8.604-.002Zm-71.669 9.133 1.065 16.426-11.894-.005 10.829-16.42Zm326.774 332.111-12.136 42.893 33.823.177 3.629-12.827-19.981-.174 8.507-30.066-13.842-.003Zm37.417.016-7.125 25.179c-1.019 3.602-1.309 6.518-.864 8.756.464 2.237 1.485 4.073 3.081 5.499 1.615 1.426 3.678 2.45 6.172 3.124a33.732 33.732 0 0 0 7.689 1.09c3.158-.08 6.127-.495 8.899-1.286 2.791-.791 5.235-1.899 7.324-3.323 2.109-1.424 3.986-3.242 5.683-5.36 1.722-2.137 3.167-4.987 4.234-8.55l7.105-25.111-13.842-.006-7.163 25.315c-.717 2.811-1.93 4.853-3.657 6.04-1.728 1.187-3.671 1.791-5.76 1.83-2.565-.082-4.297-.706-5.193-1.835-.896-1.129-.839-3.151.096-6.041l7.163-25.315-13.842-.006Zm53.651 10.407 10.281.004c.451 0 .956.203 1.488.679.552.476.684 1.344.432 2.512-.325 1.01-.899 1.83-1.699 2.443-.796.593-1.496.882-2.064.882l-10.281-.004 1.843-6.516Zm-4.493 15.882 9.407.003c1.96.001 3.433.375 4.329 1.088.916.713 1.123 1.672.653 2.919-.318 1.129-1.187 2.078-2.621 2.849a8.943 8.943 0 0 1-4.608 1.084l-9.407-.003 2.247-7.94Z" fill="#DB4B4F" stroke="#E8E1CF" stroke-width="1.492"/></g><defs><clipPath id="a"><path fill="#fff" d="M0 0h787v410H0z"/></clipPath></defs></svg>