<svg width="489" height="519" fill="none" xmlns="http://www.w3.org/2000/svg"><g filter="url(#a)"><path d="M8 107.379c0-19.172 12.692-36.028 31.118-41.326l193.5-55.637a42.998 42.998 0 0 1 23.764 0l193.5 55.637C468.308 71.35 481 88.207 481 107.379V468c0 23.748-19.252 43-43 43H51c-23.748 0-43-19.252-43-43V107.379Z" fill="#fff"/><path d="M244 400V28s174.5 51.069 189 55.575c17.681 5.494 29 19.025 29 37.55v194.261c0 16.317-13.316 25.617-29 30.041C362 365.454 244 400 244 400Z" fill="#A6253A"/><path d="M244 400V28S69.5 79.069 55 83.575c-17.681 5.494-29 19.025-29 37.55v194.261c0 16.317 13.316 25.617 29 30.041C126 365.454 244 400 244 400Z" fill="#D3343E"/><path d="M324.978 153.61c-4 7.499-50 64.5-50 64.5s2-87.5-1.5-138c-.556-8.025-19.901-6.022-20.5 2-3.769 50.5-5.5 229-3 238s20.773 10 22.5.5c2-11-1-44.5-1-44.5s21 64 92 60c63-8.5 77.547-72.194 78-91 .193-8-3.945-10.5-6-3.5-6.315 21.518-23 64-72 72.5-56-4.5-75.5-63.5-75.5-63.5s42-55 47.5-85c1.834-10-3.832-24.501-10.5-12Z" fill="#D2DCDB"/><path fill-rule="evenodd" clip-rule="evenodd" d="M151.712 184.61c1.996-3 13.968-3.499 13.968 0 0 10.261-1.845 27.266-3.662 44.013-2.078 19.16-4.12 37.983-3.322 45.987.044.437.078.874.112 1.306.279 3.572.535 6.843 5.874 7.194 4.682.309 8.98-8.5 8.98-8.5l12.471 18.5s-6.485 14.5-18.458 14.5c-12.97 0-19.455-14.5-19.455-14.5s-14.142 33.5-34.919 0c-11.474-18.5-13.695-75.5 0-93 19.954-25.5 34.919-7.5 34.919-7.5s1.605-5.163 3.492-8ZM130.76 285.611c-7.981-6.77-9.403-21.674-8.979-36.5l.027-.958c.466-16.431.881-31.09 11.447-38.543 7.057-4.977 7.797 13.424 6.984 39.501-.998 31.999-6.391 39.118-9.479 36.5Z" fill="#fff"/><path d="M233.025 235.111c-1.995 5-17.958 4.126-17.958-3 0-10 1.295-20.407-1.497-33-1.995-9.001-8.481-11.001-13.968 0-3.99 7.999-7.338 23.614-6.485 39 1.145 20.656 3.492 47.994 16.462 50 16.961 2.622 34.421-32 34.421-32v39s-8.587 18.355-34.421 16c-16.462-1.501-26.439-18.001-34.421-30.001-4.587-11.358-3.991-24.288-3.991-42.999 0-33.271 20.952-79.571 40.408-75.501 29.249 6.12 32.547 44.694 21.45 72.501Z" fill="#FFFFFD"/><path d="M244 256.111v39l6-11.611 2.5-41-8.5 13.611Z" fill="#D2DCDB"/><path d="M36.01 125.124c-.455-6.205 13.894-14.025 15.085-7.902 5.446 28.017 6.855 64.135 6.175 100.741-.123 6.578-.245 13.171-.333 19.736 2.175-3.259 4.46-11.327 6-16.234 3.374-10.742 4.288-19.479 17.248-22.26 7.681-1.648 17.724 2.65 21.184 12.587 4.849 22.224 3.656 65.724 2.155 83.958-.941 11.432-16.647 15.38-17.952 9.637-1.1-4.844-1.302-20.827-1.522-38.371-.32-25.379-.68-52.304-3.865-55.224-6.488-5.948-14.538 42.159-20.168 71.95-.924 4.893-1.118 9.699-1.803 13.146.108 1.36.225 2.712.349 4.055.55 5.957-18.781 5.979-18.781 0 0-18.274 0-124.456-3.771-175.819Z" fill="#fff"/><path d="M444.529 463.236c0 3.219-.763 5.807-2.289 7.764-1.305 1.674-3.144 2.872-5.516 3.593-1.93.592-4.164.888-6.701.888h-8.048L407 475.26v-46.636c0-2.137.754-2.624 2.261-2.624h1.6c1.507 0 2.261.293 2.261 2.43v8.385h16.901c4.872.001 8.54 1.082 11.003 3.245 2.335 2.06 3.503 5.009 3.503 8.846v14.33Zm-6.122-.309V449.06c0-1.442-.626-2.601-1.876-3.476-1.452-1.03-3.585-1.545-6.398-1.545h-17.011v24.007l9.597.25h7.359c3.126 0 5.222-.283 6.288-.849 1.36-.721 2.041-2.228 2.041-4.52ZM51.97 425.404c0 1.313-.39 2.381-1.172 3.205-.781.824-1.687 1.236-2.744 1.236-1.057 0-1.986-.386-2.758-1.158-.864-.85-1.296-1.944-1.296-3.283s.41-2.408 1.227-3.207c.818-.798 1.76-1.197 2.827-1.197 1.048 0 1.963.399 2.744 1.197.781.799 1.172 1.868 1.172 3.207Zm-.855 46.39c0 2.137-.763 3.206-2.289 3.206H47.31c-1.526 0-2.289-1.069-2.289-3.206v-32.55c0-2.111.763-2.727 2.29-2.727h1.516c1.526 0 2.29.616 2.29 2.727v32.55Zm53.257 0c0 2.137-.763 3.206-2.289 3.206h-1.6c-1.526 0-2.289-1.069-2.289-3.206v-25.458c0-1.519-.67-2.989-2.013-3.53-1.085-.437-2.997-.656-5.736-.656h-9.983c-2.85 0-4.808.206-5.875.618-1.379.54-2.068 2.036-2.068 3.607v25.419c0 2.137-.754 3.206-2.261 3.206h-1.6c-1.508 0-2.261-1.069-2.261-3.206v-27.32c0-3.606 1.066-5.223 3.199-7.052 2.298-1.957 5.91-1.506 10.838-1.506h10.01c4.689 0 8.182-.386 10.48 1.481 2.299 1.867 3.448 4.164 3.448 7.769v26.628Zm29.844-35.46v-7.686c0-2.112.754-3.168 2.262-3.168h1.599c1.508 0 2.262 1.056 2.262 3.168v7.686h11.838c1.526 0 2.289 1.056 2.289 3.168v-.159c0 2.138-.763 2.431-2.289 2.431h-11.838l-.234 27.449 13.409.05c.972 0 1.571 5.727.063 5.727h-2.762c-.923 0-7.834-.061-12.429-.038-2.868.015-4.17-3.282-4.17-5.108v-33.52Zm70.077 35.46c0 2.137-.754 3.206-2.262 3.206h-1.599c-1.508 0-2.262-1.069-2.262-3.206v-22.983c0-2.009-.648-3.393-1.944-4.153-1.296-.759-2.419-1.139-5.305-1.139h-18.009v28.275c0 2.137-.753 3.206-2.261 3.206h-1.6c-1.507 0-2.261-1.069-2.261-3.206v-43.146c0-2.112.754-3.168 2.261-3.168h1.6c1.508 0 2.261 1.056 2.261 3.168v7.686h16.547c5.847 0 8.996.966 11.386 2.897 2.299 1.854 3.448 5.009 3.448 9.464v23.099Zm50.706-15.605c0 .927-.147 1.751-.441 2.472-.294.721-.717 1.081-1.269 1.081h-29.477c-.027 3.682-.505 6.122 3.432 7.795 2.667 1.133 10.238 2.169 18.266 1.442h3.803c1.508 0 3.037-.095 3.037 2.042v.773c0 2.137-.754 3.206-2.262 3.206h-3.916c-2.776 0-19.85-.316-21.771-.946-1.921-.631-3.415-1.513-4.481-2.646-2.262-2.498-3.393-5.408-3.393-8.73v-14.331c0-3.811 1.315-6.824 3.944-9.038 2.629-2.215 6.205-3.322 10.728-3.322h11.445c3.438 0 6.297.888 8.577 2.665 2.519 1.957 3.778 4.674 3.778 8.15v9.387Zm-6.926-3.902v-4.789c0-1.108-.818-2.093-2.454-2.955-1.636-.863-2.607-1.294-4.85-1.294h-8.881c-2.665 0-3.839.347-5.457 1.043-1.875.798-2.812 1.969-2.812 3.515v4.48h24.454ZM330 428.167v41.207c0 1.826 1.302 5.123 4.17 5.108 4.595-.024 4.209.038 5.132.038h2.762c1.507 0 .909-5.728-.064-5.728l-6.111-.049.233-40.576c0-2.111-.753-3.167-2.261-3.167h-1.6c-1.507 0-2.261 1.056-2.261 3.167ZM289.101 450.213c-.06-3.108-.101-5.242 3.369-6.751 2.606-1.133 10.003-2.169 17.848-1.442h3.715l.181.001c1.412.003 2.786.007 2.786-2.043v-.772c0-2.137-.737-3.206-2.209-3.206h-3.827c-2.712 0-19.394.316-21.271.946-1.877.631-3.337 1.513-4.379 2.646-2.209 2.498-3.314 5.407-3.314 8.729v14.067c0 3.322 1.131 6.232 3.392 8.73 1.066 1.133 2.56 2.015 4.482 2.646 1.921.63 18.995.946 21.771.946h3.916c1.508 0 2.261-1.069 2.261-3.206v-.773c0-2.05-1.406-2.046-2.851-2.042h-3.988c-8.029.727-15.599-.309-18.267-1.442-3.552-1.509-3.51-3.644-3.448-6.751.007-.337.014-.684.016-1.044l-.189-7.318.022-.878c-.003-.36-.009-.707-.016-1.043ZM358.289 435.871c-1.526 0-2.289 1.069-2.289 3.206v26.628c0 3.605 1.149 5.902 3.447 7.769s5.792 1.481 10.48 1.481h10.011c4.927 0 8.54.45 10.838-1.507 2.133-1.828 3.199-3.446 3.199-7.051v-27.32c0-2.137-.754-3.206-2.261-3.206h-1.6c-1.507 0-2.261 1.069-2.261 3.206v25.419c0 1.571-.69 3.066-2.069 3.607-1.066.412-3.024.618-5.874.618h-9.983c-2.739 0-4.651-.219-5.736-.657-1.342-.54-2.013-2.01-2.013-3.529v-25.458c0-2.137-.764-3.206-2.29-3.206h-1.599Z" fill="#D3343E" stroke="#D3343E" stroke-width=".96"/></g><defs><filter id="a" x="0" y=".742" width="489" height="518.258" filterUnits="userSpaceOnUse" color-interpolation-filters="sRGB"><feFlood flood-opacity="0" result="BackgroundImageFix"/><feColorMatrix in="SourceAlpha" values="0 0 0 0 0 0 0 0 0 0 0 0 0 0 0 0 0 0 127 0"/><feOffset/><feGaussianBlur stdDeviation="4"/><feColorMatrix values="0 0 0 0 0 0 0 0 0 0 0 0 0 0 0 0 0 0 0.5 0"/><feBlend in2="BackgroundImageFix" result="effect1_dropShadow"/><feBlend in="SourceGraphic" in2="effect1_dropShadow" result="shape"/></filter></defs></svg>