<svg width="661" height="376" viewBox="0 0 661 376" fill="none" xmlns="http://www.w3.org/2000/svg">
<g clip-path="url(#clip0)">
<path d="M472.003 73.9221C472.003 73.9221 551.627 78.3469 598.812 81.2967C645.997 84.2466 664.051 146.193 643.048 196.341C627.097 234.426 590.298 303.989 573.518 335.249C568.185 345.184 557.995 351.468 546.727 351.893L354.293 359.157C342.343 359.608 333.283 348.496 336.132 336.882L341.819 313.696L39.7385 331.166C27.3616 331.881 18.2022 319.496 22.086 307.722C32.4693 276.246 48.189 220.919 47.293 176.726C46.4051 132.93 27.6527 79.7318 13.1557 44.8878C6.4341 28.7324 19.4582 10.3533 36.8518 12.2615L433.426 55.7683C446.471 57.1994 458.778 62.5458 468.727 71.1042L472.003 73.9221Z" fill="#231F20"/>
<path fill-rule="evenodd" clip-rule="evenodd" d="M459.705 249.751L460.841 247.361L461.95 244.953L463.045 242.523L464.114 240.076L465.165 237.608L466.19 235.121L467.196 232.613L468.18 230.087L469.139 227.537L470.079 224.969L470.993 222.379L471.885 219.769L472.755 217.137L473.599 214.485L474.425 211.809L475.225 209.112L475.999 206.393L476.751 203.652L477.477 200.888L478.178 198.102L478.856 195.292L479.508 192.459L480.795 186.614H484.013L484.098 186.615L484.323 186.617L484.714 186.618H485.244L485.908 186.62L486.69 186.621H487.585L488.592 186.624L489.69 186.626L490.877 186.628L492.138 186.631L493.476 186.633L494.869 186.636L496.311 186.639L497.8 186.64L499.323 186.643L500.867 186.644L502.426 186.647L503.993 186.65L505.56 186.652L507.115 186.655L508.645 186.657L510.153 186.66L511.624 186.662L513.043 186.665L514.407 186.668L515.708 186.671L516.936 186.672L518.079 186.675L519.133 186.676L520.084 186.678L520.932 186.679L521.706 186.682L522.469 186.684L523.214 186.689L523.951 186.701L524.67 186.716L525.385 186.737L526.085 186.767L526.782 186.805L527.475 186.857L528.157 186.92L528.839 186.999L529.514 187.095L530.188 187.212L530.863 187.349L531.53 187.509L532.197 187.696L532.864 187.913L533.521 188.157L534.173 188.432L534.822 188.739L535.46 189.08L536.086 189.452L536.698 189.852L537.306 190.29L537.9 190.761L538.482 191.259L539.05 191.791L539.61 192.354L540.16 192.95L540.702 193.575L541.236 194.232L541.8 194.97L542.386 195.84L542.921 196.792L543.363 197.774L543.728 198.778L544.016 199.796L544.229 200.825L544.377 201.859L544.462 202.899L544.491 203.942L544.471 204.983L544.404 206.029L544.297 207.073L544.15 208.119L543.97 209.164L543.759 210.21L543.516 211.257L543.251 212.306L542.963 213.351L542.653 214.394L542.322 215.437L541.979 216.474L541.621 217.51L541.249 218.538L540.873 219.562L540.49 220.581L540.099 221.587L539.708 222.587L539.317 223.574L538.927 224.55L538.543 225.511L538.167 226.456L537.791 227.405L537.397 228.373L536.984 229.332L536.56 230.267L536.125 231.177L535.672 232.064L535.2 232.929L534.713 233.77L534.208 234.59L533.685 235.389L533.139 236.165L532.575 236.921L531.993 237.654L531.384 238.368L530.758 239.059L530.109 239.73L529.434 240.381L528.741 241.014L528.026 241.624L527.285 242.216L526.526 242.791L525.744 243.347L524.937 243.887L524.111 244.413L523.256 244.924L522.379 245.421L521.483 245.905L520.558 246.379L519.606 246.844L519.555 246.868L519.853 247.084L520.668 247.722L521.468 248.409L522.257 249.145L523.035 249.936L523.779 250.765L524.447 251.56L525.062 252.331L525.645 253.099L526.201 253.859L526.725 254.611L527.219 255.351L527.514 255.813L528.564 254.007L529.641 252.097L530.691 250.172L531.716 248.229L532.719 246.269L533.699 244.291L534.654 242.296L535.587 240.287L536.494 238.26L537.382 236.219L538.241 234.161L539.081 232.085L539.9 229.995L540.696 227.888L541.47 225.766L542.222 223.629L542.952 221.477L543.663 219.309L544.353 217.126L545.02 214.93L545.665 212.717L546.296 210.493L546.9 208.25L547.486 205.996L548.054 203.726L548.599 201.443L549.13 199.146L549.639 196.837L550.129 194.511L550.601 192.175L551.652 186.737L619.625 186.859L617.922 192.404L617.711 193.067L617.505 193.728L617.295 194.392L617.081 195.057L616.867 195.716L616.649 196.379L616.432 197.04L616.211 197.703L615.986 198.362L615.761 199.02L615.533 199.68L615.304 200.34L615.072 200.998L614.836 201.656L614.604 202.315L614.361 202.973L614.121 203.628L613.878 204.285L613.635 204.94L613.387 205.597L613.137 206.251L612.886 206.906L612.632 207.562L612.373 208.215L612.115 208.871L611.854 209.52L611.592 210.173L611.326 210.827L611.061 211.477L610.788 212.129L609.564 215.057L579.82 215.533L579.68 216.07L579.477 216.842L579.267 217.61L579.057 218.376L578.836 219.144L578.611 219.91L578.555 220.099L598.93 219.774L596.733 225.474L596.541 225.965L596.342 226.471L596.132 226.993L595.911 227.531L595.686 228.077L595.45 228.637L595.203 229.209L594.948 229.794L594.686 230.387L594.413 230.989L594.133 231.601L593.842 232.223L593.54 232.85L593.234 233.487L592.917 234.126L592.685 234.587L592.456 235.032L592.231 235.474L592.006 235.905L591.785 236.327L591.567 236.737L591.35 237.145L591.136 237.54L590.926 237.928L590.716 238.307L590.509 238.679L590.306 239.039L590.104 239.392L589.908 239.735L589.717 240.069L588.478 242.191L568.763 242.866L568.62 243.114L568.203 243.818L567.779 244.519L567.352 245.218L566.913 245.915L566.471 246.609L593.414 245.687L588.85 252.334L588.522 252.808L588.198 253.28L587.866 253.75L587.538 254.223L587.203 254.693L586.871 255.164L586.535 255.635L586.2 256.104L585.857 256.576L585.518 257.044L585.179 257.513L584.836 257.981L584.489 258.449L584.147 258.919L583.796 259.387L583.446 259.854L583.096 260.32L582.742 260.79L582.388 261.254L582.034 261.72L581.677 262.187L581.315 262.652L580.958 263.118L580.593 263.581L580.228 264.048L579.863 264.512L579.498 264.976L579.129 265.439L578.761 265.902L578.388 266.363L576.977 268.116L532.322 270.985V270.986L489.555 273.734L493.031 267.625L493.058 267.583L493.106 267.495L493.172 267.368L493.257 267.212L493.356 267.015L493.474 266.783L493.6 266.524L493.732 266.236L493.876 265.919L494.027 265.577L494.182 265.216L494.333 264.836L494.488 264.438L494.635 264.026L494.779 263.603L494.915 263.172L495.041 262.734L495.159 262.295L495.262 261.854L495.35 261.416L495.424 260.983L495.48 260.559L495.52 260.152L495.538 259.76L495.541 259.385L495.523 259.032L495.49 258.708L495.442 258.412L495.376 258.138L495.302 257.896L495.202 257.645L495.051 257.336L494.874 256.996L494.675 256.66L494.465 256.332L494.244 256.011L494.008 255.691L493.761 255.378L493.503 255.079L493.241 254.785L492.968 254.498L492.692 254.223L492.456 253.998L492.309 254.019L491.733 254.093L491.184 254.16L490.653 254.224L490.156 254.281L489.68 254.335L489.234 254.385L489.02 254.408L488.972 254.495L488.633 255.133L488.29 255.771L487.944 256.408L487.597 257.047L487.247 257.684L486.893 258.322L486.536 258.96L486.178 259.596L485.817 260.236L485.448 260.874L485.083 261.509L484.715 262.149L484.339 262.786L483.962 263.423L483.583 264.062L483.199 264.701L482.812 265.336L482.425 265.974L482.038 266.611L481.644 267.249L481.246 267.887L480.848 268.524L480.442 269.161L480.037 269.798L479.627 270.437L479.215 271.073L478.802 271.708L478.385 272.345L476.933 274.546L444.947 276.601L449.905 268.204L451.199 265.96L452.475 263.699L453.732 261.419L454.966 259.124L456.183 256.808L457.381 254.473L458.557 252.121L459.711 249.752L459.705 249.751ZM155.923 257.78L155.92 257.798L155.917 257.813L155.911 257.852L155.87 257.997L155.858 258.049L155.831 258.151L155.785 258.312L154.934 260.864L145.737 261.269L145.612 261.639L145.371 262.351L145.128 263.062L144.885 263.773L144.64 264.481L144.582 264.645L149.739 264.289L154.411 263.931L153.439 266.705L152.521 269.564L152.485 269.669L152.446 269.792L152.41 269.896L152.38 269.993L152.346 270.096L152.31 270.205L152.304 270.22L152.303 270.226L152.297 270.238L152.294 270.255L152.285 270.289H152.283L152.22 270.483L152.184 270.59L152.166 270.647L152.152 270.689L152.103 270.833V270.834L152.101 270.84L152.075 270.918L152.063 270.958L152.051 270.996L152.04 271.036L151.992 271.173L150.844 274.479L150.77 274.689L150.625 275.087L150.556 275.278L150.484 275.476L150.411 275.679L150.337 275.879L150.266 276.066L150.237 276.147L150.231 276.159L150.216 276.198L149.625 277.674L149.325 278.478L147.419 278.68L139.063 279.271L139.051 279.298L138.744 280.038L138.437 280.774L138.125 281.513L137.811 282.252L137.494 282.987L137.377 283.259L147.656 282.967L145.051 288.815L144.891 289.169L144.733 289.521L144.572 289.875L144.411 290.226L144.248 290.581L144.085 290.934L143.922 291.283L143.761 291.635L143.596 291.986L143.429 292.342L143.263 292.692L143.096 293.044L141.644 296.086L114.682 297.856L118.147 290.826L118.707 289.667L119.262 288.497L119.816 287.307L120.364 286.107L120.912 284.891L121.455 283.665L121.996 282.424L122.533 281.172L123.069 279.908L123.601 278.632L124.132 277.342L124.657 276.045L125.181 274.734L125.703 273.413L126.222 272.081L126.741 270.741L127.254 269.392L127.766 268.031L128.277 266.661L128.784 265.285L129.291 263.9L129.795 262.505L130.296 261.104L130.797 259.694L131.295 258.278L131.794 256.856L132.289 255.426L132.784 253.989L133.277 252.548L133.768 251.102L135.104 247.135L145.098 246.9L158.381 246.585L157.418 251.298L157.406 251.354L157.395 251.406L157.386 251.45L157.374 251.503L157.338 251.675L157.323 251.744L157.306 251.835L157.267 252.024L157.235 252.17L157.229 252.197L157.211 252.303L157.209 252.315L157.206 252.327L157.203 252.339L157.2 252.354L157.197 252.365L157.191 252.404L157.188 252.419L157.186 252.431L157.166 252.5L157.164 252.506L157.158 252.536L157.147 252.589L157.135 252.641L157.126 252.693L157.108 252.775L157.102 252.801L157.076 252.944L157.052 253.021V253.027L157.049 253.045L157.029 253.144L156.991 253.309L156.956 253.464L156.92 253.621L156.887 253.777L156.875 253.836V253.925L156.776 254.282L156.774 254.294L156.769 254.306L156.767 254.318L156.744 254.406L156.726 254.48L156.72 254.516L156.7 254.606L156.698 254.611L156.654 254.797L156.605 255.018L156.578 255.117L156.56 255.201L156.484 255.532L156.414 255.828L156.371 256.004L156.365 256.047L156.325 256.196L156.288 256.357L156.267 256.445L156.265 256.454L156.198 256.726L156.181 256.805L156.149 256.928L156.14 256.981L156.125 257.03L156.124 257.045L156.112 257.084L156.106 257.105L156.082 257.197L156.074 257.236L156.071 257.241L156.056 257.313L156.041 257.362L156.029 257.417L156.028 257.423L156.025 257.432L156.019 257.459L156.013 257.492L156.01 257.498L156.007 257.513L155.984 257.602L155.981 257.614L155.969 257.667L155.963 257.701L155.96 257.707L155.959 257.719L155.947 257.758L155.923 257.78ZM90.9132 257.066L90.7575 257.66L90.6033 258.233L90.4508 258.789L90.2983 259.322L90.1473 259.837L89.999 260.33L89.8504 260.81L88.9074 263.773L80.8234 264.128L80.5698 265.042L80.2215 266.249L79.8628 267.453L79.493 268.657L79.1111 269.86L78.7211 271.055L78.3208 272.25L77.909 273.445L77.4884 274.637L77.0564 275.824L76.6173 277.011L76.1665 278.198L75.7072 279.38L75.2379 280.56L74.7613 281.738L74.2743 282.915L73.7803 284.09L73.2749 285.261L72.764 286.432L72.2439 287.6L71.7156 288.768L71.18 289.932L70.6355 291.095L70.0841 292.257L69.5252 293.417L68.9594 294.573L68.3865 295.73L67.8059 296.885L67.2187 298.039L65.6476 301.079L57.7553 301.598H49.6064L53.0554 294.949L53.6256 293.83L54.1915 292.711L54.7489 291.59L55.3003 290.468L55.8445 289.346L56.3786 288.224L56.9072 287.099L57.4284 285.976L57.9398 284.851L58.4437 283.726L58.9391 282.598L59.4257 281.47L59.9038 280.343L60.3731 279.213L60.8354 278.081L61.2877 276.95L61.7297 275.818L62.1632 274.688L62.5864 273.553L63.0011 272.416L63.4058 271.281L63.7988 270.143L64.1833 269.004L64.5608 267.865L64.925 266.724L65.2778 265.583L65.5125 264.803L55.2397 265.255L61.1895 248.889L92.538 248.148L91.7864 253.043L91.7014 253.532L91.605 254.046L91.4971 254.587L91.3732 255.158L91.2364 255.763L91.0821 256.401L90.9137 257.066H90.9132ZM93.3193 253.906L93.6953 252.427L94.7437 248.095L109.839 247.737L108.551 253.15L108.392 253.795L108.232 254.442L108.068 255.086L107.902 255.73L107.733 256.375L107.558 257.017L107.383 257.658L107.204 258.299L107.023 258.942L106.837 259.588L106.648 260.226L106.457 260.866L106.262 261.507L106.068 262.146L105.869 262.784L105.667 263.422L105.463 264.059L105.254 264.699L105.044 265.335L104.832 265.972L104.616 266.61L104.397 267.245L104.336 267.421L108.541 267.131L108.579 267.029L108.797 266.433L109.012 265.838L109.228 265.243L109.442 264.645L109.656 264.049L109.867 263.454L110.076 262.858L110.285 262.259L110.494 261.662L110.7 261.065L110.905 260.467L111.109 259.868L111.313 259.267L111.514 258.671L111.712 258.072L111.911 257.471L112.11 256.87L112.306 256.271L112.5 255.672L112.692 255.07L112.885 254.468L113.075 253.866L113.264 253.265L113.451 252.66L113.638 252.057L113.822 251.455L114.005 250.853L114.975 247.616L130.144 247.258L128.414 253.536L128.022 254.917L127.621 256.299L127.211 257.677L126.793 259.055L126.364 260.431L125.926 261.808L125.48 263.182L125.027 264.556L124.561 265.929L124.089 267.304L123.607 268.676L123.118 270.045L122.619 271.417L122.112 272.788L121.596 274.159L121.073 275.526L120.541 276.894L120.001 278.266L119.452 279.634L118.897 281.002L118.332 282.371L117.76 283.738L117.179 285.106L116.593 286.474L115.996 287.842L115.395 289.212L114.783 290.58L114.166 291.949L113.541 293.32L112.909 294.69L111.327 298.081L95.2422 299.136L98.0316 292.877L98.2676 292.342L98.5038 291.808L98.7397 291.272L98.9759 290.738L99.2092 290.202L99.4439 289.666L99.6769 289.129L99.9102 288.592L100.142 288.057L100.374 287.521L100.604 286.985L100.833 286.451L101.062 285.914L101.291 285.378L101.517 284.839L101.746 284.302L101.972 283.768L102.196 283.231L102.419 282.693L102.645 282.157L102.775 281.843L98.5542 282.143L98.5215 282.221L98.2808 282.771L98.0346 283.325L97.7898 283.877L97.5465 284.425L97.2988 284.975L97.0496 285.525L96.7977 286.077L96.5456 286.626L96.2938 287.174L96.0372 287.724L95.7824 288.273L95.5246 288.819L95.2681 289.365L95.0074 289.914L94.7467 290.463L94.4833 291.01L94.2211 291.557L93.9531 292.103L93.688 292.649L93.422 293.193L93.1539 293.738L92.8832 294.282L92.6121 294.83L92.3417 295.374L92.0695 295.916L91.7947 296.46L91.5192 297.006L90.2666 299.463L74.2225 300.516L77.844 293.342L78.4747 292.079L79.1025 290.811L79.7244 289.536L80.3451 288.253L80.9585 286.968L81.566 285.675L82.1725 284.374L82.77 283.066L83.3606 281.753L83.9452 280.434L84.524 279.105L85.0957 277.772L85.6586 276.431L86.213 275.083L86.7586 273.724L87.2987 272.362L87.8273 270.99L88.3471 269.612L88.8554 268.225L89.3534 266.832L89.8419 265.429L90.32 264.019L90.7848 262.599L91.2386 261.171L91.6806 259.736L92.1097 258.292L92.5259 256.839L92.9292 255.376L93.3177 253.906L93.3193 253.906ZM157.671 188.912L158.493 189.755L159.222 190.683L159.848 191.69L160.365 192.768L160.761 193.904L161.036 195.09L161.18 196.315L161.192 197.57L161.074 198.736L160.975 199.392L160.887 199.952L160.796 200.513L160.704 201.07L160.613 201.629L160.52 202.188L160.424 202.748L160.327 203.307L160.229 203.863L160.127 204.423L160.024 204.982L159.922 205.539L159.817 206.097L159.711 206.654L159.604 207.216L159.493 207.77L159.384 208.326L159.27 208.885L159.157 209.443L159.042 210L158.925 210.556L158.807 211.114L158.687 211.671L158.566 212.227L158.445 212.783L158.32 213.339L158.195 213.895L158.07 214.452L157.941 215.007L157.812 215.561L157.681 216.119L157.548 216.673L157.414 217.229L157.277 217.79L157.14 218.351L157.001 218.907L156.861 219.466L156.717 220.026L156.572 220.585L156.428 221.14L156.282 221.697L156.134 222.254L155.985 222.811L155.834 223.367L155.683 223.924L155.529 224.48L155.375 225.037L155.219 225.589L155.065 226.142L154.907 226.701L154.747 227.257L154.587 227.809L154.428 228.362L154.266 228.915L154.104 229.471L153.94 230.023L153.777 230.574L153.61 231.129L153.444 231.68L153.277 232.232L153.11 232.784L152.942 233.337L152.771 233.888L152.575 234.521L152.176 235.634L151.642 236.778L151.02 237.861L150.318 238.885L149.55 239.848L148.71 240.752L147.816 241.587L146.867 242.356L145.872 243.057L144.828 243.687L143.742 244.24L142.62 244.71L141.461 245.093L140.266 245.378L139.042 245.558L137.892 245.617H116.265L115.115 245.557L113.9 245.359L112.731 245.023L111.619 244.551L110.584 243.947L109.639 243.216L108.804 242.372L108.087 241.426L107.504 240.4L107.051 239.312L106.736 238.176L106.553 237.005L106.501 235.815L106.575 234.614L106.771 233.41L107.063 232.286L107.256 231.661L107.422 231.12L107.587 230.578L107.752 230.037L107.916 229.495L108.079 228.952L108.24 228.414L108.401 227.87L108.563 227.327L108.72 226.789L108.906 226.154L109.191 225.167L109.345 224.627L109.499 224.086L109.65 223.546L109.803 223.005L109.953 222.465L110.101 221.928L110.247 221.386L110.394 220.846L110.538 220.307L110.682 219.767L110.952 218.73L111.104 218.147L111.241 217.609L111.376 217.069L111.512 216.527L111.644 215.99L111.775 215.453L111.905 214.91L112.034 214.372L112.16 213.834L112.285 213.298L112.409 212.761L112.533 212.222L112.655 211.685L112.775 211.148L112.893 210.608L113.011 210.07L113.124 209.533L113.24 208.996L113.352 208.459L113.466 207.919L113.574 207.382L113.693 206.788L113.896 205.765L114 205.228L114.102 204.689L114.204 204.151L114.303 203.613L114.403 203.078L114.498 202.539L114.593 202L114.687 201.46L114.779 200.921L114.869 200.386L114.957 199.848L115.045 199.31L115.13 198.772L115.214 198.237L115.31 197.607L115.531 196.491L115.876 195.324L116.316 194.205L116.845 193.138L117.46 192.122L118.151 191.167L118.917 190.276L119.753 189.449L120.657 188.693L121.624 188.016L122.649 187.421L123.731 186.915L124.864 186.509L126.042 186.208L127.26 186.019L128.411 185.96H150.052L151.203 186.021L152.421 186.212L153.593 186.53L154.712 186.962L155.773 187.506L156.764 188.16L157.673 188.912L157.671 188.912ZM129.121 215.987L128.959 216.672L128.795 217.359L128.627 218.046L128.457 218.737L128.281 219.424L128.107 220.108L127.931 220.794L127.751 221.481L127.57 222.164L127.388 222.845L127.204 223.528L127.018 224.211L126.831 224.892L126.644 225.573L126.454 226.251L126.324 226.717H136.195L136.319 226.711L136.372 226.702L136.448 226.684L136.55 226.651L136.668 226.601L136.793 226.536L136.923 226.457L137.057 226.359L137.185 226.252L137.301 226.142L137.405 226.026L137.493 225.911L137.565 225.799L137.618 225.704L137.654 225.621L137.706 225.469L137.87 224.884L138.057 224.219L138.243 223.555L138.424 222.888L138.607 222.222L138.787 221.558L138.965 220.893L139.141 220.227L139.316 219.562L139.488 218.896L139.658 218.232L139.826 217.567L139.993 216.902L140.159 216.238L140.321 215.576L140.481 214.91L140.641 214.246L140.795 213.585L140.949 212.923L141.101 212.258L141.25 211.595L141.397 210.933L141.544 210.27L141.688 209.605L141.829 208.941L141.969 208.277L142.107 207.611L142.241 206.946L142.378 206.282L142.508 205.616L142.639 204.95L142.656 204.862H132.277L132.165 204.865L132.135 204.871L132.089 204.882L132.032 204.903L131.961 204.935L131.882 204.981L131.797 205.035L131.713 205.102L131.634 205.177L131.558 205.261L131.488 205.348L131.434 205.431L131.391 205.509L131.357 205.586L131.334 205.651L131.301 205.797L131.187 206.388L131.052 207.078L130.916 207.766L130.777 208.451L130.638 209.139L130.493 209.826L130.349 210.512L130.202 211.196L130.055 211.882L129.902 212.566L129.751 213.251L129.595 213.937L129.439 214.62L129.282 215.304L129.12 215.988L129.121 215.987ZM114.447 199.249L114.402 199.65L114.355 200.053L114.307 200.458L114.26 200.866L114.211 201.265L114.164 201.668L114.112 202.074L114.063 202.477L113.593 206.185H102.444L102.383 206.428L102.224 207.055L102.064 207.681L101.901 208.306L101.74 208.93L101.577 209.557L101.413 210.185L101.246 210.811L101.079 211.438L100.911 212.066L100.741 212.694L100.57 213.319L100.398 213.945L100.223 214.573L100.046 215.204L99.8672 215.832L99.6888 216.46L99.5075 217.088L99.3232 217.718L99.1388 218.343L98.953 218.972L98.7628 219.603L98.5726 220.231L98.3797 220.858L98.1854 221.487L97.9866 222.118L97.7864 222.745L97.5862 223.371L97.383 224.004L97.1739 224.636L96.9665 225.265L96.7563 225.896L96.5442 226.525L96.3298 227.155L96.1155 227.784L95.8981 228.411L95.6811 229.039L95.4622 229.668L95.2402 230.295L95.0172 230.921L94.7952 231.545L94.5693 232.173L94.3434 232.8L94.116 233.421L93.8895 234.044L93.6607 234.668L93.4303 235.293L93.1985 235.915L92.9682 236.537L92.7349 237.159L92.502 237.785L92.2672 238.405L92.0339 239.025L91.7977 239.648L91.5618 240.272L91.3256 240.891L91.0897 241.511L90.8505 242.135L90.6131 242.755L89.4423 245.8H69.9812L72.1959 240.045L72.4304 239.428L72.6666 238.813L72.9013 238.197L73.1358 237.58L73.369 236.967L73.6008 236.353L73.8341 235.735L74.0644 235.121L74.2962 234.508L74.5251 233.894L74.7539 233.279L74.9813 232.667L75.2063 232.056L75.4307 231.443L75.6537 230.829L75.8769 230.214L76.0987 229.605L76.3187 228.994L76.5363 228.382L76.754 227.77L76.9701 227.158L77.1916 226.523L77.6063 225.326L77.8154 224.715L78.021 224.104L78.2271 223.493L78.4318 222.883L78.632 222.272L78.8334 221.661L79.031 221.051L79.2253 220.443L79.4197 219.836L79.6084 219.233L79.7972 218.628L79.983 218.02L80.1673 217.412L80.3501 216.806L80.6926 215.648L80.8887 214.978L81.0627 214.37L81.237 213.758L81.4113 213.149L81.5811 212.54L81.751 211.929L81.9194 211.315L82.0878 210.703L82.2532 210.092L82.4172 209.48L82.5812 208.867L82.7443 208.253L82.9053 207.641L83.0654 207.029L83.2223 206.412L83.2813 206.185H68.4207L69.0068 201.535L69.0557 201.142L69.1047 200.755L69.1507 200.361L69.1982 199.967L69.2457 199.574L69.2902 199.185L69.3347 198.789L69.3793 198.393L69.4238 198.002L69.4668 197.615L69.5099 197.22L69.5518 196.827L69.5934 196.434L69.6349 196.042L69.6756 195.649L69.7157 195.251L69.7544 194.861L69.7933 194.472L69.8308 194.077L69.8694 193.683L69.9068 193.291L69.9425 192.902L69.9788 192.506L70.0133 192.11L70.0475 191.719L70.082 191.329L70.1153 190.936L70.1498 190.544L70.2118 189.759L70.5141 185.876H115.661L115.311 190.357L115.279 190.764L115.245 191.169L115.212 191.574L115.177 191.977L115.143 192.383L115.105 192.788L115.069 193.191L115.032 193.596L114.995 194L114.956 194.404L114.917 194.807L114.877 195.211L114.837 195.615L114.796 196.023L114.755 196.427L114.713 196.826L114.671 197.229L114.627 197.635L114.584 198.038L114.538 198.443L114.493 198.846L114.447 199.25L114.447 199.249ZM325.128 268.892L326.005 266.89L326.863 264.889L327.7 262.886L328.513 260.884L329.307 258.885L330.079 256.884L330.83 254.884L331.559 252.883L332.267 250.884L332.954 248.886L333.619 246.885L334.263 244.887L334.887 242.889L335.489 240.892L336.069 238.892L336.629 236.896L337.167 234.898L337.683 232.902L338.179 230.906L338.654 228.908L339.107 226.913L339.539 224.917L339.95 222.922L340.34 220.926L340.623 219.393L322.275 219.71L324.231 213.848L324.484 213.067L324.735 212.286L324.98 211.504L325.217 210.725L325.452 209.943L325.681 209.163L325.901 208.382L326.12 207.6L326.332 206.82L326.539 206.04L326.741 205.261L326.938 204.48L327.128 203.699L327.314 202.918L327.495 202.139L327.67 201.358L327.841 200.579L328.003 199.799L328.164 199.02L328.319 198.24L328.467 197.461L328.61 196.685L328.748 195.903L328.884 195.125L329.01 194.345L329.133 193.566L329.249 192.787L329.362 192.009L329.468 191.23L329.57 190.452L330.076 186.336L400.272 186.462L399.424 191.625L399.292 192.408L399.159 193.192L399.015 193.977L398.871 194.763L398.724 195.548L398.573 196.334L398.414 197.121L398.252 197.909L398.086 198.697L397.913 199.483L397.736 200.272L397.555 201.062L397.367 201.851L397.175 202.642L396.98 203.433L396.774 204.225L396.567 205.017L396.35 205.808L396.128 206.6L395.9 207.395L395.668 208.187L395.428 208.979L395.181 209.776L394.927 210.57L394.665 211.363L394.396 212.158L394.123 212.953L393.839 213.75L393.548 214.546L393.253 215.343L392.037 218.506L377.376 218.759L377.015 220.145L376.451 222.242L375.872 224.333L375.279 226.422L374.667 228.505L374.033 230.583L373.388 232.657L372.724 234.728L372.046 236.792L371.342 238.854L370.627 240.909L369.889 242.96L369.137 245.006L368.363 247.047L367.571 249.082L366.76 251.112L365.927 253.138L365.079 255.159L364.205 257.172L363.317 259.181L362.402 261.185L361.473 263.184L360.522 265.175L359.549 267.161L358.554 269.142L357.536 271.116L356.501 273.084L355.439 275.047L354.359 277.004L353.253 278.953L351.122 282.626L317.521 284.785L321.4 276.903L322.363 274.901L323.307 272.898L324.228 270.894L325.128 268.892L325.128 268.892ZM171.821 217.258L172.332 213.891L172.803 210.499L173.238 207.079L173.635 203.634L173.996 200.162L174.32 196.667L174.607 193.145L175.108 186.057L243.488 186.179L242.904 191.201L242.806 192.017L242.704 192.831L242.6 193.643L242.492 194.457L242.381 195.272L242.269 196.088L242.151 196.9L242.033 197.712L241.909 198.529L241.784 199.343L241.654 200.158L241.523 200.972L241.388 201.786L241.249 202.601L241.107 203.413L240.964 204.229L240.815 205.044L240.663 205.859L240.509 206.674L240.352 207.487L240.191 208.302L240.027 209.118L239.86 209.932L239.689 210.746L239.515 211.561L239.338 212.378L239.156 213.193L238.972 214.007L238.783 214.822L238.592 215.637L237.732 219.233L209.465 220.332L209.392 220.84L209.313 221.38L209.232 221.925L209.148 222.472L209.063 223.024L208.975 223.577L208.886 224.13L208.795 224.684L208.702 225.24L208.607 225.794L208.512 226.35L208.413 226.906L208.312 227.464L208.209 228.017L208.106 228.57L207.999 229.122L207.892 229.674L207.883 229.721L234.935 229.334L232.961 235.131L232.712 235.856L232.457 236.582L232.202 237.306L231.943 238.032L231.679 238.758L231.413 239.484L231.143 240.209L230.873 240.932L230.6 241.657L230.32 242.382L230.038 243.108L229.756 243.833L229.466 244.557L229.176 245.286L228.883 246.007L228.586 246.73L228.285 247.456L227.983 248.181L227.676 248.907L227.367 249.633L227.053 250.356L226.736 251.085L226.415 251.808L226.094 252.531L225.767 253.255L225.437 253.983L225.103 254.707L224.769 255.43L224.428 256.155L224.085 256.883L222.786 259.591L197.972 261.268L197.62 262.131L197.196 263.158L196.766 264.183L196.331 265.207L195.893 266.233L195.45 267.254L195.003 268.275L194.551 269.296L194.094 270.318L193.635 271.338L193.17 272.354L192.701 273.373L192.228 274.39L191.753 275.405L191.274 276.419L190.791 277.435L190.305 278.45L189.814 279.461L189.321 280.474L188.823 281.486L188.323 282.497L187.819 283.507L187.315 284.515L186.805 285.525L186.294 286.535L185.779 287.541L185.262 288.548L184.742 289.554L184.219 290.562L182.71 293.45L144.485 295.906L149.265 287.152L150.695 284.426L152.083 281.669L153.428 278.883L154.734 276.069L155.996 273.226L157.215 270.355L158.395 267.453L159.534 264.525L160.631 261.568L161.686 258.582L162.703 255.568L163.681 252.527L164.616 249.457L165.511 246.359L166.368 243.235L167.187 240.08L167.963 236.903L168.703 233.697L169.403 230.461L170.066 227.202L170.689 223.913L171.274 220.599L171.821 217.258L171.821 217.258ZM432.606 203.56L432.194 205.358L431.766 207.153L431.313 208.942L430.844 210.725L430.358 212.504L429.856 214.279L429.333 216.048L428.798 217.814L428.246 219.579L427.678 221.337L427.092 223.092L426.491 224.846L425.879 226.593L425.256 228.342L424.615 230.085L423.962 231.824L423.295 233.561L422.62 235.298L421.931 237.034L421.23 238.766L420.519 240.497L419.8 242.225L419.07 243.954L418.329 245.681L417.71 247.114L417.511 247.895L417.33 248.798L417.216 249.59L417.172 250.258L417.178 250.794L417.218 251.177L417.274 251.412L417.285 251.438L417.385 251.469L417.698 251.518L418.185 251.535L418.896 251.488L419.53 251.413L420.013 251.267L420.614 250.986L421.318 250.537L422.107 249.91L422.962 249.099L423.858 248.112L424.791 246.952L425.742 245.632L426.704 244.159L427.673 242.541L428.643 240.788L429.609 238.911L430.567 236.915L431.514 234.811L432.451 232.606L433.365 230.308L434.261 227.924L435.138 225.463L435.99 222.932L436.815 220.34L437.615 217.692L438.386 214.996L439.123 212.259L439.823 209.491L440.494 206.695L441.125 203.882L441.718 201.058L442.267 198.232L442.776 195.407L443.241 192.593L444.147 186.54L476.174 186.598L475.699 192.315L475.529 193.964L475.334 195.606L475.109 197.236L474.855 198.857L474.578 200.467L474.276 202.066L473.948 203.653L473.598 205.232L473.229 206.797L472.835 208.354L472.422 209.897L471.991 211.432L471.541 212.953L471.076 214.466L470.594 215.965L470.096 217.455L469.583 218.934L469.06 220.4L468.522 221.855L467.976 223.299L467.416 224.734L466.848 226.154L466.273 227.564L465.687 228.963L465.101 230.35L464.504 231.726L463.903 233.089L463.298 234.442L462.694 235.783L462.085 237.112L461.473 238.436L459.962 241.638L458.488 244.664L457.046 247.513L455.638 250.194L454.259 252.712L452.903 255.071L451.572 257.281L450.256 259.344L448.951 261.273L447.657 263.066L446.371 264.734L445.084 266.28L443.79 267.71L442.496 269.026L441.191 270.236L439.872 271.34L438.541 272.343L437.192 273.248L435.828 274.059L434.449 274.776L433.059 275.406L431.658 275.953L430.243 276.424L428.824 276.825L427.39 277.163L425.948 277.445L424.492 277.68L423.025 277.874L421.543 278.038L420.039 278.174L418.509 278.292L416.957 278.396L392.307 279.979L391.101 280.034H389.914L388.772 279.98L387.673 279.869L386.619 279.698L385.601 279.462L384.625 279.161L383.696 278.79L382.807 278.343L381.97 277.817L381.196 277.215L380.496 276.541L379.873 275.805L379.335 275.014L378.889 274.184L378.535 273.33L378.258 272.462L378.063 271.583L377.938 270.702L377.871 269.819L377.866 268.942L377.91 268.062L377.998 267.183L378.127 266.306L378.293 265.432L378.496 264.553L378.732 263.673L378.994 262.793L379.285 261.91L379.605 261.024L379.948 260.138L380.309 259.254L381.272 257.024L382.201 254.84L383.115 252.664L384.014 250.493L384.892 248.329L385.758 246.168L386.606 244.012L387.435 241.857L388.246 239.708L389.039 237.562L389.813 235.418L390.568 233.273L391.306 231.131L392.021 228.986L392.718 226.845L393.396 224.7L394.048 222.555L394.682 220.406L395.294 218.256L395.884 216.101L396.452 213.945L396.997 211.781L397.521 209.613L398.019 207.44L398.494 205.261L398.944 203.074L399.371 200.879L399.777 198.677L400.153 196.466L400.503 194.246L400.831 192.015L401.576 186.464L435.537 186.526L434.649 192.655L434.365 194.487L434.055 196.313L433.724 198.132L433.374 199.949L433.001 201.756L432.607 203.561L432.606 203.56ZM245.3 186.184L281.231 186.249L280.349 192.552L280.055 194.566L279.748 196.579L279.43 198.59L279.099 200.601L278.754 202.609L278.398 204.616L278.024 206.621L277.639 208.625L277.237 210.628L276.821 212.628L276.388 214.625L275.941 216.622L275.476 218.618L274.993 220.61L274.494 222.599L273.978 224.588L273.441 226.573L272.888 228.556L272.315 230.537L271.723 232.515L271.11 234.492L270.476 236.464L269.824 238.433L269.149 240.399L268.453 242.364L267.733 244.326L266.991 246.282L266.228 248.236L265.44 250.186L264.63 252.135L263.927 253.77L263.711 254.65L263.531 255.611L263.44 256.43L263.419 257.097L263.454 257.605L263.521 257.95L263.589 258.144L263.634 258.225L263.649 258.249L263.675 258.269L263.76 258.32L263.963 258.399L264.317 258.481L264.836 258.539L265.517 258.545L266.391 258.484L267.15 258.392L267.732 258.217L268.419 257.887L269.208 257.374L270.079 256.661L271.01 255.748L271.982 254.639L272.985 253.337L274.003 251.858L275.03 250.208L276.058 248.399L277.083 246.442L278.1 244.345L279.106 242.117L280.097 239.768L281.073 237.306L282.031 234.74L282.965 232.082L283.878 229.337L284.765 226.513L285.626 223.622L286.46 220.667L287.26 217.659L288.032 214.606L288.771 211.516L289.474 208.396L290.139 205.259L290.767 202.106L291.357 198.947L291.904 195.794L292.411 192.651L293.355 186.269L325.246 186.327L324.782 192.195L324.615 194.005L324.431 195.807L324.228 197.6L324.004 199.389L323.764 201.17L323.505 202.943L323.23 204.706L322.937 206.46L322.629 208.209L322.304 209.947L321.965 211.676L321.61 213.395L321.241 215.105L320.858 216.805L320.462 218.49L320.054 220.168L319.634 221.834L319.201 223.489L318.756 225.131L318.302 226.762L317.836 228.381L317.362 229.985L316.876 231.577L316.384 233.156L315.881 234.721L315.372 236.272L314.855 237.809L314.331 239.33L313.799 240.838L313.262 242.331L312.722 243.804L311.359 247.457L310.06 250.885L308.82 254.1L307.633 257.107L306.494 259.919L305.394 262.543L304.333 264.987L303.299 267.259L302.29 269.369L301.296 271.328L300.313 273.141L299.329 274.816L298.341 276.364L297.337 277.793L296.309 279.108L295.251 280.311L294.157 281.409L293.019 282.398L291.84 283.283L290.617 284.059L289.357 284.732L288.066 285.301L286.748 285.779L285.404 286.17L284.038 286.492L282.644 286.751L281.22 286.963L279.755 287.134L278.248 287.278L276.688 287.401L275.068 287.513L273.376 287.623L236.062 290.021L234.757 290.084L233.487 290.096L232.277 290.057L231.122 289.963L230.018 289.813L228.96 289.602L227.947 289.324L226.975 288.972L226.05 288.54L225.174 288.019L224.362 287.41L223.626 286.708L222.984 285.93L222.445 285.089L222.019 284.213L221.694 283.306L221.471 282.391L221.334 281.481L221.273 280.575L221.276 279.673L221.337 278.78L221.448 277.889L221.6 277.003L221.792 276.113L222.019 275.217L222.277 274.321L222.561 273.419L222.873 272.508L223.209 271.587L223.564 270.661L223.939 269.728L224.33 268.783L225.381 266.326L226.385 263.903L227.358 261.477L228.303 259.045L229.217 256.609L230.105 254.17L230.961 251.728L231.792 249.28L232.596 246.829L233.373 244.375L234.125 241.916L234.851 239.453L235.552 236.987L236.23 234.517L236.882 232.044L237.513 229.566L238.119 227.086L238.706 224.603L239.27 222.114L239.811 219.624L240.333 217.13L240.835 214.633L241.316 212.132L241.78 209.627L242.225 207.121L242.653 204.612L243.061 202.099L243.454 199.584L243.83 197.065L244.19 194.543L244.534 192.019L245.296 186.184L245.3 186.184ZM511.116 114.603L512.576 116.266L514.021 117.936L515.451 119.607L516.867 121.288L518.268 122.973L519.654 124.662L521.025 126.358L522.385 128.058L523.731 129.765L525.062 131.476L526.378 133.195L527.683 134.916L528.973 136.642L530.248 138.371L531.517 140.108L532.77 141.849L534.008 143.596L535.236 145.348L536.449 147.099L537.654 148.858L538.845 150.624L540.025 152.391L545.123 160.124L514.252 159.663L514.444 159.958L514.761 160.445L515.078 160.934L515.395 161.423L515.712 161.913L516.025 162.403L516.339 162.892L516.652 163.382L516.962 163.872L517.275 164.36L517.585 164.851L517.894 165.343L518.204 165.836L518.513 166.327L518.819 166.819L519.125 167.311L519.431 167.804L519.734 168.295L520.036 168.786L531.154 186.818L512.295 172.321L509.781 170.404L507.267 168.504L504.752 166.621L502.238 164.759L499.724 162.914L497.21 161.089L494.7 159.282L492.189 157.497L489.675 155.728L487.165 153.98L484.655 152.254L482.148 150.547L479.638 148.862L477.127 147.199L474.62 145.554L472.11 143.936L469.603 142.339L467.097 140.765L464.59 139.212L462.083 137.682L459.58 136.178L457.074 134.699L454.57 133.243L452.067 131.808L449.564 130.4L447.061 129.021L444.562 127.664L442.059 126.333L439.56 125.027L437.06 123.748L431.726 121.074L443.382 81.2339L448.259 85.2787L448.717 85.6548L449.174 86.0346L449.627 86.4144L450.081 86.7978L450.53 87.174L450.98 87.5537L451.433 87.9372L451.879 88.3207L452.329 88.7005L452.775 89.084L453.221 89.4675L453.664 89.8546L454.106 90.2344L454.545 90.6179L454.991 91.0051L455.429 91.3885L455.868 91.7757L456.307 92.1629L456.742 92.5464L457.177 92.9335L457.612 93.3207L458.043 93.7115L458.478 94.0987L458.909 94.4896L459.337 94.8767L459.764 95.2676L460.192 95.6547L460.915 96.3185L496.292 98.9217L498.879 101.521L500.465 103.133L502.031 104.755L503.587 106.381L505.124 108.015L506.643 109.652L508.147 111.296L509.64 112.945L511.114 114.604L511.116 114.603ZM546.529 160.143L544.52 156.559L543.569 154.889L542.61 153.219L541.644 151.552L540.664 149.893L539.676 148.23L538.673 146.574L537.663 144.922L536.642 143.274L535.61 141.629L534.567 139.985L533.512 138.348L532.447 136.711L531.367 135.081L530.283 133.451L529.181 131.825L528.068 130.206L526.943 128.591L525.808 126.976L524.661 125.368L523.5 123.761L522.328 122.16L521.141 120.56L519.943 118.967L518.734 117.378L517.506 115.789L516.271 114.207L515.022 112.632L513.757 111.054L512.478 109.487L511.188 107.92L504.158 99.4983L527.356 101.202L529.807 103.75L531.249 105.28L532.664 106.825L534.061 108.377L535.433 109.941L536.785 111.515L538.113 113.101L539.421 114.694L540.708 116.298L541.976 117.905L543.225 119.528L544.449 121.154L545.658 122.787L546.849 124.428L548.021 126.076L549.179 127.732L550.318 129.391L551.439 131.058L552.541 132.728L553.632 134.406L554.705 136.087L555.763 137.773L556.806 139.461L557.838 141.157L558.852 142.854L559.854 144.553L560.846 146.253L561.827 147.961L562.789 149.664L563.747 151.371L564.691 153.082L568.728 160.475L546.529 160.143L546.529 160.143ZM570.188 160.497L568.555 156.559L567.858 154.937L567.143 153.322L566.409 151.711L565.65 150.099L564.872 148.492L564.076 146.888L563.254 145.291L562.413 143.694L561.551 142.101L560.669 140.512L559.766 138.93L558.845 137.352L557.901 135.778L556.935 134.211L555.955 132.644L554.948 131.088L553.923 129.535L552.88 127.99L551.819 126.449L550.735 124.911L549.629 123.385L548.508 121.862L547.366 120.343L546.204 118.835L545.025 117.334L543.823 115.84L542.606 114.351L541.368 112.872L540.111 111.401L538.835 109.933L531.348 101.497L552.987 103.086L555.383 105.623L556.758 107.116L558.115 108.617L559.449 110.133L560.762 111.652L562.055 113.182L563.331 114.727L564.584 116.276L565.819 117.832L567.036 119.395L568.234 120.97L569.417 122.548L570.578 124.133L571.725 125.726L572.853 127.323L573.966 128.93L575.061 130.542L576.141 132.157L577.206 133.776L578.257 135.402L579.296 137.031L580.317 138.665L581.328 140.302L582.323 141.943L583.307 143.587L584.277 145.232L585.235 146.884L586.182 148.532L587.119 150.188L588.044 151.84L588.962 153.495L592.976 160.837L570.187 160.497H570.188ZM594.466 160.858L592.847 156.978L592.173 155.409L591.48 153.846L590.765 152.282L590.035 150.722L589.279 149.166L588.505 147.61L587.716 146.062L586.901 144.517L586.072 142.972L585.22 141.434L584.35 139.9L583.458 138.37L582.552 136.843L581.623 135.324L580.679 133.805L579.713 132.297L578.729 130.789L577.726 129.288L576.705 127.791L575.665 126.305L574.607 124.819L573.531 123.34L572.436 121.866L571.323 120.402L570.191 118.942L569.041 117.489L567.876 116.043L566.689 114.605L565.487 113.171L564.267 111.748L556.965 103.381L576.576 104.823L578.858 107.389L580.111 108.842L581.339 110.302L582.537 111.774L583.705 113.256L584.848 114.746L585.965 116.246L587.06 117.754L588.125 119.27L589.172 120.793L590.193 122.327L591.192 123.864L592.169 125.409L593.128 126.962L594.064 128.521L594.982 130.085L595.878 131.659L596.762 133.234L597.625 134.816L598.473 136.401L599.302 137.99L600.117 139.587L600.921 141.187L601.709 142.787L602.487 144.395L603.25 146.006L604.002 147.618L604.747 149.237L605.477 150.852L606.199 152.47L606.918 154.096L609.971 161.092L594.466 160.859L594.466 160.858ZM616.256 161.186L614.667 157.344L614.022 155.822L613.351 154.303L612.665 152.788L611.961 151.276L611.239 149.764L610.498 148.256L609.735 146.755L608.957 145.254L608.161 143.754L607.346 142.26L606.513 140.771L605.661 139.288L604.791 137.806L603.903 136.324L603 134.852L602.074 133.385L601.134 131.921L600.18 130.461L599.203 129.008L598.207 127.559L597.197 126.114L596.169 124.676L595.126 123.241L594.06 121.818L592.98 120.395L591.885 118.979L590.772 117.57L589.64 116.169L588.494 114.771L587.329 113.381L580.259 105.092L596.467 106.287L598.757 108.783L600.021 110.199L601.267 111.622L602.487 113.053L603.685 114.495L604.857 115.944L606.011 117.397L607.139 118.861L608.249 120.336L609.333 121.81L610.394 123.3L611.434 124.794L612.451 126.298L613.447 127.806L614.42 129.322L615.375 130.848L616.303 132.382L617.214 133.92L618.099 135.468L618.965 137.021L619.809 138.584L620.635 140.151L621.435 141.722L622.22 143.304L622.979 144.897L623.72 146.49L624.443 148.09L625.143 149.701L625.822 151.316L626.482 152.939L627.119 154.565L629.707 161.385L616.256 161.186V161.186ZM303.272 118.537L303.953 120.085L304.628 121.627L305.296 123.157L305.959 124.669L306.614 126.158L307.262 127.622L307.906 129.057L308.536 130.454L309.163 131.811L309.775 133.127L310.379 134.388L310.971 135.598L311.553 136.748L312.12 137.836L312.672 138.854L313.205 139.79L313.719 140.646L314.208 141.409L314.671 142.076L315.091 142.633L315.463 143.072L315.767 143.389L315.972 143.566L316.037 143.61L316.246 143.714L316.668 143.898L317.103 144.071L317.553 144.238L318.019 144.392L318.505 144.54L319.017 144.676L319.549 144.805L320.112 144.927L320.701 145.038L321.32 145.141L321.97 145.237L322.654 145.325L323.371 145.402L324.121 145.476L324.91 145.543L325.738 145.598L326.602 145.65L327.506 145.694L328.451 145.734L329.437 145.764L330.466 145.793L331.54 145.811L332.66 145.832L333.825 145.843L335.038 145.855L336.299 145.867L337.612 145.87H338.975L340.388 145.873H343.382L344.919 145.876L346.413 145.879L347.862 145.885L349.267 145.897L350.627 145.908L351.939 145.923L353.207 145.941L354.431 145.958L355.611 145.982L356.739 146L357.823 146.02L358.859 146.047L359.85 146.074L360.79 146.1L361.686 146.121L362.53 146.15L363.33 146.177L364.078 146.203H364.081L363.989 145.86L363.706 144.839L363.4 143.744L363.068 142.579L362.71 141.347L362.331 140.057L361.929 138.711L361.505 137.317L361.055 135.871L360.583 134.382L360.089 132.855L359.577 131.296L359.039 129.706L358.482 128.088L357.907 126.45L357.31 124.799L356.694 123.132L356.056 121.458L355.404 119.78L354.733 118.102L354.044 116.428L353.336 114.769L352.613 113.121L351.865 111.473L351.076 109.791L350.254 108.091L349.395 106.369L348.518 104.636L347.612 102.9L346.688 101.156L345.752 99.4188L344.803 97.6895L343.85 95.9786L342.895 94.2824L341.942 92.6157L340.994 90.9823L340.058 89.3783L339.137 87.8222L338.235 86.3068L337.355 84.8466L336.503 83.4417L335.682 82.0995L334.897 80.8237L334.152 79.6217L333.449 78.497L332.795 77.4572L332.192 76.5022L331.646 75.6468L331.159 74.8835L330.736 74.2271L330.382 73.6777L330.099 73.2426L329.896 72.9292L329.771 72.7375L325.396 66.0782L366.306 69.998L368.219 72.3726L369.137 73.5267L370.047 74.6919L370.954 75.8681L371.854 77.0518L372.746 78.2465L373.634 79.4559L374.519 80.669L375.396 81.9006L376.266 83.1358L377.129 84.3858L377.988 85.6469L378.843 86.9153L379.687 88.1948L380.524 89.489L381.361 90.7944L382.19 92.107L383.009 93.4345L383.823 94.773L384.631 96.1225L385.431 97.4831L386.227 98.8548L387.016 100.238L387.797 101.635L388.571 103.044L389.338 104.463L389.736 105.219L389.943 104.603L390.311 103.464L390.684 102.317L391.045 101.17L391.41 100.02L391.767 98.8622L392.125 97.7044L392.475 96.5429L392.825 95.3777L393.168 94.2088L393.511 93.0362L393.85 91.86L394.186 90.68L394.521 89.5001L394.849 88.3128L395.177 87.1218L395.502 85.9308L395.822 84.7361L396.139 83.534L396.456 82.3357L396.766 81.1299L397.076 79.9205L397.385 78.7111L397.688 77.4979L398.779 73.11L437.871 76.8563L436.581 82.4905L436.253 83.9286L435.918 85.3666L435.579 86.8047L435.239 88.2427L434.893 89.6771L434.546 91.1078L434.2 92.5421L433.846 93.9728L433.488 95.3998L433.127 96.8268L432.766 98.2538L432.397 99.6808L432.025 101.104L431.649 102.524L431.269 103.947L430.886 105.363L430.499 106.779L430.108 108.195L429.71 109.607L429.312 111.019L428.906 112.428L428.497 113.836L428.084 115.237L427.664 116.642L427.24 118.044L426.809 119.441L426.374 120.839L425.935 122.232L425.67 123.066L427.896 124.028L430.624 125.249L433.345 126.51L436.058 127.815L438.767 129.153L441.466 130.529L444.16 131.945L446.851 133.394L449.531 134.88L452.208 136.403L454.88 137.951L457.545 139.537L460.203 141.156L462.857 142.804L465.508 144.481L468.151 146.192L470.79 147.929L473.422 149.695L476.054 151.484L478.679 153.302L481.296 155.145L483.914 157.016L486.527 158.908L489.134 160.822L491.74 162.761L494.335 164.72L496.934 166.699L499.525 168.698L502.117 170.717L504.701 172.754L515.786 181.565L456.244 181.458L453.387 179.606L451.478 178.36L449.576 177.115L447.681 175.877L445.805 174.644L443.932 173.415L442.074 172.197L440.231 170.988L438.399 169.788L436.578 168.601L434.771 167.428L432.98 166.268L431.199 165.125L429.441 163.997L427.69 162.889L425.961 161.8L424.247 160.733L422.548 159.687L420.867 158.666L419.204 157.668L417.56 156.698L415.938 155.754L414.334 154.839L412.749 153.954L411.186 153.103L409.645 152.28L408.547 151.713L408.739 152.35L409.037 153.364L409.332 154.378L409.627 155.4L409.915 156.429L410.206 157.459L410.489 158.493L410.773 159.534L411.05 160.58L411.33 161.629L411.603 162.682L411.875 163.739L412.144 164.805L412.41 165.871L412.675 166.942L412.937 168.02L413.195 169.103L413.453 170.189L413.707 171.278L413.958 172.375L414.205 173.477L414.448 174.58L414.692 175.69L415.919 181.386L308.892 181.193L308.834 181.202L308.428 181.246L307.908 181.294L307.275 181.336L306.53 181.366L305.685 181.375L304.748 181.36L303.723 181.31L302.617 181.221L301.434 181.081L300.184 180.886L298.877 180.627L297.513 180.297L296.105 179.888L294.658 179.393L293.182 178.805L291.682 178.113L290.169 177.314L288.65 176.398L287.137 175.359L285.636 174.193L284.159 172.889L282.713 171.447L281.311 169.862L279.954 168.124L278.66 166.236L277.427 164.191L276.266 161.983L275.186 159.609L274.191 157.064L273.303 154.393L272.477 151.701L271.631 149.002L270.759 146.259L269.86 143.475L268.941 140.665L268.001 137.833L267.052 134.994L266.089 132.155L265.121 129.323L264.151 126.51L263.179 123.726L262.212 120.975L261.255 118.272L260.307 115.625L259.376 113.04L258.464 110.529L257.574 108.106L256.712 105.772L255.878 103.541L255.079 101.421L254.318 99.4226L253.597 97.5532L252.923 95.8275L252.297 94.2457L251.725 92.8297L251.212 91.5871L250.764 90.5326L250.387 89.6771L250.124 89.1166L249.863 88.9213L249.42 87.9332L249.31 87.686L249.153 87.3062L248.952 86.8121L248.716 86.2L248.453 85.4846L248.174 84.6808L247.885 83.7848L247.594 82.8113L247.31 81.7678L247.044 80.6616L246.801 79.5038L246.593 78.2944L246.428 77.0481L246.32 75.7612L246.275 74.4412L246.31 73.1027L246.438 71.7421L246.676 70.3741L247.043 69.0024L247.561 67.6381L248.246 66.3107L249.116 65.0422L250.179 63.8697L251.427 62.8261L252.844 61.9375L254.416 61.2185L256.125 60.6765L257.965 60.3077L259.938 60.1124L262.052 60.0829L264.252 60.2192L266.425 60.4296L268.56 60.6322L270.715 60.8387L272.883 61.0487L275.062 61.2552L278.585 61.5944L281.576 61.8782L283.723 62.0847L290.003 62.6857L292.022 62.881L293.995 63.0689L295.914 63.2533L297.773 63.4303L299.567 63.6037L301.289 63.766L302.935 63.9247L304.496 64.0757L305.968 64.2158L307.342 64.3486L308.616 64.4701L309.782 64.5807L310.835 64.684L311.765 64.7725L312.567 64.85L313.24 64.9126L313.771 64.9642L314.158 65.0011L316.076 65.1819L317.1 66.4688L317.159 66.5463L317.256 66.6679L317.384 66.834L317.542 67.0366L317.727 67.2764L317.943 67.5567L318.183 67.8701L318.45 68.2241L318.739 68.6039L319.047 69.0168L319.377 69.463L319.725 69.935L320.091 70.4328L320.47 70.9564L320.862 71.5021L321.266 72.0699L321.681 72.6599L322.106 73.2683L322.535 73.8915L322.972 74.533L323.412 75.1857L323.854 75.8568L324.296 76.5353L324.738 77.2211L325.177 77.918L325.613 78.6223L326.044 79.3302L326.467 80.0456L326.882 80.7609L327.287 81.4799L327.674 82.1879L328.387 83.5153L329.056 84.769L329.684 85.9526L330.272 87.0625L330.816 88.0986L331.319 89.0573L331.776 89.9386L332.19 90.7351L332.558 91.4467L332.881 92.0772L333.156 92.6156L333.382 93.0617L333.564 93.4157L333.693 93.6738L333.773 93.8325L336.654 99.5995L300.923 98.2499L300.782 98.2352L300.717 98.2322L300.599 98.2204L300.424 98.2086L300.204 98.2057H299.935L299.633 98.2086L299.309 98.2263L298.969 98.2529L298.615 98.2971L298.262 98.3561L297.919 98.4263L297.594 98.5148L297.292 98.6181L297.022 98.7287L296.794 98.8429L296.603 98.9608L296.452 99.075L296.336 99.1856L296.242 99.2962L296.164 99.4181L296.092 99.5656L296.024 99.7682L295.967 100.045L295.932 100.413L295.935 100.896L295.997 101.497L296.132 102.216L296.355 103.061L296.682 104.031L297.12 105.118L297.699 106.372L298.389 107.792L299.097 109.285L299.803 110.8L300.502 112.331L301.204 113.872L301.896 115.424L302.586 116.98L303.27 118.533L303.272 118.537ZM231.256 68.8909L232.187 70.458L233.163 72.121L234.18 73.8761L235.233 75.7161L236.322 77.6482L237.445 79.6652L238.595 81.767L239.773 83.9535L240.976 86.2175L242.201 88.5626L243.443 90.9852L244.703 93.4815L245.976 96.0516L247.261 98.6917L248.555 101.402L249.851 104.186L251.155 107.029L252.456 109.945L253.744 112.906L254.999 115.882L256.217 118.869L257.398 121.848L258.545 124.82L259.655 127.777L260.726 130.716L261.762 133.618L262.759 136.491L263.72 139.319L264.641 142.095L265.523 144.816L266.367 147.471L267.17 150.06L267.936 152.567L268.659 154.99L269.341 157.321L269.985 159.552L270.587 161.679L271.146 163.693L271.663 165.587L272.138 167.353L272.568 168.987L272.957 170.477L273.303 171.822L273.602 173.01L273.859 174.039L274.069 174.896L274.233 175.576L274.351 176.076L274.426 176.388L275.518 181.137L238.15 181.069L237.334 178.344L237.26 178.098L237.194 177.881L237.108 177.594L237.004 177.255L236.883 176.855L236.743 176.394L236.587 175.878L236.289 174.899L236.014 173.994L235.791 173.26L235.551 172.473L235.295 171.635L235.022 170.745L234.734 169.806L234.432 168.817L234.115 167.784L233.782 166.7L233.437 165.573L232.701 163.186L232.312 161.927L231.911 160.628L231.068 157.906L230.627 156.487L230.177 155.027L229.555 153.035L207.598 152.575L207.895 154.031L208.183 155.487L208.453 156.907L208.711 158.287L208.953 159.625L209.18 160.926L209.395 162.186L209.595 163.4L209.781 164.572L209.955 165.695L210.116 166.775L210.266 167.806L210.404 168.789L210.533 169.722L210.648 170.604L210.754 171.433L210.849 172.21L210.935 172.933L211.011 173.598L211.078 174.209L211.137 174.759L211.188 175.25L211.231 175.681L211.267 176.057L211.293 176.366L211.314 176.608L211.329 176.79L211.338 176.915L211.631 181.022L172.438 180.951L172.096 177.468L172.069 177.225L172.027 176.82L171.894 175.56L171.801 174.721L171.695 173.747L171.571 172.649L171.431 171.433L171.275 170.106L171.105 168.676L170.919 167.148L170.719 165.53L170.504 163.829L170.275 162.052L170.03 160.204L169.772 158.295L169.5 156.328L169.214 154.315L168.915 152.261L168.602 150.17L168.277 148.054L167.939 145.915L167.587 143.762L167.224 141.601L166.85 139.444L166.461 137.29L166.063 135.152L165.653 133.039L165.23 130.952L164.8 128.898L164.356 126.888L163.898 124.897L163.423 122.906L162.932 120.908L162.424 118.909L161.904 116.914L161.368 114.923L160.824 112.932L160.267 110.948L159.701 108.972L159.125 106.999L158.544 105.037L157.955 103.087L157.362 101.151L156.767 99.2226L156.167 97.3126L155.565 95.4173L154.964 93.5368L154.364 91.6747L153.766 89.8347L153.172 88.0132L152.58 86.2138L151.994 84.4402L151.415 82.6887L150.844 80.9594L150.28 79.2595L149.727 77.5892L149.187 75.9484L148.658 74.3333L148.142 72.7551L147.641 71.2065L147.154 69.691L146.659 68.1313L146.217 66.4535L145.956 64.7426L145.904 63.0797L146.071 61.4683L146.463 59.9344L147.065 58.5074L147.854 57.2242L148.79 56.0922L149.838 55.1225L150.958 54.3002L152.135 53.6144L153.346 53.0354L154.584 52.5598L155.835 52.1689L157.097 51.8481L158.358 51.5936L159.617 51.3909L160.861 51.2396L162.081 51.1328L163.273 51.0626L164.426 51.0222L165.532 51.0104L166.582 51.0192L167.567 51.0458L168.477 51.0862L169.302 51.1378L170.031 51.1894L170.659 51.2411L171.168 51.2927L171.553 51.3369L171.798 51.3664L171.829 51.3694L223.208 56.2921L224.255 57.8112L224.385 58.003L224.593 58.309L224.877 58.7331L225.231 59.2677L225.657 59.9167L226.15 60.6763L226.705 61.5391L227.323 62.5089L228 63.5856L228.736 64.7618L229.523 66.0376L230.361 67.4167L231.25 68.8916L231.256 68.8909ZM199.562 85.5905L198.872 85.564L198.144 85.5433L197.381 85.5256L196.574 85.5079L195.728 85.4902L194.839 85.4755L193.913 85.4637L192.943 85.4578L191.929 85.4519H190.98L189.367 85.5439L188.323 85.7504L187.708 85.9902L187.42 86.1746L187.31 86.2961L187.24 86.4141L187.176 86.6206L187.13 86.9599L187.135 87.4208L187.204 87.9591L187.328 88.5196L187.485 89.0542L187.651 89.5188L187.797 89.8691L187.89 90.0718L187.914 90.1199L187.932 90.1529L187.984 90.2562L188.044 90.3889L188.125 90.562L188.227 90.7833L188.349 91.0562L188.492 91.3769L188.653 91.7531L188.839 92.1808L189.043 92.6712L189.271 93.2206L189.522 93.8327L189.792 94.5112L190.086 95.2523L190.404 96.0635L190.744 96.9448L191.109 97.9035L191.497 98.9359L191.909 100.049L192.345 101.24L192.807 102.513L193.294 103.87L193.807 105.315L194.342 106.849L194.907 108.479L195.494 110.197L196.112 112.011L196.754 113.925L197.424 115.938L198.119 118.051L198.787 120.101L219.072 121.03L218.757 120.178L217.998 118.165L217.236 116.174L216.472 114.212L215.709 112.284L214.947 110.385L214.192 108.523L213.443 106.705L212.705 104.928L211.979 103.202L211.265 101.524L210.568 99.9057L209.89 98.3386L209.231 96.8378L208.598 95.3998L207.987 94.0318L207.406 92.7339L206.853 91.5134L206.331 90.3703L205.843 89.3084L205.394 88.3349L204.982 87.4463L204.608 86.6498L204.278 85.9529L204.232 85.8535L204.131 85.8476L203.758 85.8181L203.356 85.7886L202.924 85.7621L202.454 85.7326L201.945 85.7031L201.404 85.6765L200.826 85.647L200.214 85.6205L199.562 85.5939L199.562 85.5905ZM502.121 226.955L502.755 226.858L503.278 226.723L503.783 226.539L504.27 226.303L504.757 226.008L505.243 225.643L505.737 225.202L506.231 224.678L506.732 224.063L507.226 223.356L507.717 222.551L508.2 221.646L508.668 220.645L509.121 219.544L509.56 218.344L509.954 217.105L510.035 216.769L510.018 216.76L509.8 216.672L509.516 216.584L509.174 216.499L508.783 216.426L508.359 216.364L507.905 216.318L507.423 216.285L506.932 216.267L506.438 216.261L505.937 216.267L505.45 216.282L504.967 216.308L504.547 216.339L504.415 216.778L504.245 217.35L504.075 217.923L503.898 218.5L503.718 219.074L503.541 219.643L503.364 220.215L503.179 220.79L502.995 221.363L502.807 221.936L502.623 222.508L502.431 223.08L502.24 223.656L502.048 224.229L501.853 224.803L501.654 225.376L501.455 225.95L501.252 226.523L501.064 227.049L501.296 227.032L501.746 226.993L502.122 226.955" fill="#99DEF9"/>
<path d="M314.11 68.3498C314.11 68.3498 320.479 76.366 324.341 83.538C328.203 90.7135 330.409 95.1273 330.409 95.1273L301.17 94.0248C301.17 94.0248 286.834 92.3692 294.276 107.542C301.716 122.719 309.048 143.472 314.134 146.448C319.651 149.206 326.824 149.206 343.373 149.206C359.924 149.206 369.025 149.755 369.025 149.755C369.025 149.755 364.06 129.066 356.061 111.13C348.061 93.1952 332.879 70.1451 332.879 70.1451L364.351 73.1613C374.042 85.0935 382.809 98.6922 390.384 114.43C394.734 102.461 398.427 89.8279 401.653 76.7336L433.22 79.7572C429.736 95.0557 425.829 110.141 420.988 124.757C449.738 136.471 477.525 155.421 504.919 177.311L457.356 177.226C436.882 163.959 417.774 150.619 402.344 144.173C405.732 154.391 408.711 165.35 411.225 177.144L308.615 176.959C308.615 176.959 285.44 180.841 276.895 152.788C268.35 124.735 253.728 85.7407 252.898 86.0209C252.898 86.0209 241.61 61.401 263.944 63.5396C286.278 65.6782 314.107 68.3478 314.107 68.3478L314.11 68.3498ZM221.091 59.4339L171.414 54.6735C171.414 54.6735 145.428 51.1891 150.29 66.6239C155.15 82.0551 163.18 104.043 168.043 125.606C172.904 147.169 175.862 176.724 175.862 176.724L207.565 176.78C207.565 176.78 206.689 165.159 202.886 148.24L232.347 148.859C237.62 165.754 240.958 176.841 240.958 176.841L270.758 176.894C270.758 176.894 262.726 142.098 248.99 111.021C235.251 79.9446 221.091 59.4343 221.091 59.4343L221.091 59.4339ZM195.991 123.301C187.851 98.0026 184.527 91.3571 184.527 91.3571C184.527 91.3571 179.245 81.2097 190.868 81.2097C202.494 81.2097 206.72 81.8439 206.72 81.8439C206.72 81.8439 216.691 102.29 224.549 124.605L195.991 123.3L195.991 123.301ZM618.81 157.021L624.211 157.101C617.87 140.078 608.263 124.146 594.705 109.526L589.024 109.11C601.952 124.102 612.027 140.343 618.81 157.018V157.021ZM597.013 156.695L604.168 156.802C596.718 139.616 588.217 122.926 574.78 108.058L565.874 107.406C579.433 122.774 589.972 139.497 597.013 156.695L597.013 156.695ZM572.738 156.331L586.555 156.538C577.037 139.03 565.985 121.748 551.257 106.332L540.368 105.531C554.538 121.321 565.501 138.576 572.737 156.331L572.738 156.331ZM548.774 155.973L562.314 156.176C552.5 138.097 541.062 120.259 525.645 104.448L512.787 103.504C526.95 120.344 538.709 137.902 548.771 155.976L548.774 155.973ZM445.412 87.3925L436.255 118.684C463.213 132.047 490.176 150.015 517.133 170.838C513.934 165.622 510.605 160.459 507.121 155.354L538.042 155.815C525.771 137.076 511.589 119.083 494.626 102.169L459.341 99.5732C454.884 95.4398 450.246 91.38 445.414 87.3939L445.412 87.3925Z" fill="url(#paint0_linear)"/>
<path fill-rule="evenodd" clip-rule="evenodd" d="M248.629 189.529C245.155 216.722 239.211 243.606 227.831 269.809C223.724 279.536 222.596 286.654 235.863 285.802L273.145 283.405C291.542 282.224 294.35 282.042 309.185 242.048C314.903 226.632 319.765 208.585 321.164 189.659L296.627 189.616C291.857 223.318 279.309 261.468 266.756 261.804C260.525 262.471 258.384 259.242 260.334 252.118C269.188 231.826 273.964 210.853 276.89 189.579L248.622 189.528L248.629 189.529ZM404.894 189.81C401.768 214.267 394.042 236.712 383.805 260.279C380.115 269.027 380.181 276.529 392.114 275.761L416.724 274.181C433.268 273.116 441.894 271.187 458.058 236.393C464.501 222.529 470.82 206.951 472.081 189.933L447.415 189.889C443.128 220.198 430.539 254.508 419.255 254.818C413.648 255.417 412.373 251.862 414.127 245.455C422.09 227.206 428.552 208.998 431.18 189.863L404.893 189.815L404.894 189.81ZM151.101 291.249C167.372 262.03 176.122 227.795 178.637 189.403L239.252 189.512C238.265 198.048 236.786 206.586 234.731 215.123L206.15 216.233C205.474 221.564 204.46 227.875 203.167 233.127L229.633 232.749C227.062 240.34 223.983 247.933 220.337 255.523L195.355 257.211C191.081 268.023 185.921 278.722 180.352 289.368L151.103 291.247L151.101 291.249ZM323.807 280.151C334.586 258.464 341.691 236.777 345.126 215.092L327.562 215.395C330.442 206.825 332.396 198.253 333.428 189.683L395.831 189.795C394.503 197.972 392.601 206.149 389.428 214.328L374.432 214.587C368.939 236.77 360.829 258.201 348.885 278.543L323.817 280.154L323.807 280.151ZM128.511 189.299H149.957C154.593 189.299 158.044 193.141 157.328 197.818C156.432 203.672 155.269 209.52 153.875 215.348C152.472 221.207 150.795 227.046 148.994 232.877C147.543 237.57 142.43 241.391 137.802 241.391H116.365C111.73 241.391 109.255 237.569 110.705 232.877C112.506 227.046 114.183 221.209 115.586 215.348C116.978 209.523 118.151 203.674 119.039 197.818C119.748 193.143 123.876 189.299 128.511 189.299ZM132.183 200.634H143.305C145.444 200.634 146.9 202.402 146.486 204.551C145.795 208.156 145.026 211.755 144.165 215.347C143.3 218.948 142.342 222.546 141.325 226.137C140.713 228.295 138.424 230.055 136.296 230.055H125.156C123.035 230.055 121.829 228.295 122.44 226.137C123.452 222.547 124.427 218.95 125.287 215.347C126.145 211.755 126.923 208.157 127.61 204.551C128.019 202.402 130.055 200.634 132.183 200.634ZM74.0216 189.215H92.793H111.582C111.249 193.466 110.803 197.712 110.268 201.96H99.4977C97.8676 208.562 96.1137 215.192 93.9924 221.766C91.8555 228.397 89.383 234.971 86.8516 241.573H75.493C78.0258 234.971 80.4972 228.394 82.6353 221.766C84.7579 215.189 86.5089 208.562 88.1406 201.96H72.7141C73.2497 197.712 73.6876 193.466 74.0216 189.215ZM87.8828 295.383C90.8001 289.654 93.5361 283.889 95.9983 278.087L108.571 277.195C106.262 282.994 103.81 288.756 101.253 294.504L108.852 294.006C115.641 279.535 121.202 265.209 125.154 250.714L117.814 250.887C115.86 257.432 113.652 263.888 111.249 270.297L98.8031 271.155C101.328 264.548 103.451 257.895 105.035 251.195L97.7462 251.368C93.8726 267.723 87.4375 282.359 80.5974 295.869L87.8881 295.39L87.8828 295.383ZM63.8653 252.165L88.1216 251.59C87.9704 252.614 87.704 253.948 87.2576 255.676C86.8602 257.217 86.4731 258.538 86.1115 259.665L77.8877 260.027C74.6898 272.632 69.549 284.909 63.2751 297.001L57.6377 297.371H55.8333C62.1407 285.265 67.3213 272.969 70.5573 260.35L60.7337 260.783L63.8653 252.165ZM139.184 292.014L120.966 293.21C127.123 280.81 132.591 266.002 137.838 250.41L145.183 250.238L153.722 250.036C153.692 250.173 153.664 250.309 153.636 250.448C153.634 250.451 153.634 250.454 153.633 250.457C153.627 250.491 153.618 250.527 153.609 250.562C153.591 250.654 153.57 250.746 153.552 250.837C153.549 250.852 153.546 250.863 153.546 250.877C153.537 250.911 153.531 250.948 153.522 250.983C153.516 251.018 153.507 251.053 153.501 251.087C153.496 251.123 153.487 251.159 153.478 251.194C153.448 251.333 153.417 251.473 153.387 251.613C153.378 251.647 153.373 251.683 153.364 251.719C153.362 251.725 153.361 251.731 153.358 251.737C153.268 252.149 153.175 252.561 153.082 252.971V252.977C153.073 253.013 153.064 253.046 153.055 253.083C153.049 253.118 153.04 253.153 153.031 253.188C153.023 253.222 153.017 253.258 153.008 253.294C153.005 253.312 152.999 253.33 152.996 253.347C152.99 253.365 152.99 253.38 152.984 253.396C152.981 253.405 152.981 253.411 152.978 253.417C152.916 253.682 152.856 253.947 152.794 254.21C152.791 254.219 152.791 254.225 152.788 254.237C152.782 254.272 152.773 254.308 152.764 254.341C152.753 254.377 152.747 254.411 152.738 254.447C152.732 254.482 152.72 254.516 152.711 254.552C152.703 254.587 152.697 254.621 152.688 254.656C152.686 254.665 152.685 254.674 152.682 254.682C152.676 254.709 152.67 254.734 152.664 254.76C152.658 254.795 152.649 254.83 152.641 254.865C152.632 254.9 152.626 254.935 152.617 254.969C152.608 255.005 152.599 255.04 152.59 255.074C152.59 255.076 152.59 255.077 152.589 255.077C152.54 255.286 152.488 255.493 152.437 255.702C152.431 255.737 152.422 255.771 152.41 255.807C152.401 255.842 152.395 255.875 152.386 255.911C152.378 255.947 152.369 255.98 152.36 256.015V256.016C152.351 256.05 152.342 256.085 152.333 256.121C152.322 256.154 152.316 256.19 152.307 256.225C152.298 256.259 152.292 256.294 152.28 256.328C152.274 256.364 152.263 256.399 152.254 256.433C152.245 256.468 152.236 256.503 152.227 256.537C152.218 256.573 152.209 256.608 152.201 256.644C152.198 256.655 152.195 256.67 152.192 256.681C152.186 256.704 152.183 256.725 152.177 256.746L142.979 257.151C141.737 260.926 140.444 264.664 139.079 268.362L148.743 267.695L148.963 267.84C148.874 268.115 148.783 268.39 148.693 268.663C148.681 268.698 148.672 268.733 148.659 268.767C148.648 268.8 148.636 268.835 148.625 268.87C148.613 268.904 148.601 268.937 148.59 268.972C148.579 269.006 148.567 269.039 148.556 269.074C148.544 269.108 148.532 269.143 148.521 269.177C148.486 269.28 148.452 269.383 148.418 269.487L147.276 272.771C147.093 273.282 146.907 273.795 146.718 274.306C146.706 274.341 146.692 274.375 146.68 274.408L146.473 274.504L136.447 275.214C134.88 279.123 133.223 282.975 131.449 286.761L141.756 286.469C140.931 288.318 140.073 290.163 139.186 292.004L139.189 292.006L139.184 292.014ZM501.594 212.442C499.902 218.445 497.916 224.445 495.593 230.447C497.359 230.527 499.895 230.549 502.582 230.265C507.559 229.742 511.223 225.551 513.582 217.692C515.853 210.122 502.575 212.274 501.594 212.442ZM529.559 259.292C541.989 238.908 549.963 215.548 554.762 190.074L614.498 190.18C612.368 197.147 609.887 204.045 607.023 210.864L576.426 211.352L576.75 211.669C575.818 215.682 574.682 219.631 573.315 223.514L593.376 223.193C592.458 225.604 591.175 228.684 589.524 231.986C588.333 234.364 587.22 236.384 586.254 238.03L566.513 238.707C564.493 242.351 562.211 245.916 559.635 249.393L559.196 250.193L586.047 249.272C582.648 254.234 578.995 259.141 575.065 263.995L528.529 266.987L496.296 269.058C496.296 269.058 501.011 260.911 498.652 255.673C497.454 253.006 495.367 250.95 493.612 249.573C490.262 250.045 487.666 250.296 486.605 250.391C483.151 257.074 479.232 263.756 474.801 270.439L451.824 271.916C466.153 247.922 477.179 220.928 483.828 189.946L484.001 190.028L483.986 189.946C483.986 189.946 512.533 189.996 520.911 190.012C529.294 190.027 533.751 190.036 538.72 196.73C543.693 203.423 538.197 215.591 534.271 225.546C530.341 235.5 525.103 240.215 514.103 244.669C512.89 245.16 511.603 245.614 510.276 246.03C513.38 246.942 517.524 248.839 520.911 252.79C524.166 256.588 526.094 260.258 527.193 262.916L529.556 259.289L529.559 259.292Z" fill="url(#paint1_linear)"/>
<path d="M75.4042 46.4924C90.0901 72.4155 96.421 98.8336 96.421 98.8336H120.273C113.362 72.9105 109.907 62.4783 102.132 49.0847L133.204 52.109C140.115 61.6142 164.803 129.933 167.178 178.971H132.8C132.8 178.971 130.304 142.76 125.278 124.308L101.857 123.339C101.857 123.339 106.325 146.188 106.936 178.107L73.2719 178.539C73.2719 125.397 62.0415 74.5757 47.7876 43.468L75.4042 46.4924Z" fill="url(#paint2_linear)" stroke="#99DEF9" stroke-width="3"/>
<path d="M367.769 338.086L376.946 317.543L388.078 294.917L392.295 294.658L367.144 344.078L362.927 344.336L370.577 324.916L379.143 303.445L368.468 325.046L358.71 344.595L354.494 344.854L373.32 295.823L377.537 295.564L368.513 318.061L359.336 338.604L369.567 317.996L380.699 295.37L384.916 295.111L375.892 317.608L367.769 338.086Z" fill="white"/>
<path d="M400.201 294.173L378.212 343.398L373.996 343.657L395.984 294.432L400.201 294.173Z" fill="white"/>
<path d="M416.013 293.202L414.639 296.279L410.422 296.538L389.808 342.686L385.591 342.945L406.206 296.797L401.989 297.056L403.363 293.979L416.013 293.202Z" fill="white"/>
<path d="M427.082 292.523L431.299 292.264L409.31 341.489L405.093 341.748L415.773 317.84L411.556 318.099L400.876 342.007L396.66 342.266L418.649 293.041L422.865 292.782L412.988 314.895L417.204 314.636L427.082 292.523Z" fill="white"/>
<path d="M451.789 291.006L456.005 290.747L434.017 339.972L429.8 340.231L440.479 316.324L436.263 316.583L425.583 340.49L421.367 340.749L443.355 291.524L447.572 291.265L437.694 313.378L441.911 313.119L451.789 291.006Z" fill="white"/>
<path d="M449.829 339.002L445.612 339.26L449.706 328.661L446.774 328.841L441.396 339.519L437.179 339.778L463.384 290.294L467.601 290.035L449.829 339.002ZM450.964 325.342L460.912 300.42L448.494 325.494L450.964 325.342Z" fill="white"/>
<path d="M478.468 309.316L474.251 309.575L481.352 293.68C481.676 292.953 481.719 292.452 481.479 292.176C481.249 291.878 480.892 291.744 480.409 291.774C480.124 291.791 479.814 291.862 479.481 291.987C479.179 292.088 478.865 292.243 478.537 292.45C478.241 292.634 477.959 292.859 477.691 293.125C477.454 293.368 477.269 293.639 477.135 293.938L459.269 333.934C459.136 334.233 459.078 334.506 459.095 334.755C459.134 335.002 459.22 335.215 459.354 335.393C459.519 335.549 459.71 335.673 459.926 335.764C460.173 335.831 460.44 335.857 460.725 335.839C461.208 335.809 461.708 335.623 462.225 335.28C462.741 334.936 463.162 334.401 463.486 333.675L471.503 315.728L475.719 315.469L467.703 333.416C467.321 334.271 466.795 335.04 466.126 335.726C465.467 336.39 464.74 336.964 463.947 337.449C463.163 337.913 462.339 338.275 461.475 338.536C460.601 338.818 459.769 338.984 458.978 339.032C458.188 339.081 457.467 339.021 456.816 338.853C456.164 338.685 455.638 338.406 455.236 338.015C454.843 337.603 454.614 337.087 454.549 336.468C454.494 335.827 454.661 335.069 455.053 334.193L472.919 294.197C473.3 293.343 473.815 292.573 474.462 291.89C475.131 291.204 475.858 290.63 476.642 290.166C477.426 289.702 478.25 289.34 479.114 289.079C479.987 288.797 480.819 288.632 481.61 288.583C482.401 288.535 483.122 288.594 483.773 288.762C484.424 288.93 484.946 289.22 485.338 289.632C485.741 290.023 485.969 290.539 486.025 291.18C486.112 291.798 485.96 292.545 485.569 293.421L478.468 309.316Z" fill="white"/>
<path d="M481.453 337.06L477.237 337.319L484.153 314.952L474.074 337.513L469.858 337.772L491.847 288.547L496.063 288.288L485.985 310.85L499.226 288.094L503.442 287.835L488.791 312.672L481.453 337.06Z" fill="white"/>
<path d="M517.933 306.894L513.716 307.152L520.817 291.257C521.141 290.53 521.184 290.029 520.944 289.753C520.714 289.455 520.357 289.321 519.874 289.351C519.588 289.369 519.279 289.44 518.946 289.564C518.644 289.666 518.33 289.82 518.002 290.027C517.706 290.211 517.424 290.437 517.156 290.702C516.919 290.945 516.734 291.217 516.6 291.516L498.734 331.511C498.601 331.81 498.543 332.084 498.56 332.332C498.599 332.579 498.685 332.792 498.819 332.971C498.984 333.127 499.175 333.25 499.391 333.341C499.638 333.409 499.904 333.434 500.19 333.416C500.673 333.387 501.173 333.2 501.689 332.857C502.206 332.513 502.626 331.978 502.951 331.252L510.968 313.305L515.184 313.047L507.168 330.993C506.786 331.848 506.26 332.618 505.591 333.303C504.931 333.967 504.205 334.541 503.412 335.026C502.628 335.49 501.804 335.852 500.94 336.113C500.066 336.395 499.234 336.561 498.443 336.609C497.653 336.658 496.932 336.598 496.28 336.43C495.629 336.263 495.103 335.983 494.7 335.592C494.308 335.18 494.079 334.664 494.014 334.045C493.959 333.404 494.126 332.646 494.518 331.77L512.384 291.775C512.765 290.92 513.28 290.151 513.927 289.467C514.596 288.782 515.323 288.207 516.107 287.743C516.89 287.28 517.714 286.917 518.579 286.657C519.452 286.374 520.284 286.209 521.075 286.16C521.866 286.112 522.586 286.172 523.238 286.339C523.889 286.507 524.411 286.797 524.803 287.21C525.206 287.6 525.434 288.116 525.49 288.757C525.577 289.375 525.425 290.122 525.033 290.998L517.933 306.894Z" fill="white"/>
<path d="M535.528 285.865L514.914 332.014L519.13 331.755L517.756 334.831L509.323 335.349L531.312 286.124L535.528 285.865Z" fill="white"/>
<path d="M549.232 285.024L553.449 284.765L533.521 329.375C533.121 330.273 532.608 331.063 531.982 331.745C531.367 332.406 530.689 332.967 529.949 333.428C529.218 333.868 528.459 334.206 527.67 334.441C526.904 334.675 526.158 334.814 525.433 334.859C524.708 334.903 524.038 334.851 523.421 334.702C522.826 334.551 522.344 334.29 521.977 333.918C521.619 333.524 521.418 333.017 521.375 332.396C521.341 331.754 521.525 330.985 521.926 330.087L541.853 285.477L546.07 285.218L526.142 329.828C525.799 330.598 525.725 331.122 525.921 331.4C526.117 331.679 526.412 331.807 526.807 331.782C527.203 331.758 527.632 331.586 528.095 331.267C528.558 330.948 528.961 330.403 529.305 329.634L549.232 285.024Z" fill="white"/>
<path d="M551.804 306.809L554.966 306.615C555.23 306.599 555.451 306.533 555.631 306.418C555.842 306.281 556.023 306.114 556.175 305.917C556.327 305.721 556.455 305.505 556.56 305.27C556.697 305.013 556.822 304.755 556.937 304.499L563.808 289.116C564.037 288.604 564.137 288.213 564.107 287.945C564.1 287.675 563.96 287.486 563.687 287.378C563.415 287.27 563.009 287.222 562.47 287.235C561.952 287.246 561.298 287.276 560.508 287.324L551.804 306.809ZM553.73 311.678C553.844 311.421 553.943 311.176 554.026 310.943C554.141 310.686 554.208 310.464 554.228 310.276C554.248 310.087 554.205 309.945 554.099 309.847C554.025 309.727 553.856 309.675 553.592 309.691L550.43 309.886L541.268 330.396C541.751 330.366 542.25 330.325 542.764 330.273C543.279 330.221 543.758 330.129 544.201 329.998C544.675 329.844 545.095 329.621 545.461 329.328C545.849 329.034 546.162 328.62 546.4 328.086L553.73 311.678ZM561.153 304.24C560.695 305.266 560.068 306.073 559.27 306.662C558.473 307.251 557.409 307.722 556.077 308.074C557.18 308.235 557.881 308.576 558.182 309.098C558.483 309.62 558.405 310.393 557.947 311.419L550.617 327.827C550.044 329.109 549.359 330.117 548.561 330.852C547.772 331.565 546.911 332.107 545.977 332.476C545.044 332.845 544.057 333.092 543.018 333.218C541.989 333.323 540.947 333.408 539.893 333.472L535.677 333.731L557.665 284.506L561.882 284.248C563.2 284.167 564.36 284.127 565.364 284.127C566.399 284.105 567.207 284.232 567.789 284.508C568.37 284.784 568.69 285.263 568.749 285.945C568.839 286.605 568.597 287.576 568.025 288.857L561.153 304.24Z" fill="white"/>
</g>
<defs>
<linearGradient id="paint0_linear" x1="352.124" y1="42.5741" x2="357.848" y2="177.312" gradientUnits="userSpaceOnUse">
<stop stop-color="#EF381F"/>
<stop offset="1" stop-color="#E6E83C"/>
</linearGradient>
<linearGradient id="paint1_linear" x1="335.167" y1="297.367" x2="335.167" y2="189.226" gradientUnits="userSpaceOnUse">
<stop stop-color="#EF381F"/>
<stop offset="1" stop-color="#E6E83C"/>
</linearGradient>
<linearGradient id="paint2_linear" x1="125.915" y1="54.1082" x2="135.422" y2="178.107" gradientUnits="userSpaceOnUse">
<stop stop-color="#EF381F"/>
<stop offset="1" stop-color="#E6E83C"/>
</linearGradient>
<clipPath id="clip0">
<rect width="660" height="375" fill="white" transform="translate(0.152588 0.176025)"/>
</clipPath>
</defs>
</svg>
