<svg width="335" height="432" fill="none" xmlns="http://www.w3.org/2000/svg"><path d="M.69 418.567a13.199 13.199 0 0 0 13.201 13.201h45.575L.69 372.689v45.878z" fill="#CCC7B2"/><path d="M320.901 0H13.897A13.201 13.201 0 0 0 .696 13.201L3.806 380l55.666 51.775h261.435a13.202 13.202 0 0 0 13.201-13.201V13.201A13.197 13.197 0 0 0 320.901 0z" fill="#C5BFAB"/><path d="M189.431 293.537h-50.609a1.22 1.22 0 0 0-1.221 1.221v28.957a1.22 1.22 0 0 0 1.221 1.221h50.609a1.22 1.22 0 0 0 1.221-1.221v-28.957a1.22 1.22 0 0 0-1.221-1.221z" fill="#BBB79E"/><path d="M184.582 298.25h-17.081a1.851 1.851 0 0 0-1.851 1.851v19.037a1.85 1.85 0 0 0 1.851 1.85h17.081a1.85 1.85 0 0 0 1.851-1.85v-19.037a1.851 1.851 0 0 0-1.851-1.851z" fill="#4D4B4C"/><path d="M324.75 3.202H10.042A9.352 9.352 0 0 0 .69 12.553v360.142a9.352 9.352 0 0 0 9.352 9.352H324.75a9.352 9.352 0 0 0 9.352-9.352V12.553a9.352 9.352 0 0 0-9.352-9.351z" fill="#B3AE99"/><path d="M324.75 0H10.042A9.352 9.352 0 0 0 .69 9.352v360.142a9.352 9.352 0 0 0 9.352 9.352H324.75a9.352 9.352 0 0 0 9.352-9.352V9.352A9.352 9.352 0 0 0 324.75 0z" fill="#CAC4B0"/><path d="M312.301 13.46H21.392a9.352 9.352 0 0 0-9.352 9.352V352.5a9.352 9.352 0 0 0 9.352 9.352h290.909a9.352 9.352 0 0 0 9.352-9.352V22.812a9.352 9.352 0 0 0-9.352-9.352z" fill="#DDDAC7"/><path d="M301.278 290.675h-52.842a2.677 2.677 0 0 0-2.678 2.677v32.738a2.677 2.677 0 0 0 2.678 2.677h52.842a2.677 2.677 0 0 0 2.677-2.677v-32.738a2.677 2.677 0 0 0-2.677-2.677z" fill="#C1BEAC"/><path d="M246.499 299.336h-81.62a1.85 1.85 0 0 0-1.851 1.85v13.35a1.85 1.85 0 0 0 1.851 1.85h81.62a1.85 1.85 0 0 0 1.85-1.85v-13.35a1.85 1.85 0 0 0-1.85-1.85z" fill="#C1BEAC"/><path d="M262.784 304.388h-92.051v6.619h92.051v-6.619z" fill="#535352"/><path d="M291.513 304.388h-31.72a1.85 1.85 0 0 0-1.851 1.851v10.758a1.85 1.85 0 0 0 1.851 1.851h31.72a1.85 1.85 0 0 0 1.85-1.851v-10.758a1.85 1.85 0 0 0-1.85-1.851z" fill="#535352"/><path d="M302.333 37.506H31.473a2.597 2.597 0 0 0-2.598 2.597v200.709a2.597 2.597 0 0 0 2.597 2.597h270.861a2.597 2.597 0 0 0 2.597-2.597V40.103a2.597 2.597 0 0 0-2.597-2.597z" fill="#CECBB8"/><path d="M270.563 48.536c-116.849-4.318-192.313.395-210.64.395-18.328 0-18.044 21.258-18.044 21.258v141.938s-.308 21.258 18.02 21.258c18.327 0 93.765 4.707 210.64.395 0 0 20.147.382 20.147-14.917V63.459c.025-15.299-20.123-14.923-20.123-14.923z" fill="#4D4E4E"/><path d="M278.928 62.694H53.952a4.17 4.17 0 0 0-4.17 4.17v149.125a4.17 4.17 0 0 0 4.17 4.17h224.976a4.17 4.17 0 0 0 4.17-4.17V66.864a4.17 4.17 0 0 0-4.17-4.17z" fill="#EBEBEB"/><path d="M227.61 107.356c2.398.358 4.197 1.069 5.398 2.134a8.022 8.022 0 0 1 1.801 5.472c0 4.113-2.077 10.876-6.231 20.289 3.208 0 5.47 1.691 6.786 5.071a11.68 11.68 0 0 1 .555 3.337c0 4.203-2.169 7.674-6.508 10.413.823.868 1.376 2.382 1.66 4.541-.185 2.603-.278 4.248-.278 4.935h1.382c2.352 0 5.167-2.848 8.445-8.544a26.55 26.55 0 0 0 1.801-3.738c.946-1.6 2.145-2.4 3.597-2.4 2.492.312 3.738 1.513 3.738 3.602v.136c-.621 3.183-2.743 7.09-6.366 11.721-3.508 4.359-7.569 6.539-12.184 6.539-3.438 0-5.93-1.335-7.476-4.004a24.489 24.489 0 0 1-.555-2.8c.185-2.735.277-4.559.277-5.472a5.556 5.556 0 0 0-3.047-.932h-1.234c-.991 5.096-1.499 8.655-1.524 10.679-.921 1.599-2.167 2.399-3.738 2.399a4.741 4.741 0 0 1-2.906-1.332 5.767 5.767 0 0 1-.832-2.005c0-3.936.738-13.234 2.214-27.895 1.386-9.048 2.955-16.245 4.707-21.591 1.546-3.759 3.115-6.385 4.707-7.878a9.253 9.253 0 0 1 5.552-2.671l.259-.006zm-6.644 26.026v.136h.136c4.059-9.122 6.088-15.04 6.088-17.754v-.666c-.97.555-2.261 3.228-3.874 8.019a131.699 131.699 0 0 0-2.35 10.265zm.833 15.885h.136c4.244-1.579 6.366-3.224 6.366-4.935v-1.604a.242.242 0 0 0-.168-.258.24.24 0 0 0-.11-.007h-.136c-2.097-.004-4.126 2.262-6.088 6.798v.006z" fill="#4D4E4E"/><path d="M199.03 135.381h.968c3.368 0 5.676 1.735 6.922 5.206.135.662.228 1.332.277 2.005-.506 4.45-1.059 6.675-1.659 6.675 0 .691-.876 1.135-2.628 1.332-2.677 0-4.016-1.201-4.016-3.602.37-1.6.648-3.068.833-4.405-3.323 0-6.276 1.514-8.859 4.54-2.681 3.089-4.022 6.291-4.022 9.605v.667c0 3.29 2.307 5.346 6.922 6.168h1.381c5.861 0 10.983-4.225 15.367-12.677a3.754 3.754 0 0 1 3.183-1.468c2.122 0 3.321 1.201 3.597 3.603-.346 2.492-2.423 5.963-6.231 10.413-3.899 3.561-6.806 5.564-8.723 6.008a26.603 26.603 0 0 1-7.754 1.468c-6.481 0-11.279-2.891-14.392-8.673a23.06 23.06 0 0 1-.968-5.472c0-6.14 2.815-11.79 8.445-16.952 3.903-2.961 7.688-4.441 11.357-4.441z" fill="#4D4E4E"/><path d="M152.381 135.116h.413c5.421 0 9.25 2.848 11.487 8.543.345 1.222.577 2.474.691 3.739a29.466 29.466 0 0 0-.278 3.473v2.535c0 5.671 1.108 9.052 3.325 10.142h.969c1.731 0 4.038-2.402 6.921-7.205 1.201-2.135 2.169-4.047 2.906-5.737a3.74 3.74 0 0 1 3.183-1.469c2.397.177 3.596 1.335 3.596 3.473 0 2.139-1.799 5.787-5.398 10.944-3.598 4.894-7.519 7.341-11.764 7.341-3.553 0-6.413-1.69-8.58-5.071-1.016-2.003-1.524-3.337-1.524-4.004h-.136c-4.569 5.964-9.551 8.945-14.947 8.945h-.277c-4.89 0-8.443-2.225-10.66-6.674a15.205 15.205 0 0 1-.969-4.935c0-4.936 2.445-10.487 7.335-16.656 4.503-4.923 9.072-7.384 13.707-7.384zm-13.429 24.021v1.055c0 1.468 1.061 2.535 3.183 3.201h2.214c1.707 0 4.014-1.645 6.922-4.935a40.36 40.36 0 0 0 5.12-8.809c.396-.906.72-1.843.968-2.8 0-1.781-1.153-3.204-3.46-4.269a3.296 3.296 0 0 0-.981-.278c-4.339 0-8.451 3.603-12.338 10.808a14.198 14.198 0 0 0-1.622 6.027h-.006z" fill="#4D4E4E"/><path d="M104.456 106.955c2.928 0 5.235 1.69 6.921 5.071.356 1.309.588 2.65.691 4.003 0 3.961-2.262 10.456-6.786 19.488a9.416 9.416 0 0 1 2.906-.537h1.801c5.1 0 8.422 2.447 9.969 7.341.147.884.24 1.776.277 2.671 0 1.579-1.015 6.74-3.047 15.484v1.733c.115.888.576 1.333 1.382 1.333h.555c1.337 0 3.598-1.779 6.786-5.337 1.645-2.311 3.351-4.937 5.12-7.877a4.066 4.066 0 0 1 3.325-1.734c2.492.379 3.738 1.537 3.738 3.474 0 2.113-2.86 6.518-8.581 13.213-3.643 3.738-7.289 5.608-10.937 5.608-3.923 0-6.738-1.958-8.445-5.873a15.902 15.902 0 0 1-.555-3.473c0-1.489 1.015-6.517 3.047-15.083v-2.134c0-1.423-1.061-2.135-3.183-2.135-5.12 0-9.92 5.785-14.398 17.353a75.114 75.114 0 0 0-2.906 8.544 3.525 3.525 0 0 1-3.318 2.005c-1.592 0-2.79-.8-3.597-2.4a7.931 7.931 0 0 1-.136-1.468c0-5.807 1.477-17.373 4.43-34.7 1.867-8.385 3.851-14.525 5.953-18.42 2.463-4.1 5.459-6.15 8.988-6.15zm-8.168 28.963v.135h.136c5.346-9.566 8.019-16.505 8.019-20.819-.16-.621-.298-.932-.413-.932-.716.313-1.684 1.736-2.906 4.269a82.552 82.552 0 0 0-4.564 16.039l-.272 1.308z" fill="#4D4E4E"/><path d="M68.972 299.391H25.137a4.849 4.849 0 0 0-4.849 4.849v43.836a4.849 4.849 0 0 0 4.849 4.848h43.835a4.849 4.849 0 0 0 4.85-4.848V304.24a4.849 4.849 0 0 0-4.85-4.849z" fill="#C1BEAC"/><mask id="a" mask-type="alpha" maskUnits="userSpaceOnUse" x="25" y="304" width="44" height="44"><path d="M63.445 304.388h-32.78a5.379 5.379 0 0 0-5.38 5.379v32.781a5.379 5.379 0 0 0 5.38 5.379h32.78a5.38 5.38 0 0 0 5.38-5.379v-32.781a5.379 5.379 0 0 0-5.38-5.379z" fill="#E42D40"/></mask><g mask="url(#a)"><path fill="#009DDC" d="M-181.876 340.519H71.046v7.403h-252.922z"/><path fill="#963D97" d="M-181.876 333.116H71.046v7.403h-252.922z"/><path fill="#E03A3C" d="M-181.876 325.714H71.046v7.403h-252.922z"/><path fill="#F6821F" d="M-181.876 318.311H71.046v7.403h-252.922z"/><path fill="#FCB827" d="M-181.876 310.908H71.046v7.403h-252.922z"/><path fill="#62BB47" d="M-181.876 303.506H71.046v7.403h-252.922z"/><path d="m37.734 312.87 6.57-1.345v10.771s3.83-3.023 7.47-1.604c3.64 1.419 3.917 4.232 3.917 8.495v12.269H49.11v-12.683s.277-4.885-2.776-3.084c-1.789 1.055-2.03 3.973-1.919 6.2v9.537h-6.68V312.87z" fill="#fff"/></g></svg>