<svg width="538" height="450" fill="none" xmlns="http://www.w3.org/2000/svg"><g filter="url(#a)"><path d="M244.321 416.674c108.425 0 196.321-87.903 196.321-196.337C440.642 111.903 352.746 24 244.321 24S48 111.903 48 220.337c0 108.434 87.896 196.337 196.321 196.337Z" fill="#0B3D91"/><path d="M233.194 63.685a2.201 2.201 0 1 0 0-4.403 2.201 2.201 0 0 0 0 4.403ZM255.79 66.62a2.201 2.201 0 1 0 0-4.403 2.201 2.201 0 0 0 0 4.402ZM285.428 106.533a2.201 2.201 0 1 0 0-4.402 2.201 2.201 0 0 0 0 4.402ZM122.855 311.967a2.201 2.201 0 1 0 0-4.402 2.201 2.201 0 0 0 0 4.402ZM128.577 329.576a2.2 2.2 0 1 0 .001-4.4 2.2 2.2 0 0 0-.001 4.4ZM101.286 314.056a1.648 1.648 0 1 0 0-3.296 1.648 1.648 0 0 0 0 3.296ZM190.79 348.652a1.653 1.653 0 1 0 0-3.306 1.653 1.653 0 0 0 0 3.306ZM331.168 319.485a1.648 1.648 0 1 0 .001-3.297 1.648 1.648 0 0 0-.001 3.297ZM371.963 275.175a1.654 1.654 0 1 0 0-3.308 1.654 1.654 0 0 0 0 3.308ZM172.008 118.854a1.648 1.648 0 1 0 0-3.296 1.648 1.648 0 0 0 0 3.296ZM216.907 85.877a1.648 1.648 0 1 0 0-3.297 1.648 1.648 0 0 0 0 3.297ZM212.031 82.648a1.648 1.648 0 1 0 0-3.296 1.648 1.648 0 0 0 0 3.296ZM207.629 79.42a1.648 1.648 0 1 0 0-3.297 1.648 1.648 0 0 0 0 3.297ZM179.051 127.369a1.648 1.648 0 1 0 0-3.296 1.648 1.648 0 0 0 0 3.296ZM245.186 41.561a1.648 1.648 0 1 0 0-3.296 1.648 1.648 0 0 0 0 3.296ZM256.049 89.105a1.648 1.648 0 1 0 0-3.297 1.648 1.648 0 0 0 0 3.297ZM238.916 79.821a1.648 1.648 0 1 0 0-3.296 1.648 1.648 0 0 0 0 3.296ZM209.571 92.446a1.648 1.648 0 1 0 0-3.297 1.648 1.648 0 0 0 0 3.297ZM338.984 363.033a1.648 1.648 0 1 0 0-3.297 1.648 1.648 0 0 0 0 3.297ZM120.067 322.572a1.654 1.654 0 1 0-.002-3.308 1.654 1.654 0 0 0 .002 3.308ZM234.808 343.849a1.653 1.653 0 1 0 0-3.306 1.653 1.653 0 0 0 0 3.306ZM154.215 321.251a1.653 1.653 0 1 0 0-3.306 1.653 1.653 0 0 0 0 3.306ZM168.487 344.548a1.653 1.653 0 1 0 0-3.306 1.653 1.653 0 0 0 0 3.306ZM273.543 329.87a1.65 1.65 0 1 0 0-3.299 1.65 1.65 0 0 0 0 3.299ZM331.462 297.181a1.648 1.648 0 1 0 0-3.296 1.648 1.648 0 0 0 0 3.296ZM375.372 317.245a1.648 1.648 0 1 0 .001-3.297 1.648 1.648 0 0 0-.001 3.297ZM390.339 326.822a1.648 1.648 0 1 0 0-3.296 1.648 1.648 0 0 0 0 3.296ZM392.799 300.703a1.648 1.648 0 1 0 0-3.297 1.648 1.648 0 0 0 0 3.297ZM174.464 263.724a1.648 1.648 0 1 0 0-3.296 1.648 1.648 0 0 0 0 3.296ZM175.09 302.136a2.202 2.202 0 1 0-.001-4.403 2.202 2.202 0 0 0 .001 4.403ZM188.295 330.016a2.2 2.2 0 1 0 .001-4.4 2.2 2.2 0 0 0-.001 4.4ZM346.467 300.962a2.2 2.2 0 1 0 .001-4.4 2.2 2.2 0 0 0-.001 4.4ZM403.397 297.734a2.201 2.201 0 1 0 0-4.403 2.201 2.201 0 0 0 0 4.403ZM375.226 285.701a2.2 2.2 0 1 0 0-4.4 2.2 2.2 0 0 0 0 4.4ZM346.467 286.875a2.2 2.2 0 1 0 .001-4.4 2.2 2.2 0 0 0-.001 4.4ZM287.145 60.104l5.473-.523-5.463-.308a2.428 2.428 0 0 0-2.084-2.02l-.523-5.45-.313 5.494a2.416 2.416 0 0 0-1.868 2.074l-5.596.508 5.635.304a2.422 2.422 0 0 0 1.927 1.858l.508 5.615.299-5.605a2.453 2.453 0 0 0 2.005-1.947ZM194.776 121.04l5.473-.523-5.464-.308a2.422 2.422 0 0 0-2.083-2.02l-.523-5.449-.309 5.493a2.415 2.415 0 0 0-1.873 2.074l-5.595.508 5.634.303a2.424 2.424 0 0 0 1.927 1.859l.509 5.615.303-5.605a2.435 2.435 0 0 0 2.001-1.947ZM399.387 282.15l5.473-.523-5.463-.309a2.425 2.425 0 0 0-2.084-2.02l-.523-5.449-.308 5.493a2.418 2.418 0 0 0-1.869 2.074l-5.595.509 5.634.303a2.425 2.425 0 0 0 1.927 1.859l.509 5.615.303-5.605a2.442 2.442 0 0 0 1.996-1.947ZM176.288 366.388l5.473-.523-5.463-.308a2.43 2.43 0 0 0-2.084-2.021l-.523-5.444-.308 5.489a2.416 2.416 0 0 0-1.874 2.073l-5.595.509 5.635.303a2.416 2.416 0 0 0 1.927 1.859l.508 5.615.303-5.605a2.44 2.44 0 0 0 2.001-1.947ZM382 325.301l5.473-.523-5.464-.308a2.42 2.42 0 0 0-2.083-2.02l-.524-5.449-.308 5.488a2.415 2.415 0 0 0-1.868 2.074l-5.595.508 5.634.304a2.424 2.424 0 0 0 1.927 1.858l.509 5.615.303-5.605a2.43 2.43 0 0 0 1.996-1.942Z" fill="#fff"/><path d="M291.342 173.079c-22.826 8.873-45.09 16.792-63.876 22.671-38.173 11.954-142.619 44.315-205.711 85.109l5.282 2.054c38.442-21.717 63.43-28.541 87.449-36.098 26.118-8.217 110.55-27.978 148.782-38.739 12.917-3.634 28.044-8.393 44.067-14.185a393.737 393.737 0 0 0-11.797-15.618 300.471 300.471 0 0 0-4.196-5.194Zm27.888 38.441c-5.527 3.732-10.159 6.71-13.401 8.589-18.782 10.858-110.344 73.369-131.175 87.75-20.83 14.38-78.645 68.967-95.666 84.815l-.587 6.451c54.876-49.304 72.092-61.464 93.906-78.06 26.998-20.543 82.847-58.549 101.828-70.728 18.146-11.641 34.511-22.348 49.198-32.146-.24-.401-.479-.802-.719-1.208a458.34 458.34 0 0 0-3.384-5.463Zm85.781-90.607c-26.733 15.672-68.869 34.586-109.747 50.635a355.05 355.05 0 0 1 2.92 3.624 356.527 356.527 0 0 1 12.932 17.34c32.133-11.837 67.391-27.724 95.367-46.952-13.327 12.63-57.389 45.563-84.255 63.92a292.126 292.126 0 0 1 4.02 6.755c40.702-27.24 68.091-47.289 84.05-60.696 22.009-18.49 72.19-59.87 91.265-115.337-33.459 42.559-73.017 66.913-96.552 80.711Z" fill="#FC3D21"/><path d="M224.043 92 167 101.62V352h57.043v-94.725c0-27.875 14.881-45.142 27.281-45.142 11.161 0 14.385 11.1 14.385 27.875V352H323V231.867c0-37.988-14.385-62.41-51.835-62.41-17.609 0-34.721 4.934-47.122 16.034V92Z" fill="#fff"/><path d="M319.23 211.52c-5.527 3.732-10.159 6.71-13.401 8.589-18.782 10.858-110.344 73.369-131.175 87.75-20.83 14.38-78.645 68.967-95.666 84.815l-.587 6.451c54.876-49.304 72.092-61.464 93.906-78.06 26.998-20.543 82.847-58.549 101.828-70.728 18.146-11.641 34.511-22.348 49.198-32.146-.24-.401-.479-.802-.719-1.208a458.34 458.34 0 0 0-3.384-5.463ZM322.228 209.48c26.866-18.357 70.928-51.29 84.255-63.92l3.815 9.979c-15.959 13.407-43.348 33.456-84.05 60.696a292.126 292.126 0 0 0-4.02-6.755Z" fill="#FC3D21"/><path d="M219.523 268.723c-4.328-5.449-10.315-12.746-14.809-18.406a341.95 341.95 0 0 1-16.668-22.847l-4.979 1.247a347.128 347.128 0 0 0 20.429 28.561c5.439 6.848 10.383 12.36 12.917 15.789.513.694 1.531 2.23 2.905 4.275l4.798-3.258a97.71 97.71 0 0 1-4.593-5.361Zm31.596 28.683c-3.556-3.365-12.179-8.985-21.154-17.418-1.98 1.36-3.981 2.739-5.986 4.128 5.796 8.169 13.69 18.201 19.872 21.126 9.312 4.412 11.821-3.522 7.268-7.836Zm47.065-122.234c-51.316-64.594-114.002-100.08-141.029-78.603-20.992 16.679-12.374 65.426 16.56 116.633 1.497-.513 2.979-1.017 4.446-1.516-29.204-49.891-37.195-96.256-17.397-111.991 24.88-19.771 84.955 15.852 134.784 78.574 10.315 12.981 19.382 26.011 27.061 38.714 29.404 48.669 38.428 92.681 18.111 110.646-6.216 5.498-25.213 7.655-50.097-3.546-.348.436.21 1.614.645 1.903 21.481 8.638 42.057 11.93 52.445 3.678 24.964-19.839 5.786-89.897-45.529-154.492Z" fill="#fff"/></g><defs><filter id="a" x="-4" y="0" width="546" height="458" filterUnits="userSpaceOnUse" color-interpolation-filters="sRGB"><feFlood flood-opacity="0" result="BackgroundImageFix"/><feColorMatrix in="SourceAlpha" values="0 0 0 0 0 0 0 0 0 0 0 0 0 0 0 0 0 0 127 0"/><feOffset dy="4"/><feGaussianBlur stdDeviation="2"/><feColorMatrix values="0 0 0 0 0 0 0 0 0 0 0 0 0 0 0 0 0 0 0.25 0"/><feBlend in2="BackgroundImageFix" result="effect1_dropShadow"/><feBlend in="SourceGraphic" in2="effect1_dropShadow" result="shape"/></filter></defs></svg>