<?xml version="1.0" encoding="utf-8"?>
<!-- Generator: Adobe Illustrator 26.3.1, SVG Export Plug-In . SVG Version: 6.00 Build 0)  -->
<svg version="1.1" xmlns="http://www.w3.org/2000/svg" xmlns:xlink="http://www.w3.org/1999/xlink" x="0px" y="0px"
	 viewBox="0 0 95.61 105.22" style="enable-background:new 0 0 95.61 105.22;" xml:space="preserve">
<style type="text/css">
	.st0{fill:#ADD366;}
	.st1{fill:#FFFFFF;}
</style>
<g id="Layer_2">
	<path class="st0" d="M23.21,18.58c3.74-6.71,11.96-7.78,13.19-7.94c2.07-0.27,3.72-0.11,4.77,0c3.24,0.34,6.66,0.7,8.58,3.34
		c1.2,1.65,1.26,3.44,1.27,3.97c0.01,0.63-0.02,3.01-2.54,6.04c-1.48,1.77-2.73,2.47-12.07,6.99c-6.19,2.99-6.89,3.29-8.26,4.45
		c-2.04,1.73-2.91,3.12-3.97,2.86c-1.76-0.43-2.06-4.96-2.22-7.47C21.55,24.9,21.36,21.9,23.21,18.58z"/>
</g>
<g id="Layer_3">
	<path class="st1" d="M38.14,105.22h39.33c0,0,3.78-16.82,3.78-20.23c0-3.41,0.13-24.23-1.47-26.91s-1.93-16.56-15.98-19.74
		s-22.82-2.11-28.48,1.72S21.27,56.07,21.68,57.01c0.41,0.94-0.01,7.12-0.01,7.12l-4.82,6.72l3.53,8.36c0,0,9.97,4.87,11.92,4.44
		c1.96-0.43,13.49,1.98,13.49,1.98l-3.43,11.93L38.14,105.22z"/>
	<g id="Layer_4">
	</g>
</g>
<g id="Layer_1">
	<ellipse class="st1" cx="29" cy="59.74" rx="6.31" ry="5.6"/>
	<ellipse class="st1" cx="56.15" cy="61.55" rx="9.5" ry="6.31"/>
	<path d="M49.84,85.18c-2.32,0.67-2.9,1.16-3.88,5.44c-0.71,3.14-1.82,6.58-3.49,9.65c-0.85,1.56-2.05,3.04-2.13,4.96
		c-1.33,0-2.67,0-4,0c2.26-4.91,5.02-9.6,6.38-14.92c0.97-3.81,0.97-4.12-2.79-4.05c-5.15,0.09-10.13-0.58-15.13-1.95
		c-9.12-2.5-11.12-14.65-5.91-20.07c1.15-1.2,1.4-2.46,1.49-4.02c0.45-7.8,3.37-14.6,9.72-19.23c4.81-3.5,10.53-5.33,16.56-5.77
		c0.66-0.05,1.33,0.01,2-0.01c4.14-0.11,4.69-0.55,5.69-4.63c0.71-2.9,1.84-5.62,3.35-8.2c0.55-0.94,2.63-1.64,0.61-3.06
		c-2.39-1.68-4.05-1.47-5.25,0.78c-1.25,2.35-2.59,4.55-4.51,6.47c-2.17,2.17-4.63,3.67-7.5,4.64c-4.86,1.63-9.57,3.43-13.46,7.07
		c-2.54,2.38-7.07,0.67-7.14-2.68c-0.12-5.62,0.02-9.19,1.42-13.5c2.38-7.35,9.9-13.71,18.01-13.96c3.03-0.09,5.49,0.69,9.54,1.98
		c6.76,2.15,8.81,3.77,12.23,4.94c1.26,0.43,2.51,0.88,3.62,1.55c1.16,0.7,1.42,1.82,0.34,2.92c-0.46,0.48-0.95,0.93-1.47,1.35
		c-3.5,2.8-4.17,6.58-3.81,10.76c0.22,2.51,1.01,4.29,3.85,4.91c4.87,1.06,8.61,4.02,11.86,7.7c4.11,4.65,6.07,10.15,6.26,16.24
		c0.18,5.83,0.18,11.11,0.09,17.5c-0.12,9.38-0.98,18.39-4.05,27.2c-1,0-2,0-3,0c-0.42-2.09,0.8-3.84,1.29-5.72
		c1.46-5.57,2.9-11.09,2.75-16.95c-0.18-6.65,0.12-13.31-0.09-19.96c-0.18-5.85-1.81-11.34-5.36-16.11
		c-4.21-5.65-10.58-7.31-16.92-8.11c-8.48-1.07-16.73,0.32-24.34,4.77c-3.56,2.08-5.39,5.23-7,8.7c-0.37,0.81,0.09,1.26,0.87,1.31
		c1.33,0.07,2.67-0.04,3.99,0.09c3.95,0.4,5.82,2.54,5.82,6.51c-0.01,3.94-1.92,6.11-5.88,6.43c-1.81,0.14-4.42,0.5-6.05-0.31
		c-1.06-0.53-0.87-1.78-2.33-0.77c-1.17,0.81-1.67,2.06-2.17,3.26c-2.16,5.19,0.08,10.95,5.27,12.63c7.96,2.58,16.12,3.03,24.4,1.55
		c6.01-1.07,11.03-4.36,16.07-8.16c0.44-0.33,2.37,1.31,2.25,2.21c-0.26,2.02,0.1-0.43,0,0c-0.48,2.08-3.96,3.25-6,4.07
		 M26.36,35.76c3.65-3.47,8.1-5.51,12.82-6.99c0.95-0.3,1.83-0.71,2.76-1c4.4-1.36,6.51-4.84,8.08-8.73
		c1.05-2.59,0.2-4.03-2.34-5.63c-10.7-6.73-21.18,1.65-23.7,8.53c-1.89,5.15-2.86,14.67,0.35,13.81
		C25.01,36.9,25.68,36.9,26.36,35.76z M34.3,58.74c0,0.79,0.02,0.46,0,0.13c-0.04-0.73-0.43-1.25-1.04-1.59
		c-0.41-0.23-0.42-0.2-0.92,1.56c-1.18,4.2-4.61,5.27-7.83,2.44c-0.32-0.28,0-1.5-1-0.72c-0.18,0.14-0.19,0.66-0.1,0.95
		c0.76,2.52,3.15,3.67,6.43,3.14C33.05,64.13,34.43,62.67,34.3,58.74z"/>
	<path d="M55.93,67.81c-1.16,0-2.32,0.1-3.47-0.02c-3.92-0.41-5.81-2.64-5.81-6.73c-0.01-4.13,1.85-6.44,5.75-6.78
		c2.46-0.21,4.97-0.2,7.43,0c3.92,0.32,5.81,2.62,5.82,6.72c0.01,4.13-1.86,6.38-5.75,6.79C58.59,67.93,57.25,67.81,55.93,67.81z
		 M55.86,65.85c1.47-0.14,3-0.04,4.39-0.46c3.14-0.95,4.15-3.09,3.19-6.32c-0.13-0.43-0.56-0.96-0.96-1.08
		c-1.15-0.37-0.77,0.77-0.79,1.19c-0.13,2.64-1.41,4.3-3.89,4.39c-2.85,0.11-6.07,1-7.94-2.5c-0.36-0.67,0.1-1.72-0.9-2.08
		c-0.1,0.84-0.23,1.68-0.3,2.53c-0.13,1.59,0.7,2.41,1.96,3.21C52.31,65.81,54.06,65.73,55.86,65.85z"/>
	<path d="M22.25,36.51c-0.1,0.65,0.75-5.49,3.4-8.09c1.72-1.69,3.56-3.31,5.24-5.06c2.23-2.32,5.17-4.09,5.55-7.8
		c0.16-1.51,1.82-1.95,3.36-1.77c1.36,0.16,2.26,0.91,2.5,2.26c0.26,1.46-0.1,2.76-1.58,3.41C34.24,22.31,29.23,26,25.95,31.32
		c-1.43,2.32-1.6,3.3-1.55,5.2C23.68,37.7,22.96,37.7,22.25,36.51z"/>
	<circle class="st0" cx="39.39" cy="16.54" r="1.25"/>
</g>
</svg>
