<svg width="83" height="83" fill="none" xmlns="http://www.w3.org/2000/svg"><g clip-path="url(#a)"><path fill-rule="evenodd" clip-rule="evenodd" d="M36.848 9.795h9.307c.78 0 1.1-.553.708-1.228L42.211.507c-.39-.676-1.027-.676-1.417 0l-4.654 8.06c-.39.675-.074 1.228.708 1.228Zm4.654 3.707c-15.437 0-27.998 12.56-27.998 27.998 0 15.436 12.561 27.997 27.998 27.997 15.436 0 27.997-12.56 27.997-27.997 0-15.438-12.562-27.998-27.997-27.998Zm-11.824-1.787-8.06 4.654c-.676.39-1.228.07-1.23-.708V6.35c0-.778.553-1.097 1.23-.707l8.06 4.654c.675.389.675 1.028 0 1.417Zm-19.38 17.962c.39.675 1.028.675 1.417 0l4.655-8.061c.389-.675.07-1.227-.71-1.227H6.355c-.78 0-1.098.552-.708 1.227l4.652 8.061Zm-.503 7.17v9.306c0 .78-.554 1.1-1.228.708l-8.06-4.654c-.676-.389-.676-1.026 0-1.416l8.06-4.654c.674-.389 1.228-.07 1.228.71Zm1.92 16.475c-.39-.675-1.026-.675-1.417 0l-4.653 8.062c-.39.674-.071 1.227.708 1.227h9.309c.779 0 1.099-.553.709-1.227l-4.656-8.062Zm9.901 13.308 8.061 4.654c.677.39.677 1.027 0 1.42l-8.06 4.653c-.675.39-1.229.07-1.229-.71V67.34c0-.779.553-1.098 1.228-.709Zm24.537 6.576h-9.307c-.78 0-1.099.552-.709 1.227l4.654 8.06c.39.677 1.026.677 1.417 0l4.652-8.06c.393-.675.074-1.227-.707-1.227Zm7.169-1.92 8.062-4.655c.676-.39 1.227-.07 1.228.707v9.31c0 .778-.552 1.098-1.228.708l-8.062-4.654c-.674-.39-.674-1.028 0-1.417Zm19.38-17.963c-.39-.675-1.028-.675-1.416 0l-4.656 8.06c-.388.677-.069 1.229.71 1.229h9.308c.78 0 1.1-.552.71-1.228l-4.656-8.061Zm1.73-17.184 8.063 4.653c.675.39.675 1.027 0 1.417l-8.062 4.654c-.675.39-1.227.07-1.227-.709v-9.308c0-.779.552-1.098 1.227-.707Zm-3.146-6.462c.39.677 1.027.677 1.417 0l4.653-8.06c.392-.675.07-1.229-.707-1.229h-9.31c-.779 0-1.098.553-.709 1.228l4.656 8.061ZM61.384 16.37l-8.06-4.654c-.675-.39-.675-1.028 0-1.418l8.06-4.653c.677-.39 1.229-.071 1.229.708v9.308c0 .779-.552 1.098-1.23.709Z" fill="url(#b)"/><g filter="url(#c)"><path d="M39.227 23.298a.25.25 0 0 0-.293-.246l-7.727 1.362a.25.25 0 0 0-.207.246v34.09c0 .138.112.25.25.25h7.727a.25.25 0 0 0 .25-.25V46.385c0-4.06 2.147-6.576 3.935-6.576 1.61 0 2.075 1.617 2.075 4.06V58.75c0 .138.112.25.25.25h7.763a.25.25 0 0 0 .25-.25V42.684c0-5.534-2.075-9.091-7.476-9.091-2.342 0-4.622.61-6.366 1.973-.17.134-.43.016-.43-.2V23.297Z" fill="#fff"/></g></g><defs><radialGradient id="b" cx="0" cy="0" r="1" gradientUnits="userSpaceOnUse" gradientTransform="matrix(0 59.9954 -53.1474 0 41.997 13.499)"><stop offset=".354" stop-color="#F1C40F"/><stop offset="1" stop-color="#FF8C37"/></radialGradient><clipPath id="a"><path fill="#fff" d="M0 0h83v83H0z"/></clipPath><filter id="c" x="29" y="21.048" width="26.5" height="39.952" filterUnits="userSpaceOnUse" color-interpolation-filters="sRGB"><feFlood flood-opacity="0" result="BackgroundImageFix"/><feColorMatrix in="SourceAlpha" values="0 0 0 0 0 0 0 0 0 0 0 0 0 0 0 0 0 0 127 0"/><feOffset/><feGaussianBlur stdDeviation="1"/><feColorMatrix values="0 0 0 0 0 0 0 0 0 0 0 0 0 0 0 0 0 0 0.05 0"/><feBlend in2="BackgroundImageFix" result="effect1_dropShadow"/><feBlend in="SourceGraphic" in2="effect1_dropShadow" result="shape"/></filter></defs></svg>