<svg width="256" height="256" fill="none" xmlns="http://www.w3.org/2000/svg"><g clip-path="url(#a)"><mask id="b" mask-type="alpha" maskUnits="userSpaceOnUse" x="0" y="0" width="256" height="256"><path fill-rule="evenodd" clip-rule="evenodd" d="M128 256c102.4 0 128-25.6 128-128S230.4 0 128 0 0 25.6 0 128s25.6 128 128 128Z" fill="#000"/></mask><g mask="url(#b)"><path fill-rule="evenodd" clip-rule="evenodd" d="M128 256c102.4 0 128-25.6 128-128S230.4 0 128 0 0 25.6 0 128s25.6 128 128 128Z" fill="#010101"/><path d="M120.738 53 86 58.92V213h34.738v-58.292c0-17.154 9.062-27.78 16.613-27.78 6.797 0 8.76 6.831 8.76 17.154V213H181v-73.928c0-23.377-8.76-38.406-31.566-38.406-10.723 0-21.145 3.036-28.696 9.867V53Z" fill="#EC3750"/><path d="M110.738 43 76 48.92V203h34.738v-58.292c0-17.154 9.062-27.78 16.613-27.78 6.797 0 8.76 6.831 8.76 17.154V203H171v-73.928c0-23.377-8.76-38.406-31.566-38.406-10.723 0-21.145 3.036-28.696 9.867V43Z" fill="#70F4FD"/><path d="M115.738 48 81 53.92V208h34.738v-58.292c0-17.154 9.062-27.78 16.613-27.78 6.797 0 8.76 6.831 8.76 17.154V208H176v-73.928c0-23.377-8.76-38.406-31.566-38.406-10.723 0-21.145 3.036-28.696 9.867V48Z" fill="#fff" fill-opacity=".97"/></g></g><defs><clipPath id="a"><path fill="#fff" transform="rotate(90 128 128)" d="M0 0h256v256H0z"/></clipPath></defs></svg>