<svg width="672" height="500" viewBox="0 0 672 500" fill="none" xmlns="http://www.w3.org/2000/svg">
<circle cx="336" cy="250" r="209" stroke="#DA241A" stroke-width="82"/>
<rect y="203" width="671" height="93" fill="#012169"/>
<path d="M195.012 271H188.292V249.304H163.972V271H157.316V225.24H163.972V243.096H188.292V225.24H195.012V271ZM240.765 271H233.917L230.013 260.056H211.901L207.869 271H201.085L217.853 225.24H224.061L240.765 271ZM227.709 253.656L220.989 235.096L214.269 253.656H227.709ZM283.761 267.48C281.073 269.144 278.471 270.317 275.953 271C273.436 271.683 270.513 272.024 267.185 272.024C260.359 272.024 254.535 269.699 249.713 265.048C244.935 260.397 242.545 254.787 242.545 248.216C242.545 241.688 244.935 236.099 249.713 231.448C254.492 226.797 260.316 224.472 267.185 224.472C270.343 224.472 273.351 224.92 276.209 225.816C278.471 226.541 280.988 227.651 283.761 229.144V236.504C280.86 234.456 278.535 233.091 276.785 232.408C274.225 231.427 271.025 230.936 267.185 230.936C262.151 230.936 257.863 232.621 254.321 235.992C250.78 239.363 249.009 243.437 249.009 248.216C249.009 252.995 250.78 257.091 254.321 260.504C257.905 263.875 262.193 265.56 267.185 265.56C271.793 265.56 275.377 264.856 277.937 263.448C278.791 262.979 280.732 261.613 283.761 259.352V267.48ZM327.624 271H318.152L297.16 250.008V271H290.504V225.24H297.16V240.6L315.528 225.24H325.96L301.96 245.336L327.624 271ZM392.574 267.48C389.886 269.144 387.283 270.317 384.766 271C382.248 271.683 379.326 272.024 375.998 272.024C369.171 272.024 363.347 269.699 358.526 265.048C353.747 260.397 351.358 254.787 351.358 248.216C351.358 241.688 353.747 236.099 358.526 231.448C363.304 226.797 369.128 224.472 375.998 224.472C379.155 224.472 382.163 224.92 385.022 225.816C387.283 226.541 389.8 227.651 392.574 229.144V236.504C389.672 234.456 387.347 233.091 385.598 232.408C383.038 231.427 379.838 230.936 375.998 230.936C370.963 230.936 366.675 232.621 363.134 235.992C359.592 239.363 357.822 243.437 357.822 248.216C357.822 252.995 359.592 257.091 363.134 260.504C366.718 263.875 371.006 265.56 375.998 265.56C380.606 265.56 384.19 264.856 386.75 263.448C387.603 262.979 389.544 261.613 392.574 259.352V267.48ZM427.156 271H398.676V225.24H405.268V264.344H427.156V271ZM473.709 253.272C473.709 258.819 471.832 263.341 468.077 266.84C464.365 270.296 459.587 272.024 453.741 272.024C447.939 272.024 443.16 270.296 439.405 266.84C435.651 263.384 433.773 258.883 433.773 253.336V225.24H440.429V253.208C440.429 256.963 441.645 259.992 444.077 262.296C446.552 264.557 449.773 265.688 453.741 265.688C457.667 265.688 460.867 264.557 463.341 262.296C465.816 260.035 467.053 257.048 467.053 253.336V225.24H473.709V253.272ZM515.266 256.92C515.266 260.803 513.879 264.131 511.106 266.904C508.375 269.635 505.068 271 501.186 271H482.754V225.24H496.962C500.247 225.24 503.127 226.413 505.602 228.76C508.076 231.107 509.314 233.923 509.314 237.208C509.314 238.531 508.994 239.853 508.354 241.176C507.756 242.456 506.988 243.373 506.05 243.928C508.78 244.909 510.999 246.595 512.706 248.984C514.412 251.331 515.266 253.976 515.266 256.92ZM502.978 237.144C502.978 235.565 502.38 234.221 501.186 233.112C499.991 232.003 498.562 231.448 496.898 231.448H489.41V242.904H496.898C498.519 242.904 499.927 242.349 501.122 241.24C502.359 240.088 502.978 238.723 502.978 237.144ZM509.058 256.92C509.058 254.787 508.29 252.973 506.754 251.48C505.26 249.944 503.426 249.176 501.25 249.176H489.41V264.728H501.25C503.426 264.728 505.26 263.981 506.754 262.488C508.29 260.952 509.058 259.096 509.058 256.92Z" fill="white"/>
<path d="M195.012 271V271.5H195.512V271H195.012ZM188.292 271H187.792V271.5H188.292V271ZM188.292 249.304H188.792V248.804H188.292V249.304ZM163.972 249.304V248.804H163.472V249.304H163.972ZM163.972 271V271.5H164.472V271H163.972ZM157.316 271H156.816V271.5H157.316V271ZM157.316 225.24V224.74H156.816V225.24H157.316ZM163.972 225.24H164.472V224.74H163.972V225.24ZM163.972 243.096H163.472V243.596H163.972V243.096ZM188.292 243.096V243.596H188.792V243.096H188.292ZM188.292 225.24V224.74H187.792V225.24H188.292ZM195.012 225.24H195.512V224.74H195.012V225.24ZM195.012 270.5H188.292V271.5H195.012V270.5ZM188.792 271V249.304H187.792V271H188.792ZM188.292 248.804H163.972V249.804H188.292V248.804ZM163.472 249.304V271H164.472V249.304H163.472ZM163.972 270.5H157.316V271.5H163.972V270.5ZM157.816 271V225.24H156.816V271H157.816ZM157.316 225.74H163.972V224.74H157.316V225.74ZM163.472 225.24V243.096H164.472V225.24H163.472ZM163.972 243.596H188.292V242.596H163.972V243.596ZM188.792 243.096V225.24H187.792V243.096H188.792ZM188.292 225.74H195.012V224.74H188.292V225.74ZM194.512 225.24V271H195.512V225.24H194.512ZM240.765 271V271.5H241.48L241.235 270.829L240.765 271ZM233.917 271L233.446 271.168L233.565 271.5H233.917V271ZM230.013 260.056L230.484 259.888L230.366 259.556H230.013V260.056ZM211.901 260.056V259.556H211.553L211.432 259.883L211.901 260.056ZM207.869 271V271.5H208.218L208.338 271.173L207.869 271ZM201.085 271L200.616 270.828L200.37 271.5H201.085V271ZM217.853 225.24V224.74H217.504L217.384 225.068L217.853 225.24ZM224.061 225.24L224.531 225.069L224.411 224.74H224.061V225.24ZM227.709 253.656V254.156H228.422L228.179 253.486L227.709 253.656ZM220.989 235.096L221.459 234.926L220.989 233.627L220.519 234.926L220.989 235.096ZM214.269 253.656L213.799 253.486L213.556 254.156H214.269V253.656ZM240.765 270.5H233.917V271.5H240.765V270.5ZM234.388 270.832L230.484 259.888L229.542 260.224L233.446 271.168L234.388 270.832ZM230.013 259.556H211.901V260.556H230.013V259.556ZM211.432 259.883L207.4 270.827L208.338 271.173L212.37 260.229L211.432 259.883ZM207.869 270.5H201.085V271.5H207.869V270.5ZM201.555 271.172L218.323 225.412L217.384 225.068L200.616 270.828L201.555 271.172ZM217.853 225.74H224.061V224.74H217.853V225.74ZM223.592 225.411L240.296 271.171L241.235 270.829L224.531 225.069L223.592 225.411ZM228.179 253.486L221.459 234.926L220.519 235.266L227.239 253.826L228.179 253.486ZM220.519 234.926L213.799 253.486L214.739 253.826L221.459 235.266L220.519 234.926ZM214.269 254.156H227.709V253.156H214.269V254.156ZM283.761 267.48L284.024 267.905L284.261 267.759V267.48H283.761ZM249.713 265.048L249.365 265.406L249.366 265.408L249.713 265.048ZM249.713 231.448L249.365 231.09L249.365 231.09L249.713 231.448ZM276.209 225.816L276.362 225.34L276.359 225.339L276.209 225.816ZM283.761 229.144H284.261V228.845L283.998 228.704L283.761 229.144ZM283.761 236.504L283.473 236.912L284.261 237.469V236.504H283.761ZM276.785 232.408L276.967 231.942L276.964 231.941L276.785 232.408ZM254.321 235.992L253.977 235.63L253.977 235.63L254.321 235.992ZM254.321 260.504L253.974 260.864L253.979 260.868L254.321 260.504ZM277.937 263.448L278.178 263.886L278.178 263.886L277.937 263.448ZM283.761 259.352H284.261V258.355L283.462 258.951L283.761 259.352ZM283.498 267.055C280.843 268.699 278.284 269.85 275.822 270.517L276.084 271.483C278.657 270.785 281.304 269.589 284.024 267.905L283.498 267.055ZM275.822 270.517C273.358 271.186 270.481 271.524 267.185 271.524V272.524C270.546 272.524 273.514 272.179 276.084 271.483L275.822 270.517ZM267.185 271.524C260.485 271.524 254.787 269.247 250.06 264.688L249.366 265.408C254.283 270.15 260.232 272.524 267.185 272.524V271.524ZM250.062 264.69C245.378 260.132 243.045 254.649 243.045 248.216H242.045C242.045 254.924 244.491 260.663 249.365 265.406L250.062 264.69ZM243.045 248.216C243.045 241.826 245.378 236.365 250.062 231.806L249.365 231.09C244.491 235.832 242.045 241.55 242.045 248.216H243.045ZM250.062 231.806C254.744 227.25 260.442 224.972 267.185 224.972V223.972C260.19 223.972 254.24 226.345 249.365 231.09L250.062 231.806ZM267.185 224.972C270.295 224.972 273.252 225.413 276.06 226.293L276.359 225.339C273.449 224.427 270.391 223.972 267.185 223.972V224.972ZM276.057 226.292C278.281 227.006 280.77 228.101 283.524 229.584L283.998 228.704C281.206 227.2 278.66 226.077 276.362 225.34L276.057 226.292ZM283.261 229.144V236.504H284.261V229.144H283.261ZM284.05 236.096C281.139 234.041 278.774 232.647 276.967 231.942L276.603 232.874C278.295 233.534 280.581 234.871 283.473 236.912L284.05 236.096ZM276.964 231.941C274.329 230.931 271.064 230.436 267.185 230.436V231.436C270.987 231.436 274.121 231.922 276.606 232.875L276.964 231.941ZM267.185 230.436C262.026 230.436 257.614 232.168 253.977 235.63L254.666 236.354C258.111 233.075 262.275 231.436 267.185 231.436V230.436ZM253.977 235.63C250.339 239.092 248.509 243.297 248.509 248.216H249.509C249.509 243.578 251.221 239.633 254.666 236.354L253.977 235.63ZM248.509 248.216C248.509 253.135 250.338 257.36 253.974 260.864L254.668 260.144C251.221 256.822 249.509 252.854 249.509 248.216H248.509ZM253.979 260.868C257.657 264.328 262.068 266.06 267.185 266.06V265.06C262.318 265.06 258.154 263.422 254.664 260.14L253.979 260.868ZM267.185 266.06C271.834 266.06 275.514 265.352 278.178 263.886L277.696 263.01C275.241 264.36 271.753 265.06 267.185 265.06V266.06ZM278.178 263.886C279.069 263.396 281.041 262.007 284.06 259.753L283.462 258.951C280.423 261.22 278.513 262.561 277.696 263.01L278.178 263.886ZM283.261 259.352V267.48H284.261V259.352H283.261ZM327.624 271V271.5H328.831L327.977 270.646L327.624 271ZM318.152 271L317.798 271.354L317.945 271.5H318.152V271ZM297.16 250.008L297.513 249.654L296.66 248.801V250.008H297.16ZM297.16 271V271.5H297.66V271H297.16ZM290.504 271H290.004V271.5H290.504V271ZM290.504 225.24V224.74H290.004V225.24H290.504ZM297.16 225.24H297.66V224.74H297.16V225.24ZM297.16 240.6H296.66V241.67L297.48 240.984L297.16 240.6ZM315.528 225.24V224.74H315.346L315.207 224.856L315.528 225.24ZM325.96 225.24L326.281 225.623L327.336 224.74H325.96V225.24ZM301.96 245.336L301.639 244.953L301.22 245.303L301.606 245.69L301.96 245.336ZM327.624 270.5H318.152V271.5H327.624V270.5ZM318.505 270.646L297.513 249.654L296.806 250.362L317.798 271.354L318.505 270.646ZM296.66 250.008V271H297.66V250.008H296.66ZM297.16 270.5H290.504V271.5H297.16V270.5ZM291.004 271V225.24H290.004V271H291.004ZM290.504 225.74H297.16V224.74H290.504V225.74ZM296.66 225.24V240.6H297.66V225.24H296.66ZM297.48 240.984L315.849 225.624L315.207 224.856L296.839 240.216L297.48 240.984ZM315.528 225.74H325.96V224.74H315.528V225.74ZM325.639 224.857L301.639 244.953L302.281 245.719L326.281 225.623L325.639 224.857ZM301.606 245.69L327.27 271.354L327.977 270.646L302.313 244.982L301.606 245.69ZM392.574 267.48L392.837 267.905L393.074 267.759V267.48H392.574ZM358.526 265.048L358.177 265.406L358.179 265.408L358.526 265.048ZM358.526 231.448L358.177 231.09L358.177 231.09L358.526 231.448ZM385.022 225.816L385.174 225.34L385.171 225.339L385.022 225.816ZM392.574 229.144H393.074V228.845L392.811 228.704L392.574 229.144ZM392.574 236.504L392.285 236.912L393.074 237.469V236.504H392.574ZM385.598 232.408L385.78 231.942L385.777 231.941L385.598 232.408ZM363.134 235.992L362.789 235.63L362.789 235.63L363.134 235.992ZM363.134 260.504L362.787 260.864L362.791 260.868L363.134 260.504ZM386.75 263.448L386.991 263.886L386.991 263.886L386.75 263.448ZM392.574 259.352H393.074V258.355L392.275 258.951L392.574 259.352ZM392.311 267.055C389.655 268.699 387.097 269.85 384.635 270.517L384.897 271.483C387.469 270.785 390.116 269.589 392.837 267.905L392.311 267.055ZM384.635 270.517C382.17 271.186 379.293 271.524 375.998 271.524V272.524C379.358 272.524 382.327 272.179 384.897 271.483L384.635 270.517ZM375.998 271.524C369.298 271.524 363.599 269.247 358.873 264.688L358.179 265.408C363.095 270.15 369.044 272.524 375.998 272.524V271.524ZM358.874 264.69C354.191 260.132 351.858 254.649 351.858 248.216H350.858C350.858 254.924 353.303 260.663 358.177 265.406L358.874 264.69ZM351.858 248.216C351.858 241.826 354.19 236.365 358.874 231.806L358.177 231.09C353.304 235.832 350.858 241.55 350.858 248.216H351.858ZM358.874 231.806C363.557 227.25 369.254 224.972 375.998 224.972V223.972C369.003 223.972 363.052 226.345 358.177 231.09L358.874 231.806ZM375.998 224.972C379.107 224.972 382.064 225.413 384.872 226.293L385.171 225.339C382.262 224.427 379.203 223.972 375.998 223.972V224.972ZM384.869 226.292C387.094 227.006 389.582 228.101 392.337 229.584L392.811 228.704C390.019 227.2 387.473 226.077 385.174 225.34L384.869 226.292ZM392.074 229.144V236.504H393.074V229.144H392.074ZM392.862 236.096C389.951 234.041 387.586 232.647 385.78 231.942L385.416 232.874C387.108 233.534 389.393 234.871 392.285 236.912L392.862 236.096ZM385.777 231.941C383.142 230.931 379.876 230.436 375.998 230.436V231.436C379.799 231.436 382.934 231.922 385.419 232.875L385.777 231.941ZM375.998 230.436C370.839 230.436 366.426 232.168 362.789 235.63L363.478 236.354C366.924 233.075 371.087 231.436 375.998 231.436V230.436ZM362.789 235.63C359.151 239.092 357.322 243.297 357.322 248.216H358.322C358.322 243.578 360.034 239.633 363.478 236.354L362.789 235.63ZM357.322 248.216C357.322 253.135 359.151 257.36 362.787 260.864L363.481 260.144C360.034 256.822 358.322 252.854 358.322 248.216H357.322ZM362.791 260.868C366.469 264.328 370.881 266.06 375.998 266.06V265.06C371.131 265.06 366.966 263.422 363.476 260.14L362.791 260.868ZM375.998 266.06C380.646 266.06 384.326 265.352 386.991 263.886L386.509 263.01C384.053 264.36 380.565 265.06 375.998 265.06V266.06ZM386.991 263.886C387.881 263.396 389.853 262.007 392.873 259.753L392.275 258.951C389.235 261.22 387.325 262.561 386.509 263.01L386.991 263.886ZM392.074 259.352V267.48H393.074V259.352H392.074ZM427.156 271V271.5H427.656V271H427.156ZM398.676 271H398.176V271.5H398.676V271ZM398.676 225.24V224.74H398.176V225.24H398.676ZM405.268 225.24H405.768V224.74H405.268V225.24ZM405.268 264.344H404.768V264.844H405.268V264.344ZM427.156 264.344H427.656V263.844H427.156V264.344ZM427.156 270.5H398.676V271.5H427.156V270.5ZM399.176 271V225.24H398.176V271H399.176ZM398.676 225.74H405.268V224.74H398.676V225.74ZM404.768 225.24V264.344H405.768V225.24H404.768ZM405.268 264.844H427.156V263.844H405.268V264.844ZM426.656 264.344V271H427.656V264.344H426.656ZM468.077 266.84L468.418 267.206L468.418 267.206L468.077 266.84ZM439.405 266.84L439.744 266.472L439.744 266.472L439.405 266.84ZM433.773 225.24V224.74H433.273V225.24H433.773ZM440.429 225.24H440.929V224.74H440.429V225.24ZM444.077 262.296L443.733 262.659L443.74 262.665L444.077 262.296ZM463.341 262.296L463.004 261.927L463.004 261.927L463.341 262.296ZM467.053 225.24V224.74H466.553V225.24H467.053ZM473.709 225.24H474.209V224.74H473.709V225.24ZM473.209 253.272C473.209 258.692 471.381 263.078 467.736 266.474L468.418 267.206C472.283 263.604 474.209 258.945 474.209 253.272H473.209ZM467.737 266.474C464.131 269.831 459.481 271.524 453.741 271.524V272.524C459.692 272.524 464.599 270.761 468.418 267.206L467.737 266.474ZM453.741 271.524C448.046 271.524 443.393 269.831 439.744 266.472L439.067 267.208C442.926 270.761 447.832 272.524 453.741 272.524V271.524ZM439.744 266.472C436.102 263.12 434.273 258.756 434.273 253.336H433.273C433.273 259.009 435.2 263.648 439.067 267.208L439.744 266.472ZM434.273 253.336V225.24H433.273V253.336H434.273ZM433.773 225.74H440.429V224.74H433.773V225.74ZM439.929 225.24V253.208H440.929V225.24H439.929ZM439.929 253.208C439.929 257.082 441.189 260.249 443.733 262.659L444.421 261.933C442.101 259.735 440.929 256.844 440.929 253.208H439.929ZM443.74 262.665C446.323 265.026 449.673 266.188 453.741 266.188V265.188C449.874 265.188 446.781 264.089 444.415 261.927L443.74 262.665ZM453.741 266.188C457.769 266.188 461.096 265.025 463.679 262.665L463.004 261.927C460.637 264.09 457.564 265.188 453.741 265.188V266.188ZM463.679 262.665C466.269 260.298 467.553 257.172 467.553 253.336H466.553C466.553 256.924 465.363 259.771 463.004 261.927L463.679 262.665ZM467.553 253.336V225.24H466.553V253.336H467.553ZM467.053 225.74H473.709V224.74H467.053V225.74ZM473.209 225.24V253.272H474.209V225.24H473.209ZM511.106 266.904L510.752 266.55L510.752 266.55L511.106 266.904ZM482.754 271H482.254V271.5H482.754V271ZM482.754 225.24V224.74H482.254V225.24H482.754ZM508.354 241.176L507.904 240.958L507.901 240.965L508.354 241.176ZM506.05 243.928L505.795 243.498L504.879 244.039L505.881 244.399L506.05 243.928ZM512.706 248.984L512.299 249.275L512.301 249.278L512.706 248.984ZM501.186 233.112L500.846 233.478L500.846 233.478L501.186 233.112ZM489.41 231.448V230.948H488.91V231.448H489.41ZM489.41 242.904H488.91V243.404H489.41V242.904ZM501.122 241.24L501.462 241.606L501.462 241.606L501.122 241.24ZM506.754 251.48L506.395 251.829L506.405 251.838L506.754 251.48ZM489.41 249.176V248.676H488.91V249.176H489.41ZM489.41 264.728H488.91V265.228H489.41V264.728ZM506.754 262.488L507.107 262.842L507.107 262.842L506.754 262.488ZM514.766 256.92C514.766 260.669 513.433 263.87 510.752 266.55L511.459 267.258C514.325 264.392 515.766 260.937 515.766 256.92H514.766ZM510.752 266.55C508.116 269.187 504.937 270.5 501.186 270.5V271.5C505.2 271.5 508.634 270.083 511.459 267.258L510.752 266.55ZM501.186 270.5H482.754V271.5H501.186V270.5ZM483.254 271V225.24H482.254V271H483.254ZM482.754 225.74H496.962V224.74H482.754V225.74ZM496.962 225.74C500.114 225.74 502.872 226.861 505.258 229.123L505.946 228.397C503.382 225.966 500.38 224.74 496.962 224.74V225.74ZM505.258 229.123C507.637 231.379 508.814 234.066 508.814 237.208H509.814C509.814 233.78 508.516 230.834 505.946 228.397L505.258 229.123ZM508.814 237.208C508.814 238.447 508.514 239.696 507.904 240.958L508.804 241.394C509.473 240.011 509.814 238.614 509.814 237.208H508.814ZM507.901 240.965C507.333 242.18 506.625 243.007 505.795 243.498L506.304 244.358C507.352 243.739 508.179 242.732 508.807 241.387L507.901 240.965ZM505.881 244.399C508.514 245.345 510.651 246.967 512.299 249.275L513.113 248.693C511.348 246.222 509.046 244.474 506.219 243.457L505.881 244.399ZM512.301 249.278C513.945 251.538 514.766 254.08 514.766 256.92H515.766C515.766 253.872 514.88 251.123 513.11 248.69L512.301 249.278ZM503.478 237.144C503.478 235.421 502.819 233.946 501.526 232.746L500.846 233.478C501.942 234.497 502.478 235.709 502.478 237.144H503.478ZM501.526 232.746C500.237 231.548 498.685 230.948 496.898 230.948V231.948C498.438 231.948 499.745 232.457 500.846 233.478L501.526 232.746ZM496.898 230.948H489.41V231.948H496.898V230.948ZM488.91 231.448V242.904H489.91V231.448H488.91ZM489.41 243.404H496.898V242.404H489.41V243.404ZM496.898 243.404C498.646 243.404 500.175 242.801 501.462 241.606L500.782 240.874C499.679 241.898 498.392 242.404 496.898 242.404V243.404ZM501.462 241.606C502.793 240.367 503.478 238.872 503.478 237.144H502.478C502.478 238.573 501.925 239.809 500.781 240.874L501.462 241.606ZM509.558 256.92C509.558 254.651 508.735 252.709 507.102 251.122L506.405 251.838C507.845 253.238 508.558 254.922 508.558 256.92H509.558ZM507.112 251.131C505.523 249.497 503.558 248.676 501.25 248.676V249.676C503.293 249.676 504.998 250.391 506.395 251.829L507.112 251.131ZM501.25 248.676H489.41V249.676H501.25V248.676ZM488.91 249.176V264.728H489.91V249.176H488.91ZM489.41 265.228H501.25V264.228H489.41V265.228ZM501.25 265.228C503.554 265.228 505.517 264.432 507.107 262.842L506.4 262.134C505.004 263.531 503.298 264.228 501.25 264.228V265.228ZM507.107 262.842C508.737 261.212 509.558 259.228 509.558 256.92H508.558C508.558 258.964 507.842 260.692 506.4 262.134L507.107 262.842Z" fill="white"/>
</svg>
