<svg width="142" height="240" viewBox="0 0 142 240" fill="none" xmlns="http://www.w3.org/2000/svg">
<rect width="142" height="240" rx="6" fill="#0F1923"/>
<path d="M15 78.3491L52 38.3491V206.349H15V78.3491Z" fill="#EAEAE2" fill-opacity="0.15"/>
<path d="M127 153.206L90 113.349V206.349H127V153.206Z" fill="#EAEAE2" fill-opacity="0.15"/>
<path fill-rule="evenodd" clip-rule="evenodd" d="M87.96 25.3811C85.144 26.5331 82.6906 28.1544 80.6 30.2451C78.552 32.3358 76.9093 34.7891 75.672 37.6051C74.4773 40.4211 73.88 43.4718 73.88 46.7571C73.88 50.0424 74.456 53.1144 75.608 55.9731C76.76 58.8318 78.36 61.3278 80.408 63.4611C82.456 65.5518 84.8666 67.2158 87.64 68.4531C90.456 69.6478 93.464 70.2451 96.664 70.2451C100.205 70.2878 103.469 69.6264 106.456 68.2611C109.443 66.8531 112.024 64.9331 114.2 62.5011C114.328 62.3304 114.371 62.1384 114.328 61.9251C114.328 61.7118 114.243 61.5411 114.072 61.4131L109.016 57.1251C108.845 56.9544 108.653 56.8904 108.44 56.9331C108.227 56.9331 108.056 57.0184 107.928 57.1891C106.563 58.8104 104.941 60.0904 103.064 61.0291C101.187 61.9678 99.1813 62.4584 97.048 62.5011C95 62.5011 93.08 62.1171 91.288 61.3491C89.496 60.5384 87.9173 59.4291 86.552 58.0211C85.1866 56.6131 84.0986 54.9704 83.288 53.0931C82.4773 51.2158 82.072 49.2104 82.072 47.0771C82.072 44.9438 82.456 42.9384 83.224 41.0611C83.992 39.1838 85.0373 37.5411 86.36 36.1331C87.6826 34.6824 89.24 33.5518 91.032 32.7411C92.824 31.8878 94.7226 31.4398 96.728 31.3971C98.9466 31.3544 101.016 31.8238 102.936 32.8051C104.856 33.7438 106.52 35.0238 107.928 36.6451C108.056 36.8158 108.227 36.9224 108.44 36.9651C108.653 36.9651 108.845 36.9011 109.016 36.7731L114.072 32.4851C114.243 32.3571 114.328 32.1864 114.328 31.9731C114.371 31.7598 114.328 31.5678 114.2 31.3971C112.067 29.0078 109.528 27.1304 106.584 25.7651C103.683 24.3998 100.504 23.6958 97.048 23.6531C93.8053 23.6104 90.776 24.1864 87.96 25.3811ZM112.543 31.8148L108.604 35.1556C107.167 33.6232 105.499 32.3904 103.607 31.4634C101.464 30.3703 99.1529 29.8502 96.6991 29.8974L96.6961 29.8974C94.4857 29.9445 92.3823 30.439 90.4004 31.3805C88.4318 32.2731 86.7146 33.52 85.2591 35.1142C83.8083 36.6606 82.6681 38.4582 81.8357 40.4931C80.9901 42.56 80.572 44.7592 80.572 47.0771C80.572 49.4059 81.0156 51.6145 81.9109 53.6877C82.7905 55.7247 83.978 57.5213 85.4751 59.0653C86.9721 60.609 88.7065 61.8276 90.6697 62.7158L90.6833 62.7219L90.6971 62.7278C92.6852 63.5798 94.8073 64.0011 97.048 64.0011H97.063L97.078 64.0008C99.4302 63.9537 101.655 63.4107 103.735 62.3707C105.573 61.4517 107.189 60.2326 108.578 58.7206L112.543 62.0831C110.621 64.0877 108.385 65.6923 105.824 66.9006C103.057 68.1643 100.017 68.7854 96.682 68.7452L96.673 68.7451H96.664C93.6606 68.7451 90.857 68.1864 88.2384 67.0775C85.6385 65.9158 83.3916 64.362 81.4848 62.4168C79.5775 60.4287 78.0817 58.0986 76.9993 55.4124C75.9237 52.7435 75.38 49.8631 75.38 46.7571C75.38 43.6614 75.9412 40.8146 77.0491 38.1997C78.2158 35.5471 79.7558 33.2518 81.6661 31.3003C83.6106 29.3572 85.8933 27.8472 88.5279 26.7694L88.5369 26.7657L88.5458 26.762C91.159 25.6533 93.9808 25.1129 97.0282 25.153L97.0295 25.153C100.288 25.1932 103.253 25.8553 105.945 27.1223L105.953 27.1259C108.47 28.2931 110.663 29.8549 112.543 31.8148ZM58.2945 42.9171V41.4171V25.3171C58.2945 25.1038 58.3585 24.9331 58.4865 24.8051C58.6571 24.6344 58.8491 24.5491 59.0625 24.5491H65.7185C65.9318 24.5491 66.1025 24.6344 66.2305 24.8051C66.4011 24.9331 66.4865 25.1038 66.4865 25.3171V68.5811C66.4865 68.7944 66.4011 68.9864 66.2305 69.1571C66.1025 69.2851 65.9318 69.3491 65.7185 69.3491H59.0625C58.8491 69.3491 58.6571 69.2851 58.4865 69.1571C58.3585 68.9864 58.2945 68.7944 58.2945 68.5811V52.5451V51.0451H56.7945H41.4265H39.9265V52.5451V68.5811C39.9265 69.0931 39.6491 69.3491 39.0945 69.3491H32.5025C32.2891 69.3491 32.0971 69.2851 31.9265 69.1571C31.7985 68.9864 31.7345 68.7944 31.7345 68.5811V25.3171C31.7345 25.1038 31.7985 24.9331 31.9265 24.8051C32.0971 24.6344 32.2891 24.5491 32.5025 24.5491H39.0945C39.6491 24.5491 39.9265 24.8051 39.9265 25.3171V41.4171V42.9171H41.4265H56.7945H58.2945ZM64.9865 67.8491H59.7945V51.0451V49.5451H58.2945H39.9265H38.4265V51.0451V67.8491H33.2345V26.0491H38.4265V42.9171V44.4171H39.9265H58.2945H59.7945V42.9171V26.0491H64.9865V67.8491ZM39.1091 26.0495L39.1045 26.0492C39.1076 26.0493 39.1091 26.0495 39.1091 26.0495ZM25.7792 118.349H25.7773H25.7439H25.696H25.024C24.8106 118.349 24.64 118.264 24.512 118.093C24.384 117.88 24.4053 117.666 24.576 117.453L25.024 116.869L25.0392 116.849L25.0393 116.849L57.472 74.5731C58.0266 73.8904 58.7306 73.5491 59.584 73.5491H65.664C66.176 73.5491 66.432 73.8051 66.432 74.3171V117.581C66.432 118.093 66.176 118.349 65.664 118.349H59.584C58.7306 118.349 58.0266 118.008 57.472 117.325L47.3438 104.094L46.4 102.861L45.4527 104.091L35.264 117.325C34.7093 118.008 34.0053 118.349 33.152 118.349H25.7792ZM33.152 116.849H26.9299L58.6476 75.505C58.9239 75.171 59.2035 75.0491 59.584 75.0491H64.932V116.849H59.584C59.2037 116.849 58.9242 116.727 58.6481 116.394L47.5911 101.949L46.4034 100.398L45.2114 101.946L34.089 116.392C33.8126 116.727 33.5328 116.849 33.152 116.849ZM50.5227 95.035L49.8201 95.9491L50.5227 96.8632L57.1147 105.439L59.804 108.938V104.525V87.3731V82.9603L57.1147 86.459L50.5227 95.035ZM58.304 102.064V104.525L56.804 102.574L51.712 95.9491L56.804 89.3245L58.304 87.3731V89.8344V102.064ZM42.085 123.381C39.269 124.533 36.8156 126.154 34.725 128.245C32.677 130.336 31.0343 132.789 29.797 135.605C28.6023 138.421 28.005 141.472 28.005 144.757C28.005 148.042 28.581 151.114 29.733 153.973C30.885 156.832 32.485 159.328 34.533 161.461C36.581 163.552 38.9916 165.216 41.765 166.453C44.581 167.648 47.589 168.245 50.789 168.245C54.3303 168.288 57.5943 167.626 60.581 166.261C63.5676 164.853 66.149 162.933 68.325 160.501C68.453 160.33 68.4956 160.138 68.453 159.925C68.453 159.712 68.3676 159.541 68.197 159.413L63.141 155.125C62.9703 154.954 62.7783 154.89 62.565 154.933C62.3516 154.933 62.181 155.018 62.053 155.189C60.6876 156.81 59.0663 158.09 57.189 159.029C55.3116 159.968 53.3063 160.458 51.173 160.501C49.125 160.501 47.205 160.117 45.413 159.349C43.621 158.538 42.0423 157.429 40.677 156.021C39.3116 154.613 38.2236 152.97 37.413 151.093C36.6023 149.216 36.197 147.21 36.197 145.077C36.197 142.944 36.581 140.938 37.349 139.061C38.117 137.184 39.1623 135.541 40.485 134.133C41.8076 132.682 43.365 131.552 45.157 130.741C46.949 129.888 48.8476 129.44 50.853 129.397C53.0716 129.354 55.141 129.824 57.061 130.805C58.981 131.744 60.645 133.024 62.053 134.645C62.181 134.816 62.3516 134.922 62.565 134.965C62.7783 134.965 62.9703 134.901 63.141 134.773L68.197 130.485C68.3676 130.357 68.453 130.186 68.453 129.973C68.4956 129.76 68.453 129.568 68.325 129.397C66.1916 127.008 63.653 125.13 60.709 123.765C57.8076 122.4 54.629 121.696 51.173 121.653C47.9303 121.61 44.901 122.186 42.085 123.381ZM66.6682 129.815L62.729 133.156C61.2923 131.623 59.6244 130.39 57.7318 129.463C55.5885 128.37 53.2779 127.85 50.8241 127.897L50.8211 127.897C48.6107 127.944 46.5073 128.439 44.5254 129.38C42.5568 130.273 40.8396 131.52 39.3841 133.114C37.9333 134.661 36.7931 136.458 35.9607 138.493C35.1151 140.56 34.697 142.759 34.697 145.077C34.697 147.406 35.1406 149.615 36.0359 151.688C36.9155 153.725 38.103 155.521 39.6001 157.065C41.0971 158.609 42.8314 159.828 44.7947 160.716L44.8083 160.722L44.8221 160.728C46.8102 161.58 48.9323 162.001 51.173 162.001H51.188L51.203 162.001C53.5552 161.954 55.7798 161.411 57.8598 160.371C59.6979 159.452 61.3144 158.233 62.7032 156.721L66.6679 160.083C64.7465 162.088 62.5098 163.692 59.9493 164.901C57.1815 166.164 54.1415 166.785 50.807 166.745L50.798 166.745H50.789C47.7856 166.745 44.982 166.186 42.3634 165.078C39.7635 163.916 37.5166 162.362 35.6098 160.417C33.7025 158.429 32.2067 156.099 31.1243 153.412C30.0487 150.743 29.505 147.863 29.505 144.757C29.505 141.661 30.0662 138.815 31.1741 136.2C32.3408 133.547 33.8808 131.252 35.7911 129.3C37.7356 127.357 40.0183 125.847 42.6529 124.769L42.6619 124.766L42.6708 124.762C45.284 123.653 48.1058 123.113 51.1532 123.153L51.1545 123.153C54.4129 123.193 57.3779 123.855 60.0703 125.122L60.0779 125.126C62.5948 126.293 64.7885 127.855 66.6682 129.815ZM52.9132 193.036L52.2131 193.947L52.9115 194.86L68.2005 214.849H61.975C61.5941 214.849 61.3144 214.727 61.0379 214.392L45.322 193.98L61.0386 173.505C61.3148 173.171 61.5944 173.049 61.975 173.049H68.26L52.9132 193.036ZM70.0892 214.849L70.089 214.849L54.103 193.949L70.615 172.445C70.743 172.232 70.743 172.04 70.615 171.869C70.5296 171.656 70.359 171.549 70.103 171.549H69.4481H69.4118H61.975C61.1216 171.549 60.4176 171.89 59.863 172.573L43.799 193.501C43.5856 193.8 43.5856 194.12 43.799 194.461L59.863 215.325C60.4176 216.008 61.1216 216.349 61.975 216.349H69.3478H69.3497H69.3796H69.431H70.103C70.359 216.349 70.5296 216.264 70.615 216.093C70.743 215.88 70.7216 215.666 70.551 215.453L70.103 214.867L70.0892 214.849ZM34.547 173.049H39.739V214.849H34.547V173.049ZM33.815 216.349C33.6016 216.349 33.4096 216.285 33.239 216.157C33.111 215.986 33.047 215.794 33.047 215.581V172.317C33.047 172.104 33.111 171.933 33.239 171.805C33.4096 171.634 33.6016 171.549 33.815 171.549H40.407C40.9616 171.549 41.239 171.805 41.239 172.317V215.581C41.239 216.093 40.9616 216.349 40.407 216.349H33.815ZM82.364 110.221V111.721H83.864H99.9329L96.3218 116.391C96.0282 116.748 95.7613 116.849 95.448 116.849H77.172V75.0491H82.364V110.221ZM101.093 110.221H101.093H85.364H83.864V108.721V74.3171C83.864 73.8051 83.5866 73.5491 83.032 73.5491H76.44C76.2266 73.5491 76.0346 73.6344 75.864 73.8051C75.736 73.9331 75.672 74.1038 75.672 74.3171V117.581C75.672 117.794 75.736 117.986 75.864 118.157C76.0346 118.285 76.2266 118.349 76.44 118.349H95.448C96.2586 118.349 96.9413 118.008 97.496 117.325L102.296 111.117C102.424 110.946 102.424 110.754 102.296 110.541C102.211 110.328 102.04 110.221 101.784 110.221H101.137H101.101H101.093ZM81.852 123.921H76.724V150.773C76.724 152.968 77.134 155.029 77.9488 156.971C78.7712 158.888 79.9027 160.586 81.3477 162.071C82.7895 163.512 84.4657 164.663 86.3865 165.527C88.269 166.332 90.2935 166.72 92.4772 166.681C94.5869 166.642 96.5393 166.214 98.3496 165.406C100.235 164.541 101.849 163.41 103.204 162.015C104.561 160.62 105.632 158.988 106.415 157.108L106.42 157.096L106.426 157.084C107.236 155.231 107.644 153.261 107.644 151.157V123.921H102.516V151.157C102.516 152.644 102.217 154.068 101.619 155.414L101.614 155.424L101.61 155.434C101.017 156.719 100.197 157.84 99.1558 158.785C98.1441 159.743 96.9432 160.462 95.5763 160.951C94.1974 161.46 92.7337 161.63 91.2075 161.482L91.1969 161.481L91.1863 161.48C89.8586 161.332 88.6117 160.961 87.4581 160.359C86.3196 159.765 85.3219 158.993 84.4741 158.045L84.4465 158.014L84.4207 157.982C83.6491 157.018 83.0231 155.957 82.5434 154.806L82.5292 154.772L82.5166 154.737C82.073 153.505 81.852 152.223 81.852 150.901V123.921ZM95.064 159.541C96.2586 159.114 97.2826 158.496 98.136 157.685C99.032 156.874 99.736 155.914 100.248 154.805C100.76 153.653 101.016 152.437 101.016 151.157V123.189C101.016 122.976 101.101 122.805 101.272 122.677C101.443 122.506 101.635 122.421 101.848 122.421H108.376C108.589 122.421 108.76 122.506 108.888 122.677C109.059 122.805 109.144 122.976 109.144 123.189V151.157C109.144 153.461 108.696 155.637 107.8 157.685C106.947 159.733 105.773 161.525 104.28 163.061C102.787 164.597 101.016 165.834 98.968 166.773C96.9626 167.669 94.808 168.138 92.504 168.181C90.1146 168.224 87.8746 167.797 85.784 166.901C83.6933 165.962 81.8586 164.704 80.28 163.125C78.7013 161.504 77.464 159.648 76.568 157.557C75.672 155.424 75.224 153.162 75.224 150.773V123.189C75.224 122.976 75.288 122.805 75.416 122.677C75.5866 122.506 75.7786 122.421 75.992 122.421H82.584C82.7973 122.421 82.968 122.506 83.096 122.677C83.2666 122.805 83.352 122.976 83.352 123.189V150.901C83.352 152.053 83.544 153.162 83.928 154.229C84.3546 155.253 84.9093 156.192 85.592 157.045C86.3173 157.856 87.1706 158.517 88.152 159.029C89.1333 159.541 90.2 159.861 91.352 159.989C92.6746 160.117 93.912 159.968 95.064 159.541ZM110.488 183.325L102.296 193.949L110.488 204.573C110.829 205.042 111 205.576 111 206.173V215.581C111 216.093 110.744 216.349 110.232 216.349H76.44C76.2266 216.349 76.0346 216.285 75.864 216.157C75.736 215.986 75.672 215.794 75.672 215.581V172.317C75.672 172.104 75.736 171.933 75.864 171.805C76.0346 171.634 76.2266 171.549 76.44 171.549H110.232C110.744 171.549 111 171.805 111 172.317V181.725C111 182.322 110.829 182.856 110.488 183.325ZM101.108 194.865L109.285 205.469C109.427 205.67 109.5 205.889 109.5 206.173V214.849H77.172V173.049H109.5V181.725C109.5 182.009 109.427 182.228 109.285 182.429L101.108 193.033L100.402 193.949L101.108 194.865ZM102.616 209.721H105.658L103.806 207.308L93.5777 193.98L103.808 180.588L105.649 178.177H102.616H83.864H82.364V179.677V208.221V209.721H83.864H102.616ZM101.47 181.177L92.056 193.501C91.8426 193.8 91.8426 194.12 92.056 194.461L101.465 206.721L102.616 208.221H100.725H85.364H83.864V206.721V181.177V179.677H85.364H100.728H102.616L101.47 181.177Z" fill="url(#paint0_linear_20_323)"/>
<path fill-rule="evenodd" clip-rule="evenodd" d="M87.96 25.3811C85.144 26.5331 82.6906 28.1544 80.6 30.2451C78.552 32.3358 76.9093 34.7891 75.672 37.6051C74.4773 40.4211 73.88 43.4718 73.88 46.7571C73.88 50.0424 74.456 53.1144 75.608 55.9731C76.76 58.8318 78.36 61.3278 80.408 63.4611C82.456 65.5518 84.8666 67.2158 87.64 68.4531C90.456 69.6478 93.464 70.2451 96.664 70.2451C100.205 70.2878 103.469 69.6264 106.456 68.2611C109.443 66.8531 112.024 64.9331 114.2 62.5011C114.328 62.3304 114.371 62.1384 114.328 61.9251C114.328 61.7118 114.243 61.5411 114.072 61.4131L109.016 57.1251C108.845 56.9544 108.653 56.8904 108.44 56.9331C108.227 56.9331 108.056 57.0184 107.928 57.1891C106.563 58.8104 104.941 60.0904 103.064 61.0291C101.187 61.9678 99.1813 62.4584 97.048 62.5011C95 62.5011 93.08 62.1171 91.288 61.3491C89.496 60.5384 87.9173 59.4291 86.552 58.0211C85.1866 56.6131 84.0986 54.9704 83.288 53.0931C82.4773 51.2158 82.072 49.2104 82.072 47.0771C82.072 44.9438 82.456 42.9384 83.224 41.0611C83.992 39.1838 85.0373 37.5411 86.36 36.1331C87.6826 34.6824 89.24 33.5518 91.032 32.7411C92.824 31.8878 94.7226 31.4398 96.728 31.3971C98.9466 31.3544 101.016 31.8238 102.936 32.8051C104.856 33.7438 106.52 35.0238 107.928 36.6451C108.056 36.8158 108.227 36.9224 108.44 36.9651C108.653 36.9651 108.845 36.9011 109.016 36.7731L114.072 32.4851C114.243 32.3571 114.328 32.1864 114.328 31.9731C114.371 31.7598 114.328 31.5678 114.2 31.3971C112.067 29.0078 109.528 27.1304 106.584 25.7651C103.683 24.3998 100.504 23.6958 97.048 23.6531C93.8053 23.6104 90.776 24.1864 87.96 25.3811ZM112.543 31.8148L108.604 35.1556C107.167 33.6232 105.499 32.3904 103.607 31.4634C101.464 30.3703 99.1529 29.8502 96.6991 29.8974L96.6961 29.8974C94.4857 29.9445 92.3823 30.439 90.4004 31.3805C88.4318 32.2731 86.7146 33.52 85.2591 35.1142C83.8083 36.6606 82.6681 38.4582 81.8357 40.4931C80.9901 42.56 80.572 44.7592 80.572 47.0771C80.572 49.4059 81.0156 51.6145 81.9109 53.6877C82.7905 55.7247 83.978 57.5213 85.4751 59.0653C86.9721 60.609 88.7065 61.8276 90.6697 62.7158L90.6833 62.7219L90.6971 62.7278C92.6852 63.5798 94.8073 64.0011 97.048 64.0011H97.063L97.078 64.0008C99.4302 63.9537 101.655 63.4107 103.735 62.3707C105.573 61.4517 107.189 60.2326 108.578 58.7206L112.543 62.0831C110.621 64.0877 108.385 65.6923 105.824 66.9006C103.057 68.1643 100.017 68.7854 96.682 68.7452L96.673 68.7451H96.664C93.6606 68.7451 90.857 68.1864 88.2384 67.0775C85.6385 65.9158 83.3916 64.362 81.4848 62.4168C79.5775 60.4287 78.0817 58.0986 76.9993 55.4124C75.9237 52.7435 75.38 49.8631 75.38 46.7571C75.38 43.6614 75.9412 40.8146 77.0491 38.1997C78.2158 35.5471 79.7558 33.2518 81.6661 31.3003C83.6106 29.3572 85.8933 27.8472 88.5279 26.7694L88.5369 26.7657L88.5458 26.762C91.159 25.6533 93.9808 25.1129 97.0282 25.153L97.0295 25.153C100.288 25.1932 103.253 25.8553 105.945 27.1223L105.953 27.1259C108.47 28.2931 110.663 29.8549 112.543 31.8148ZM58.2945 42.9171V41.4171V25.3171C58.2945 25.1038 58.3585 24.9331 58.4865 24.8051C58.6571 24.6344 58.8491 24.5491 59.0625 24.5491H65.7185C65.9318 24.5491 66.1025 24.6344 66.2305 24.8051C66.4011 24.9331 66.4865 25.1038 66.4865 25.3171V68.5811C66.4865 68.7944 66.4011 68.9864 66.2305 69.1571C66.1025 69.2851 65.9318 69.3491 65.7185 69.3491H59.0625C58.8491 69.3491 58.6571 69.2851 58.4865 69.1571C58.3585 68.9864 58.2945 68.7944 58.2945 68.5811V52.5451V51.0451H56.7945H41.4265H39.9265V52.5451V68.5811C39.9265 69.0931 39.6491 69.3491 39.0945 69.3491H32.5025C32.2891 69.3491 32.0971 69.2851 31.9265 69.1571C31.7985 68.9864 31.7345 68.7944 31.7345 68.5811V25.3171C31.7345 25.1038 31.7985 24.9331 31.9265 24.8051C32.0971 24.6344 32.2891 24.5491 32.5025 24.5491H39.0945C39.6491 24.5491 39.9265 24.8051 39.9265 25.3171V41.4171V42.9171H41.4265H56.7945H58.2945ZM64.9865 67.8491H59.7945V51.0451V49.5451H58.2945H39.9265H38.4265V51.0451V67.8491H33.2345V26.0491H38.4265V42.9171V44.4171H39.9265H58.2945H59.7945V42.9171V26.0491H64.9865V67.8491ZM39.1091 26.0495L39.1045 26.0492C39.1076 26.0493 39.1091 26.0495 39.1091 26.0495ZM25.7792 118.349H25.7773H25.7439H25.696H25.024C24.8106 118.349 24.64 118.264 24.512 118.093C24.384 117.88 24.4053 117.666 24.576 117.453L25.024 116.869L25.0392 116.849L25.0393 116.849L57.472 74.5731C58.0266 73.8904 58.7306 73.5491 59.584 73.5491H65.664C66.176 73.5491 66.432 73.8051 66.432 74.3171V117.581C66.432 118.093 66.176 118.349 65.664 118.349H59.584C58.7306 118.349 58.0266 118.008 57.472 117.325L47.3438 104.094L46.4 102.861L45.4527 104.091L35.264 117.325C34.7093 118.008 34.0053 118.349 33.152 118.349H25.7792ZM33.152 116.849H26.9299L58.6476 75.505C58.9239 75.171 59.2035 75.0491 59.584 75.0491H64.932V116.849H59.584C59.2037 116.849 58.9242 116.727 58.6481 116.394L47.5911 101.949L46.4034 100.398L45.2114 101.946L34.089 116.392C33.8126 116.727 33.5328 116.849 33.152 116.849ZM50.5227 95.035L49.8201 95.9491L50.5227 96.8632L57.1147 105.439L59.804 108.938V104.525V87.3731V82.9603L57.1147 86.459L50.5227 95.035ZM58.304 102.064V104.525L56.804 102.574L51.712 95.9491L56.804 89.3245L58.304 87.3731V89.8344V102.064ZM42.085 123.381C39.269 124.533 36.8156 126.154 34.725 128.245C32.677 130.336 31.0343 132.789 29.797 135.605C28.6023 138.421 28.005 141.472 28.005 144.757C28.005 148.042 28.581 151.114 29.733 153.973C30.885 156.832 32.485 159.328 34.533 161.461C36.581 163.552 38.9916 165.216 41.765 166.453C44.581 167.648 47.589 168.245 50.789 168.245C54.3303 168.288 57.5943 167.626 60.581 166.261C63.5676 164.853 66.149 162.933 68.325 160.501C68.453 160.33 68.4956 160.138 68.453 159.925C68.453 159.712 68.3676 159.541 68.197 159.413L63.141 155.125C62.9703 154.954 62.7783 154.89 62.565 154.933C62.3516 154.933 62.181 155.018 62.053 155.189C60.6876 156.81 59.0663 158.09 57.189 159.029C55.3116 159.968 53.3063 160.458 51.173 160.501C49.125 160.501 47.205 160.117 45.413 159.349C43.621 158.538 42.0423 157.429 40.677 156.021C39.3116 154.613 38.2236 152.97 37.413 151.093C36.6023 149.216 36.197 147.21 36.197 145.077C36.197 142.944 36.581 140.938 37.349 139.061C38.117 137.184 39.1623 135.541 40.485 134.133C41.8076 132.682 43.365 131.552 45.157 130.741C46.949 129.888 48.8476 129.44 50.853 129.397C53.0716 129.354 55.141 129.824 57.061 130.805C58.981 131.744 60.645 133.024 62.053 134.645C62.181 134.816 62.3516 134.922 62.565 134.965C62.7783 134.965 62.9703 134.901 63.141 134.773L68.197 130.485C68.3676 130.357 68.453 130.186 68.453 129.973C68.4956 129.76 68.453 129.568 68.325 129.397C66.1916 127.008 63.653 125.13 60.709 123.765C57.8076 122.4 54.629 121.696 51.173 121.653C47.9303 121.61 44.901 122.186 42.085 123.381ZM66.6682 129.815L62.729 133.156C61.2923 131.623 59.6244 130.39 57.7318 129.463C55.5885 128.37 53.2779 127.85 50.8241 127.897L50.8211 127.897C48.6107 127.944 46.5073 128.439 44.5254 129.38C42.5568 130.273 40.8396 131.52 39.3841 133.114C37.9333 134.661 36.7931 136.458 35.9607 138.493C35.1151 140.56 34.697 142.759 34.697 145.077C34.697 147.406 35.1406 149.615 36.0359 151.688C36.9155 153.725 38.103 155.521 39.6001 157.065C41.0971 158.609 42.8314 159.828 44.7947 160.716L44.8083 160.722L44.8221 160.728C46.8102 161.58 48.9323 162.001 51.173 162.001H51.188L51.203 162.001C53.5552 161.954 55.7798 161.411 57.8598 160.371C59.6979 159.452 61.3144 158.233 62.7032 156.721L66.6679 160.083C64.7465 162.088 62.5098 163.692 59.9493 164.901C57.1815 166.164 54.1415 166.785 50.807 166.745L50.798 166.745H50.789C47.7856 166.745 44.982 166.186 42.3634 165.078C39.7635 163.916 37.5166 162.362 35.6098 160.417C33.7025 158.429 32.2067 156.099 31.1243 153.412C30.0487 150.743 29.505 147.863 29.505 144.757C29.505 141.661 30.0662 138.815 31.1741 136.2C32.3408 133.547 33.8808 131.252 35.7911 129.3C37.7356 127.357 40.0183 125.847 42.6529 124.769L42.6619 124.766L42.6708 124.762C45.284 123.653 48.1058 123.113 51.1532 123.153L51.1545 123.153C54.4129 123.193 57.3779 123.855 60.0703 125.122L60.0779 125.126C62.5948 126.293 64.7885 127.855 66.6682 129.815ZM52.9132 193.036L52.2131 193.947L52.9115 194.86L68.2005 214.849H61.975C61.5941 214.849 61.3144 214.727 61.0379 214.392L45.322 193.98L61.0386 173.505C61.3148 173.171 61.5944 173.049 61.975 173.049H68.26L52.9132 193.036ZM70.0892 214.849L70.089 214.849L54.103 193.949L70.615 172.445C70.743 172.232 70.743 172.04 70.615 171.869C70.5296 171.656 70.359 171.549 70.103 171.549H69.4481H69.4118H61.975C61.1216 171.549 60.4176 171.89 59.863 172.573L43.799 193.501C43.5856 193.8 43.5856 194.12 43.799 194.461L59.863 215.325C60.4176 216.008 61.1216 216.349 61.975 216.349H69.3478H69.3497H69.3796H69.431H70.103C70.359 216.349 70.5296 216.264 70.615 216.093C70.743 215.88 70.7216 215.666 70.551 215.453L70.103 214.867L70.0892 214.849ZM34.547 173.049H39.739V214.849H34.547V173.049ZM33.815 216.349C33.6016 216.349 33.4096 216.285 33.239 216.157C33.111 215.986 33.047 215.794 33.047 215.581V172.317C33.047 172.104 33.111 171.933 33.239 171.805C33.4096 171.634 33.6016 171.549 33.815 171.549H40.407C40.9616 171.549 41.239 171.805 41.239 172.317V215.581C41.239 216.093 40.9616 216.349 40.407 216.349H33.815ZM82.364 110.221V111.721H83.864H99.9329L96.3218 116.391C96.0282 116.748 95.7613 116.849 95.448 116.849H77.172V75.0491H82.364V110.221ZM101.093 110.221H101.093H85.364H83.864V108.721V74.3171C83.864 73.8051 83.5866 73.5491 83.032 73.5491H76.44C76.2266 73.5491 76.0346 73.6344 75.864 73.8051C75.736 73.9331 75.672 74.1038 75.672 74.3171V117.581C75.672 117.794 75.736 117.986 75.864 118.157C76.0346 118.285 76.2266 118.349 76.44 118.349H95.448C96.2586 118.349 96.9413 118.008 97.496 117.325L102.296 111.117C102.424 110.946 102.424 110.754 102.296 110.541C102.211 110.328 102.04 110.221 101.784 110.221H101.137H101.101H101.093ZM81.852 123.921H76.724V150.773C76.724 152.968 77.134 155.029 77.9488 156.971C78.7712 158.888 79.9027 160.586 81.3477 162.071C82.7895 163.512 84.4657 164.663 86.3865 165.527C88.269 166.332 90.2935 166.72 92.4772 166.681C94.5869 166.642 96.5393 166.214 98.3496 165.406C100.235 164.541 101.849 163.41 103.204 162.015C104.561 160.62 105.632 158.988 106.415 157.108L106.42 157.096L106.426 157.084C107.236 155.231 107.644 153.261 107.644 151.157V123.921H102.516V151.157C102.516 152.644 102.217 154.068 101.619 155.414L101.614 155.424L101.61 155.434C101.017 156.719 100.197 157.84 99.1558 158.785C98.1441 159.743 96.9432 160.462 95.5763 160.951C94.1974 161.46 92.7337 161.63 91.2075 161.482L91.1969 161.481L91.1863 161.48C89.8586 161.332 88.6117 160.961 87.4581 160.359C86.3196 159.765 85.3219 158.993 84.4741 158.045L84.4465 158.014L84.4207 157.982C83.6491 157.018 83.0231 155.957 82.5434 154.806L82.5292 154.772L82.5166 154.737C82.073 153.505 81.852 152.223 81.852 150.901V123.921ZM95.064 159.541C96.2586 159.114 97.2826 158.496 98.136 157.685C99.032 156.874 99.736 155.914 100.248 154.805C100.76 153.653 101.016 152.437 101.016 151.157V123.189C101.016 122.976 101.101 122.805 101.272 122.677C101.443 122.506 101.635 122.421 101.848 122.421H108.376C108.589 122.421 108.76 122.506 108.888 122.677C109.059 122.805 109.144 122.976 109.144 123.189V151.157C109.144 153.461 108.696 155.637 107.8 157.685C106.947 159.733 105.773 161.525 104.28 163.061C102.787 164.597 101.016 165.834 98.968 166.773C96.9626 167.669 94.808 168.138 92.504 168.181C90.1146 168.224 87.8746 167.797 85.784 166.901C83.6933 165.962 81.8586 164.704 80.28 163.125C78.7013 161.504 77.464 159.648 76.568 157.557C75.672 155.424 75.224 153.162 75.224 150.773V123.189C75.224 122.976 75.288 122.805 75.416 122.677C75.5866 122.506 75.7786 122.421 75.992 122.421H82.584C82.7973 122.421 82.968 122.506 83.096 122.677C83.2666 122.805 83.352 122.976 83.352 123.189V150.901C83.352 152.053 83.544 153.162 83.928 154.229C84.3546 155.253 84.9093 156.192 85.592 157.045C86.3173 157.856 87.1706 158.517 88.152 159.029C89.1333 159.541 90.2 159.861 91.352 159.989C92.6746 160.117 93.912 159.968 95.064 159.541ZM110.488 183.325L102.296 193.949L110.488 204.573C110.829 205.042 111 205.576 111 206.173V215.581C111 216.093 110.744 216.349 110.232 216.349H76.44C76.2266 216.349 76.0346 216.285 75.864 216.157C75.736 215.986 75.672 215.794 75.672 215.581V172.317C75.672 172.104 75.736 171.933 75.864 171.805C76.0346 171.634 76.2266 171.549 76.44 171.549H110.232C110.744 171.549 111 171.805 111 172.317V181.725C111 182.322 110.829 182.856 110.488 183.325ZM101.108 194.865L109.285 205.469C109.427 205.67 109.5 205.889 109.5 206.173V214.849H77.172V173.049H109.5V181.725C109.5 182.009 109.427 182.228 109.285 182.429L101.108 193.033L100.402 193.949L101.108 194.865ZM102.616 209.721H105.658L103.806 207.308L93.5777 193.98L103.808 180.588L105.649 178.177H102.616H83.864H82.364V179.677V208.221V209.721H83.864H102.616ZM101.47 181.177L92.056 193.501C91.8426 193.8 91.8426 194.12 92.056 194.461L101.465 206.721L102.616 208.221H100.725H85.364H83.864V206.721V181.177V179.677H85.364H100.728H102.616L101.47 181.177Z" fill="url(#paint1_linear_20_323)" fill-opacity="0.4" style="mix-blend-mode:exclusion"/>
<path d="M11.107 228.667L10.117 228.667C10.039 228.667 10 228.625 10 228.541V227.56C10 227.482 10.039 227.443 10.117 227.443H11.107C11.185 227.443 11.224 227.482 11.224 227.56V228.541C11.224 228.625 11.185 228.667 11.107 228.667ZM11.107 225.922L10.117 225.922C10.039 225.922 10 225.883 10 225.805V224.815C10 224.737 10.039 224.698 10.117 224.698H11.107C11.185 224.698 11.224 224.737 11.224 224.815V225.805C11.224 225.883 11.185 225.922 11.107 225.922Z" fill="#FF4655" fill-opacity="0.4"/>
<path d="M31.0902 228.922L30.1092 228.922C30.0312 228.922 29.9922 228.883 29.9922 228.805V227.815C29.9922 227.737 30.0312 227.698 30.1092 227.698L31.0902 227.698C31.1682 227.698 31.2072 227.737 31.2072 227.815V228.805C31.2072 228.883 31.1682 228.922 31.0902 228.922Z" fill="#FF4655" fill-opacity="0.4"/>
<path d="M28.5941 228.922L27.6131 228.922C27.5351 228.922 27.4961 228.883 27.4961 228.805V227.815C27.4961 227.737 27.5351 227.698 27.6131 227.698L28.5941 227.698C28.6721 227.698 28.7111 227.737 28.7111 227.815V228.805C28.7111 228.883 28.6721 228.922 28.5941 228.922Z" fill="#FF4655" fill-opacity="0.4"/>
<path d="M26.098 228.922L25.117 228.922C25.039 228.922 25 228.883 25 228.805V227.815C25 227.737 25.039 227.698 25.117 227.698L26.098 227.698C26.176 227.698 26.215 227.737 26.215 227.815V228.805C26.215 228.883 26.176 228.922 26.098 228.922Z" fill="#FF4655" fill-opacity="0.4"/>
<path d="M73.878 228.913L69.117 228.913C69.039 228.913 69 228.874 69 228.796V227.815C69 227.737 69.039 227.698 69.117 227.698L73.878 227.698C73.956 227.698 73.995 227.737 73.995 227.815V228.796C73.995 228.874 73.956 228.913 73.878 228.913Z" fill="#FF4655" fill-opacity="0.4"/>
<path d="M112.098 228.922L111.117 228.922C111.039 228.922 111 228.883 111 228.805V227.815C111 227.737 111.039 227.698 111.117 227.698L112.098 227.698C112.176 227.698 112.215 227.737 112.215 227.815V228.805C112.215 228.883 112.176 228.922 112.098 228.922Z" fill="#FF4655" fill-opacity="0.4"/>
<path d="M121.098 228.922L120.117 228.922C120.039 228.922 120 228.883 120 228.805V227.815C120 227.737 120.039 227.698 120.117 227.698L121.098 227.698C121.176 227.698 121.215 227.737 121.215 227.815V228.805C121.215 228.883 121.176 228.922 121.098 228.922Z" fill="#FF4655" fill-opacity="0.4"/>
<path d="M131.098 228.922L130.117 228.922C130.039 228.922 130 228.883 130 228.805V227.815C130 227.737 130.039 227.698 130.117 227.698L131.098 227.698C131.176 227.698 131.215 227.737 131.215 227.815V228.805C131.215 228.883 131.176 228.922 131.098 228.922Z" fill="#FF4655" fill-opacity="0.4"/>
<path d="M117.107 231.667L116.117 231.667C116.039 231.667 116 231.625 116 231.541V230.56C116 230.482 116.039 230.443 116.117 230.443H117.107C117.185 230.443 117.224 230.482 117.224 230.56V231.541C117.224 231.625 117.185 231.667 117.107 231.667ZM117.107 228.922L116.117 228.922C116.039 228.922 116 228.883 116 228.805V227.815C116 227.737 116.039 227.698 116.117 227.698H117.107C117.185 227.698 117.224 227.737 117.224 227.815V228.805C117.224 228.883 117.185 228.922 117.107 228.922Z" fill="#FF4655" fill-opacity="0.4"/>
<defs>
<linearGradient id="paint0_linear_20_323" x1="83" y1="136.849" x2="56" y2="137.349" gradientUnits="userSpaceOnUse">
<stop stop-color="#4ADDD9"/>
<stop offset="1" stop-color="#FF4655"/>
</linearGradient>
<linearGradient id="paint1_linear_20_323" x1="69.3868" y1="23.6509" x2="69.3868" y2="216.349" gradientUnits="userSpaceOnUse">
<stop stop-opacity="0"/>
<stop offset="1" stop-color="white"/>
</linearGradient>
</defs>
</svg>
