<svg width="1165" height="412" viewBox="0 0 1165 412" fill="none" xmlns="http://www.w3.org/2000/svg">
<path d="M602.978 332.321C604.549 328.778 607.121 327.758 610.478 325.821C613.835 323.884 654.642 308.002 660.281 306.917C665.921 305.831 682.587 303.591 689.978 302.821C697.368 302.051 701.549 301.66 708.978 301.821C721.208 302.086 739.978 306.321 739.978 306.321C739.978 306.321 748.362 309.324 753.478 311.821C758.594 314.318 770.691 321.036 775.478 324.321C780.265 327.606 782.458 330.132 786.478 334.321C790.026 338.019 792.531 339.573 795.921 343.417C801.951 350.255 809.34 356.081 813.618 360.689L833.618 386.189C833.618 386.189 835.943 389.717 838.118 391.189C839.71 392.268 841.921 392.285 847.421 393.189C847.421 393.189 853.921 394.174 849.921 397.285C845.421 400.785 845.118 401.785 838.118 401.785C838.118 401.785 835.921 401.785 826.921 394.785C817.921 387.785 818.921 389.285 810.118 380.412C801.314 371.539 790.621 361.222 786.478 355.864C782.335 350.505 779.933 348.559 774.781 343.417C768.227 336.875 761.146 332.012 753.478 326.821C745.594 321.485 738.602 320.537 729.478 317.821C723.385 316.007 719.793 315.55 713.478 314.821C703.197 313.635 697.283 313.874 686.978 314.821C678.698 315.581 674.082 316.465 665.978 318.321C655.202 320.789 649.247 322.728 638.978 326.821C629.729 330.507 625.458 334.778 615.978 337.821C611.378 339.297 607.375 344.255 603.978 340.821C602.75 339.579 602.2 338.553 601.978 336.821C601.748 335.035 602.248 333.967 602.978 332.321Z" fill="#FFB400"/>
<path d="M874.122 4.78532C874.122 4.78532 905.122 18.7853 905.122 57.7853C905.122 96.7853 883.122 136.785 883.122 136.785C883.122 136.785 856.18 170.067 845.122 194.785C840.531 205.049 836.538 210.631 835.122 221.785C834.336 227.984 836.438 230.409 839.622 235.785C843.139 241.723 851.122 245.285 851.122 245.285C851.122 245.285 840.784 233.511 841.122 224.785C841.402 217.59 841.244 212.853 845.122 206.785C849.672 199.667 857.338 197.128 865.622 198.785C873.122 200.285 877.545 200.68 885.122 198.785C895.002 196.315 898.122 189.785 906.622 180.285C918.107 167.45 922.122 155.285 933.622 139.785C960.25 103.897 966.921 99.2853 991.921 77.2853C1009.98 61.3898 1031.18 55.217 1058.3 47.3156L1060.12 46.7853C1073.14 42.9919 1078.42 41.7853 1092.42 41.7853C1100.78 41.7853 1106.96 43.1798 1110.42 46.7853C1113.89 50.3908 1112.92 62.2853 1118.42 67.7853C1123.92 73.2853 1127.29 74.2809 1135.62 77.2853C1141.5 79.4056 1146.22 81.2853 1150.42 83.2853C1154.62 85.2853 1158.92 85.7853 1162.42 92.2853C1165.92 98.7853 1164.12 101.285 1154.62 113.785C1145.12 126.285 1140.01 126.289 1126.12 129.785C1109.46 133.979 1096.62 131.785 1082.12 129.785C1074.82 128.779 1070.23 126.711 1063.12 124.785C1056.71 123.051 1049.12 119.785 1049.12 119.785C1049.12 119.785 1058.66 124.166 1060.12 129.785C1061.42 134.785 1060.92 134.285 1057.12 143.285C1053.32 152.285 1001.92 239.285 994.421 257.285C986.921 275.285 979.756 269.753 975.622 277.285C975.622 277.285 970.122 292.132 970.122 302.285C970.122 302.285 968.622 330.785 971.622 347.285C973.788 359.196 968.36 377.125 962.622 387.785C961.51 389.852 960.122 391.857 958.622 393.735L963.622 395.785C965.56 397.982 964.455 400.477 963.622 403.285C962.79 406.094 958.836 409.632 955.921 410.285C953.007 410.939 950.323 412.589 948.421 410.285L946.122 405.785C946.122 405.785 941.247 407.785 938.122 407.785H919.921C909.501 407.785 897.622 407.449 893.421 404.285L893.271 404.172C889.109 401.04 884.562 397.618 888.122 383.785C889.982 376.56 898.548 371.036 902.622 364.785C908.692 355.474 907.868 345.556 905.122 334.785C903.517 328.487 900.921 322.785 900.921 322.785C900.921 322.785 900.465 331.615 897.622 336.285C895.592 339.621 891.506 343.835 888.122 345.785C883.093 348.685 867.72 352.785 854.421 354.285C841.122 355.785 836.569 357.526 825.921 354.285C802.921 347.285 795.921 328.785 776.921 314.785C762.267 303.987 737.622 298.285 737.622 298.285L737.191 298.154C728.07 295.371 721.234 293.285 711.622 293.285C702.622 293.285 683.921 286.285 678.921 280.285C673.921 274.285 632.547 247.916 620.122 242.285C607.698 236.655 588.421 233.285 588.421 233.285C588.421 233.285 624.421 233.285 652.921 231.285C671.437 229.986 684.22 229.785 697.921 229.785C711.622 229.785 734.921 234.785 747.421 240.285C759.921 245.785 766.122 253.785 766.122 253.785C766.122 253.785 763.122 236.785 756.122 231.785C749.122 226.785 727.514 224.849 708.122 223.785C697.773 223.218 691.421 223.785 680.921 223.785C672.921 223.785 341.922 225.452 177.922 230.785C177.922 230.785 164.833 229.366 156.422 225.785C144.69 220.791 141.922 219.285 131.422 211.285C124.609 206.095 117.373 195.542 121.922 188.285C124.165 184.706 131.422 177.785 131.422 177.785H202.422L775.622 173.285C775.622 173.285 780.122 169.397 780.122 167.285C780.122 165.173 775.622 161.785 775.622 161.785L437.421 164.285L147.922 166.285C147.922 166.285 130.333 167.866 121.922 164.285C110.19 159.291 107.422 160.285 96.9216 152.285C90.1089 147.095 85.3725 133.542 89.9216 126.285C92.1652 122.706 96.9216 119.285 96.9216 119.285C104.16 118.376 108.922 117.285 108.922 117.285L810.622 113.285C810.622 113.285 816.921 110.897 816.921 108.785C816.921 103.785 814.324 103.785 814.324 103.785H789.324L96.9216 107.785C96.9216 107.785 80.1316 108.366 71.72 104.785C59.9883 99.7913 62.22 98.6662 51.22 90.2853C44.4073 85.0946 40.22 76.6662 44.22 70.2853C46.4636 66.7062 47.3667 63.5972 51.22 63.2853C60.72 62.5163 80.72 62.5163 80.72 62.5163L821.622 56.7853C821.622 56.7853 822.995 55.1314 822.622 52.7853C822.197 50.1062 819.122 49.2853 819.122 49.2853L57.4215 54.2853C57.4215 54.2853 44.3329 52.8659 35.9213 49.2853C24.1895 44.2913 21.4213 42.7853 10.9213 34.7853C4.10857 29.5946 -3.12777 19.0422 1.42133 11.7853C3.66494 8.20621 8.42133 4.78529 8.42133 4.78529C347.068 -5.98163 874.122 4.78532 874.122 4.78532Z" fill="#FFB400"/>
<path d="M537.385 247.483C532.799 245.81 532.735 236.467 537.385 234.983C539.061 234.448 541.885 235.169 541.885 235.169C541.885 235.169 599.61 239.235 624.885 253.483C644.073 264.299 649.982 268.991 664.921 283.285C671.921 289.983 678.421 287.285 678.421 289.285C678.421 291.285 658.921 299.285 655.921 299.285C652.921 299.285 649.921 293.285 647.421 290.785C631.985 275.348 630.471 271.58 611.385 260.983C590.447 249.357 541.885 247.504 541.885 247.504C541.885 247.504 539.036 248.085 537.385 247.483Z" fill="#FFB400"/>
<path d="M991.067 265.785C991.067 265.785 996.699 274.154 1002.07 277.285C1020.07 287.785 1033.57 286.285 1048.57 303.285C1048.57 303.285 1055.04 304.878 1059.07 306.285C1060.64 306.835 1061.89 306.605 1063.07 307.785C1064.25 308.965 1064.51 310.118 1064.57 311.785C1064.64 313.636 1063.99 314.677 1063.07 316.285C1061.83 318.443 1060.42 319.127 1058.57 320.785C1056.7 322.453 1053.57 324.785 1053.57 324.785C1053.57 324.785 1053.07 326.285 1048.57 331.785C1048.57 331.785 1033.79 350.099 1022.07 352.285C1017.65 353.108 1012.86 351.341 1009.57 348.285C1002.57 341.785 1004.01 341.505 998.567 338.785C988.567 333.785 986.067 334.785 977.567 329.285C974.021 326.99 971.067 322.785 971.067 322.785C971.067 322.785 962.981 311.637 961.646 303.285C960.225 294.396 961.044 288.514 965.146 280.5C970.329 270.374 987.646 262 987.646 262L991.067 265.785Z" fill="#FFB400"/>
</svg>
